<svg width="167" height="49" viewBox="0 0 167 49" fill="none" xmlns="http://www.w3.org/2000/svg">
<g filter="url(#filter0_d_23_191)">
<rect x="6" y="3" width="155" height="37" rx="6" fill="#00C800"/>
</g>
<path d="M88.0772 27.472C88.0772 27.6853 87.9759 27.8133 87.7732 27.856C87.3679 27.9413 86.8932 28.0053 86.3492 28.048C85.8052 28.1013 85.1172 28.128 84.2852 28.128C83.8585 28.128 83.3945 28.048 82.8932 27.888C82.3919 27.728 81.9225 27.4613 81.4852 27.088C81.0585 26.7147 80.7012 26.2133 80.4132 25.584C80.1359 24.944 79.9972 24.1547 79.9972 23.216V20.912C79.9972 19.9627 80.1305 19.1733 80.3972 18.544C80.6745 17.9147 81.0265 17.4133 81.4532 17.04C81.8799 16.656 82.3439 16.384 82.8452 16.224C83.3572 16.064 83.8532 15.984 84.3332 15.984C84.7172 15.984 85.0852 15.9947 85.4372 16.016C85.7999 16.0373 86.1305 16.064 86.4292 16.096C86.7279 16.128 86.9945 16.16 87.2292 16.192C87.4639 16.224 87.6452 16.2507 87.7732 16.272C87.9759 16.3147 88.0772 16.4267 88.0772 16.608V17.68C88.0772 17.7973 88.0559 17.8827 88.0132 17.936C87.9705 17.9893 87.8852 18.016 87.7572 18.016H87.7092C87.3359 17.984 86.8719 17.9573 86.3172 17.936C85.7625 17.904 85.1012 17.888 84.3332 17.888C84.0665 17.888 83.8052 17.9413 83.5492 18.048C83.3039 18.144 83.0799 18.3093 82.8772 18.544C82.6852 18.7787 82.5305 19.0933 82.4132 19.488C82.2959 19.872 82.2372 20.3467 82.2372 20.912V23.216C82.2372 23.7813 82.2959 24.256 82.4132 24.64C82.5412 25.024 82.7012 25.3333 82.8932 25.568C83.0959 25.8027 83.3199 25.9733 83.5652 26.08C83.8105 26.176 84.0505 26.224 84.2852 26.224C84.8505 26.224 85.3785 26.208 85.8692 26.176V22.096C85.8692 22.0107 85.8959 21.936 85.9492 21.872C86.0132 21.808 86.0879 21.776 86.1732 21.776H87.7572C87.8425 21.776 87.9172 21.808 87.9812 21.872C88.0452 21.936 88.0772 22.0107 88.0772 22.096V27.472ZM97.6894 24.144C97.6894 24.72 97.6041 25.2533 97.4334 25.744C97.2734 26.224 97.0334 26.64 96.7134 26.992C96.3934 27.344 95.9934 27.6213 95.5134 27.824C95.0441 28.0267 94.4948 28.128 93.8654 28.128C93.2361 28.128 92.6814 28.0267 92.2014 27.824C91.7321 27.6213 91.3374 27.344 91.0174 26.992C90.6974 26.64 90.4521 26.224 90.2814 25.744C90.1214 25.2533 90.0414 24.72 90.0414 24.144V22.848C90.0414 22.272 90.1214 21.744 90.2814 21.264C90.4521 20.7733 90.6974 20.352 91.0174 20C91.3374 19.648 91.7321 19.3707 92.2014 19.168C92.6814 18.9653 93.2361 18.864 93.8654 18.864C94.4948 18.864 95.0441 18.9653 95.5134 19.168C95.9934 19.3707 96.3934 19.648 96.7134 20C97.0334 20.352 97.2734 20.7733 97.4334 21.264C97.6041 21.744 97.6894 22.272 97.6894 22.848V24.144ZM95.5774 22.848C95.5774 22.1867 95.4334 21.664 95.1454 21.28C94.8574 20.8853 94.4308 20.688 93.8654 20.688C93.3001 20.688 92.8734 20.8853 92.5854 21.28C92.2974 21.664 92.1534 22.1867 92.1534 22.848V24.144C92.1534 24.8053 92.2974 25.3333 92.5854 25.728C92.8734 26.112 93.3001 26.304 93.8654 26.304C94.4308 26.304 94.8574 26.112 95.1454 25.728C95.4334 25.3333 95.5774 24.8053 95.5774 24.144V22.848ZM106.877 24.144C106.877 24.72 106.792 25.2533 106.621 25.744C106.461 26.224 106.221 26.64 105.901 26.992C105.581 27.344 105.181 27.6213 104.701 27.824C104.232 28.0267 103.682 28.128 103.053 28.128C102.424 28.128 101.869 28.0267 101.389 27.824C100.92 27.6213 100.525 27.344 100.205 26.992C99.8849 26.64 99.6396 26.224 99.4689 25.744C99.3089 25.2533 99.2289 24.72 99.2289 24.144V22.848C99.2289 22.272 99.3089 21.744 99.4689 21.264C99.6396 20.7733 99.8849 20.352 100.205 20C100.525 19.648 100.92 19.3707 101.389 19.168C101.869 18.9653 102.424 18.864 103.053 18.864C103.682 18.864 104.232 18.9653 104.701 19.168C105.181 19.3707 105.581 19.648 105.901 20C106.221 20.352 106.461 20.7733 106.621 21.264C106.792 21.744 106.877 22.272 106.877 22.848V24.144ZM104.765 22.848C104.765 22.1867 104.621 21.664 104.333 21.28C104.045 20.8853 103.618 20.688 103.053 20.688C102.488 20.688 102.061 20.8853 101.773 21.28C101.485 21.664 101.341 22.1867 101.341 22.848V24.144C101.341 24.8053 101.485 25.3333 101.773 25.728C102.061 26.112 102.488 26.304 103.053 26.304C103.618 26.304 104.045 26.112 104.333 25.728C104.621 25.3333 104.765 24.8053 104.765 24.144V22.848ZM115.84 27.28C115.84 27.3973 115.814 27.488 115.76 27.552C115.707 27.6053 115.59 27.6587 115.408 27.712C114.907 27.84 114.374 27.9413 113.808 28.016C113.243 28.0907 112.704 28.128 112.192 28.128C110.902 28.128 109.942 27.776 109.312 27.072C108.683 26.3573 108.368 25.3707 108.368 24.112V22.88C108.368 21.6213 108.683 20.64 109.312 19.936C109.942 19.2213 110.902 18.864 112.192 18.864C112.384 18.864 112.614 18.8747 112.88 18.896C113.147 18.9067 113.43 18.9333 113.728 18.976V16.144C113.728 16.0587 113.76 15.984 113.824 15.92C113.888 15.856 113.963 15.824 114.048 15.824H115.52C115.606 15.824 115.68 15.856 115.744 15.92C115.808 15.984 115.84 16.0587 115.84 16.144V27.28ZM113.728 20.704C113.504 20.672 113.238 20.6453 112.928 20.624C112.63 20.6027 112.384 20.592 112.192 20.592C111.851 20.592 111.568 20.6507 111.344 20.768C111.12 20.8853 110.944 21.0453 110.816 21.248C110.688 21.4507 110.598 21.6907 110.544 21.968C110.502 22.2453 110.48 22.5493 110.48 22.88V24.112C110.48 24.4427 110.502 24.7467 110.544 25.024C110.598 25.3013 110.688 25.5413 110.816 25.744C110.944 25.9467 111.12 26.1067 111.344 26.224C111.568 26.3413 111.851 26.4 112.192 26.4C112.48 26.4 112.768 26.3893 113.056 26.368C113.355 26.3467 113.579 26.32 113.728 26.288V20.704Z" fill="white"/>
<circle cx="44.5" cy="21.5" r="12.5" fill="white"/>
<path d="M48.9014 17.1435C49.6057 17.0261 51.2606 17.073 52.2465 18.1998" stroke="#00C800" stroke-width="1.2" stroke-linecap="round"/>
<path d="M40.2747 17.3536C39.5704 17.2644 37.9155 17.3001 36.9296 18.1566" stroke="#00C800" stroke-width="1.2" stroke-linecap="round"/>
<circle cx="50.3099" cy="21.5452" r="1.40845" fill="#00C800"/>
<circle cx="38.6901" cy="21.5452" r="1.40845" fill="#00C800"/>
<path d="M47.3169 24.8906C46.4366 25.8883 44.0775 27.285 41.6831 24.8906" stroke="#00C800" stroke-width="1.2" stroke-linecap="round"/>
<defs>
<filter id="filter0_d_23_191" x="0" y="0" width="167" height="49" filterUnits="userSpaceOnUse" color-interpolation-filters="sRGB">
<feFlood flood-opacity="0" result="BackgroundImageFix"/>
<feColorMatrix in="SourceAlpha" type="matrix" values="0 0 0 0 0 0 0 0 0 0 0 0 0 0 0 0 0 0 127 0" result="hardAlpha"/>
<feOffset dy="3"/>
<feGaussianBlur stdDeviation="3"/>
<feComposite in2="hardAlpha" operator="out"/>
<feColorMatrix type="matrix" values="0 0 0 0 0 0 0 0 0 0 0 0 0 0 0 0 0 0 0.1 0"/>
<feBlend mode="normal" in2="BackgroundImageFix" result="effect1_dropShadow_23_191"/>
<feBlend mode="normal" in="SourceGraphic" in2="effect1_dropShadow_23_191" result="shape"/>
</filter>
</defs>
</svg>
