<svg width="167" height="49" viewBox="0 0 167 49" fill="none" xmlns="http://www.w3.org/2000/svg">
<g filter="url(#filter0_d_23_223)">
<rect x="6" y="3" width="155" height="37" rx="6" fill="#7E0023"/>
</g>
<path d="M74.4498 27.68C74.4498 27.7653 74.4178 27.84 74.3538 27.904C74.2898 27.968 74.2151 28 74.1298 28H72.5458C72.4605 28 72.3858 27.968 72.3218 27.904C72.2578 27.84 72.2258 27.7653 72.2258 27.68V22.784H67.6818V27.68C67.6818 27.7653 67.6498 27.84 67.5858 27.904C67.5218 27.968 67.4471 28 67.3618 28H65.7778C65.6925 28 65.6178 27.968 65.5538 27.904C65.4898 27.84 65.4578 27.7653 65.4578 27.68V16.416C65.4578 16.3307 65.4898 16.2613 65.5538 16.208C65.6178 16.144 65.6925 16.112 65.7778 16.112H67.3618C67.4471 16.112 67.5218 16.144 67.5858 16.208C67.6498 16.2613 67.6818 16.3307 67.6818 16.416V20.832H72.2258V16.416C72.2258 16.3307 72.2578 16.2613 72.3218 16.208C72.3858 16.144 72.4605 16.112 72.5458 16.112H74.1298C74.2151 16.112 74.2898 16.144 74.3538 16.208C74.4178 16.2613 74.4498 16.3307 74.4498 16.416V27.68ZM83.3764 27.68C83.3764 27.7653 83.3444 27.84 83.2804 27.904C83.2164 27.968 83.1418 28 83.0564 28H81.6964C81.6111 28 81.5364 27.968 81.4724 27.904C81.4084 27.84 81.3764 27.7653 81.3764 27.68V27.424C81.0031 27.648 80.6298 27.824 80.2564 27.952C79.8831 28.0693 79.5044 28.128 79.1204 28.128C78.7898 28.128 78.4591 28.0907 78.1284 28.016C77.7978 27.9413 77.4991 27.8027 77.2324 27.6C76.9764 27.3973 76.7631 27.1253 76.5924 26.784C76.4324 26.4427 76.3524 26 76.3524 25.456V25.392C76.3524 24.4747 76.6564 23.7867 77.2644 23.328C77.8724 22.8587 78.8698 22.624 80.2564 22.624H81.2644V21.92C81.2644 21.3973 81.1471 21.0507 80.9124 20.88C80.6884 20.7093 80.3364 20.624 79.8564 20.624C79.3444 20.624 78.8484 20.64 78.3684 20.672C77.8884 20.6933 77.5151 20.72 77.2484 20.752H77.1684C77.0831 20.752 77.0138 20.736 76.9604 20.704C76.9071 20.672 76.8804 20.5973 76.8804 20.48V19.456C76.8804 19.2747 76.9818 19.1627 77.1844 19.12C77.5044 19.056 77.8884 18.9973 78.3364 18.944C78.7951 18.8907 79.3018 18.864 79.8564 18.864C80.9978 18.864 81.8671 19.1147 82.4644 19.616C83.0724 20.1173 83.3764 20.8853 83.3764 21.92V27.68ZM81.2644 24.032H80.2564C79.8938 24.032 79.5951 24.064 79.3604 24.128C79.1364 24.1813 78.9551 24.2667 78.8164 24.384C78.6884 24.4907 78.5978 24.6293 78.5444 24.8C78.5018 24.9707 78.4804 25.168 78.4804 25.392V25.456C78.4804 25.8507 78.5711 26.1173 78.7524 26.256C78.9338 26.384 79.2271 26.448 79.6324 26.448C79.9204 26.448 80.2031 26.4053 80.4804 26.32C80.7684 26.2347 81.0298 26.128 81.2644 26V24.032ZM91.6141 27.68C91.6141 27.7653 91.5821 27.84 91.5181 27.904C91.4541 27.968 91.3794 28 91.2941 28H85.6941C85.5127 28 85.3581 27.9413 85.2301 27.824C85.1127 27.696 85.0541 27.5413 85.0541 27.36V26.672C85.0541 26.512 85.1234 26.3413 85.2621 26.16L89.1341 20.832C89.1661 20.7787 89.1821 20.7467 89.1821 20.736C89.1821 20.704 89.1501 20.688 89.0861 20.688H85.4701C85.3847 20.688 85.3154 20.6667 85.2621 20.624C85.2087 20.5813 85.1821 20.5173 85.1821 20.432V19.296C85.1821 19.2107 85.2141 19.136 85.2781 19.072C85.3421 19.008 85.4167 18.976 85.5021 18.976H90.9421C91.1234 18.976 91.2727 19.04 91.3901 19.168C91.5181 19.296 91.5821 19.4507 91.5821 19.632V20.544C91.5821 20.5867 91.5714 20.6507 91.5501 20.736C91.5394 20.8213 91.5234 20.88 91.5021 20.912L87.7741 26.016L87.7421 26.064C87.7421 26.1067 87.7741 26.128 87.8381 26.128H91.3261C91.4114 26.128 91.4807 26.1493 91.5341 26.192C91.5874 26.2347 91.6141 26.2987 91.6141 26.384V27.68ZM99.9858 27.68C99.9858 27.7653 99.9538 27.84 99.8898 27.904C99.8258 27.968 99.7511 28 99.6658 28H98.3058C98.2205 28 98.1458 27.968 98.0818 27.904C98.0178 27.84 97.9858 27.7653 97.9858 27.68V27.424C97.6125 27.648 97.2391 27.824 96.8658 27.952C96.4925 28.0693 96.1138 28.128 95.7298 28.128C95.3991 28.128 95.0685 28.0907 94.7378 28.016C94.4071 27.9413 94.1085 27.8027 93.8418 27.6C93.5858 27.3973 93.3725 27.1253 93.2018 26.784C93.0418 26.4427 92.9618 26 92.9618 25.456V25.392C92.9618 24.4747 93.2658 23.7867 93.8738 23.328C94.4818 22.8587 95.4791 22.624 96.8658 22.624H97.8738V21.92C97.8738 21.3973 97.7565 21.0507 97.5218 20.88C97.2978 20.7093 96.9458 20.624 96.4658 20.624C95.9538 20.624 95.4578 20.64 94.9778 20.672C94.4978 20.6933 94.1245 20.72 93.8578 20.752H93.7778C93.6925 20.752 93.6231 20.736 93.5698 20.704C93.5165 20.672 93.4898 20.5973 93.4898 20.48V19.456C93.4898 19.2747 93.5911 19.1627 93.7938 19.12C94.1138 19.056 94.4978 18.9973 94.9458 18.944C95.4045 18.8907 95.9111 18.864 96.4658 18.864C97.6071 18.864 98.4765 19.1147 99.0738 19.616C99.6818 20.1173 99.9858 20.8853 99.9858 21.92V27.68ZM97.8738 24.032H96.8658C96.5031 24.032 96.2045 24.064 95.9698 24.128C95.7458 24.1813 95.5645 24.2667 95.4258 24.384C95.2978 24.4907 95.2071 24.6293 95.1538 24.8C95.1111 24.9707 95.0898 25.168 95.0898 25.392V25.456C95.0898 25.8507 95.1805 26.1173 95.3618 26.256C95.5431 26.384 95.8365 26.448 96.2418 26.448C96.5298 26.448 96.8125 26.4053 97.0898 26.32C97.3778 26.2347 97.6391 26.128 97.8738 26V24.032ZM106.703 20.336C106.703 20.4213 106.671 20.496 106.607 20.56C106.543 20.624 106.469 20.656 106.383 20.656C105.946 20.656 105.551 20.7093 105.199 20.816C104.858 20.912 104.517 21.0507 104.175 21.232V27.664C104.175 27.7493 104.143 27.8293 104.079 27.904C104.015 27.968 103.941 28 103.855 28H102.383C102.298 28 102.223 27.968 102.159 27.904C102.095 27.8293 102.063 27.7493 102.063 27.664V19.296C102.063 19.2107 102.095 19.136 102.159 19.072C102.223 19.008 102.298 18.976 102.383 18.976H103.775C103.861 18.976 103.935 19.008 103.999 19.072C104.063 19.136 104.095 19.2107 104.095 19.296V19.632C104.49 19.3227 104.89 19.12 105.295 19.024C105.701 18.9173 106.063 18.864 106.383 18.864C106.469 18.864 106.543 18.896 106.607 18.96C106.671 19.024 106.703 19.0987 106.703 19.184V20.336ZM115.215 27.28C115.215 27.3973 115.189 27.488 115.135 27.552C115.082 27.6053 114.965 27.6587 114.783 27.712C114.282 27.84 113.749 27.9413 113.183 28.016C112.618 28.0907 112.079 28.128 111.567 28.128C110.277 28.128 109.317 27.776 108.687 27.072C108.058 26.3573 107.743 25.3707 107.743 24.112V22.88C107.743 21.6213 108.058 20.64 108.687 19.936C109.317 19.2213 110.277 18.864 111.567 18.864C111.759 18.864 111.989 18.8747 112.255 18.896C112.522 18.9067 112.805 18.9333 113.103 18.976V16.144C113.103 16.0587 113.135 15.984 113.199 15.92C113.263 15.856 113.338 15.824 113.423 15.824H114.895C114.981 15.824 115.055 15.856 115.119 15.92C115.183 15.984 115.215 16.0587 115.215 16.144V27.28ZM113.103 20.704C112.879 20.672 112.613 20.6453 112.303 20.624C112.005 20.6027 111.759 20.592 111.567 20.592C111.226 20.592 110.943 20.6507 110.719 20.768C110.495 20.8853 110.319 21.0453 110.191 21.248C110.063 21.4507 109.973 21.6907 109.919 21.968C109.877 22.2453 109.855 22.5493 109.855 22.88V24.112C109.855 24.4427 109.877 24.7467 109.919 25.024C109.973 25.3013 110.063 25.5413 110.191 25.744C110.319 25.9467 110.495 26.1067 110.719 26.224C110.943 26.3413 111.226 26.4 111.567 26.4C111.855 26.4 112.143 26.3893 112.431 26.368C112.73 26.3467 112.954 26.32 113.103 26.288V20.704ZM124.674 24.144C124.674 24.72 124.588 25.2533 124.418 25.744C124.258 26.224 124.018 26.64 123.698 26.992C123.378 27.344 122.978 27.6213 122.498 27.824C122.028 28.0267 121.479 28.128 120.85 28.128C120.22 28.128 119.666 28.0267 119.186 27.824C118.716 27.6213 118.322 27.344 118.002 26.992C117.682 26.64 117.436 26.224 117.266 25.744C117.106 25.2533 117.026 24.72 117.026 24.144V22.848C117.026 22.272 117.106 21.744 117.266 21.264C117.436 20.7733 117.682 20.352 118.002 20C118.322 19.648 118.716 19.3707 119.186 19.168C119.666 18.9653 120.22 18.864 120.85 18.864C121.479 18.864 122.028 18.9653 122.498 19.168C122.978 19.3707 123.378 19.648 123.698 20C124.018 20.352 124.258 20.7733 124.418 21.264C124.588 21.744 124.674 22.272 124.674 22.848V24.144ZM122.562 22.848C122.562 22.1867 122.418 21.664 122.13 21.28C121.842 20.8853 121.415 20.688 120.85 20.688C120.284 20.688 119.858 20.8853 119.57 21.28C119.282 21.664 119.138 22.1867 119.138 22.848V24.144C119.138 24.8053 119.282 25.3333 119.57 25.728C119.858 26.112 120.284 26.304 120.85 26.304C121.415 26.304 121.842 26.112 122.13 25.728C122.418 25.3333 122.562 24.8053 122.562 24.144V22.848ZM133.877 27.68C133.877 27.7653 133.845 27.84 133.781 27.904C133.717 27.968 133.643 28 133.557 28H132.085C132 28 131.925 27.968 131.861 27.904C131.797 27.84 131.765 27.7653 131.765 27.68V27.312C131.349 27.5893 130.955 27.792 130.581 27.92C130.208 28.048 129.765 28.112 129.253 28.112C128.848 28.112 128.475 28.0587 128.133 27.952C127.803 27.8453 127.52 27.6747 127.285 27.44C126.987 27.1413 126.779 26.752 126.661 26.272C126.544 25.7813 126.485 25.2 126.485 24.528V19.312C126.485 19.2267 126.517 19.152 126.581 19.088C126.645 19.0133 126.72 18.976 126.805 18.976H128.277C128.363 18.976 128.437 19.0133 128.501 19.088C128.565 19.152 128.597 19.2267 128.597 19.312V24.528C128.597 24.9333 128.619 25.2587 128.661 25.504C128.715 25.7387 128.816 25.9253 128.965 26.064C129.083 26.16 129.216 26.2347 129.365 26.288C129.515 26.3307 129.712 26.352 129.957 26.352C130.107 26.352 130.261 26.3307 130.421 26.288C130.592 26.2453 130.757 26.192 130.917 26.128C131.077 26.064 131.232 25.9947 131.381 25.92C131.531 25.8453 131.659 25.776 131.765 25.712V19.312C131.765 19.2267 131.797 19.152 131.861 19.088C131.925 19.0133 132 18.976 132.085 18.976H133.557C133.643 18.976 133.717 19.0133 133.781 19.088C133.845 19.152 133.877 19.2267 133.877 19.312V27.68ZM142.018 25.632C142.018 25.984 141.954 26.3147 141.826 26.624C141.698 26.9227 141.501 27.184 141.234 27.408C140.978 27.632 140.653 27.808 140.258 27.936C139.863 28.064 139.405 28.128 138.882 28.128C138.722 28.128 138.525 28.1227 138.29 28.112C138.066 28.1013 137.821 28.08 137.554 28.048C137.287 28.0267 137.021 28 136.754 27.968C136.487 27.9253 136.242 27.872 136.018 27.808C135.815 27.7547 135.714 27.632 135.714 27.44V26.48C135.714 26.416 135.735 26.3573 135.778 26.304C135.831 26.2507 135.901 26.224 135.986 26.224H136.05C136.242 26.2453 136.466 26.2667 136.722 26.288C136.989 26.3093 137.25 26.3307 137.506 26.352C137.762 26.3627 138.002 26.3733 138.226 26.384C138.45 26.3947 138.621 26.4 138.738 26.4C138.983 26.4 139.181 26.384 139.33 26.352C139.479 26.3093 139.591 26.256 139.666 26.192C139.751 26.1173 139.805 26.032 139.826 25.936C139.858 25.84 139.874 25.7387 139.874 25.632C139.874 25.4827 139.821 25.3493 139.714 25.232C139.607 25.1147 139.426 24.976 139.17 24.816L136.978 23.472C136.583 23.2267 136.258 22.9173 136.002 22.544C135.757 22.16 135.634 21.7333 135.634 21.264C135.634 19.664 136.647 18.864 138.674 18.864C138.994 18.864 139.282 18.8747 139.538 18.896C139.805 18.9067 140.05 18.928 140.274 18.96C140.498 18.992 140.711 19.0293 140.914 19.072C141.117 19.104 141.319 19.1413 141.522 19.184C141.714 19.2267 141.81 19.3493 141.81 19.552V20.48C141.81 20.6827 141.725 20.784 141.554 20.784H141.49C141.383 20.7627 141.223 20.7413 141.01 20.72C140.807 20.6987 140.583 20.6827 140.338 20.672C140.093 20.6507 139.837 20.6347 139.57 20.624C139.314 20.6027 139.074 20.592 138.85 20.592C138.466 20.592 138.183 20.6453 138.002 20.752C137.831 20.848 137.746 21.0187 137.746 21.264C137.746 21.392 137.799 21.504 137.906 21.6C138.023 21.696 138.183 21.8027 138.386 21.92L140.482 23.2C140.823 23.4027 141.09 23.6053 141.282 23.808C141.485 24.0107 141.639 24.2133 141.746 24.416C141.863 24.6187 141.938 24.8213 141.97 25.024C142.002 25.2267 142.018 25.4293 142.018 25.632Z" fill="white"/>
<circle cx="39.5" cy="21.5" r="12.5" fill="white"/>
<path d="M42.0527 26.8711C41.2962 25.8747 39.2688 24.4797 37.2112 26.8711" stroke="#7E0023" stroke-width="1.2" stroke-linecap="round"/>
<path d="M33 22.7389C33.6479 22.8209 35.1704 22.7881 36.0775 22.0002" stroke="#7E0023" stroke-width="1.2" stroke-linecap="round"/>
<path d="M46.0801 22.7388C45.4317 22.821 43.9079 22.7881 43.0001 21.9995" stroke="#7E0023" stroke-width="1.2" stroke-linecap="round"/>
<path d="M36 19L33 18" stroke="#7E0023" stroke-linecap="round"/>
<path d="M43 19L46 18" stroke="#7E0023" stroke-linecap="round"/>
<defs>
<filter id="filter0_d_23_223" x="0" y="0" width="167" height="49" filterUnits="userSpaceOnUse" color-interpolation-filters="sRGB">
<feFlood flood-opacity="0" result="BackgroundImageFix"/>
<feColorMatrix in="SourceAlpha" type="matrix" values="0 0 0 0 0 0 0 0 0 0 0 0 0 0 0 0 0 0 127 0" result="hardAlpha"/>
<feOffset dy="3"/>
<feGaussianBlur stdDeviation="3"/>
<feComposite in2="hardAlpha" operator="out"/>
<feColorMatrix type="matrix" values="0 0 0 0 0 0 0 0 0 0 0 0 0 0 0 0 0 0 0.1 0"/>
<feBlend mode="normal" in2="BackgroundImageFix" result="effect1_dropShadow_23_223"/>
<feBlend mode="normal" in="SourceGraphic" in2="effect1_dropShadow_23_223" result="shape"/>
</filter>
</defs>
</svg>
