<svg width="135" height="49" viewBox="0 0 135 49" fill="none" xmlns="http://www.w3.org/2000/svg">
<g filter="url(#filter0_d_23_260)">
<rect x="6" y="3" width="123" height="37" rx="6" fill="#6D6D6D"/>
</g>
<path d="M78.2467 27.36C78.2467 27.5413 78.1827 27.696 78.0547 27.824C77.9374 27.9413 77.788 28 77.6067 28H75.9907C75.7987 28 75.6174 27.9787 75.4467 27.936C75.2867 27.8827 75.1427 27.712 75.0147 27.424L71.4627 19.632C71.42 19.5467 71.372 19.504 71.3187 19.504C71.2654 19.504 71.2387 19.5467 71.2387 19.632V27.68C71.2387 27.7653 71.2067 27.84 71.1427 27.904C71.0894 27.968 71.02 28 70.9347 28H69.5747C69.4894 28 69.4147 27.968 69.3507 27.904C69.2867 27.84 69.2547 27.7653 69.2547 27.68V16.752C69.2547 16.5707 69.3134 16.4213 69.4307 16.304C69.5587 16.176 69.7134 16.112 69.8947 16.112H71.6227C71.7934 16.112 71.9267 16.144 72.0227 16.208C72.1294 16.272 72.2307 16.4107 72.3267 16.624L76.0547 24.848C76.0867 24.9333 76.1294 24.976 76.1827 24.976C76.236 24.976 76.2627 24.928 76.2627 24.832V16.416C76.2627 16.2133 76.364 16.112 76.5667 16.112H77.9427C78.1454 16.112 78.2467 16.2133 78.2467 16.416V27.36ZM85.3653 16.352C85.3653 16.384 85.36 16.4107 85.3493 16.432L81.8773 27.664C81.856 27.7493 81.8186 27.8293 81.7653 27.904C81.7226 27.968 81.6586 28 81.5733 28H79.9573C79.8826 28 79.8186 27.9733 79.7653 27.92C79.712 27.8667 79.6853 27.808 79.6853 27.744C79.6853 27.7227 79.6853 27.712 79.6853 27.712C79.696 27.7013 79.7013 27.6853 79.7013 27.664L83.1893 16.432C83.2106 16.3467 83.2426 16.272 83.2853 16.208C83.3386 16.144 83.408 16.112 83.4933 16.112H85.1093C85.184 16.112 85.2426 16.1387 85.2853 16.192C85.3386 16.2347 85.3653 16.288 85.3653 16.352ZM95.6336 27.728C95.6336 27.8133 95.6069 27.8827 95.5536 27.936C95.5002 27.9787 95.4309 28 95.3456 28H93.6496C93.5749 28 93.5109 27.9733 93.4576 27.92C93.4042 27.8667 93.3669 27.8027 93.3456 27.728L92.6096 24.688H88.9296L88.1936 27.728C88.1722 27.8027 88.1349 27.8667 88.0816 27.92C88.0282 27.9733 87.9642 28 87.8896 28H86.1936C86.1082 28 86.0389 27.9787 85.9856 27.936C85.9322 27.8827 85.9056 27.8133 85.9056 27.728C85.9056 27.7173 85.9056 27.7067 85.9056 27.696C85.9162 27.6853 85.9216 27.6693 85.9216 27.648L88.5456 17.616C88.6416 17.2427 88.7802 16.9493 88.9616 16.736C89.1429 16.5227 89.3349 16.3627 89.5376 16.256C89.7509 16.1387 89.9642 16.064 90.1776 16.032C90.4016 16 90.5989 15.984 90.7696 15.984C90.9402 15.984 91.1322 16 91.3456 16.032C91.5696 16.064 91.7829 16.1387 91.9856 16.256C92.1989 16.3627 92.3962 16.5227 92.5776 16.736C92.7589 16.9493 92.8976 17.2427 92.9936 17.616L95.6176 27.648C95.6176 27.6693 95.6176 27.6853 95.6176 27.696C95.6282 27.7067 95.6336 27.7173 95.6336 27.728ZM91.0256 18.112C91.0042 18.016 90.9776 17.952 90.9456 17.92C90.9136 17.8773 90.8549 17.856 90.7696 17.856C90.6842 17.856 90.6256 17.8773 90.5936 17.92C90.5616 17.952 90.5349 18.016 90.5136 18.112L89.3616 22.864H92.1776L91.0256 18.112Z" fill="white"/>
<circle cx="41.5" cy="21.5" r="12.5" fill="white"/>
<circle cx="47.3099" cy="21.5432" r="1.40845" fill="#6D6D6D"/>
<circle cx="35.6902" cy="21.5432" r="1.40845" fill="#6D6D6D"/>
<g filter="url(#filter1_d_23_260)">
<rect x="6" y="3" width="123" height="37" rx="6" fill="#6D6D6D"/>
</g>
<path d="M78.2467 27.36C78.2467 27.5413 78.1827 27.696 78.0547 27.824C77.9374 27.9413 77.788 28 77.6067 28H75.9907C75.7987 28 75.6174 27.9787 75.4467 27.936C75.2867 27.8827 75.1427 27.712 75.0147 27.424L71.4627 19.632C71.42 19.5467 71.372 19.504 71.3187 19.504C71.2654 19.504 71.2387 19.5467 71.2387 19.632V27.68C71.2387 27.7653 71.2067 27.84 71.1427 27.904C71.0894 27.968 71.02 28 70.9347 28H69.5747C69.4894 28 69.4147 27.968 69.3507 27.904C69.2867 27.84 69.2547 27.7653 69.2547 27.68V16.752C69.2547 16.5707 69.3134 16.4213 69.4307 16.304C69.5587 16.176 69.7134 16.112 69.8947 16.112H71.6227C71.7934 16.112 71.9267 16.144 72.0227 16.208C72.1294 16.272 72.2307 16.4107 72.3267 16.624L76.0547 24.848C76.0867 24.9333 76.1294 24.976 76.1827 24.976C76.236 24.976 76.2627 24.928 76.2627 24.832V16.416C76.2627 16.2133 76.364 16.112 76.5667 16.112H77.9427C78.1454 16.112 78.2467 16.2133 78.2467 16.416V27.36ZM85.3653 16.352C85.3653 16.384 85.36 16.4107 85.3493 16.432L81.8773 27.664C81.856 27.7493 81.8186 27.8293 81.7653 27.904C81.7226 27.968 81.6586 28 81.5733 28H79.9573C79.8826 28 79.8186 27.9733 79.7653 27.92C79.712 27.8667 79.6853 27.808 79.6853 27.744C79.6853 27.7227 79.6853 27.712 79.6853 27.712C79.696 27.7013 79.7013 27.6853 79.7013 27.664L83.1893 16.432C83.2106 16.3467 83.2426 16.272 83.2853 16.208C83.3386 16.144 83.408 16.112 83.4933 16.112H85.1093C85.184 16.112 85.2426 16.1387 85.2853 16.192C85.3386 16.2347 85.3653 16.288 85.3653 16.352ZM95.6336 27.728C95.6336 27.8133 95.6069 27.8827 95.5536 27.936C95.5002 27.9787 95.4309 28 95.3456 28H93.6496C93.5749 28 93.5109 27.9733 93.4576 27.92C93.4042 27.8667 93.3669 27.8027 93.3456 27.728L92.6096 24.688H88.9296L88.1936 27.728C88.1722 27.8027 88.1349 27.8667 88.0816 27.92C88.0282 27.9733 87.9642 28 87.8896 28H86.1936C86.1082 28 86.0389 27.9787 85.9856 27.936C85.9322 27.8827 85.9056 27.8133 85.9056 27.728C85.9056 27.7173 85.9056 27.7067 85.9056 27.696C85.9162 27.6853 85.9216 27.6693 85.9216 27.648L88.5456 17.616C88.6416 17.2427 88.7802 16.9493 88.9616 16.736C89.1429 16.5227 89.3349 16.3627 89.5376 16.256C89.7509 16.1387 89.9642 16.064 90.1776 16.032C90.4016 16 90.5989 15.984 90.7696 15.984C90.9402 15.984 91.1322 16 91.3456 16.032C91.5696 16.064 91.7829 16.1387 91.9856 16.256C92.1989 16.3627 92.3962 16.5227 92.5776 16.736C92.7589 16.9493 92.8976 17.2427 92.9936 17.616L95.6176 27.648C95.6176 27.6693 95.6176 27.6853 95.6176 27.696C95.6282 27.7067 95.6336 27.7173 95.6336 27.728ZM91.0256 18.112C91.0042 18.016 90.9776 17.952 90.9456 17.92C90.9136 17.8773 90.8549 17.856 90.7696 17.856C90.6842 17.856 90.6256 17.8773 90.5936 17.92C90.5616 17.952 90.5349 18.016 90.5136 18.112L89.3616 22.864H92.1776L91.0256 18.112Z" fill="white"/>
<circle cx="41.5" cy="21.5" r="12" stroke="white" stroke-linecap="square" stroke-linejoin="round" stroke-dasharray="4 4"/>
<circle cx="47.3099" cy="21.5432" r="1.40845" fill="white"/>
<circle cx="35.6902" cy="21.5432" r="1.40845" fill="white"/>
<defs>
<filter id="filter0_d_23_260" x="0" y="0" width="135" height="49" filterUnits="userSpaceOnUse" color-interpolation-filters="sRGB">
<feFlood flood-opacity="0" result="BackgroundImageFix"/>
<feColorMatrix in="SourceAlpha" type="matrix" values="0 0 0 0 0 0 0 0 0 0 0 0 0 0 0 0 0 0 127 0" result="hardAlpha"/>
<feOffset dy="3"/>
<feGaussianBlur stdDeviation="3"/>
<feComposite in2="hardAlpha" operator="out"/>
<feColorMatrix type="matrix" values="0 0 0 0 0 0 0 0 0 0 0 0 0 0 0 0 0 0 0.1 0"/>
<feBlend mode="normal" in2="BackgroundImageFix" result="effect1_dropShadow_23_260"/>
<feBlend mode="normal" in="SourceGraphic" in2="effect1_dropShadow_23_260" result="shape"/>
</filter>
<filter id="filter1_d_23_260" x="0" y="0" width="135" height="49" filterUnits="userSpaceOnUse" color-interpolation-filters="sRGB">
<feFlood flood-opacity="0" result="BackgroundImageFix"/>
<feColorMatrix in="SourceAlpha" type="matrix" values="0 0 0 0 0 0 0 0 0 0 0 0 0 0 0 0 0 0 127 0" result="hardAlpha"/>
<feOffset dy="3"/>
<feGaussianBlur stdDeviation="3"/>
<feComposite in2="hardAlpha" operator="out"/>
<feColorMatrix type="matrix" values="0 0 0 0 0 0 0 0 0 0 0 0 0 0 0 0 0 0 0.1 0"/>
<feBlend mode="normal" in2="BackgroundImageFix" result="effect1_dropShadow_23_260"/>
<feBlend mode="normal" in="SourceGraphic" in2="effect1_dropShadow_23_260" result="shape"/>
</filter>
</defs>
</svg>
