<svg width="197" height="49" viewBox="0 0 197 49" fill="none" xmlns="http://www.w3.org/2000/svg">
<g filter="url(#filter0_d_23_236)">
<rect x="6" y="3" width="185" height="37" rx="6" fill="#8F3F97"/>
</g>
<path d="M69.1901 17.384C69.1901 17.4053 69.1848 17.4213 69.1741 17.432C69.1741 17.432 69.1741 17.4427 69.1741 17.464L66.5501 27.496C66.4541 27.8693 66.3155 28.1627 66.1341 28.376C65.9528 28.5893 65.7555 28.7547 65.5421 28.872C65.3395 28.9787 65.1261 29.048 64.9021 29.08C64.6888 29.112 64.4968 29.128 64.3261 29.128C64.1555 29.128 63.9581 29.112 63.7341 29.08C63.5208 29.048 63.3075 28.9787 63.0941 28.872C62.8915 28.7547 62.6995 28.5893 62.5181 28.376C62.3368 28.1627 62.1981 27.8693 62.1021 27.496L59.4781 17.464C59.4781 17.4427 59.4728 17.432 59.4621 17.432C59.4621 17.4213 59.4621 17.4053 59.4621 17.384C59.4621 17.2987 59.4888 17.2347 59.5421 17.192C59.5955 17.1387 59.6648 17.112 59.7501 17.112H61.4461C61.5208 17.112 61.5848 17.1387 61.6381 17.192C61.6915 17.2453 61.7288 17.3093 61.7501 17.384L64.0701 27C64.0915 27.096 64.1181 27.1653 64.1501 27.208C64.1821 27.24 64.2408 27.256 64.3261 27.256C64.4115 27.256 64.4701 27.24 64.5021 27.208C64.5341 27.1653 64.5608 27.096 64.5821 27L66.9021 17.384C66.9235 17.3093 66.9608 17.2453 67.0141 17.192C67.0675 17.1387 67.1315 17.112 67.2061 17.112H68.9021C68.9875 17.112 69.0568 17.1387 69.1101 17.192C69.1635 17.2347 69.1901 17.2987 69.1901 17.384ZM77.9941 24.824C77.9941 25.0907 77.8875 25.224 77.6741 25.224H72.4581V25.272C72.4581 25.5067 72.4848 25.7467 72.5381 25.992C72.6021 26.2267 72.7035 26.4453 72.8421 26.648C72.9915 26.84 73.1888 27 73.4341 27.128C73.6795 27.2453 73.9941 27.304 74.3781 27.304C74.9648 27.304 75.5141 27.288 76.0261 27.256C76.5488 27.2133 76.9808 27.176 77.3221 27.144H77.3701C77.4555 27.144 77.5248 27.1653 77.5781 27.208C77.6315 27.24 77.6581 27.2987 77.6581 27.384V28.44C77.6581 28.568 77.6368 28.664 77.5941 28.728C77.5621 28.792 77.4715 28.8347 77.3221 28.856C77.0661 28.8987 76.8261 28.9413 76.6021 28.984C76.3781 29.016 76.1488 29.0427 75.9141 29.064C75.6901 29.0853 75.4395 29.1013 75.1621 29.112C74.8955 29.1227 74.5808 29.128 74.2181 29.128C73.8235 29.128 73.3968 29.0693 72.9381 28.952C72.4901 28.824 72.0741 28.6107 71.6901 28.312C71.3061 28.0027 70.9861 27.592 70.7301 27.08C70.4741 26.5573 70.3461 25.9013 70.3461 25.112V23.928C70.3461 23.2987 70.4315 22.7333 70.6021 22.232C70.7728 21.7307 71.0181 21.304 71.3381 20.952C71.6688 20.6 72.0741 20.3333 72.5541 20.152C73.0341 19.96 73.5781 19.864 74.1861 19.864C74.8048 19.864 75.3488 19.9653 75.8181 20.168C76.2981 20.36 76.6981 20.6373 77.0181 21C77.3381 21.3627 77.5781 21.7947 77.7381 22.296C77.9088 22.7867 77.9941 23.3307 77.9941 23.928V24.824ZM75.8661 23.656C75.8661 23.0267 75.7115 22.5413 75.4021 22.2C75.0928 21.8587 74.6875 21.688 74.1861 21.688C73.6848 21.688 73.2741 21.8587 72.9541 22.2C72.6341 22.5307 72.4741 23.016 72.4741 23.656V23.72H75.8661V23.656ZM84.4456 21.336C84.4456 21.4213 84.4136 21.496 84.3496 21.56C84.2856 21.624 84.211 21.656 84.1256 21.656C83.6883 21.656 83.2936 21.7093 82.9416 21.816C82.6003 21.912 82.259 22.0507 81.9176 22.232V28.664C81.9176 28.7493 81.8856 28.8293 81.8216 28.904C81.7576 28.968 81.683 29 81.5976 29H80.1256C80.0403 29 79.9656 28.968 79.9016 28.904C79.8376 28.8293 79.8056 28.7493 79.8056 28.664V20.296C79.8056 20.2107 79.8376 20.136 79.9016 20.072C79.9656 20.008 80.0403 19.976 80.1256 19.976H81.5176C81.603 19.976 81.6776 20.008 81.7416 20.072C81.8056 20.136 81.8376 20.2107 81.8376 20.296V20.632C82.2323 20.3227 82.6323 20.12 83.0376 20.024C83.443 19.9173 83.8056 19.864 84.1256 19.864C84.211 19.864 84.2856 19.896 84.3496 19.96C84.4136 20.024 84.4456 20.0987 84.4456 20.184V21.336ZM93.3256 20.248C93.3256 20.2907 93.3203 20.3227 93.3096 20.344L90.6376 29.688C90.5096 30.1253 90.371 30.4987 90.2216 30.808C90.0723 31.128 89.875 31.3893 89.6296 31.592C89.395 31.8053 89.0963 31.96 88.7336 32.056C88.371 32.152 87.9176 32.2 87.3736 32.2C87.2456 32.2 87.1016 32.1947 86.9416 32.184C86.7816 32.1733 86.6216 32.1573 86.4616 32.136C86.3123 32.1147 86.1683 32.0933 86.0296 32.072C85.891 32.0507 85.7736 32.024 85.6776 31.992C85.5923 31.9707 85.5123 31.9387 85.4376 31.896C85.3736 31.864 85.3416 31.8053 85.3416 31.72V30.696C85.3416 30.6107 85.3736 30.5413 85.4376 30.488C85.5016 30.4347 85.5763 30.408 85.6616 30.408H85.6936C85.811 30.408 85.9496 30.4133 86.1096 30.424C86.2696 30.4347 86.4296 30.4453 86.5896 30.456C86.7603 30.4667 86.9256 30.4773 87.0856 30.488C87.2563 30.4987 87.395 30.504 87.5016 30.504C87.843 30.504 88.1096 30.4347 88.3016 30.296C88.4936 30.168 88.6483 29.896 88.7656 29.48L88.8936 29H88.6536C88.5363 29 88.4136 28.9893 88.2856 28.968C88.1576 28.936 88.0296 28.8773 87.9016 28.792C87.7843 28.7067 87.667 28.5733 87.5496 28.392C87.443 28.2107 87.347 27.9707 87.2616 27.672L85.1656 20.344C85.155 20.312 85.1496 20.2747 85.1496 20.232C85.1496 20.0613 85.251 19.976 85.4536 19.976H87.0696C87.1443 19.976 87.2083 20.008 87.2616 20.072C87.315 20.1253 87.3523 20.1893 87.3736 20.264L88.9896 26.776C89.0216 26.9147 89.0536 27.0107 89.0856 27.064C89.1176 27.1067 89.1603 27.128 89.2136 27.128H89.2296H89.3096H89.3576L91.0856 20.248C91.107 20.1733 91.1443 20.1093 91.1976 20.056C91.251 20.0027 91.3203 19.976 91.4056 19.976H93.0376C93.123 19.976 93.1923 20.0027 93.2456 20.056C93.299 20.1093 93.3256 20.1733 93.3256 20.248ZM107.639 24.6C107.639 25.4533 107.527 26.168 107.303 26.744C107.089 27.32 106.785 27.784 106.391 28.136C106.007 28.488 105.543 28.744 104.999 28.904C104.465 29.0533 103.879 29.128 103.239 29.128C102.599 29.128 102.007 29.0533 101.463 28.904C100.929 28.744 100.465 28.488 100.071 28.136C99.6868 27.784 99.3828 27.32 99.1588 26.744C98.9454 26.168 98.8388 25.4533 98.8388 24.6V17.416C98.8388 17.3307 98.8708 17.2613 98.9348 17.208C98.9988 17.144 99.0734 17.112 99.1588 17.112H100.743C100.828 17.112 100.903 17.144 100.967 17.208C101.031 17.2613 101.063 17.3307 101.063 17.416V24.6C101.063 25.0587 101.095 25.4587 101.159 25.8C101.223 26.1307 101.335 26.408 101.495 26.632C101.665 26.856 101.889 27.0213 102.167 27.128C102.455 27.2347 102.812 27.288 103.239 27.288C103.676 27.288 104.033 27.2347 104.311 27.128C104.588 27.0213 104.807 26.856 104.967 26.632C105.137 26.408 105.255 26.1307 105.319 25.8C105.383 25.4587 105.415 25.0587 105.415 24.6V17.416C105.415 17.3307 105.447 17.2613 105.511 17.208C105.575 17.144 105.649 17.112 105.735 17.112H107.319C107.404 17.112 107.479 17.144 107.543 17.208C107.607 17.2613 107.639 17.3307 107.639 17.416V24.6ZM117.198 28.664C117.198 28.7493 117.166 28.8293 117.102 28.904C117.038 28.968 116.963 29 116.878 29H115.406C115.32 29 115.246 28.968 115.182 28.904C115.118 28.8293 115.086 28.7493 115.086 28.664V23.448C115.086 23.096 115.07 22.808 115.038 22.584C115.016 22.3493 114.958 22.168 114.862 22.04C114.776 21.9013 114.643 21.8053 114.462 21.752C114.28 21.688 114.035 21.656 113.726 21.656C113.448 21.656 113.16 21.7093 112.862 21.816C112.574 21.912 112.259 22.0507 111.918 22.232V28.664C111.918 28.7493 111.886 28.8293 111.822 28.904C111.758 28.968 111.683 29 111.598 29H110.126C110.04 29 109.966 28.968 109.902 28.904C109.838 28.8293 109.806 28.7493 109.806 28.664V20.296C109.806 20.2107 109.838 20.136 109.902 20.072C109.966 20.008 110.04 19.976 110.126 19.976H111.518C111.603 19.976 111.678 20.008 111.742 20.072C111.806 20.136 111.838 20.2107 111.838 20.296V20.632C112.072 20.4827 112.286 20.36 112.478 20.264C112.68 20.168 112.883 20.0933 113.086 20.04C113.288 19.976 113.496 19.9333 113.71 19.912C113.923 19.88 114.163 19.864 114.43 19.864C115.006 19.864 115.475 19.9547 115.838 20.136C116.2 20.3173 116.478 20.568 116.67 20.888C116.872 21.208 117.011 21.5867 117.086 22.024C117.16 22.4613 117.198 22.936 117.198 23.448V28.664ZM126.666 28.664C126.666 28.7493 126.634 28.8293 126.57 28.904C126.506 28.968 126.432 29 126.346 29H124.874C124.789 29 124.714 28.968 124.65 28.904C124.586 28.8293 124.554 28.7493 124.554 28.664V23.4C124.554 23.048 124.533 22.76 124.49 22.536C124.458 22.312 124.394 22.136 124.298 22.008C124.202 21.88 124.069 21.7893 123.898 21.736C123.728 21.6827 123.509 21.656 123.242 21.656C122.698 21.656 122.08 21.8373 121.386 22.2V28.664C121.386 28.7493 121.354 28.8293 121.29 28.904C121.226 28.968 121.152 29 121.066 29H119.594C119.509 29 119.434 28.968 119.37 28.904C119.306 28.8293 119.274 28.7493 119.274 28.664V17.144C119.274 17.0587 119.306 16.984 119.37 16.92C119.434 16.856 119.509 16.824 119.594 16.824H121.066C121.152 16.824 121.226 16.856 121.29 16.92C121.354 16.984 121.386 17.0587 121.386 17.144V20.456C121.696 20.2747 122.032 20.1307 122.394 20.024C122.757 19.9173 123.226 19.864 123.802 19.864C124.357 19.864 124.816 19.9547 125.178 20.136C125.552 20.3173 125.845 20.568 126.058 20.888C126.282 21.208 126.437 21.5867 126.522 22.024C126.618 22.4507 126.666 22.9093 126.666 23.4V28.664ZM136.119 24.824C136.119 25.0907 136.012 25.224 135.799 25.224H130.583V25.272C130.583 25.5067 130.61 25.7467 130.663 25.992C130.727 26.2267 130.828 26.4453 130.967 26.648C131.116 26.84 131.314 27 131.559 27.128C131.804 27.2453 132.119 27.304 132.503 27.304C133.09 27.304 133.639 27.288 134.151 27.256C134.674 27.2133 135.106 27.176 135.447 27.144H135.495C135.58 27.144 135.65 27.1653 135.703 27.208C135.756 27.24 135.783 27.2987 135.783 27.384V28.44C135.783 28.568 135.762 28.664 135.719 28.728C135.687 28.792 135.596 28.8347 135.447 28.856C135.191 28.8987 134.951 28.9413 134.727 28.984C134.503 29.016 134.274 29.0427 134.039 29.064C133.815 29.0853 133.564 29.1013 133.287 29.112C133.02 29.1227 132.706 29.128 132.343 29.128C131.948 29.128 131.522 29.0693 131.063 28.952C130.615 28.824 130.199 28.6107 129.815 28.312C129.431 28.0027 129.111 27.592 128.855 27.08C128.599 26.5573 128.471 25.9013 128.471 25.112V23.928C128.471 23.2987 128.556 22.7333 128.727 22.232C128.898 21.7307 129.143 21.304 129.463 20.952C129.794 20.6 130.199 20.3333 130.679 20.152C131.159 19.96 131.703 19.864 132.311 19.864C132.93 19.864 133.474 19.9653 133.943 20.168C134.423 20.36 134.823 20.6373 135.143 21C135.463 21.3627 135.703 21.7947 135.863 22.296C136.034 22.7867 136.119 23.3307 136.119 23.928V24.824ZM133.991 23.656C133.991 23.0267 133.836 22.5413 133.527 22.2C133.218 21.8587 132.812 21.688 132.311 21.688C131.81 21.688 131.399 21.8587 131.079 22.2C130.759 22.5307 130.599 23.016 130.599 23.656V23.72H133.991V23.656ZM144.619 28.68C144.619 28.7653 144.587 28.84 144.523 28.904C144.459 28.968 144.384 29 144.299 29H142.939C142.853 29 142.779 28.968 142.715 28.904C142.651 28.84 142.619 28.7653 142.619 28.68V28.424C142.245 28.648 141.872 28.824 141.499 28.952C141.125 29.0693 140.747 29.128 140.363 29.128C140.032 29.128 139.701 29.0907 139.371 29.016C139.04 28.9413 138.741 28.8027 138.475 28.6C138.219 28.3973 138.005 28.1253 137.835 27.784C137.675 27.4427 137.595 27 137.595 26.456V26.392C137.595 25.4747 137.899 24.7867 138.507 24.328C139.115 23.8587 140.112 23.624 141.499 23.624H142.507V22.92C142.507 22.3973 142.389 22.0507 142.155 21.88C141.931 21.7093 141.579 21.624 141.099 21.624C140.587 21.624 140.091 21.64 139.611 21.672C139.131 21.6933 138.757 21.72 138.491 21.752H138.411C138.325 21.752 138.256 21.736 138.203 21.704C138.149 21.672 138.123 21.5973 138.123 21.48V20.456C138.123 20.2747 138.224 20.1627 138.427 20.12C138.747 20.056 139.131 19.9973 139.579 19.944C140.037 19.8907 140.544 19.864 141.099 19.864C142.24 19.864 143.109 20.1147 143.707 20.616C144.315 21.1173 144.619 21.8853 144.619 22.92V28.68ZM142.507 25.032H141.499C141.136 25.032 140.837 25.064 140.603 25.128C140.379 25.1813 140.197 25.2667 140.059 25.384C139.931 25.4907 139.84 25.6293 139.787 25.8C139.744 25.9707 139.723 26.168 139.723 26.392V26.456C139.723 26.8507 139.813 27.1173 139.995 27.256C140.176 27.384 140.469 27.448 140.875 27.448C141.163 27.448 141.445 27.4053 141.723 27.32C142.011 27.2347 142.272 27.128 142.507 27V25.032ZM148.888 28.664C148.888 28.7493 148.856 28.8293 148.792 28.904C148.739 28.968 148.67 29 148.584 29H147.096C147.011 29 146.936 28.968 146.872 28.904C146.808 28.8293 146.776 28.7493 146.776 28.664V17.144C146.776 17.0587 146.808 16.984 146.872 16.92C146.936 16.856 147.011 16.824 147.096 16.824H148.584C148.67 16.824 148.739 16.856 148.792 16.92C148.856 16.984 148.888 17.0587 148.888 17.144V28.664ZM156.096 28.728C156.096 28.888 155.994 28.984 155.792 29.016C155.6 29.048 155.413 29.0747 155.232 29.096C155.061 29.1173 154.885 29.128 154.704 29.128C154.256 29.128 153.866 29.096 153.536 29.032C153.216 28.968 152.954 28.8453 152.752 28.664C152.549 28.472 152.4 28.2107 152.304 27.88C152.208 27.5493 152.16 27.1173 152.16 26.584V21.56L150.656 21.336C150.57 21.3147 150.496 21.2773 150.432 21.224C150.368 21.1707 150.336 21.1013 150.336 21.016V20.296C150.336 20.2107 150.368 20.136 150.432 20.072C150.496 20.008 150.57 19.976 150.656 19.976H152.16V18.664C152.16 18.5787 152.192 18.5093 152.256 18.456C152.32 18.4027 152.394 18.3653 152.48 18.344L153.968 18.088H154.032C154.202 18.088 154.288 18.168 154.288 18.328V19.976H155.728C155.813 19.976 155.888 20.008 155.952 20.072C156.016 20.136 156.048 20.2107 156.048 20.296V21.24C156.048 21.3253 156.016 21.4 155.952 21.464C155.888 21.528 155.813 21.56 155.728 21.56H154.288V26.584C154.288 26.7867 154.293 26.9467 154.304 27.064C154.314 27.1813 154.341 27.272 154.384 27.336C154.426 27.4 154.49 27.4427 154.576 27.464C154.661 27.4747 154.773 27.48 154.912 27.48H155.76C155.984 27.48 156.096 27.56 156.096 27.72V28.728ZM164.932 28.664C164.932 28.7493 164.9 28.8293 164.836 28.904C164.772 28.968 164.697 29 164.612 29H163.14C163.055 29 162.98 28.968 162.916 28.904C162.852 28.8293 162.82 28.7493 162.82 28.664V23.4C162.82 23.048 162.799 22.76 162.756 22.536C162.724 22.312 162.66 22.136 162.564 22.008C162.468 21.88 162.335 21.7893 162.164 21.736C161.993 21.6827 161.775 21.656 161.508 21.656C160.964 21.656 160.345 21.8373 159.652 22.2V28.664C159.652 28.7493 159.62 28.8293 159.556 28.904C159.492 28.968 159.417 29 159.332 29H157.86C157.775 29 157.7 28.968 157.636 28.904C157.572 28.8293 157.54 28.7493 157.54 28.664V17.144C157.54 17.0587 157.572 16.984 157.636 16.92C157.7 16.856 157.775 16.824 157.86 16.824H159.332C159.417 16.824 159.492 16.856 159.556 16.92C159.62 16.984 159.652 17.0587 159.652 17.144V20.456C159.961 20.2747 160.297 20.1307 160.66 20.024C161.023 19.9173 161.492 19.864 162.068 19.864C162.623 19.864 163.081 19.9547 163.444 20.136C163.817 20.3173 164.111 20.568 164.324 20.888C164.548 21.208 164.703 21.5867 164.788 22.024C164.884 22.4507 164.932 22.9093 164.932 23.4V28.664ZM174.529 20.248C174.529 20.2907 174.523 20.3227 174.513 20.344L171.841 29.688C171.713 30.1253 171.574 30.4987 171.425 30.808C171.275 31.128 171.078 31.3893 170.833 31.592C170.598 31.8053 170.299 31.96 169.937 32.056C169.574 32.152 169.121 32.2 168.577 32.2C168.449 32.2 168.305 32.1947 168.145 32.184C167.985 32.1733 167.825 32.1573 167.665 32.136C167.515 32.1147 167.371 32.0933 167.233 32.072C167.094 32.0507 166.977 32.024 166.881 31.992C166.795 31.9707 166.715 31.9387 166.641 31.896C166.577 31.864 166.545 31.8053 166.545 31.72V30.696C166.545 30.6107 166.577 30.5413 166.641 30.488C166.705 30.4347 166.779 30.408 166.865 30.408H166.897C167.014 30.408 167.153 30.4133 167.313 30.424C167.473 30.4347 167.633 30.4453 167.793 30.456C167.963 30.4667 168.129 30.4773 168.289 30.488C168.459 30.4987 168.598 30.504 168.705 30.504C169.046 30.504 169.313 30.4347 169.505 30.296C169.697 30.168 169.851 29.896 169.969 29.48L170.097 29H169.857C169.739 29 169.617 28.9893 169.489 28.968C169.361 28.936 169.233 28.8773 169.105 28.792C168.987 28.7067 168.87 28.5733 168.753 28.392C168.646 28.2107 168.55 27.9707 168.465 27.672L166.369 20.344C166.358 20.312 166.353 20.2747 166.353 20.232C166.353 20.0613 166.454 19.976 166.657 19.976H168.273C168.347 19.976 168.411 20.008 168.465 20.072C168.518 20.1253 168.555 20.1893 168.577 20.264L170.193 26.776C170.225 26.9147 170.257 27.0107 170.289 27.064C170.321 27.1067 170.363 27.128 170.417 27.128H170.433H170.513H170.561L172.289 20.248C172.31 20.1733 172.347 20.1093 172.401 20.056C172.454 20.0027 172.523 19.976 172.609 19.976H174.241C174.326 19.976 174.395 20.0027 174.449 20.056C174.502 20.1093 174.529 20.1733 174.529 20.248Z" fill="white"/>
<circle cx="35.5" cy="20.5" r="12.5" fill="white"/>
<path d="M27.9296 17.8585C28.5656 17.9757 30.0603 17.9289 30.9507 16.8038" stroke="#8F3F97" stroke-width="1.2" stroke-linecap="round"/>
<path d="M43.9578 17.6072C43.2521 17.6966 41.5936 17.6609 40.6057 16.8026" stroke="#8F3F97" stroke-width="1.2" stroke-linecap="round"/>
<circle cx="41.3098" cy="21.3811" r="1.40845" fill="#8F3F97"/>
<circle cx="29.6901" cy="21.3811" r="1.40845" fill="#8F3F97"/>
<path d="M37.8768 25.8691C37.0928 24.8727 34.9916 23.4777 32.8592 25.8691" stroke="#8F3F97" stroke-width="1.2" stroke-linecap="round"/>
<defs>
<filter id="filter0_d_23_236" x="0" y="0" width="197" height="49" filterUnits="userSpaceOnUse" color-interpolation-filters="sRGB">
<feFlood flood-opacity="0" result="BackgroundImageFix"/>
<feColorMatrix in="SourceAlpha" type="matrix" values="0 0 0 0 0 0 0 0 0 0 0 0 0 0 0 0 0 0 127 0" result="hardAlpha"/>
<feOffset dy="3"/>
<feGaussianBlur stdDeviation="3"/>
<feComposite in2="hardAlpha" operator="out"/>
<feColorMatrix type="matrix" values="0 0 0 0 0 0 0 0 0 0 0 0 0 0 0 0 0 0 0.1 0"/>
<feBlend mode="normal" in2="BackgroundImageFix" result="effect1_dropShadow_23_236"/>
<feBlend mode="normal" in="SourceGraphic" in2="effect1_dropShadow_23_236" result="shape"/>
</filter>
</defs>
</svg>
