<svg width="167" height="49" viewBox="0 0 167 49" fill="none" xmlns="http://www.w3.org/2000/svg">
<g filter="url(#filter0_d_23_248)">
<rect x="6" y="3" width="155" height="37" rx="6" fill="#FA0A00"/>
</g>
<path d="M72.3184 23.6C72.3184 24.4533 72.2064 25.168 71.9824 25.744C71.7691 26.32 71.4651 26.784 71.0704 27.136C70.6864 27.488 70.2224 27.744 69.6784 27.904C69.1451 28.0533 68.5584 28.128 67.9184 28.128C67.2784 28.128 66.6864 28.0533 66.1424 27.904C65.6091 27.744 65.1451 27.488 64.7504 27.136C64.3664 26.784 64.0624 26.32 63.8384 25.744C63.6251 25.168 63.5184 24.4533 63.5184 23.6V16.416C63.5184 16.3307 63.5504 16.2613 63.6144 16.208C63.6784 16.144 63.7531 16.112 63.8384 16.112H65.4224C65.5078 16.112 65.5824 16.144 65.6464 16.208C65.7104 16.2613 65.7424 16.3307 65.7424 16.416V23.6C65.7424 24.0587 65.7744 24.4587 65.8384 24.8C65.9024 25.1307 66.0144 25.408 66.1744 25.632C66.3451 25.856 66.5691 26.0213 66.8464 26.128C67.1344 26.2347 67.4918 26.288 67.9184 26.288C68.3558 26.288 68.7131 26.2347 68.9904 26.128C69.2678 26.0213 69.4864 25.856 69.6464 25.632C69.8171 25.408 69.9344 25.1307 69.9984 24.8C70.0624 24.4587 70.0944 24.0587 70.0944 23.6V16.416C70.0944 16.3307 70.1264 16.2613 70.1904 16.208C70.2544 16.144 70.3291 16.112 70.4144 16.112H71.9984C72.0838 16.112 72.1584 16.144 72.2224 16.208C72.2864 16.2613 72.3184 16.3307 72.3184 16.416V23.6ZM81.8773 27.664C81.8773 27.7493 81.8453 27.8293 81.7813 27.904C81.7173 27.968 81.6426 28 81.5573 28H80.0853C80 28 79.9253 27.968 79.8613 27.904C79.7973 27.8293 79.7653 27.7493 79.7653 27.664V22.448C79.7653 22.096 79.7493 21.808 79.7173 21.584C79.696 21.3493 79.6373 21.168 79.5413 21.04C79.456 20.9013 79.3226 20.8053 79.1413 20.752C78.96 20.688 78.7146 20.656 78.4053 20.656C78.128 20.656 77.84 20.7093 77.5413 20.816C77.2533 20.912 76.9386 21.0507 76.5973 21.232V27.664C76.5973 27.7493 76.5653 27.8293 76.5013 27.904C76.4373 27.968 76.3626 28 76.2773 28H74.8053C74.72 28 74.6453 27.968 74.5813 27.904C74.5173 27.8293 74.4853 27.7493 74.4853 27.664V19.296C74.4853 19.2107 74.5173 19.136 74.5813 19.072C74.6453 19.008 74.72 18.976 74.8053 18.976H76.1973C76.2826 18.976 76.3573 19.008 76.4213 19.072C76.4853 19.136 76.5173 19.2107 76.5173 19.296V19.632C76.752 19.4827 76.9653 19.36 77.1573 19.264C77.36 19.168 77.5626 19.0933 77.7653 19.04C77.968 18.976 78.176 18.9333 78.3893 18.912C78.6026 18.88 78.8426 18.864 79.1093 18.864C79.6853 18.864 80.1546 18.9547 80.5173 19.136C80.88 19.3173 81.1573 19.568 81.3493 19.888C81.552 20.208 81.6906 20.5867 81.7653 21.024C81.84 21.4613 81.8773 21.936 81.8773 22.448V27.664ZM91.3461 27.664C91.3461 27.7493 91.3141 27.8293 91.2501 27.904C91.1861 27.968 91.1114 28 91.0261 28H89.5541C89.4687 28 89.3941 27.968 89.3301 27.904C89.2661 27.8293 89.2341 27.7493 89.2341 27.664V22.4C89.2341 22.048 89.2127 21.76 89.1701 21.536C89.1381 21.312 89.0741 21.136 88.9781 21.008C88.8821 20.88 88.7487 20.7893 88.5781 20.736C88.4074 20.6827 88.1887 20.656 87.9221 20.656C87.3781 20.656 86.7594 20.8373 86.0661 21.2V27.664C86.0661 27.7493 86.0341 27.8293 85.9701 27.904C85.9061 27.968 85.8314 28 85.7461 28H84.2741C84.1887 28 84.1141 27.968 84.0501 27.904C83.9861 27.8293 83.9541 27.7493 83.9541 27.664V16.144C83.9541 16.0587 83.9861 15.984 84.0501 15.92C84.1141 15.856 84.1887 15.824 84.2741 15.824H85.7461C85.8314 15.824 85.9061 15.856 85.9701 15.92C86.0341 15.984 86.0661 16.0587 86.0661 16.144V19.456C86.3754 19.2747 86.7114 19.1307 87.0741 19.024C87.4367 18.9173 87.9061 18.864 88.4821 18.864C89.0367 18.864 89.4954 18.9547 89.8581 19.136C90.2314 19.3173 90.5247 19.568 90.7381 19.888C90.9621 20.208 91.1167 20.5867 91.2021 21.024C91.2981 21.4507 91.3461 21.9093 91.3461 22.4V27.664ZM100.799 23.824C100.799 24.0907 100.692 24.224 100.479 24.224H95.2628V24.272C95.2628 24.5067 95.2895 24.7467 95.3428 24.992C95.4068 25.2267 95.5081 25.4453 95.6468 25.648C95.7961 25.84 95.9935 26 96.2388 26.128C96.4841 26.2453 96.7988 26.304 97.1828 26.304C97.7695 26.304 98.3188 26.288 98.8308 26.256C99.3535 26.2133 99.7855 26.176 100.127 26.144H100.175C100.26 26.144 100.329 26.1653 100.383 26.208C100.436 26.24 100.463 26.2987 100.463 26.384V27.44C100.463 27.568 100.441 27.664 100.399 27.728C100.367 27.792 100.276 27.8347 100.127 27.856C99.8708 27.8987 99.6308 27.9413 99.4068 27.984C99.1828 28.016 98.9535 28.0427 98.7188 28.064C98.4948 28.0853 98.2441 28.1013 97.9668 28.112C97.7001 28.1227 97.3855 28.128 97.0228 28.128C96.6281 28.128 96.2015 28.0693 95.7428 27.952C95.2948 27.824 94.8788 27.6107 94.4948 27.312C94.1108 27.0027 93.7908 26.592 93.5348 26.08C93.2788 25.5573 93.1508 24.9013 93.1508 24.112V22.928C93.1508 22.2987 93.2361 21.7333 93.4068 21.232C93.5775 20.7307 93.8228 20.304 94.1428 19.952C94.4735 19.6 94.8788 19.3333 95.3588 19.152C95.8388 18.96 96.3828 18.864 96.9908 18.864C97.6095 18.864 98.1535 18.9653 98.6228 19.168C99.1028 19.36 99.5028 19.6373 99.8228 20C100.143 20.3627 100.383 20.7947 100.543 21.296C100.713 21.7867 100.799 22.3307 100.799 22.928V23.824ZM98.6708 22.656C98.6708 22.0267 98.5161 21.5413 98.2068 21.2C97.8975 20.8587 97.4921 20.688 96.9908 20.688C96.4895 20.688 96.0788 20.8587 95.7588 21.2C95.4388 21.5307 95.2788 22.016 95.2788 22.656V22.72H98.6708V22.656ZM109.298 27.68C109.298 27.7653 109.266 27.84 109.202 27.904C109.138 27.968 109.064 28 108.978 28H107.618C107.533 28 107.458 27.968 107.394 27.904C107.33 27.84 107.298 27.7653 107.298 27.68V27.424C106.925 27.648 106.552 27.824 106.178 27.952C105.805 28.0693 105.426 28.128 105.042 28.128C104.712 28.128 104.381 28.0907 104.05 28.016C103.72 27.9413 103.421 27.8027 103.154 27.6C102.898 27.3973 102.685 27.1253 102.514 26.784C102.354 26.4427 102.274 26 102.274 25.456V25.392C102.274 24.4747 102.578 23.7867 103.186 23.328C103.794 22.8587 104.792 22.624 106.178 22.624H107.186V21.92C107.186 21.3973 107.069 21.0507 106.834 20.88C106.61 20.7093 106.258 20.624 105.778 20.624C105.266 20.624 104.77 20.64 104.29 20.672C103.81 20.6933 103.437 20.72 103.17 20.752H103.09C103.005 20.752 102.936 20.736 102.882 20.704C102.829 20.672 102.802 20.5973 102.802 20.48V19.456C102.802 19.2747 102.904 19.1627 103.106 19.12C103.426 19.056 103.81 18.9973 104.258 18.944C104.717 18.8907 105.224 18.864 105.778 18.864C106.92 18.864 107.789 19.1147 108.386 19.616C108.994 20.1173 109.298 20.8853 109.298 21.92V27.68ZM107.186 24.032H106.178C105.816 24.032 105.517 24.064 105.282 24.128C105.058 24.1813 104.877 24.2667 104.738 24.384C104.61 24.4907 104.52 24.6293 104.466 24.8C104.424 24.9707 104.402 25.168 104.402 25.392V25.456C104.402 25.8507 104.493 26.1173 104.674 26.256C104.856 26.384 105.149 26.448 105.554 26.448C105.842 26.448 106.125 26.4053 106.402 26.32C106.69 26.2347 106.952 26.128 107.186 26V24.032ZM113.568 27.664C113.568 27.7493 113.536 27.8293 113.472 27.904C113.419 27.968 113.349 28 113.264 28H111.776C111.691 28 111.616 27.968 111.552 27.904C111.488 27.8293 111.456 27.7493 111.456 27.664V16.144C111.456 16.0587 111.488 15.984 111.552 15.92C111.616 15.856 111.691 15.824 111.776 15.824H113.264C113.349 15.824 113.419 15.856 113.472 15.92C113.536 15.984 113.568 16.0587 113.568 16.144V27.664ZM120.775 27.728C120.775 27.888 120.674 27.984 120.471 28.016C120.279 28.048 120.093 28.0747 119.911 28.096C119.741 28.1173 119.565 28.128 119.383 28.128C118.935 28.128 118.546 28.096 118.215 28.032C117.895 27.968 117.634 27.8453 117.431 27.664C117.229 27.472 117.079 27.2107 116.983 26.88C116.887 26.5493 116.839 26.1173 116.839 25.584V20.56L115.335 20.336C115.25 20.3147 115.175 20.2773 115.111 20.224C115.047 20.1707 115.015 20.1013 115.015 20.016V19.296C115.015 19.2107 115.047 19.136 115.111 19.072C115.175 19.008 115.25 18.976 115.335 18.976H116.839V17.664C116.839 17.5787 116.871 17.5093 116.935 17.456C116.999 17.4027 117.074 17.3653 117.159 17.344L118.647 17.088H118.711C118.882 17.088 118.967 17.168 118.967 17.328V18.976H120.407C120.493 18.976 120.567 19.008 120.631 19.072C120.695 19.136 120.727 19.2107 120.727 19.296V20.24C120.727 20.3253 120.695 20.4 120.631 20.464C120.567 20.528 120.493 20.56 120.407 20.56H118.967V25.584C118.967 25.7867 118.973 25.9467 118.983 26.064C118.994 26.1813 119.021 26.272 119.063 26.336C119.106 26.4 119.17 26.4427 119.255 26.464C119.341 26.4747 119.453 26.48 119.591 26.48H120.439C120.663 26.48 120.775 26.56 120.775 26.72V27.728ZM129.612 27.664C129.612 27.7493 129.58 27.8293 129.516 27.904C129.452 27.968 129.377 28 129.292 28H127.82C127.734 28 127.66 27.968 127.596 27.904C127.532 27.8293 127.5 27.7493 127.5 27.664V22.4C127.5 22.048 127.478 21.76 127.436 21.536C127.404 21.312 127.34 21.136 127.244 21.008C127.148 20.88 127.014 20.7893 126.844 20.736C126.673 20.6827 126.454 20.656 126.188 20.656C125.644 20.656 125.025 20.8373 124.332 21.2V27.664C124.332 27.7493 124.3 27.8293 124.236 27.904C124.172 27.968 124.097 28 124.012 28H122.54C122.454 28 122.38 27.968 122.316 27.904C122.252 27.8293 122.22 27.7493 122.22 27.664V16.144C122.22 16.0587 122.252 15.984 122.316 15.92C122.38 15.856 122.454 15.824 122.54 15.824H124.012C124.097 15.824 124.172 15.856 124.236 15.92C124.3 15.984 124.332 16.0587 124.332 16.144V19.456C124.641 19.2747 124.977 19.1307 125.34 19.024C125.702 18.9173 126.172 18.864 126.748 18.864C127.302 18.864 127.761 18.9547 128.124 19.136C128.497 19.3173 128.79 19.568 129.004 19.888C129.228 20.208 129.382 20.5867 129.468 21.024C129.564 21.4507 129.612 21.9093 129.612 22.4V27.664ZM139.208 19.248C139.208 19.2907 139.203 19.3227 139.192 19.344L136.52 28.688C136.392 29.1253 136.254 29.4987 136.104 29.808C135.955 30.128 135.758 30.3893 135.512 30.592C135.278 30.8053 134.979 30.96 134.616 31.056C134.254 31.152 133.8 31.2 133.256 31.2C133.128 31.2 132.984 31.1947 132.824 31.184C132.664 31.1733 132.504 31.1573 132.344 31.136C132.195 31.1147 132.051 31.0933 131.912 31.072C131.774 31.0507 131.656 31.024 131.56 30.992C131.475 30.9707 131.395 30.9387 131.32 30.896C131.256 30.864 131.224 30.8053 131.224 30.72V29.696C131.224 29.6107 131.256 29.5413 131.32 29.488C131.384 29.4347 131.459 29.408 131.544 29.408H131.576C131.694 29.408 131.832 29.4133 131.992 29.424C132.152 29.4347 132.312 29.4453 132.472 29.456C132.643 29.4667 132.808 29.4773 132.968 29.488C133.139 29.4987 133.278 29.504 133.384 29.504C133.726 29.504 133.992 29.4347 134.184 29.296C134.376 29.168 134.531 28.896 134.648 28.48L134.776 28H134.536C134.419 28 134.296 27.9893 134.168 27.968C134.04 27.936 133.912 27.8773 133.784 27.792C133.667 27.7067 133.55 27.5733 133.432 27.392C133.326 27.2107 133.23 26.9707 133.144 26.672L131.048 19.344C131.038 19.312 131.032 19.2747 131.032 19.232C131.032 19.0613 131.134 18.976 131.336 18.976H132.952C133.027 18.976 133.091 19.008 133.144 19.072C133.198 19.1253 133.235 19.1893 133.256 19.264L134.872 25.776C134.904 25.9147 134.936 26.0107 134.968 26.064C135 26.1067 135.043 26.128 135.096 26.128H135.112H135.192H135.24L136.968 19.248C136.99 19.1733 137.027 19.1093 137.08 19.056C137.134 19.0027 137.203 18.976 137.288 18.976H138.92C139.006 18.976 139.075 19.0027 139.128 19.056C139.182 19.1093 139.208 19.1733 139.208 19.248Z" fill="white"/>
<circle cx="33.5" cy="21.5" r="12.5" fill="white"/>
<path d="M35.8767 26.8691C35.0927 25.8727 32.9916 24.4777 30.8591 26.8691" stroke="#FA0A00" stroke-width="1.2" stroke-linecap="round"/>
<path d="M27 21.7389C27.6479 21.8209 29.1704 21.7881 30.0775 21.0002" stroke="#FA0A00" stroke-width="1.2" stroke-linecap="round"/>
<path d="M40.0801 21.7388C39.4317 21.821 37.9079 21.7881 37.0001 20.9995" stroke="#FA0A00" stroke-width="1.2" stroke-linecap="round"/>
<defs>
<filter id="filter0_d_23_248" x="0" y="0" width="167" height="49" filterUnits="userSpaceOnUse" color-interpolation-filters="sRGB">
<feFlood flood-opacity="0" result="BackgroundImageFix"/>
<feColorMatrix in="SourceAlpha" type="matrix" values="0 0 0 0 0 0 0 0 0 0 0 0 0 0 0 0 0 0 127 0" result="hardAlpha"/>
<feOffset dy="3"/>
<feGaussianBlur stdDeviation="3"/>
<feComposite in2="hardAlpha" operator="out"/>
<feColorMatrix type="matrix" values="0 0 0 0 0 0 0 0 0 0 0 0 0 0 0 0 0 0 0.1 0"/>
<feBlend mode="normal" in2="BackgroundImageFix" result="effect1_dropShadow_23_248"/>
<feBlend mode="normal" in="SourceGraphic" in2="effect1_dropShadow_23_248" result="shape"/>
</filter>
</defs>
</svg>
