<svg width="167" height="49" viewBox="0 0 167 49" fill="none" xmlns="http://www.w3.org/2000/svg">
<g filter="url(#filter0_d_23_204)">
<rect x="6" y="3" width="155" height="37" rx="6" fill="#FFE12D"/>
</g>
<path d="M77.6126 27.76C77.6126 27.8453 77.586 27.9093 77.5326 27.952C77.4793 27.984 77.4153 28 77.3406 28H75.7246C75.65 28 75.586 27.968 75.5326 27.904C75.49 27.84 75.4686 27.7653 75.4686 27.68V20.24C75.4686 20.1333 75.4526 20.08 75.4206 20.08C75.41 20.08 75.3833 20.112 75.3406 20.176L73.8046 23.232C73.7513 23.3173 73.6766 23.3867 73.5806 23.44C73.4953 23.4827 73.3993 23.504 73.2926 23.504H71.6766C71.57 23.504 71.4686 23.4827 71.3726 23.44C71.2873 23.3867 71.218 23.3173 71.1646 23.232L69.6126 20.176C69.57 20.112 69.5433 20.08 69.5326 20.08C69.5006 20.08 69.4846 20.1333 69.4846 20.24V27.68C69.4846 27.7653 69.458 27.84 69.4046 27.904C69.362 27.968 69.3033 28 69.2286 28H67.6126C67.538 28 67.474 27.984 67.4206 27.952C67.3673 27.9093 67.3406 27.8453 67.3406 27.76V16.752C67.3406 16.5707 67.3993 16.4213 67.5166 16.304C67.6446 16.176 67.7993 16.112 67.9806 16.112H69.2926C69.4206 16.112 69.538 16.1493 69.6446 16.224C69.7513 16.288 69.8313 16.3787 69.8846 16.496L72.3006 21.392C72.3433 21.4667 72.3753 21.5253 72.3966 21.568C72.418 21.6 72.4446 21.616 72.4766 21.616C72.5086 21.616 72.5353 21.6 72.5566 21.568C72.578 21.5253 72.61 21.4667 72.6526 21.392L75.0686 16.496C75.122 16.3787 75.202 16.288 75.3086 16.224C75.4153 16.1493 75.5326 16.112 75.6606 16.112H76.9726C77.154 16.112 77.3033 16.176 77.4206 16.304C77.5486 16.4213 77.6126 16.5707 77.6126 16.752V27.76ZM87.2285 24.144C87.2285 24.72 87.1432 25.2533 86.9725 25.744C86.8125 26.224 86.5725 26.64 86.2525 26.992C85.9325 27.344 85.5325 27.6213 85.0525 27.824C84.5832 28.0267 84.0338 28.128 83.4045 28.128C82.7752 28.128 82.2205 28.0267 81.7405 27.824C81.2712 27.6213 80.8765 27.344 80.5565 26.992C80.2365 26.64 79.9912 26.224 79.8205 25.744C79.6605 25.2533 79.5805 24.72 79.5805 24.144V22.848C79.5805 22.272 79.6605 21.744 79.8205 21.264C79.9912 20.7733 80.2365 20.352 80.5565 20C80.8765 19.648 81.2712 19.3707 81.7405 19.168C82.2205 18.9653 82.7752 18.864 83.4045 18.864C84.0338 18.864 84.5832 18.9653 85.0525 19.168C85.5325 19.3707 85.9325 19.648 86.2525 20C86.5725 20.352 86.8125 20.7733 86.9725 21.264C87.1432 21.744 87.2285 22.272 87.2285 22.848V24.144ZM85.1165 22.848C85.1165 22.1867 84.9725 21.664 84.6845 21.28C84.3965 20.8853 83.9698 20.688 83.4045 20.688C82.8392 20.688 82.4125 20.8853 82.1245 21.28C81.8365 21.664 81.6925 22.1867 81.6925 22.848V24.144C81.6925 24.8053 81.8365 25.3333 82.1245 25.728C82.4125 26.112 82.8392 26.304 83.4045 26.304C83.9698 26.304 84.3965 26.112 84.6845 25.728C84.9725 25.3333 85.1165 24.8053 85.1165 24.144V22.848ZM96.192 27.28C96.192 27.3973 96.1653 27.488 96.112 27.552C96.0587 27.6053 95.9413 27.6587 95.76 27.712C95.2587 27.84 94.7253 27.9413 94.16 28.016C93.5947 28.0907 93.056 28.128 92.544 28.128C91.2533 28.128 90.2933 27.776 89.664 27.072C89.0347 26.3573 88.72 25.3707 88.72 24.112V22.88C88.72 21.6213 89.0347 20.64 89.664 19.936C90.2933 19.2213 91.2533 18.864 92.544 18.864C92.736 18.864 92.9653 18.8747 93.232 18.896C93.4987 18.9067 93.7813 18.9333 94.08 18.976V16.144C94.08 16.0587 94.112 15.984 94.176 15.92C94.24 15.856 94.3147 15.824 94.4 15.824H95.872C95.9573 15.824 96.032 15.856 96.096 15.92C96.16 15.984 96.192 16.0587 96.192 16.144V27.28ZM94.08 20.704C93.856 20.672 93.5893 20.6453 93.28 20.624C92.9813 20.6027 92.736 20.592 92.544 20.592C92.2027 20.592 91.92 20.6507 91.696 20.768C91.472 20.8853 91.296 21.0453 91.168 21.248C91.04 21.4507 90.9493 21.6907 90.896 21.968C90.8533 22.2453 90.832 22.5493 90.832 22.88V24.112C90.832 24.4427 90.8533 24.7467 90.896 25.024C90.9493 25.3013 91.04 25.5413 91.168 25.744C91.296 25.9467 91.472 26.1067 91.696 26.224C91.92 26.3413 92.2027 26.4 92.544 26.4C92.832 26.4 93.12 26.3893 93.408 26.368C93.7067 26.3467 93.9307 26.32 94.08 26.288V20.704ZM105.65 23.824C105.65 24.0907 105.544 24.224 105.33 24.224H100.114V24.272C100.114 24.5067 100.141 24.7467 100.194 24.992C100.258 25.2267 100.36 25.4453 100.498 25.648C100.648 25.84 100.845 26 101.09 26.128C101.336 26.2453 101.65 26.304 102.034 26.304C102.621 26.304 103.17 26.288 103.682 26.256C104.205 26.2133 104.637 26.176 104.978 26.144H105.026C105.112 26.144 105.181 26.1653 105.234 26.208C105.288 26.24 105.314 26.2987 105.314 26.384V27.44C105.314 27.568 105.293 27.664 105.25 27.728C105.218 27.792 105.128 27.8347 104.978 27.856C104.722 27.8987 104.482 27.9413 104.258 27.984C104.034 28.016 103.805 28.0427 103.57 28.064C103.346 28.0853 103.096 28.1013 102.818 28.112C102.552 28.1227 102.237 28.128 101.874 28.128C101.48 28.128 101.053 28.0693 100.594 27.952C100.146 27.824 99.7304 27.6107 99.3464 27.312C98.9624 27.0027 98.6424 26.592 98.3864 26.08C98.1304 25.5573 98.0024 24.9013 98.0024 24.112V22.928C98.0024 22.2987 98.0877 21.7333 98.2584 21.232C98.429 20.7307 98.6744 20.304 98.9944 19.952C99.325 19.6 99.7304 19.3333 100.21 19.152C100.69 18.96 101.234 18.864 101.842 18.864C102.461 18.864 103.005 18.9653 103.474 19.168C103.954 19.36 104.354 19.6373 104.674 20C104.994 20.3627 105.234 20.7947 105.394 21.296C105.565 21.7867 105.65 22.3307 105.65 22.928V23.824ZM103.522 22.656C103.522 22.0267 103.368 21.5413 103.058 21.2C102.749 20.8587 102.344 20.688 101.842 20.688C101.341 20.688 100.93 20.8587 100.61 21.2C100.29 21.5307 100.13 22.016 100.13 22.656V22.72H103.522V22.656ZM112.102 20.336C112.102 20.4213 112.07 20.496 112.006 20.56C111.942 20.624 111.867 20.656 111.782 20.656C111.345 20.656 110.95 20.7093 110.598 20.816C110.257 20.912 109.915 21.0507 109.574 21.232V27.664C109.574 27.7493 109.542 27.8293 109.478 27.904C109.414 27.968 109.339 28 109.254 28H107.782C107.697 28 107.622 27.968 107.558 27.904C107.494 27.8293 107.462 27.7493 107.462 27.664V19.296C107.462 19.2107 107.494 19.136 107.558 19.072C107.622 19.008 107.697 18.976 107.782 18.976H109.174C109.259 18.976 109.334 19.008 109.398 19.072C109.462 19.136 109.494 19.2107 109.494 19.296V19.632C109.889 19.3227 110.289 19.12 110.694 19.024C111.099 18.9173 111.462 18.864 111.782 18.864C111.867 18.864 111.942 18.896 112.006 18.96C112.07 19.024 112.102 19.0987 112.102 19.184V20.336ZM120.15 27.68C120.15 27.7653 120.118 27.84 120.054 27.904C119.99 27.968 119.915 28 119.83 28H118.47C118.385 28 118.31 27.968 118.246 27.904C118.182 27.84 118.15 27.7653 118.15 27.68V27.424C117.777 27.648 117.403 27.824 117.03 27.952C116.657 28.0693 116.278 28.128 115.894 28.128C115.563 28.128 115.233 28.0907 114.902 28.016C114.571 27.9413 114.273 27.8027 114.006 27.6C113.75 27.3973 113.537 27.1253 113.366 26.784C113.206 26.4427 113.126 26 113.126 25.456V25.392C113.126 24.4747 113.43 23.7867 114.038 23.328C114.646 22.8587 115.643 22.624 117.03 22.624H118.038V21.92C118.038 21.3973 117.921 21.0507 117.686 20.88C117.462 20.7093 117.11 20.624 116.63 20.624C116.118 20.624 115.622 20.64 115.142 20.672C114.662 20.6933 114.289 20.72 114.022 20.752H113.942C113.857 20.752 113.787 20.736 113.734 20.704C113.681 20.672 113.654 20.5973 113.654 20.48V19.456C113.654 19.2747 113.755 19.1627 113.958 19.12C114.278 19.056 114.662 18.9973 115.11 18.944C115.569 18.8907 116.075 18.864 116.63 18.864C117.771 18.864 118.641 19.1147 119.238 19.616C119.846 20.1173 120.15 20.8853 120.15 21.92V27.68ZM118.038 24.032H117.03C116.667 24.032 116.369 24.064 116.134 24.128C115.91 24.1813 115.729 24.2667 115.59 24.384C115.462 24.4907 115.371 24.6293 115.318 24.8C115.275 24.9707 115.254 25.168 115.254 25.392V25.456C115.254 25.8507 115.345 26.1173 115.526 26.256C115.707 26.384 116.001 26.448 116.406 26.448C116.694 26.448 116.977 26.4053 117.254 26.32C117.542 26.2347 117.803 26.128 118.038 26V24.032ZM127.268 27.728C127.268 27.888 127.166 27.984 126.964 28.016C126.772 28.048 126.585 28.0747 126.404 28.096C126.233 28.1173 126.057 28.128 125.876 28.128C125.428 28.128 125.038 28.096 124.708 28.032C124.388 27.968 124.126 27.8453 123.924 27.664C123.721 27.472 123.572 27.2107 123.476 26.88C123.38 26.5493 123.332 26.1173 123.332 25.584V20.56L121.828 20.336C121.742 20.3147 121.668 20.2773 121.604 20.224C121.54 20.1707 121.508 20.1013 121.508 20.016V19.296C121.508 19.2107 121.54 19.136 121.604 19.072C121.668 19.008 121.742 18.976 121.828 18.976H123.332V17.664C123.332 17.5787 123.364 17.5093 123.428 17.456C123.492 17.4027 123.566 17.3653 123.652 17.344L125.14 17.088H125.204C125.374 17.088 125.46 17.168 125.46 17.328V18.976H126.9C126.985 18.976 127.06 19.008 127.124 19.072C127.188 19.136 127.22 19.2107 127.22 19.296V20.24C127.22 20.3253 127.188 20.4 127.124 20.464C127.06 20.528 126.985 20.56 126.9 20.56H125.46V25.584C125.46 25.7867 125.465 25.9467 125.476 26.064C125.486 26.1813 125.513 26.272 125.556 26.336C125.598 26.4 125.662 26.4427 125.748 26.464C125.833 26.4747 125.945 26.48 126.084 26.48H126.932C127.156 26.48 127.268 26.56 127.268 26.72V27.728ZM136.088 23.824C136.088 24.0907 135.981 24.224 135.768 24.224H130.552V24.272C130.552 24.5067 130.579 24.7467 130.632 24.992C130.696 25.2267 130.797 25.4453 130.936 25.648C131.085 25.84 131.283 26 131.528 26.128C131.773 26.2453 132.088 26.304 132.472 26.304C133.059 26.304 133.608 26.288 134.12 26.256C134.643 26.2133 135.075 26.176 135.416 26.144H135.464C135.549 26.144 135.619 26.1653 135.672 26.208C135.725 26.24 135.752 26.2987 135.752 26.384V27.44C135.752 27.568 135.731 27.664 135.688 27.728C135.656 27.792 135.565 27.8347 135.416 27.856C135.16 27.8987 134.92 27.9413 134.696 27.984C134.472 28.016 134.243 28.0427 134.008 28.064C133.784 28.0853 133.533 28.1013 133.256 28.112C132.989 28.1227 132.675 28.128 132.312 28.128C131.917 28.128 131.491 28.0693 131.032 27.952C130.584 27.824 130.168 27.6107 129.784 27.312C129.4 27.0027 129.08 26.592 128.824 26.08C128.568 25.5573 128.44 24.9013 128.44 24.112V22.928C128.44 22.2987 128.525 21.7333 128.696 21.232C128.867 20.7307 129.112 20.304 129.432 19.952C129.763 19.6 130.168 19.3333 130.648 19.152C131.128 18.96 131.672 18.864 132.28 18.864C132.899 18.864 133.443 18.9653 133.912 19.168C134.392 19.36 134.792 19.6373 135.112 20C135.432 20.3627 135.672 20.7947 135.832 21.296C136.003 21.7867 136.088 22.3307 136.088 22.928V23.824ZM133.96 22.656C133.96 22.0267 133.805 21.5413 133.496 21.2C133.187 20.8587 132.781 20.688 132.28 20.688C131.779 20.688 131.368 20.8587 131.048 21.2C130.728 21.5307 130.568 22.016 130.568 22.656V22.72H133.96V22.656Z" fill="#4F4F4F"/>
<circle cx="32.5" cy="21.5" r="12.5" fill="white"/>
<circle cx="38.3098" cy="21.3245" r="0.808451" fill="white" stroke="#4F4F4F" stroke-width="1.2"/>
<circle cx="26.6901" cy="21.3245" r="0.808451" fill="white" stroke="#4F4F4F" stroke-width="1.2"/>
<path d="M29.8592 25.9023H35.1409" stroke="#4F4F4F" stroke-width="1.2" stroke-linecap="round"/>
<defs>
<filter id="filter0_d_23_204" x="0" y="0" width="167" height="49" filterUnits="userSpaceOnUse" color-interpolation-filters="sRGB">
<feFlood flood-opacity="0" result="BackgroundImageFix"/>
<feColorMatrix in="SourceAlpha" type="matrix" values="0 0 0 0 0 0 0 0 0 0 0 0 0 0 0 0 0 0 127 0" result="hardAlpha"/>
<feOffset dy="3"/>
<feGaussianBlur stdDeviation="3"/>
<feComposite in2="hardAlpha" operator="out"/>
<feColorMatrix type="matrix" values="0 0 0 0 0 0 0 0 0 0 0 0 0 0 0 0 0 0 0.1 0"/>
<feBlend mode="normal" in2="BackgroundImageFix" result="effect1_dropShadow_23_204"/>
<feBlend mode="normal" in="SourceGraphic" in2="effect1_dropShadow_23_204" result="shape"/>
</filter>
</defs>
</svg>
