<?xml version="1.0" encoding="utf-8"?>
<!-- Generator: Adobe Illustrator 28.1.0, SVG Export Plug-In . SVG Version: 6.00 Build 0)  -->
<svg version="1.1" id="Layer_1" xmlns="http://www.w3.org/2000/svg" xmlns:xlink="http://www.w3.org/1999/xlink" x="0px" y="0px"
	 viewBox="0 0 55 55" style="enable-background:new 0 0 55 55;" xml:space="preserve">
<style type="text/css">
	.st0{fill:#4F4F4F;}
</style>
<g>
	<path class="st0" d="M49,29.1c-0.5-0.7-1.2-1.2-2.1-1.3c-0.1,0-0.3,0-0.4,0c0,0-0.1,0-0.1,0c0.1-0.5,0.4-1.5,0.5-1.9
		c0.1-0.4,0.2-0.7,0.3-0.9c0.3-1.3,0.5-2.7,0.7-3.9c0.4-3.6,0-6.8-1.1-9.4c-1.2-2.9-3.4-5.2-6.4-6.7c-0.2-0.1-0.3-0.1-0.5-0.1
		c0.7-0.4,1.5-1,2.2-2c0.2-0.2,0.1-0.6-0.1-0.8c-0.2-0.2-0.6-0.1-0.8,0.1c-1.9,2.6-4,2.1-4.1,2.1c-0.3-0.1-0.6,0.1-0.7,0.4
		c-0.1,0.3,0.1,0.6,0.4,0.7c0,0,0.3,0.1,0.7,0.1c0.5,0,1.2-0.1,2-0.4c-0.1,0.1-0.1,0.1-0.2,0.2c-0.2,0.4,0,0.9,0.4,1.1
		c2.6,1.3,4.6,3.4,5.6,5.9c1,2.4,1.3,5.3,1,8.6c-0.1,1.2-0.3,2.5-0.6,3.7c0,0.1-0.1,0.4-0.2,0.7c-0.2,0.5-0.3,1-0.5,1.5
		c-0.3-3.1-3.2-5.4-5-6.8l-0.3-0.2c-0.8-0.7-1.7-1.2-2.6-1.8c-0.5-0.3-0.9-0.6-1.4-0.9c-1.5-1-2.2-2.1-2.1-3.1
		c0-0.3-0.2-0.6-0.5-0.6c-0.3,0-0.6,0.2-0.6,0.5c-0.1,1.5,0.8,2.9,2.6,4.1c0.5,0.3,0.9,0.6,1.4,0.9c0.8,0.6,1.7,1.1,2.5,1.7l0.3,0.2
		c1.8,1.4,4.6,3.6,4.6,6.5c0,0.3,0.2,0.6,0.6,0.6c0.1,0,0.3-0.1,0.4-0.1c0,0.6,0.1,1.1,0.6,1.4c0.3,0.2,0.8,0.2,1.1,0.2
		c0.1,0,0.2,0,0.2,0c0.4,0.1,0.7,0.3,1,0.6c0.2,0.3,0.3,0.7,0.2,1.1l-1.3,4.8c-0.3,1.1-1.4,1.8-2.5,1.7l0,0l1.8-5.6
		c0.1-0.4-0.1-0.9-0.5-1c-0.4-0.1-0.9,0.1-1,0.5L42.1,38c-0.1,0.3-0.2,0.6-0.3,0.8c-0.4-0.1-0.8-0.2-1.2-0.2c-0.9,0-1.7,0.3-2.3,0.8
		c-1-1.6-2.6-3.1-4.6-4.4c-3-1.9-5.9-2.6-6.1-2.7c0,0,0,0,0,0c0,0,0,0,0,0c0,0,0,0,0,0c0,0,0,0,0,0c0,0,0,0,0,0c0,0,0,0,0,0
		c0,0,0,0,0,0c0,0,0,0,0,0c0,0,0,0,0,0c0,0,0,0,0,0c0,0,0,0,0,0c0,0,0,0,0,0c0,0,0,0,0,0c0,0,0,0,0,0c-0.2,0.1-3.1,0.8-6.1,2.7
		c-2,1.3-3.5,2.7-4.6,4.4c-1-0.8-2.3-1.1-3.5-0.6c-0.1-0.3-0.2-0.5-0.3-0.8l-2.1-6.6c-0.1-0.4-0.6-0.7-1-0.5c-0.4,0.1-0.7,0.6-0.5,1
		l1.8,5.6l0,0c-1.1,0.2-2.2-0.6-2.5-1.7l-1.3-4.8c-0.1-0.4,0-0.8,0.2-1.1c0.2-0.3,0.6-0.5,1-0.6c0.1,0,0.3,0,0.4,0
		c0.4,0,1.3-0.1,1.5-1.1c0.1,0.2,0.3,0.4,0.5,0.4c0,0,0,0,0,0c1.6-0.1,2.7-1.4,3.2-2.7c0.4-1.1,0.5-2.2,0.6-3.3
		c0-0.6,0.1-1.1,0.2-1.6c0.4-2.4,1.9-4.6,4-5.9c1.1-0.7,2.4-1.1,3.9-1.2c1.1-0.1,2.2-0.1,3.3,0c0.5,0,1,0,1.5,0c0.7,0,1.7,0,2.7-0.2
		c0.7-0.2,2-0.5,2.4-1.4c0.1-0.3,0-0.6-0.3-0.7c-0.3-0.1-0.6,0-0.7,0.3c-0.2,0.5-1.2,0.7-1.7,0.8c-0.9,0.2-1.8,0.2-2.5,0.2
		c-0.5,0-1,0-1.5,0c-1.1,0-2.3-0.1-3.5,0c-1.7,0.2-3.1,0.6-4.4,1.4c-2.4,1.5-4.1,3.9-4.5,6.6c-0.1,0.6-0.1,1.2-0.2,1.7
		c-0.1,1-0.2,2-0.5,2.9c-0.4,0.9-1.2,1.9-2.3,2c-0.2,0-0.4,0.1-0.5,0.3c0-0.7-0.3-1.4-0.5-2.1c-0.1-0.4-0.3-0.7-0.3-1
		c-1.2-5-1-9.2,0.4-12.6c2.7-6.2,9.9-7.6,15.4-7.6c0.1,0,3.3,0,6.9-0.3c5-0.5,8.4-1.4,10-2.6c0.4-0.3,0.4-0.8,0.1-1.2
		C42,0,41.5-0.1,41.1,0.2c-2.7,2.2-12.2,2.6-15.8,2.6c-0.1,0-0.1,0-0.2,0c-3.7,0-7,0.6-9.7,1.7C12,6,9.6,8.3,8.3,11.4
		C6.7,15,6.5,19.6,7.8,25c0.1,0.4,0.2,0.8,0.4,1.2c0.2,0.5,0.4,1.1,0.4,1.5c0,0,0,0,0,0c-0.1,0-0.3,0-0.5,0
		c-0.9,0.1-1.6,0.6-2.1,1.3c-0.5,0.7-0.6,1.6-0.4,2.5l1.3,4.8c0.5,1.9,2.4,3.2,4.3,2.9l0.4,0c0,0.1,0.1,0.2,0.1,0.4l-2.3,1.2
		c-0.5,0.3-0.8,0.7-1,1.2c-0.2,0.5-0.1,1.1,0.1,1.5L14,53.9c0.3,0.5,0.7,0.8,1.2,1c0.2,0.1,0.4,0.1,0.6,0.1c0.3,0,0.6-0.1,0.9-0.2
		L20,53c0.6-0.3,1.1-0.8,1.4-1.3c0,0,0,0,0,0c0.1-0.1,0.1-0.2,0.1-0.3c1.8,0.8,3.8,1.2,5.9,1.2c2.1,0,4.1-0.4,5.9-1.2
		c0.3,0.7,0.9,1.2,1.6,1.6l3.3,1.7c0.3,0.2,0.6,0.2,0.9,0.2h0c0.8,0,1.4-0.4,1.8-1.1l5.5-10.4c0.5-1,0.1-2.2-0.8-2.7l-2.3-1.2
		c0-0.1,0.1-0.2,0.1-0.4l0.4,0c2,0.3,3.8-1,4.3-2.9l1.3-4.8C49.7,30.7,49.5,29.8,49,29.1z M45,42.8l-5.5,10.4
		c-0.1,0.1-0.2,0.2-0.3,0.2c-0.1,0-0.1,0-0.2,0l-0.9-0.5l5.8-11l0.9,0.5C45,42.4,45.1,42.6,45,42.8z M37.2,52.3l-1.5-0.8
		c-1-0.5-1.3-1.7-0.8-2.7l4-7.6c0.3-0.6,1-1,1.7-1c0.3,0,0.6,0.1,0.9,0.2l1.5,0.8L37.2,52.3z M20,50.8c-0.2,0.3-0.4,0.6-0.8,0.7
		l-1.5,0.8l-5.8-11l1.5-0.8c1-0.5,2.1-0.1,2.7,0.8l4,7.6C20.4,49.5,20.4,50.2,20,50.8C20,50.8,20,50.8,20,50.8z M10,42.5
		c0-0.1,0.1-0.2,0.2-0.2l0.9-0.5l5.8,11L16,53.3c-0.1,0.1-0.2,0-0.3,0c-0.1,0-0.2-0.1-0.2-0.2L10,42.8C9.9,42.6,9.9,42.5,10,42.5z
		 M22,49.8c0-0.6-0.1-1.1-0.4-1.6l-4-7.6c0-0.1-0.1-0.2-0.1-0.2c0.9-1.6,2.4-3,4.4-4.3c2.5-1.6,5.1-2.4,5.7-2.5
		c0.6,0.2,3.1,0.9,5.7,2.5c2,1.3,3.5,2.7,4.4,4.3c0,0.1-0.1,0.2-0.1,0.2l-4,7.6c-0.3,0.5-0.4,1.1-0.4,1.6c-1.7,0.8-3.5,1.2-5.5,1.2
		C25.5,51,23.7,50.6,22,49.8z"/>
	<path class="st0" d="M19.9,27.6v2.1c0,0.5,0.4,0.9,0.9,0.9c0.5,0,0.9-0.4,0.9-0.9v-2.1c0-0.5-0.4-0.9-0.9-0.9
		C20.3,26.7,19.9,27.1,19.9,27.6z"/>
	<path class="st0" d="M34.2,26.7c-0.5,0-0.9,0.4-0.9,0.9v2.1c0,0.5,0.4,0.9,0.9,0.9l0,0c0.5,0,0.9-0.4,0.9-0.9v-2.1
		C35.1,27.1,34.7,26.7,34.2,26.7L34.2,26.7z"/>
	<path class="st0" d="M23.6,24.5c0-0.3-0.2-0.6-0.6-0.6H18c-0.3,0-0.6,0.2-0.6,0.6c0,0.3,0.2,0.6,0.6,0.6H23
		C23.3,25.1,23.6,24.8,23.6,24.5z"/>
	<path class="st0" d="M37.6,24.5c0-0.3-0.2-0.6-0.6-0.6H32c-0.3,0-0.6,0.2-0.6,0.6c0,0.3,0.2,0.6,0.6,0.6H37
		C37.3,25.1,37.6,24.8,37.6,24.5z"/>
	<path class="st0" d="M27.5,38.6c-1.4,0-2.5,1.1-2.5,2.5c0,1.4,1.1,2.5,2.5,2.5s2.5-1.1,2.5-2.5C30,39.7,28.9,38.6,27.5,38.6z
		 M27.5,42.5c-0.8,0-1.4-0.6-1.4-1.4c0-0.8,0.6-1.4,1.4-1.4c0.8,0,1.4,0.6,1.4,1.4C28.9,41.8,28.3,42.5,27.5,42.5z"/>
	<path class="st0" d="M27.5,35.9c-2.8,0-5.2,2.3-5.2,5.2c0,2.8,2.3,5.2,5.2,5.2s5.2-2.3,5.2-5.2C32.7,38.2,30.3,35.9,27.5,35.9z
		 M27.5,45.1c-2.2,0-4.1-1.8-4.1-4.1c0-2.2,1.8-4.1,4.1-4.1s4.1,1.8,4.1,4.1C31.6,43.3,29.7,45.1,27.5,45.1z"/>
</g>
</svg>
