<?xml version="1.0" encoding="utf-8"?>
<!-- Generator: Adobe Illustrator 28.1.0, SVG Export Plug-In . SVG Version: 6.00 Build 0)  -->
<svg version="1.1" id="Layer_1" xmlns="http://www.w3.org/2000/svg" xmlns:xlink="http://www.w3.org/1999/xlink" x="0px" y="0px"
	 viewBox="0 0 55 55" style="enable-background:new 0 0 55 55;" xml:space="preserve">
<style type="text/css">
	.st0{fill:#E7E7E7;stroke:#25B5B1;stroke-width:1.5951;stroke-miterlimit:10;}
	.st1{fill:#25B5B1;}
</style>
<g>
	<circle class="st0" cx="27.5" cy="27.5" r="26"/>
	<path class="st1" d="M33.4,40.1v-6l2.1-2c1-0.9,1.7-2.1,2-3.5l0,0h0.3c0.5,0,1-0.4,1-1v-2.6c0-0.5-0.4-1-1-1h-0.1v-5.2
		c0-3.9-3.1-7-7-7h-4.9c-3.9,0-7,3.1-7,7v5.2c-0.5,0-1,0.4-1,1v2.6c0,0.5,0.4,1,1,1h0.1c0.2,1.3,0.8,2.4,1.7,3.4l1.8,2v6
		c-4.8,1.4-11.4,3.4-15.2,4.6c5,5.4,12.2,8.8,20.2,8.8c8,0,15.2-3.4,20.3-8.8L33.4,40.1z"/>
</g>
</svg>
