<?xml version="1.0" encoding="utf-8"?>
<!-- Generator: Adobe Illustrator 28.1.0, SVG Export Plug-In . SVG Version: 6.00 Build 0)  -->
<svg version="1.1" id="Layer_1" xmlns="http://www.w3.org/2000/svg" xmlns:xlink="http://www.w3.org/1999/xlink" x="0px" y="0px"
	 viewBox="0 0 116 45" style="enable-background:new 0 0 116 45;" xml:space="preserve">
<style type="text/css">
	.st0{fill:#E7E7E7;stroke:#25B5B1;stroke-width:1.0123;stroke-miterlimit:10;}
	.st1{fill:#25B5B1;}
	.st2{fill:#4F4F4F;}
</style>
<g>
	<circle class="st0" cx="22.5" cy="22.5" r="16.5"/>
	<path class="st1" d="M26.3,30.5v-3.8l1.3-1.2c0.6-0.6,1.1-1.4,1.3-2.2l0,0h0.2c0.3,0,0.6-0.3,0.6-0.6V21c0-0.3-0.3-0.6-0.6-0.6H29
		v-3.3c0-2.5-2-4.4-4.4-4.4h-3.1c-2.5,0-4.4,2-4.4,4.4v3.3c-0.3,0-0.6,0.3-0.6,0.6v1.7c0,0.3,0.3,0.6,0.6,0.6h0.1
		c0.2,0.8,0.5,1.5,1.1,2.2l1.2,1.3v3.8c-3,0.9-7.2,2.2-9.6,2.9c3.2,3.4,7.8,5.6,12.8,5.6c5.1,0,9.7-2.2,12.9-5.6L26.3,30.5z"/>
	<g>
		<path class="st2" d="M60.1,31.6h-2.7L56,28.1h-6.9l-1.5,3.5h-2.7L51.5,16h2.1L60.1,31.6z M49.9,25.9H55l-2.5-6.1L49.9,25.9z"/>
		<path class="st2" d="M72,31.6h-2.2v-1.5c-0.3,0.5-0.8,0.9-1.4,1.2s-1.3,0.5-2.1,0.5c-1.5,0-2.7-0.5-3.7-1.5s-1.4-2.4-1.4-4
			c0-1.7,0.5-3,1.4-4c1-1,2.2-1.5,3.7-1.5c0.8,0,1.4,0.1,2,0.4c0.6,0.3,1,0.6,1.4,1.1v-6.8H72L72,31.6L72,31.6z M66.6,22.7
			c-0.9,0-1.7,0.3-2.3,0.9c-0.6,0.6-0.9,1.5-0.9,2.6s0.3,2,0.9,2.6c0.6,0.6,1.3,0.9,2.3,0.9c0.9,0,1.6-0.3,2.2-0.9
			c0.6-0.6,0.8-1.4,0.8-2.4v-0.6c0-1-0.3-1.8-0.8-2.4C68.3,23,67.5,22.7,66.6,22.7z"/>
		<path class="st2" d="M87.5,20.7c1.2,0,2.2,0.4,2.9,1.2c0.7,0.8,1.1,1.9,1.1,3.2v6.5h-2.4v-6.1c0-0.8-0.2-1.4-0.6-1.9
			s-0.9-0.7-1.6-0.7s-1.2,0.2-1.6,0.6c-0.4,0.4-0.6,0.9-0.7,1.6v0.1v6.4h-2.4v-6.1c0-0.8-0.2-1.4-0.6-1.9s-0.9-0.7-1.6-0.7
			s-1.3,0.2-1.8,0.7s-0.7,1.1-0.7,1.9v6.1h-2.3V20.9h2.2v1.4c0.6-1.1,1.6-1.6,3.1-1.6c1.6,0,2.7,0.6,3.4,1.9
			C84.8,21.4,85.9,20.7,87.5,20.7z"/>
		<path class="st2" d="M94.9,16.2c0.3-0.3,0.6-0.4,1-0.4s0.7,0.1,1,0.4c0.3,0.3,0.4,0.6,0.4,1s-0.1,0.7-0.4,1s-0.6,0.4-1,0.4
			s-0.7-0.1-1-0.4c-0.3-0.3-0.4-0.6-0.4-1S94.6,16.5,94.9,16.2z M97.1,31.6h-2.3V20.9h2.3V31.6z"/>
		<path class="st2" d="M105.8,20.7c1.2,0,2.2,0.4,3,1.2s1.2,1.9,1.2,3.2v6.4h-2.4v-6.1c0-0.8-0.2-1.4-0.6-1.9s-1-0.7-1.7-0.7
			s-1.3,0.2-1.8,0.7s-0.7,1.1-0.7,1.9v6.1h-2.3V20.9h2.2v1.4C103.3,21.3,104.4,20.7,105.8,20.7z"/>
	</g>
</g>
</svg>
