<?xml version="1.0" encoding="utf-8"?>
<!-- Generator: Adobe Illustrator 28.1.0, SVG Export Plug-In . SVG Version: 6.00 Build 0)  -->
<svg version="1.1" id="Layer_1" xmlns="http://www.w3.org/2000/svg" xmlns:xlink="http://www.w3.org/1999/xlink" x="0px" y="0px"
	 viewBox="0 0 200 160" style="enable-background:new 0 0 200 160;" xml:space="preserve">
<style type="text/css">
	.st0{fill:#4F4F4F;}
	.st1{fill:#FA0A00;}
	.st2{fill:#FFE12D;}
	.st3{fill:#FF7E00;}
	.st4{fill:#8F3F97;}
	.st5{fill:#00C800;}
	.st6{fill:#7E0023;}
	.st7{fill:#E7E7E7;}
</style>
<g>
	<g>
		<g>
			<g>
				<g>
					<path class="st0" d="M87.8,117.1c0.9,0,1.8,0.2,2.6,0.5c0.8,0.3,1.6,0.8,2.2,1.4c0.7,0.7,1.2,1.5,1.6,2.6
						c0.4,1.1,0.6,2.4,0.6,4c0,1.5-0.2,2.8-0.5,4s-0.8,2.1-1.4,3c-0.6,0.8-1.4,1.4-2.2,1.9s-1.9,0.6-2.9,0.6c-1.2,0-2.2-0.2-3.1-0.7
						c-0.9-0.5-1.6-1.1-2.2-1.8c-0.5-0.8-0.9-1.7-1-2.6h3.6c0.1,0.6,0.4,1.1,0.9,1.5c0.5,0.3,1,0.5,1.7,0.5c1.1,0,2-0.5,2.6-1.5
						c0.6-1,0.9-2.4,0.9-4.1h-0.1c-0.3,0.5-0.6,1-1.1,1.3c-0.4,0.4-1,0.6-1.5,0.8c-0.6,0.2-1.2,0.3-1.8,0.3c-1,0-1.9-0.2-2.8-0.7
						c-0.8-0.5-1.4-1.1-1.9-2s-0.7-1.8-0.7-2.9c0-1.2,0.3-2.2,0.8-3.1c0.5-0.9,1.3-1.6,2.3-2.2C85.4,117.3,86.5,117,87.8,117.1z
						 M87.9,119.9c-0.6,0-1.1,0.1-1.5,0.4c-0.4,0.3-0.8,0.6-1.1,1.1c-0.3,0.5-0.4,1-0.4,1.5c0,0.6,0.1,1.1,0.4,1.5
						c0.3,0.5,0.6,0.8,1,1.1c0.4,0.3,0.9,0.4,1.5,0.4c0.4,0,0.8-0.1,1.2-0.2s0.7-0.4,1-0.7s0.5-0.6,0.6-1c0.2-0.4,0.2-0.8,0.2-1.2
						c0-0.6-0.1-1.1-0.4-1.5c-0.3-0.5-0.6-0.8-1.1-1.1C88.9,120.1,88.4,119.9,87.9,119.9z"/>
					<path class="st0" d="M104.2,135.1c-1.5,0-2.7-0.4-3.8-1.1c-1.1-0.7-1.9-1.8-2.4-3.1c-0.6-1.4-0.8-3-0.8-4.9
						c0-1.9,0.3-3.5,0.8-4.9s1.4-2.4,2.4-3.1c1.1-0.7,2.3-1.1,3.8-1.1c1.5,0,2.7,0.4,3.8,1.1c1.1,0.7,1.9,1.7,2.4,3.1
						c0.6,1.3,0.8,3,0.8,4.9c0,1.9-0.3,3.6-0.8,4.9c-0.6,1.4-1.4,2.4-2.4,3.1C106.9,134.8,105.7,135.1,104.2,135.1z M104.2,132.1
						c1,0,1.8-0.5,2.4-1.5c0.6-1,0.9-2.5,0.9-4.5c0-1.3-0.1-2.4-0.4-3.3c-0.3-0.9-0.7-1.5-1.1-2c-0.5-0.4-1.1-0.7-1.7-0.7
						c-1,0-1.8,0.5-2.4,1.5c-0.6,1-0.9,2.5-0.9,4.5c0,1.3,0.1,2.5,0.4,3.4c0.3,0.9,0.7,1.6,1.1,2C103,131.8,103.5,132.1,104.2,132.1
						z"/>
				</g>
			</g>
			<g>
				<path class="st0" d="M170.4,148.8c-0.5,0-0.9-0.1-1.3-0.3c-0.4-0.2-0.7-0.4-0.9-0.7c-0.2-0.3-0.3-0.7-0.3-1.1h1.4
					c0,0.3,0.1,0.5,0.3,0.6c0.2,0.2,0.5,0.2,0.7,0.2s0.4-0.1,0.6-0.2s0.3-0.2,0.4-0.4c0.1-0.2,0.2-0.4,0.2-0.6s-0.1-0.5-0.2-0.6
					s-0.2-0.3-0.4-0.4s-0.4-0.2-0.6-0.2c-0.2,0-0.4,0-0.6,0.1c-0.2,0.1-0.3,0.2-0.4,0.3l-1.3-0.2l0.3-3.6h4.2v1.2h-3l-0.2,1.7l0,0
					c0.1-0.2,0.3-0.3,0.5-0.4s0.5-0.2,0.8-0.2c0.4,0,0.8,0.1,1.1,0.3c0.3,0.2,0.6,0.5,0.8,0.8s0.3,0.7,0.3,1.2s-0.1,0.9-0.3,1.2
					s-0.5,0.6-0.9,0.8C171.3,148.7,170.9,148.8,170.4,148.8z"/>
				<path class="st0" d="M176.6,148.8c-0.6,0-1.1-0.1-1.5-0.4s-0.7-0.7-1-1.2c-0.2-0.5-0.3-1.2-0.3-1.9c0-0.8,0.1-1.4,0.3-1.9
					s0.5-0.9,1-1.2s0.9-0.4,1.5-0.4s1.1,0.1,1.5,0.4s0.7,0.7,1,1.2c0.2,0.5,0.3,1.2,0.3,1.9c0,0.8-0.1,1.4-0.3,1.9s-0.5,0.9-1,1.2
					C177.7,148.7,177.2,148.8,176.6,148.8z M176.6,147.6c0.4,0,0.7-0.2,0.9-0.6s0.4-1,0.4-1.8c0-0.5-0.1-1-0.2-1.3s-0.3-0.6-0.5-0.8
					c-0.2-0.2-0.4-0.3-0.7-0.3c-0.4,0-0.7,0.2-0.9,0.6s-0.4,1-0.4,1.8c0,0.5,0.1,1,0.2,1.3c0.1,0.4,0.3,0.6,0.5,0.8
					C176.2,147.6,176.4,147.6,176.6,147.6z"/>
				<path class="st0" d="M183.2,148.8c-0.6,0-1.1-0.1-1.5-0.4s-0.7-0.7-1-1.2c-0.2-0.5-0.3-1.2-0.3-1.9c0-0.8,0.1-1.4,0.3-1.9
					s0.5-0.9,1-1.2s0.9-0.4,1.5-0.4s1.1,0.1,1.5,0.4s0.7,0.7,1,1.2c0.2,0.5,0.3,1.2,0.3,1.9c0,0.8-0.1,1.4-0.3,1.9s-0.5,0.9-1,1.2
					C184.2,148.7,183.7,148.8,183.2,148.8z M183.2,147.6c0.4,0,0.7-0.2,0.9-0.6s0.4-1,0.4-1.8c0-0.5-0.1-1-0.2-1.3s-0.3-0.6-0.5-0.8
					c-0.2-0.2-0.4-0.3-0.7-0.3c-0.4,0-0.7,0.2-0.9,0.6s-0.4,1-0.4,1.8c0,0.5,0.1,1,0.2,1.3c0.1,0.4,0.3,0.6,0.5,0.8
					C182.7,147.6,182.9,147.6,183.2,147.6z"/>
				<path class="st0" d="M187.2,143.5v-0.4c0-0.3,0.1-0.5,0.2-0.8c0.1-0.2,0.3-0.4,0.5-0.6s0.5-0.2,0.8-0.2s0.6,0.1,0.8,0.2
					s0.4,0.3,0.5,0.6c0.1,0.2,0.2,0.5,0.2,0.8v0.4c0,0.3-0.1,0.5-0.2,0.8c-0.1,0.2-0.3,0.4-0.5,0.6c-0.2,0.1-0.5,0.2-0.8,0.2
					s-0.6-0.1-0.8-0.2s-0.4-0.3-0.5-0.6C187.3,144,187.2,143.7,187.2,143.5z M187.7,148.7l4.7-6.9h0.9l-4.7,6.9H187.7z M188.2,143.1
					v0.4c0,0.2,0,0.3,0.1,0.5c0.1,0.1,0.2,0.2,0.4,0.2s0.3-0.1,0.4-0.2c0.1-0.1,0.1-0.3,0.1-0.5v-0.4c0-0.2,0-0.3-0.1-0.5
					c-0.1-0.1-0.2-0.2-0.4-0.2s-0.3,0.1-0.4,0.2S188.2,142.9,188.2,143.1z M190.8,147.4V147c0-0.3,0.1-0.5,0.2-0.8
					c0.1-0.2,0.3-0.4,0.5-0.6c0.2-0.1,0.5-0.2,0.8-0.2s0.6,0.1,0.8,0.2s0.4,0.3,0.5,0.6c0.1,0.2,0.2,0.5,0.2,0.8v0.4
					c0,0.3-0.1,0.5-0.2,0.8c-0.1,0.2-0.3,0.4-0.5,0.6c-0.2,0.1-0.5,0.2-0.8,0.2s-0.6-0.1-0.8-0.2s-0.4-0.3-0.5-0.6
					S190.8,147.7,190.8,147.4z M191.7,147v0.4c0,0.2,0,0.3,0.1,0.5s0.2,0.2,0.4,0.2s0.3-0.1,0.4-0.2s0.1-0.3,0.1-0.5V147
					c0-0.2,0-0.3-0.1-0.5c-0.1-0.1-0.2-0.2-0.4-0.2s-0.3,0.1-0.4,0.2C191.8,146.7,191.7,146.9,191.7,147z"/>
			</g>
			<g>
				<g>
					<path class="st0" d="M13,148.8c-0.6,0-1.1-0.1-1.5-0.4s-0.7-0.7-1-1.2c-0.2-0.5-0.3-1.2-0.3-1.9c0-0.8,0.1-1.4,0.3-1.9
						c0.2-0.5,0.5-0.9,1-1.2s0.9-0.4,1.5-0.4s1.1,0.1,1.5,0.4s0.7,0.7,1,1.2c0.2,0.5,0.3,1.2,0.3,1.9c0,0.8-0.1,1.4-0.3,1.9
						c-0.2,0.5-0.5,0.9-1,1.2C14.1,148.7,13.6,148.8,13,148.8z M13,147.6c0.4,0,0.7-0.2,0.9-0.6c0.2-0.4,0.4-1,0.4-1.8
						c0-0.5-0.1-1-0.2-1.3s-0.3-0.6-0.5-0.8c-0.2-0.2-0.4-0.3-0.7-0.3c-0.4,0-0.7,0.2-0.9,0.6c-0.2,0.4-0.4,1-0.4,1.8
						c0,0.5,0.1,1,0.2,1.3c0.1,0.4,0.3,0.6,0.5,0.8C12.5,147.6,12.8,147.6,13,147.6z"/>
					<path class="st0" d="M17.1,143.5v-0.4c0-0.3,0.1-0.5,0.2-0.8c0.1-0.2,0.3-0.4,0.5-0.6s0.5-0.2,0.8-0.2s0.6,0.1,0.8,0.2
						s0.4,0.3,0.5,0.6c0.1,0.2,0.2,0.5,0.2,0.8v0.4c0,0.3-0.1,0.5-0.2,0.8c-0.1,0.2-0.3,0.4-0.5,0.6c-0.2,0.1-0.5,0.2-0.8,0.2
						s-0.6-0.1-0.8-0.2s-0.4-0.3-0.5-0.6C17.1,144,17.1,143.7,17.1,143.5z M17.5,148.7l4.7-6.9h0.9l-4.7,6.9H17.5z M18.1,143.1v0.4
						c0,0.2,0,0.3,0.1,0.5c0.1,0.1,0.2,0.2,0.4,0.2c0.2,0,0.3-0.1,0.4-0.2s0.1-0.3,0.1-0.5v-0.4c0-0.2,0-0.3-0.1-0.5
						c-0.1-0.1-0.2-0.2-0.4-0.2c-0.2,0-0.3,0.1-0.4,0.2S18.1,142.9,18.1,143.1z M20.6,147.4V147c0-0.3,0.1-0.5,0.2-0.8
						c0.1-0.2,0.3-0.4,0.5-0.6c0.2-0.1,0.5-0.2,0.8-0.2s0.6,0.1,0.8,0.2c0.2,0.1,0.4,0.3,0.5,0.6c0.1,0.2,0.2,0.5,0.2,0.8v0.4
						c0,0.3-0.1,0.5-0.2,0.8c-0.1,0.2-0.3,0.4-0.5,0.6c-0.2,0.1-0.5,0.2-0.8,0.2s-0.6-0.1-0.8-0.2c-0.2-0.1-0.4-0.3-0.5-0.6
						S20.6,147.7,20.6,147.4z M21.6,147v0.4c0,0.2,0,0.3,0.1,0.5s0.2,0.2,0.4,0.2s0.3-0.1,0.4-0.2s0.1-0.3,0.1-0.5V147
						c0-0.2,0-0.3-0.1-0.5c-0.1-0.1-0.2-0.2-0.4-0.2c-0.2,0-0.3,0.1-0.4,0.2C21.6,146.7,21.6,146.9,21.6,147z"/>
				</g>
			</g>
		</g>
	</g>
	<g>
		<path class="st1" d="M137.3,50.4l16.7-16.7C139.4,19,119.2,10,96.9,10v23.7C112.7,33.7,127,40.1,137.3,50.4z"/>
		<path class="st2" d="M56.5,50.4L39.7,33.7C25.1,48.3,16.1,68.5,16.1,90.8h23.7C39.8,75,46.2,60.7,56.5,50.4z"/>
		<path class="st3" d="M96.9,33.7V10c-22.3,0-42.5,9-57.2,23.7l16.7,16.7C66.8,40.1,81.1,33.7,96.9,33.7z"/>
		<path class="st4" d="M154,90.8h23.7c0-22.3-9-42.5-23.7-57.2l-16.7,16.7C147.6,60.7,154,75,154,90.8z"/>
		<path class="st5" d="M39.8,90.8H16.1c0,22.3,9,42.5,23.7,57.2l16.7-16.7C46.2,120.9,39.8,106.6,39.8,90.8z"/>
		<path class="st6" d="M154,90.8c0,15.8-6.4,30.1-16.7,40.4l16.7,16.7c14.6-14.6,23.7-34.8,23.7-57.2H154z"/>
		<path class="st7" d="M64.6,58.6l-8.2-8.2C46.2,60.7,39.8,75,39.8,90.8h11.5C51.3,78.2,56.4,66.8,64.6,58.6z"/>
		<path class="st7" d="M96.9,45.2V33.7c-15.8,0-30.1,6.4-40.4,16.7l8.2,8.2C72.9,50.3,84.3,45.2,96.9,45.2z"/>
		<path class="st7" d="M129.2,58.6l8.2-8.2C127,40.1,112.7,33.7,96.9,33.7v11.5C109.5,45.2,120.9,50.3,129.2,58.6z"/>
		<path class="st7" d="M51.3,90.8H39.8c0,15.8,6.4,30.1,16.7,40.4l8.2-8.2C56.4,114.8,51.3,103.4,51.3,90.8z"/>
		<path class="st7" d="M129.2,123.1l8.2,8.2c10.3-10.3,16.7-24.6,16.7-40.4h-11.5C142.5,103.4,137.4,114.8,129.2,123.1z"/>
		<path class="st7" d="M137.3,50.4l-8.2,8.2c8.3,8.3,13.3,19.7,13.3,32.3H154C154,75,147.6,60.7,137.3,50.4z"/>
	</g>
</g>
</svg>
