<?xml version="1.0" encoding="utf-8"?>
<!-- Generator: Adobe Illustrator 28.1.0, SVG Export Plug-In . SVG Version: 6.00 Build 0)  -->
<svg version="1.1" id="Layer_1" xmlns="http://www.w3.org/2000/svg" xmlns:xlink="http://www.w3.org/1999/xlink" x="0px" y="0px"
	 viewBox="0 0 55 55" style="enable-background:new 0 0 55 55;" xml:space="preserve">
<style type="text/css">
	.st0{fill:#4F4F4F;}
</style>
<g>
	<path class="st0" d="M54,17.3c0,0.6-0.3,1.3-0.3,1.9c-1.3,4.7-5.7,8.2-10.7,8.2c-9.7,0-19.8,0-29.5,0c-0.9,0-1.6-0.6-1.6-1.6
		s0.6-1.6,1.9-1.6c6.6,0,13.2,0,19.8,0c3.1,0,6.3,0,9.7,0c4.4,0,8.2-3.8,7.9-8.2c0-3.1-1.6-5.7-4.4-6.9c-2.8-1.6-5.7-1.3-8.2,0.6
		L38.3,10c-0.6,0.6-1.6,0.3-2.2-0.3c-0.6-0.6-0.3-1.6,0.3-2.2C38.6,5.9,41.2,5,43.7,5c5,0.3,9.4,3.8,10.4,8.8c0,0.3,0.3,0.9,0.3,1.3
		C54,16,54,16.6,54,17.3z"/>
	<path class="st0" d="M14.5,30.8c4.1,0,7.9,0,11.9,0c4.7,0,8.5,3.1,9.4,7.5c1.3,5.7-2.8,11.3-8.5,11.6c-2.5,0.3-4.7-0.3-6.9-1.9
		c-0.9-0.6-0.9-2.2,0.3-2.8c0.6-0.3,1.3,0,1.9,0.3c1.6,1.3,3.5,1.6,5.3,1.3c3.1-0.6,5-3.5,5-6.6c-0.3-3.1-2.5-5.7-5.7-6
		c-0.3,0-0.9,0-1.3,0c-7.9,0-15.7,0-23.6,0c-0.3,0-0.6,0-0.6,0c-0.6,0-1.3-0.9-1.3-1.6c0-0.6,0.3-1.3,0.9-1.6c0.3,0,0.6,0,0.9,0
		C6.6,30.8,10.7,30.8,14.5,30.8z"/>
	<path class="st0" d="M18.6,21.3c-2.8,0-5.7,0-8.2,0c-0.9,0-1.6-0.6-1.6-1.6c0-0.9,0.6-1.6,1.6-1.6c0.3,0,0.3,0,0.6,0
		c5,0,10,0,15.1,0c0.3,0,0.6,0,0.9,0c0.9,0,1.6,0.6,1.6,1.6c0,0.9-0.6,1.6-1.6,1.6C24.2,21.3,21.4,21.3,18.6,21.3z"/>
	<path class="st0" d="M14.8,37c1.6,0,3.1,0,4.4,0c0.9,0,1.6,0.6,1.9,1.6c0,0.9-0.6,1.6-1.9,1.6c-3.1,0-6,0-9.1,0
		c-0.9,0-1.9-0.6-1.9-1.6S8.8,37,10.1,37C11.6,37,13.2,37,14.8,37z"/>
	<path class="st0" d="M3.2,21.3c-0.3,0-0.6,0-0.9,0c-0.9,0-1.6-0.6-1.6-1.6c0-0.6,0.3-1.6,1.3-1.6c0.9,0,1.9,0,2.8,0
		c0.9,0,1.3,0.9,1.3,1.6C6,20.4,5.4,21,4.4,21C3.8,21.3,3.5,21.3,3.2,21.3z"/>
</g>
</svg>
