<?xml version="1.0" encoding="utf-8"?>
<!-- Generator: Adobe Illustrator 28.1.0, SVG Export Plug-In . SVG Version: 6.00 Build 0)  -->
<svg version="1.1" id="Layer_1" xmlns="http://www.w3.org/2000/svg" xmlns:xlink="http://www.w3.org/1999/xlink" x="0px" y="0px"
	 viewBox="0 0 55 55" style="enable-background:new 0 0 55 55;" xml:space="preserve">
<style type="text/css">
	.st0{fill:#4F4F4F;}
</style>
<g>
	<g>
		<g>
			<path class="st0" d="M6.1,46.3c0-11.3,0-22.6,0-34c0-0.1,0.1-0.3,0.1-0.4C6.6,10.8,7.5,10,8.7,10c1.6,0,3.1,0,4.7,0
				c0,0,0,0,0.1,0.1c0,0.1,0,0.3,0,0.4c0,1.3,0,2.6,0,3.9c0,0.5,0.1,1.1,0.3,1.6c0.6,1.3,1.7,1.8,3.1,1.7c2,0,3.3-1.3,3.3-3.3
				c0-1.3,0-2.6,0-4c0-0.1,0-0.3,0-0.4c5,0,9.9,0,14.9,0c0,0.1,0,0.1,0,0.1c0,1.4,0,2.9,0,4.3c0,1.3,0.6,2.4,1.8,2.9
				c0.9,0.4,1.8,0.4,2.7,0.2c1.5-0.3,2.2-1.2,2.2-2.7c0-1.4,0-2.9,0-4.3c0-0.2,0-0.3,0-0.5c0.1,0,0.2,0,0.3,0c1.3,0,2.6,0,3.9,0
				c1.7,0,2.8,1.2,2.8,2.8c0,11,0,21.9,0,32.9c0,0.4-0.1,0.9-0.3,1.3c-0.5,1.1-1.5,1.6-2.7,1.6c-3.3,0-6.5,0-9.8,0
				c-9,0-17.9,0-26.9,0c-0.5,0-1.1-0.1-1.6-0.3C6.7,47.9,6.3,47.1,6.1,46.3z M8.9,45.8c12.5,0,24.9,0,37.3,0c0-8.3,0-16.6,0-25
				c-12.4,0-24.9,0-37.3,0C8.9,29.2,8.9,37.5,8.9,45.8z"/>
			<path class="st0" d="M14.9,11.4c0-1,0-2,0-3.1c0-1.2,0.7-1.8,1.9-1.8c0.1,0,0.2,0,0.3,0c1.2,0,1.9,0.7,1.9,1.9c0,2,0,4,0,6.1
				c0,1.2-0.7,1.8-1.9,1.8c-0.2,0-0.4,0-0.6,0c-0.9-0.1-1.5-0.8-1.5-1.7C14.9,13.5,14.9,12.5,14.9,11.4z"/>
			<path class="st0" d="M40.5,11.4c0,1,0,2.1,0,3.1c0,1.1-0.7,1.8-1.8,1.8c-0.3,0-0.7,0-1-0.1c-0.7-0.2-1-0.7-1.1-1.3
				c0-0.2,0-0.4,0-0.5c0-1.9,0-3.8,0-5.8c0-0.7,0.2-1.4,0.9-1.8c0.7-0.4,1.5-0.4,2.3,0c0.6,0.3,0.8,0.8,0.8,1.4
				C40.5,9.2,40.5,10.3,40.5,11.4C40.5,11.4,40.5,11.4,40.5,11.4z"/>
			<path class="st0" d="M15.3,43.2c-0.8,0-1.5,0-2.3,0c-0.4,0-0.6-0.1-0.6-0.5c0-1.3,0-2.6,0-3.9c0-0.4,0.1-0.6,0.5-0.6
				c1.5,0,3,0,4.6,0c0.4,0,0.5,0.2,0.5,0.6c0,1.3,0,2.6,0,3.8c0,0.5-0.1,0.6-0.6,0.6C16.8,43.2,16,43.2,15.3,43.2z"/>
			<path class="st0" d="M23.4,43.2c-0.8,0-1.5,0-2.3,0c-0.4,0-0.5-0.1-0.5-0.5c0-1.3,0-2.6,0-3.9c0-0.4,0.2-0.5,0.5-0.5
				c1.5,0,3.1,0,4.6,0c0.4,0,0.5,0.2,0.5,0.5c0,1.3,0,2.6,0,3.9c0,0.4-0.2,0.6-0.5,0.6C24.9,43.1,24.1,43.2,23.4,43.2z"/>
			<path class="st0" d="M31.4,43.2c-0.8,0-1.5,0-2.3,0c-0.4,0-0.6-0.1-0.6-0.5c0-1.3,0-2.6,0-3.9c0-0.4,0.1-0.6,0.5-0.6
				c1.5,0,3,0,4.6,0c0.4,0,0.5,0.2,0.5,0.6c0,1.3,0,2.6,0,3.8c0,0.5-0.1,0.6-0.6,0.6C32.9,43.2,32.1,43.2,31.4,43.2z"/>
			<path class="st0" d="M39.4,43.2c-0.7,0-1.5,0-2.2,0c-0.5,0-0.6-0.1-0.6-0.6c0-1.3,0-2.6,0-3.8c0-0.5,0.1-0.6,0.6-0.6
				c1.5,0,3,0,4.5,0c0.5,0,0.6,0.1,0.6,0.6c0,1.3,0,2.5,0,3.8c0,0.5-0.1,0.6-0.6,0.6C40.9,43.2,40.2,43.2,39.4,43.2z"/>
			<path class="st0" d="M31.3,29.2c-0.8,0-1.5,0-2.3,0c-0.4,0-0.5-0.2-0.5-0.5c0-1.3,0-2.6,0-3.9c0-0.4,0.2-0.5,0.5-0.5
				c1.5,0,3.1,0,4.6,0c0.3,0,0.5,0.1,0.5,0.5c0,1.3,0,2.6,0,4c0,0.4-0.2,0.5-0.5,0.5C32.9,29.2,32.1,29.2,31.3,29.2z"/>
			<path class="st0" d="M39.4,29.2c-0.8,0-1.5,0-2.3,0c-0.4,0-0.5-0.1-0.5-0.5c0-1.3,0-2.6,0-4c0-0.4,0.2-0.5,0.5-0.5
				c1.5,0,3.1,0,4.6,0c0.4,0,0.5,0.1,0.5,0.5c0,1.3,0,2.6,0,3.9c0,0.4-0.2,0.5-0.5,0.5C40.9,29.2,40.2,29.2,39.4,29.2z"/>
			<path class="st0" d="M15.3,36.2c-0.8,0-1.5,0-2.3,0c-0.4,0-0.6-0.1-0.6-0.5c0-1.3,0-2.6,0-3.9c0-0.4,0.1-0.6,0.5-0.5
				c1.5,0,3,0,4.6,0c0.4,0,0.5,0.1,0.5,0.5c0,1.3,0,2.6,0,3.9c0,0.4-0.2,0.5-0.5,0.5C16.8,36.2,16.1,36.2,15.3,36.2z"/>
			<path class="st0" d="M23.3,36.2c-0.8,0-1.5,0-2.3,0c-0.4,0-0.5-0.2-0.5-0.5c0-1.3,0-2.6,0-3.9c0-0.4,0.2-0.5,0.5-0.5
				c1.5,0,3,0,4.6,0c0.4,0,0.5,0.2,0.5,0.6c0,1.3,0,2.6,0,3.9c0,0.4-0.2,0.5-0.6,0.5C24.8,36.2,24.1,36.2,23.3,36.2z"/>
			<path class="st0" d="M31.3,36.2c-0.8,0-1.5,0-2.3,0c-0.4,0-0.5-0.1-0.5-0.5c0-1.3,0-2.6,0-3.9c0-0.4,0.2-0.5,0.5-0.5
				c1.5,0,3.1,0,4.6,0c0.4,0,0.5,0.1,0.5,0.5c0,1.3,0,2.6,0,4c0,0.4-0.2,0.5-0.5,0.5C32.9,36.2,32.1,36.2,31.3,36.2z"/>
			<path class="st0" d="M39.4,36.2c-0.8,0-1.5,0-2.3,0c-0.4,0-0.6-0.1-0.6-0.5c0-1.3,0-2.6,0-3.9c0-0.4,0.1-0.6,0.5-0.6
				c1.5,0,3,0,4.6,0c0.4,0,0.5,0.1,0.5,0.5c0,1.3,0,2.6,0,3.9c0,0.4-0.2,0.5-0.5,0.5C40.9,36.2,40.2,36.2,39.4,36.2z"/>
		</g>
	</g>
</g>
</svg>
