<?xml version="1.0" encoding="utf-8"?>
<!-- Generator: Adobe Illustrator 28.1.0, SVG Export Plug-In . SVG Version: 6.00 Build 0)  -->
<svg version="1.1" id="Layer_1" xmlns="http://www.w3.org/2000/svg" xmlns:xlink="http://www.w3.org/1999/xlink" x="0px" y="0px"
	 viewBox="0 0 122 45" style="enable-background:new 0 0 122 45;" xml:space="preserve">
<style type="text/css">
	.st0{fill:#25B5B1;stroke:#D1D1D1;stroke-width:2.4561;stroke-linecap:round;stroke-linejoin:round;stroke-miterlimit:10;}
	.st1{fill:#FFFFFF;}
</style>
<g>
	<path class="st0" d="M103,40H19c-8.5,0-15.4-6.9-15.4-15.4v-4.3C3.6,11.9,10.5,5,19,5h84c8.5,0,15.4,6.9,15.4,15.4v4.3
		C118.4,33.1,111.5,40,103,40z"/>
	<g>
		<g>
			<path class="st1" d="M43.8,31.4V15.3h2.5v7h8v-7h2.5v16.1h-2.5v-7h-8v7L43.8,31.4z"/>
			<path class="st1" d="M65,31.6c-1.1,0-2.1-0.2-2.9-0.7c-0.9-0.5-1.5-1.2-2-2.2c-0.5-1-0.7-2-0.7-3.3c0-1.2,0.2-2.3,0.7-3.3
				c0.5-1,1.1-1.7,2-2.2c0.9-0.5,1.8-0.7,2.9-0.7s2.1,0.2,2.9,0.7c0.9,0.5,1.5,1.2,2,2.2c0.5,1,0.7,2.1,0.7,3.3
				c0,1.2-0.2,2.3-0.7,3.3c-0.5,1-1.1,1.6-2,2.2C67.2,31.4,66.1,31.6,65,31.6z M65,29.6c0.7,0,1.4-0.2,1.8-0.6
				c0.5-0.4,0.9-0.9,1.1-1.6c0.2-0.6,0.4-1.4,0.4-2.1c0-0.7-0.1-1.5-0.4-2.1c-0.2-0.6-0.6-1.1-1.1-1.6C66.4,21.3,65.8,21,65,21
				s-1.4,0.2-1.8,0.6c-0.5,0.4-0.9,0.9-1.1,1.6c-0.2,0.7-0.4,1.4-0.4,2.1c0,0.7,0.1,1.5,0.4,2.1c0.2,0.6,0.6,1.1,1.1,1.6
				C63.7,29.5,64.3,29.6,65,29.6z"/>
			<path class="st1" d="M73.3,31.4v-12h2.2v2h0.1c0.2-0.6,0.6-1.2,1.2-1.6s1.2-0.6,2.1-0.6c0.9,0,1.5,0.2,2.1,0.6
				c0.5,0.4,1,0.9,1.2,1.6h0.1c0.2-0.6,0.7-1.1,1.4-1.6c0.6-0.4,1.4-0.6,2.2-0.6c1.1,0,2,0.4,2.7,1c0.7,0.7,1,1.7,1,3.1v8.1h-2.3
				v-7.9c0-0.9-0.2-1.4-0.6-1.7c-0.5-0.4-1-0.5-1.6-0.5c-0.7,0-1.4,0.2-1.8,0.7c-0.4,0.5-0.6,1.1-0.6,1.8v7.7h-2.3v-8
				c0-0.6-0.2-1.2-0.6-1.6s-1-0.6-1.6-0.6c-0.5,0-0.9,0.1-1.2,0.4s-0.6,0.6-0.9,1c-0.2,0.4-0.4,0.9-0.4,1.5v7.5h-2.3V31.4z"/>
			<path class="st1" d="M98.1,31.6c-1.2,0-2.2-0.2-3.1-0.7c-0.9-0.5-1.5-1.2-2-2.2c-0.5-1-0.7-2-0.7-3.3c0-1.2,0.2-2.3,0.7-3.3
				c0.5-1,1.1-1.7,2-2.2c0.9-0.5,1.8-0.7,2.9-0.7c0.7,0,1.4,0.1,2,0.4s1.2,0.6,1.7,1.1s0.9,1.1,1.2,1.8c0.2,0.7,0.5,1.7,0.5,2.8v0.9
				h-9.6v-1.7h7.2c0-0.6-0.1-1.1-0.4-1.6c-0.2-0.5-0.6-0.9-1.1-1.1c-0.5-0.2-1-0.4-1.6-0.4s-1.2,0.1-1.7,0.5
				c-0.5,0.4-0.9,0.7-1.1,1.2s-0.4,1.1-0.4,1.7v1.4c0,0.9,0.1,1.5,0.4,2.1s0.7,1,1.2,1.4c0.5,0.2,1.1,0.5,1.8,0.5
				c0.5,0,0.9-0.1,1.2-0.2c0.4-0.1,0.7-0.4,1-0.6c0.2-0.2,0.5-0.6,0.6-1l2.2,0.4c-0.1,0.6-0.5,1.2-1,1.7c-0.5,0.5-1,0.9-1.7,1.1
				C99.7,31.5,98.9,31.6,98.1,31.6z"/>
		</g>
		<g>
			<g>
				<path class="st1" d="M27.8,15c0.2-0.2,0.7-0.2,1,0l8,8c0.2,0.2,0.7,0.2,1,0c0.2-0.2,0.2-0.7,0-1l-8-8c-0.9-0.9-2.1-0.9-2.9,0
					l-8,8c-0.2,0.2-0.2,0.7,0,1s0.7,0.2,1,0L27.8,15z"/>
				<path class="st1" d="M28.3,16.5l7.5,7.5c0,0,0,0,0.1,0.1v5.6c0,1-0.7,1.7-1.7,1.7h-3.1c-0.4,0-0.7-0.4-0.7-0.7v-4.2
					c0-0.4-0.4-0.7-0.7-0.7H27c-0.4,0-0.7,0.4-0.7,0.7v4.2c0,0.4-0.4,0.7-0.7,0.7h-3.1c-1,0-1.7-0.7-1.7-1.7v-5.6c0,0,0,0,0.1-0.1
					L28.3,16.5z"/>
			</g>
		</g>
	</g>
</g>
</svg>
