<?xml version="1.0" encoding="utf-8"?>
<!-- Generator: Adobe Illustrator 28.1.0, SVG Export Plug-In . SVG Version: 6.00 Build 0)  -->
<svg version="1.1" id="Layer_1" xmlns="http://www.w3.org/2000/svg" xmlns:xlink="http://www.w3.org/1999/xlink" x="0px" y="0px"
	 viewBox="0 0 55 55" style="enable-background:new 0 0 55 55;" xml:space="preserve">
<style type="text/css">
	.st0{fill:#4F4F4F;}
</style>
<g>
	<path class="st0" d="M49.5,30.3c-0.5-0.7-1.3-1.2-2.2-1.3c-0.1,0-0.3,0-0.4,0c0,0-0.1,0-0.1,0c0.1-0.5,0.4-1.5,0.5-1.9
		c0.1-0.4,0.2-0.7,0.3-0.9c0.3-1.4,0.5-2.7,0.7-4c0.4-3.7,0-6.9-1.1-9.6c-1.2-3-3.5-5.3-6.6-6.9c-0.2-0.1-0.4-0.1-0.5-0.1
		c0.7-0.4,1.5-1,2.2-2c0.2-0.3,0.1-0.6-0.1-0.8c-0.3-0.2-0.6-0.1-0.8,0.1c-2,2.6-4.1,2.2-4.2,2.2c-0.3-0.1-0.6,0.1-0.7,0.4
		C36.5,5.7,36.7,6,37,6.1c0,0,0.3,0.1,0.7,0.1c0.5,0,1.2-0.1,2-0.4c-0.1,0.1-0.1,0.1-0.2,0.2c-0.2,0.4,0,0.9,0.4,1.1
		c2.7,1.3,4.7,3.4,5.8,6c1,2.4,1.3,5.4,1,8.8c-0.1,1.2-0.3,2.5-0.6,3.8c0,0.1-0.1,0.4-0.2,0.7c-0.2,0.5-0.4,1.1-0.5,1.6
		c-0.3-3.2-3.3-5.6-5.1-7l-0.3-0.2c-0.9-0.7-1.8-1.3-2.6-1.8c-0.5-0.3-0.9-0.6-1.4-0.9c-1.5-1-2.2-2.1-2.1-3.2
		c0-0.3-0.2-0.6-0.5-0.6c-0.3,0-0.6,0.2-0.6,0.5c-0.1,1.5,0.8,2.9,2.6,4.2c0.5,0.3,1,0.6,1.4,1c0.9,0.6,1.7,1.1,2.6,1.8l0.3,0.2
		c1.9,1.5,4.7,3.7,4.7,6.6c0,0.3,0.3,0.6,0.6,0.6c0.1,0,0.3-0.1,0.4-0.1c0,0.6,0.1,1.1,0.6,1.4c0.3,0.2,0.8,0.2,1.2,0.3
		c0.1,0,0.2,0,0.2,0c0.4,0.1,0.7,0.3,1,0.6c0.2,0.3,0.3,0.7,0.2,1.1L47,37.3c-0.3,1.1-1.4,1.9-2.6,1.7l0,0l1.8-5.8
		c0.1-0.4-0.1-0.9-0.5-1.1c-0.4-0.1-0.9,0.1-1.1,0.5l-2.2,6.7c-3.2,8.8-8.3,13.2-14.9,13.2c-6.7,0-11.7-4.5-14.9-13.2l-2.2-6.7
		c-0.1-0.4-0.6-0.7-1.1-0.5c-0.4,0.1-0.7,0.6-0.5,1.1l1.8,5.8l0,0c-1.2,0.2-2.3-0.6-2.6-1.7l-1.3-4.9c-0.1-0.4,0-0.8,0.2-1.1
		c0.2-0.3,0.6-0.6,1-0.6c0.1,0,0.3,0,0.4,0c0.4,0,1.4-0.1,1.6-1.1c0.1,0.2,0.3,0.4,0.5,0.4c0,0,0,0,0,0c1.6-0.1,2.8-1.5,3.3-2.7
		c0.5-1.1,0.5-2.2,0.6-3.3c0-0.6,0.1-1.1,0.2-1.7c0.4-2.4,1.9-4.7,4.1-6c1.1-0.7,2.5-1.1,4-1.3c1.1-0.1,2.2-0.1,3.4,0
		c0.5,0,1,0,1.5,0c0.8,0,1.8,0,2.8-0.2c0.7-0.2,2-0.5,2.5-1.5c0.1-0.3,0-0.6-0.3-0.7c-0.3-0.1-0.6,0-0.7,0.3
		c-0.2,0.5-1.3,0.7-1.7,0.8c-0.9,0.2-1.8,0.2-2.5,0.2c-0.5,0-1,0-1.5,0c-1.2,0-2.3-0.1-3.5,0c-1.7,0.2-3.2,0.6-4.5,1.4
		c-2.4,1.5-4.2,4-4.6,6.8c-0.1,0.6-0.1,1.2-0.2,1.8c-0.1,1.1-0.2,2.1-0.5,3c-0.4,0.9-1.2,2-2.3,2c-0.2,0-0.4,0.1-0.5,0.3
		c0-0.7-0.3-1.5-0.6-2.2C9.2,26.4,9.1,26,9,25.7c-1.2-5.1-1.1-9.4,0.4-12.8c2.8-6.4,10.1-7.7,15.7-7.7c0.1,0,3.4,0,7.1-0.3
		c5.1-0.5,8.6-1.4,10.2-2.7c0.4-0.3,0.4-0.8,0.1-1.2c-0.3-0.4-0.8-0.4-1.2-0.1C38.5,3,28.7,3.5,25.1,3.5c-3.8,0-7.2,0.6-9.9,1.8
		c-3.5,1.5-5.9,3.8-7.3,7C6.2,16,6.1,20.6,7.4,26.1c0.1,0.4,0.3,0.8,0.4,1.2c0.2,0.5,0.4,1.1,0.4,1.5c0,0,0,0,0,0
		c-0.1,0-0.3,0-0.5,0.1c-0.9,0.1-1.7,0.6-2.2,1.3C5,31,4.9,31.9,5.1,32.8l1.3,4.9c0.5,2,2.4,3.2,4.4,3l0.4-0.1
		c1.5,3.9,3.4,6.9,5.6,9.2c3,3,6.6,4.5,10.7,4.5c4.1,0,7.7-1.5,10.7-4.5c2.2-2.3,4.1-5.3,5.6-9.2l0.4,0.1c2,0.3,3.9-1,4.4-3l1.3-4.9
		C50.1,31.9,50,31,49.5,30.3z"/>
	<path class="st0" d="M19.7,28.8V31c0,0.5,0.4,0.9,0.9,0.9c0.5,0,0.9-0.4,0.9-0.9v-2.2c0-0.5-0.4-0.9-0.9-0.9
		C20.1,27.9,19.7,28.3,19.7,28.8z"/>
	<path class="st0" d="M22.4,26.4c0.2,0.2,0.6,0.3,0.8,0.1c0.2-0.2,0.3-0.6,0.1-0.8c-0.6-0.8-1.8-1.2-3.2-1.2c-1.6,0-3,0.7-3.5,1.7
		c-0.1,0.3,0,0.6,0.3,0.7c0.1,0,0.2,0,0.2,0c0.2,0,0.4-0.1,0.5-0.3c0.2-0.5,1.1-1.1,2.4-1.1C21,25.6,21.9,25.9,22.4,26.4z"/>
	<path class="st0" d="M34.3,27.9c-0.5,0-0.9,0.4-0.9,0.9V31c0,0.5,0.4,0.9,0.9,0.9l0,0c0.5,0,0.9-0.4,0.9-0.9v-2.2
		C35.3,28.3,34.9,27.9,34.3,27.9L34.3,27.9z"/>
	<path class="st0" d="M37.4,26.6c0.1,0.2,0.3,0.3,0.5,0.3c0.1,0,0.2,0,0.2,0c0.3-0.1,0.4-0.5,0.3-0.7c-0.5-1-1.9-1.7-3.5-1.7
		c-1.3,0-2.5,0.5-3.2,1.2c-0.2,0.2-0.2,0.6,0.1,0.8c0.2,0.2,0.6,0.2,0.8-0.1c0.4-0.5,1.3-0.8,2.3-0.8C36.2,25.6,37.1,26.1,37.4,26.6
		z"/>
	<path class="st0" d="M26.6,36.9c0.2,0,0.3-0.1,0.5-0.2c0.7-0.9,0.9-4.5,1-5.2c0-0.3-0.2-0.6-0.5-0.6c-0.3,0-0.6,0.2-0.6,0.5
		c-0.1,1.9-0.4,4.2-0.7,4.6c-0.2,0.3-0.1,0.6,0.1,0.8C26.4,36.9,26.5,36.9,26.6,36.9z"/>
	<path class="st0" d="M22.2,44.6h10.6c0.3,0,0.6-0.3,0.6-0.6c0-0.3-0.3-0.6-0.6-0.6H22.2c-0.3,0-0.6,0.3-0.6,0.6
		C21.6,44.3,21.9,44.6,22.2,44.6z"/>
</g>
</svg>
