<?xml version="1.0" encoding="utf-8"?>
<!-- Generator: Adobe Illustrator 28.1.0, SVG Export Plug-In . SVG Version: 6.00 Build 0)  -->
<svg version="1.1" id="Layer_1" xmlns="http://www.w3.org/2000/svg" xmlns:xlink="http://www.w3.org/1999/xlink" x="0px" y="0px"
	 viewBox="0 0 161 45" style="enable-background:new 0 0 161 45;" xml:space="preserve">
<style type="text/css">
	.st0{fill:#F1F1F1;stroke:#E7E7E7;stroke-width:2.4561;stroke-linecap:round;stroke-linejoin:round;stroke-miterlimit:10;}
	.st1{fill:#888888;}
	.st2{fill-rule:evenodd;clip-rule:evenodd;fill:#888888;}
</style>
<g>
	<path class="st0" d="M142.2,40H18.8c-8.5,0-15.4-6.9-15.4-15.4v-4.3C3.4,11.9,10.3,5,18.8,5h123.4c8.5,0,15.4,6.9,15.4,15.4v4.3
		C157.6,33.1,150.7,40,142.2,40z"/>
	<g>
		<g>
			<path class="st1" d="M58.9,23.4c0,1.7-0.4,3.2-1,4.4c-0.6,1.2-1.5,2.2-2.6,2.8s-2.3,1-3.7,1c-1.4,0-2.6-0.4-3.7-1s-2-1.6-2.6-2.8
				c-0.6-1.2-1-2.7-1-4.4c0-1.7,0.4-3.2,1-4.4c0.6-1.2,1.5-2.2,2.6-2.8c1.1-0.6,2.3-1,3.7-1c1.4,0,2.6,0.4,3.7,1s2,1.6,2.6,2.8
				C58.6,20.2,58.9,21.6,58.9,23.4z M56.6,23.4c0-1.4-0.2-2.5-0.6-3.3c-0.4-0.9-1-1.6-1.7-2.1c-0.7-0.5-1.6-0.7-2.5-0.7
				c-1,0-1.7,0.2-2.5,0.7c-0.7,0.5-1.4,1.1-1.7,2.1c-0.4,0.9-0.6,2-0.6,3.3s0.2,2.5,0.6,3.3c0.4,0.9,1,1.6,1.7,2.1
				c0.7,0.5,1.6,0.7,2.5,0.7c1,0,1.7-0.2,2.5-0.7c0.7-0.5,1.4-1.1,1.7-2.1C56.4,25.7,56.6,24.7,56.6,23.4z"/>
			<path class="st1" d="M72.1,19.3l-4.4,12h-2.5l-4.4-12h2.6l3.1,9.3h0.1l3.1-9.3H72.1z"/>
			<path class="st1" d="M79.5,31.6c-1.2,0-2.2-0.2-3.1-0.7c-0.9-0.5-1.5-1.2-2-2.2c-0.5-1-0.7-2-0.7-3.3c0-1.2,0.2-2.3,0.7-3.3
				c0.5-1,1.1-1.7,2-2.2c0.9-0.5,1.8-0.7,2.9-0.7c0.7,0,1.4,0.1,2,0.4s1.2,0.6,1.7,1.1c0.5,0.5,0.9,1.1,1.2,1.8s0.5,1.7,0.5,2.8v0.9
				h-9.6v-1.7h7.2c0-0.6-0.1-1.1-0.4-1.6c-0.2-0.5-0.6-0.9-1.1-1.1s-1-0.4-1.6-0.4c-0.6,0-1.2,0.1-1.7,0.5c-0.5,0.4-0.9,0.7-1.1,1.2
				s-0.4,1.1-0.4,1.7v1.4c0,0.9,0.1,1.5,0.4,2.1s0.7,1,1.2,1.4c0.5,0.4,1.1,0.5,1.8,0.5c0.5,0,0.9-0.1,1.2-0.2
				c0.4-0.1,0.7-0.4,1-0.6s0.5-0.6,0.6-1l2.2,0.4c-0.1,0.6-0.5,1.2-1,1.7c-0.5,0.5-1,0.9-1.7,1.1C81.2,31.5,80.4,31.6,79.5,31.6z"/>
			<path class="st1" d="M87.3,31.3v-12h2.2v2h0.1c0.2-0.6,0.6-1.1,1.1-1.5c0.6-0.4,1.2-0.6,1.8-0.6c0.1,0,0.4,0,0.5,0
				c0.2,0,0.4,0,0.5,0v2.2c-0.1,0-0.2,0-0.5-0.1c-0.2,0-0.5,0-0.7,0c-0.6,0-1.1,0.1-1.5,0.4c-0.4,0.2-0.7,0.6-1,1s-0.4,0.9-0.4,1.4
				v7.4L87.3,31.3z"/>
			<path class="st1" d="M106.1,19.3l-4.4,12h-2.5l-4.4-12h2.6l3.1,9.3h0.1l3.1-9.3H106.1z"/>
			<path class="st1" d="M109.5,17.5c-0.4,0-0.7-0.1-1.1-0.4c-0.2-0.2-0.5-0.6-0.5-1s0.1-0.7,0.5-1c0.2-0.2,0.6-0.4,1.1-0.4
				c0.5,0,0.7,0.1,1.1,0.4c0.2,0.2,0.5,0.6,0.5,1s-0.1,0.7-0.5,1C110.3,17.3,109.9,17.5,109.5,17.5z M108.3,31.3v-12h2.3v12H108.3z"
				/>
			<path class="st1" d="M119,31.6c-1.2,0-2.2-0.2-3.1-0.7c-0.9-0.5-1.5-1.2-2-2.2c-0.5-1-0.7-2-0.7-3.3c0-1.2,0.2-2.3,0.7-3.3
				c0.5-1,1.1-1.7,2-2.2c0.9-0.5,1.8-0.7,2.9-0.7c0.7,0,1.4,0.1,2,0.4s1.2,0.6,1.7,1.1s0.9,1.1,1.2,1.8c0.2,0.7,0.5,1.7,0.5,2.8v0.9
				h-9.6v-1.7h7.2c0-0.6-0.1-1.1-0.4-1.6c-0.2-0.5-0.6-0.9-1.1-1.1s-1-0.4-1.6-0.4s-1.2,0.1-1.7,0.5c-0.5,0.4-0.9,0.7-1.1,1.2
				s-0.4,1.1-0.4,1.7v1.4c0,0.9,0.1,1.5,0.4,2.1s0.7,1,1.2,1.4c0.5,0.2,1.1,0.5,1.8,0.5c0.5,0,0.9-0.1,1.2-0.2
				c0.4-0.1,0.7-0.4,1-0.6s0.5-0.6,0.6-1l2.2,0.4c-0.1,0.6-0.5,1.2-1,1.7c-0.5,0.5-1,0.9-1.7,1.1C120.7,31.5,119.9,31.6,119,31.6z"
				/>
			<path class="st1" d="M129.4,31.3l-3.6-12h2.5l2.3,8.8h0.1l2.3-8.8h2.5l2.3,8.8h0.1l2.3-8.8h2.5l-3.6,12h-2.3l-2.5-8.7h-0.1
				l-2.5,8.7H129.4z"/>
		</g>
		<g>
			<path class="st2" d="M18.2,23.9c0-4.2,3.4-7.6,7.6-7.6c0.4,0,0.7,0.4,0.7,0.7v6.3h6.3c0.4,0,0.7,0.4,0.7,0.7
				c0,4.2-3.4,7.6-7.6,7.6S18.2,28,18.2,23.9z"/>
			<path class="st2" d="M27.9,14.1c0-0.4,0.4-0.7,0.7-0.7c4.2,0,7.6,3.4,7.6,7.6c0,0.4-0.4,0.7-0.7,0.7h-6.9c-0.4,0-0.7-0.4-0.7-0.7
				L27.9,14.1L27.9,14.1z"/>
		</g>
	</g>
</g>
</svg>
