<?xml version="1.0" encoding="utf-8"?>
<!-- Generator: Adobe Illustrator 28.1.0, SVG Export Plug-In . SVG Version: 6.00 Build 0)  -->
<svg version="1.1" id="Layer_1" xmlns="http://www.w3.org/2000/svg" xmlns:xlink="http://www.w3.org/1999/xlink" x="0px" y="0px"
	 viewBox="0 0 55 55" style="enable-background:new 0 0 55 55;" xml:space="preserve">
<style type="text/css">
	.st0{fill-rule:evenodd;clip-rule:evenodd;fill:#4F4F4F;}
</style>
<g>
	<path class="st0" d="M3,31.2c0-11.3,9.3-20.7,20.7-20.7c1,0,2,1,2,2v17h17c1,0,2,1,2,2c0,11.3-9.3,20.7-20.7,20.7S3,42.5,3,31.2z"
		/>
	<path class="st0" d="M29.3,4.8c0-1,1-2,2-2C42.7,2.8,52,12.2,52,23.5c0,1-1,2-2,2H31.3c-1,0-2-1-2-2L29.3,4.8L29.3,4.8z"/>
</g>
</svg>
