<?xml version="1.0" encoding="utf-8"?>
<!-- Generator: Adobe Illustrator 28.1.0, SVG Export Plug-In . SVG Version: 6.00 Build 0)  -->
<svg version="1.1" id="Layer_1" xmlns="http://www.w3.org/2000/svg" xmlns:xlink="http://www.w3.org/1999/xlink" x="0px" y="0px"
	 viewBox="0 0 55 55" style="enable-background:new 0 0 55 55;" xml:space="preserve">
<style type="text/css">
	.st0{fill:#4F4F4F;}
</style>
<g>
	<path class="st0" d="M50,30.4c-0.5-0.8-1.3-1.3-2.2-1.4c-0.1,0-0.3,0-0.4,0c0,0-0.1,0-0.1,0c0.1-0.6,0.4-1.6,0.6-2
		c0.1-0.4,0.2-0.7,0.3-0.9c0.3-1.4,0.6-2.8,0.7-4.1c0.4-3.8,0-7.1-1.1-9.8c-1.3-3-3.6-5.5-6.7-7C40.8,5,40.6,5,40.4,5
		c0.7-0.4,1.5-1.1,2.3-2.1c0.2-0.3,0.1-0.6-0.1-0.8C42.3,1.9,42,2,41.8,2.2c-2,2.7-4.2,2.2-4.3,2.2c-0.3-0.1-0.6,0.1-0.7,0.4
		c-0.1,0.3,0.1,0.6,0.4,0.7c0,0,0.3,0.1,0.7,0.1c0.5,0,1.2-0.1,2-0.5c-0.1,0.1-0.1,0.2-0.2,0.2c-0.2,0.4,0,0.9,0.4,1.2
		C43,8,45,10.1,46.1,12.8c1,2.5,1.4,5.5,1,9c-0.1,1.3-0.3,2.6-0.7,3.9c0,0.1-0.1,0.4-0.2,0.8C46,27,45.8,27.5,45.7,28
		c-0.3-3.3-3.4-5.7-5.2-7.1l-0.3-0.2c-0.9-0.7-1.8-1.3-2.7-1.9c-0.5-0.3-1-0.6-1.4-1c-1.5-1.1-2.3-2.1-2.2-3.3
		c0-0.3-0.2-0.6-0.5-0.6c-0.3,0-0.6,0.2-0.6,0.5c-0.1,1.5,0.8,3,2.7,4.3c0.5,0.3,1,0.7,1.5,1c0.9,0.6,1.8,1.2,2.6,1.8l0.3,0.2
		c1.9,1.5,4.8,3.8,4.8,6.7c0,0.3,0.3,0.6,0.6,0.6c0.1,0,0.3-0.1,0.4-0.2c-0.1,0.7,0.1,1.2,0.6,1.5c0.4,0.2,0.8,0.2,1.2,0.3
		c0.1,0,0.2,0,0.2,0c0.4,0.1,0.8,0.3,1,0.6c0.2,0.3,0.3,0.8,0.2,1.2l-1.3,5.1c-0.3,1.2-1.4,1.9-2.6,1.8l0,0l1.9-5.9
		c0.1-0.5-0.1-0.9-0.6-1.1c-0.5-0.1-0.9,0.1-1.1,0.6l-2.2,6.8c-3.3,9-8.5,13.6-15.3,13.6c-6.8,0-12-4.6-15.3-13.6L10,32.9
		c-0.1-0.5-0.6-0.7-1.1-0.6c-0.5,0.1-0.7,0.6-0.6,1.1l1.9,5.9l0,0c-1.2,0.2-2.3-0.6-2.6-1.8l-1.3-5.1c-0.1-0.4,0-0.8,0.2-1.2
		c0.2-0.3,0.6-0.6,1-0.6c0.1,0,0.3,0,0.4,0c0.4,0,1.4-0.1,1.6-1.2c0.1,0.2,0.3,0.4,0.5,0.4c0,0,0,0,0,0c1.7-0.1,2.8-1.5,3.4-2.8
		c0.5-1.1,0.6-2.3,0.6-3.4c0-0.6,0.1-1.1,0.2-1.7c0.4-2.5,2-4.8,4.2-6.1c1.1-0.7,2.5-1.1,4.1-1.3c1.1-0.1,2.3-0.1,3.5,0
		c0.5,0,1.1,0,1.6,0c0.8,0,1.8,0,2.8-0.3c0.7-0.2,2.1-0.5,2.5-1.5c0.1-0.3,0-0.6-0.3-0.8c-0.3-0.1-0.6,0-0.8,0.3
		c-0.2,0.5-1.3,0.8-1.7,0.9c-0.9,0.2-1.8,0.2-2.6,0.2c-0.5,0-1,0-1.6,0c-1.2,0-2.4-0.1-3.6,0c-1.7,0.2-3.3,0.7-4.6,1.4
		c-2.5,1.5-4.3,4.1-4.7,6.9c-0.1,0.6-0.1,1.2-0.2,1.8c-0.1,1.1-0.2,2.1-0.6,3.1c-0.4,1-1.2,2-2.4,2.1c-0.2,0-0.4,0.1-0.5,0.3
		c0-0.7-0.3-1.5-0.6-2.2c-0.1-0.4-0.3-0.8-0.4-1.1C7.3,20.5,7.5,16,9,12.5C11.8,6,19.3,4.6,25.1,4.6c0,0,3.4,0,7.3-0.3
		c5.2-0.5,8.8-1.4,10.5-2.8c0.4-0.3,0.4-0.8,0.1-1.2c-0.3-0.4-0.8-0.4-1.2-0.1C38.8,2.4,29,2.9,25.2,2.9c-0.1,0-0.1,0-0.2,0
		c-3.9,0-7.3,0.6-10.2,1.8c-3.6,1.5-6.1,3.9-7.5,7.1c-1.7,3.8-1.8,8.6-0.5,14.2c0.1,0.4,0.3,0.9,0.4,1.3c0.2,0.5,0.4,1.1,0.5,1.6
		c0,0,0,0,0,0c-0.1,0-0.3,0-0.5,0.1c-0.9,0.1-1.7,0.6-2.2,1.4c-0.5,0.8-0.7,1.7-0.4,2.6L5.9,38c0.5,2,2.5,3.3,4.5,3l0.4-0.1
		c1.5,3.9,3.5,7.1,5.7,9.4c3,3.1,6.7,4.6,10.9,4.6c4.2,0,7.9-1.6,10.9-4.6c2.3-2.3,4.2-5.5,5.7-9.4l0.4,0.1c0.2,0,0.4,0,0.6,0
		c1.8,0,3.5-1.2,4-3.1l1.3-5.1C50.7,32,50.5,31.1,50,30.4z"/>
	<path class="st0" d="M20.5,32.6L20.5,32.6c0.5,0,1-0.4,1-1v-2.2c0-0.5-0.4-1-1-1h0c-0.5,0-1,0.4-1,1v2.2
		C19.5,32.2,20,32.6,20.5,32.6z"/>
	<path class="st0" d="M34.5,32.6c0.5,0,1-0.4,1-1v-2.2c0-0.5-0.4-1-1-1c-0.5,0-1,0.4-1,1v2.2C33.5,32.2,34,32.6,34.5,32.6z"/>
	<path class="st0" d="M26.6,37.1c0.2,0,0.4-0.1,0.5-0.2c0.7-1,0.9-4.6,1-5.3c0-0.3-0.2-0.6-0.5-0.6c-0.3,0-0.6,0.2-0.6,0.5
		c-0.1,1.9-0.4,4.3-0.8,4.7C26,36.5,26,36.8,26.3,37C26.4,37.1,26.5,37.1,26.6,37.1z"/>
	<path class="st0" d="M33.1,47.1c0.1,0,0.3-0.1,0.4-0.2c0.2-0.2,0.2-0.6,0-0.8c-3.3-3.3-8.7-3.3-12,0c-0.2,0.2-0.2,0.6,0,0.8
		c0.2,0.2,0.6,0.2,0.8,0c2.9-2.9,7.5-2.9,10.4,0C32.8,47,33,47.1,33.1,47.1z"/>
	<path class="st0" d="M26,46.7c-0.3,0-0.6,0.3-0.6,0.6c0,0.3,0.3,0.6,0.6,0.6H29c0.3,0,0.6-0.3,0.6-0.6c0-0.3-0.3-0.6-0.6-0.6H26z"
		/>
	<path class="st0" d="M23.5,24.4c0.2-0.3,0.1-0.6-0.2-0.8c-0.3-0.2-0.6-0.1-0.8,0.2C20.5,26.9,16,26,16,26c-0.3-0.1-0.6,0.1-0.7,0.4
		c-0.1,0.3,0.1,0.6,0.4,0.7c0.1,0,0.8,0.2,1.8,0.2C19.3,27.3,21.9,26.8,23.5,24.4z"/>
	<path class="st0" d="M39.3,27.1c0.3-0.1,0.5-0.4,0.4-0.7c-0.1-0.3-0.4-0.5-0.7-0.4c0,0-4.5,1-6.6-2.2c-0.2-0.3-0.5-0.3-0.8-0.2
		c-0.3,0.2-0.3,0.5-0.2,0.8c1.6,2.4,4.2,2.9,6,2.9C38.5,27.3,39.2,27.1,39.3,27.1z"/>
</g>
</svg>
