<?xml version="1.0" encoding="utf-8"?>
<!-- Generator: Adobe Illustrator 28.1.0, SVG Export Plug-In . SVG Version: 6.00 Build 0)  -->
<svg version="1.1" id="Layer_1" xmlns="http://www.w3.org/2000/svg" xmlns:xlink="http://www.w3.org/1999/xlink" x="0px" y="0px"
	 viewBox="0 0 55 55" style="enable-background:new 0 0 55 55;" xml:space="preserve">
<style type="text/css">
	.st0{fill:#4F4F4F;}
</style>
<g>
	<path class="st0" d="M50,30.4c-0.5-0.8-1.3-1.3-2.2-1.4c-0.1,0-0.3,0-0.4,0c0,0-0.1,0-0.1,0c0.1-0.6,0.4-1.6,0.6-2
		c0.1-0.4,0.2-0.7,0.3-0.9c0.3-1.4,0.6-2.8,0.7-4.1c0.4-3.8,0-7.1-1.1-9.8c-1.3-3-3.6-5.5-6.7-7C40.8,5,40.6,5,40.4,5
		c0.7-0.4,1.5-1.1,2.3-2.1c0.2-0.3,0.1-0.6-0.1-0.8C42.3,1.9,42,2,41.8,2.2c-2,2.7-4.2,2.2-4.3,2.2c-0.3-0.1-0.6,0.1-0.7,0.4
		c-0.1,0.3,0.1,0.6,0.4,0.7c0,0,0.3,0.1,0.7,0.1c0.5,0,1.2-0.1,2-0.5c-0.1,0.1-0.1,0.2-0.2,0.2c-0.2,0.4,0,0.9,0.4,1.2
		C43,8,45,10.1,46.1,12.8c1,2.5,1.4,5.5,1,9c-0.1,1.3-0.3,2.6-0.7,3.9c0,0.1-0.1,0.4-0.2,0.8C46,27,45.8,27.5,45.7,28
		c-0.3-3.3-3.4-5.7-5.2-7.1l-0.3-0.2c-0.9-0.7-1.8-1.3-2.7-1.9c-0.5-0.3-1-0.6-1.4-1c-1.5-1.1-2.3-2.1-2.2-3.3
		c0-0.3-0.2-0.6-0.5-0.6c-0.3,0-0.6,0.2-0.6,0.5c-0.1,1.5,0.8,3,2.7,4.3c0.5,0.3,1,0.7,1.5,1c0.9,0.6,1.8,1.2,2.6,1.8l0.3,0.2
		c1.9,1.5,4.8,3.8,4.8,6.7c0,0.3,0.3,0.6,0.6,0.6c0.1,0,0.3-0.1,0.4-0.2c-0.1,0.6,0.1,1.2,0.6,1.5c0.4,0.2,0.8,0.2,1.2,0.3
		c0.1,0,0.2,0,0.2,0c0.4,0.1,0.8,0.3,1,0.6c0.2,0.3,0.3,0.8,0.2,1.2l-1.3,5.1c-0.3,1.2-1.4,1.9-2.6,1.8l0,0l1.9-5.9
		c0.1-0.5-0.1-0.9-0.6-1.1c-0.5-0.1-0.9,0.1-1.1,0.6l-1,3c-0.7,0.9-2,2.3-3.8,2.7c-1.7,0.4-3.5-0.2-5.3-1.6
		c-1.8-1.4-3.7-2.8-4.9-3.8c-1.4-1.1-3.5-1.1-4.9,0c-1.2,1-3.1,2.4-4.9,3.8c-1.9,1.4-3.7,2-5.3,1.6c-1.8-0.4-3.1-1.8-3.8-2.7l-1-3
		c-0.1-0.5-0.6-0.7-1.1-0.6c-0.5,0.1-0.7,0.6-0.6,1.1l1.9,5.9l0,0c-1.2,0.2-2.3-0.6-2.6-1.8l-1.3-5.1c-0.1-0.4,0-0.8,0.2-1.2
		c0.2-0.3,0.6-0.6,1-0.6c0.1,0,0.3,0,0.4,0c0.4,0,1.4-0.1,1.6-1.2c0.1,0.2,0.3,0.4,0.5,0.4c0,0,0,0,0,0c1.7-0.1,2.8-1.5,3.4-2.8
		c0.5-1.1,0.6-2.3,0.6-3.4c0-0.6,0.1-1.1,0.2-1.7c0.4-2.5,2-4.8,4.2-6.1c1.1-0.7,2.5-1.1,4.1-1.3c1.1-0.1,2.3-0.1,3.5,0
		c0.5,0,1.1,0,1.6,0c0.8,0,1.8,0,2.8-0.3c0.7-0.2,2.1-0.5,2.5-1.5c0.1-0.3,0-0.6-0.3-0.8c-0.3-0.1-0.6,0-0.8,0.3
		c-0.2,0.5-1.3,0.8-1.7,0.9c-0.9,0.2-1.8,0.2-2.6,0.2c-0.5,0-1,0-1.6,0c-1.2,0-2.4-0.1-3.6,0c-1.7,0.2-3.3,0.7-4.6,1.4
		c-2.5,1.5-4.3,4.1-4.7,6.9c-0.1,0.6-0.1,1.2-0.2,1.8c-0.1,1.1-0.2,2.1-0.6,3.1c-0.4,1-1.2,2-2.4,2.1c-0.2,0-0.4,0.1-0.5,0.3
		c0-0.7-0.3-1.5-0.6-2.2c-0.1-0.4-0.3-0.8-0.4-1.1C7.3,20.5,7.5,16,9,12.5C11.8,6,19.3,4.6,25.1,4.6c0.1,0,3.4,0,7.3-0.3
		c5.2-0.5,8.8-1.4,10.5-2.8c0.4-0.3,0.4-0.8,0.1-1.2c-0.3-0.4-0.8-0.4-1.2-0.1c-2.9,2.3-13,2.7-16.6,2.7c-3.9,0-7.3,0.6-10.2,1.8
		c-3.6,1.5-6.1,3.9-7.5,7.1c-1.7,3.8-1.8,8.6-0.5,14.2c0.1,0.4,0.3,0.9,0.4,1.3c0.2,0.5,0.4,1.1,0.5,1.6c0,0,0,0,0,0
		c-0.1,0-0.3,0-0.5,0.1c-0.9,0.1-1.7,0.6-2.2,1.4c-0.5,0.8-0.7,1.7-0.4,2.6L5.9,38c0.5,2,2.5,3.3,4.5,3l0.4-0.1
		c1.5,3.9,3.5,7.1,5.7,9.4c3,3.1,6.7,4.6,10.9,4.6c4.2,0,7.9-1.6,10.9-4.6c2.3-2.3,4.2-5.5,5.7-9.4l0.4,0.1c2.1,0.3,4-1,4.5-3
		l1.3-5.1C50.7,32,50.5,31.1,50,30.4z M27.5,53.3c-6.8,0-12-4.6-15.3-13.6l-0.4-1.4c0.8,0.6,1.7,1.1,2.8,1.4
		c0.4,0.1,0.9,0.1,1.3,0.1c1.6,0,3.3-0.7,5-2c1.8-1.4,3.7-2.8,4.9-3.8c1-0.8,2.5-0.8,3.5,0c1.2,1,3.1,2.4,4.9,3.8
		c2.2,1.6,4.3,2.3,6.3,1.8c1.1-0.2,2-0.8,2.8-1.4l-0.4,1.4C39.5,48.7,34.3,53.3,27.5,53.3z"/>
	<path class="st0" d="M19.5,28.8v2.2c0,0.5,0.4,1,1,1c0.5,0,1-0.4,1-1v-2.2c0-0.5-0.4-1-1-1C20,27.9,19.5,28.3,19.5,28.8z"/>
	<path class="st0" d="M34.5,27.9c-0.5,0-1,0.4-1,1v2.2c0,0.5,0.4,1,1,1h0c0.5,0,1-0.4,1-1v-2.2C35.5,28.3,35,27.9,34.5,27.9
		L34.5,27.9z"/>
	<path class="st0" d="M23.4,25.6c0-0.3-0.3-0.6-0.6-0.6h-5.3c-0.3,0-0.6,0.3-0.6,0.6c0,0.3,0.3,0.6,0.6,0.6h5.3
		C23.1,26.2,23.4,26,23.4,25.6z"/>
	<path class="st0" d="M38,25.6c0-0.3-0.3-0.6-0.6-0.6h-5.3c-0.3,0-0.6,0.3-0.6,0.6c0,0.3,0.3,0.6,0.6,0.6h5.3
		C37.8,26.2,38,26,38,25.6z"/>
	<path class="st0" d="M27.5,40.6c0.3,0,0.6-0.3,0.6-0.6v-4.6c0-0.3-0.3-0.6-0.6-0.6c-0.3,0-0.6,0.3-0.6,0.6V40
		C26.9,40.3,27.2,40.6,27.5,40.6z"/>
	<path class="st0" d="M18.3,41.1c-1.3,0-2.4,1.1-2.4,2.5c0,1,0.6,1.9,1.5,2.3c0.1,0,0.2,0.1,0.2,0.1c0.2,0,0.4-0.1,0.5-0.3
		c0.1-0.3,0-0.6-0.3-0.8c-0.5-0.2-0.8-0.7-0.8-1.3c0-0.8,0.6-1.4,1.3-1.4c0.7,0,1.3,0.6,1.3,1.4c0,0.2,0,0.4-0.1,0.6
		c-0.1,0.3,0,0.6,0.3,0.8c0.3,0.1,0.6,0,0.8-0.3c0.1-0.3,0.2-0.6,0.2-1C20.8,42.2,19.7,41.1,18.3,41.1z"/>
	<path class="st0" d="M31.1,40.5c-2,0.9-5.2,0.9-7.2,0c-0.3-0.1-0.6,0-0.8,0.3c-0.1,0.3,0,0.6,0.3,0.8c1.1,0.5,2.6,0.8,4.1,0.8
		c1.5,0,2.9-0.3,4.1-0.8c0.3-0.1,0.4-0.5,0.3-0.8C31.7,40.5,31.4,40.4,31.1,40.5z"/>
	<path class="st0" d="M31.1,43.3c-2,0.9-5.2,0.9-7.2,0c-0.3-0.1-0.6,0-0.8,0.3c-0.1,0.3,0,0.6,0.3,0.8c1.1,0.5,2.6,0.8,4.1,0.8
		c1.5,0,2.9-0.3,4.1-0.8c0.3-0.1,0.4-0.5,0.3-0.8C31.7,43.3,31.4,43.1,31.1,43.3z"/>
	<path class="st0" d="M31.1,46c-2,0.9-5.2,0.9-7.2,0c-0.3-0.1-0.6,0-0.8,0.3c-0.1,0.3,0,0.6,0.3,0.8c1.1,0.5,2.6,0.8,4.1,0.8
		c1.5,0,2.9-0.3,4.1-0.8c0.3-0.1,0.4-0.5,0.3-0.8C31.7,46,31.4,45.9,31.1,46z"/>
</g>
</svg>
