<?xml version="1.0" encoding="utf-8"?>
<!-- Generator: Adobe Illustrator 28.1.0, SVG Export Plug-In . SVG Version: 6.00 Build 0)  -->
<svg version="1.1" id="Layer_1" xmlns="http://www.w3.org/2000/svg" xmlns:xlink="http://www.w3.org/1999/xlink" x="0px" y="0px"
	 viewBox="0 0 69 71" style="enable-background:new 0 0 69 71;" xml:space="preserve">
<style type="text/css">
	.st0{fill:#FFE12D;}
	.st1{fill:#4F4F4F;}
</style>
<g>
	<g>
		<circle class="st0" cx="34.5" cy="35.5" r="25"/>
		<g>
			<g>
				<path class="st1" d="M26.9,26.2c0.8,0,1.6,0.1,2.3,0.4c0.8,0.3,1.4,0.7,2,1.3c0.6,0.6,1.1,1.4,1.4,2.4s0.5,2.2,0.5,3.6
					c0,1.3-0.2,2.5-0.5,3.6c-0.3,1-0.7,1.9-1.3,2.7c-0.6,0.7-1.2,1.3-2,1.7c-0.8,0.4-1.7,0.6-2.6,0.6c-1.1,0-2-0.2-2.8-0.6
					c-0.8-0.4-1.5-1-1.9-1.7c-0.5-0.7-0.8-1.5-0.9-2.4h3.3c0.1,0.6,0.4,1,0.8,1.3s0.9,0.5,1.5,0.5c1,0,1.8-0.4,2.3-1.3
					c0.5-0.9,0.8-2.1,0.8-3.7h-0.1c-0.2,0.5-0.6,0.9-1,1.2c-0.4,0.3-0.9,0.6-1.4,0.8c-0.5,0.2-1.1,0.3-1.6,0.3
					c-0.9,0-1.8-0.2-2.5-0.7c-0.7-0.4-1.3-1-1.7-1.8S21,32.7,21,31.7c0-1.1,0.2-2,0.7-2.8c0.5-0.8,1.2-1.5,2.1-1.9
					C24.7,26.4,25.7,26.2,26.9,26.2z M26.9,28.8c-0.5,0-1,0.1-1.4,0.4c-0.4,0.2-0.7,0.6-1,1c-0.2,0.4-0.3,0.9-0.3,1.4
					c0,0.5,0.1,1,0.3,1.4c0.2,0.4,0.5,0.7,0.9,1c0.4,0.2,0.9,0.4,1.4,0.4c0.4,0,0.7-0.1,1.1-0.2c0.3-0.1,0.6-0.3,0.9-0.6
					c0.2-0.3,0.4-0.5,0.6-0.9c0.1-0.3,0.2-0.7,0.2-1.1c0-0.5-0.1-1-0.4-1.4c-0.2-0.4-0.5-0.7-1-1C27.9,29,27.4,28.8,26.9,28.8z"/>
				<path class="st1" d="M41.7,42.5c-1.3,0-2.5-0.3-3.4-1c-1-0.6-1.7-1.6-2.2-2.8c-0.5-1.2-0.8-2.7-0.8-4.4c0-1.7,0.3-3.2,0.8-4.4
					s1.2-2.1,2.2-2.8c1-0.6,2.1-1,3.4-1s2.5,0.3,3.4,1c1,0.6,1.7,1.6,2.2,2.8s0.8,2.7,0.8,4.4c0,1.7-0.3,3.2-0.8,4.4
					c-0.5,1.2-1.2,2.2-2.2,2.8S43,42.5,41.7,42.5z M41.7,39.8c0.9,0,1.6-0.5,2.2-1.4c0.5-0.9,0.8-2.3,0.8-4.1c0-1.2-0.1-2.2-0.4-3
					s-0.6-1.4-1-1.8c-0.4-0.4-1-0.6-1.6-0.6c-0.9,0-1.6,0.4-2.2,1.3c-0.5,0.9-0.8,2.2-0.8,4c0,1.2,0.1,2.2,0.4,3
					c0.2,0.8,0.6,1.4,1,1.8C40.5,39.6,41.1,39.8,41.7,39.8z"/>
			</g>
		</g>
	</g>
</g>
</svg>
