<?xml version="1.0" encoding="utf-8"?>
<!-- Generator: Adobe Illustrator 28.1.0, SVG Export Plug-In . SVG Version: 6.00 Build 0)  -->
<svg version="1.1" id="Layer_1" xmlns="http://www.w3.org/2000/svg" xmlns:xlink="http://www.w3.org/1999/xlink" x="0px" y="0px"
	 viewBox="0 0 595 152" style="enable-background:new 0 0 595 152;" xml:space="preserve">
<style type="text/css">
	.st0{opacity:0.2;}
	.st1{fill:#E7E7E7;}
	.st2{fill:#4F4F4F;}
	.st3{fill:#888888;}
</style>
<g>
	<g class="st0">
		<g>
			<g>
				<path class="st1" d="M22.2,6.7h550.7c8.6,0,15.5,6.9,15.5,15.5v107.6c0,8.6-6.9,15.5-15.5,15.5H22.2c-8.6,0-15.5-6.9-15.5-15.5
					V22.2C6.7,13.6,13.6,6.7,22.2,6.7z"/>
			</g>
		</g>
	</g>
	<g>
		<path d="M34.7,53.2h-6.4l9.8-28.4h7.7l9.8,28.4h-6.4l-7.1-21.9h-0.2L34.7,53.2z M34.3,42.1h15.2v4.7H34.3V42.1z"/>
		<path d="M61.9,29.2c-0.9,0-1.6-0.3-2.3-0.9c-0.6-0.6-0.9-1.3-0.9-2.1c0-0.8,0.3-1.5,0.9-2.1c0.6-0.6,1.4-0.9,2.2-0.9
			c0.9,0,1.6,0.3,2.3,0.9c0.6,0.6,0.9,1.3,0.9,2.1s-0.3,1.5-0.9,2.1C63.5,28.9,62.8,29.2,61.9,29.2z M58.9,53.2V32h5.9v21.3H58.9z"
			/>
		<path d="M69.5,53.2V32h5.7v3.7h0.2c0.4-1.3,1-2.3,2-3s2-1,3.2-1c0.3,0,0.6,0,1,0.1c0.3,0,0.6,0.1,0.9,0.2v5.2
			c-0.3-0.1-0.7-0.2-1.1-0.2c-0.5-0.1-0.9-0.1-1.3-0.1c-0.9,0-1.6,0.2-2.3,0.6c-0.7,0.4-1.2,0.9-1.6,1.6c-0.4,0.7-0.6,1.4-0.6,2.3
			v12H69.5z"/>
		<path d="M120.7,39.1c0,3.1-0.6,5.7-1.8,7.9c-1.2,2.2-2.8,3.8-4.8,5c-2,1.1-4.3,1.7-6.8,1.7c-2.5,0-4.8-0.6-6.8-1.7
			c-2-1.1-3.6-2.8-4.8-5c-1.2-2.2-1.7-4.8-1.7-7.9c0-3.1,0.6-5.7,1.7-7.9c1.2-2.2,2.7-3.8,4.8-5c2-1.1,4.3-1.7,6.8-1.7
			c2.5,0,4.8,0.6,6.8,1.7c2,1.1,3.6,2.8,4.8,5C120.1,33.3,120.7,36,120.7,39.1z M114.6,39.1c0-2-0.3-3.7-0.9-5.1
			c-0.6-1.4-1.4-2.4-2.5-3.1c-1.1-0.7-2.3-1.1-3.8-1.1s-2.7,0.4-3.8,1.1c-1.1,0.7-1.9,1.8-2.5,3.1c-0.6,1.4-0.9,3.1-0.9,5.1
			s0.3,3.7,0.9,5.1c0.6,1.4,1.4,2.4,2.5,3.1c1.1,0.7,2.3,1.1,3.8,1.1s2.7-0.4,3.8-1.1s1.9-1.8,2.5-3.1
			C114.3,42.8,114.6,41.1,114.6,39.1z M105.3,43.4h5.1l2.6,3.3l2.5,2.9l4.8,6h-5.6l-3.3-4l-1.7-2.4L105.3,43.4z"/>
		<path d="M138.7,44.2V32h5.9v21.3h-5.7v-3.9h-0.2c-0.5,1.2-1.3,2.2-2.4,3c-1.1,0.8-2.5,1.1-4.1,1.1c-1.4,0-2.7-0.3-3.8-1
			c-1.1-0.6-1.9-1.6-2.5-2.8c-0.6-1.2-0.9-2.6-0.9-4.3V32h5.9v12.5c0,1.3,0.3,2.2,1,3c0.7,0.7,1.6,1.1,2.7,1.1c0.7,0,1.4-0.2,2-0.5
			c0.6-0.3,1.1-0.8,1.5-1.5C138.5,45.9,138.7,45.1,138.7,44.2z"/>
		<path d="M155.3,53.6c-1.4,0-2.6-0.2-3.6-0.7c-1.1-0.5-1.9-1.2-2.5-2.1c-0.6-0.9-0.9-2.1-0.9-3.5c0-1.2,0.2-2.2,0.7-3
			c0.4-0.8,1-1.4,1.8-1.9c0.7-0.5,1.6-0.9,2.6-1.1c1-0.2,2-0.4,3-0.5c1.2-0.1,2.2-0.3,3-0.4c0.8-0.1,1.3-0.3,1.6-0.5s0.5-0.6,0.5-1
			v-0.1c0-0.9-0.3-1.6-0.8-2c-0.5-0.5-1.3-0.7-2.3-0.7c-1.1,0-1.9,0.2-2.5,0.7s-1,1.1-1.2,1.8L149,38c0.3-1.3,0.8-2.4,1.6-3.4
			s1.9-1.7,3.2-2.2c1.3-0.5,2.8-0.8,4.5-0.8c1.2,0,2.3,0.1,3.4,0.4c1.1,0.3,2,0.7,2.9,1.3s1.5,1.3,2,2.2c0.5,0.9,0.7,2,0.7,3.3v14.3
			h-5.6v-2.9h-0.2c-0.3,0.7-0.8,1.2-1.4,1.8c-0.6,0.5-1.3,0.9-2.1,1.2C157.3,53.5,156.4,53.6,155.3,53.6z M157,49.6
			c0.9,0,1.6-0.2,2.3-0.5c0.7-0.3,1.2-0.8,1.6-1.4c0.4-0.6,0.6-1.3,0.6-2v-2.3c-0.2,0.1-0.4,0.2-0.8,0.3c-0.3,0.1-0.7,0.2-1.1,0.3
			c-0.4,0.1-0.8,0.1-1.2,0.2c-0.4,0.1-0.8,0.1-1.1,0.2c-0.7,0.1-1.3,0.3-1.8,0.5c-0.5,0.2-0.9,0.5-1.2,0.9c-0.3,0.4-0.4,0.8-0.4,1.4
			c0,0.8,0.3,1.4,0.9,1.8C155.4,49.4,156.1,49.6,157,49.6z"/>
		<path d="M177.8,24.9v28.4h-5.9V24.9H177.8z"/>
		<path d="M185.5,29.2c-0.9,0-1.6-0.3-2.3-0.9c-0.6-0.6-0.9-1.3-0.9-2.1c0-0.8,0.3-1.5,0.9-2.1c0.6-0.6,1.4-0.9,2.2-0.9
			c0.9,0,1.6,0.3,2.3,0.9c0.6,0.6,0.9,1.3,0.9,2.1s-0.3,1.5-0.9,2.1C187.1,28.9,186.4,29.2,185.5,29.2z M182.5,53.2V32h5.9v21.3
			H182.5z"/>
		<path d="M204.4,32v4.4h-12.8V32H204.4z M194.5,26.9h5.9v19.8c0,0.5,0.1,1,0.2,1.3c0.2,0.3,0.4,0.5,0.7,0.6c0.3,0.1,0.6,0.2,1,0.2
			c0.3,0,0.6,0,0.8-0.1s0.5-0.1,0.6-0.1l0.9,4.4c-0.3,0.1-0.7,0.2-1.2,0.3c-0.5,0.1-1.2,0.2-2,0.2c-1.4,0.1-2.7-0.1-3.7-0.6
			c-1.1-0.4-1.9-1.1-2.5-2c-0.6-0.9-0.9-2.1-0.9-3.5V26.9z"/>
		<path d="M211.9,61.2c-0.7,0-1.4-0.1-2.1-0.2c-0.7-0.1-1.2-0.3-1.6-0.4l1.3-4.4c0.7,0.2,1.3,0.3,1.9,0.3s1-0.1,1.5-0.4
			c0.4-0.3,0.7-0.7,1-1.4l0.3-0.9L206.6,32h6.2l4.4,15.6h0.2l4.4-15.6h6.2l-8.3,23.6c-0.4,1.1-0.9,2.1-1.6,3s-1.5,1.5-2.6,2
			C214.6,61,213.4,61.2,211.9,61.2z"/>
		<path d="M246.3,24.9v28.4h-6V24.9H246.3z"/>
		<path d="M257,40.9v12.3h-5.9V32h5.6v3.8h0.2c0.5-1.2,1.3-2.2,2.4-2.9s2.5-1.1,4-1.1c1.5,0,2.8,0.3,3.9,1c1.1,0.6,2,1.6,2.6,2.8
			c0.6,1.2,0.9,2.6,0.9,4.3v13.5h-5.9V40.8c0-1.3-0.3-2.3-1-3.1c-0.7-0.7-1.6-1.1-2.8-1.1c-0.8,0-1.5,0.2-2.1,0.5
			c-0.6,0.3-1.1,0.8-1.4,1.5C257.2,39.2,257,40,257,40.9z"/>
		<path d="M283.2,53.6c-1.6,0-3.1-0.4-4.4-1.3c-1.3-0.8-2.3-2.1-3.1-3.7c-0.8-1.6-1.1-3.6-1.1-6c0-2.4,0.4-4.5,1.2-6.1
			c0.8-1.6,1.8-2.8,3.1-3.6c1.3-0.8,2.7-1.2,4.3-1.2c1.2,0,2.2,0.2,3,0.6c0.8,0.4,1.4,0.9,1.9,1.5c0.5,0.6,0.9,1.2,1.1,1.8h0.2V24.9
			h5.9v28.4h-5.8v-3.4h-0.2c-0.3,0.6-0.7,1.2-1.2,1.8c-0.5,0.6-1.2,1.1-2,1.4S284.3,53.6,283.2,53.6z M285.1,48.9
			c1,0,1.8-0.3,2.4-0.8c0.7-0.5,1.2-1.3,1.5-2.2c0.4-0.9,0.5-2,0.5-3.3s-0.2-2.4-0.5-3.3c-0.4-0.9-0.9-1.7-1.5-2.2
			c-0.7-0.5-1.5-0.8-2.4-0.8c-1,0-1.8,0.3-2.5,0.8c-0.7,0.5-1.2,1.3-1.5,2.2c-0.3,0.9-0.5,2-0.5,3.2c0,1.2,0.2,2.3,0.5,3.3
			s0.8,1.7,1.5,2.2C283.3,48.6,284.1,48.9,285.1,48.9z"/>
		<path d="M309.8,53.7c-2.2,0-4.1-0.4-5.6-1.3s-2.8-2.2-3.6-3.8c-0.8-1.6-1.3-3.6-1.3-5.8c0-2.2,0.4-4.1,1.3-5.8
			c0.8-1.7,2-2.9,3.6-3.9s3.4-1.4,5.4-1.4c1.4,0,2.7,0.2,3.9,0.7c1.2,0.4,2.3,1.1,3.2,2c0.9,0.9,1.6,2,2.1,3.4
			c0.5,1.4,0.8,2.9,0.8,4.7v1.6h-18v-3.7H314c0-0.8-0.2-1.6-0.6-2.3c-0.4-0.7-0.9-1.2-1.5-1.5c-0.7-0.4-1.4-0.6-2.3-0.6
			c-0.9,0-1.7,0.2-2.4,0.6c-0.7,0.4-1.2,1-1.6,1.6c-0.4,0.7-0.6,1.5-0.6,2.3v3.5c0,1.1,0.2,2,0.6,2.7c0.4,0.8,0.9,1.4,1.7,1.8
			s1.6,0.6,2.6,0.6c0.7,0,1.3-0.1,1.8-0.3s1-0.5,1.4-0.8c0.4-0.4,0.7-0.8,0.9-1.4l5.5,0.4c-0.3,1.3-0.8,2.5-1.7,3.4s-2,1.7-3.3,2.3
			C313.1,53.4,311.6,53.7,309.8,53.7z"/>
		<path d="M328.4,32l3.9,7.4l4-7.4h6.1l-6.2,10.6l6.3,10.6h-6l-4.2-7.4l-4.1,7.4h-6.1l6.3-10.6L322.3,32H328.4z"/>
	</g>
	<g>
		<path class="st2" d="M29,87.8V73.3h5.2c1.1,0,2.1,0.2,2.8,0.6c0.7,0.4,1.3,0.9,1.7,1.6c0.4,0.7,0.6,1.5,0.6,2.4
			c0,0.9-0.2,1.7-0.6,2.3c-0.4,0.7-0.9,1.2-1.7,1.6s-1.7,0.6-2.8,0.6h-3.9v-1.9H34c0.7,0,1.3-0.1,1.7-0.3c0.4-0.2,0.8-0.5,1-0.9
			s0.3-0.9,0.3-1.4c0-0.5-0.1-1-0.3-1.4c-0.2-0.4-0.5-0.7-1-0.9c-0.4-0.2-1-0.3-1.8-0.3h-2.8v12.7H29z M36.2,81.3l3.6,6.6h-2.5
			l-3.5-6.6H36.2z"/>
		<path class="st2" d="M46.4,88.1c-1.1,0-2-0.2-2.8-0.7c-0.8-0.5-1.4-1.1-1.8-2s-0.6-1.8-0.6-3c0-1.1,0.2-2.1,0.6-3
			c0.4-0.9,1-1.5,1.8-2c0.8-0.5,1.6-0.7,2.7-0.7c0.6,0,1.2,0.1,1.8,0.3s1.1,0.5,1.6,1c0.5,0.4,0.8,1,1.1,1.7
			c0.3,0.7,0.4,1.5,0.4,2.5V83h-8.7v-1.6H49c0-0.6-0.1-1.1-0.3-1.5c-0.2-0.4-0.5-0.8-1-1c-0.4-0.3-0.9-0.4-1.4-0.4
			c-0.6,0-1.1,0.1-1.6,0.4c-0.4,0.3-0.8,0.7-1,1.1s-0.4,1-0.4,1.5v1.2c0,0.7,0.1,1.3,0.4,1.9c0.3,0.5,0.6,0.9,1.1,1.2
			c0.5,0.3,1,0.4,1.6,0.4c0.4,0,0.8-0.1,1.1-0.2s0.6-0.3,0.9-0.5c0.2-0.2,0.4-0.5,0.6-0.9l2,0.4c-0.2,0.6-0.4,1.1-0.9,1.6
			c-0.4,0.4-0.9,0.8-1.6,1C47.9,87.9,47.2,88.1,46.4,88.1z"/>
		<path class="st2" d="M56.6,88.1c-0.7,0-1.3-0.1-1.9-0.4c-0.6-0.3-1-0.6-1.3-1.1c-0.3-0.5-0.5-1.1-0.5-1.8c0-0.6,0.1-1.1,0.4-1.5
			c0.2-0.4,0.6-0.7,1-0.9s0.9-0.4,1.3-0.5c0.5-0.1,1-0.2,1.5-0.3c0.7-0.1,1.2-0.1,1.6-0.2c0.4,0,0.7-0.1,0.9-0.2
			c0.2-0.1,0.3-0.3,0.3-0.6v0c0-0.6-0.2-1.1-0.5-1.4c-0.3-0.3-0.9-0.5-1.6-0.5c-0.7,0-1.3,0.2-1.7,0.5c-0.4,0.3-0.7,0.7-0.8,1
			l-2-0.5c0.2-0.7,0.6-1.2,1-1.6c0.5-0.4,1-0.7,1.6-0.9s1.2-0.3,1.9-0.3c0.4,0,0.9,0.1,1.4,0.2c0.5,0.1,0.9,0.3,1.4,0.6
			c0.4,0.3,0.8,0.7,1.1,1.2c0.3,0.5,0.4,1.1,0.4,1.9v7.2h-2.1v-1.5h-0.1c-0.1,0.3-0.3,0.5-0.6,0.8c-0.3,0.3-0.6,0.5-1.1,0.7
			C57.8,88,57.2,88.1,56.6,88.1z M57.1,86.4c0.6,0,1.1-0.1,1.5-0.3s0.7-0.5,1-0.9c0.2-0.4,0.3-0.8,0.3-1.2v-1.4
			c-0.1,0.1-0.2,0.1-0.4,0.2s-0.5,0.1-0.7,0.2c-0.3,0-0.5,0.1-0.8,0.1c-0.3,0-0.5,0.1-0.7,0.1c-0.4,0.1-0.8,0.1-1.1,0.3
			c-0.3,0.1-0.6,0.3-0.8,0.5c-0.2,0.2-0.3,0.5-0.3,0.9c0,0.5,0.2,0.9,0.6,1.2S56.5,86.4,57.1,86.4z"/>
		<path class="st2" d="M67,73.3v14.5h-2.1V73.3H67z"/>
		<path class="st2" d="M76.3,80.8v1.8h-6.4v-1.8H76.3z"/>
		<path class="st2" d="M84.2,76.9v1.7h-6v-1.7H84.2z M79.8,74.3h2.1v10.3c0,0.4,0.1,0.7,0.2,0.9s0.3,0.3,0.5,0.4
			c0.2,0.1,0.4,0.1,0.6,0.1c0.2,0,0.3,0,0.4,0c0.1,0,0.2,0,0.3-0.1l0.4,1.8c-0.1,0-0.3,0.1-0.5,0.1c-0.2,0-0.5,0.1-0.9,0.1
			c-0.6,0-1.1-0.1-1.6-0.3s-0.9-0.5-1.2-1s-0.4-1-0.4-1.6V74.3z"/>
		<path class="st2" d="M87.6,75.2c-0.4,0-0.7-0.1-0.9-0.4s-0.4-0.5-0.4-0.9c0-0.4,0.1-0.6,0.4-0.9s0.6-0.4,0.9-0.4s0.7,0.1,0.9,0.4
			s0.4,0.5,0.4,0.9c0,0.4-0.1,0.6-0.4,0.9S88,75.2,87.6,75.2z M86.5,87.8V76.9h2.1v10.9H86.5z"/>
		<path class="st2" d="M91.5,87.8V76.9h2v1.8h0.1c0.2-0.6,0.6-1.1,1.1-1.4c0.5-0.3,1.1-0.5,1.9-0.5c0.7,0,1.3,0.2,1.8,0.5
			c0.5,0.3,0.9,0.8,1.1,1.4h0.1c0.3-0.6,0.7-1,1.2-1.4c0.6-0.3,1.2-0.5,2-0.5c1,0,1.8,0.3,2.4,0.9c0.6,0.6,0.9,1.6,0.9,2.8v7.3h-2.1
			v-7.1c0-0.7-0.2-1.3-0.6-1.6c-0.4-0.3-0.9-0.5-1.4-0.5c-0.7,0-1.2,0.2-1.6,0.6c-0.4,0.4-0.6,1-0.6,1.6v7h-2.1v-7.3
			c0-0.6-0.2-1.1-0.6-1.4c-0.4-0.4-0.8-0.5-1.4-0.5c-0.4,0-0.8,0.1-1.1,0.3c-0.3,0.2-0.6,0.5-0.8,0.9c-0.2,0.4-0.3,0.8-0.3,1.3v6.7
			H91.5z"/>
		<path class="st2" d="M113.9,88.1c-1.1,0-2-0.2-2.8-0.7c-0.8-0.5-1.4-1.1-1.8-2s-0.6-1.8-0.6-3c0-1.1,0.2-2.1,0.6-3
			c0.4-0.9,1-1.5,1.8-2c0.8-0.5,1.6-0.7,2.7-0.7c0.6,0,1.2,0.1,1.8,0.3s1.1,0.5,1.6,1c0.5,0.4,0.8,1,1.1,1.7
			c0.3,0.7,0.4,1.5,0.4,2.5V83h-8.7v-1.6h6.6c0-0.6-0.1-1.1-0.3-1.5c-0.2-0.4-0.5-0.8-1-1c-0.4-0.3-0.9-0.4-1.4-0.4
			c-0.6,0-1.1,0.1-1.6,0.4c-0.4,0.3-0.8,0.7-1,1.1s-0.4,1-0.4,1.5v1.2c0,0.7,0.1,1.3,0.4,1.9c0.3,0.5,0.6,0.9,1.1,1.2
			c0.5,0.3,1,0.4,1.6,0.4c0.4,0,0.8-0.1,1.1-0.2s0.6-0.3,0.9-0.5c0.2-0.2,0.4-0.5,0.6-0.9l2,0.4c-0.2,0.6-0.4,1.1-0.9,1.6
			c-0.4,0.4-0.9,0.8-1.6,1C115.4,87.9,114.7,88.1,113.9,88.1z"/>
		<path class="st2" d="M134.3,77.1c-0.1-0.7-0.4-1.2-0.9-1.6s-1.2-0.6-2.1-0.6c-0.6,0-1.1,0.1-1.5,0.3s-0.8,0.4-1,0.8
			s-0.4,0.7-0.4,1.1c0,0.3,0.1,0.6,0.2,0.9c0.2,0.3,0.4,0.5,0.6,0.6c0.3,0.2,0.6,0.3,0.9,0.4c0.3,0.1,0.6,0.2,0.9,0.3l1.4,0.4
			c0.5,0.1,0.9,0.3,1.4,0.5c0.5,0.2,0.9,0.4,1.4,0.8c0.4,0.3,0.8,0.7,1,1.2s0.4,1,0.4,1.7c0,0.8-0.2,1.6-0.6,2.2s-1,1.1-1.8,1.5
			c-0.8,0.4-1.8,0.6-2.9,0.6c-1.1,0-2-0.2-2.8-0.5c-0.8-0.3-1.4-0.8-1.9-1.5c-0.5-0.6-0.7-1.4-0.7-2.3h2.2c0,0.5,0.2,1,0.5,1.3
			s0.7,0.6,1.2,0.8c0.5,0.2,1,0.3,1.6,0.3c0.6,0,1.2-0.1,1.7-0.3c0.5-0.2,0.9-0.5,1.1-0.8c0.3-0.4,0.4-0.8,0.4-1.2
			c0-0.4-0.1-0.8-0.4-1.1c-0.2-0.3-0.6-0.5-1-0.7c-0.4-0.2-0.9-0.3-1.4-0.5l-1.7-0.5c-1.2-0.3-2.1-0.8-2.8-1.4c-0.7-0.6-1-1.4-1-2.4
			c0-0.8,0.2-1.6,0.7-2.2s1.1-1.1,1.8-1.5c0.8-0.3,1.7-0.5,2.6-0.5c1,0,1.9,0.2,2.6,0.5c0.8,0.3,1.4,0.8,1.8,1.4
			c0.4,0.6,0.7,1.3,0.7,2.1H134.3z"/>
		<path class="st2" d="M146,83.3v-6.4h2.1v10.9H146v-1.9h-0.1c-0.3,0.6-0.7,1.1-1.2,1.5c-0.6,0.4-1.2,0.6-2.1,0.6
			c-0.7,0-1.3-0.2-1.9-0.5c-0.5-0.3-1-0.8-1.3-1.4c-0.3-0.6-0.5-1.4-0.5-2.3v-6.9h2.1v6.7c0,0.7,0.2,1.3,0.6,1.8
			c0.4,0.4,0.9,0.7,1.6,0.7c0.4,0,0.8-0.1,1.2-0.3c0.4-0.2,0.7-0.5,1-0.9C145.9,84.4,146,83.9,146,83.3z"/>
		<path class="st2" d="M151,87.8V76.9h2v1.8h0.1c0.2-0.6,0.6-1.1,1.1-1.4c0.5-0.3,1.1-0.5,1.9-0.5c0.7,0,1.3,0.2,1.8,0.5
			c0.5,0.3,0.9,0.8,1.1,1.4h0.1c0.3-0.6,0.7-1,1.2-1.4c0.6-0.3,1.2-0.5,2-0.5c1,0,1.8,0.3,2.4,0.9c0.6,0.6,0.9,1.6,0.9,2.8v7.3h-2.1
			v-7.1c0-0.7-0.2-1.3-0.6-1.6c-0.4-0.3-0.9-0.5-1.4-0.5c-0.7,0-1.2,0.2-1.6,0.6c-0.4,0.4-0.6,1-0.6,1.6v7h-2.1v-7.3
			c0-0.6-0.2-1.1-0.6-1.4c-0.4-0.4-0.8-0.5-1.4-0.5c-0.4,0-0.8,0.1-1.1,0.3c-0.3,0.2-0.6,0.5-0.8,0.9c-0.2,0.4-0.3,0.8-0.3,1.3v6.7
			H151z"/>
		<path class="st2" d="M168.6,87.8V76.9h2v1.8h0.1c0.2-0.6,0.6-1.1,1.1-1.4c0.5-0.3,1.1-0.5,1.9-0.5c0.7,0,1.3,0.2,1.8,0.5
			c0.5,0.3,0.9,0.8,1.1,1.4h0.1c0.3-0.6,0.7-1,1.2-1.4c0.6-0.3,1.2-0.5,2-0.5c1,0,1.8,0.3,2.4,0.9c0.6,0.6,0.9,1.6,0.9,2.8v7.3h-2.1
			v-7.1c0-0.7-0.2-1.3-0.6-1.6c-0.4-0.3-0.9-0.5-1.4-0.5c-0.7,0-1.2,0.2-1.6,0.6c-0.4,0.4-0.6,1-0.6,1.6v7H175v-7.3
			c0-0.6-0.2-1.1-0.6-1.4c-0.4-0.4-0.8-0.5-1.4-0.5c-0.4,0-0.8,0.1-1.1,0.3c-0.3,0.2-0.6,0.5-0.8,0.9c-0.2,0.4-0.3,0.8-0.3,1.3v6.7
			H168.6z"/>
		<path class="st2" d="M189.5,88.1c-0.7,0-1.3-0.1-1.9-0.4c-0.6-0.3-1-0.6-1.3-1.1c-0.3-0.5-0.5-1.1-0.5-1.8c0-0.6,0.1-1.1,0.4-1.5
			c0.2-0.4,0.6-0.7,1-0.9s0.9-0.4,1.3-0.5c0.5-0.1,1-0.2,1.5-0.3c0.7-0.1,1.2-0.1,1.6-0.2c0.4,0,0.7-0.1,0.9-0.2
			c0.2-0.1,0.3-0.3,0.3-0.6v0c0-0.6-0.2-1.1-0.5-1.4c-0.3-0.3-0.9-0.5-1.6-0.5c-0.7,0-1.3,0.2-1.7,0.5c-0.4,0.3-0.7,0.7-0.8,1
			l-2-0.5c0.2-0.7,0.6-1.2,1-1.6c0.5-0.4,1-0.7,1.6-0.9s1.2-0.3,1.9-0.3c0.4,0,0.9,0.1,1.4,0.2c0.5,0.1,0.9,0.3,1.4,0.6
			c0.4,0.3,0.8,0.7,1.1,1.2c0.3,0.5,0.4,1.1,0.4,1.9v7.2h-2.1v-1.5h-0.1c-0.1,0.3-0.3,0.5-0.6,0.8c-0.3,0.3-0.6,0.5-1.1,0.7
			C190.6,88,190.1,88.1,189.5,88.1z M190,86.4c0.6,0,1.1-0.1,1.5-0.3s0.7-0.5,1-0.9c0.2-0.4,0.3-0.8,0.3-1.2v-1.4
			c-0.1,0.1-0.2,0.1-0.4,0.2s-0.5,0.1-0.7,0.2c-0.3,0-0.5,0.1-0.8,0.1c-0.3,0-0.5,0.1-0.7,0.1c-0.4,0.1-0.8,0.1-1.1,0.3
			c-0.3,0.1-0.6,0.3-0.8,0.5c-0.2,0.2-0.3,0.5-0.3,0.9c0,0.5,0.2,0.9,0.6,1.2S189.4,86.4,190,86.4z"/>
		<path class="st2" d="M197.7,87.8V76.9h2.1v1.7h0.1c0.2-0.6,0.6-1,1.1-1.4c0.5-0.3,1.1-0.5,1.7-0.5c0.1,0,0.3,0,0.5,0
			c0.2,0,0.3,0,0.4,0v2c-0.1,0-0.2-0.1-0.5-0.1s-0.4,0-0.7,0c-0.5,0-0.9,0.1-1.3,0.3s-0.7,0.5-0.9,0.9c-0.2,0.4-0.3,0.8-0.3,1.3v6.7
			H197.7z"/>
		<path class="st2" d="M206.7,91.9c-0.3,0-0.6,0-0.9-0.1c-0.3,0-0.5-0.1-0.6-0.2l0.5-1.7c0.4,0.1,0.7,0.1,1,0.1
			c0.3,0,0.6-0.1,0.8-0.3c0.2-0.2,0.4-0.6,0.6-1l0.3-0.7l-4-11.1h2.3l2.8,8.5h0.1l2.8-8.5h2.3l-4.5,12.4c-0.2,0.6-0.5,1-0.8,1.4
			c-0.3,0.4-0.7,0.7-1.2,0.9C207.8,91.8,207.3,91.9,206.7,91.9z"/>
	</g>
	<g>
		<path class="st3" d="M28.7,119.7v-12.4h1.9V118h5.6v1.6H28.7z"/>
		<path class="st3" d="M40.9,119.9c-0.6,0-1.1-0.1-1.6-0.3c-0.5-0.2-0.9-0.5-1.1-1c-0.3-0.4-0.4-0.9-0.4-1.5c0-0.5,0.1-1,0.3-1.3
			c0.2-0.3,0.5-0.6,0.8-0.8c0.3-0.2,0.7-0.3,1.1-0.4c0.4-0.1,0.9-0.2,1.3-0.2c0.6-0.1,1-0.1,1.4-0.2c0.3,0,0.6-0.1,0.8-0.2
			s0.2-0.3,0.2-0.5v0c0-0.5-0.1-0.9-0.4-1.2c-0.3-0.3-0.7-0.4-1.3-0.4c-0.6,0-1.1,0.1-1.4,0.4c-0.3,0.3-0.6,0.6-0.7,0.9l-1.7-0.4
			c0.2-0.6,0.5-1,0.9-1.4c0.4-0.3,0.8-0.6,1.3-0.8c0.5-0.2,1-0.2,1.6-0.2c0.4,0,0.8,0,1.2,0.1s0.8,0.2,1.2,0.5
			c0.4,0.2,0.7,0.6,0.9,1c0.2,0.4,0.4,1,0.4,1.7v6.2h-1.8v-1.3h-0.1c-0.1,0.2-0.3,0.5-0.5,0.7c-0.2,0.2-0.5,0.4-0.9,0.6
			S41.4,119.9,40.9,119.9z M41.3,118.4c0.5,0,0.9-0.1,1.3-0.3c0.4-0.2,0.6-0.5,0.8-0.8c0.2-0.3,0.3-0.7,0.3-1v-1.2
			c-0.1,0.1-0.2,0.1-0.4,0.2c-0.2,0.1-0.4,0.1-0.6,0.1c-0.2,0-0.5,0.1-0.7,0.1c-0.2,0-0.4,0.1-0.6,0.1c-0.4,0-0.7,0.1-1,0.2
			c-0.3,0.1-0.5,0.3-0.7,0.4c-0.2,0.2-0.3,0.5-0.3,0.8c0,0.4,0.2,0.8,0.5,1C40.4,118.3,40.8,118.4,41.3,118.4z"/>
		<path class="st3" d="M54.8,112.6l-1.6,0.3c-0.1-0.2-0.2-0.4-0.3-0.6c-0.1-0.2-0.3-0.3-0.6-0.5c-0.2-0.1-0.6-0.2-0.9-0.2
			c-0.5,0-0.9,0.1-1.3,0.3c-0.3,0.2-0.5,0.5-0.5,0.9c0,0.3,0.1,0.6,0.3,0.7s0.6,0.3,1.1,0.5l1.5,0.3c0.9,0.2,1.5,0.5,1.9,0.9
			c0.4,0.4,0.6,0.9,0.6,1.6c0,0.6-0.2,1-0.5,1.5c-0.3,0.4-0.8,0.8-1.3,1c-0.6,0.2-1.2,0.4-2,0.4c-1,0-1.9-0.2-2.5-0.7
			s-1.1-1.1-1.2-1.9l1.7-0.3c0.1,0.5,0.3,0.8,0.7,1c0.3,0.2,0.8,0.3,1.3,0.3c0.6,0,1.1-0.1,1.4-0.4s0.5-0.6,0.5-0.9
			c0-0.3-0.1-0.5-0.3-0.7c-0.2-0.2-0.5-0.3-1-0.4l-1.6-0.3c-0.9-0.2-1.5-0.5-1.9-0.9s-0.6-1-0.6-1.6c0-0.5,0.2-1,0.5-1.4
			c0.3-0.4,0.7-0.7,1.3-1c0.5-0.2,1.2-0.3,1.9-0.3c1,0,1.8,0.2,2.4,0.6S54.6,111.9,54.8,112.6z"/>
		<path class="st3" d="M61.3,110.4v1.4h-5.1v-1.4H61.3z M57.6,108.2h1.8v8.8c0,0.4,0.1,0.6,0.2,0.8c0.1,0.2,0.2,0.3,0.4,0.4
			s0.3,0.1,0.5,0.1c0.1,0,0.3,0,0.4,0c0.1,0,0.2,0,0.3,0l0.3,1.5c-0.1,0-0.3,0.1-0.4,0.1c-0.2,0-0.4,0.1-0.7,0.1
			c-0.5,0-0.9-0.1-1.3-0.3c-0.4-0.2-0.7-0.5-1-0.8c-0.3-0.4-0.4-0.8-0.4-1.4V108.2z"/>
		<path class="st3" d="M75.9,107.3h1.9v8.1c0,0.9-0.2,1.6-0.6,2.3c-0.4,0.7-1,1.2-1.7,1.6c-0.7,0.4-1.6,0.6-2.6,0.6
			c-1,0-1.8-0.2-2.6-0.6c-0.7-0.4-1.3-0.9-1.7-1.6c-0.4-0.7-0.6-1.4-0.6-2.3v-8.1h1.9v8c0,0.6,0.1,1.1,0.4,1.5
			c0.2,0.4,0.6,0.8,1.1,1c0.5,0.2,1,0.4,1.6,0.4c0.6,0,1.2-0.1,1.6-0.4c0.5-0.2,0.8-0.6,1.1-1c0.2-0.4,0.4-0.9,0.4-1.5V107.3z"/>
		<path class="st3" d="M80.3,123.1v-12.8h1.8v1.5h0.2c0.1-0.2,0.3-0.4,0.5-0.7c0.2-0.3,0.5-0.5,0.8-0.7c0.4-0.2,0.8-0.3,1.4-0.3
			c0.7,0,1.4,0.2,2,0.6c0.6,0.4,1,0.9,1.4,1.6s0.5,1.6,0.5,2.6c0,1-0.2,1.9-0.5,2.6s-0.8,1.3-1.4,1.6s-1.2,0.6-2,0.6
			c-0.6,0-1-0.1-1.4-0.3c-0.4-0.2-0.6-0.4-0.8-0.7s-0.4-0.5-0.5-0.7h-0.1v4.9H80.3z M82.1,115c0,0.7,0.1,1.2,0.3,1.7
			c0.2,0.5,0.5,0.9,0.8,1.1c0.4,0.3,0.8,0.4,1.3,0.4c0.5,0,1-0.1,1.4-0.4c0.4-0.3,0.6-0.7,0.8-1.2c0.2-0.5,0.3-1.1,0.3-1.7
			c0-0.6-0.1-1.2-0.3-1.6c-0.2-0.5-0.5-0.9-0.8-1.2s-0.8-0.4-1.4-0.4c-0.5,0-1,0.1-1.3,0.4c-0.4,0.3-0.6,0.6-0.8,1.1
			S82.1,114.4,82.1,115z"/>
		<path class="st3" d="M94.3,119.8c-0.7,0-1.4-0.2-2-0.6c-0.6-0.4-1-0.9-1.4-1.6s-0.5-1.6-0.5-2.6c0-1,0.2-1.9,0.5-2.6
			s0.8-1.3,1.4-1.6c0.6-0.4,1.3-0.6,2-0.6c0.6,0,1,0.1,1.4,0.3c0.4,0.2,0.6,0.4,0.8,0.7c0.2,0.3,0.3,0.5,0.5,0.7h0.1v-4.6h1.8v12.4
			h-1.8v-1.4H97c-0.1,0.2-0.3,0.4-0.5,0.7c-0.2,0.3-0.5,0.5-0.8,0.7C95.3,119.7,94.9,119.8,94.3,119.8z M94.7,118.3
			c0.5,0,1-0.1,1.3-0.4c0.4-0.3,0.6-0.7,0.8-1.1s0.3-1.1,0.3-1.7c0-0.6-0.1-1.2-0.3-1.7s-0.5-0.9-0.8-1.1s-0.8-0.4-1.3-0.4
			c-0.5,0-1,0.1-1.4,0.4c-0.4,0.3-0.6,0.7-0.8,1.2c-0.2,0.5-0.3,1-0.3,1.6c0,0.6,0.1,1.2,0.3,1.7c0.2,0.5,0.5,0.9,0.8,1.2
			C93.7,118.2,94.2,118.3,94.7,118.3z"/>
		<path class="st3" d="M104.2,119.9c-0.6,0-1.1-0.1-1.6-0.3c-0.5-0.2-0.9-0.5-1.1-1c-0.3-0.4-0.4-0.9-0.4-1.5c0-0.5,0.1-1,0.3-1.3
			c0.2-0.3,0.5-0.6,0.8-0.8c0.3-0.2,0.7-0.3,1.1-0.4c0.4-0.1,0.9-0.2,1.3-0.2c0.6-0.1,1-0.1,1.4-0.2c0.3,0,0.6-0.1,0.8-0.2
			s0.2-0.3,0.2-0.5v0c0-0.5-0.1-0.9-0.4-1.2c-0.3-0.3-0.7-0.4-1.3-0.4c-0.6,0-1.1,0.1-1.4,0.4c-0.3,0.3-0.6,0.6-0.7,0.9l-1.7-0.4
			c0.2-0.6,0.5-1,0.9-1.4c0.4-0.3,0.8-0.6,1.3-0.8c0.5-0.2,1-0.2,1.6-0.2c0.4,0,0.8,0,1.2,0.1s0.8,0.2,1.2,0.5
			c0.4,0.2,0.7,0.6,0.9,1c0.2,0.4,0.4,1,0.4,1.7v6.2H107v-1.3h-0.1c-0.1,0.2-0.3,0.5-0.5,0.7c-0.2,0.2-0.5,0.4-0.9,0.6
			S104.7,119.9,104.2,119.9z M104.6,118.4c0.5,0,0.9-0.1,1.3-0.3c0.4-0.2,0.6-0.5,0.8-0.8c0.2-0.3,0.3-0.7,0.3-1v-1.2
			c-0.1,0.1-0.2,0.1-0.4,0.2c-0.2,0.1-0.4,0.1-0.6,0.1c-0.2,0-0.5,0.1-0.7,0.1c-0.2,0-0.4,0.1-0.6,0.1c-0.4,0-0.7,0.1-1,0.2
			c-0.3,0.1-0.5,0.3-0.7,0.4c-0.2,0.2-0.3,0.5-0.3,0.8c0,0.4,0.2,0.8,0.5,1C103.6,118.3,104.1,118.4,104.6,118.4z"/>
		<path class="st3" d="M115.5,110.4v1.4h-5.1v-1.4H115.5z M111.8,108.2h1.8v8.8c0,0.4,0.1,0.6,0.2,0.8c0.1,0.2,0.2,0.3,0.4,0.4
			s0.3,0.1,0.5,0.1c0.1,0,0.3,0,0.4,0c0.1,0,0.2,0,0.3,0l0.3,1.5c-0.1,0-0.3,0.1-0.4,0.1c-0.2,0-0.4,0.1-0.7,0.1
			c-0.5,0-0.9-0.1-1.3-0.3c-0.4-0.2-0.7-0.5-1-0.8c-0.3-0.4-0.4-0.8-0.4-1.4V108.2z"/>
		<path class="st3" d="M121.5,119.8c-0.9,0-1.7-0.2-2.4-0.6c-0.7-0.4-1.2-0.9-1.5-1.7c-0.4-0.7-0.5-1.6-0.5-2.5
			c0-0.9,0.2-1.8,0.5-2.5c0.4-0.7,0.9-1.3,1.5-1.7c0.6-0.4,1.4-0.6,2.3-0.6c0.5,0,1,0.1,1.5,0.3c0.5,0.2,0.9,0.4,1.3,0.8
			c0.4,0.4,0.7,0.9,0.9,1.4c0.2,0.6,0.3,1.3,0.3,2.1v0.6h-7.4v-1.4h5.6c0-0.5-0.1-0.9-0.3-1.3c-0.2-0.4-0.5-0.7-0.8-0.9
			c-0.3-0.2-0.8-0.3-1.2-0.3c-0.5,0-0.9,0.1-1.3,0.4s-0.7,0.6-0.9,1c-0.2,0.4-0.3,0.8-0.3,1.3v1.1c0,0.6,0.1,1.1,0.3,1.6
			s0.5,0.8,0.9,1c0.4,0.2,0.9,0.3,1.4,0.3c0.3,0,0.7,0,0.9-0.1s0.5-0.2,0.7-0.4c0.2-0.2,0.4-0.4,0.5-0.7l1.7,0.3
			c-0.1,0.5-0.4,0.9-0.7,1.3c-0.4,0.4-0.8,0.7-1.3,0.9C122.7,119.7,122.1,119.8,121.5,119.8z"/>
		<path class="st3" d="M130.9,119.8c-0.7,0-1.4-0.2-2-0.6c-0.6-0.4-1-0.9-1.4-1.6s-0.5-1.6-0.5-2.6c0-1,0.2-1.9,0.5-2.6
			s0.8-1.3,1.4-1.6c0.6-0.4,1.3-0.6,2-0.6c0.6,0,1,0.1,1.4,0.3c0.4,0.2,0.6,0.4,0.8,0.7c0.2,0.3,0.3,0.5,0.5,0.7h0.1v-4.6h1.8v12.4
			h-1.8v-1.4h-0.2c-0.1,0.2-0.3,0.4-0.5,0.7c-0.2,0.3-0.5,0.5-0.8,0.7C132,119.7,131.5,119.8,130.9,119.8z M131.3,118.3
			c0.5,0,1-0.1,1.3-0.4c0.4-0.3,0.6-0.7,0.8-1.1s0.3-1.1,0.3-1.7c0-0.6-0.1-1.2-0.3-1.7s-0.5-0.9-0.8-1.1s-0.8-0.4-1.3-0.4
			c-0.5,0-1,0.1-1.4,0.4c-0.4,0.3-0.6,0.7-0.8,1.2c-0.2,0.5-0.3,1-0.3,1.6c0,0.6,0.1,1.2,0.3,1.7c0.2,0.5,0.5,0.9,0.8,1.2
			C130.3,118.2,130.8,118.3,131.3,118.3z"/>
		<path class="st3" d="M146.8,119.8c-0.9,0-1.6-0.1-2.3-0.4s-1.2-0.7-1.6-1.2c-0.4-0.5-0.6-1.1-0.6-1.8c0-0.5,0.1-1,0.3-1.4
			c0.2-0.4,0.5-0.8,0.9-1.1c0.4-0.3,0.8-0.5,1.3-0.6v-0.1c-0.6-0.1-1.1-0.5-1.5-1c-0.4-0.5-0.6-1.1-0.5-1.8c0-0.6,0.2-1.2,0.5-1.7
			c0.3-0.5,0.8-0.9,1.4-1.2c0.6-0.3,1.3-0.4,2-0.4c0.8,0,1.4,0.1,2,0.4s1.1,0.7,1.4,1.2c0.3,0.5,0.5,1.1,0.5,1.7
			c0,0.7-0.2,1.3-0.6,1.8c-0.4,0.5-0.9,0.8-1.5,1v0.1c0.5,0.1,0.9,0.3,1.3,0.6s0.7,0.7,0.9,1.1c0.2,0.4,0.3,0.9,0.3,1.4
			c0,0.7-0.2,1.3-0.6,1.8c-0.4,0.5-0.9,0.9-1.6,1.2C148.4,119.7,147.6,119.8,146.8,119.8z M146.8,118.3c0.5,0,1-0.1,1.3-0.3
			c0.4-0.2,0.7-0.4,0.9-0.7c0.2-0.3,0.3-0.7,0.3-1.1c0-0.4-0.1-0.8-0.3-1.1c-0.2-0.3-0.5-0.6-0.9-0.8c-0.4-0.2-0.8-0.3-1.3-0.3
			c-0.5,0-0.9,0.1-1.3,0.3c-0.4,0.2-0.7,0.4-0.9,0.8c-0.2,0.3-0.3,0.7-0.3,1.1c0,0.4,0.1,0.8,0.3,1.1c0.2,0.3,0.5,0.5,0.9,0.7
			C145.8,118.2,146.2,118.3,146.8,118.3z M146.8,112.5c0.4,0,0.8-0.1,1.1-0.2s0.6-0.4,0.8-0.7c0.2-0.3,0.3-0.6,0.3-1
			c0-0.4-0.1-0.7-0.3-1c-0.2-0.3-0.4-0.5-0.7-0.7c-0.3-0.2-0.7-0.2-1.1-0.2c-0.4,0-0.8,0.1-1.1,0.2c-0.3,0.2-0.6,0.4-0.7,0.7
			s-0.3,0.6-0.3,1c0,0.4,0.1,0.7,0.3,1c0.2,0.3,0.4,0.5,0.8,0.7C146,112.5,146.3,112.5,146.8,112.5z"/>
		<path class="st3" d="M154.5,113c-0.3,0-0.6-0.1-0.9-0.4c-0.2-0.2-0.4-0.5-0.4-0.9s0.1-0.6,0.4-0.8c0.2-0.2,0.5-0.4,0.9-0.4
			c0.3,0,0.6,0.1,0.9,0.4c0.2,0.2,0.4,0.5,0.4,0.8c0,0.2-0.1,0.4-0.2,0.6c-0.1,0.2-0.3,0.3-0.4,0.4C154.9,113,154.7,113,154.5,113z
			 M154.5,119.8c-0.3,0-0.6-0.1-0.9-0.4c-0.2-0.2-0.4-0.5-0.4-0.9c0-0.3,0.1-0.6,0.4-0.8c0.2-0.2,0.5-0.4,0.9-0.4
			c0.3,0,0.6,0.1,0.9,0.4s0.4,0.5,0.4,0.8c0,0.2-0.1,0.4-0.2,0.6c-0.1,0.2-0.3,0.3-0.4,0.4C154.9,119.7,154.7,119.8,154.5,119.8z"/>
		<path class="st3" d="M162.4,119.9c-1,0-1.8-0.3-2.4-0.8c-0.7-0.5-1.2-1.2-1.6-2.2c-0.4-1-0.5-2.1-0.5-3.4c0-1.3,0.2-2.5,0.5-3.4
			c0.4-0.9,0.9-1.7,1.6-2.2s1.5-0.7,2.4-0.7s1.8,0.3,2.4,0.8c0.7,0.5,1.2,1.2,1.6,2.2s0.5,2.1,0.5,3.4c0,1.3-0.2,2.5-0.5,3.5
			c-0.4,1-0.9,1.7-1.6,2.2S163.4,119.9,162.4,119.9z M162.4,118.2c0.8,0,1.5-0.4,2-1.2c0.5-0.8,0.7-2,0.7-3.5c0-1-0.1-1.9-0.3-2.6
			c-0.2-0.7-0.5-1.2-0.9-1.6c-0.4-0.4-0.9-0.6-1.4-0.6c-0.8,0-1.5,0.4-2,1.2c-0.5,0.8-0.7,2-0.7,3.5c0,1,0.1,1.9,0.3,2.6
			c0.2,0.7,0.5,1.2,0.9,1.6S161.9,118.2,162.4,118.2z"/>
		<path class="st3" d="M173.4,119.9c-1,0-1.8-0.3-2.4-0.8c-0.7-0.5-1.2-1.2-1.6-2.2c-0.4-1-0.5-2.1-0.5-3.4c0-1.3,0.2-2.5,0.5-3.4
			c0.4-0.9,0.9-1.7,1.6-2.2s1.5-0.7,2.4-0.7s1.8,0.3,2.4,0.8c0.7,0.5,1.2,1.2,1.6,2.2s0.5,2.1,0.5,3.4c0,1.3-0.2,2.5-0.5,3.5
			c-0.4,1-0.9,1.7-1.6,2.2S174.4,119.9,173.4,119.9z M173.4,118.2c0.8,0,1.5-0.4,2-1.2c0.5-0.8,0.7-2,0.7-3.5c0-1-0.1-1.9-0.3-2.6
			c-0.2-0.7-0.5-1.2-0.9-1.6c-0.4-0.4-0.9-0.6-1.4-0.6c-0.8,0-1.5,0.4-2,1.2c-0.5,0.8-0.7,2-0.7,3.5c0,1,0.1,1.9,0.3,2.6
			c0.2,0.7,0.5,1.2,0.9,1.6S172.8,118.2,173.4,118.2z"/>
		<path class="st3" d="M188.9,119.9c-1,0-1.8-0.3-2.4-0.8c-0.7-0.5-1.2-1.2-1.6-2.2c-0.4-1-0.5-2.1-0.5-3.4c0-1.3,0.2-2.5,0.5-3.4
			c0.4-0.9,0.9-1.7,1.6-2.2s1.5-0.7,2.4-0.7s1.8,0.3,2.4,0.8c0.7,0.5,1.2,1.2,1.6,2.2s0.5,2.1,0.5,3.4c0,1.3-0.2,2.5-0.5,3.5
			c-0.4,1-0.9,1.7-1.6,2.2S189.8,119.9,188.9,119.9z M188.9,118.2c0.8,0,1.5-0.4,2-1.2c0.5-0.8,0.7-2,0.7-3.5c0-1-0.1-1.9-0.3-2.6
			c-0.2-0.7-0.5-1.2-0.9-1.6c-0.4-0.4-0.9-0.6-1.4-0.6c-0.8,0-1.5,0.4-2,1.2c-0.5,0.8-0.7,2-0.7,3.5c0,1,0.1,1.9,0.3,2.6
			c0.2,0.7,0.5,1.2,0.9,1.6S188.3,118.2,188.9,118.2z"/>
		<path class="st3" d="M200.3,107.3v12.4h-1.9v-10.5h-0.1l-3,1.9v-1.8l3.1-2H200.3z"/>
		<path class="st3" d="M209.1,113.6v1.6h-5.5v-1.6H209.1z"/>
		<path class="st3" d="M215.8,119.9c-1,0-1.8-0.3-2.4-0.8c-0.7-0.5-1.2-1.2-1.6-2.2c-0.4-1-0.5-2.1-0.5-3.4c0-1.3,0.2-2.5,0.5-3.4
			c0.4-0.9,0.9-1.7,1.6-2.2s1.5-0.7,2.4-0.7s1.8,0.3,2.4,0.8c0.7,0.5,1.2,1.2,1.6,2.2s0.5,2.1,0.5,3.4c0,1.3-0.2,2.5-0.5,3.5
			c-0.4,1-0.9,1.7-1.6,2.2S216.7,119.9,215.8,119.9z M215.8,118.2c0.8,0,1.5-0.4,2-1.2c0.5-0.8,0.7-2,0.7-3.5c0-1-0.1-1.9-0.3-2.6
			c-0.2-0.7-0.5-1.2-0.9-1.6c-0.4-0.4-0.9-0.6-1.4-0.6c-0.8,0-1.5,0.4-2,1.2c-0.5,0.8-0.7,2-0.7,3.5c0,1,0.1,1.9,0.3,2.6
			c0.2,0.7,0.5,1.2,0.9,1.6S215.2,118.2,215.8,118.2z"/>
		<path class="st3" d="M222.2,117.2v-1.5l5.3-8.4h1.2v2.2H228l-3.8,6v0.1h7.3v1.6H222.2z M228.1,119.7v-2.9l0-0.7v-8.8h1.8v12.4
			H228.1z"/>
		<path class="st3" d="M239.1,113.6v1.6h-5.5v-1.6H239.1z"/>
		<path class="st3" d="M241.4,119.7v-1.4l4.2-4.3c0.4-0.5,0.8-0.9,1.1-1.2c0.3-0.4,0.5-0.7,0.7-1c0.1-0.3,0.2-0.7,0.2-1
			c0-0.4-0.1-0.8-0.3-1.1c-0.2-0.3-0.5-0.5-0.8-0.7c-0.3-0.2-0.7-0.2-1.1-0.2c-0.4,0-0.8,0.1-1.2,0.3s-0.6,0.4-0.8,0.8
			c-0.2,0.3-0.3,0.7-0.3,1.2h-1.8c0-0.8,0.2-1.4,0.5-2s0.8-1,1.4-1.3c0.6-0.3,1.3-0.5,2.1-0.5c0.8,0,1.5,0.2,2.1,0.5
			c0.6,0.3,1.1,0.7,1.4,1.3c0.3,0.5,0.5,1.1,0.5,1.8c0,0.5-0.1,0.9-0.3,1.3c-0.2,0.4-0.5,0.9-0.9,1.5c-0.4,0.5-1,1.2-1.8,2L244,118
			v0.1h5.6v1.6H241.4z"/>
		<path class="st3" d="M256.2,119.9c-1,0-1.8-0.3-2.4-0.8c-0.7-0.5-1.2-1.2-1.6-2.2c-0.4-1-0.5-2.1-0.5-3.4c0-1.3,0.2-2.5,0.5-3.4
			c0.4-0.9,0.9-1.7,1.6-2.2s1.5-0.7,2.4-0.7s1.8,0.3,2.4,0.8c0.7,0.5,1.2,1.2,1.6,2.2s0.5,2.1,0.5,3.4c0,1.3-0.2,2.5-0.5,3.5
			c-0.4,1-0.9,1.7-1.6,2.2S257.1,119.9,256.2,119.9z M256.2,118.2c0.8,0,1.5-0.4,2-1.2c0.5-0.8,0.7-2,0.7-3.5c0-1-0.1-1.9-0.3-2.6
			c-0.2-0.7-0.5-1.2-0.9-1.6c-0.4-0.4-0.9-0.6-1.4-0.6c-0.8,0-1.5,0.4-2,1.2c-0.5,0.8-0.7,2-0.7,3.5c0,1,0.1,1.9,0.3,2.6
			c0.2,0.7,0.5,1.2,0.9,1.6S255.6,118.2,256.2,118.2z"/>
		<path class="st3" d="M262.9,119.7v-1.4l4.2-4.3c0.4-0.5,0.8-0.9,1.1-1.2c0.3-0.4,0.5-0.7,0.7-1c0.1-0.3,0.2-0.7,0.2-1
			c0-0.4-0.1-0.8-0.3-1.1c-0.2-0.3-0.5-0.5-0.8-0.7c-0.3-0.2-0.7-0.2-1.1-0.2c-0.4,0-0.8,0.1-1.2,0.3s-0.6,0.4-0.8,0.8
			c-0.2,0.3-0.3,0.7-0.3,1.2h-1.8c0-0.8,0.2-1.4,0.5-2s0.8-1,1.4-1.3c0.6-0.3,1.3-0.5,2.1-0.5c0.8,0,1.5,0.2,2.1,0.5
			c0.6,0.3,1.1,0.7,1.4,1.3c0.3,0.5,0.5,1.1,0.5,1.8c0,0.5-0.1,0.9-0.3,1.3c-0.2,0.4-0.5,0.9-0.9,1.5c-0.4,0.5-1,1.2-1.8,2l-2.5,2.6
			v0.1h5.6v1.6H262.9z"/>
		<path class="st3" d="M273,117.2v-1.5l5.3-8.4h1.2v2.2h-0.8l-3.8,6v0.1h7.3v1.6H273z M278.9,119.7v-2.9l0-0.7v-8.8h1.8v12.4H278.9z
			"/>
		<path class="st3" d="M284.6,119.7v-12.4h4.4c1,0,1.8,0.2,2.4,0.5s1.1,0.8,1.4,1.4c0.3,0.6,0.5,1.3,0.5,2c0,0.8-0.2,1.4-0.5,2
			c-0.3,0.6-0.8,1.1-1.4,1.4c-0.6,0.4-1.4,0.5-2.4,0.5h-3v-1.6h2.9c0.6,0,1.1-0.1,1.5-0.3c0.4-0.2,0.7-0.5,0.8-0.9s0.3-0.8,0.3-1.2
			c0-0.5-0.1-0.9-0.3-1.2c-0.2-0.4-0.5-0.6-0.8-0.9c-0.4-0.2-0.9-0.3-1.5-0.3h-2.3v10.8H284.6z"/>
		<path class="st3" d="M295.4,107.3h2.3l3.9,9.6h0.1l3.9-9.6h2.3v12.4h-1.8v-8.9h-0.1l-3.6,8.9H301l-3.6-8.9h-0.1v9h-1.8V107.3z"/>
	</g>
</g>
</svg>
