<?xml version="1.0" encoding="utf-8"?>
<!-- Generator: Adobe Illustrator 28.1.0, SVG Export Plug-In . SVG Version: 6.00 Build 0)  -->
<svg version="1.1" id="Layer_1" xmlns="http://www.w3.org/2000/svg" xmlns:xlink="http://www.w3.org/1999/xlink" x="0px" y="0px"
	 viewBox="0 0 179 124" style="enable-background:new 0 0 179 124;" xml:space="preserve">
<style type="text/css">
	.st0{fill:#E9F8F7;enable-background:new    ;}
	.st1{fill:none;stroke:#888888;}
	.st2{fill:none;stroke:#E7E7E7;}
	.st3{fill:#FFE12D;}
	.st4{fill:#4F4F4F;}
</style>
<g>
	<g>
		<g>
			<g>
				<path class="st0" d="M17,6h145c6.8,0,12.3,6.3,12.3,14V104c0,7.8-5.5,14-12.3,14H17c-6.8,0-12.3-6.3-12.3-14V20.2
					C4.6,12.3,10.1,6,17,6z"/>
				<line class="st1" x1="17.2" y1="40.4" x2="161.7" y2="40.4"/>
				<line class="st2" x1="17.2" y1="80" x2="161.7" y2="80"/>
			</g>
		</g>
		<g>
			<path class="st3" d="M27.9,96.9c-0.9-2.9-3.6-5.1-6.8-5.1s-5.9,2.1-6.8,5c-0.2,0.7-0.3,1.4-0.3,2.1c0,0.7,0.1,1.4,0.3,2
				c0.9,2.9,3.6,5.1,6.8,5.1s5.9-2.1,6.8-5c0.2-0.7,0.3-1.4,0.3-2.1S28.1,97.6,27.9,96.9z M21.1,102.6c-1.2,0-2.2-0.6-2.9-1.5
				c-0.5-0.6-0.7-1.4-0.7-2.2c0-0.7,0.2-1.4,0.6-1.9c0.6-1,1.8-1.7,3.1-1.7s2.5,0.7,3.1,1.8c0.3,0.5,0.5,1.2,0.5,1.9
				c0,0.9-0.3,1.6-0.8,2.2C23.3,102,22.3,102.6,21.1,102.6z"/>
			<path class="st3" d="M19.6,99.1c0-0.8,0.7-1.5,1.5-1.5s1.5,0.7,1.5,1.5s-0.7,1.5-1.5,1.5S19.6,99.9,19.6,99.1z"/>
		</g>
		<g>
			<g>
				<path class="st3" d="M118.1,96.9c-0.9-2.9-3.6-5.1-6.8-5.1s-5.9,2.1-6.8,5c-0.2,0.7-0.3,1.4-0.3,2.1c0,0.7,0.1,1.4,0.3,2
					c0.9,2.9,3.6,5.1,6.8,5.1s5.9-2.1,6.8-5c0.2-0.7,0.3-1.4,0.3-2.1C118.4,98.2,118.3,97.5,118.1,96.9z M111.3,102.5
					c-1.2,0-2.2-0.6-2.9-1.5c-0.5-0.6-0.7-1.4-0.7-2.2c0-0.7,0.2-1.4,0.6-1.9c0.6-1,1.8-1.7,3.1-1.7s2.5,0.7,3.1,1.8
					c0.3,0.5,0.5,1.2,0.5,1.9c0,0.9-0.3,1.6-0.8,2.2C113.5,102,112.5,102.5,111.3,102.5z"/>
				<path class="st3" d="M109.8,99.1c0-0.8,0.7-1.5,1.5-1.5s1.5,0.7,1.5,1.5s-0.7,1.5-1.5,1.5S109.8,99.9,109.8,99.1z"/>
			</g>
		</g>
		<g>
			<path class="st4" d="M35.1,68.2h-2.7l4.1-11.8h3.2l4.1,11.8h-2.7l-3-9.1h0L35.1,68.2z M34.9,63.5h6.3v2h-6.3V63.5z"/>
			<path class="st4" d="M56,62.2c0,1.3-0.2,2.4-0.7,3.2c-0.5,0.9-1.2,1.6-2,2.1c-0.8,0.5-1.7,0.7-2.8,0.7c-1,0-2-0.2-2.8-0.7
				c-0.8-0.5-1.5-1.2-2-2.1c-0.5-0.9-0.7-2-0.7-3.2c0-1.3,0.2-2.4,0.7-3.2c0.5-0.9,1.2-1.6,2-2.1c0.8-0.5,1.7-0.7,2.8-0.7
				c1,0,2,0.2,2.8,0.7c0.8,0.5,1.5,1.2,2,2.1C55.8,59.9,56,61,56,62.2z M53.5,62.2c0-0.8-0.1-1.5-0.3-2.1c-0.2-0.6-0.6-1-1-1.3
				s-0.9-0.5-1.6-0.5s-1.2,0.1-1.6,0.5c-0.5,0.3-0.8,0.7-1,1.3c-0.2,0.6-0.3,1.3-0.3,2.1c0,0.8,0.1,1.5,0.3,2.1c0.2,0.6,0.6,1,1,1.3
				c0.5,0.3,0.9,0.5,1.6,0.5s1.2-0.1,1.6-0.5c0.5-0.3,0.8-0.7,1-1.3C53.4,63.8,53.5,63.1,53.5,62.2z M49.7,64.1h2.1l1,1.4l1,1.3
				l2,2.4h-2.3l-1.4-1.6l-0.7-1L49.7,64.1z"/>
			<path class="st4" d="M60.4,56.3v11.8h-2.5V56.3H60.4z"/>
		</g>
		<g>
			<path class="st4" d="M31,57.8c0,0.2-0.1,0.4-0.1,0.6c-0.4,1.5-1.8,2.6-3.4,2.6c-3.1,0-6.3,0-9.4,0c-0.3,0-0.5-0.2-0.5-0.5
				s0.2-0.5,0.6-0.5c2.1,0,4.2,0,6.3,0c1,0,2,0,3.1,0c1.4,0,2.6-1.2,2.5-2.6c0-1-0.5-1.8-1.4-2.2c-0.9-0.5-1.8-0.4-2.6,0.2L26,55.5
				c-0.2,0.2-0.5,0.1-0.7-0.1c-0.2-0.2-0.1-0.5,0.1-0.7c0.7-0.5,1.5-0.8,2.3-0.8c1.6,0.1,3,1.2,3.3,2.8c0,0.1,0.1,0.3,0.1,0.4
				C31,57.4,31,57.6,31,57.8z"/>
			<path class="st4" d="M18.4,62.1c1.3,0,2.5,0,3.8,0c1.5,0,2.7,1,3,2.4c0.4,1.8-0.9,3.6-2.7,3.7c-0.8,0.1-1.5-0.1-2.2-0.6
				c-0.3-0.2-0.3-0.7,0.1-0.9c0.2-0.1,0.4,0,0.6,0.1c0.5,0.4,1.1,0.5,1.7,0.4c1-0.2,1.6-1.1,1.6-2.1c-0.1-1-0.8-1.8-1.8-1.9
				c-0.1,0-0.3,0-0.4,0c-2.5,0-5,0-7.5,0c-0.1,0-0.2,0-0.2,0c-0.2,0-0.4-0.3-0.4-0.5s0.1-0.4,0.3-0.5c0.1,0,0.2,0,0.3,0
				C15.9,62.1,17.2,62.1,18.4,62.1z"/>
			<path class="st4" d="M19.7,59.1c-0.9,0-1.8,0-2.6,0c-0.3,0-0.5-0.2-0.5-0.5s0.2-0.5,0.5-0.5c0.1,0,0.1,0,0.2,0c1.6,0,3.2,0,4.8,0
				c0.1,0,0.2,0,0.3,0c0.3,0,0.5,0.2,0.5,0.5s-0.2,0.5-0.5,0.5C21.5,59.1,20.6,59.1,19.7,59.1z"/>
			<path class="st4" d="M18.5,64.1c0.5,0,1,0,1.4,0c0.3,0,0.5,0.2,0.6,0.5c0,0.3-0.2,0.5-0.6,0.5c-1,0-1.9,0-2.9,0
				c-0.3,0-0.6-0.2-0.6-0.5s0.2-0.5,0.6-0.5C17.5,64.1,18,64.1,18.5,64.1z"/>
			<path class="st4" d="M14.8,59.1c-0.1,0-0.2,0-0.3,0c-0.3,0-0.5-0.2-0.5-0.5c0-0.2,0.1-0.5,0.4-0.5c0.3,0,0.6,0,0.9,0
				c0.3,0,0.4,0.3,0.4,0.5S15.5,59,15.2,59C15,59.1,14.9,59.1,14.8,59.1z"/>
		</g>
		<g>
			<g>
				<path d="M39.7,30.8h-3.1L41.4,17h3.8l4.8,13.8h-3.1l-3.5-10.7h-0.1L39.7,30.8z M39.5,25.4h7.4v2.3h-7.4V25.4z"/>
				<path d="M54.4,17v13.8h-2.9V17H54.4z"/>
				<path d="M61.1,30.8V17H64v6.1h0.2l5-6.1h3.5l-5.1,6.2l5.2,7.6h-3.5l-3.8-5.7L64,26.9v3.9H61.1z"/>
				<path d="M77,24.9v6h-2.9V17H77v5.3h0.1c0.2-0.6,0.6-1.1,1.1-1.4s1.2-0.5,2-0.5c0.7,0,1.3,0.2,1.9,0.5c0.5,0.3,1,0.8,1.3,1.3
					c0.3,0.6,0.4,1.3,0.4,2.1v6.6h-2.9v-6.1c0-0.6-0.2-1.1-0.5-1.5c-0.3-0.4-0.8-0.5-1.4-0.5c-0.4,0-0.7,0.1-1,0.2
					c-0.3,0.2-0.5,0.4-0.7,0.7C77.1,24,77,24.4,77,24.9z"/>
				<path d="M92.7,26.4v-6h2.9v10.4h-2.8V29h-0.1c-0.2,0.6-0.6,1.1-1.2,1.5c-0.5,0.4-1.2,0.6-2,0.6c-0.7,0-1.3-0.2-1.8-0.5
					s-0.9-0.8-1.2-1.3c-0.3-0.6-0.4-1.3-0.4-2.1v-6.6h2.9v6.1c0,0.6,0.2,1.1,0.5,1.5c0.3,0.4,0.8,0.5,1.3,0.5c0.3,0,0.7-0.1,1-0.2
					s0.5-0.4,0.7-0.7C92.6,27.3,92.7,26.9,92.7,26.4z"/>
				<path d="M99.9,30.8l-2.8-10.4h2.9l1.6,7h0.1l1.7-7h2.9l1.7,6.9h0.1l1.6-6.9h2.9l-2.8,10.4h-3l-1.8-6.5h-0.1l-1.8,6.5H99.9z"/>
				<path d="M116.9,31c-0.7,0-1.3-0.1-1.8-0.3s-0.9-0.6-1.2-1s-0.4-1-0.4-1.7c0-0.6,0.1-1.1,0.3-1.5c0.2-0.4,0.5-0.7,0.9-0.9
					c0.4-0.2,0.8-0.4,1.2-0.5c0.5-0.1,1-0.2,1.5-0.3c0.6-0.1,1.1-0.1,1.5-0.2s0.6-0.1,0.8-0.3c0.2-0.1,0.2-0.3,0.2-0.5v0
					c0-0.4-0.1-0.8-0.4-1s-0.6-0.4-1.1-0.4c-0.5,0-0.9,0.1-1.2,0.3c-0.3,0.2-0.5,0.5-0.6,0.9l-2.7-0.2c0.1-0.6,0.4-1.2,0.8-1.6
					c0.4-0.5,0.9-0.8,1.5-1.1c0.6-0.2,1.4-0.4,2.2-0.4c0.6,0,1.1,0.1,1.7,0.2c0.5,0.1,1,0.3,1.4,0.6c0.4,0.3,0.7,0.6,1,1.1
					c0.2,0.4,0.4,1,0.4,1.6v7h-2.7v-1.4H120c-0.2,0.3-0.4,0.6-0.7,0.9s-0.6,0.4-1,0.6C117.9,31,117.5,31,116.9,31z M117.8,29.1
					c0.4,0,0.8-0.1,1.1-0.3s0.6-0.4,0.8-0.7c0.2-0.3,0.3-0.6,0.3-1V26c-0.1,0.1-0.2,0.1-0.4,0.2s-0.3,0.1-0.5,0.1s-0.4,0.1-0.6,0.1
					s-0.4,0.1-0.5,0.1c-0.3,0-0.6,0.1-0.9,0.2c-0.3,0.1-0.4,0.3-0.6,0.4c-0.1,0.2-0.2,0.4-0.2,0.7c0,0.4,0.1,0.7,0.4,0.9
					C117,29,117.3,29.1,117.8,29.1z"/>
				<path d="M126.8,34.7c-0.4,0-0.7,0-1-0.1c-0.3-0.1-0.6-0.1-0.8-0.2l0.6-2.1c0.3,0.1,0.6,0.2,0.9,0.2c0.3,0,0.5-0.1,0.7-0.2
					c0.2-0.1,0.4-0.4,0.5-0.7l0.2-0.4l-3.7-10.7h3l2.1,7.6h0.1l2.2-7.6h3l-4,11.5c-0.2,0.6-0.5,1-0.8,1.5c-0.3,0.4-0.7,0.7-1.3,1
					C128.1,34.6,127.5,34.7,126.8,34.7z"/>
				<path d="M136.2,30.8V20.5h2.8v1.8h0.1c0.2-0.6,0.5-1.1,1-1.5s1-0.5,1.5-0.5c0.1,0,0.3,0,0.5,0c0.2,0,0.3,0,0.4,0.1V23
					c-0.1,0-0.3-0.1-0.6-0.1c-0.2,0-0.5,0-0.7,0c-0.4,0-0.8,0.1-1.1,0.3s-0.6,0.4-0.8,0.8c-0.2,0.3-0.3,0.7-0.3,1.1v5.9H136.2z"/>
			</g>
		</g>
	</g>
	<g>
		<g>
			<g>
				<path class="st4" d="M43.3,96.9h-1.6c-0.1-0.3-0.2-0.6-0.3-0.9c-0.2-0.3-0.4-0.5-0.6-0.7S40.3,95,40,95s-0.6-0.1-1-0.1
					c-0.6,0-1.2,0.2-1.6,0.5s-0.9,0.8-1.1,1.3c-0.3,0.6-0.4,1.3-0.4,2.2c0,0.9,0.1,1.6,0.4,2.2s0.7,1,1.1,1.3c0.5,0.3,1,0.5,1.6,0.5
					c0.3,0,0.6,0,1-0.1s0.6-0.2,0.8-0.4c0.2-0.2,0.5-0.4,0.6-0.7s0.3-0.6,0.4-0.9l1.6,0c-0.1,0.5-0.3,1-0.5,1.4
					c-0.2,0.4-0.6,0.8-0.9,1.1s-0.8,0.6-1.3,0.7c-0.5,0.2-1,0.3-1.6,0.3c-0.9,0-1.7-0.2-2.4-0.7c-0.7-0.4-1.3-1.1-1.7-1.9
					c-0.4-0.8-0.6-1.8-0.6-2.9c0-1.1,0.2-2.1,0.6-2.9c0.4-0.8,1-1.4,1.7-1.9c0.7-0.4,1.5-0.7,2.4-0.7c0.6,0,1.1,0.1,1.6,0.2
					s0.9,0.4,1.3,0.7c0.4,0.3,0.7,0.7,1,1.1C43.1,95.9,43.3,96.4,43.3,96.9z"/>
				<path class="st4" d="M54.4,98.8c0,1.1-0.2,2.1-0.6,2.9c-0.4,0.8-1,1.4-1.7,1.9c-0.7,0.4-1.5,0.7-2.4,0.7c-0.9,0-1.7-0.2-2.4-0.7
					c-0.7-0.4-1.3-1.1-1.7-1.9c-0.4-0.8-0.6-1.8-0.6-2.9c0-1.1,0.2-2.1,0.6-2.9c0.4-0.8,1-1.4,1.7-1.9c0.7-0.4,1.5-0.7,2.4-0.7
					c0.9,0,1.7,0.2,2.4,0.7c0.7,0.4,1.3,1.1,1.7,1.9C54.2,96.7,54.4,97.7,54.4,98.8z M52.8,98.8c0-0.9-0.1-1.6-0.4-2.2
					c-0.3-0.6-0.7-1-1.1-1.3c-0.5-0.3-1-0.5-1.6-0.5c-0.6,0-1.1,0.2-1.6,0.5s-0.9,0.8-1.1,1.3c-0.3,0.6-0.4,1.3-0.4,2.2
					c0,0.9,0.1,1.6,0.4,2.2c0.3,0.6,0.7,1,1.1,1.3s1,0.5,1.6,0.5c0.6,0,1.1-0.2,1.6-0.5c0.5-0.3,0.9-0.8,1.1-1.3
					C52.7,100.4,52.8,99.6,52.8,98.8z"/>
			</g>
		</g>
	</g>
	<g>
		<path class="st4" d="M133.3,93.5v10.5h-1.5l-5.4-7.7h-0.1v7.7h-1.6V93.5h1.5l5.4,7.7h0.1v-7.7H133.3z"/>
		<path class="st4" d="M144.8,98.8c0,1.1-0.2,2.1-0.6,2.9s-1,1.4-1.7,1.9c-0.7,0.4-1.5,0.7-2.4,0.7c-0.9,0-1.7-0.2-2.4-0.7
			c-0.7-0.4-1.3-1.1-1.7-1.9c-0.4-0.8-0.6-1.8-0.6-2.9c0-1.1,0.2-2.1,0.6-2.9c0.4-0.8,1-1.4,1.7-1.9s1.5-0.7,2.4-0.7
			c0.9,0,1.7,0.2,2.4,0.7s1.3,1.1,1.7,1.9C144.6,96.7,144.8,97.7,144.8,98.8z M143.2,98.8c0-0.9-0.1-1.6-0.4-2.2s-0.7-1-1.1-1.3
			c-0.5-0.3-1-0.5-1.6-0.5c-0.6,0-1.2,0.2-1.6,0.5c-0.5,0.3-0.9,0.8-1.1,1.3c-0.3,0.6-0.4,1.3-0.4,2.2s0.1,1.6,0.4,2.2
			c0.3,0.6,0.7,1,1.1,1.3c0.5,0.3,1,0.5,1.6,0.5c0.6,0,1.1-0.2,1.6-0.5c0.5-0.3,0.9-0.8,1.1-1.3S143.2,99.6,143.2,98.8z"/>
		<path class="st4" d="M146.4,105.8v-1l3-3.1c0.3-0.3,0.6-0.6,0.8-0.9c0.2-0.3,0.4-0.5,0.5-0.7c0.1-0.2,0.2-0.5,0.2-0.7
			c0-0.3-0.1-0.5-0.2-0.8c-0.1-0.2-0.3-0.4-0.6-0.5c-0.2-0.1-0.5-0.2-0.8-0.2c-0.3,0-0.6,0.1-0.8,0.2s-0.4,0.3-0.5,0.5
			c-0.1,0.2-0.2,0.5-0.2,0.8h-1.3c0-0.5,0.1-1,0.4-1.4c0.2-0.4,0.6-0.7,1-0.9c0.4-0.2,0.9-0.3,1.5-0.3c0.6,0,1,0.1,1.5,0.3
			c0.4,0.2,0.8,0.5,1,0.9s0.4,0.8,0.4,1.3c0,0.3-0.1,0.6-0.2,1s-0.3,0.7-0.6,1s-0.7,0.8-1.3,1.4l-1.8,1.8v0.1h4v1.1H146.4z"/>
	</g>
	<g>
		<g>
			<g>
				<path class="st3" d="M134,54.5c0.9,0,1.8,0.2,2.6,0.5c0.8,0.3,1.6,0.8,2.2,1.4s1.2,1.5,1.6,2.6c0.4,1.1,0.6,2.4,0.6,4
					c0,1.5-0.2,2.8-0.5,4c-0.3,1.2-0.8,2.1-1.4,3s-1.4,1.4-2.2,1.9c-0.9,0.4-1.9,0.6-2.9,0.6c-1.2,0-2.2-0.2-3.1-0.7
					c-0.9-0.5-1.6-1.1-2.2-1.8c-0.5-0.8-0.9-1.7-1-2.6h3.6c0.1,0.6,0.4,1.1,0.9,1.5c0.5,0.3,1,0.5,1.7,0.5c1.1,0,2-0.5,2.6-1.5
					c0.6-1,0.9-2.4,0.9-4.1h-0.1c-0.3,0.5-0.6,1-1.1,1.3s-1,0.6-1.5,0.8c-0.6,0.2-1.2,0.3-1.8,0.3c-1,0-1.9-0.2-2.8-0.7
					c-0.8-0.5-1.4-1.1-1.9-2s-0.7-1.8-0.7-2.9c0-1.2,0.3-2.2,0.8-3.1c0.5-0.9,1.3-1.6,2.3-2.2C131.5,54.8,132.7,54.5,134,54.5z
					 M134,57.4c-0.6,0-1.1,0.1-1.5,0.4c-0.4,0.3-0.8,0.6-1.1,1.1s-0.4,1-0.4,1.5c0,0.6,0.1,1.1,0.4,1.5s0.6,0.8,1,1.1
					s0.9,0.4,1.5,0.4c0.4,0,0.8-0.1,1.2-0.2s0.7-0.4,1-0.7s0.5-0.6,0.6-1c0.2-0.4,0.2-0.8,0.2-1.2c0-0.6-0.1-1.1-0.4-1.5
					c-0.3-0.5-0.6-0.8-1.1-1.1C135.1,57.6,134.6,57.4,134,57.4z"/>
				<path class="st3" d="M150,72.4c-1.3,0-2.5-0.2-3.5-0.6c-1-0.4-1.8-1-2.4-1.8c-0.6-0.7-0.9-1.6-0.9-2.5c0-0.7,0.2-1.4,0.5-2
					c0.3-0.6,0.8-1.1,1.4-1.5c0.6-0.4,1.2-0.7,1.9-0.8v-0.1c-0.9-0.2-1.7-0.6-2.3-1.4c-0.6-0.7-0.9-1.6-0.9-2.5
					c0-0.9,0.3-1.7,0.8-2.4c0.5-0.7,1.3-1.3,2.2-1.7c0.9-0.4,2-0.6,3.1-0.6c1.2,0,2.2,0.2,3.1,0.6c0.9,0.4,1.6,1,2.2,1.7
					c0.5,0.7,0.8,1.5,0.8,2.4c0,1-0.3,1.8-0.9,2.5c-0.6,0.7-1.3,1.2-2.2,1.4v0.1c0.7,0.1,1.3,0.4,1.9,0.8s1,0.9,1.4,1.5
					c0.3,0.6,0.5,1.3,0.5,2c0,0.9-0.3,1.8-0.9,2.5c-0.6,0.7-1.4,1.3-2.4,1.8C152.5,72.2,151.3,72.4,150,72.4z M150,69.7
					c0.6,0,1.1-0.1,1.5-0.3s0.8-0.5,1-0.9s0.4-0.8,0.4-1.3c0-0.5-0.1-1-0.4-1.3c-0.3-0.4-0.6-0.7-1-0.9c-0.4-0.2-0.9-0.3-1.5-0.3
					c-0.6,0-1.1,0.1-1.5,0.3c-0.4,0.2-0.8,0.5-1,0.9c-0.3,0.4-0.4,0.8-0.4,1.3c0,0.5,0.1,0.9,0.4,1.3c0.2,0.4,0.6,0.7,1,0.9
					C148.9,69.6,149.4,69.7,150,69.7z M150,61.9c0.5,0,0.9-0.1,1.3-0.3c0.4-0.2,0.7-0.5,0.9-0.8c0.2-0.4,0.3-0.8,0.3-1.2
					c0-0.5-0.1-0.9-0.3-1.2c-0.2-0.3-0.5-0.6-0.9-0.8c-0.4-0.2-0.8-0.3-1.3-0.3c-0.5,0-0.9,0.1-1.3,0.3c-0.4,0.2-0.7,0.5-0.9,0.8
					c-0.2,0.3-0.3,0.7-0.3,1.2c0,0.5,0.1,0.9,0.3,1.2c0.2,0.4,0.5,0.6,0.9,0.8C149.1,61.8,149.5,61.9,150,61.9z"/>
			</g>
		</g>
	</g>
</g>
</svg>
