<?xml version="1.0" encoding="utf-8"?>
<!-- Generator: Adobe Illustrator 28.1.0, SVG Export Plug-In . SVG Version: 6.00 Build 0)  -->
<svg version="1.1" id="Layer_1" xmlns="http://www.w3.org/2000/svg" xmlns:xlink="http://www.w3.org/1999/xlink" x="0px" y="0px"
	 viewBox="0 0 203 163" style="enable-background:new 0 0 203 163;" xml:space="preserve">
<style type="text/css">
	.st0{fill:#4F4F4F;}
	.st1{fill:#FA0A00;}
	.st2{fill:#FFE12D;}
	.st3{fill:#FF7E00;}
	.st4{fill:#8F3F97;}
	.st5{fill:#00C800;}
	.st6{fill:#7E0023;}
	.st7{fill:#E7E7E7;}
	.st8{fill:#888888;}
</style>
<g>
	<g>
		<g>
			<g>
				<g>
					<path class="st0" d="M89.3,119.3c0.9,0,1.8,0.2,2.6,0.5c0.8,0.3,1.6,0.8,2.2,1.4c0.7,0.7,1.2,1.5,1.6,2.6
						c0.4,1.1,0.6,2.4,0.6,4c0,1.5-0.2,2.8-0.5,4c-0.3,1.2-0.8,2.1-1.4,3c-0.6,0.8-1.4,1.4-2.2,1.9c-0.9,0.4-1.9,0.6-2.9,0.6
						c-1.2,0-2.2-0.2-3.1-0.7s-1.6-1.1-2.2-1.8c-0.5-0.8-0.9-1.7-1-2.6h3.6c0.1,0.6,0.4,1.1,0.9,1.5c0.5,0.3,1,0.5,1.7,0.5
						c1.1,0,2-0.5,2.6-1.5c0.6-1,0.9-2.4,0.9-4.1h-0.1c-0.3,0.5-0.6,1-1.1,1.3c-0.4,0.4-1,0.6-1.5,0.8s-1.2,0.3-1.8,0.3
						c-1,0-1.9-0.2-2.8-0.7c-0.8-0.5-1.4-1.1-1.9-2s-0.7-1.8-0.7-2.9c0-1.2,0.3-2.2,0.8-3.1c0.5-0.9,1.3-1.6,2.3-2.2
						C86.8,119.6,88,119.3,89.3,119.3z M89.3,122.2c-0.6,0-1.1,0.1-1.5,0.4c-0.4,0.3-0.8,0.6-1.1,1.1c-0.3,0.5-0.4,1-0.4,1.5
						c0,0.6,0.1,1.1,0.4,1.5c0.3,0.5,0.6,0.8,1,1.1c0.4,0.3,0.9,0.4,1.5,0.4c0.4,0,0.8-0.1,1.2-0.2c0.4-0.2,0.7-0.4,1-0.7
						s0.5-0.6,0.6-1c0.2-0.4,0.2-0.8,0.2-1.2c0-0.6-0.1-1.1-0.4-1.5c-0.3-0.5-0.6-0.8-1.1-1.1C90.4,122.3,89.8,122.2,89.3,122.2z"/>
					<path class="st0" d="M105.6,137.4c-1.5,0-2.7-0.4-3.8-1.1c-1.1-0.7-1.9-1.8-2.4-3.1s-0.8-3-0.8-4.9c0-1.9,0.3-3.5,0.8-4.9
						s1.4-2.4,2.4-3.1c1.1-0.7,2.3-1.1,3.8-1.1c1.5,0,2.7,0.4,3.8,1.1c1.1,0.7,1.9,1.7,2.4,3.1c0.6,1.3,0.8,3,0.8,4.9
						c0,1.9-0.3,3.6-0.8,4.9c-0.6,1.4-1.4,2.4-2.4,3.1C108.4,137,107.1,137.4,105.6,137.4z M105.6,134.3c1,0,1.8-0.5,2.4-1.5
						c0.6-1,0.9-2.5,0.9-4.5c0-1.3-0.1-2.4-0.4-3.3c-0.3-0.9-0.7-1.5-1.1-2c-0.5-0.4-1.1-0.7-1.7-0.7c-1,0-1.8,0.5-2.4,1.5
						c-0.6,1-0.9,2.5-0.9,4.5c0,1.3,0.1,2.5,0.4,3.4s0.7,1.6,1.1,2C104.4,134.1,105,134.3,105.6,134.3z"/>
				</g>
			</g>
			<g>
				<path class="st0" d="M171.8,151.1c-0.5,0-0.9-0.1-1.3-0.3c-0.4-0.2-0.7-0.4-0.9-0.7c-0.2-0.3-0.3-0.7-0.3-1.1h1.4
					c0,0.3,0.1,0.5,0.3,0.6c0.2,0.2,0.5,0.2,0.7,0.2s0.4-0.1,0.6-0.2s0.3-0.2,0.4-0.4c0.1-0.2,0.2-0.4,0.2-0.6s-0.1-0.5-0.2-0.6
					s-0.2-0.3-0.4-0.4s-0.4-0.2-0.6-0.2c-0.2,0-0.4,0-0.6,0.1c-0.2,0.1-0.3,0.2-0.4,0.3l-1.3-0.2l0.3-3.6h4.2v1.2h-3l-0.2,1.7l0,0
					c0.1-0.2,0.3-0.3,0.5-0.4s0.5-0.2,0.8-0.2c0.4,0,0.8,0.1,1.1,0.3c0.3,0.2,0.6,0.5,0.8,0.8s0.3,0.7,0.3,1.2s-0.1,0.9-0.3,1.2
					s-0.5,0.6-0.9,0.8C172.7,151,172.3,151.1,171.8,151.1z"/>
				<path class="st0" d="M178,151.1c-0.6,0-1.1-0.1-1.5-0.4s-0.7-0.7-1-1.2c-0.2-0.5-0.3-1.2-0.3-1.9c0-0.8,0.1-1.4,0.3-1.9
					s0.5-0.9,1-1.2s0.9-0.4,1.5-0.4s1.1,0.1,1.5,0.4s0.7,0.7,1,1.2c0.2,0.5,0.3,1.2,0.3,1.9c0,0.8-0.1,1.4-0.3,1.9s-0.5,0.9-1,1.2
					C179.1,151,178.6,151.1,178,151.1z M178,149.9c0.4,0,0.7-0.2,0.9-0.6s0.4-1,0.4-1.8c0-0.5-0.1-1-0.2-1.3s-0.3-0.6-0.5-0.8
					c-0.2-0.2-0.4-0.3-0.7-0.3c-0.4,0-0.7,0.2-0.9,0.6s-0.4,1-0.4,1.8c0,0.5,0.1,1,0.2,1.3c0.1,0.4,0.3,0.6,0.5,0.8
					C177.6,149.9,177.8,149.9,178,149.9z"/>
				<path class="st0" d="M184.6,151.1c-0.6,0-1.1-0.1-1.5-0.4s-0.7-0.7-1-1.2c-0.2-0.5-0.3-1.2-0.3-1.9c0-0.8,0.1-1.4,0.3-1.9
					s0.5-0.9,1-1.2s0.9-0.4,1.5-0.4s1.1,0.1,1.5,0.4s0.7,0.7,1,1.2c0.2,0.5,0.3,1.2,0.3,1.9c0,0.8-0.1,1.4-0.3,1.9s-0.5,0.9-1,1.2
					C185.6,151,185.1,151.1,184.6,151.1z M184.6,149.9c0.4,0,0.7-0.2,0.9-0.6s0.4-1,0.4-1.8c0-0.5-0.1-1-0.2-1.3s-0.3-0.6-0.5-0.8
					c-0.2-0.2-0.4-0.3-0.7-0.3c-0.4,0-0.7,0.2-0.9,0.6s-0.4,1-0.4,1.8c0,0.5,0.1,1,0.2,1.3c0.1,0.4,0.3,0.6,0.5,0.8
					C184.1,149.9,184.3,149.9,184.6,149.9z"/>
				<path class="st0" d="M188.6,145.8v-0.4c0-0.3,0.1-0.5,0.2-0.8c0.1-0.2,0.3-0.4,0.5-0.6s0.5-0.2,0.8-0.2s0.6,0.1,0.8,0.2
					s0.4,0.3,0.5,0.6c0.1,0.2,0.2,0.5,0.2,0.8v0.4c0,0.3-0.1,0.5-0.2,0.8c-0.1,0.2-0.3,0.4-0.5,0.6c-0.2,0.1-0.5,0.2-0.8,0.2
					s-0.6-0.1-0.8-0.2s-0.4-0.3-0.5-0.6C188.7,146.2,188.6,146,188.6,145.8z M189.1,151l4.7-6.9h0.9L190,151H189.1z M189.6,145.4
					v0.4c0,0.2,0,0.3,0.1,0.5c0.1,0.1,0.2,0.2,0.4,0.2s0.3-0.1,0.4-0.2c0.1-0.1,0.1-0.3,0.1-0.5v-0.4c0-0.2,0-0.3-0.1-0.5
					c-0.1-0.1-0.2-0.2-0.4-0.2s-0.3,0.1-0.4,0.2S189.6,145.1,189.6,145.4z M192.2,149.6v-0.4c0-0.3,0.1-0.5,0.2-0.8
					c0.1-0.2,0.3-0.4,0.5-0.6c0.2-0.1,0.5-0.2,0.8-0.2s0.6,0.1,0.8,0.2s0.4,0.3,0.5,0.6c0.1,0.2,0.2,0.5,0.2,0.8v0.4
					c0,0.3-0.1,0.5-0.2,0.8c-0.1,0.2-0.3,0.4-0.5,0.6c-0.2,0.1-0.5,0.2-0.8,0.2s-0.6-0.1-0.8-0.2s-0.4-0.3-0.5-0.6
					S192.2,150,192.2,149.6z M193.1,149.2v0.4c0,0.2,0,0.3,0.1,0.5s0.2,0.2,0.4,0.2s0.3-0.1,0.4-0.2s0.1-0.3,0.1-0.5v-0.4
					c0-0.2,0-0.3-0.1-0.5c-0.1-0.1-0.2-0.2-0.4-0.2s-0.3,0.1-0.4,0.2C193.2,149,193.1,149.1,193.1,149.2z"/>
			</g>
			<g>
				<g>
					<path class="st0" d="M14.5,151.1c-0.6,0-1.1-0.1-1.5-0.4s-0.7-0.7-1-1.2c-0.2-0.5-0.3-1.2-0.3-1.9c0-0.8,0.1-1.4,0.3-1.9
						c0.2-0.5,0.5-0.9,1-1.2s0.9-0.4,1.5-0.4s1.1,0.1,1.5,0.4s0.7,0.7,1,1.2c0.2,0.5,0.3,1.2,0.3,1.9c0,0.8-0.1,1.4-0.3,1.9
						c-0.2,0.5-0.5,0.9-1,1.2C15.6,151,15.1,151.1,14.5,151.1z M14.5,149.9c0.4,0,0.7-0.2,0.9-0.6c0.2-0.4,0.4-1,0.4-1.8
						c0-0.5-0.1-1-0.2-1.3s-0.3-0.6-0.5-0.8c-0.2-0.2-0.4-0.3-0.7-0.3c-0.4,0-0.7,0.2-0.9,0.6c-0.2,0.4-0.4,1-0.4,1.8
						c0,0.5,0.1,1,0.2,1.3c0.1,0.4,0.3,0.6,0.5,0.8C14,149.9,14.3,149.9,14.5,149.9z"/>
					<path class="st0" d="M18.6,145.8v-0.4c0-0.3,0.1-0.5,0.2-0.8c0.1-0.2,0.3-0.4,0.5-0.6s0.5-0.2,0.8-0.2s0.6,0.1,0.8,0.2
						s0.4,0.3,0.5,0.6c0.1,0.2,0.2,0.5,0.2,0.8v0.4c0,0.3-0.1,0.5-0.2,0.8c-0.1,0.2-0.3,0.4-0.5,0.6c-0.2,0.1-0.5,0.2-0.8,0.2
						s-0.6-0.1-0.8-0.2s-0.4-0.3-0.5-0.6C18.6,146.2,18.6,146,18.6,145.8z M19,151l4.7-6.9h0.9l-4.7,6.9H19z M19.6,145.4v0.4
						c0,0.2,0,0.3,0.1,0.5c0.1,0.1,0.2,0.2,0.4,0.2c0.2,0,0.3-0.1,0.4-0.2s0.1-0.3,0.1-0.5v-0.4c0-0.2,0-0.3-0.1-0.5
						c-0.1-0.1-0.2-0.2-0.4-0.2c-0.2,0-0.3,0.1-0.4,0.2S19.6,145.1,19.6,145.4z M22.1,149.6v-0.4c0-0.3,0.1-0.5,0.2-0.8
						c0.1-0.2,0.3-0.4,0.5-0.6c0.2-0.1,0.5-0.2,0.8-0.2s0.6,0.1,0.8,0.2c0.2,0.1,0.4,0.3,0.5,0.6c0.1,0.2,0.2,0.5,0.2,0.8v0.4
						c0,0.3-0.1,0.5-0.2,0.8c-0.1,0.2-0.3,0.4-0.5,0.6c-0.2,0.1-0.5,0.2-0.8,0.2s-0.6-0.1-0.8-0.2c-0.2-0.1-0.4-0.3-0.5-0.6
						S22.1,150,22.1,149.6z M23.1,149.2v0.4c0,0.2,0,0.3,0.1,0.5s0.2,0.2,0.4,0.2s0.3-0.1,0.4-0.2s0.1-0.3,0.1-0.5v-0.4
						c0-0.2,0-0.3-0.1-0.5c-0.1-0.1-0.2-0.2-0.4-0.2c-0.2,0-0.3,0.1-0.4,0.2C23.1,149,23.1,149.1,23.1,149.2z"/>
				</g>
			</g>
		</g>
	</g>
	<g>
		<path class="st1" d="M138.7,52.7l16.7-16.7c-14.6-14.6-34.8-23.7-57.2-23.7v23.7C114.1,35.9,128.4,42.3,138.7,52.7z"/>
		<path class="st2" d="M57.9,52.7L41.2,35.9C26.6,50.5,17.5,70.7,17.5,93.1h23.7C41.2,77.3,47.6,63,57.9,52.7z"/>
		<path class="st3" d="M98.3,35.9V12.3c-22.3,0-42.5,9-57.2,23.7l16.7,16.7C68.3,42.3,82.5,35.9,98.3,35.9z"/>
		<path class="st4" d="M155.5,93.1h23.7c0-22.3-9-42.5-23.7-57.2l-16.7,16.7C149.1,63,155.5,77.3,155.5,93.1z"/>
		<path class="st5" d="M41.2,93.1H17.5c0,22.3,9,42.5,23.7,57.2l16.7-16.7C47.6,123.1,41.2,108.9,41.2,93.1z"/>
		<path class="st6" d="M155.5,93.1c0,15.8-6.4,30.1-16.7,40.4l16.7,16.7c14.6-14.6,23.7-34.8,23.7-57.2H155.5z"/>
		<path class="st7" d="M66.1,60.8l-8.2-8.2C47.6,63,41.2,77.3,41.2,93.1h11.5C52.7,80.5,57.8,69.1,66.1,60.8z"/>
		<path class="st7" d="M98.3,47.5V35.9c-15.8,0-30.1,6.4-40.4,16.7l8.2,8.2C74.3,52.6,85.7,47.5,98.3,47.5z"/>
		<path class="st7" d="M130.6,60.8l8.2-8.2c-10.3-10.3-24.6-16.7-40.4-16.7v11.5C110.9,47.5,122.3,52.6,130.6,60.8z"/>
		<path class="st7" d="M52.7,93.1H41.2c0,15.8,6.4,30.1,16.7,40.4l8.2-8.2C57.8,117.1,52.7,105.7,52.7,93.1z"/>
		<path class="st7" d="M130.6,125.3l8.2,8.2c10.3-10.3,16.7-24.6,16.7-40.4h-11.5C143.9,105.7,138.8,117.1,130.6,125.3z"/>
		<path class="st7" d="M138.7,52.7l-8.2,8.2c8.3,8.3,13.3,19.7,13.3,32.3h11.5C155.5,77.3,149.1,63,138.7,52.7z"/>
	</g>
</g>
<g>
	<g>
		<path class="st8" d="M93.8,98.8l9.3-11.4L44.9,48.5c-0.4-0.3-0.9,0.3-0.5,0.6L93.8,98.8z"/>
		<path class="st0" d="M44.9,48.5l58.1,38.9l0,0.1c-2-1.6-4.7-2.2-7.3-1.2c-1.4,0.5-2.6,1.5-3.4,2.6l-48-40.2
			C44.5,48.4,44.7,48.3,44.9,48.5z"/>
	</g>
	<g>
		
			<ellipse transform="matrix(0.5249 -0.8512 0.8512 0.5249 -32.4949 127.9082)" class="st7" cx="98.3" cy="93.1" rx="7.3" ry="7.3"/>
		<circle class="st8" cx="98.3" cy="93.1" r="3.5"/>
	</g>
</g>
</svg>
