<?xml version="1.0" encoding="utf-8"?>
<!-- Generator: Adobe Illustrator 28.1.0, SVG Export Plug-In . SVG Version: 6.00 Build 0)  -->
<svg version="1.1" id="Layer_1" xmlns="http://www.w3.org/2000/svg" xmlns:xlink="http://www.w3.org/1999/xlink" x="0px" y="0px"
	 viewBox="0 0 179 124" style="enable-background:new 0 0 179 124;" xml:space="preserve">
<style type="text/css">
	.st0{fill:none;stroke:#FFFFFF;stroke-width:0.5345;stroke-miterlimit:10;}
	.st1{fill:#E9F8F7;stroke:#25B5B1;enable-background:new    ;}
	.st2{fill:none;stroke:#888888;}
	.st3{fill:none;stroke:#E7E7E7;}
	.st4{fill:#00C800;}
	.st5{fill:#4F4F4F;}
</style>
<line class="st0" x1="165.5" y1="-43.3" x2="165.5" y2="-66"/>
<g>
	<g>
		<g>
			<g>
				<path class="st1" d="M16.7,6.4h145c6.8,0,12.3,6.3,12.3,14v83.9c0,7.8-5.5,14-12.3,14h-145c-6.8,0-12.3-6.3-12.3-14V20.5
					C4.3,12.7,9.8,6.4,16.7,6.4z"/>
				<line class="st2" x1="16.9" y1="40.7" x2="161.4" y2="40.7"/>
				<line class="st3" x1="16.9" y1="80.4" x2="161.4" y2="80.4"/>
			</g>
		</g>
		<g>
			<path class="st4" d="M27.6,97.2c-0.9-2.9-3.6-5.1-6.8-5.1s-5.9,2.1-6.8,5c-0.2,0.7-0.3,1.4-0.3,2.1c0,0.7,0.1,1.4,0.3,2
				c0.9,2.9,3.6,5.1,6.8,5.1s5.9-2.1,6.8-5c0.2-0.7,0.3-1.4,0.3-2.1S27.8,97.9,27.6,97.2z M20.8,102.9c-1.2,0-2.2-0.6-2.9-1.5
				c-0.5-0.6-0.7-1.4-0.7-2.2c0-0.7,0.2-1.4,0.6-1.9c0.6-1,1.8-1.7,3.1-1.7s2.5,0.7,3.1,1.8c0.3,0.5,0.5,1.2,0.5,1.9
				c0,0.9-0.3,1.6-0.8,2.2C23,102.3,22,102.9,20.8,102.9z"/>
			<path class="st4" d="M19.3,99.4c0-0.8,0.7-1.5,1.5-1.5s1.5,0.7,1.5,1.5s-0.7,1.5-1.5,1.5S19.3,100.2,19.3,99.4z"/>
		</g>
		<g>
			<g>
				<path class="st4" d="M117.8,97.2c-0.9-2.9-3.6-5.1-6.8-5.1s-5.9,2.1-6.8,5c-0.2,0.7-0.3,1.4-0.3,2.1c0,0.7,0.1,1.4,0.3,2
					c0.9,2.9,3.6,5.1,6.8,5.1s5.9-2.1,6.8-5c0.2-0.7,0.3-1.4,0.3-2.1C118.1,98.5,118,97.8,117.8,97.2z M111,102.8
					c-1.2,0-2.2-0.6-2.9-1.5c-0.5-0.6-0.7-1.4-0.7-2.2c0-0.7,0.2-1.4,0.6-1.9c0.6-1,1.8-1.7,3.1-1.7s2.5,0.7,3.1,1.8
					c0.3,0.5,0.5,1.2,0.5,1.9c0,0.9-0.3,1.6-0.8,2.2C113.2,102.3,112.2,102.8,111,102.8z"/>
				<path class="st4" d="M109.5,99.4c0-0.8,0.7-1.5,1.5-1.5s1.5,0.7,1.5,1.5s-0.7,1.5-1.5,1.5S109.5,100.2,109.5,99.4z"/>
			</g>
		</g>
		<g>
			<path class="st5" d="M34.7,68.5h-2.7l4.1-11.8h3.2l4.1,11.8h-2.7l-3-9.1h0L34.7,68.5z M34.6,63.9h6.3v2h-6.3V63.9z"/>
			<path class="st5" d="M55.7,62.6c0,1.3-0.2,2.4-0.7,3.2c-0.5,0.9-1.2,1.6-2,2.1s-1.7,0.7-2.8,0.7c-1,0-2-0.2-2.8-0.7
				c-0.8-0.5-1.5-1.2-2-2.1c-0.5-0.9-0.7-2-0.7-3.2c0-1.3,0.2-2.4,0.7-3.2c0.5-0.9,1.2-1.6,2-2.1c0.8-0.5,1.7-0.7,2.8-0.7
				c1,0,2,0.2,2.8,0.7c0.8,0.5,1.5,1.2,2,2.1C55.4,60.3,55.7,61.3,55.7,62.6z M53.1,62.6c0-0.8-0.1-1.5-0.3-2.1
				c-0.2-0.6-0.6-1-1-1.3s-0.9-0.5-1.6-0.5s-1.2,0.1-1.6,0.5c-0.5,0.3-0.8,0.7-1,1.3c-0.2,0.6-0.3,1.3-0.3,2.1s0.1,1.5,0.3,2.1
				c0.2,0.6,0.6,1,1,1.3c0.5,0.3,0.9,0.5,1.6,0.5s1.2-0.1,1.6-0.5c0.5-0.3,0.8-0.7,1-1.3C53,64.1,53.1,63.4,53.1,62.6z M49.3,64.4
				h2.1l1,1.4l1,1.3l2,2.4h-2.3l-1.4-1.6l-0.7-1L49.3,64.4z"/>
			<path class="st5" d="M60.1,56.7v11.8h-2.5V56.7H60.1z"/>
		</g>
		<g>
			<path class="st5" d="M30.7,58.1c0,0.2-0.1,0.4-0.1,0.6c-0.4,1.5-1.8,2.6-3.4,2.6c-3.1,0-6.3,0-9.4,0c-0.3,0-0.5-0.2-0.5-0.5
				s0.2-0.5,0.6-0.5c2.1,0,4.2,0,6.3,0c1,0,2,0,3.1,0c1.4,0,2.6-1.2,2.5-2.6c0-1-0.5-1.8-1.4-2.2c-0.9-0.5-1.8-0.4-2.6,0.2l-0.1,0.1
				c-0.2,0.2-0.5,0.1-0.7-0.1c-0.2-0.2-0.1-0.5,0.1-0.7c0.7-0.5,1.5-0.8,2.3-0.8c1.6,0.1,3,1.2,3.3,2.8c0,0.1,0.1,0.3,0.1,0.4
				C30.7,57.7,30.7,57.9,30.7,58.1z"/>
			<path class="st5" d="M18.1,62.4c1.3,0,2.5,0,3.8,0c1.5,0,2.7,1,3,2.4c0.4,1.8-0.9,3.6-2.7,3.7c-0.8,0.1-1.5-0.1-2.2-0.6
				c-0.3-0.2-0.3-0.7,0.1-0.9c0.2-0.1,0.4,0,0.6,0.1c0.5,0.4,1.1,0.5,1.7,0.4c1-0.2,1.6-1.1,1.6-2.1c-0.1-1-0.8-1.8-1.8-1.9
				c-0.1,0-0.3,0-0.4,0c-2.5,0-5,0-7.5,0c-0.1,0-0.2,0-0.2,0c-0.2,0-0.4-0.3-0.4-0.5s0.1-0.4,0.3-0.5c0.1,0,0.2,0,0.3,0
				C15.6,62.4,16.9,62.4,18.1,62.4z"/>
			<path class="st5" d="M19.4,59.4c-0.9,0-1.8,0-2.6,0c-0.3,0-0.5-0.2-0.5-0.5s0.2-0.5,0.5-0.5c0.1,0,0.1,0,0.2,0c1.6,0,3.2,0,4.8,0
				c0.1,0,0.2,0,0.3,0c0.3,0,0.5,0.2,0.5,0.5s-0.2,0.5-0.5,0.5C21.2,59.4,20.3,59.4,19.4,59.4z"/>
			<path class="st5" d="M18.2,64.4c0.5,0,1,0,1.4,0c0.3,0,0.5,0.2,0.6,0.5c0,0.3-0.2,0.5-0.6,0.5c-1,0-1.9,0-2.9,0
				c-0.3,0-0.6-0.2-0.6-0.5s0.2-0.5,0.6-0.5C17.2,64.4,17.7,64.4,18.2,64.4z"/>
			<path class="st5" d="M14.5,59.4c-0.1,0-0.2,0-0.3,0c-0.3,0-0.5-0.2-0.5-0.5c0-0.2,0.1-0.5,0.4-0.5c0.3,0,0.6,0,0.9,0
				c0.3,0,0.4,0.3,0.4,0.5s-0.2,0.4-0.5,0.4C14.7,59.4,14.6,59.4,14.5,59.4z"/>
		</g>
		<g>
			<path d="M55.9,31.2V17.4h5.5c1,0,1.9,0.2,2.5,0.5c0.7,0.3,1.2,0.7,1.5,1.3c0.3,0.5,0.5,1.1,0.5,1.8c0,0.5-0.1,1-0.3,1.4
				c-0.2,0.4-0.5,0.7-0.9,1c-0.4,0.3-0.8,0.4-1.3,0.5V24c0.5,0,1,0.2,1.5,0.4s0.8,0.7,1.1,1.2c0.3,0.5,0.4,1.1,0.4,1.8
				c0,0.7-0.2,1.4-0.5,2c-0.4,0.6-0.9,1-1.6,1.4c-0.7,0.3-1.6,0.5-2.6,0.5H55.9z M58.8,23.2h2.2c0.4,0,0.8-0.1,1.1-0.2
				c0.3-0.1,0.6-0.3,0.7-0.6c0.2-0.3,0.3-0.6,0.3-0.9c0-0.5-0.2-0.9-0.5-1.2c-0.4-0.3-0.9-0.5-1.5-0.5h-2.2V23.2z M58.8,28.8h2.4
				c0.8,0,1.4-0.2,1.8-0.5c0.4-0.3,0.6-0.7,0.6-1.3c0-0.4-0.1-0.7-0.3-1s-0.4-0.5-0.8-0.7c-0.3-0.2-0.7-0.2-1.2-0.2h-2.4V28.8z"/>
			<path d="M69.8,19.5c-0.4,0-0.8-0.1-1.1-0.4c-0.3-0.3-0.5-0.6-0.5-1c0-0.4,0.2-0.7,0.5-1s0.7-0.4,1.1-0.4c0.4,0,0.8,0.1,1.1,0.4
				c0.3,0.3,0.5,0.6,0.5,1s-0.2,0.7-0.5,1S70.2,19.5,69.8,19.5z M68.4,31.2V20.8h2.9v10.4H68.4z"/>
			<path d="M77.3,31.4c-0.8,0-1.5-0.2-2.1-0.6c-0.6-0.4-1.1-1-1.5-1.8c-0.4-0.8-0.6-1.8-0.6-2.9c0-1.2,0.2-2.2,0.6-3
				c0.4-0.8,0.9-1.4,1.5-1.8s1.3-0.6,2.1-0.6c0.6,0,1.1,0.1,1.5,0.3c0.4,0.2,0.7,0.4,0.9,0.7c0.2,0.3,0.4,0.6,0.5,0.9h0.1v-5.2h2.9
				v13.8h-2.8v-1.7h-0.1c-0.1,0.3-0.3,0.6-0.6,0.9s-0.6,0.5-1,0.7C78.4,31.3,77.9,31.4,77.3,31.4z M78.3,29.1c0.5,0,0.9-0.1,1.2-0.4
				c0.3-0.3,0.6-0.6,0.7-1.1c0.2-0.5,0.3-1,0.3-1.6s-0.1-1.2-0.3-1.6s-0.4-0.8-0.7-1.1c-0.3-0.2-0.7-0.4-1.2-0.4
				c-0.5,0-0.9,0.1-1.2,0.4c-0.3,0.3-0.6,0.6-0.7,1.1c-0.2,0.5-0.2,1-0.2,1.6c0,0.6,0.1,1.1,0.3,1.6c0.2,0.5,0.4,0.8,0.7,1.1
				C77.4,28.9,77.8,29.1,78.3,29.1z"/>
			<path d="M87,19.5c-0.4,0-0.8-0.1-1.1-0.4c-0.3-0.3-0.5-0.6-0.5-1c0-0.4,0.2-0.7,0.5-1c0.3-0.3,0.7-0.4,1.1-0.4
				c0.4,0,0.8,0.1,1.1,0.4c0.3,0.3,0.5,0.6,0.5,1s-0.2,0.7-0.5,1C87.8,19.3,87.5,19.5,87,19.5z M85.6,31.2V20.8h2.9v10.4H85.6z"/>
			<path d="M92.5,35.1c-0.4,0-0.7,0-1-0.1c-0.3-0.1-0.6-0.1-0.8-0.2l0.6-2.1c0.3,0.1,0.6,0.2,0.9,0.2c0.3,0,0.5-0.1,0.7-0.2
				c0.2-0.1,0.4-0.4,0.5-0.7l0.2-0.4l-3.7-10.7h3l2.1,7.6h0.1l2.2-7.6h3l-4,11.5c-0.2,0.6-0.5,1-0.8,1.5s-0.7,0.7-1.3,1
				C93.9,35,93.3,35.1,92.5,35.1z"/>
			<path d="M104.9,31.4c-0.7,0-1.3-0.1-1.8-0.3c-0.5-0.2-0.9-0.6-1.2-1c-0.3-0.5-0.4-1-0.4-1.7c0-0.6,0.1-1.1,0.3-1.5
				c0.2-0.4,0.5-0.7,0.9-0.9c0.4-0.2,0.8-0.4,1.2-0.5s1-0.2,1.5-0.3c0.6-0.1,1.1-0.1,1.5-0.2c0.4-0.1,0.6-0.1,0.8-0.3
				c0.2-0.1,0.2-0.3,0.2-0.5v0c0-0.4-0.1-0.8-0.4-1s-0.6-0.4-1.1-0.4c-0.5,0-0.9,0.1-1.2,0.3c-0.3,0.2-0.5,0.5-0.6,0.9l-2.7-0.2
				c0.1-0.6,0.4-1.2,0.8-1.6c0.4-0.5,0.9-0.8,1.5-1.1c0.6-0.2,1.4-0.4,2.2-0.4c0.6,0,1.1,0.1,1.7,0.2c0.5,0.1,1,0.3,1.4,0.6
				c0.4,0.3,0.7,0.6,1,1.1c0.2,0.4,0.4,1,0.4,1.6v7H108v-1.4h-0.1c-0.2,0.3-0.4,0.6-0.7,0.9c-0.3,0.2-0.6,0.4-1,0.6
				C105.8,31.3,105.4,31.4,104.9,31.4z M105.7,29.4c0.4,0,0.8-0.1,1.1-0.3c0.3-0.2,0.6-0.4,0.8-0.7c0.2-0.3,0.3-0.6,0.3-1v-1.1
				c-0.1,0.1-0.2,0.1-0.4,0.2s-0.3,0.1-0.5,0.1s-0.4,0.1-0.6,0.1s-0.4,0.1-0.5,0.1c-0.3,0-0.6,0.1-0.9,0.2c-0.3,0.1-0.4,0.3-0.6,0.4
				c-0.1,0.2-0.2,0.4-0.2,0.7c0,0.4,0.1,0.7,0.4,0.9C104.9,29.3,105.2,29.4,105.7,29.4z"/>
			<path d="M115.8,25.2v6h-2.9V17.4h2.8v5.3h0.1c0.2-0.6,0.6-1.1,1.1-1.4c0.5-0.3,1.2-0.5,2-0.5c0.7,0,1.3,0.2,1.9,0.5
				c0.5,0.3,1,0.8,1.3,1.3c0.3,0.6,0.4,1.3,0.4,2.1v6.6h-2.9v-6.1c0-0.6-0.2-1.1-0.5-1.5c-0.3-0.4-0.8-0.5-1.4-0.5
				c-0.4,0-0.7,0.1-1,0.2s-0.5,0.4-0.7,0.7C115.9,24.4,115.8,24.8,115.8,25.2z"/>
		</g>
	</g>
	<g>
		<g>
			<g>
				<path class="st5" d="M42.3,97.3h-1.6c-0.1-0.3-0.2-0.6-0.3-0.9c-0.2-0.3-0.4-0.5-0.6-0.7s-0.5-0.3-0.8-0.4s-0.6-0.1-1-0.1
					c-0.6,0-1.2,0.2-1.6,0.5s-0.9,0.8-1.1,1.3c-0.3,0.6-0.4,1.3-0.4,2.2c0,0.9,0.1,1.6,0.4,2.2s0.7,1,1.1,1.3c0.5,0.3,1,0.5,1.6,0.5
					c0.3,0,0.6,0,1-0.1s0.6-0.2,0.8-0.4c0.2-0.2,0.5-0.4,0.6-0.7s0.3-0.6,0.4-0.9l1.6,0c-0.1,0.5-0.3,1-0.5,1.4
					c-0.2,0.4-0.6,0.8-0.9,1.1s-0.8,0.6-1.3,0.7c-0.5,0.2-1,0.3-1.6,0.3c-0.9,0-1.7-0.2-2.4-0.7c-0.7-0.4-1.3-1.1-1.7-1.9
					c-0.4-0.8-0.6-1.8-0.6-2.9c0-1.1,0.2-2.1,0.6-2.9c0.4-0.8,1-1.4,1.7-1.9c0.7-0.4,1.5-0.7,2.4-0.7c0.6,0,1.1,0.1,1.6,0.2
					s0.9,0.4,1.3,0.7c0.4,0.3,0.7,0.7,1,1.1C42.1,96.2,42.2,96.7,42.3,97.3z"/>
				<path class="st5" d="M53.4,99.1c0,1.1-0.2,2.1-0.6,2.9c-0.4,0.8-1,1.4-1.7,1.9c-0.7,0.4-1.5,0.7-2.4,0.7c-0.9,0-1.7-0.2-2.4-0.7
					c-0.7-0.4-1.3-1.1-1.7-1.9c-0.4-0.8-0.6-1.8-0.6-2.9c0-1.1,0.2-2.1,0.6-2.9c0.4-0.8,1-1.4,1.7-1.9c0.7-0.4,1.5-0.7,2.4-0.7
					c0.9,0,1.7,0.2,2.4,0.7c0.7,0.4,1.3,1.1,1.7,1.9C53.2,97,53.4,98,53.4,99.1z M51.8,99.1c0-0.9-0.1-1.6-0.4-2.2
					c-0.3-0.6-0.7-1-1.1-1.3c-0.5-0.3-1-0.5-1.6-0.5c-0.6,0-1.1,0.2-1.6,0.5s-0.9,0.8-1.1,1.3c-0.3,0.6-0.4,1.3-0.4,2.2
					c0,0.9,0.1,1.6,0.4,2.2c0.3,0.6,0.7,1,1.1,1.3s1,0.5,1.6,0.5c0.6,0,1.1-0.2,1.6-0.5c0.5-0.3,0.9-0.8,1.1-1.3
					C51.7,100.7,51.8,100,51.8,99.1z"/>
			</g>
		</g>
	</g>
	<g>
		<path class="st5" d="M132.3,93.8v10.5h-1.5l-5.4-7.7h-0.1v7.7h-1.6V93.8h1.5l5.4,7.7h0.1v-7.7H132.3z"/>
		<path class="st5" d="M143.8,99.1c0,1.1-0.2,2.1-0.6,2.9s-1,1.4-1.7,1.9c-0.7,0.4-1.5,0.7-2.4,0.7c-0.9,0-1.7-0.2-2.4-0.7
			c-0.7-0.4-1.3-1.1-1.7-1.9c-0.4-0.8-0.6-1.8-0.6-2.9c0-1.1,0.2-2.1,0.6-2.9c0.4-0.8,1-1.4,1.7-1.9s1.5-0.7,2.4-0.7
			c0.9,0,1.7,0.2,2.4,0.7s1.3,1.1,1.7,1.9C143.6,97,143.8,98,143.8,99.1z M142.2,99.1c0-0.9-0.1-1.6-0.4-2.2s-0.7-1-1.1-1.3
			c-0.5-0.3-1-0.5-1.6-0.5c-0.6,0-1.2,0.2-1.6,0.5c-0.5,0.3-0.9,0.8-1.1,1.3c-0.3,0.6-0.4,1.3-0.4,2.2s0.1,1.6,0.4,2.2
			c0.3,0.6,0.7,1,1.1,1.3c0.5,0.3,1,0.5,1.6,0.5c0.6,0,1.1-0.2,1.6-0.5c0.5-0.3,0.9-0.8,1.1-1.3S142.2,100,142.2,99.1z"/>
		<path class="st5" d="M145.4,106.1v-1l3-3.1c0.3-0.3,0.6-0.6,0.8-0.9c0.2-0.3,0.4-0.5,0.5-0.7c0.1-0.2,0.2-0.5,0.2-0.7
			c0-0.3-0.1-0.5-0.2-0.8c-0.1-0.2-0.3-0.4-0.6-0.5c-0.2-0.1-0.5-0.2-0.8-0.2c-0.3,0-0.6,0.1-0.8,0.2s-0.4,0.3-0.5,0.5
			c-0.1,0.2-0.2,0.5-0.2,0.8h-1.3c0-0.5,0.1-1,0.4-1.4c0.2-0.4,0.6-0.7,1-0.9c0.4-0.2,0.9-0.3,1.5-0.3c0.6,0,1,0.1,1.5,0.3
			c0.4,0.2,0.8,0.5,1,0.9s0.4,0.8,0.4,1.3c0,0.3-0.1,0.6-0.2,1s-0.3,0.7-0.6,1s-0.7,0.8-1.3,1.4l-1.8,1.8v0.1h4v1.1H145.4z"/>
	</g>
	<g>
		<g>
			<g>
				<path class="st4" d="M122.3,69.5v-2.9l7.3-11.5h2.5v4h-1.5l-4.6,7.3v0.1h10.4v3H122.3z M130.6,72.6v-4l0.1-1.3V55.1h3.5v17.5
					H130.6z"/>
				<path class="st4" d="M145.1,54.9c0.9,0,1.8,0.2,2.6,0.5c0.8,0.3,1.6,0.8,2.2,1.4s1.2,1.5,1.6,2.6c0.4,1.1,0.6,2.4,0.6,4
					c0,1.5-0.2,2.8-0.5,4c-0.3,1.2-0.8,2.1-1.4,3s-1.4,1.4-2.2,1.9c-0.9,0.4-1.9,0.6-2.9,0.6c-1.2,0-2.2-0.2-3.1-0.7
					c-0.9-0.5-1.6-1.1-2.2-1.8c-0.5-0.8-0.9-1.7-1-2.6h3.6c0.1,0.6,0.4,1.1,0.9,1.5c0.5,0.3,1,0.5,1.7,0.5c1.1,0,2-0.5,2.6-1.5
					c0.6-1,0.9-2.4,0.9-4.1h-0.1c-0.3,0.5-0.6,1-1.1,1.3s-1,0.6-1.5,0.8c-0.6,0.2-1.2,0.3-1.8,0.3c-1,0-1.9-0.2-2.8-0.7
					c-0.8-0.5-1.4-1.1-1.9-2s-0.7-1.8-0.7-2.9c0-1.2,0.3-2.2,0.8-3.1c0.5-0.9,1.3-1.6,2.3-2.2C142.7,55.1,143.8,54.9,145.1,54.9z
					 M145.1,57.8c-0.6,0-1.1,0.1-1.5,0.4c-0.4,0.3-0.8,0.6-1.1,1.1s-0.4,1-0.4,1.5c0,0.6,0.1,1.1,0.4,1.5s0.6,0.8,1,1.1
					s0.9,0.4,1.5,0.4c0.4,0,0.8-0.1,1.2-0.2s0.7-0.4,1-0.7s0.5-0.6,0.6-1c0.2-0.4,0.2-0.8,0.2-1.2c0-0.6-0.1-1.1-0.4-1.5
					c-0.3-0.5-0.6-0.8-1.1-1.1C146.2,57.9,145.7,57.8,145.1,57.8z"/>
			</g>
		</g>
	</g>
</g>
</svg>
