<?xml version="1.0" encoding="utf-8"?>
<!-- Generator: Adobe Illustrator 28.1.0, SVG Export Plug-In . SVG Version: 6.00 Build 0)  -->
<svg version="1.1" id="Layer_1" xmlns="http://www.w3.org/2000/svg" xmlns:xlink="http://www.w3.org/1999/xlink" x="0px" y="0px"
	 viewBox="0 0 111 573" style="enable-background:new 0 0 111 573;" xml:space="preserve">
<style type="text/css">
	.st0{fill:none;stroke:#888888;stroke-width:0.5987;stroke-miterlimit:10;}
	.st1{fill:#4F4F4F;}
	.st2{clip-path:url(#SVGID_00000129172957895318826790000008077899199770608816_);}
	.st3{clip-path:url(#SVGID_00000081607120063485994490000004551835329704416659_);}
	.st4{fill:#00C800;}
	.st5{fill:#FFE12D;}
	.st6{fill:#D1D1D1;}
	.st7{fill:#FF7E00;}
	.st8{fill:#FA0A00;}
	.st9{fill:#8F3F97;}
	.st10{fill:#7E0023;}
	
		.st11{clip-path:url(#SVGID_00000081607120063485994490000004551835329704416659_);fill:none;stroke:#FFFFFF;stroke-width:0.5334;stroke-miterlimit:10;}
</style>
<g>
	<g>
		<g>
			<g>
				<g>
					<line class="st0" x1="30.3" y1="397.7" x2="24.1" y2="397.7"/>
					<line class="st0" x1="30.3" y1="320.1" x2="24.1" y2="320.1"/>
					<line class="st0" x1="30.3" y1="243.3" x2="24.1" y2="243.3"/>
					<line class="st0" x1="30.3" y1="165.4" x2="24.1" y2="165.4"/>
					<line class="st0" x1="30.3" y1="88.1" x2="24.1" y2="88.1"/>
					<line class="st0" x1="30.3" y1="10" x2="24.1" y2="10"/>
				</g>
				<g>
					<g>
						<line class="st0" x1="30.3" y1="473.7" x2="24.1" y2="473.7"/>
					</g>
				</g>
			</g>
			<g>
				<g>
					<g>
						<path class="st1" d="M12.4,401.1c-0.4,0-0.8-0.1-1.1-0.2s-0.6-0.4-0.8-0.6c-0.2-0.3-0.3-0.6-0.3-0.9h1c0,0.3,0.1,0.5,0.4,0.7
							s0.5,0.3,0.8,0.3c0.3,0,0.5-0.1,0.7-0.2c0.2-0.1,0.3-0.3,0.5-0.5s0.2-0.4,0.2-0.7c0-0.3-0.1-0.5-0.2-0.7
							c-0.1-0.2-0.3-0.4-0.5-0.5c-0.2-0.1-0.4-0.2-0.7-0.2c-0.2,0-0.4,0-0.6,0.1c-0.2,0.1-0.4,0.2-0.5,0.3l-0.9-0.1l0.4-3.3h3.6v0.8
							h-2.8l-0.2,1.8h0c0.1-0.1,0.3-0.2,0.5-0.3s0.4-0.1,0.7-0.1c0.4,0,0.8,0.1,1.1,0.3s0.6,0.4,0.7,0.8s0.3,0.7,0.3,1.1
							c0,0.4-0.1,0.8-0.3,1.1c-0.2,0.3-0.5,0.6-0.8,0.8C13.3,401,12.9,401.1,12.4,401.1z"/>
						<path class="st1" d="M18.1,401.1c-0.5,0-0.9-0.1-1.3-0.4c-0.4-0.3-0.6-0.6-0.8-1.2c-0.2-0.5-0.3-1.1-0.3-1.8
							c0-0.7,0.1-1.3,0.3-1.8s0.5-0.9,0.8-1.1s0.8-0.4,1.3-0.4c0.5,0,0.9,0.1,1.3,0.4s0.6,0.6,0.8,1.1c0.2,0.5,0.3,1.1,0.3,1.8
							c0,0.7-0.1,1.3-0.3,1.8c-0.2,0.5-0.5,0.9-0.8,1.2C19.1,401,18.6,401.1,18.1,401.1z M18.1,400.3c0.4,0,0.8-0.2,1-0.6
							c0.2-0.4,0.4-1.1,0.4-1.9c0-0.5-0.1-1-0.2-1.4s-0.3-0.7-0.5-0.9c-0.2-0.2-0.5-0.3-0.8-0.3c-0.4,0-0.8,0.2-1,0.7
							s-0.4,1.1-0.4,1.9c0,0.5,0.1,1,0.2,1.4c0.1,0.4,0.3,0.7,0.5,0.9C17.6,400.2,17.8,400.3,18.1,400.3z"/>
					</g>
				</g>
				<g>
					<g>
						<path class="st1" d="M18.1,476.2c-0.5,0-0.9-0.1-1.3-0.4c-0.4-0.3-0.6-0.6-0.8-1.2c-0.2-0.5-0.3-1.1-0.3-1.8
							c0-0.7,0.1-1.3,0.3-1.8s0.5-0.9,0.8-1.1s0.8-0.4,1.3-0.4c0.5,0,0.9,0.1,1.3,0.4s0.6,0.6,0.8,1.1c0.2,0.5,0.3,1.1,0.3,1.8
							c0,0.7-0.1,1.3-0.3,1.8c-0.2,0.5-0.5,0.9-0.8,1.2C19.1,476.1,18.6,476.2,18.1,476.2z M18.1,475.4c0.4,0,0.8-0.2,1-0.6
							c0.2-0.4,0.4-1.1,0.4-1.9c0-0.5-0.1-1-0.2-1.4s-0.3-0.7-0.5-0.9c-0.2-0.2-0.5-0.3-0.8-0.3c-0.4,0-0.8,0.2-1,0.7
							s-0.4,1.1-0.4,1.9c0,0.5,0.1,1,0.2,1.4c0.1,0.4,0.3,0.7,0.5,0.9C17.6,475.3,17.8,475.4,18.1,475.4z"/>
					</g>
				</g>
				<g>
					<path class="st1" d="M8.3,314.7v6.5h-1v-5.5h0l-1.6,1v-0.9l1.6-1.1H8.3z"/>
					<path class="st1" d="M12.3,321.3c-0.5,0-0.9-0.1-1.3-0.4c-0.4-0.3-0.6-0.6-0.8-1.2c-0.2-0.5-0.3-1.1-0.3-1.8
						c0-0.7,0.1-1.3,0.3-1.8s0.5-0.9,0.8-1.1s0.8-0.4,1.3-0.4c0.5,0,0.9,0.1,1.3,0.4s0.6,0.6,0.8,1.1c0.2,0.5,0.3,1.1,0.3,1.8
						c0,0.7-0.1,1.3-0.3,1.8c-0.2,0.5-0.5,0.9-0.8,1.2C13.3,321.2,12.8,321.3,12.3,321.3z M12.3,320.5c0.4,0,0.8-0.2,1-0.6
						c0.2-0.4,0.4-1.1,0.4-1.9c0-0.5-0.1-1-0.2-1.4s-0.3-0.7-0.5-0.9c-0.2-0.2-0.5-0.3-0.8-0.3c-0.4,0-0.8,0.2-1,0.7
						s-0.4,1.1-0.4,1.9c0,0.5,0.1,1,0.2,1.4c0.1,0.4,0.3,0.7,0.5,0.9C11.8,320.4,12,320.5,12.3,320.5z"/>
					<path class="st1" d="M18.1,321.3c-0.5,0-0.9-0.1-1.3-0.4c-0.4-0.3-0.6-0.6-0.8-1.2c-0.2-0.5-0.3-1.1-0.3-1.8
						c0-0.7,0.1-1.3,0.3-1.8s0.5-0.9,0.8-1.1s0.8-0.4,1.3-0.4c0.5,0,0.9,0.1,1.3,0.4s0.6,0.6,0.8,1.1c0.2,0.5,0.3,1.1,0.3,1.8
						c0,0.7-0.1,1.3-0.3,1.8c-0.2,0.5-0.5,0.9-0.8,1.2C19.1,321.2,18.6,321.3,18.1,321.3z M18.1,320.5c0.4,0,0.8-0.2,1-0.6
						c0.2-0.4,0.4-1.1,0.4-1.9c0-0.5-0.1-1-0.2-1.4s-0.3-0.7-0.5-0.9c-0.2-0.2-0.5-0.3-0.8-0.3c-0.4,0-0.8,0.2-1,0.7
						s-0.4,1.1-0.4,1.9c0,0.5,0.1,1,0.2,1.4c0.1,0.4,0.3,0.7,0.5,0.9C17.6,320.4,17.8,320.5,18.1,320.5z"/>
				</g>
				<g>
					<path class="st1" d="M8.5,239.4v6.5h-1v-5.5h0l-1.6,1v-0.9l1.6-1.1H8.5z"/>
					<path class="st1" d="M12.4,246c-0.4,0-0.8-0.1-1.1-0.2c-0.3-0.2-0.6-0.4-0.8-0.6c-0.2-0.3-0.3-0.6-0.3-0.9h1
						c0,0.3,0.1,0.5,0.4,0.7c0.2,0.2,0.5,0.3,0.8,0.3c0.3,0,0.5-0.1,0.7-0.2c0.2-0.1,0.3-0.3,0.5-0.5s0.2-0.4,0.2-0.7
						c0-0.3-0.1-0.5-0.2-0.7s-0.3-0.4-0.5-0.5c-0.2-0.1-0.4-0.2-0.7-0.2c-0.2,0-0.4,0-0.6,0.1c-0.2,0.1-0.4,0.2-0.5,0.3l-0.9-0.1
						l0.4-3.3h3.6v0.8h-2.8l-0.2,1.8h0c0.1-0.1,0.3-0.2,0.5-0.3s0.4-0.1,0.7-0.1c0.4,0,0.8,0.1,1.1,0.3c0.3,0.2,0.6,0.4,0.7,0.8
						c0.2,0.3,0.3,0.7,0.3,1.1c0,0.4-0.1,0.8-0.3,1.1s-0.5,0.6-0.8,0.8C13.3,245.9,12.9,246,12.4,246z"/>
					<path class="st1" d="M18.1,246c-0.5,0-0.9-0.1-1.3-0.4c-0.4-0.3-0.6-0.6-0.8-1.2c-0.2-0.5-0.3-1.1-0.3-1.8
						c0-0.7,0.1-1.3,0.3-1.8c0.2-0.5,0.5-0.9,0.8-1.1s0.8-0.4,1.3-0.4c0.5,0,0.9,0.1,1.3,0.4c0.4,0.3,0.6,0.6,0.8,1.1
						s0.3,1.1,0.3,1.8c0,0.7-0.1,1.3-0.3,1.8c-0.2,0.5-0.5,0.9-0.8,1.2C19.1,245.9,18.6,246,18.1,246z M18.1,245.2
						c0.4,0,0.8-0.2,1-0.6c0.2-0.4,0.4-1.1,0.4-1.9c0-0.5-0.1-1-0.2-1.4c-0.1-0.4-0.3-0.7-0.5-0.9c-0.2-0.2-0.5-0.3-0.8-0.3
						c-0.4,0-0.8,0.2-1,0.7s-0.4,1.1-0.4,1.9c0,0.5,0.1,1,0.2,1.4c0.1,0.4,0.3,0.7,0.5,0.9S17.8,245.2,18.1,245.2z"/>
				</g>
				<g>
					<path class="st1" d="M4.5,168.5v-0.7l2.2-2.3c0.2-0.2,0.4-0.5,0.6-0.7c0.2-0.2,0.3-0.4,0.3-0.5c0.1-0.2,0.1-0.4,0.1-0.5
						c0-0.2-0.1-0.4-0.2-0.6c-0.1-0.2-0.2-0.3-0.4-0.4c-0.2-0.1-0.4-0.1-0.6-0.1c-0.2,0-0.4,0-0.6,0.1c-0.2,0.1-0.3,0.2-0.4,0.4
						c-0.1,0.2-0.1,0.4-0.1,0.6H4.5c0-0.4,0.1-0.7,0.3-1c0.2-0.3,0.4-0.5,0.8-0.7c0.3-0.2,0.7-0.2,1.1-0.2c0.4,0,0.8,0.1,1.1,0.2
						s0.6,0.4,0.7,0.7c0.2,0.3,0.3,0.6,0.3,0.9c0,0.2,0,0.5-0.1,0.7c-0.1,0.2-0.2,0.5-0.5,0.8c-0.2,0.3-0.5,0.6-0.9,1l-1.3,1.4v0
						h2.9v0.8H4.5z"/>
					<path class="st1" d="M12.3,168.6c-0.5,0-0.9-0.1-1.3-0.4c-0.4-0.3-0.6-0.6-0.8-1.2c-0.2-0.5-0.3-1.1-0.3-1.8
						c0-0.7,0.1-1.3,0.3-1.8c0.2-0.5,0.5-0.9,0.8-1.1s0.8-0.4,1.3-0.4c0.5,0,0.9,0.1,1.3,0.4c0.4,0.3,0.6,0.6,0.8,1.1
						s0.3,1.1,0.3,1.8c0,0.7-0.1,1.3-0.3,1.8c-0.2,0.5-0.5,0.9-0.8,1.2C13.2,168.4,12.8,168.6,12.3,168.6z M12.3,167.7
						c0.4,0,0.8-0.2,1-0.6c0.2-0.4,0.4-1.1,0.4-1.9c0-0.5-0.1-1-0.2-1.4c-0.1-0.4-0.3-0.7-0.5-0.9c-0.2-0.2-0.5-0.3-0.8-0.3
						c-0.4,0-0.8,0.2-1,0.7s-0.4,1.1-0.4,1.9c0,0.5,0.1,1,0.2,1.4c0.1,0.4,0.3,0.7,0.5,0.9S12,167.7,12.3,167.7z"/>
					<path class="st1" d="M18.1,168.6c-0.5,0-0.9-0.1-1.3-0.4c-0.4-0.3-0.6-0.6-0.8-1.2c-0.2-0.5-0.3-1.1-0.3-1.8
						c0-0.7,0.1-1.3,0.3-1.8c0.2-0.5,0.5-0.9,0.8-1.1s0.8-0.4,1.3-0.4c0.5,0,0.9,0.1,1.3,0.4c0.4,0.3,0.6,0.6,0.8,1.1
						s0.3,1.1,0.3,1.8c0,0.7-0.1,1.3-0.3,1.8c-0.2,0.5-0.5,0.9-0.8,1.2C19.1,168.4,18.6,168.6,18.1,168.6z M18.1,167.7
						c0.4,0,0.8-0.2,1-0.6c0.2-0.4,0.4-1.1,0.4-1.9c0-0.5-0.1-1-0.2-1.4c-0.1-0.4-0.3-0.7-0.5-0.9c-0.2-0.2-0.5-0.3-0.8-0.3
						c-0.4,0-0.8,0.2-1,0.7s-0.4,1.1-0.4,1.9c0,0.5,0.1,1,0.2,1.4c0.1,0.4,0.3,0.7,0.5,0.9S17.8,167.7,18.1,167.7z"/>
				</g>
				<g>
					<path class="st1" d="M6.5,92.6c-0.4,0-0.8-0.1-1.2-0.2C5,92.2,4.7,92,4.5,91.7s-0.3-0.6-0.3-0.9h1c0,0.2,0.1,0.4,0.2,0.5
						c0.1,0.1,0.3,0.3,0.5,0.3c0.2,0.1,0.4,0.1,0.6,0.1c0.3,0,0.5,0,0.7-0.1s0.4-0.2,0.5-0.4c0.1-0.2,0.2-0.3,0.2-0.6
						c0-0.2-0.1-0.4-0.2-0.6c-0.1-0.2-0.3-0.3-0.5-0.4c-0.2-0.1-0.5-0.1-0.8-0.1H5.9v-0.8h0.6c0.2,0,0.5,0,0.6-0.1
						c0.2-0.1,0.3-0.2,0.4-0.4c0.1-0.2,0.2-0.3,0.2-0.5c0-0.2,0-0.4-0.1-0.5s-0.2-0.3-0.4-0.4c-0.2-0.1-0.4-0.1-0.6-0.1
						c-0.2,0-0.4,0-0.6,0.1c-0.2,0.1-0.3,0.2-0.4,0.3s-0.2,0.3-0.2,0.5h-1c0-0.4,0.1-0.7,0.3-0.9c0.2-0.3,0.5-0.5,0.8-0.6
						c0.3-0.2,0.7-0.2,1.1-0.2c0.4,0,0.8,0.1,1.1,0.2s0.5,0.4,0.7,0.6s0.2,0.6,0.2,0.9c0,0.4-0.1,0.7-0.3,0.9
						c-0.2,0.3-0.5,0.4-0.8,0.5v0.1c0.4,0.1,0.8,0.2,1,0.5c0.2,0.3,0.4,0.6,0.4,1c0,0.4-0.1,0.7-0.3,1c-0.2,0.3-0.5,0.5-0.8,0.7
						S7,92.6,6.5,92.6z"/>
					<path class="st1" d="M12.3,92.6c-0.5,0-0.9-0.1-1.3-0.4c-0.4-0.3-0.6-0.6-0.8-1.2c-0.2-0.5-0.3-1.1-0.3-1.8
						c0-0.7,0.1-1.3,0.3-1.8c0.2-0.5,0.5-0.9,0.8-1.1s0.8-0.4,1.3-0.4c0.5,0,0.9,0.1,1.3,0.4c0.4,0.3,0.6,0.6,0.8,1.1
						s0.3,1.1,0.3,1.8c0,0.7-0.1,1.3-0.3,1.8c-0.2,0.5-0.5,0.9-0.8,1.2C13.2,92.4,12.8,92.6,12.3,92.6z M12.3,91.7
						c0.4,0,0.8-0.2,1-0.6c0.2-0.4,0.4-1.1,0.4-1.9c0-0.5-0.1-1-0.2-1.4c-0.1-0.4-0.3-0.7-0.5-0.9c-0.2-0.2-0.5-0.3-0.8-0.3
						c-0.4,0-0.8,0.2-1,0.7s-0.4,1.1-0.4,1.9c0,0.5,0.1,1,0.2,1.4c0.1,0.4,0.3,0.7,0.5,0.9S12,91.7,12.3,91.7z"/>
					<path class="st1" d="M18.1,92.6c-0.5,0-0.9-0.1-1.3-0.4c-0.4-0.3-0.6-0.6-0.8-1.2c-0.2-0.5-0.3-1.1-0.3-1.8
						c0-0.7,0.1-1.3,0.3-1.8c0.2-0.5,0.5-0.9,0.8-1.1s0.8-0.4,1.3-0.4c0.5,0,0.9,0.1,1.3,0.4c0.4,0.3,0.6,0.6,0.8,1.1
						s0.3,1.1,0.3,1.8c0,0.7-0.1,1.3-0.3,1.8c-0.2,0.5-0.5,0.9-0.8,1.2C19.1,92.4,18.6,92.6,18.1,92.6z M18.1,91.7
						c0.4,0,0.8-0.2,1-0.6c0.2-0.4,0.4-1.1,0.4-1.9c0-0.5-0.1-1-0.2-1.4c-0.1-0.4-0.3-0.7-0.5-0.9c-0.2-0.2-0.5-0.3-0.8-0.3
						c-0.4,0-0.8,0.2-1,0.7s-0.4,1.1-0.4,1.9c0,0.5,0.1,1,0.2,1.4c0.1,0.4,0.3,0.7,0.5,0.9S17.8,91.7,18.1,91.7z"/>
				</g>
				<line class="st0" x1="30.3" y1="10" x2="24.1" y2="10"/>
				<g>
					<path class="st1" d="M6.6,14.5c-0.4,0-0.8-0.1-1.1-0.2c-0.3-0.2-0.6-0.4-0.8-0.6c-0.2-0.3-0.3-0.6-0.3-0.9h1
						c0,0.3,0.1,0.5,0.4,0.7c0.2,0.2,0.5,0.3,0.8,0.3c0.3,0,0.5-0.1,0.7-0.2c0.2-0.1,0.3-0.3,0.5-0.5s0.2-0.4,0.2-0.7
						c0-0.3-0.1-0.5-0.2-0.7s-0.3-0.4-0.5-0.5c-0.2-0.1-0.4-0.2-0.7-0.2c-0.2,0-0.4,0-0.6,0.1c-0.2,0.1-0.4,0.2-0.5,0.3l-0.9-0.1
						L5,7.8h3.6v0.8H5.8l-0.2,1.8h0c0.1-0.1,0.3-0.2,0.5-0.3s0.4-0.1,0.7-0.1c0.4,0,0.8,0.1,1.1,0.3c0.3,0.2,0.6,0.4,0.7,0.8
						c0.2,0.3,0.3,0.7,0.3,1.1c0,0.4-0.1,0.8-0.3,1.1S8.1,14,7.8,14.2C7.5,14.4,7.1,14.5,6.6,14.5z"/>
					<path class="st1" d="M12.3,14.5c-0.5,0-0.9-0.1-1.3-0.4c-0.4-0.3-0.6-0.6-0.8-1.2c-0.2-0.5-0.3-1.1-0.3-1.8
						c0-0.7,0.1-1.3,0.3-1.8c0.2-0.5,0.5-0.9,0.8-1.1s0.8-0.4,1.3-0.4c0.5,0,0.9,0.1,1.3,0.4c0.4,0.3,0.6,0.6,0.8,1.1
						s0.3,1.1,0.3,1.8c0,0.7-0.1,1.3-0.3,1.8c-0.2,0.5-0.5,0.9-0.8,1.2C13.2,14.4,12.8,14.5,12.3,14.5z M12.3,13.6
						c0.4,0,0.8-0.2,1-0.6c0.2-0.4,0.4-1.1,0.4-1.9c0-0.5-0.1-1-0.2-1.4c-0.1-0.4-0.3-0.7-0.5-0.9c-0.2-0.2-0.5-0.3-0.8-0.3
						c-0.4,0-0.8,0.2-1,0.7s-0.4,1.1-0.4,1.9c0,0.5,0.1,1,0.2,1.4c0.1,0.4,0.3,0.7,0.5,0.9S12,13.6,12.3,13.6z"/>
					<path class="st1" d="M18.1,14.5c-0.5,0-0.9-0.1-1.3-0.4c-0.4-0.3-0.6-0.6-0.8-1.2c-0.2-0.5-0.3-1.1-0.3-1.8
						c0-0.7,0.1-1.3,0.3-1.8c0.2-0.5,0.5-0.9,0.8-1.1s0.8-0.4,1.3-0.4c0.5,0,0.9,0.1,1.3,0.4c0.4,0.3,0.6,0.6,0.8,1.1
						s0.3,1.1,0.3,1.8c0,0.7-0.1,1.3-0.3,1.8c-0.2,0.5-0.5,0.9-0.8,1.2C19.1,14.4,18.6,14.5,18.1,14.5z M18.1,13.6
						c0.4,0,0.8-0.2,1-0.6c0.2-0.4,0.4-1.1,0.4-1.9c0-0.5-0.1-1-0.2-1.4c-0.1-0.4-0.3-0.7-0.5-0.9c-0.2-0.2-0.5-0.3-0.8-0.3
						c-0.4,0-0.8,0.2-1,0.7s-0.4,1.1-0.4,1.9c0,0.5,0.1,1,0.2,1.4c0.1,0.4,0.3,0.7,0.5,0.9S17.8,13.6,18.1,13.6z"/>
				</g>
			</g>
		</g>
		<g>
			<defs>
				<path id="SVGID_1_" d="M48.7,550.3c0,3.9-3.2,7-7,7h-1.6c-3.9,0-7-3.2-7-7V17.9c0-3.9,3.2-7,7-7h1.6c3.9,0,7,3.2,7,7V550.3z"/>
			</defs>
			<clipPath id="SVGID_00000140728434380837906190000002881342146547185831_">
				<use xlink:href="#SVGID_1_"  style="overflow:visible;"/>
			</clipPath>
			<g style="clip-path:url(#SVGID_00000140728434380837906190000002881342146547185831_);">
				<defs>
					<path id="SVGID_00000119078553257036535680000002240134197959820973_" d="M52.4,550.3c0,5.9-4.8,10.7-10.7,10.7h-1.6
						c-5.9,0-10.7-4.8-10.7-10.7V17.9c0-5.9,4.8-10.7,10.7-10.7h1.6c5.9,0,10.7,4.8,10.7,10.7V550.3z"/>
				</defs>
				<clipPath id="SVGID_00000106147508011737779760000011115023079774971823_">
					<use xlink:href="#SVGID_00000119078553257036535680000002240134197959820973_"  style="overflow:visible;"/>
				</clipPath>
				<g style="clip-path:url(#SVGID_00000106147508011737779760000011115023079774971823_);">
					<g>
						
							<rect x="3.1" y="421.2" transform="matrix(6.123234e-17 -1 1 6.123234e-17 -394.4492 476.2206)" class="st4" width="75.5" height="28.3"/>
						
							<rect x="2.1" y="344.8" transform="matrix(6.123234e-17 -1 1 6.123234e-17 -318.0256 399.7971)" class="st5" width="77.5" height="28.3"/>
						
							<rect x="0.3" y="510.5" transform="matrix(6.123234e-17 -1 1 6.123234e-17 -483.7181 565.4896)" class="st6" width="81.1" height="28.3"/>
						
							<rect x="2.1" y="267.2" transform="matrix(6.123234e-17 -1 1 6.123234e-17 -240.4268 322.1982)" class="st7" width="77.5" height="28.3"/>
						
							<rect x="2.1" y="190.4" transform="matrix(6.123234e-17 -1 1 6.123234e-17 -163.6239 245.3954)" class="st8" width="77.5" height="28.3"/>
						
							<rect x="2.1" y="112.5" transform="matrix(6.123234e-17 -1 1 6.123234e-17 -85.7852 167.5566)" class="st9" width="77.5" height="28.3"/>
						
							<rect x="-1.2" y="31.8" transform="matrix(6.123234e-17 -1 1 6.123234e-17 -5.1 86.8714)" class="st10" width="84.3" height="28.3"/>
					</g>
				</g>
				
					<line style="clip-path:url(#SVGID_00000106147508011737779760000011115023079774971823_);fill:none;stroke:#FFFFFF;stroke-width:0.5334;stroke-miterlimit:10;" x1="52.2" y1="397.7" x2="29.6" y2="397.7"/>
				
					<line style="clip-path:url(#SVGID_00000106147508011737779760000011115023079774971823_);fill:none;stroke:#FFFFFF;stroke-width:0.5334;stroke-miterlimit:10;" x1="52.2" y1="320.1" x2="29.6" y2="320.1"/>
				
					<line style="clip-path:url(#SVGID_00000106147508011737779760000011115023079774971823_);fill:none;stroke:#FFFFFF;stroke-width:0.5334;stroke-miterlimit:10;" x1="52.2" y1="243.3" x2="29.6" y2="243.3"/>
				
					<line style="clip-path:url(#SVGID_00000106147508011737779760000011115023079774971823_);fill:none;stroke:#FFFFFF;stroke-width:0.5334;stroke-miterlimit:10;" x1="52.2" y1="165.4" x2="29.6" y2="165.4"/>
				
					<line style="clip-path:url(#SVGID_00000106147508011737779760000011115023079774971823_);fill:none;stroke:#FFFFFF;stroke-width:0.5334;stroke-miterlimit:10;" x1="52.2" y1="88.1" x2="29.6" y2="88.1"/>
			</g>
		</g>
	</g>
	<g>
		<path class="st1" d="M57,16.7V9.5h1.1v3.2h3.6V9.5h1.1v7.3h-1.1v-3.2h-3.6v3.2H57z"/>
		<path class="st1" d="M65.9,16.8c-0.3,0-0.7-0.1-0.9-0.2c-0.3-0.1-0.5-0.3-0.7-0.6c-0.2-0.2-0.2-0.5-0.2-0.9c0-0.3,0.1-0.6,0.2-0.8
			c0.1-0.2,0.3-0.4,0.5-0.5s0.4-0.2,0.7-0.3s0.5-0.1,0.8-0.1c0.3,0,0.6-0.1,0.8-0.1s0.4-0.1,0.4-0.1c0.1-0.1,0.1-0.1,0.1-0.3v0
			c0-0.3-0.1-0.5-0.3-0.7c-0.2-0.2-0.4-0.3-0.8-0.3c-0.4,0-0.6,0.1-0.8,0.2c-0.2,0.2-0.3,0.3-0.4,0.5l-1-0.2
			c0.1-0.3,0.3-0.6,0.5-0.8c0.2-0.2,0.5-0.4,0.8-0.4c0.3-0.1,0.6-0.1,0.9-0.1c0.2,0,0.4,0,0.7,0.1s0.5,0.1,0.7,0.3
			c0.2,0.1,0.4,0.3,0.5,0.6c0.1,0.2,0.2,0.6,0.2,1v3.6h-1V16h0c-0.1,0.1-0.2,0.3-0.3,0.4c-0.1,0.1-0.3,0.2-0.5,0.3
			S66.2,16.8,65.9,16.8z M66.1,16c0.3,0,0.5-0.1,0.8-0.2c0.2-0.1,0.4-0.3,0.5-0.5c0.1-0.2,0.2-0.4,0.2-0.6v-0.7c0,0-0.1,0.1-0.2,0.1
			c-0.1,0-0.2,0.1-0.4,0.1c-0.1,0-0.3,0-0.4,0.1s-0.2,0-0.3,0c-0.2,0-0.4,0.1-0.6,0.1s-0.3,0.1-0.4,0.3s-0.2,0.3-0.2,0.5
			c0,0.3,0.1,0.5,0.3,0.6C65.6,15.9,65.8,16,66.1,16z"/>
		<path class="st1" d="M69.9,16.7V16l2.9-3.7v0H70v-0.9h4.2V12l-2.8,3.7v0h2.9v0.9H69.9z"/>
		<path class="st1" d="M77.1,16.8c-0.3,0-0.7-0.1-0.9-0.2c-0.3-0.1-0.5-0.3-0.7-0.6c-0.2-0.2-0.2-0.5-0.2-0.9c0-0.3,0.1-0.6,0.2-0.8
			c0.1-0.2,0.3-0.4,0.5-0.5s0.4-0.2,0.7-0.3s0.5-0.1,0.8-0.1c0.3,0,0.6-0.1,0.8-0.1s0.4-0.1,0.4-0.1c0.1-0.1,0.1-0.1,0.1-0.3v0
			c0-0.3-0.1-0.5-0.3-0.7c-0.2-0.2-0.4-0.3-0.8-0.3c-0.4,0-0.6,0.1-0.8,0.2c-0.2,0.2-0.3,0.3-0.4,0.5l-1-0.2
			c0.1-0.3,0.3-0.6,0.5-0.8c0.2-0.2,0.5-0.4,0.8-0.4c0.3-0.1,0.6-0.1,0.9-0.1c0.2,0,0.4,0,0.7,0.1s0.5,0.1,0.7,0.3
			c0.2,0.1,0.4,0.3,0.5,0.6c0.1,0.2,0.2,0.6,0.2,1v3.6h-1V16h0c-0.1,0.1-0.2,0.3-0.3,0.4c-0.1,0.1-0.3,0.2-0.5,0.3
			S77.4,16.8,77.1,16.8z M77.3,16c0.3,0,0.5-0.1,0.8-0.2c0.2-0.1,0.4-0.3,0.5-0.5c0.1-0.2,0.2-0.4,0.2-0.6v-0.7c0,0-0.1,0.1-0.2,0.1
			c-0.1,0-0.2,0.1-0.4,0.1c-0.1,0-0.3,0-0.4,0.1s-0.2,0-0.3,0c-0.2,0-0.4,0.1-0.6,0.1s-0.3,0.1-0.4,0.3s-0.2,0.3-0.2,0.5
			c0,0.3,0.1,0.5,0.3,0.6C76.8,15.9,77,16,77.3,16z"/>
		<path class="st1" d="M81.2,16.7v-5.4h1v0.9h0.1c0.1-0.3,0.3-0.5,0.5-0.7s0.5-0.3,0.9-0.3c0.1,0,0.1,0,0.2,0c0.1,0,0.2,0,0.2,0v1
			c0,0-0.1,0-0.2,0c-0.1,0-0.2,0-0.3,0c-0.3,0-0.5,0.1-0.7,0.2c-0.2,0.1-0.3,0.2-0.5,0.4s-0.2,0.4-0.2,0.6v3.3H81.2z"/>
		<path class="st1" d="M87.1,16.8c-0.4,0-0.8-0.1-1.2-0.3s-0.6-0.5-0.8-1c-0.2-0.4-0.3-0.9-0.3-1.5s0.1-1.1,0.3-1.5
			c0.2-0.4,0.5-0.7,0.8-1s0.7-0.3,1.2-0.3c0.3,0,0.6,0.1,0.8,0.2c0.2,0.1,0.4,0.2,0.5,0.4s0.2,0.3,0.3,0.4h0.1V9.5h1.1v7.3h-1v-0.8
			h-0.1c-0.1,0.1-0.2,0.2-0.3,0.4c-0.1,0.1-0.3,0.3-0.5,0.4C87.7,16.8,87.4,16.8,87.1,16.8z M87.3,15.9c0.3,0,0.6-0.1,0.8-0.2
			c0.2-0.2,0.4-0.4,0.5-0.7c0.1-0.3,0.2-0.6,0.2-1c0-0.4-0.1-0.7-0.2-1c-0.1-0.3-0.3-0.5-0.5-0.7c-0.2-0.2-0.5-0.2-0.8-0.2
			c-0.3,0-0.6,0.1-0.8,0.2S86.1,12.7,86,13c-0.1,0.3-0.2,0.6-0.2,1c0,0.4,0.1,0.7,0.2,1s0.3,0.5,0.5,0.7S87,15.9,87.3,15.9z"/>
		<path class="st1" d="M93.6,16.8c-0.5,0-1-0.1-1.3-0.4c-0.4-0.2-0.7-0.6-0.9-1S91,14.6,91,14c0-0.6,0.1-1.1,0.3-1.5s0.5-0.8,0.9-1
			c0.4-0.2,0.8-0.4,1.3-0.4c0.5,0,1,0.1,1.3,0.4c0.4,0.2,0.7,0.6,0.9,1c0.2,0.4,0.3,0.9,0.3,1.5c0,0.6-0.1,1.1-0.3,1.5
			c-0.2,0.4-0.5,0.7-0.9,1C94.5,16.7,94.1,16.8,93.6,16.8z M93.6,15.9c0.3,0,0.6-0.1,0.8-0.3c0.2-0.2,0.4-0.4,0.5-0.7s0.2-0.6,0.2-1
			c0-0.3-0.1-0.7-0.2-1c-0.1-0.3-0.3-0.5-0.5-0.7c-0.2-0.2-0.5-0.3-0.8-0.3c-0.3,0-0.6,0.1-0.8,0.3c-0.2,0.2-0.4,0.4-0.5,0.7
			c-0.1,0.3-0.2,0.6-0.2,1c0,0.3,0.1,0.7,0.2,1c0.1,0.3,0.3,0.5,0.5,0.7C92.9,15.9,93.2,15.9,93.6,15.9z"/>
		<path class="st1" d="M100.7,14.5v-3.2h1.1v5.4h-1v-0.9h-0.1c-0.1,0.3-0.3,0.5-0.6,0.7c-0.3,0.2-0.6,0.3-1,0.3
			c-0.3,0-0.7-0.1-0.9-0.2c-0.3-0.2-0.5-0.4-0.6-0.7s-0.2-0.7-0.2-1.1v-3.5h1.1v3.3c0,0.4,0.1,0.7,0.3,0.9s0.5,0.3,0.8,0.3
			c0.2,0,0.4,0,0.6-0.1c0.2-0.1,0.4-0.2,0.5-0.4C100.7,15,100.7,14.8,100.7,14.5z"/>
		<path class="st1" d="M107.3,12.6l-1,0.2c0-0.1-0.1-0.2-0.2-0.4c-0.1-0.1-0.2-0.2-0.3-0.3s-0.3-0.1-0.5-0.1c-0.3,0-0.6,0.1-0.8,0.2
			c-0.2,0.1-0.3,0.3-0.3,0.5c0,0.2,0.1,0.3,0.2,0.4c0.1,0.1,0.4,0.2,0.7,0.3l0.9,0.2c0.5,0.1,0.9,0.3,1.1,0.5
			c0.2,0.2,0.4,0.6,0.4,0.9c0,0.3-0.1,0.6-0.3,0.9c-0.2,0.3-0.4,0.5-0.8,0.6c-0.3,0.1-0.7,0.2-1.2,0.2c-0.6,0-1.1-0.1-1.5-0.4
			c-0.4-0.3-0.6-0.6-0.7-1.1l1-0.2c0.1,0.3,0.2,0.5,0.4,0.6s0.5,0.2,0.8,0.2c0.3,0,0.6-0.1,0.8-0.2c0.2-0.1,0.3-0.3,0.3-0.5
			c0-0.2-0.1-0.3-0.2-0.4c-0.1-0.1-0.3-0.2-0.6-0.3l-0.9-0.2c-0.5-0.1-0.9-0.3-1.1-0.6c-0.2-0.3-0.4-0.6-0.4-1
			c0-0.3,0.1-0.6,0.3-0.8c0.2-0.2,0.4-0.4,0.7-0.6s0.7-0.2,1.1-0.2c0.6,0,1.1,0.1,1.4,0.4S107.2,12.2,107.3,12.6z"/>
	</g>
	<g>
		<path class="st1" d="M61.9,468.8c-0.1-0.2-0.2-0.4-0.3-0.6s-0.3-0.3-0.4-0.4s-0.3-0.2-0.5-0.3s-0.4-0.1-0.7-0.1
			c-0.4,0-0.8,0.1-1.1,0.3c-0.3,0.2-0.6,0.5-0.8,0.9c-0.2,0.4-0.3,0.9-0.3,1.5c0,0.6,0.1,1.1,0.3,1.5s0.5,0.7,0.8,0.9
			c0.3,0.2,0.7,0.3,1.1,0.3c0.4,0,0.7-0.1,1-0.2c0.3-0.2,0.5-0.4,0.7-0.7c0.2-0.3,0.2-0.6,0.2-1l0.3,0.1h-2.1v-0.9h2.9v0.8
			c0,0.6-0.1,1.1-0.4,1.6c-0.3,0.4-0.6,0.8-1.1,1c-0.5,0.2-1,0.4-1.6,0.4c-0.7,0-1.2-0.2-1.7-0.5c-0.5-0.3-0.9-0.7-1.2-1.3
			s-0.4-1.2-0.4-2c0-0.6,0.1-1.1,0.2-1.6c0.2-0.5,0.4-0.9,0.7-1.2c0.3-0.3,0.6-0.6,1-0.7s0.8-0.3,1.3-0.3c0.4,0,0.8,0.1,1.1,0.2
			c0.3,0.1,0.6,0.3,0.9,0.5s0.5,0.5,0.7,0.8s0.3,0.6,0.4,1H61.9z"/>
		<path class="st1" d="M66.7,473.9c-0.5,0-1-0.1-1.3-0.4c-0.4-0.2-0.7-0.6-0.9-1c-0.2-0.4-0.3-0.9-0.3-1.5c0-0.6,0.1-1.1,0.3-1.5
			c0.2-0.4,0.5-0.8,0.9-1c0.4-0.2,0.8-0.4,1.3-0.4s1,0.1,1.3,0.4c0.4,0.2,0.7,0.6,0.9,1c0.2,0.4,0.3,0.9,0.3,1.5
			c0,0.6-0.1,1.1-0.3,1.5c-0.2,0.4-0.5,0.7-0.9,1C67.6,473.8,67.2,473.9,66.7,473.9z M66.7,473c0.3,0,0.6-0.1,0.8-0.3
			s0.4-0.4,0.5-0.7c0.1-0.3,0.2-0.6,0.2-1c0-0.3-0.1-0.7-0.2-1c-0.1-0.3-0.3-0.5-0.5-0.7c-0.2-0.2-0.5-0.3-0.8-0.3
			c-0.3,0-0.6,0.1-0.8,0.3c-0.2,0.2-0.4,0.4-0.5,0.7c-0.1,0.3-0.2,0.6-0.2,1c0,0.3,0.1,0.7,0.2,1c0.1,0.3,0.3,0.5,0.5,0.7
			C66.1,472.9,66.3,473,66.7,473z"/>
		<path class="st1" d="M72.7,473.9c-0.5,0-1-0.1-1.3-0.4c-0.4-0.2-0.7-0.6-0.9-1c-0.2-0.4-0.3-0.9-0.3-1.5c0-0.6,0.1-1.1,0.3-1.5
			c0.2-0.4,0.5-0.8,0.9-1c0.4-0.2,0.8-0.4,1.3-0.4s1,0.1,1.3,0.4c0.4,0.2,0.7,0.6,0.9,1c0.2,0.4,0.3,0.9,0.3,1.5
			c0,0.6-0.1,1.1-0.3,1.5c-0.2,0.4-0.5,0.7-0.9,1C73.6,473.8,73.2,473.9,72.7,473.9z M72.7,473c0.3,0,0.6-0.1,0.8-0.3
			s0.4-0.4,0.5-0.7c0.1-0.3,0.2-0.6,0.2-1c0-0.3-0.1-0.7-0.2-1c-0.1-0.3-0.3-0.5-0.5-0.7c-0.2-0.2-0.5-0.3-0.8-0.3
			c-0.3,0-0.6,0.1-0.8,0.3c-0.2,0.2-0.4,0.4-0.5,0.7c-0.1,0.3-0.2,0.6-0.2,1c0,0.3,0.1,0.7,0.2,1c0.1,0.3,0.3,0.5,0.5,0.7
			C72.1,472.9,72.4,473,72.7,473z"/>
		<path class="st1" d="M78.4,473.9c-0.4,0-0.8-0.1-1.2-0.3s-0.6-0.5-0.8-1c-0.2-0.4-0.3-0.9-0.3-1.5s0.1-1.1,0.3-1.5s0.5-0.7,0.8-1
			s0.7-0.3,1.2-0.3c0.3,0,0.6,0.1,0.8,0.2s0.4,0.2,0.5,0.4c0.1,0.1,0.2,0.3,0.3,0.4h0.1v-2.7h1.1v7.3h-1v-0.8H80
			c-0.1,0.1-0.2,0.2-0.3,0.4c-0.1,0.1-0.3,0.3-0.5,0.4C79,473.8,78.8,473.9,78.4,473.9z M78.7,473c0.3,0,0.6-0.1,0.8-0.2
			s0.4-0.4,0.5-0.7s0.2-0.6,0.2-1c0-0.4-0.1-0.7-0.2-1c-0.1-0.3-0.3-0.5-0.5-0.7c-0.2-0.2-0.5-0.2-0.8-0.2c-0.3,0-0.6,0.1-0.8,0.2
			c-0.2,0.2-0.4,0.4-0.5,0.7c-0.1,0.3-0.2,0.6-0.2,1c0,0.4,0.1,0.7,0.2,1c0.1,0.3,0.3,0.5,0.5,0.7C78.1,472.9,78.4,473,78.7,473z"/>
	</g>
	<g>
		<path class="st1" d="M62.9,550.1v7.3h-1l-3.7-5.3h-0.1v5.3H57v-7.3h1l3.7,5.3h0.1v-5.3H62.9z"/>
		<path class="st1" d="M67.2,549.7l-2.3,8.7h-0.9l2.3-8.7H67.2z"/>
		<path class="st1" d="M68.8,557.3h-1.2l2.6-7.3h1.3l2.6,7.3h-1.2l-2.1-6h-0.1L68.8,557.3z M69,554.5h3.8v0.9H69V554.5z"/>
	</g>
</g>
</svg>
