<?xml version="1.0" encoding="utf-8"?>
<!-- Generator: Adobe Illustrator 28.1.0, SVG Export Plug-In . SVG Version: 6.00 Build 0)  -->
<svg version="1.1" id="Layer_1" xmlns="http://www.w3.org/2000/svg" xmlns:xlink="http://www.w3.org/1999/xlink" x="0px" y="0px"
	 viewBox="0 0 827 806" style="enable-background:new 0 0 827 806;" xml:space="preserve">
<style type="text/css">
	.st0{clip-path:url(#SVGID_00000131345381642538480570000012901038343079241131_);}
	.st1{fill:#FFE12D;}
	.st2{fill:#4F4F4F;}
	.st3{fill:#00C800;stroke:#73E173;stroke-miterlimit:10;}
	.st4{fill:#FA0A00;stroke:#FC7873;stroke-miterlimit:10;}
	.st5{fill:#FFE12D;stroke:#FFEE8B;stroke-miterlimit:10;}
</style>
<g>
	<defs>
		<polygon id="SVGID_1_" points="5.2,4.8 821.3,4.9 821.3,797 5.2,797 		"/>
	</defs>
	<clipPath id="SVGID_00000018925145810371746210000007389924330620093340_">
		<use xlink:href="#SVGID_1_"  style="overflow:visible;"/>
	</clipPath>
	<g style="clip-path:url(#SVGID_00000018925145810371746210000007389924330620093340_);">
		<g id="map_x5F_V2.psd_00000031893389650427413360000015536698209681370299_">
			
				<image style="overflow:visible;" width="1000" height="984" id="map_x5F_V2" xlink:href="405858CB.png"  transform="matrix(0.8207 0 0 0.8207 0.67 13.5939)">
			</image>
		</g>
		<g>
			<g>
				<circle class="st1" cx="596.1" cy="317.1" r="15.8"/>
				<g>
					<g>
						<path class="st2" d="M591.9,312c0.4,0,0.9,0.1,1.3,0.2c0.4,0.2,0.8,0.4,1.1,0.7s0.6,0.8,0.8,1.3c0.2,0.5,0.3,1.2,0.3,2
							c0,0.7-0.1,1.4-0.2,2c-0.2,0.6-0.4,1.1-0.7,1.5s-0.7,0.7-1.1,0.9c-0.4,0.2-0.9,0.3-1.5,0.3c-0.6,0-1.1-0.1-1.5-0.3
							c-0.4-0.2-0.8-0.5-1.1-0.9s-0.4-0.8-0.5-1.3h1.8c0.1,0.3,0.2,0.6,0.4,0.7c0.2,0.2,0.5,0.3,0.8,0.3c0.6,0,1-0.2,1.3-0.7
							c0.3-0.5,0.4-1.2,0.4-2h-0.1c-0.1,0.3-0.3,0.5-0.5,0.7s-0.5,0.3-0.8,0.4c-0.3,0.1-0.6,0.1-0.9,0.1c-0.5,0-1-0.1-1.4-0.4
							c-0.4-0.2-0.7-0.6-1-1c-0.2-0.4-0.3-0.9-0.3-1.4c0-0.6,0.1-1.1,0.4-1.6c0.3-0.5,0.7-0.8,1.1-1.1S591.3,312,591.9,312z
							 M591.9,313.4c-0.3,0-0.5,0.1-0.8,0.2c-0.2,0.1-0.4,0.3-0.5,0.5c-0.1,0.2-0.2,0.5-0.2,0.8c0,0.3,0.1,0.5,0.2,0.8
							c0.1,0.2,0.3,0.4,0.5,0.5c0.2,0.1,0.5,0.2,0.8,0.2c0.2,0,0.4,0,0.6-0.1s0.3-0.2,0.5-0.3s0.2-0.3,0.3-0.5
							c0.1-0.2,0.1-0.4,0.1-0.6c0-0.3-0.1-0.5-0.2-0.8c-0.1-0.2-0.3-0.4-0.5-0.6S592.2,313.4,591.9,313.4z"/>
						<path class="st2" d="M600.1,321c-0.7,0-1.4-0.2-1.9-0.5c-0.5-0.4-0.9-0.9-1.2-1.6c-0.3-0.7-0.4-1.5-0.4-2.5
							c0-1,0.1-1.8,0.4-2.4c0.3-0.7,0.7-1.2,1.2-1.5c0.5-0.4,1.2-0.5,1.9-0.5c0.7,0,1.4,0.2,1.9,0.5c0.5,0.4,0.9,0.9,1.2,1.5
							s0.4,1.5,0.4,2.4c0,1-0.1,1.8-0.4,2.5c-0.3,0.7-0.7,1.2-1.2,1.6C601.5,320.8,600.8,321,600.1,321z M600.1,319.5
							c0.5,0,0.9-0.3,1.2-0.8c0.3-0.5,0.4-1.3,0.4-2.3c0-0.7-0.1-1.2-0.2-1.7c-0.1-0.4-0.3-0.8-0.6-1c-0.2-0.2-0.5-0.3-0.9-0.3
							c-0.5,0-0.9,0.2-1.2,0.7c-0.3,0.5-0.4,1.2-0.5,2.2c0,0.7,0.1,1.2,0.2,1.7c0.1,0.4,0.3,0.8,0.6,1
							C599.5,319.4,599.8,319.5,600.1,319.5z"/>
					</g>
				</g>
			</g>
		</g>
		<g>
			<g>
				<circle class="st3" cx="725.1" cy="342.2" r="15.8"/>
				<circle class="st3" cx="678.1" cy="349.3" r="15.8"/>
				<circle class="st3" cx="366.7" cy="738.5" r="15.8"/>
			</g>
		</g>
		<g>
			<g>
				<circle class="st4" cx="629.2" cy="268.8" r="15.8"/>
				<circle class="st5" cx="670.1" cy="277.9" r="15.8"/>
			</g>
		</g>
		<g>
			<g>
				<circle class="st1" cx="598.2" cy="320.8" r="25"/>
				<g>
					<g>
						<path class="st2" d="M590.6,311.5c0.8,0,1.6,0.1,2.3,0.4c0.8,0.3,1.4,0.7,2,1.3c0.6,0.6,1.1,1.4,1.4,2.4s0.5,2.2,0.5,3.6
							c0,1.3-0.2,2.5-0.5,3.6c-0.3,1-0.7,1.9-1.3,2.7c-0.6,0.7-1.2,1.3-2,1.7c-0.8,0.4-1.7,0.6-2.6,0.6c-1.1,0-2-0.2-2.8-0.6
							c-0.8-0.4-1.5-1-1.9-1.7c-0.5-0.7-0.8-1.5-0.9-2.4h3.3c0.1,0.6,0.4,1,0.8,1.3s0.9,0.5,1.5,0.5c1,0,1.8-0.4,2.3-1.3
							c0.5-0.9,0.8-2.1,0.8-3.7h-0.1c-0.2,0.5-0.6,0.9-1,1.2c-0.4,0.3-0.9,0.6-1.4,0.8c-0.5,0.2-1.1,0.3-1.6,0.3
							c-0.9,0-1.8-0.2-2.5-0.7c-0.7-0.4-1.3-1-1.7-1.8s-0.6-1.6-0.6-2.6c0-1.1,0.2-2,0.7-2.8c0.5-0.8,1.2-1.5,2.1-1.9
							C588.4,311.7,589.4,311.5,590.6,311.5z M590.6,314.1c-0.5,0-1,0.1-1.4,0.4c-0.4,0.2-0.7,0.6-1,1c-0.2,0.4-0.3,0.9-0.3,1.4
							c0,0.5,0.1,1,0.3,1.4c0.2,0.4,0.5,0.7,0.9,1c0.4,0.2,0.9,0.4,1.4,0.4c0.4,0,0.7-0.1,1.1-0.2c0.3-0.1,0.6-0.3,0.9-0.6
							c0.2-0.3,0.4-0.5,0.6-0.9c0.1-0.3,0.2-0.7,0.2-1.1c0-0.5-0.1-1-0.4-1.4c-0.2-0.4-0.5-0.7-1-1
							C591.6,314.2,591.1,314.1,590.6,314.1z"/>
						<path class="st2" d="M605.4,327.8c-1.3,0-2.5-0.3-3.4-1c-1-0.6-1.7-1.6-2.2-2.8c-0.5-1.2-0.8-2.7-0.8-4.4
							c0-1.7,0.3-3.2,0.8-4.4s1.2-2.1,2.2-2.8c1-0.6,2.1-1,3.4-1s2.5,0.3,3.4,1c1,0.6,1.7,1.6,2.2,2.8s0.8,2.7,0.8,4.4
							c0,1.7-0.3,3.2-0.8,4.4c-0.5,1.2-1.2,2.2-2.2,2.8S606.7,327.8,605.4,327.8z M605.4,325c0.9,0,1.6-0.5,2.2-1.4
							c0.5-0.9,0.8-2.3,0.8-4.1c0-1.2-0.1-2.2-0.4-3s-0.6-1.4-1-1.8c-0.4-0.4-1-0.6-1.6-0.6c-0.9,0-1.6,0.4-2.2,1.3
							c-0.5,0.9-0.8,2.2-0.8,4c0,1.2,0.1,2.2,0.4,3c0.2,0.8,0.6,1.4,1,1.8C604.2,324.8,604.8,325,605.4,325z"/>
					</g>
				</g>
			</g>
		</g>
	</g>
</g>
</svg>
