<?xml version="1.0" encoding="utf-8"?>
<!-- Generator: Adobe Illustrator 28.1.0, SVG Export Plug-In . SVG Version: 6.00 Build 0)  -->
<svg version="1.1" id="Layer_1" xmlns="http://www.w3.org/2000/svg" xmlns:xlink="http://www.w3.org/1999/xlink" x="0px" y="0px"
	 viewBox="0 0 765 195" style="enable-background:new 0 0 765 195;" xml:space="preserve">
<style type="text/css">
	.st0{fill:none;stroke:#FFFFFF;stroke-width:0.5345;stroke-miterlimit:10;}
	.st1{opacity:0.2;}
	.st2{fill:#E7E7E7;}
	.st3{fill:#FFFFFF;}
	.st4{fill:#E9F8F7;enable-background:new    ;}
	.st5{fill:none;stroke:#888888;}
	.st6{fill:none;stroke:#E7E7E7;}
	.st7{fill:#00C800;}
	.st8{fill:#4F4F4F;}
	.st9{fill:#E9F8F7;stroke:#25B5B1;enable-background:new    ;}
	.st10{fill:#FA0A00;}
	.st11{fill:#FFE12D;}
	.st12{fill:#C3C3C3;}
	.st13{fill:none;stroke:#FFFFFF;stroke-width:3.3297;stroke-linecap:round;stroke-linejoin:round;stroke-miterlimit:10;}
	.st14{fill:#25B5B1;}
	.st15{fill:#25B5B1;stroke:#D1D1D1;stroke-width:1.377;stroke-linecap:round;stroke-linejoin:round;stroke-miterlimit:10;}
</style>
<line class="st0" x1="185.5" y1="11.7" x2="185.5" y2="-11"/>
<g class="st1">
	<g>
		<g>
			<path class="st2" d="M20.6,8.7h722.9c7.3,0,13.2,6.9,13.2,15.5v146c0,8.6-5.9,15.5-13.2,15.5H20.6c-7.3,0-13.2-6.9-13.2-15.5
				v-146C7.4,15.7,13.3,8.7,20.6,8.7z"/>
		</g>
	</g>
</g>
<g>
	<g>
		<path class="st3" d="M297.5,55.5c-0.2-0.3-0.4-0.4-0.7-0.5h-0.1l0,0c0-0.2,0.1-0.5,0.2-0.7c0-0.1,0.1-0.2,0.1-0.3
			c0.1-0.5,0.2-0.9,0.2-1.4c0.1-1.3,0-2.4-0.4-3.3c-0.4-1-1.2-1.8-2.2-2.3c-0.1,0-0.1,0-0.2,0c0.2-0.1,0.5-0.4,0.8-0.7
			c0.1-0.1,0-0.2,0-0.3c-0.1-0.1-0.2,0-0.3,0c-0.7,0.9-1.4,0.7-1.4,0.7c-0.1,0-0.2,0-0.2,0.1s0,0.2,0.1,0.2c0,0,0.1,0,0.2,0
			c0.2,0,0.4,0,0.7-0.2c0,0,0,0.1-0.1,0.1c-0.1,0.1,0,0.3,0.1,0.4c0.9,0.5,1.6,1.2,2,2c0.3,0.8,0.5,1.8,0.3,3c0,0.4-0.1,0.9-0.2,1.3
			c0,0,0,0.1-0.1,0.3s-0.1,0.4-0.2,0.5c-0.1-1.1-1.1-1.9-1.7-2.4l-0.1-0.1c-0.3-0.2-0.6-0.4-0.9-0.6c-0.2-0.1-0.3-0.2-0.5-0.3
			c-0.5-0.4-0.8-0.7-0.7-1.1c0-0.1-0.1-0.2-0.2-0.2c-0.1,0-0.2,0.1-0.2,0.2c0,0.5,0.3,1,0.9,1.4c0.2,0.1,0.3,0.2,0.5,0.3
			c0.3,0.2,0.6,0.4,0.9,0.6l0.1,0.1c0.6,0.5,1.6,1.3,1.6,2.2c0,0.1,0.1,0.2,0.2,0.2h0.1c0,0.2,0,0.4,0.2,0.5
			c0.1,0.1,0.3,0.1,0.4,0.1h0.1c0.1,0,0.3,0.1,0.3,0.2s0.1,0.3,0.1,0.4l-0.4,1.7c-0.1,0.4-0.5,0.6-0.9,0.6l0,0l0.6-2
			c0-0.2,0-0.3-0.2-0.4c-0.2,0-0.3,0-0.4,0.2l-0.7,2.3c-1.1,3-2.8,4.5-5.1,4.5s-4-1.5-5.1-4.5l-0.7-2.3c0-0.2-0.2-0.2-0.4-0.2
			s-0.2,0.2-0.2,0.4l0.6,2l0,0c-0.4,0.1-0.8-0.2-0.9-0.6l-0.4-1.7c0-0.1,0-0.3,0.1-0.4c0.1-0.1,0.2-0.2,0.3-0.2h0.1
			c0.1,0,0.5,0,0.5-0.4c0,0.1,0.1,0.1,0.2,0.1l0,0c0.6,0,0.9-0.5,1.1-0.9c0.2-0.4,0.2-0.8,0.2-1.1c0-0.2,0-0.4,0.1-0.6
			c0.1-0.8,0.7-1.6,1.4-2c0.4-0.2,0.8-0.4,1.4-0.4c0.4,0,0.8,0,1.2,0c0.2,0,0.4,0,0.5,0c0.3,0,0.6,0,0.9-0.1
			c0.2-0.1,0.7-0.2,0.8-0.5c0-0.1,0-0.2-0.1-0.3c-0.1,0-0.2,0-0.3,0.1c-0.1,0.2-0.4,0.3-0.6,0.3c-0.3,0.1-0.6,0.1-0.9,0.1
			c-0.2,0-0.3,0-0.5,0c-0.4,0-0.8,0-1.2,0c-0.6,0.1-1.1,0.2-1.5,0.5c-0.8,0.5-1.4,1.4-1.6,2.3c0,0.2,0,0.4-0.1,0.6
			c0,0.4-0.1,0.7-0.2,1c-0.1,0.3-0.4,0.7-0.8,0.7c-0.1,0-0.1,0-0.2,0.1c0-0.2-0.1-0.5-0.2-0.7c0-0.1-0.1-0.3-0.1-0.4
			c-0.4-1.7-0.4-3.2,0.1-4.4c0.9-2.2,3.4-2.6,5.4-2.6c0,0,1.1,0,2.4-0.1c1.7-0.2,2.9-0.5,3.5-0.9c0.1-0.1,0.1-0.3,0-0.4
			s-0.3-0.1-0.4,0c-1,0.8-4.3,0.9-5.5,0.9c-1.3,0-2.4,0.2-3.4,0.6c-1.2,0.5-2,1.3-2.5,2.4c-0.6,1.3-0.6,2.9-0.2,4.7
			c0,0.1,0.1,0.3,0.1,0.4c0.1,0.2,0.1,0.4,0.2,0.5l0,0c0,0-0.1,0-0.2,0c-0.3,0-0.6,0.2-0.7,0.5c-0.2,0.3-0.2,0.6-0.1,0.9l0.4,1.7
			c0.2,0.7,0.8,1.1,1.5,1h0.1c0.5,1.3,1.2,2.4,1.9,3.1c1,1,2.2,1.5,3.6,1.5c1.4,0,2.6-0.5,3.6-1.5c0.8-0.8,1.4-1.8,1.9-3.1h0.1
			c0.7,0.1,1.3-0.3,1.5-1l0.4-1.7C297.7,56.1,297.7,55.8,297.5,55.5z"/>
		<path class="st3" d="M287.4,55v0.7c0,0.2,0.1,0.3,0.3,0.3s0.3-0.1,0.3-0.3V55c0-0.2-0.1-0.3-0.3-0.3S287.4,54.8,287.4,55z"/>
		<path class="st3" d="M288.3,54.2c0.1,0.1,0.2,0.1,0.3,0s0.1-0.2,0-0.3c-0.2-0.3-0.6-0.4-1.1-0.4s-1,0.2-1.2,0.6
			c0,0.1,0,0.2,0.1,0.3h0.1c0.1,0,0.1,0,0.2-0.1c0.1-0.2,0.4-0.4,0.8-0.4C287.8,53.9,288.1,54,288.3,54.2z"/>
		<path class="st3" d="M292.3,54.7c-0.2,0-0.3,0.1-0.3,0.3v0.7c0,0.2,0.1,0.3,0.3,0.3l0,0c0.2,0,0.3-0.1,0.3-0.3V55
			C292.7,54.8,292.5,54.7,292.3,54.7L292.3,54.7z"/>
		<path class="st3" d="M293.4,54.3c0,0.1,0.1,0.1,0.2,0.1h0.1c0.1,0,0.1-0.2,0.1-0.3c-0.2-0.4-0.6-0.6-1.2-0.6
			c-0.4,0-0.9,0.2-1.1,0.4c-0.1,0.1-0.1,0.2,0,0.3s0.2,0.1,0.3,0c0.1-0.2,0.4-0.3,0.8-0.3C293,53.9,293.3,54.1,293.4,54.3z"/>
		<path class="st3" d="M289.7,57.8c0.1,0,0.1,0,0.2-0.1c0.2-0.3,0.3-1.5,0.3-1.8c0-0.1-0.1-0.2-0.2-0.2c-0.1,0-0.2,0.1-0.2,0.2
			c0,0.6-0.1,1.4-0.3,1.6c-0.1,0.1,0,0.2,0,0.3C289.6,57.8,289.7,57.8,289.7,57.8z"/>
		<path class="st3" d="M288.2,60.4h3.6c0.1,0,0.2-0.1,0.2-0.2c0-0.1-0.1-0.2-0.2-0.2h-3.6c-0.1,0-0.2,0.1-0.2,0.2
			S288.1,60.4,288.2,60.4z"/>
	</g>
</g>
<g>
	<g>
		<g>
			<g>
				<g>
					<path class="st4" d="M582.1,61.4h145c6.8,0,12.3,6.3,12.3,14v83.9c0,7.8-5.5,14-12.3,14h-145c-6.8,0-12.3-6.3-12.3-14V75.5
						C569.7,67.7,575.2,61.4,582.1,61.4z"/>
					<line class="st5" x1="582.3" y1="95.7" x2="726.8" y2="95.7"/>
					<line class="st6" x1="582.3" y1="135.4" x2="726.8" y2="135.4"/>
				</g>
			</g>
			<g>
				<path class="st7" d="M593,152.2c-0.9-2.9-3.6-5.1-6.8-5.1s-5.9,2.1-6.8,5c-0.2,0.7-0.3,1.4-0.3,2.1c0,0.7,0.1,1.4,0.3,2
					c0.9,2.9,3.6,5.1,6.8,5.1s5.9-2.1,6.8-5c0.2-0.7,0.3-1.4,0.3-2.1S593.2,152.9,593,152.2z M586.2,157.9c-1.2,0-2.2-0.6-2.9-1.5
					c-0.5-0.6-0.7-1.4-0.7-2.2c0-0.7,0.2-1.4,0.6-1.9c0.6-1,1.8-1.7,3.1-1.7s2.5,0.7,3.1,1.8c0.3,0.5,0.5,1.2,0.5,1.9
					c0,0.9-0.3,1.6-0.8,2.2C588.4,157.3,587.4,157.9,586.2,157.9z"/>
				<path class="st7" d="M584.7,154.4c0-0.8,0.7-1.5,1.5-1.5s1.5,0.7,1.5,1.5s-0.7,1.5-1.5,1.5S584.7,155.2,584.7,154.4z"/>
			</g>
			<g>
				<g>
					<path class="st7" d="M683.2,152.2c-0.9-2.9-3.6-5.1-6.8-5.1s-5.9,2.1-6.8,5c-0.2,0.7-0.3,1.4-0.3,2.1c0,0.7,0.1,1.4,0.3,2
						c0.9,2.9,3.6,5.1,6.8,5.1s5.9-2.1,6.8-5c0.2-0.7,0.3-1.4,0.3-2.1C683.5,153.5,683.4,152.8,683.2,152.2z M676.4,157.8
						c-1.2,0-2.2-0.6-2.9-1.5c-0.5-0.6-0.7-1.4-0.7-2.2c0-0.7,0.2-1.4,0.6-1.9c0.6-1,1.8-1.7,3.1-1.7s2.5,0.7,3.1,1.8
						c0.3,0.5,0.5,1.2,0.5,1.9c0,0.9-0.3,1.6-0.8,2.2C678.6,157.3,677.6,157.8,676.4,157.8z"/>
					<path class="st7" d="M674.9,154.4c0-0.8,0.7-1.5,1.5-1.5s1.5,0.7,1.5,1.5s-0.7,1.5-1.5,1.5S674.9,155.2,674.9,154.4z"/>
				</g>
			</g>
			<g>
				<path class="st8" d="M600.1,123.5h-2.7l4.1-11.8h3.2l4.1,11.8h-2.7l-3-9.1h0L600.1,123.5z M600,118.9h6.3v2H600V118.9z"/>
				<path class="st8" d="M621.1,117.6c0,1.3-0.2,2.4-0.7,3.2c-0.5,0.9-1.2,1.6-2,2.1s-1.7,0.7-2.8,0.7s-2-0.2-2.8-0.7
					c-0.8-0.5-1.5-1.2-2-2.1c-0.5-0.9-0.7-2-0.7-3.2c0-1.3,0.2-2.4,0.7-3.2c0.5-0.9,1.2-1.6,2-2.1c0.8-0.5,1.7-0.7,2.8-0.7
					s2,0.2,2.8,0.7c0.8,0.5,1.5,1.2,2,2.1C620.8,115.3,621.1,116.3,621.1,117.6z M618.5,117.6c0-0.8-0.1-1.5-0.3-2.1s-0.6-1-1-1.3
					c-0.5-0.2-0.9-0.5-1.6-0.5c-0.7,0-1.2,0.1-1.6,0.5c-0.5,0.3-0.8,0.7-1,1.3s-0.3,1.3-0.3,2.1s0.1,1.5,0.3,2.1
					c0.2,0.6,0.6,1,1,1.3c0.5,0.3,0.9,0.5,1.6,0.5c0.7,0,1.2-0.1,1.6-0.5c0.5-0.3,0.8-0.7,1-1.3
					C618.4,119.1,618.5,118.4,618.5,117.6z M614.7,119.4h2.1l1,1.4l1,1.3l2,2.4h-2.3l-1.4-1.6l-0.7-1L614.7,119.4z"/>
				<path class="st8" d="M625.5,111.7v11.8h-2.5v-11.8H625.5z"/>
			</g>
			<g>
				<path class="st8" d="M596.1,113.1c0,0.2-0.1,0.4-0.1,0.6c-0.4,1.5-1.8,2.6-3.4,2.6c-3.1,0-6.3,0-9.4,0c-0.3,0-0.5-0.2-0.5-0.5
					s0.2-0.5,0.6-0.5c2.1,0,4.2,0,6.3,0c1,0,2,0,3.1,0c1.4,0,2.6-1.2,2.5-2.6c0-1-0.5-1.8-1.4-2.2c-0.9-0.5-1.8-0.4-2.6,0.2
					l-0.1,0.1c-0.2,0.2-0.5,0.1-0.7-0.1c-0.2-0.2-0.1-0.5,0.1-0.7c0.7-0.5,1.5-0.8,2.3-0.8c1.6,0.1,3,1.2,3.3,2.8
					c0,0.1,0.1,0.3,0.1,0.4C596.1,112.7,596.1,112.9,596.1,113.1z"/>
				<path class="st8" d="M583.5,117.4c1.3,0,2.5,0,3.8,0c1.5,0,2.7,1,3,2.4c0.4,1.8-0.9,3.6-2.7,3.7c-0.8,0.1-1.5-0.1-2.2-0.6
					c-0.3-0.2-0.3-0.7,0.1-0.9c0.2-0.1,0.4,0,0.6,0.1c0.5,0.4,1.1,0.5,1.7,0.4c1-0.2,1.6-1.1,1.6-2.1c-0.1-1-0.8-1.8-1.8-1.9
					c-0.1,0-0.3,0-0.4,0c-2.5,0-5,0-7.5,0c-0.1,0-0.2,0-0.2,0c-0.2,0-0.4-0.3-0.4-0.5s0.1-0.4,0.3-0.5c0.1,0,0.2,0,0.3,0
					C581,117.4,582.3,117.4,583.5,117.4z"/>
				<path class="st8" d="M584.8,114.4c-0.9,0-1.8,0-2.6,0c-0.3,0-0.5-0.2-0.5-0.5s0.2-0.5,0.5-0.5c0.1,0,0.1,0,0.2,0
					c1.6,0,3.2,0,4.8,0c0.1,0,0.2,0,0.3,0c0.3,0,0.5,0.2,0.5,0.5s-0.2,0.5-0.5,0.5C586.6,114.4,585.7,114.4,584.8,114.4z"/>
				<path class="st8" d="M583.6,119.4c0.5,0,1,0,1.4,0c0.3,0,0.5,0.2,0.6,0.5c0,0.3-0.2,0.5-0.6,0.5c-1,0-1.9,0-2.9,0
					c-0.3,0-0.6-0.2-0.6-0.5s0.2-0.5,0.6-0.5C582.6,119.4,583.1,119.4,583.6,119.4z"/>
				<path class="st8" d="M579.9,114.4c-0.1,0-0.2,0-0.3,0c-0.3,0-0.5-0.2-0.5-0.5c0-0.2,0.1-0.5,0.4-0.5c0.3,0,0.6,0,0.9,0
					c0.3,0,0.4,0.3,0.4,0.5s-0.2,0.4-0.5,0.4C580.1,114.4,580,114.4,579.9,114.4z"/>
			</g>
			<g>
				<g>
					<path d="M647.2,76.3c-0.1-0.5-0.3-1-0.7-1.3c-0.4-0.3-1-0.5-1.7-0.5c-0.5,0-0.9,0.1-1.2,0.2c-0.3,0.1-0.6,0.3-0.8,0.5
						c-0.2,0.2-0.3,0.5-0.3,0.8c0,0.2,0,0.5,0.2,0.6c0.1,0.2,0.3,0.3,0.5,0.5c0.2,0.1,0.4,0.2,0.7,0.3c0.3,0.1,0.5,0.2,0.8,0.2
						l1.2,0.3c0.6,0.1,1.2,0.3,1.7,0.5c0.5,0.2,0.9,0.5,1.3,0.8c0.4,0.3,0.7,0.7,0.9,1.2c0.2,0.4,0.3,1,0.3,1.5
						c0,0.8-0.2,1.6-0.6,2.2c-0.4,0.6-1,1.1-1.8,1.4c-0.8,0.3-1.8,0.5-2.9,0.5c-1.1,0-2.1-0.2-2.9-0.5s-1.5-0.8-1.9-1.5
						c-0.5-0.7-0.7-1.5-0.7-2.5h2.8c0,0.5,0.2,0.8,0.4,1.2s0.6,0.5,1,0.7c0.4,0.2,0.8,0.2,1.4,0.2c0.5,0,0.9-0.1,1.3-0.2
						c0.4-0.1,0.7-0.3,0.9-0.6c0.2-0.3,0.3-0.6,0.3-0.9c0-0.3-0.1-0.6-0.3-0.8c-0.2-0.2-0.4-0.4-0.8-0.5s-0.8-0.3-1.3-0.4l-1.5-0.4
						c-1.2-0.3-2.1-0.7-2.8-1.3c-0.7-0.6-1-1.4-1-2.4c0-0.8,0.2-1.6,0.7-2.2c0.5-0.6,1.1-1.1,1.9-1.5c0.8-0.4,1.7-0.5,2.7-0.5
						c1,0,1.9,0.2,2.7,0.5c0.8,0.4,1.4,0.8,1.8,1.5c0.4,0.6,0.6,1.3,0.7,2.2H647.2z"/>
					<path d="M658.8,81.8v-6h2.9v10.4h-2.8v-1.9h-0.1c-0.2,0.6-0.6,1.1-1.2,1.5c-0.5,0.4-1.2,0.6-2,0.6c-0.7,0-1.3-0.2-1.8-0.5
						s-0.9-0.8-1.2-1.3c-0.3-0.6-0.4-1.3-0.4-2.1v-6.6h2.9v6.1c0,0.6,0.2,1.1,0.5,1.5c0.3,0.4,0.8,0.5,1.3,0.5c0.3,0,0.7-0.1,1-0.2
						c0.3-0.2,0.5-0.4,0.7-0.7C658.7,82.6,658.8,82.2,658.8,81.8z"/>
					<path d="M663.9,86.2V75.8h2.8v1.8h0.1c0.2-0.6,0.5-1.1,1-1.5s1-0.5,1.5-0.5c0.1,0,0.3,0,0.5,0c0.2,0,0.3,0,0.4,0.1v2.6
						c-0.1,0-0.3-0.1-0.6-0.1c-0.2,0-0.5,0-0.7,0c-0.4,0-0.8,0.1-1.1,0.3c-0.3,0.2-0.6,0.4-0.8,0.8c-0.2,0.3-0.3,0.7-0.3,1.1v5.9
						H663.9z"/>
				</g>
			</g>
		</g>
	</g>
	<g>
		<g>
			<g>
				<path class="st8" d="M608,152.3h-1.6c-0.1-0.3-0.2-0.6-0.3-0.9c-0.2-0.3-0.4-0.5-0.6-0.7c-0.2-0.2-0.5-0.3-0.8-0.4
					s-0.6-0.1-1-0.1c-0.6,0-1.2,0.2-1.6,0.5s-0.9,0.8-1.1,1.3c-0.3,0.6-0.4,1.3-0.4,2.2c0,0.9,0.1,1.6,0.4,2.2s0.7,1,1.1,1.3
					c0.5,0.3,1,0.5,1.6,0.5c0.3,0,0.7,0,1-0.1c0.3-0.1,0.6-0.2,0.8-0.4c0.2-0.2,0.5-0.4,0.6-0.7s0.3-0.6,0.4-0.9l1.6,0
					c-0.1,0.5-0.3,1-0.5,1.4c-0.2,0.4-0.6,0.8-0.9,1.1s-0.8,0.6-1.3,0.7s-1,0.3-1.6,0.3c-0.9,0-1.7-0.2-2.4-0.7
					c-0.7-0.4-1.3-1.1-1.7-1.9c-0.4-0.8-0.6-1.8-0.6-2.9c0-1.1,0.2-2.1,0.6-2.9c0.4-0.8,1-1.4,1.7-1.9c0.7-0.4,1.5-0.7,2.4-0.7
					c0.6,0,1.1,0.1,1.6,0.2c0.5,0.2,0.9,0.4,1.3,0.7c0.4,0.3,0.7,0.7,1,1.1C607.7,151.2,607.9,151.7,608,152.3z"/>
				<path class="st8" d="M619,154.1c0,1.1-0.2,2.1-0.6,2.9c-0.4,0.8-1,1.4-1.7,1.9c-0.7,0.4-1.5,0.7-2.4,0.7c-0.9,0-1.7-0.2-2.4-0.7
					c-0.7-0.4-1.3-1.1-1.7-1.9c-0.4-0.8-0.6-1.8-0.6-2.9c0-1.1,0.2-2.1,0.6-2.9c0.4-0.8,1-1.4,1.7-1.9c0.7-0.4,1.5-0.7,2.4-0.7
					c0.9,0,1.7,0.2,2.4,0.7c0.7,0.4,1.3,1.1,1.7,1.9C618.8,152,619,153,619,154.1z M617.5,154.1c0-0.9-0.1-1.6-0.4-2.2
					c-0.3-0.6-0.7-1-1.1-1.3s-1-0.5-1.6-0.5c-0.6,0-1.1,0.2-1.6,0.5c-0.5,0.3-0.9,0.8-1.1,1.3c-0.3,0.6-0.4,1.3-0.4,2.2
					c0,0.9,0.1,1.6,0.4,2.2c0.3,0.6,0.7,1,1.1,1.3c0.5,0.3,1,0.5,1.6,0.5c0.6,0,1.1-0.2,1.6-0.5s0.9-0.8,1.1-1.3
					C617.3,155.7,617.5,155,617.5,154.1z"/>
			</g>
		</g>
	</g>
	<g>
		<path class="st8" d="M697.9,148.8v10.5h-1.5l-5.4-7.7H691v7.7h-1.6v-10.5h1.5l5.4,7.7h0.1v-7.7H697.9z"/>
		<path class="st8" d="M709.4,154.1c0,1.1-0.2,2.1-0.6,2.9s-1,1.4-1.7,1.9c-0.7,0.4-1.5,0.7-2.4,0.7c-0.9,0-1.7-0.2-2.4-0.7
			c-0.7-0.4-1.3-1.1-1.7-1.9c-0.4-0.8-0.6-1.8-0.6-2.9c0-1.1,0.2-2.1,0.6-2.9c0.4-0.8,1-1.4,1.7-1.9c0.7-0.4,1.5-0.7,2.4-0.7
			c0.9,0,1.7,0.2,2.4,0.7c0.7,0.4,1.3,1.1,1.7,1.9C709.2,152,709.4,153,709.4,154.1z M707.8,154.1c0-0.9-0.1-1.6-0.4-2.2
			c-0.3-0.6-0.7-1-1.1-1.3s-1-0.5-1.6-0.5c-0.6,0-1.2,0.2-1.6,0.5s-0.9,0.8-1.1,1.3c-0.3,0.6-0.4,1.3-0.4,2.2s0.1,1.6,0.4,2.2
			c0.3,0.6,0.7,1,1.1,1.3s1,0.5,1.6,0.5c0.6,0,1.1-0.2,1.6-0.5s0.9-0.8,1.1-1.3C707.7,155.7,707.8,155,707.8,154.1z"/>
		<path class="st8" d="M711.1,161.1v-1l3-3.1c0.3-0.3,0.6-0.6,0.8-0.9c0.2-0.3,0.4-0.5,0.5-0.7c0.1-0.2,0.2-0.5,0.2-0.7
			c0-0.3-0.1-0.5-0.2-0.8c-0.1-0.2-0.3-0.4-0.6-0.5c-0.2-0.1-0.5-0.2-0.8-0.2c-0.3,0-0.6,0.1-0.8,0.2c-0.2,0.1-0.4,0.3-0.5,0.5
			c-0.1,0.2-0.2,0.5-0.2,0.8h-1.3c0-0.5,0.1-1,0.4-1.4s0.6-0.7,1-0.9c0.4-0.2,0.9-0.3,1.5-0.3c0.6,0,1,0.1,1.5,0.3
			c0.4,0.2,0.8,0.5,1,0.9s0.4,0.8,0.4,1.3c0,0.3-0.1,0.6-0.2,1c-0.1,0.3-0.3,0.7-0.6,1c-0.3,0.4-0.7,0.8-1.3,1.4l-1.8,1.8v0.1h4v1.1
			H711.1z"/>
	</g>
	<g>
		<g>
			<path class="st7" d="M689.7,123.1v-3l7.6-12h2.6v4.2h-1.5l-4.8,7.6v0.1h10.8v3.1H689.7z M698.5,126.3v-4.1l0.1-1.3v-12.7h3.6
				v18.2H698.5z"/>
			<path class="st7" d="M707,126.3v-2.8l6.5-6c0.5-0.5,1-1,1.4-1.4s0.7-0.8,0.9-1.3c0.2-0.4,0.3-0.9,0.3-1.3c0-0.5-0.1-1-0.4-1.4
				c-0.2-0.4-0.6-0.7-1-0.9c-0.4-0.2-0.9-0.3-1.4-0.3c-0.6,0-1,0.1-1.5,0.3s-0.7,0.5-1,1c-0.2,0.4-0.3,0.9-0.3,1.5h-3.6
				c0-1.2,0.3-2.2,0.8-3.1c0.5-0.9,1.3-1.6,2.3-2s2.1-0.7,3.4-0.7c1.3,0,2.4,0.2,3.4,0.7c1,0.5,1.7,1.1,2.3,1.9
				c0.5,0.8,0.8,1.7,0.8,2.8c0,0.7-0.1,1.4-0.4,2c-0.3,0.7-0.7,1.4-1.4,2.2s-1.7,1.8-2.9,2.9l-2.7,2.6v0.1h7.6v3.1H707z"/>
		</g>
	</g>
</g>
<g>
	<g>
		<g>
			<g>
				<path class="st9" d="M36.7,61.4h145c6.8,0,12.3,6.3,12.3,14v83.9c0,7.8-5.5,14-12.3,14h-145c-6.8,0-12.3-6.3-12.3-14V75.5
					C24.3,67.7,29.8,61.4,36.7,61.4z"/>
				<line class="st5" x1="36.9" y1="95.7" x2="181.4" y2="95.7"/>
				<line class="st6" x1="36.9" y1="135.4" x2="181.4" y2="135.4"/>
			</g>
		</g>
		<g>
			<path class="st7" d="M47.6,152.2c-0.9-2.9-3.6-5.1-6.8-5.1s-5.9,2.1-6.8,5c-0.2,0.7-0.3,1.4-0.3,2.1c0,0.7,0.1,1.4,0.3,2
				c0.9,2.9,3.6,5.1,6.8,5.1s5.9-2.1,6.8-5c0.2-0.7,0.3-1.4,0.3-2.1S47.8,152.9,47.6,152.2z M40.8,157.9c-1.2,0-2.2-0.6-2.9-1.5
				c-0.5-0.6-0.7-1.4-0.7-2.2c0-0.7,0.2-1.4,0.6-1.9c0.6-1,1.8-1.7,3.1-1.7s2.5,0.7,3.1,1.8c0.3,0.5,0.5,1.2,0.5,1.9
				c0,0.9-0.3,1.6-0.8,2.2C43,157.3,42,157.9,40.8,157.9z"/>
			<path class="st7" d="M39.3,154.4c0-0.8,0.7-1.5,1.5-1.5s1.5,0.7,1.5,1.5s-0.7,1.5-1.5,1.5S39.3,155.2,39.3,154.4z"/>
		</g>
		<g>
			<g>
				<path class="st7" d="M137.8,152.2c-0.9-2.9-3.6-5.1-6.8-5.1s-5.9,2.1-6.8,5c-0.2,0.7-0.3,1.4-0.3,2.1c0,0.7,0.1,1.4,0.3,2
					c0.9,2.9,3.6,5.1,6.8,5.1s5.9-2.1,6.8-5c0.2-0.7,0.3-1.4,0.3-2.1C138.1,153.5,138,152.8,137.8,152.2z M131,157.8
					c-1.2,0-2.2-0.6-2.9-1.5c-0.5-0.6-0.7-1.4-0.7-2.2c0-0.7,0.2-1.4,0.6-1.9c0.6-1,1.8-1.7,3.1-1.7s2.5,0.7,3.1,1.8
					c0.3,0.5,0.5,1.2,0.5,1.9c0,0.9-0.3,1.6-0.8,2.2C133.2,157.3,132.2,157.8,131,157.8z"/>
				<path class="st7" d="M129.5,154.4c0-0.8,0.7-1.5,1.5-1.5s1.5,0.7,1.5,1.5s-0.7,1.5-1.5,1.5S129.5,155.2,129.5,154.4z"/>
			</g>
		</g>
		<g>
			<path class="st8" d="M54.7,123.5h-2.7l4.1-11.8h3.2l4.1,11.8h-2.7l-3-9.1h0L54.7,123.5z M54.6,118.9h6.3v2h-6.3V118.9z"/>
			<path class="st8" d="M75.7,117.6c0,1.3-0.2,2.4-0.7,3.2c-0.5,0.9-1.2,1.6-2,2.1s-1.7,0.7-2.8,0.7c-1,0-2-0.2-2.8-0.7
				c-0.8-0.5-1.5-1.2-2-2.1c-0.5-0.9-0.7-2-0.7-3.2c0-1.3,0.2-2.4,0.7-3.2c0.5-0.9,1.2-1.6,2-2.1c0.8-0.5,1.7-0.7,2.8-0.7
				c1,0,2,0.2,2.8,0.7c0.8,0.5,1.5,1.2,2,2.1C75.4,115.3,75.7,116.3,75.7,117.6z M73.1,117.6c0-0.8-0.1-1.5-0.3-2.1
				c-0.2-0.6-0.6-1-1-1.3c-0.5-0.2-0.9-0.5-1.6-0.5s-1.2,0.1-1.6,0.5c-0.5,0.3-0.8,0.7-1,1.3s-0.3,1.3-0.3,2.1s0.1,1.5,0.3,2.1
				c0.2,0.6,0.6,1,1,1.3c0.5,0.3,0.9,0.5,1.6,0.5s1.2-0.1,1.6-0.5c0.5-0.3,0.8-0.7,1-1.3C73,119.1,73.1,118.4,73.1,117.6z
				 M69.3,119.4h2.1l1,1.4l1,1.3l2,2.4h-2.3l-1.4-1.6l-0.7-1L69.3,119.4z"/>
			<path class="st8" d="M80.1,111.7v11.8h-2.5v-11.8H80.1z"/>
		</g>
		<g>
			<path class="st8" d="M50.7,113.1c0,0.2-0.1,0.4-0.1,0.6c-0.4,1.5-1.8,2.6-3.4,2.6c-3.1,0-6.3,0-9.4,0c-0.3,0-0.5-0.2-0.5-0.5
				s0.2-0.5,0.6-0.5c2.1,0,4.2,0,6.3,0c1,0,2,0,3.1,0c1.4,0,2.6-1.2,2.5-2.6c0-1-0.5-1.8-1.4-2.2c-0.9-0.5-1.8-0.4-2.6,0.2l-0.1,0.1
				c-0.2,0.2-0.5,0.1-0.7-0.1c-0.2-0.2-0.1-0.5,0.1-0.7c0.7-0.5,1.5-0.8,2.3-0.8c1.6,0.1,3,1.2,3.3,2.8c0,0.1,0.1,0.3,0.1,0.4
				C50.7,112.7,50.7,112.9,50.7,113.1z"/>
			<path class="st8" d="M38.1,117.4c1.3,0,2.5,0,3.8,0c1.5,0,2.7,1,3,2.4c0.4,1.8-0.9,3.6-2.7,3.7c-0.8,0.1-1.5-0.1-2.2-0.6
				c-0.3-0.2-0.3-0.7,0.1-0.9c0.2-0.1,0.4,0,0.6,0.1c0.5,0.4,1.1,0.5,1.7,0.4c1-0.2,1.6-1.1,1.6-2.1c-0.1-1-0.8-1.8-1.8-1.9
				c-0.1,0-0.3,0-0.4,0c-2.5,0-5,0-7.5,0c-0.1,0-0.2,0-0.2,0c-0.2,0-0.4-0.3-0.4-0.5s0.1-0.4,0.3-0.5c0.1,0,0.2,0,0.3,0
				C35.6,117.4,36.9,117.4,38.1,117.4z"/>
			<path class="st8" d="M39.4,114.4c-0.9,0-1.8,0-2.6,0c-0.3,0-0.5-0.2-0.5-0.5s0.2-0.5,0.5-0.5c0.1,0,0.1,0,0.2,0
				c1.6,0,3.2,0,4.8,0c0.1,0,0.2,0,0.3,0c0.3,0,0.5,0.2,0.5,0.5s-0.2,0.5-0.5,0.5C41.2,114.4,40.3,114.4,39.4,114.4z"/>
			<path class="st8" d="M38.2,119.4c0.5,0,1,0,1.4,0c0.3,0,0.5,0.2,0.6,0.5c0,0.3-0.2,0.5-0.6,0.5c-1,0-1.9,0-2.9,0
				c-0.3,0-0.6-0.2-0.6-0.5s0.2-0.5,0.6-0.5C37.2,119.4,37.7,119.4,38.2,119.4z"/>
			<path class="st8" d="M34.5,114.4c-0.1,0-0.2,0-0.3,0c-0.3,0-0.5-0.2-0.5-0.5c0-0.2,0.1-0.5,0.4-0.5c0.3,0,0.6,0,0.9,0
				c0.3,0,0.4,0.3,0.4,0.5s-0.2,0.4-0.5,0.4C34.7,114.4,34.6,114.4,34.5,114.4z"/>
		</g>
		<g>
			<path d="M75.9,86.2V72.4h5.5c1,0,1.9,0.2,2.5,0.5c0.7,0.3,1.2,0.7,1.5,1.3c0.3,0.5,0.5,1.1,0.5,1.8c0,0.5-0.1,1-0.3,1.4
				c-0.2,0.4-0.5,0.7-0.9,1c-0.4,0.3-0.8,0.4-1.3,0.5V79c0.5,0,1,0.2,1.5,0.4s0.8,0.7,1.1,1.2c0.3,0.5,0.4,1.1,0.4,1.8
				c0,0.7-0.2,1.4-0.5,2c-0.4,0.6-0.9,1-1.6,1.4c-0.7,0.3-1.6,0.5-2.6,0.5H75.9z M78.8,78.2h2.2c0.4,0,0.8-0.1,1.1-0.2
				c0.3-0.1,0.6-0.3,0.7-0.6c0.2-0.3,0.3-0.6,0.3-0.9c0-0.5-0.2-0.9-0.5-1.2c-0.4-0.3-0.9-0.5-1.5-0.5h-2.2V78.2z M78.8,83.8h2.4
				c0.8,0,1.4-0.2,1.8-0.5c0.4-0.3,0.6-0.7,0.6-1.3c0-0.4-0.1-0.7-0.3-1s-0.4-0.5-0.8-0.7c-0.3-0.2-0.7-0.2-1.2-0.2h-2.4V83.8z"/>
			<path d="M89.8,74.5c-0.4,0-0.8-0.1-1.1-0.4c-0.3-0.3-0.5-0.6-0.5-1c0-0.4,0.2-0.7,0.5-1s0.7-0.4,1.1-0.4c0.4,0,0.8,0.1,1.1,0.4
				c0.3,0.3,0.5,0.6,0.5,1s-0.2,0.7-0.5,1S90.2,74.5,89.8,74.5z M88.4,86.2V75.8h2.9v10.4H88.4z"/>
			<path d="M97.3,86.4c-0.8,0-1.5-0.2-2.1-0.6c-0.6-0.4-1.1-1-1.5-1.8c-0.4-0.8-0.6-1.8-0.6-2.9c0-1.2,0.2-2.2,0.6-3
				c0.4-0.8,0.9-1.4,1.5-1.8s1.3-0.6,2.1-0.6c0.6,0,1.1,0.1,1.5,0.3c0.4,0.2,0.7,0.4,0.9,0.7c0.2,0.3,0.4,0.6,0.5,0.9h0.1v-5.2h2.9
				v13.8h-2.8v-1.7h-0.1c-0.1,0.3-0.3,0.6-0.6,0.9s-0.6,0.5-1,0.7C98.4,86.3,97.9,86.4,97.3,86.4z M98.3,84.1c0.5,0,0.9-0.1,1.2-0.4
				c0.3-0.3,0.6-0.6,0.7-1.1c0.2-0.5,0.3-1,0.3-1.6s-0.1-1.2-0.3-1.6s-0.4-0.8-0.7-1.1c-0.3-0.2-0.7-0.4-1.2-0.4
				c-0.5,0-0.9,0.1-1.2,0.4c-0.3,0.3-0.6,0.6-0.7,1.1c-0.2,0.5-0.2,1-0.2,1.6c0,0.6,0.1,1.1,0.3,1.6c0.2,0.5,0.4,0.8,0.7,1.1
				C97.4,83.9,97.8,84.1,98.3,84.1z"/>
			<path d="M107,74.5c-0.4,0-0.8-0.1-1.1-0.4c-0.3-0.3-0.5-0.6-0.5-1c0-0.4,0.2-0.7,0.5-1c0.3-0.3,0.7-0.4,1.1-0.4
				c0.4,0,0.8,0.1,1.1,0.4c0.3,0.3,0.5,0.6,0.5,1s-0.2,0.7-0.5,1C107.8,74.3,107.5,74.5,107,74.5z M105.6,86.2V75.8h2.9v10.4H105.6z
				"/>
			<path d="M112.5,90.1c-0.4,0-0.7,0-1-0.1c-0.3-0.1-0.6-0.1-0.8-0.2l0.6-2.1c0.3,0.1,0.6,0.2,0.9,0.2c0.3,0,0.5-0.1,0.7-0.2
				c0.2-0.1,0.4-0.4,0.5-0.7l0.2-0.4l-3.7-10.7h3l2.1,7.6h0.1l2.2-7.6h3l-4,11.5c-0.2,0.6-0.5,1-0.8,1.5s-0.7,0.7-1.3,1
				C113.9,90,113.3,90.1,112.5,90.1z"/>
			<path d="M124.9,86.4c-0.7,0-1.3-0.1-1.8-0.3c-0.5-0.2-0.9-0.6-1.2-1c-0.3-0.5-0.4-1-0.4-1.7c0-0.6,0.1-1.1,0.3-1.5
				c0.2-0.4,0.5-0.7,0.9-0.9c0.4-0.2,0.8-0.4,1.2-0.5s1-0.2,1.5-0.3c0.6-0.1,1.1-0.1,1.5-0.2c0.4-0.1,0.6-0.1,0.8-0.3
				c0.2-0.1,0.2-0.3,0.2-0.5v0c0-0.4-0.1-0.8-0.4-1s-0.6-0.4-1.1-0.4c-0.5,0-0.9,0.1-1.2,0.3c-0.3,0.2-0.5,0.5-0.6,0.9l-2.7-0.2
				c0.1-0.6,0.4-1.2,0.8-1.6c0.4-0.5,0.9-0.8,1.5-1.1c0.6-0.2,1.4-0.4,2.2-0.4c0.6,0,1.1,0.1,1.7,0.2c0.5,0.1,1,0.3,1.4,0.6
				c0.4,0.3,0.7,0.6,1,1.1c0.2,0.4,0.4,1,0.4,1.6v7H128v-1.4h-0.1c-0.2,0.3-0.4,0.6-0.7,0.9c-0.3,0.2-0.6,0.4-1,0.6
				C125.8,86.3,125.4,86.4,124.9,86.4z M125.7,84.4c0.4,0,0.8-0.1,1.1-0.3c0.3-0.2,0.6-0.4,0.8-0.7c0.2-0.3,0.3-0.6,0.3-1v-1.1
				c-0.1,0.1-0.2,0.1-0.4,0.2s-0.3,0.1-0.5,0.1s-0.4,0.1-0.6,0.1s-0.4,0.1-0.5,0.1c-0.3,0-0.6,0.1-0.9,0.2c-0.3,0.1-0.4,0.3-0.6,0.4
				c-0.1,0.2-0.2,0.4-0.2,0.7c0,0.4,0.1,0.7,0.4,0.9C124.9,84.3,125.2,84.4,125.7,84.4z"/>
			<path d="M135.8,80.2v6h-2.9V72.4h2.8v5.3h0.1c0.2-0.6,0.6-1.1,1.1-1.4c0.5-0.3,1.2-0.5,2-0.5c0.7,0,1.3,0.2,1.9,0.5
				c0.5,0.3,1,0.8,1.3,1.3c0.3,0.6,0.4,1.3,0.4,2.1v6.6h-2.9v-6.1c0-0.6-0.2-1.1-0.5-1.5c-0.3-0.4-0.8-0.5-1.4-0.5
				c-0.4,0-0.7,0.1-1,0.2s-0.5,0.4-0.7,0.7C135.9,79.4,135.8,79.8,135.8,80.2z"/>
		</g>
	</g>
	<g>
		<g>
			<g>
				<path class="st8" d="M62.3,152.3h-1.6c-0.1-0.3-0.2-0.6-0.3-0.9c-0.2-0.3-0.4-0.5-0.6-0.7s-0.5-0.3-0.8-0.4s-0.6-0.1-1-0.1
					c-0.6,0-1.2,0.2-1.6,0.5s-0.9,0.8-1.1,1.3c-0.3,0.6-0.4,1.3-0.4,2.2c0,0.9,0.1,1.6,0.4,2.2s0.7,1,1.1,1.3c0.5,0.3,1,0.5,1.6,0.5
					c0.3,0,0.6,0,1-0.1s0.6-0.2,0.8-0.4c0.2-0.2,0.5-0.4,0.6-0.7s0.3-0.6,0.4-0.9l1.6,0c-0.1,0.5-0.3,1-0.5,1.4
					c-0.2,0.4-0.6,0.8-0.9,1.1s-0.8,0.6-1.3,0.7c-0.5,0.2-1,0.3-1.6,0.3c-0.9,0-1.7-0.2-2.4-0.7c-0.7-0.4-1.3-1.1-1.7-1.9
					c-0.4-0.8-0.6-1.8-0.6-2.9c0-1.1,0.2-2.1,0.6-2.9c0.4-0.8,1-1.4,1.7-1.9c0.7-0.4,1.5-0.7,2.4-0.7c0.6,0,1.1,0.1,1.6,0.2
					s0.9,0.4,1.3,0.7c0.4,0.3,0.7,0.7,1,1.1C62.1,151.2,62.2,151.7,62.3,152.3z"/>
				<path class="st8" d="M73.4,154.1c0,1.1-0.2,2.1-0.6,2.9c-0.4,0.8-1,1.4-1.7,1.9c-0.7,0.4-1.5,0.7-2.4,0.7
					c-0.9,0-1.7-0.2-2.4-0.7c-0.7-0.4-1.3-1.1-1.7-1.9c-0.4-0.8-0.6-1.8-0.6-2.9c0-1.1,0.2-2.1,0.6-2.9c0.4-0.8,1-1.4,1.7-1.9
					c0.7-0.4,1.5-0.7,2.4-0.7c0.9,0,1.7,0.2,2.4,0.7c0.7,0.4,1.3,1.1,1.7,1.9C73.2,152,73.4,153,73.4,154.1z M71.8,154.1
					c0-0.9-0.1-1.6-0.4-2.2c-0.3-0.6-0.7-1-1.1-1.3c-0.5-0.3-1-0.5-1.6-0.5c-0.6,0-1.1,0.2-1.6,0.5s-0.9,0.8-1.1,1.3
					c-0.3,0.6-0.4,1.3-0.4,2.2c0,0.9,0.1,1.6,0.4,2.2c0.3,0.6,0.7,1,1.1,1.3s1,0.5,1.6,0.5c0.6,0,1.1-0.2,1.6-0.5
					c0.5-0.3,0.9-0.8,1.1-1.3C71.7,155.7,71.8,155,71.8,154.1z"/>
			</g>
		</g>
	</g>
	<g>
		<path class="st8" d="M152.3,148.8v10.5h-1.5l-5.4-7.7h-0.1v7.7h-1.6v-10.5h1.5l5.4,7.7h0.1v-7.7H152.3z"/>
		<path class="st8" d="M163.8,154.1c0,1.1-0.2,2.1-0.6,2.9s-1,1.4-1.7,1.9c-0.7,0.4-1.5,0.7-2.4,0.7c-0.9,0-1.7-0.2-2.4-0.7
			c-0.7-0.4-1.3-1.1-1.7-1.9c-0.4-0.8-0.6-1.8-0.6-2.9c0-1.1,0.2-2.1,0.6-2.9c0.4-0.8,1-1.4,1.7-1.9s1.5-0.7,2.4-0.7
			c0.9,0,1.7,0.2,2.4,0.7s1.3,1.1,1.7,1.9C163.6,152,163.8,153,163.8,154.1z M162.2,154.1c0-0.9-0.1-1.6-0.4-2.2s-0.7-1-1.1-1.3
			c-0.5-0.3-1-0.5-1.6-0.5c-0.6,0-1.2,0.2-1.6,0.5c-0.5,0.3-0.9,0.8-1.1,1.3c-0.3,0.6-0.4,1.3-0.4,2.2s0.1,1.6,0.4,2.2
			c0.3,0.6,0.7,1,1.1,1.3c0.5,0.3,1,0.5,1.6,0.5c0.6,0,1.1-0.2,1.6-0.5c0.5-0.3,0.9-0.8,1.1-1.3S162.2,155,162.2,154.1z"/>
		<path class="st8" d="M165.4,161.1v-1l3-3.1c0.3-0.3,0.6-0.6,0.8-0.9c0.2-0.3,0.4-0.5,0.5-0.7c0.1-0.2,0.2-0.5,0.2-0.7
			c0-0.3-0.1-0.5-0.2-0.8c-0.1-0.2-0.3-0.4-0.6-0.5c-0.2-0.1-0.5-0.2-0.8-0.2c-0.3,0-0.6,0.1-0.8,0.2s-0.4,0.3-0.5,0.5
			c-0.1,0.2-0.2,0.5-0.2,0.8h-1.3c0-0.5,0.1-1,0.4-1.4c0.2-0.4,0.6-0.7,1-0.9c0.4-0.2,0.9-0.3,1.5-0.3c0.6,0,1,0.1,1.5,0.3
			c0.4,0.2,0.8,0.5,1,0.9s0.4,0.8,0.4,1.3c0,0.3-0.1,0.6-0.2,1s-0.3,0.7-0.6,1s-0.7,0.8-1.3,1.4l-1.8,1.8v0.1h4v1.1H165.4z"/>
	</g>
	<g>
		<g>
			<g>
				<path class="st7" d="M142.3,124.5v-2.9l7.3-11.5h2.5v4h-1.5l-4.6,7.3v0.1h10.4v3H142.3z M150.6,127.6v-4l0.1-1.3v-12.2h3.5v17.5
					H150.6z"/>
				<path class="st7" d="M165.1,109.9c0.9,0,1.8,0.2,2.6,0.5c0.8,0.3,1.6,0.8,2.2,1.4s1.2,1.5,1.6,2.6c0.4,1.1,0.6,2.4,0.6,4
					c0,1.5-0.2,2.8-0.5,4c-0.3,1.2-0.8,2.1-1.4,3s-1.4,1.4-2.2,1.9c-0.9,0.4-1.9,0.6-2.9,0.6c-1.2,0-2.2-0.2-3.1-0.7
					c-0.9-0.5-1.6-1.1-2.2-1.8c-0.5-0.8-0.9-1.7-1-2.6h3.6c0.1,0.6,0.4,1.1,0.9,1.5c0.5,0.3,1,0.5,1.7,0.5c1.1,0,2-0.5,2.6-1.5
					c0.6-1,0.9-2.4,0.9-4.1h-0.1c-0.3,0.5-0.6,1-1.1,1.3s-1,0.6-1.5,0.8c-0.6,0.2-1.2,0.3-1.8,0.3c-1,0-1.9-0.2-2.8-0.7
					c-0.8-0.5-1.4-1.1-1.9-2s-0.7-1.8-0.7-2.9c0-1.2,0.3-2.2,0.8-3.1c0.5-0.9,1.3-1.6,2.3-2.2C162.7,110.1,163.8,109.9,165.1,109.9z
					 M165.1,112.8c-0.6,0-1.1,0.1-1.5,0.4c-0.4,0.3-0.8,0.6-1.1,1.1s-0.4,1-0.4,1.5c0,0.6,0.1,1.1,0.4,1.5s0.6,0.8,1,1.1
					s0.9,0.4,1.5,0.4c0.4,0,0.8-0.1,1.2-0.2s0.7-0.4,1-0.7s0.5-0.6,0.6-1c0.2-0.4,0.2-0.8,0.2-1.2c0-0.6-0.1-1.1-0.4-1.5
					c-0.3-0.5-0.6-0.8-1.1-1.1C166.2,112.9,165.7,112.8,165.1,112.8z"/>
			</g>
		</g>
	</g>
</g>
<g>
	<g>
		<g>
			<g>
				<g>
					<path class="st4" d="M218.5,61.4h145c6.8,0,12.3,6.3,12.3,14v83.9c0,7.8-5.5,14-12.3,14h-145c-6.8,0-12.3-6.3-12.3-14V75.5
						C206.1,67.7,211.6,61.4,218.5,61.4z"/>
					<line class="st5" x1="218.7" y1="95.7" x2="363.2" y2="95.7"/>
					<line class="st6" x1="218.7" y1="135.4" x2="363.2" y2="135.4"/>
				</g>
			</g>
			<g>
				<path class="st10" d="M229.4,152.2c-0.9-2.9-3.6-5.1-6.8-5.1s-5.9,2.1-6.8,5c-0.2,0.7-0.3,1.4-0.3,2.1c0,0.7,0.1,1.4,0.3,2
					c0.9,2.9,3.6,5.1,6.8,5.1s5.9-2.1,6.8-5c0.2-0.7,0.3-1.4,0.3-2.1S229.6,152.9,229.4,152.2z M222.6,157.9c-1.2,0-2.2-0.6-2.9-1.5
					c-0.5-0.6-0.7-1.4-0.7-2.2c0-0.7,0.2-1.4,0.6-1.9c0.6-1,1.8-1.7,3.1-1.7s2.5,0.7,3.1,1.8c0.3,0.5,0.5,1.2,0.5,1.9
					c0,0.9-0.3,1.6-0.8,2.2C224.8,157.3,223.8,157.9,222.6,157.9z"/>
				<path class="st10" d="M221.1,154.4c0-0.8,0.7-1.5,1.5-1.5s1.5,0.7,1.5,1.5s-0.7,1.5-1.5,1.5S221.1,155.2,221.1,154.4z"/>
			</g>
			<g>
				<g>
					<path class="st10" d="M319.6,152.2c-0.9-2.9-3.6-5.1-6.8-5.1s-5.9,2.1-6.8,5c-0.2,0.7-0.3,1.4-0.3,2.1c0,0.7,0.1,1.4,0.3,2
						c0.9,2.9,3.6,5.1,6.8,5.1s5.9-2.1,6.8-5c0.2-0.7,0.3-1.4,0.3-2.1C319.9,153.5,319.8,152.8,319.6,152.2z M312.8,157.8
						c-1.2,0-2.2-0.6-2.9-1.5c-0.5-0.6-0.7-1.4-0.7-2.2c0-0.7,0.2-1.4,0.6-1.9c0.6-1,1.8-1.7,3.1-1.7s2.5,0.7,3.1,1.8
						c0.3,0.5,0.5,1.2,0.5,1.9c0,0.9-0.3,1.6-0.8,2.2C315,157.3,314,157.8,312.8,157.8z"/>
					<path class="st10" d="M311.3,154.4c0-0.8,0.7-1.5,1.5-1.5s1.5,0.7,1.5,1.5s-0.7,1.5-1.5,1.5S311.3,155.2,311.3,154.4z"/>
				</g>
			</g>
			<g>
				<path class="st8" d="M236.5,123.5h-2.7l4.1-11.8h3.2l4.1,11.8h-2.7l-3-9.1h0L236.5,123.5z M236.4,118.9h6.3v2h-6.3V118.9z"/>
				<path class="st8" d="M257.5,117.6c0,1.3-0.2,2.4-0.7,3.2c-0.5,0.9-1.2,1.6-2,2.1s-1.7,0.7-2.8,0.7c-1,0-2-0.2-2.8-0.7
					c-0.8-0.5-1.5-1.2-2-2.1c-0.5-0.9-0.7-2-0.7-3.2c0-1.3,0.2-2.4,0.7-3.2c0.5-0.9,1.2-1.6,2-2.1c0.8-0.5,1.7-0.7,2.8-0.7
					c1,0,2,0.2,2.8,0.7c0.8,0.5,1.5,1.2,2,2.1C257.2,115.3,257.5,116.3,257.5,117.6z M254.9,117.6c0-0.8-0.1-1.5-0.3-2.1
					c-0.2-0.6-0.6-1-1-1.3c-0.5-0.2-0.9-0.5-1.6-0.5s-1.2,0.1-1.6,0.5c-0.5,0.3-0.8,0.7-1,1.3c-0.2,0.6-0.3,1.3-0.3,2.1
					s0.1,1.5,0.3,2.1c0.2,0.6,0.6,1,1,1.3c0.5,0.3,0.9,0.5,1.6,0.5s1.2-0.1,1.6-0.5c0.5-0.3,0.8-0.7,1-1.3
					C254.8,119.1,254.9,118.4,254.9,117.6z M251.1,119.4h2.1l1,1.4l1,1.3l2,2.4h-2.3l-1.4-1.6l-0.7-1L251.1,119.4z"/>
				<path class="st8" d="M261.9,111.7v11.8h-2.5v-11.8H261.9z"/>
			</g>
			<g>
				<path class="st8" d="M232.5,113.1c0,0.2-0.1,0.4-0.1,0.6c-0.4,1.5-1.8,2.6-3.4,2.6c-3.1,0-6.3,0-9.4,0c-0.3,0-0.5-0.2-0.5-0.5
					s0.2-0.5,0.6-0.5c2.1,0,4.2,0,6.3,0c1,0,2,0,3.1,0c1.4,0,2.6-1.2,2.5-2.6c0-1-0.5-1.8-1.4-2.2c-0.9-0.5-1.8-0.4-2.6,0.2
					l-0.1,0.1c-0.2,0.2-0.5,0.1-0.7-0.1c-0.2-0.2-0.1-0.5,0.1-0.7c0.7-0.5,1.5-0.8,2.3-0.8c1.6,0.1,3,1.2,3.3,2.8
					c0,0.1,0.1,0.3,0.1,0.4C232.5,112.7,232.5,112.9,232.5,113.1z"/>
				<path class="st8" d="M219.9,117.4c1.3,0,2.5,0,3.8,0c1.5,0,2.7,1,3,2.4c0.4,1.8-0.9,3.6-2.7,3.7c-0.8,0.1-1.5-0.1-2.2-0.6
					c-0.3-0.2-0.3-0.7,0.1-0.9c0.2-0.1,0.4,0,0.6,0.1c0.5,0.4,1.1,0.5,1.7,0.4c1-0.2,1.6-1.1,1.6-2.1c-0.1-1-0.8-1.8-1.8-1.9
					c-0.1,0-0.3,0-0.4,0c-2.5,0-5,0-7.5,0c-0.1,0-0.2,0-0.2,0c-0.2,0-0.4-0.3-0.4-0.5s0.1-0.4,0.3-0.5c0.1,0,0.2,0,0.3,0
					C217.4,117.4,218.7,117.4,219.9,117.4z"/>
				<path class="st8" d="M221.2,114.4c-0.9,0-1.8,0-2.6,0c-0.3,0-0.5-0.2-0.5-0.5s0.2-0.5,0.5-0.5c0.1,0,0.1,0,0.2,0
					c1.6,0,3.2,0,4.8,0c0.1,0,0.2,0,0.3,0c0.3,0,0.5,0.2,0.5,0.5s-0.2,0.5-0.5,0.5C223,114.4,222.1,114.4,221.2,114.4z"/>
				<path class="st8" d="M220,119.4c0.5,0,1,0,1.4,0c0.3,0,0.5,0.2,0.6,0.5c0,0.3-0.2,0.5-0.6,0.5c-1,0-1.9,0-2.9,0
					c-0.3,0-0.6-0.2-0.6-0.5s0.2-0.5,0.6-0.5C219,119.4,219.5,119.4,220,119.4z"/>
				<path class="st8" d="M216.3,114.4c-0.1,0-0.2,0-0.3,0c-0.3,0-0.5-0.2-0.5-0.5c0-0.2,0.1-0.5,0.4-0.5c0.3,0,0.6,0,0.9,0
					c0.3,0,0.4,0.3,0.4,0.5s-0.2,0.4-0.5,0.4C216.5,114.4,216.4,114.4,216.3,114.4z"/>
			</g>
			<g>
				<g>
					<path d="M252.4,86.2h-3.1l4.8-13.8h3.8l4.8,13.8h-3.1L256,75.5h-0.1L252.4,86.2z M252.2,80.8h7.4V83h-7.4V80.8z"/>
					<path d="M267,72.4v13.8h-2.9V72.4H267z"/>
					<path d="M273.8,86.2V72.4h2.9v6.1h0.2l5-6.1h3.5l-5.1,6.2l5.2,7.6h-3.5l-3.8-5.7l-1.4,1.8v3.9H273.8z"/>
					<path d="M291.5,86.4c-1,0-2-0.2-2.7-0.7c-0.8-0.4-1.4-1.1-1.8-1.9c-0.4-0.8-0.6-1.7-0.6-2.8c0-1.1,0.2-2,0.6-2.8
						c0.4-0.8,1-1.4,1.8-1.9c0.8-0.4,1.7-0.7,2.7-0.7c1,0,2,0.2,2.7,0.7c0.8,0.4,1.4,1.1,1.8,1.9c0.4,0.8,0.6,1.7,0.6,2.8
						c0,1.1-0.2,2-0.6,2.8c-0.4,0.8-1,1.4-1.8,1.9C293.5,86.2,292.6,86.4,291.5,86.4z M291.5,84.2c0.5,0,0.9-0.1,1.2-0.4
						c0.3-0.3,0.6-0.6,0.7-1.1c0.2-0.5,0.2-1,0.2-1.6c0-0.6-0.1-1.1-0.2-1.6c-0.2-0.5-0.4-0.8-0.7-1.1s-0.7-0.4-1.2-0.4
						c-0.5,0-0.9,0.1-1.2,0.4s-0.6,0.6-0.7,1.1c-0.2,0.5-0.2,1-0.2,1.6c0,0.6,0.1,1.1,0.2,1.6c0.2,0.5,0.4,0.8,0.7,1.1
						C290.6,84,291.1,84.2,291.5,84.2z"/>
					<path d="M305.1,81.8v-6h2.9v10.4h-2.8v-1.9h-0.1c-0.2,0.6-0.6,1.1-1.2,1.5c-0.5,0.4-1.2,0.6-2,0.6c-0.7,0-1.3-0.2-1.8-0.5
						s-0.9-0.8-1.2-1.3c-0.3-0.6-0.4-1.3-0.4-2.1v-6.6h2.9v6.1c0,0.6,0.2,1.1,0.5,1.5c0.3,0.4,0.8,0.5,1.3,0.5c0.3,0,0.7-0.1,1-0.2
						s0.5-0.4,0.7-0.7C305.1,82.6,305.1,82.2,305.1,81.8z"/>
					<path d="M314.1,86.4c-0.8,0-1.5-0.2-2.1-0.6c-0.6-0.4-1.1-1-1.5-1.8c-0.4-0.8-0.6-1.8-0.6-2.9c0-1.2,0.2-2.2,0.6-3
						s0.9-1.4,1.5-1.8c0.6-0.4,1.3-0.6,2.1-0.6c0.6,0,1.1,0.1,1.5,0.3s0.7,0.4,0.9,0.7c0.2,0.3,0.4,0.6,0.5,0.9h0.1v-5.2h2.9v13.8
						h-2.8v-1.7h-0.1c-0.1,0.3-0.3,0.6-0.6,0.9s-0.6,0.5-1,0.7S314.7,86.4,314.1,86.4z M315,84.1c0.5,0,0.9-0.1,1.2-0.4
						c0.3-0.3,0.6-0.6,0.7-1.1c0.2-0.5,0.3-1,0.3-1.6s-0.1-1.2-0.3-1.6s-0.4-0.8-0.7-1.1c-0.3-0.2-0.7-0.4-1.2-0.4
						c-0.5,0-0.9,0.1-1.2,0.4s-0.6,0.6-0.7,1.1c-0.2,0.5-0.2,1-0.2,1.6c0,0.6,0.1,1.1,0.3,1.6c0.2,0.5,0.4,0.8,0.7,1.1
						C314.2,83.9,314.6,84.1,315,84.1z"/>
					<path d="M325.3,80.2v6h-2.9V72.4h2.8v5.3h0.1c0.2-0.6,0.6-1.1,1.1-1.4s1.2-0.5,2-0.5c0.7,0,1.3,0.2,1.9,0.5
						c0.5,0.3,1,0.8,1.3,1.3c0.3,0.6,0.4,1.3,0.4,2.1v6.6h-2.9v-6.1c0-0.6-0.2-1.1-0.5-1.5c-0.3-0.4-0.8-0.5-1.4-0.5
						c-0.4,0-0.7,0.1-1,0.2c-0.3,0.2-0.5,0.4-0.7,0.7C325.3,79.4,325.3,79.8,325.3,80.2z"/>
				</g>
			</g>
		</g>
	</g>
	<g>
		<g>
			<g>
				<path class="st8" d="M244.4,152.3h-1.6c-0.1-0.3-0.2-0.6-0.3-0.9c-0.2-0.3-0.4-0.5-0.6-0.7s-0.5-0.3-0.8-0.4s-0.6-0.1-1-0.1
					c-0.6,0-1.2,0.2-1.6,0.5s-0.9,0.8-1.1,1.3c-0.3,0.6-0.4,1.3-0.4,2.2c0,0.9,0.1,1.6,0.4,2.2s0.7,1,1.1,1.3c0.5,0.3,1,0.5,1.6,0.5
					c0.3,0,0.6,0,1-0.1s0.6-0.2,0.8-0.4c0.2-0.2,0.5-0.4,0.6-0.7s0.3-0.6,0.4-0.9l1.6,0c-0.1,0.5-0.3,1-0.5,1.4
					c-0.2,0.4-0.6,0.8-0.9,1.1s-0.8,0.6-1.3,0.7c-0.5,0.2-1,0.3-1.6,0.3c-0.9,0-1.7-0.2-2.4-0.7c-0.7-0.4-1.3-1.1-1.7-1.9
					c-0.4-0.8-0.6-1.8-0.6-2.9c0-1.1,0.2-2.1,0.6-2.9c0.4-0.8,1-1.4,1.7-1.9c0.7-0.4,1.5-0.7,2.4-0.7c0.6,0,1.1,0.1,1.6,0.2
					s0.9,0.4,1.3,0.7c0.4,0.3,0.7,0.7,1,1.1C244.1,151.2,244.3,151.7,244.4,152.3z"/>
				<path class="st8" d="M255.4,154.1c0,1.1-0.2,2.1-0.6,2.9c-0.4,0.8-1,1.4-1.7,1.9c-0.7,0.4-1.5,0.7-2.4,0.7
					c-0.9,0-1.7-0.2-2.4-0.7c-0.7-0.4-1.3-1.1-1.7-1.9c-0.4-0.8-0.6-1.8-0.6-2.9c0-1.1,0.2-2.1,0.6-2.9c0.4-0.8,1-1.4,1.7-1.9
					c0.7-0.4,1.5-0.7,2.4-0.7c0.9,0,1.7,0.2,2.4,0.7c0.7,0.4,1.3,1.1,1.7,1.9C255.2,152,255.4,153,255.4,154.1z M253.9,154.1
					c0-0.9-0.1-1.6-0.4-2.2c-0.3-0.6-0.7-1-1.1-1.3c-0.5-0.3-1-0.5-1.6-0.5c-0.6,0-1.1,0.2-1.6,0.5s-0.9,0.8-1.1,1.3
					c-0.3,0.6-0.4,1.3-0.4,2.2c0,0.9,0.1,1.6,0.4,2.2c0.3,0.6,0.7,1,1.1,1.3s1,0.5,1.6,0.5c0.6,0,1.1-0.2,1.6-0.5
					c0.5-0.3,0.9-0.8,1.1-1.3C253.7,155.7,253.9,155,253.9,154.1z"/>
			</g>
		</g>
	</g>
	<g>
		<path class="st8" d="M334.3,148.8v10.5h-1.5l-5.4-7.7h-0.1v7.7h-1.6v-10.5h1.5l5.4,7.7h0.1v-7.7H334.3z"/>
		<path class="st8" d="M345.8,154.1c0,1.1-0.2,2.1-0.6,2.9s-1,1.4-1.7,1.9c-0.7,0.4-1.5,0.7-2.4,0.7c-0.9,0-1.7-0.2-2.4-0.7
			c-0.7-0.4-1.3-1.1-1.7-1.9c-0.4-0.8-0.6-1.8-0.6-2.9c0-1.1,0.2-2.1,0.6-2.9c0.4-0.8,1-1.4,1.7-1.9s1.5-0.7,2.4-0.7
			c0.9,0,1.7,0.2,2.4,0.7s1.3,1.1,1.7,1.9C345.6,152,345.8,153,345.8,154.1z M344.2,154.1c0-0.9-0.1-1.6-0.4-2.2s-0.7-1-1.1-1.3
			c-0.5-0.3-1-0.5-1.6-0.5c-0.6,0-1.2,0.2-1.6,0.5c-0.5,0.3-0.9,0.8-1.1,1.3c-0.3,0.6-0.4,1.3-0.4,2.2s0.1,1.6,0.4,2.2
			c0.3,0.6,0.7,1,1.1,1.3c0.5,0.3,1,0.5,1.6,0.5c0.6,0,1.1-0.2,1.6-0.5c0.5-0.3,0.9-0.8,1.1-1.3S344.2,155,344.2,154.1z"/>
		<path class="st8" d="M347.5,161.1v-1l3-3.1c0.3-0.3,0.6-0.6,0.8-0.9c0.2-0.3,0.4-0.5,0.5-0.7c0.1-0.2,0.2-0.5,0.2-0.7
			c0-0.3-0.1-0.5-0.2-0.8c-0.1-0.2-0.3-0.4-0.6-0.5c-0.2-0.1-0.5-0.2-0.8-0.2c-0.3,0-0.6,0.1-0.8,0.2s-0.4,0.3-0.5,0.5
			c-0.1,0.2-0.2,0.5-0.2,0.8h-1.3c0-0.5,0.1-1,0.4-1.4c0.2-0.4,0.6-0.7,1-0.9c0.4-0.2,0.9-0.3,1.5-0.3c0.6,0,1,0.1,1.5,0.3
			c0.4,0.2,0.8,0.5,1,0.9s0.4,0.8,0.4,1.3c0,0.3-0.1,0.6-0.2,1s-0.3,0.7-0.6,1s-0.7,0.8-1.3,1.4l-1.8,1.8v0.1h4v1.1H347.5z"/>
	</g>
	<g>
		<g>
			<path class="st10" d="M322.9,110.1v17.5h-3.7v-14h-0.1l-4,2.5v-3.3l4.3-2.7H322.9z"/>
			<path class="st10" d="M333.4,127.8c-1.2,0-2.3-0.2-3.2-0.7c-0.9-0.4-1.7-1.1-2.2-1.8c-0.6-0.8-0.8-1.7-0.9-2.7h3.6
				c0,0.7,0.3,1.2,0.9,1.6c0.5,0.4,1.2,0.6,1.9,0.6c0.6,0,1.1-0.1,1.5-0.4s0.8-0.6,1-1.1s0.4-1,0.4-1.6c0-0.6-0.1-1.2-0.4-1.6
				c-0.3-0.5-0.6-0.8-1.1-1.1c-0.5-0.3-1-0.4-1.6-0.4c-0.5,0-1,0.1-1.5,0.3c-0.5,0.2-0.9,0.5-1.1,0.9l-3.3-0.6l0.8-9.2H339v3h-7.6
				l-0.5,4.4h0.1c0.3-0.4,0.8-0.8,1.4-1.1c0.6-0.3,1.3-0.4,2.1-0.4c1.1,0,2,0.2,2.8,0.7c0.8,0.5,1.5,1.2,2,2c0.5,0.9,0.7,1.9,0.7,3
				c0,1.2-0.3,2.2-0.8,3.1c-0.5,0.9-1.3,1.6-2.3,2.1C335.8,127.5,334.7,127.8,333.4,127.8z"/>
			<path class="st10" d="M349,127.8c-1.3,0-2.4-0.2-3.4-0.7c-1-0.4-1.8-1-2.3-1.8c-0.6-0.8-0.9-1.7-0.9-2.7h3.7
				c0,0.4,0.2,0.8,0.4,1.1c0.3,0.3,0.6,0.6,1,0.7c0.4,0.2,0.9,0.3,1.5,0.3c0.6,0,1.1-0.1,1.5-0.3c0.4-0.2,0.8-0.5,1-0.8
				s0.4-0.8,0.4-1.2c0-0.5-0.1-0.9-0.4-1.2s-0.6-0.6-1.1-0.8c-0.5-0.2-1-0.3-1.7-0.3H347v-2.7h1.6c0.6,0,1-0.1,1.5-0.3
				c0.4-0.2,0.8-0.5,1-0.8c0.2-0.3,0.4-0.7,0.4-1.2c0-0.4-0.1-0.8-0.3-1.2c-0.2-0.3-0.5-0.6-0.9-0.8s-0.8-0.3-1.3-0.3
				c-0.5,0-1,0.1-1.4,0.3c-0.4,0.2-0.7,0.4-1,0.8c-0.2,0.3-0.4,0.7-0.4,1.2h-3.5c0-1,0.3-1.9,0.9-2.7c0.6-0.8,1.3-1.4,2.3-1.8
				s2-0.7,3.2-0.7c1.2,0,2.3,0.2,3.2,0.7c0.9,0.4,1.6,1,2.1,1.8c0.5,0.7,0.8,1.6,0.7,2.5c0,1-0.3,1.8-0.9,2.4
				c-0.6,0.7-1.4,1.1-2.4,1.2v0.1c1.3,0.2,2.3,0.6,2.9,1.3c0.7,0.7,1,1.6,1,2.7c0,1-0.3,1.9-0.9,2.7c-0.6,0.8-1.4,1.4-2.4,1.8
				C351.4,127.6,350.3,127.8,349,127.8z"/>
		</g>
	</g>
</g>
<g>
	<g>
		<g>
			<g>
				<path class="st4" d="M400.3,61.4h145c6.8,0,12.3,6.3,12.3,14v83.9c0,7.8-5.5,14-12.3,14h-145c-6.8,0-12.3-6.3-12.3-14V75.5
					C387.9,67.7,393.4,61.4,400.3,61.4z"/>
				<line class="st5" x1="400.5" y1="95.7" x2="545" y2="95.7"/>
				<line class="st6" x1="400.5" y1="135.4" x2="545" y2="135.4"/>
			</g>
		</g>
		<g>
			<path class="st11" d="M411.2,152.2c-0.9-2.9-3.6-5.1-6.8-5.1s-5.9,2.1-6.8,5c-0.2,0.7-0.3,1.4-0.3,2.1c0,0.7,0.1,1.4,0.3,2
				c0.9,2.9,3.6,5.1,6.8,5.1s5.9-2.1,6.8-5c0.2-0.7,0.3-1.4,0.3-2.1S411.4,152.9,411.2,152.2z M404.4,157.9c-1.2,0-2.2-0.6-2.9-1.5
				c-0.5-0.6-0.7-1.4-0.7-2.2c0-0.7,0.2-1.4,0.6-1.9c0.6-1,1.8-1.7,3.1-1.7s2.5,0.7,3.1,1.8c0.3,0.5,0.5,1.2,0.5,1.9
				c0,0.9-0.3,1.6-0.8,2.2C406.6,157.3,405.6,157.9,404.4,157.9z"/>
			<path class="st11" d="M402.9,154.4c0-0.8,0.7-1.5,1.5-1.5s1.5,0.7,1.5,1.5s-0.7,1.5-1.5,1.5S402.9,155.2,402.9,154.4z"/>
		</g>
		<g>
			<g>
				<path class="st11" d="M501.4,152.2c-0.9-2.9-3.6-5.1-6.8-5.1s-5.9,2.1-6.8,5c-0.2,0.7-0.3,1.4-0.3,2.1c0,0.7,0.1,1.4,0.3,2
					c0.9,2.9,3.6,5.1,6.8,5.1s5.9-2.1,6.8-5c0.2-0.7,0.3-1.4,0.3-2.1C501.7,153.5,501.6,152.8,501.4,152.2z M494.6,157.8
					c-1.2,0-2.2-0.6-2.9-1.5c-0.5-0.6-0.7-1.4-0.7-2.2c0-0.7,0.2-1.4,0.6-1.9c0.6-1,1.8-1.7,3.1-1.7s2.5,0.7,3.1,1.8
					c0.3,0.5,0.5,1.2,0.5,1.9c0,0.9-0.3,1.6-0.8,2.2C496.8,157.3,495.8,157.8,494.6,157.8z"/>
				<path class="st11" d="M493.1,154.4c0-0.8,0.7-1.5,1.5-1.5s1.5,0.7,1.5,1.5s-0.7,1.5-1.5,1.5S493.1,155.2,493.1,154.4z"/>
			</g>
		</g>
		<g>
			<path class="st8" d="M418.3,123.5h-2.7l4.1-11.8h3.2l4.1,11.8h-2.7l-3-9.1h0L418.3,123.5z M418.2,118.9h6.3v2h-6.3V118.9z"/>
			<path class="st8" d="M439.3,117.6c0,1.3-0.2,2.4-0.7,3.2c-0.5,0.9-1.2,1.6-2,2.1s-1.7,0.7-2.8,0.7c-1,0-2-0.2-2.8-0.7
				c-0.8-0.5-1.5-1.2-2-2.1c-0.5-0.9-0.7-2-0.7-3.2c0-1.3,0.2-2.4,0.7-3.2c0.5-0.9,1.2-1.6,2-2.1c0.8-0.5,1.7-0.7,2.8-0.7
				c1,0,2,0.2,2.8,0.7c0.8,0.5,1.5,1.2,2,2.1C439,115.3,439.3,116.3,439.3,117.6z M436.7,117.6c0-0.8-0.1-1.5-0.3-2.1
				c-0.2-0.6-0.6-1-1-1.3c-0.5-0.2-0.9-0.5-1.6-0.5s-1.2,0.1-1.6,0.5c-0.5,0.3-0.8,0.7-1,1.3c-0.2,0.6-0.3,1.3-0.3,2.1
				s0.1,1.5,0.3,2.1c0.2,0.6,0.6,1,1,1.3c0.5,0.3,0.9,0.5,1.6,0.5s1.2-0.1,1.6-0.5c0.5-0.3,0.8-0.7,1-1.3
				C436.6,119.1,436.7,118.4,436.7,117.6z M432.9,119.4h2.1l1,1.4l1,1.3l2,2.4h-2.3l-1.4-1.6l-0.7-1L432.9,119.4z"/>
			<path class="st8" d="M443.7,111.7v11.8h-2.5v-11.8H443.7z"/>
		</g>
		<g>
			<path class="st8" d="M414.3,113.1c0,0.2-0.1,0.4-0.1,0.6c-0.4,1.5-1.8,2.6-3.4,2.6c-3.1,0-6.3,0-9.4,0c-0.3,0-0.5-0.2-0.5-0.5
				s0.2-0.5,0.6-0.5c2.1,0,4.2,0,6.3,0c1,0,2,0,3.1,0c1.4,0,2.6-1.2,2.5-2.6c0-1-0.5-1.8-1.4-2.2c-0.9-0.5-1.8-0.4-2.6,0.2l-0.1,0.1
				c-0.2,0.2-0.5,0.1-0.7-0.1c-0.2-0.2-0.1-0.5,0.1-0.7c0.7-0.5,1.5-0.8,2.3-0.8c1.6,0.1,3,1.2,3.3,2.8c0,0.1,0.1,0.3,0.1,0.4
				C414.3,112.7,414.3,112.9,414.3,113.1z"/>
			<path class="st8" d="M401.7,117.4c1.3,0,2.5,0,3.8,0c1.5,0,2.7,1,3,2.4c0.4,1.8-0.9,3.6-2.7,3.7c-0.8,0.1-1.5-0.1-2.2-0.6
				c-0.3-0.2-0.3-0.7,0.1-0.9c0.2-0.1,0.4,0,0.6,0.1c0.5,0.4,1.1,0.5,1.7,0.4c1-0.2,1.6-1.1,1.6-2.1c-0.1-1-0.8-1.8-1.8-1.9
				c-0.1,0-0.3,0-0.4,0c-2.5,0-5,0-7.5,0c-0.1,0-0.2,0-0.2,0c-0.2,0-0.4-0.3-0.4-0.5s0.1-0.4,0.3-0.5c0.1,0,0.2,0,0.3,0
				C399.2,117.4,400.5,117.4,401.7,117.4z"/>
			<path class="st8" d="M403,114.4c-0.9,0-1.8,0-2.6,0c-0.3,0-0.5-0.2-0.5-0.5s0.2-0.5,0.5-0.5c0.1,0,0.1,0,0.2,0c1.6,0,3.2,0,4.8,0
				c0.1,0,0.2,0,0.3,0c0.3,0,0.5,0.2,0.5,0.5s-0.2,0.5-0.5,0.5C404.8,114.4,403.9,114.4,403,114.4z"/>
			<path class="st8" d="M401.8,119.4c0.5,0,1,0,1.4,0c0.3,0,0.5,0.2,0.6,0.5c0,0.3-0.2,0.5-0.6,0.5c-1,0-1.9,0-2.9,0
				c-0.3,0-0.6-0.2-0.6-0.5s0.2-0.5,0.6-0.5C400.8,119.4,401.3,119.4,401.8,119.4z"/>
			<path class="st8" d="M398.1,114.4c-0.1,0-0.2,0-0.3,0c-0.3,0-0.5-0.2-0.5-0.5c0-0.2,0.1-0.5,0.4-0.5c0.3,0,0.6,0,0.9,0
				c0.3,0,0.4,0.3,0.4,0.5s-0.2,0.4-0.5,0.4C398.3,114.4,398.2,114.4,398.1,114.4z"/>
		</g>
		<g>
			<g>
				<path d="M423,86.2h-3.1l4.8-13.8h3.8l4.8,13.8H430l-3.5-10.7h-0.1L423,86.2z M422.8,80.8h7.4V83h-7.4V80.8z"/>
				<path d="M437.6,72.4v13.8h-2.9V72.4H437.6z"/>
				<path d="M444.4,86.2V72.4h2.9v6.1h0.2l5-6.1h3.5l-5.1,6.2l5.2,7.6h-3.5l-3.8-5.7l-1.4,1.8v3.9H444.4z"/>
				<path d="M460.3,80.2v6h-2.9V72.4h2.8v5.3h0.1c0.2-0.6,0.6-1.1,1.1-1.4s1.2-0.5,2-0.5c0.7,0,1.3,0.2,1.9,0.5
					c0.5,0.3,1,0.8,1.3,1.3c0.3,0.6,0.4,1.3,0.4,2.1v6.6h-2.9v-6.1c0-0.6-0.2-1.1-0.5-1.5c-0.3-0.4-0.8-0.5-1.4-0.5
					c-0.4,0-0.7,0.1-1,0.2c-0.3,0.2-0.5,0.4-0.7,0.7C460.4,79.4,460.3,79.8,460.3,80.2z"/>
				<path d="M475.9,81.8v-6h2.9v10.4H476v-1.9h-0.1c-0.2,0.6-0.6,1.1-1.2,1.5c-0.5,0.4-1.2,0.6-2,0.6c-0.7,0-1.3-0.2-1.8-0.5
					s-0.9-0.8-1.2-1.3c-0.3-0.6-0.4-1.3-0.4-2.1v-6.6h2.9v6.1c0,0.6,0.2,1.1,0.5,1.5c0.3,0.4,0.8,0.5,1.3,0.5c0.3,0,0.7-0.1,1-0.2
					s0.5-0.4,0.7-0.7C475.8,82.6,475.9,82.2,475.9,81.8z"/>
				<path d="M483.1,86.2l-2.8-10.4h2.9l1.6,7h0.1l1.7-7h2.9l1.7,6.9h0.1l1.6-6.9h2.9l-2.8,10.4h-3l-1.8-6.5H488l-1.8,6.5H483.1z"/>
				<path d="M500.2,86.4c-0.7,0-1.3-0.1-1.8-0.3s-0.9-0.6-1.2-1s-0.4-1-0.4-1.7c0-0.6,0.1-1.1,0.3-1.5c0.2-0.4,0.5-0.7,0.9-0.9
					c0.4-0.2,0.8-0.4,1.2-0.5c0.5-0.1,1-0.2,1.5-0.3c0.6-0.1,1.1-0.1,1.5-0.2s0.6-0.1,0.8-0.3c0.2-0.1,0.2-0.3,0.2-0.5v0
					c0-0.4-0.1-0.8-0.4-1s-0.6-0.4-1.1-0.4c-0.5,0-0.9,0.1-1.2,0.3c-0.3,0.2-0.5,0.5-0.6,0.9l-2.7-0.2c0.1-0.6,0.4-1.2,0.8-1.6
					c0.4-0.5,0.9-0.8,1.5-1.1c0.6-0.2,1.4-0.4,2.2-0.4c0.6,0,1.1,0.1,1.7,0.2c0.5,0.1,1,0.3,1.4,0.6c0.4,0.3,0.7,0.6,1,1.1
					c0.2,0.4,0.4,1,0.4,1.6v7h-2.7v-1.4h-0.1c-0.2,0.3-0.4,0.6-0.7,0.9s-0.6,0.4-1,0.6C501.2,86.3,500.7,86.4,500.2,86.4z M501,84.4
					c0.4,0,0.8-0.1,1.1-0.3s0.6-0.4,0.8-0.7c0.2-0.3,0.3-0.6,0.3-1v-1.1c-0.1,0.1-0.2,0.1-0.4,0.2s-0.3,0.1-0.5,0.1
					s-0.4,0.1-0.6,0.1s-0.4,0.1-0.5,0.1c-0.3,0-0.6,0.1-0.9,0.2c-0.3,0.1-0.4,0.3-0.6,0.4c-0.1,0.2-0.2,0.4-0.2,0.7
					c0,0.4,0.1,0.7,0.4,0.9C500.2,84.3,500.6,84.4,501,84.4z"/>
				<path d="M510,90.1c-0.4,0-0.7,0-1-0.1c-0.3-0.1-0.6-0.1-0.8-0.2l0.6-2.1c0.3,0.1,0.6,0.2,0.9,0.2c0.3,0,0.5-0.1,0.7-0.2
					c0.2-0.1,0.4-0.4,0.5-0.7l0.2-0.4l-3.7-10.7h3l2.1,7.6h0.1l2.2-7.6h3l-4,11.5c-0.2,0.6-0.5,1-0.8,1.5c-0.3,0.4-0.7,0.7-1.3,1
					C511.4,90,510.8,90.1,510,90.1z"/>
				<path d="M519.4,86.2V75.8h2.8v1.8h0.1c0.2-0.6,0.5-1.1,1-1.5s1-0.5,1.5-0.5c0.1,0,0.3,0,0.5,0c0.2,0,0.3,0,0.4,0.1v2.6
					c-0.1,0-0.3-0.1-0.6-0.1c-0.2,0-0.5,0-0.7,0c-0.4,0-0.8,0.1-1.1,0.3c-0.3,0.2-0.6,0.4-0.8,0.8s-0.3,0.7-0.3,1.1v5.9H519.4z"/>
			</g>
		</g>
	</g>
	<g>
		<g>
			<g>
				<path class="st8" d="M426.6,152.3H425c-0.1-0.3-0.2-0.6-0.3-0.9c-0.2-0.3-0.4-0.5-0.6-0.7s-0.5-0.3-0.8-0.4s-0.6-0.1-1-0.1
					c-0.6,0-1.2,0.2-1.6,0.5s-0.9,0.8-1.1,1.3c-0.3,0.6-0.4,1.3-0.4,2.2c0,0.9,0.1,1.6,0.4,2.2s0.7,1,1.1,1.3c0.5,0.3,1,0.5,1.6,0.5
					c0.3,0,0.6,0,1-0.1s0.6-0.2,0.8-0.4c0.2-0.2,0.5-0.4,0.6-0.7s0.3-0.6,0.4-0.9l1.6,0c-0.1,0.5-0.3,1-0.5,1.4
					c-0.2,0.4-0.6,0.8-0.9,1.1s-0.8,0.6-1.3,0.7c-0.5,0.2-1,0.3-1.6,0.3c-0.9,0-1.7-0.2-2.4-0.7c-0.7-0.4-1.3-1.1-1.7-1.9
					c-0.4-0.8-0.6-1.8-0.6-2.9c0-1.1,0.2-2.1,0.6-2.9c0.4-0.8,1-1.4,1.7-1.9c0.7-0.4,1.5-0.7,2.4-0.7c0.6,0,1.1,0.1,1.6,0.2
					s0.9,0.4,1.3,0.7c0.4,0.3,0.7,0.7,1,1.1C426.3,151.2,426.5,151.7,426.6,152.3z"/>
				<path class="st8" d="M437.7,154.1c0,1.1-0.2,2.1-0.6,2.9c-0.4,0.8-1,1.4-1.7,1.9c-0.7,0.4-1.5,0.7-2.4,0.7
					c-0.9,0-1.7-0.2-2.4-0.7c-0.7-0.4-1.3-1.1-1.7-1.9c-0.4-0.8-0.6-1.8-0.6-2.9c0-1.1,0.2-2.1,0.6-2.9c0.4-0.8,1-1.4,1.7-1.9
					c0.7-0.4,1.5-0.7,2.4-0.7c0.9,0,1.7,0.2,2.4,0.7c0.7,0.4,1.3,1.1,1.7,1.9C437.5,152,437.7,153,437.7,154.1z M436.1,154.1
					c0-0.9-0.1-1.6-0.4-2.2c-0.3-0.6-0.7-1-1.1-1.3c-0.5-0.3-1-0.5-1.6-0.5c-0.6,0-1.1,0.2-1.6,0.5s-0.9,0.8-1.1,1.3
					c-0.3,0.6-0.4,1.3-0.4,2.2c0,0.9,0.1,1.6,0.4,2.2c0.3,0.6,0.7,1,1.1,1.3s1,0.5,1.6,0.5c0.6,0,1.1-0.2,1.6-0.5
					c0.5-0.3,0.9-0.8,1.1-1.3C436,155.7,436.1,155,436.1,154.1z"/>
			</g>
		</g>
	</g>
	<g>
		<path class="st8" d="M516.5,148.8v10.5h-1.5l-5.4-7.7h-0.1v7.7H508v-10.5h1.5l5.4,7.7h0.1v-7.7H516.5z"/>
		<path class="st8" d="M528,154.1c0,1.1-0.2,2.1-0.6,2.9s-1,1.4-1.7,1.9c-0.7,0.4-1.5,0.7-2.4,0.7c-0.9,0-1.7-0.2-2.4-0.7
			c-0.7-0.4-1.3-1.1-1.7-1.9c-0.4-0.8-0.6-1.8-0.6-2.9c0-1.1,0.2-2.1,0.6-2.9c0.4-0.8,1-1.4,1.7-1.9s1.5-0.7,2.4-0.7
			c0.9,0,1.7,0.2,2.4,0.7s1.3,1.1,1.7,1.9C527.8,152,528,153,528,154.1z M526.4,154.1c0-0.9-0.1-1.6-0.4-2.2s-0.7-1-1.1-1.3
			c-0.5-0.3-1-0.5-1.6-0.5c-0.6,0-1.2,0.2-1.6,0.5c-0.5,0.3-0.9,0.8-1.1,1.3c-0.3,0.6-0.4,1.3-0.4,2.2s0.1,1.6,0.4,2.2
			c0.3,0.6,0.7,1,1.1,1.3c0.5,0.3,1,0.5,1.6,0.5c0.6,0,1.1-0.2,1.6-0.5c0.5-0.3,0.9-0.8,1.1-1.3S526.4,155,526.4,154.1z"/>
		<path class="st8" d="M529.7,161.1v-1l3-3.1c0.3-0.3,0.6-0.6,0.8-0.9c0.2-0.3,0.4-0.5,0.5-0.7c0.1-0.2,0.2-0.5,0.2-0.7
			c0-0.3-0.1-0.5-0.2-0.8c-0.1-0.2-0.3-0.4-0.6-0.5c-0.2-0.1-0.5-0.2-0.8-0.2c-0.3,0-0.6,0.1-0.8,0.2s-0.4,0.3-0.5,0.5
			c-0.1,0.2-0.2,0.5-0.2,0.8h-1.3c0-0.5,0.1-1,0.4-1.4c0.2-0.4,0.6-0.7,1-0.9c0.4-0.2,0.9-0.3,1.5-0.3c0.6,0,1,0.1,1.5,0.3
			c0.4,0.2,0.8,0.5,1,0.9s0.4,0.8,0.4,1.3c0,0.3-0.1,0.6-0.2,1s-0.3,0.7-0.6,1s-0.7,0.8-1.3,1.4l-1.8,1.8v0.1h4v1.1H529.7z"/>
	</g>
	<g>
		<g>
			<g>
				<path class="st11" d="M517.2,109.9c0.9,0,1.8,0.2,2.6,0.5c0.8,0.3,1.6,0.8,2.2,1.4s1.2,1.5,1.6,2.6c0.4,1.1,0.6,2.4,0.6,4
					c0,1.5-0.2,2.8-0.5,4c-0.3,1.2-0.8,2.1-1.4,3s-1.4,1.4-2.2,1.9c-0.9,0.4-1.9,0.6-2.9,0.6c-1.2,0-2.2-0.2-3.1-0.7
					c-0.9-0.5-1.6-1.1-2.2-1.8c-0.5-0.8-0.9-1.7-1-2.6h3.6c0.1,0.6,0.4,1.1,0.9,1.5c0.5,0.3,1,0.5,1.7,0.5c1.1,0,2-0.5,2.6-1.5
					c0.6-1,0.9-2.4,0.9-4.1h-0.1c-0.3,0.5-0.6,1-1.1,1.3s-1,0.6-1.5,0.8c-0.6,0.2-1.2,0.3-1.8,0.3c-1,0-1.9-0.2-2.8-0.7
					c-0.8-0.5-1.4-1.1-1.9-2s-0.7-1.8-0.7-2.9c0-1.2,0.3-2.2,0.8-3.1c0.5-0.9,1.3-1.6,2.3-2.2C514.8,110.1,515.9,109.9,517.2,109.9z
					 M517.2,112.8c-0.6,0-1.1,0.1-1.5,0.4c-0.4,0.3-0.8,0.6-1.1,1.1s-0.4,1-0.4,1.5c0,0.6,0.1,1.1,0.4,1.5s0.6,0.8,1,1.1
					s0.9,0.4,1.5,0.4c0.4,0,0.8-0.1,1.2-0.2s0.7-0.4,1-0.7s0.5-0.6,0.6-1c0.2-0.4,0.2-0.8,0.2-1.2c0-0.6-0.1-1.1-0.4-1.5
					c-0.3-0.5-0.6-0.8-1.1-1.1C518.3,112.9,517.8,112.8,517.2,112.8z"/>
				<path class="st11" d="M533.3,127.8c-1.3,0-2.5-0.2-3.5-0.6c-1-0.4-1.8-1-2.4-1.8c-0.6-0.7-0.9-1.6-0.9-2.5c0-0.7,0.2-1.4,0.5-2
					c0.3-0.6,0.8-1.1,1.4-1.5c0.6-0.4,1.2-0.7,1.9-0.8v-0.1c-0.9-0.2-1.7-0.6-2.3-1.4c-0.6-0.7-0.9-1.6-0.9-2.5
					c0-0.9,0.3-1.7,0.8-2.4c0.5-0.7,1.3-1.3,2.2-1.7c0.9-0.4,2-0.6,3.1-0.6c1.2,0,2.2,0.2,3.1,0.6c0.9,0.4,1.6,1,2.2,1.7
					c0.5,0.7,0.8,1.5,0.8,2.4c0,1-0.3,1.8-0.9,2.5c-0.6,0.7-1.3,1.2-2.2,1.4v0.1c0.7,0.1,1.3,0.4,1.9,0.8s1,0.9,1.4,1.5
					c0.3,0.6,0.5,1.3,0.5,2c0,0.9-0.3,1.8-0.9,2.5c-0.6,0.7-1.4,1.3-2.4,1.8C535.7,127.6,534.6,127.8,533.3,127.8z M533.3,125.1
					c0.6,0,1.1-0.1,1.5-0.3s0.8-0.5,1-0.9s0.4-0.8,0.4-1.3c0-0.5-0.1-1-0.4-1.3c-0.3-0.4-0.6-0.7-1-0.9c-0.4-0.2-0.9-0.3-1.5-0.3
					c-0.6,0-1.1,0.1-1.5,0.3c-0.4,0.2-0.8,0.5-1,0.9c-0.3,0.4-0.4,0.8-0.4,1.3c0,0.5,0.1,0.9,0.4,1.3c0.2,0.4,0.6,0.7,1,0.9
					C532.2,125,532.7,125.1,533.3,125.1z M533.3,117.3c0.5,0,0.9-0.1,1.3-0.3c0.4-0.2,0.7-0.5,0.9-0.8c0.2-0.4,0.3-0.8,0.3-1.2
					c0-0.5-0.1-0.9-0.3-1.2c-0.2-0.3-0.5-0.6-0.9-0.8c-0.4-0.2-0.8-0.3-1.3-0.3c-0.5,0-0.9,0.1-1.3,0.3c-0.4,0.2-0.7,0.5-0.9,0.8
					c-0.2,0.3-0.3,0.7-0.3,1.2c0,0.5,0.1,0.9,0.3,1.2c0.2,0.4,0.5,0.6,0.9,0.8C532.3,117.2,532.8,117.3,533.3,117.3z"/>
			</g>
		</g>
	</g>
</g>
<g>
	<g>
		<circle class="st12" cx="668" cy="37" r="16.5"/>
		<polyline class="st13" points="662.4,46.7 673.6,37 662.4,27.4 		"/>
	</g>
	<g>
		<circle class="st14" cx="623.3" cy="37" r="16.5"/>
		<polyline class="st13" points="628.9,27.4 617.7,37 628.9,46.7 		"/>
	</g>
</g>
<g>
	<circle class="st15" cx="719.8" cy="37" r="16.5"/>
	<g>
		<line class="st13" x1="715.7" y1="29.9" x2="715.7" y2="44.1"/>
		<line class="st13" x1="724" y1="29.9" x2="724" y2="44.1"/>
	</g>
</g>
</svg>
