<?xml version="1.0" encoding="utf-8"?>
<!-- Generator: Adobe Illustrator 28.1.0, SVG Export Plug-In . SVG Version: 6.00 Build 0)  -->
<svg version="1.1" id="Layer_1" xmlns="http://www.w3.org/2000/svg" xmlns:xlink="http://www.w3.org/1999/xlink" x="0px" y="0px"
	 viewBox="0 0 179 124" style="enable-background:new 0 0 179 124;" xml:space="preserve">
<style type="text/css">
	.st0{fill:#E9F8F7;enable-background:new    ;}
	.st1{fill:none;stroke:#888888;}
	.st2{fill:none;stroke:#E7E7E7;}
	.st3{fill:#00C800;}
	.st4{fill:#4F4F4F;}
</style>
<g>
	<g>
		<g>
			<g>
				<g>
					<path class="st0" d="M17,6h145c6.8,0,12.3,6.3,12.3,14V104c0,7.8-5.5,14-12.3,14H17c-6.8,0-12.3-6.3-12.3-14V20.2
						C4.6,12.3,10.1,6,17,6z"/>
					<line class="st1" x1="17.2" y1="40.4" x2="161.7" y2="40.4"/>
					<line class="st2" x1="17.2" y1="80" x2="161.7" y2="80"/>
				</g>
			</g>
			<g>
				<path class="st3" d="M27.9,96.9c-0.9-2.9-3.6-5.1-6.8-5.1s-5.9,2.1-6.8,5c-0.2,0.7-0.3,1.4-0.3,2.1c0,0.7,0.1,1.4,0.3,2
					c0.9,2.9,3.6,5.1,6.8,5.1s5.9-2.1,6.8-5c0.2-0.7,0.3-1.4,0.3-2.1S28.1,97.6,27.9,96.9z M21.1,102.6c-1.2,0-2.2-0.6-2.9-1.5
					c-0.5-0.6-0.7-1.4-0.7-2.2c0-0.7,0.2-1.4,0.6-1.9c0.6-1,1.8-1.7,3.1-1.7s2.5,0.7,3.1,1.8c0.3,0.5,0.5,1.2,0.5,1.9
					c0,0.9-0.3,1.6-0.8,2.2C23.3,102,22.3,102.6,21.1,102.6z"/>
				<path class="st3" d="M19.6,99.1c0-0.8,0.7-1.5,1.5-1.5s1.5,0.7,1.5,1.5s-0.7,1.5-1.5,1.5S19.6,99.9,19.6,99.1z"/>
			</g>
			<g>
				<g>
					<path class="st3" d="M118.1,96.9c-0.9-2.9-3.6-5.1-6.8-5.1s-5.9,2.1-6.8,5c-0.2,0.7-0.3,1.4-0.3,2.1c0,0.7,0.1,1.4,0.3,2
						c0.9,2.9,3.6,5.1,6.8,5.1s5.9-2.1,6.8-5c0.2-0.7,0.3-1.4,0.3-2.1C118.4,98.2,118.3,97.5,118.1,96.9z M111.3,102.5
						c-1.2,0-2.2-0.6-2.9-1.5c-0.5-0.6-0.7-1.4-0.7-2.2c0-0.7,0.2-1.4,0.6-1.9c0.6-1,1.8-1.7,3.1-1.7s2.5,0.7,3.1,1.8
						c0.3,0.5,0.5,1.2,0.5,1.9c0,0.9-0.3,1.6-0.8,2.2C113.5,102,112.5,102.5,111.3,102.5z"/>
					<path class="st3" d="M109.8,99.1c0-0.8,0.7-1.5,1.5-1.5s1.5,0.7,1.5,1.5s-0.7,1.5-1.5,1.5S109.8,99.9,109.8,99.1z"/>
				</g>
			</g>
			<g>
				<path class="st4" d="M35.1,68.2h-2.7l4.1-11.8h3.2l4.1,11.8h-2.7l-3-9.1h0L35.1,68.2z M34.9,63.5h6.3v2h-6.3V63.5z"/>
				<path class="st4" d="M56,62.2c0,1.3-0.2,2.4-0.7,3.2c-0.5,0.9-1.2,1.6-2,2.1c-0.8,0.5-1.7,0.7-2.8,0.7c-1,0-2-0.2-2.8-0.7
					c-0.8-0.5-1.5-1.2-2-2.1c-0.5-0.9-0.7-2-0.7-3.2c0-1.3,0.2-2.4,0.7-3.2c0.5-0.9,1.2-1.6,2-2.1c0.8-0.5,1.7-0.7,2.8-0.7
					c1,0,2,0.2,2.8,0.7c0.8,0.5,1.5,1.2,2,2.1C55.8,59.9,56,61,56,62.2z M53.5,62.2c0-0.8-0.1-1.5-0.3-2.1c-0.2-0.6-0.6-1-1-1.3
					s-0.9-0.5-1.6-0.5s-1.2,0.1-1.6,0.5c-0.5,0.3-0.8,0.7-1,1.3c-0.2,0.6-0.3,1.3-0.3,2.1c0,0.8,0.1,1.5,0.3,2.1
					c0.2,0.6,0.6,1,1,1.3c0.5,0.3,0.9,0.5,1.6,0.5s1.2-0.1,1.6-0.5c0.5-0.3,0.8-0.7,1-1.3C53.4,63.8,53.5,63.1,53.5,62.2z
					 M49.7,64.1h2.1l1,1.4l1,1.3l2,2.4h-2.3l-1.4-1.6l-0.7-1L49.7,64.1z"/>
				<path class="st4" d="M60.4,56.3v11.8h-2.5V56.3H60.4z"/>
			</g>
			<g>
				<path class="st4" d="M31,57.8c0,0.2-0.1,0.4-0.1,0.6c-0.4,1.5-1.8,2.6-3.4,2.6c-3.1,0-6.3,0-9.4,0c-0.3,0-0.5-0.2-0.5-0.5
					s0.2-0.5,0.6-0.5c2.1,0,4.2,0,6.3,0c1,0,2,0,3.1,0c1.4,0,2.6-1.2,2.5-2.6c0-1-0.5-1.8-1.4-2.2c-0.9-0.5-1.8-0.4-2.6,0.2L26,55.5
					c-0.2,0.2-0.5,0.1-0.7-0.1c-0.2-0.2-0.1-0.5,0.1-0.7c0.7-0.5,1.5-0.8,2.3-0.8c1.6,0.1,3,1.2,3.3,2.8c0,0.1,0.1,0.3,0.1,0.4
					C31,57.4,31,57.6,31,57.8z"/>
				<path class="st4" d="M18.4,62.1c1.3,0,2.5,0,3.8,0c1.5,0,2.7,1,3,2.4c0.4,1.8-0.9,3.6-2.7,3.7c-0.8,0.1-1.5-0.1-2.2-0.6
					c-0.3-0.2-0.3-0.7,0.1-0.9c0.2-0.1,0.4,0,0.6,0.1c0.5,0.4,1.1,0.5,1.7,0.4c1-0.2,1.6-1.1,1.6-2.1c-0.1-1-0.8-1.8-1.8-1.9
					c-0.1,0-0.3,0-0.4,0c-2.5,0-5,0-7.5,0c-0.1,0-0.2,0-0.2,0c-0.2,0-0.4-0.3-0.4-0.5s0.1-0.4,0.3-0.5c0.1,0,0.2,0,0.3,0
					C15.9,62.1,17.2,62.1,18.4,62.1z"/>
				<path class="st4" d="M19.7,59.1c-0.9,0-1.8,0-2.6,0c-0.3,0-0.5-0.2-0.5-0.5s0.2-0.5,0.5-0.5c0.1,0,0.1,0,0.2,0
					c1.6,0,3.2,0,4.8,0c0.1,0,0.2,0,0.3,0c0.3,0,0.5,0.2,0.5,0.5s-0.2,0.5-0.5,0.5C21.5,59.1,20.6,59.1,19.7,59.1z"/>
				<path class="st4" d="M18.5,64.1c0.5,0,1,0,1.4,0c0.3,0,0.5,0.2,0.6,0.5c0,0.3-0.2,0.5-0.6,0.5c-1,0-1.9,0-2.9,0
					c-0.3,0-0.6-0.2-0.6-0.5s0.2-0.5,0.6-0.5C17.5,64.1,18,64.1,18.5,64.1z"/>
				<path class="st4" d="M14.8,59.1c-0.1,0-0.2,0-0.3,0c-0.3,0-0.5-0.2-0.5-0.5c0-0.2,0.1-0.5,0.4-0.5c0.3,0,0.6,0,0.9,0
					c0.3,0,0.4,0.3,0.4,0.5S15.5,59,15.2,59C15,59.1,14.9,59.1,14.8,59.1z"/>
			</g>
			<g>
				<g>
					<path d="M82.2,21c-0.1-0.5-0.3-1-0.7-1.3c-0.4-0.3-1-0.5-1.7-0.5c-0.5,0-0.9,0.1-1.2,0.2c-0.3,0.1-0.6,0.3-0.8,0.5
						c-0.2,0.2-0.3,0.5-0.3,0.8c0,0.2,0,0.5,0.2,0.6c0.1,0.2,0.3,0.3,0.5,0.5s0.4,0.2,0.7,0.3c0.3,0.1,0.5,0.2,0.9,0.2l1.2,0.3
						c0.6,0.1,1.2,0.3,1.7,0.5c0.5,0.2,0.9,0.5,1.3,0.8c0.4,0.3,0.7,0.7,0.9,1.2c0.2,0.4,0.3,1,0.3,1.5c0,0.8-0.2,1.6-0.6,2.2
						c-0.4,0.6-1,1.1-1.8,1.4c-0.8,0.3-1.8,0.5-2.9,0.5c-1.1,0-2.1-0.2-2.9-0.5S75.4,29.7,75,29c-0.5-0.7-0.7-1.5-0.7-2.5h2.8
						c0,0.5,0.2,0.8,0.4,1.2c0.2,0.3,0.6,0.5,1,0.7s0.8,0.2,1.4,0.2c0.5,0,0.9-0.1,1.3-0.2c0.4-0.1,0.7-0.3,0.9-0.6
						c0.2-0.3,0.3-0.6,0.3-0.9c0-0.3-0.1-0.6-0.3-0.8s-0.4-0.4-0.8-0.5s-0.8-0.3-1.3-0.4l-1.5-0.4c-1.2-0.3-2.1-0.7-2.8-1.3
						c-0.7-0.6-1-1.4-1-2.4c0-0.8,0.2-1.6,0.7-2.2c0.5-0.6,1.1-1.1,1.9-1.5c0.8-0.4,1.7-0.5,2.7-0.5c1,0,1.9,0.2,2.7,0.5
						c0.8,0.4,1.4,0.8,1.8,1.5c0.4,0.6,0.6,1.3,0.7,2.2H82.2z"/>
					<path d="M93.7,26.4v-6h2.9v10.4h-2.8V29h-0.1c-0.2,0.6-0.6,1.1-1.2,1.5c-0.5,0.4-1.2,0.6-2,0.6c-0.7,0-1.3-0.2-1.8-0.5
						s-0.9-0.8-1.2-1.3c-0.3-0.6-0.4-1.3-0.4-2.1v-6.6H90v6.1c0,0.6,0.2,1.1,0.5,1.5c0.3,0.4,0.8,0.5,1.3,0.5c0.3,0,0.7-0.1,1-0.2
						s0.5-0.4,0.7-0.7C93.6,27.3,93.7,26.9,93.7,26.4z"/>
					<path d="M98.9,30.8V20.5h2.8v1.8h0.1c0.2-0.6,0.5-1.1,1-1.5s1-0.5,1.5-0.5c0.1,0,0.3,0,0.5,0c0.2,0,0.3,0,0.4,0.1V23
						c-0.1,0-0.3-0.1-0.6-0.1c-0.2,0-0.5,0-0.7,0c-0.4,0-0.8,0.1-1.1,0.3s-0.6,0.4-0.8,0.8c-0.2,0.3-0.3,0.7-0.3,1.1v5.9H98.9z"/>
				</g>
			</g>
		</g>
	</g>
	<g>
		<g>
			<g>
				<path class="st4" d="M42.9,96.9h-1.6c-0.1-0.3-0.2-0.6-0.3-0.9c-0.2-0.3-0.4-0.5-0.6-0.7S39.8,95,39.5,95s-0.6-0.1-1-0.1
					c-0.6,0-1.2,0.2-1.6,0.5s-0.9,0.8-1.1,1.3c-0.3,0.6-0.4,1.3-0.4,2.2c0,0.9,0.1,1.6,0.4,2.2s0.7,1,1.1,1.3c0.5,0.3,1,0.5,1.6,0.5
					c0.3,0,0.6,0,1-0.1s0.6-0.2,0.8-0.4c0.2-0.2,0.5-0.4,0.6-0.7s0.3-0.6,0.4-0.9l1.6,0c-0.1,0.5-0.3,1-0.5,1.4
					c-0.2,0.4-0.6,0.8-0.9,1.1s-0.8,0.6-1.3,0.7c-0.5,0.2-1,0.3-1.6,0.3c-0.9,0-1.7-0.2-2.4-0.7c-0.7-0.4-1.3-1.1-1.7-1.9
					c-0.4-0.8-0.6-1.8-0.6-2.9c0-1.1,0.2-2.1,0.6-2.9c0.4-0.8,1-1.4,1.7-1.9c0.7-0.4,1.5-0.7,2.4-0.7c0.6,0,1.1,0.1,1.6,0.2
					s0.9,0.4,1.3,0.7c0.4,0.3,0.7,0.7,1,1.1C42.7,95.9,42.8,96.4,42.9,96.9z"/>
				<path class="st4" d="M54,98.8c0,1.1-0.2,2.1-0.6,2.9c-0.4,0.8-1,1.4-1.7,1.9c-0.7,0.4-1.5,0.7-2.4,0.7c-0.9,0-1.7-0.2-2.4-0.7
					c-0.7-0.4-1.3-1.1-1.7-1.9c-0.4-0.8-0.6-1.8-0.6-2.9c0-1.1,0.2-2.1,0.6-2.9c0.4-0.8,1-1.4,1.7-1.9c0.7-0.4,1.5-0.7,2.4-0.7
					c0.9,0,1.7,0.2,2.4,0.7c0.7,0.4,1.3,1.1,1.7,1.9C53.8,96.7,54,97.7,54,98.8z M52.4,98.8c0-0.9-0.1-1.6-0.4-2.2
					c-0.3-0.6-0.7-1-1.1-1.3c-0.5-0.3-1-0.5-1.6-0.5c-0.6,0-1.1,0.2-1.6,0.5s-0.9,0.8-1.1,1.3c-0.3,0.6-0.4,1.3-0.4,2.2
					c0,0.9,0.1,1.6,0.4,2.2c0.3,0.6,0.7,1,1.1,1.3s1,0.5,1.6,0.5c0.6,0,1.1-0.2,1.6-0.5c0.5-0.3,0.9-0.8,1.1-1.3
					C52.3,100.4,52.4,99.6,52.4,98.8z"/>
			</g>
		</g>
	</g>
	<g>
		<path class="st4" d="M132.9,93.5v10.5h-1.5l-5.4-7.7h-0.1v7.7h-1.6V93.5h1.5l5.4,7.7h0.1v-7.7H132.9z"/>
		<path class="st4" d="M144.3,98.8c0,1.1-0.2,2.1-0.6,2.9s-1,1.4-1.7,1.9c-0.7,0.4-1.5,0.7-2.4,0.7c-0.9,0-1.7-0.2-2.4-0.7
			c-0.7-0.4-1.3-1.1-1.7-1.9c-0.4-0.8-0.6-1.8-0.6-2.9c0-1.1,0.2-2.1,0.6-2.9c0.4-0.8,1-1.4,1.7-1.9s1.5-0.7,2.4-0.7
			c0.9,0,1.7,0.2,2.4,0.7s1.3,1.1,1.7,1.9C144.1,96.7,144.3,97.7,144.3,98.8z M142.8,98.8c0-0.9-0.1-1.6-0.4-2.2s-0.7-1-1.1-1.3
			c-0.5-0.3-1-0.5-1.6-0.5c-0.6,0-1.2,0.2-1.6,0.5c-0.5,0.3-0.9,0.8-1.1,1.3c-0.3,0.6-0.4,1.3-0.4,2.2s0.1,1.6,0.4,2.2
			c0.3,0.6,0.7,1,1.1,1.3c0.5,0.3,1,0.5,1.6,0.5c0.6,0,1.1-0.2,1.6-0.5c0.5-0.3,0.9-0.8,1.1-1.3S142.8,99.6,142.8,98.8z"/>
		<path class="st4" d="M146,105.8v-1l3-3.1c0.3-0.3,0.6-0.6,0.8-0.9c0.2-0.3,0.4-0.5,0.5-0.7c0.1-0.2,0.2-0.5,0.2-0.7
			c0-0.3-0.1-0.5-0.2-0.8c-0.1-0.2-0.3-0.4-0.6-0.5c-0.2-0.1-0.5-0.2-0.8-0.2c-0.3,0-0.6,0.1-0.8,0.2s-0.4,0.3-0.5,0.5
			c-0.1,0.2-0.2,0.5-0.2,0.8H146c0-0.5,0.1-1,0.4-1.4c0.2-0.4,0.6-0.7,1-0.9c0.4-0.2,0.9-0.3,1.5-0.3c0.6,0,1,0.1,1.5,0.3
			c0.4,0.2,0.8,0.5,1,0.9s0.4,0.8,0.4,1.3c0,0.3-0.1,0.6-0.2,1s-0.3,0.7-0.6,1s-0.7,0.8-1.3,1.4l-1.8,1.8v0.1h4v1.1H146z"/>
	</g>
	<g>
		<g>
			<path class="st3" d="M124.7,67.7v-3l7.6-12h2.6v4.2h-1.5l-4.8,7.6v0.1h10.8v3.1H124.7z M133.4,70.9v-4.1l0.1-1.3V52.7h3.6v18.2
				H133.4z"/>
			<path class="st3" d="M141.9,70.9v-2.8l6.5-6c0.6-0.5,1-1,1.4-1.4s0.7-0.8,0.9-1.3c0.2-0.4,0.3-0.9,0.3-1.3c0-0.5-0.1-1-0.4-1.4
				s-0.6-0.7-1-0.9c-0.4-0.2-0.9-0.3-1.4-0.3c-0.6,0-1,0.1-1.5,0.3c-0.4,0.2-0.7,0.5-1,1c-0.2,0.4-0.3,0.9-0.3,1.5h-3.6
				c0-1.2,0.3-2.2,0.8-3.1s1.3-1.6,2.3-2s2.1-0.7,3.4-0.7c1.3,0,2.4,0.2,3.4,0.7c1,0.5,1.7,1.1,2.3,1.9c0.5,0.8,0.8,1.7,0.8,2.8
				c0,0.7-0.1,1.4-0.4,2c-0.3,0.7-0.7,1.4-1.4,2.2s-1.7,1.8-2.9,2.9l-2.7,2.6v0.1h7.6v3.1H141.9z"/>
		</g>
	</g>
</g>
</svg>
