<?xml version="1.0" encoding="utf-8"?>
<!-- Generator: Adobe Illustrator 28.1.0, SVG Export Plug-In . SVG Version: 6.00 Build 0)  -->
<svg version="1.1" id="Layer_1" xmlns="http://www.w3.org/2000/svg" xmlns:xlink="http://www.w3.org/1999/xlink" x="0px" y="0px"
	 viewBox="0 0 291 43" style="enable-background:new 0 0 291 43;" xml:space="preserve">
<style type="text/css">
	.st0{fill:#25B5B1;stroke:#E7E7E7;stroke-width:2.2398;stroke-miterlimit:10;}
	.st1{fill:#FFFFFF;}
	.st2{fill:none;stroke:#FFFFFF;stroke-width:1.1199;stroke-miterlimit:10;}
</style>
<g>
	<path class="st0" d="M270.9,37.5H20.1c-7.4,0-13.4-6-13.4-13.4v-5.1c0-7.4,6-13.4,13.4-13.4h250.9c7.4,0,13.4,6,13.4,13.4v5.1
		C284.4,31.5,278.3,37.5,270.9,37.5z"/>
	<g>
		<g>
			<g>
				<g>
					<g>
						<g>
							<g>
								<path class="st1" d="M27.3,27.9h-2.2l5-13.8h2.4l5,13.8h-2.2l-3.9-11.3h-0.1L27.3,27.9z M27.7,22.5h7.2v1.8h-7.2V22.5z"/>
								<path class="st1" d="M40.3,15.9c-0.4,0-0.7-0.1-0.9-0.4S39,15,39,14.7c0-0.3,0.1-0.6,0.4-0.9c0.2-0.2,0.6-0.4,0.9-0.4
									s0.7,0.1,0.9,0.4c0.2,0.2,0.4,0.5,0.4,0.8c0,0.3-0.1,0.6-0.4,0.9S40.7,15.9,40.3,15.9z M39.3,27.9V17.5h2v10.4H39.3z"/>
								<path class="st1" d="M44,27.9V17.5h2v1.6h0.1c0.2-0.6,0.5-1,1-1.3c0.5-0.3,1-0.5,1.6-0.5c0.1,0,0.3,0,0.4,0
									c0.2,0,0.3,0,0.4,0v1.9c-0.1,0-0.2,0-0.4-0.1s-0.4,0-0.6,0c-0.5,0-0.9,0.1-1.3,0.3c-0.4,0.2-0.7,0.5-0.9,0.8
									c-0.2,0.4-0.3,0.8-0.3,1.2v6.3H44z"/>
								<path class="st1" d="M68.6,21c0,1.5-0.3,2.7-0.8,3.8s-1.3,1.9-2.2,2.4c-0.9,0.6-2,0.9-3.2,0.9c-1.2,0-2.3-0.3-3.2-0.9
									c-0.9-0.6-1.7-1.4-2.2-2.5c-0.5-1.1-0.8-2.3-0.8-3.8c0-1.5,0.3-2.7,0.8-3.8c0.5-1.1,1.3-1.9,2.2-2.4c0.9-0.6,2-0.9,3.2-0.9
									c1.2,0,2.3,0.3,3.2,0.9s1.7,1.4,2.2,2.4S68.6,19.5,68.6,21z M66.5,21c0-1.1-0.2-2.1-0.5-2.9c-0.4-0.8-0.9-1.4-1.5-1.8
									c-0.6-0.4-1.3-0.6-2.1-0.6c-0.8,0-1.5,0.2-2.1,0.6c-0.6,0.4-1.1,1-1.5,1.8c-0.4,0.8-0.5,1.7-0.5,2.9c0,1.1,0.2,2.1,0.5,2.8
									c0.4,0.8,0.9,1.4,1.5,1.8s1.3,0.6,2.1,0.6c0.8,0,1.5-0.2,2.1-0.6s1.1-1,1.5-1.8S66.5,22.1,66.5,21z M61.6,23.4h2.1l1.4,1.9
									l0.7,0.8l2.3,3H66l-1.5-2l-0.5-0.7L61.6,23.4z"/>
								<path class="st1" d="M77.6,23.6v-6.1h2v10.4h-2v-1.8h-0.1c-0.2,0.6-0.6,1-1.1,1.4c-0.5,0.4-1.2,0.6-2,0.6
									c-0.7,0-1.3-0.1-1.8-0.4c-0.5-0.3-0.9-0.7-1.2-1.3S71,25,71,24.1v-6.6h2v6.4c0,0.7,0.2,1.3,0.6,1.7c0.4,0.4,0.9,0.6,1.5,0.6
									c0.4,0,0.8-0.1,1.1-0.3c0.4-0.2,0.7-0.5,0.9-0.9C77.5,24.7,77.6,24.2,77.6,23.6z"/>
								<path class="st1" d="M85.4,28.1c-0.7,0-1.3-0.1-1.8-0.4c-0.5-0.2-1-0.6-1.3-1.1s-0.5-1-0.5-1.7c0-0.6,0.1-1.1,0.3-1.4
									c0.2-0.4,0.5-0.7,0.9-0.9c0.4-0.2,0.8-0.4,1.3-0.5c0.5-0.1,1-0.2,1.4-0.3c0.6-0.1,1.1-0.1,1.5-0.2c0.4,0,0.7-0.1,0.8-0.2
									c0.2-0.1,0.3-0.3,0.3-0.5v0c0-0.6-0.2-1-0.5-1.4S87.1,19,86.5,19c-0.7,0-1.2,0.1-1.6,0.4s-0.7,0.6-0.8,1L82.2,20
									c0.2-0.6,0.6-1.1,1-1.5c0.4-0.4,0.9-0.7,1.5-0.9c0.6-0.2,1.2-0.3,1.8-0.3c0.4,0,0.9,0,1.3,0.1c0.5,0.1,0.9,0.3,1.3,0.5
									s0.7,0.6,1,1.1c0.3,0.5,0.4,1.1,0.4,1.8v6.9h-2v-1.4h-0.1c-0.1,0.3-0.3,0.5-0.6,0.8s-0.6,0.5-1,0.6
									C86.4,28,85.9,28.1,85.4,28.1z M85.8,26.5c0.6,0,1-0.1,1.4-0.3c0.4-0.2,0.7-0.5,0.9-0.9s0.3-0.7,0.3-1.2v-1.3
									c-0.1,0.1-0.2,0.1-0.4,0.2c-0.2,0.1-0.4,0.1-0.7,0.2c-0.3,0-0.5,0.1-0.8,0.1s-0.5,0.1-0.6,0.1c-0.4,0-0.7,0.1-1.1,0.2
									c-0.3,0.1-0.6,0.3-0.8,0.5s-0.3,0.5-0.3,0.9c0,0.5,0.2,0.9,0.6,1.1C84.8,26.4,85.2,26.5,85.8,26.5z"/>
								<path class="st1" d="M95.2,14v13.8h-2V14H95.2z"/>
								<path class="st1" d="M98.9,15.9c-0.4,0-0.7-0.1-0.9-0.4s-0.4-0.5-0.4-0.8c0-0.3,0.1-0.6,0.4-0.9c0.2-0.2,0.6-0.4,0.9-0.4
									s0.7,0.1,0.9,0.4c0.2,0.2,0.4,0.5,0.4,0.8c0,0.3-0.1,0.6-0.4,0.9S99.3,15.9,98.9,15.9z M97.9,27.9V17.5h2v10.4H97.9z"/>
								<path class="st1" d="M107.5,17.5v1.6h-5.7v-1.6H107.5z M103.4,15h2v9.8c0,0.4,0.1,0.7,0.2,0.9c0.1,0.2,0.3,0.3,0.5,0.4
									c0.2,0.1,0.4,0.1,0.6,0.1c0.2,0,0.3,0,0.4,0c0.1,0,0.2,0,0.3-0.1l0.4,1.7c-0.1,0-0.3,0.1-0.5,0.1c-0.2,0-0.5,0.1-0.8,0.1
									c-0.5,0-1-0.1-1.5-0.3s-0.8-0.5-1.1-0.9c-0.3-0.4-0.4-0.9-0.4-1.6V15z"/>
								<path class="st1" d="M111,31.8c-0.3,0-0.6,0-0.8-0.1s-0.4-0.1-0.6-0.2l0.5-1.7c0.4,0.1,0.7,0.1,1,0.1c0.3,0,0.5-0.1,0.8-0.3
									c0.2-0.2,0.4-0.5,0.6-1l0.3-0.7l-3.8-10.5h2.2l2.6,8.1h0.1l2.6-8.1h2.2l-4.3,11.8c-0.2,0.5-0.5,1-0.8,1.4s-0.7,0.7-1.1,0.8
									S111.6,31.8,111,31.8z"/>
								<path class="st1" d="M127.8,14v13.8h-2.1V14H127.8z"/>
								<path class="st1" d="M132.7,21.7v6.2h-2V17.5h1.9v1.7h0.1c0.2-0.5,0.6-1,1.1-1.3c0.5-0.3,1.2-0.5,1.9-0.5
									c0.7,0,1.3,0.1,1.9,0.4c0.5,0.3,0.9,0.7,1.2,1.3c0.3,0.6,0.4,1.3,0.4,2.2v6.6h-2v-6.4c0-0.8-0.2-1.3-0.6-1.8
									c-0.4-0.4-0.9-0.6-1.6-0.6c-0.5,0-0.9,0.1-1.2,0.3c-0.4,0.2-0.6,0.5-0.9,0.9C132.8,20.7,132.7,21.2,132.7,21.7z"/>
								<path class="st1" d="M146,28.1c-0.8,0-1.6-0.2-2.2-0.6c-0.7-0.4-1.2-1-1.5-1.8c-0.4-0.8-0.6-1.8-0.6-2.9
									c0-1.1,0.2-2.1,0.6-2.9c0.4-0.8,0.9-1.4,1.6-1.8c0.7-0.4,1.4-0.6,2.2-0.6c0.6,0,1.2,0.1,1.6,0.3c0.4,0.2,0.7,0.5,0.9,0.7
									c0.2,0.3,0.4,0.5,0.5,0.8h0.1V14h2v13.8h-2v-1.6H149c-0.1,0.2-0.3,0.5-0.5,0.8c-0.2,0.3-0.5,0.5-0.9,0.7
									C147.1,28,146.6,28.1,146,28.1z M146.4,26.4c0.6,0,1.1-0.2,1.5-0.5c0.4-0.3,0.7-0.7,0.9-1.3c0.2-0.5,0.3-1.2,0.3-1.9
									c0-0.7-0.1-1.4-0.3-1.9c-0.2-0.5-0.5-1-0.9-1.3c-0.4-0.3-0.9-0.5-1.5-0.5c-0.6,0-1.1,0.2-1.5,0.5c-0.4,0.3-0.7,0.7-0.9,1.3
									s-0.3,1.2-0.3,1.8c0,0.7,0.1,1.3,0.3,1.9c0.2,0.6,0.5,1,0.9,1.3S145.8,26.4,146.4,26.4z"/>
								<path class="st1" d="M158.5,28.1c-1,0-1.9-0.2-2.6-0.7c-0.7-0.4-1.3-1.1-1.7-1.9c-0.4-0.8-0.6-1.7-0.6-2.8
									c0-1.1,0.2-2,0.6-2.8c0.4-0.8,1-1.4,1.7-1.9c0.7-0.5,1.6-0.7,2.5-0.7c0.6,0,1.2,0.1,1.7,0.3s1,0.5,1.5,0.9s0.8,1,1,1.6
									c0.3,0.7,0.4,1.5,0.4,2.4v0.7h-8.3v-1.5h6.3c0-0.5-0.1-1-0.3-1.4c-0.2-0.4-0.5-0.7-0.9-1c-0.4-0.2-0.8-0.4-1.4-0.4
									c-0.6,0-1.1,0.1-1.5,0.4c-0.4,0.3-0.7,0.6-1,1.1c-0.2,0.4-0.3,0.9-0.3,1.4v1.2c0,0.7,0.1,1.3,0.4,1.8c0.2,0.5,0.6,0.9,1,1.1
									c0.4,0.3,1,0.4,1.5,0.4c0.4,0,0.7-0.1,1-0.2s0.6-0.3,0.8-0.5c0.2-0.2,0.4-0.5,0.5-0.8l1.9,0.3c-0.2,0.6-0.4,1.1-0.8,1.5
									c-0.4,0.4-0.9,0.7-1.5,1S159.2,28.1,158.5,28.1z"/>
								<path class="st1" d="M166.8,17.5l2.3,4l2.3-4h2.2l-3.2,5.2l3.3,5.2h-2.2L169,24l-2.3,3.9h-2.2l3.2-5.2l-3.2-5.2H166.8z"/>
							</g>
						</g>
					</g>
				</g>
				<g>
					<g>
						<path class="st2" d="M262.7,18c-0.5,0-0.8,0.6-0.5,1l4.1,5.7c0.3,0.4,0.8,0.4,1.1,0l4.1-5.7c0.3-0.4,0-1-0.5-1"/>
					</g>
				</g>
			</g>
		</g>
	</g>
</g>
</svg>
