<?xml version="1.0" encoding="utf-8"?>
<!-- Generator: Adobe Illustrator 28.1.0, SVG Export Plug-In . SVG Version: 6.00 Build 0)  -->
<svg version="1.1" id="Layer_1" xmlns="http://www.w3.org/2000/svg" xmlns:xlink="http://www.w3.org/1999/xlink" x="0px" y="0px"
	 viewBox="0 0 277 304" style="enable-background:new 0 0 277 304;" xml:space="preserve">
<style type="text/css">
	.st0{fill:#FFFFFF;}
	.st1{fill:none;stroke:#25B5B1;stroke-width:0.8;stroke-miterlimit:10;}
	.st2{fill:#888888;}
	.st3{fill:#25B5B1;}
	.st4{fill:none;stroke:#E7E7E7;stroke-miterlimit:10;}
	.st5{fill:none;stroke:#E7E7E7;}
	.st6{fill:#E7E7E7;}
</style>
<g>
	<g>
		<g>
			<g>
				<g>
					<g>
						<g>
							<path class="st0" d="M263.9,297H13.6c-2.4,0-4.4-2-4.4-4.4V13.2c0-2.4,2-4.4,4.4-4.4H264c2.4,0,4.4,2,4.4,4.4v279.3
								C268.3,295,266.4,297,263.9,297z"/>
							<path class="st1" d="M263.9,297H13.6c-2.4,0-4.4-2-4.4-4.4V13.2c0-2.4,2-4.4,4.4-4.4H264c2.4,0,4.4,2,4.4,4.4v279.3
								C268.3,295,266.4,297,263.9,297z"/>
						</g>
						<g>
							<path class="st2" d="M48.7,31.8H47l3.9-10.9h1.9l3.9,10.9H55l-3.1-8.9h-0.1L48.7,31.8z M49,27.5h5.7v1.4H49V27.5z"/>
							<path class="st2" d="M59,22.4c-0.3,0-0.5-0.1-0.7-0.3c-0.2-0.2-0.3-0.4-0.3-0.7c0-0.3,0.1-0.5,0.3-0.7s0.4-0.3,0.7-0.3
								s0.5,0.1,0.7,0.3c0.2,0.2,0.3,0.4,0.3,0.7c0,0.3-0.1,0.5-0.3,0.7C59.5,22.3,59.3,22.4,59,22.4z M58.2,31.8v-8.2h1.6v8.2H58.2
								z"/>
							<path class="st2" d="M61.9,31.8v-8.2h1.5v1.3h0.1c0.1-0.4,0.4-0.8,0.8-1s0.8-0.4,1.3-0.4c0.1,0,0.2,0,0.4,0
								c0.1,0,0.2,0,0.3,0V25c-0.1,0-0.2,0-0.3-0.1c-0.2,0-0.3,0-0.5,0c-0.4,0-0.7,0.1-1,0.2c-0.3,0.2-0.5,0.4-0.7,0.7
								s-0.3,0.6-0.3,1v5H61.9z"/>
							<path class="st2" d="M81.3,26.4c0,1.2-0.2,2.2-0.6,3s-1,1.5-1.8,1.9c-0.7,0.4-1.6,0.7-2.5,0.7s-1.8-0.2-2.5-0.7
								c-0.7-0.4-1.3-1.1-1.7-1.9c-0.4-0.8-0.6-1.8-0.6-3s0.2-2.2,0.6-3s1-1.5,1.7-1.9s1.6-0.7,2.5-0.7s1.8,0.2,2.5,0.7
								s1.3,1.1,1.8,1.9C81.1,24.2,81.3,25.2,81.3,26.4z M79.6,26.4c0-0.9-0.1-1.6-0.4-2.2s-0.7-1.1-1.2-1.4s-1.1-0.5-1.7-0.5
								s-1.2,0.2-1.7,0.5s-0.9,0.8-1.2,1.4c-0.3,0.6-0.4,1.4-0.4,2.2s0.1,1.6,0.4,2.2s0.7,1.1,1.2,1.4s1.1,0.5,1.7,0.5
								s1.2-0.2,1.7-0.5s0.9-0.8,1.2-1.4C79.5,28,79.6,27.3,79.6,26.4z M75.8,28.3h1.6l1.1,1.5l0.5,0.7l1.8,2.4h-1.7L78,31.2
								l-0.4-0.6L75.8,28.3z"/>
							<path class="st2" d="M88.4,28.4v-4.8H90v8.2h-1.6v-1.4h-0.1c-0.2,0.4-0.5,0.8-0.9,1.1s-0.9,0.4-1.5,0.4c-0.5,0-1-0.1-1.4-0.3
								c-0.4-0.2-0.7-0.6-0.9-1s-0.3-1-0.3-1.7v-5.2h1.6v5c0,0.6,0.2,1,0.5,1.3s0.7,0.5,1.2,0.5c0.3,0,0.6-0.1,0.9-0.2
								s0.5-0.4,0.7-0.7C88.3,29.3,88.4,28.9,88.4,28.4z"/>
							<path class="st2" d="M94.5,32c-0.5,0-1-0.1-1.4-0.3c-0.4-0.2-0.8-0.5-1-0.8c-0.2-0.4-0.4-0.8-0.4-1.4c0-0.5,0.1-0.8,0.3-1.1
								c0.2-0.3,0.4-0.5,0.7-0.7c0.3-0.2,0.6-0.3,1-0.4s0.8-0.2,1.1-0.2C95.3,27,95.7,27,96,27c0.3,0,0.5-0.1,0.7-0.2
								c0.1-0.1,0.2-0.2,0.2-0.4l0,0c0-0.5-0.1-0.8-0.4-1.1c-0.3-0.3-0.6-0.4-1.2-0.4c-0.5,0-1,0.1-1.3,0.4s-0.5,0.5-0.6,0.8
								L92,25.6c0.2-0.5,0.4-0.9,0.8-1.2s0.7-0.5,1.2-0.7c0.4-0.1,0.9-0.2,1.4-0.2c0.3,0,0.7,0,1,0.1s0.7,0.2,1,0.4
								c0.3,0.2,0.6,0.5,0.8,0.9c0.2,0.4,0.3,0.9,0.3,1.5v5.4H97v-1.1h-0.1c-0.1,0.2-0.3,0.4-0.5,0.6s-0.5,0.4-0.8,0.5
								S94.9,32,94.5,32z M94.8,30.7c0.4,0,0.8-0.1,1.1-0.3c0.3-0.2,0.6-0.4,0.7-0.7c0.2-0.3,0.2-0.6,0.2-0.9v-1.1
								c-0.1,0.1-0.2,0.1-0.3,0.2S96.2,28,95.9,28s-0.4,0.1-0.6,0.1s-0.4,0-0.5,0.1c-0.3,0-0.6,0.1-0.8,0.2s-0.5,0.2-0.6,0.4
								c-0.2,0.2-0.2,0.4-0.2,0.7c0,0.4,0.1,0.7,0.4,0.9C94,30.6,94.4,30.7,94.8,30.7z"/>
							<path class="st2" d="M102.2,20.9v10.9h-1.6V20.9H102.2z"/>
							<path class="st2" d="M105.2,22.4c-0.3,0-0.5-0.1-0.7-0.3c-0.2-0.2-0.3-0.4-0.3-0.7c0-0.3,0.1-0.5,0.3-0.7
								c0.2-0.2,0.4-0.3,0.7-0.3s0.5,0.1,0.7,0.3c0.2,0.2,0.3,0.4,0.3,0.7c0,0.3-0.1,0.5-0.3,0.7C105.7,22.3,105.5,22.4,105.2,22.4z
								 M104.4,31.8v-8.2h1.6v8.2H104.4z"/>
							<path class="st2" d="M111.9,23.6v1.3h-4.5v-1.3H111.9z M108.7,21.7h1.6v7.7c0,0.3,0,0.5,0.1,0.7s0.2,0.3,0.4,0.3
								c0.1,0.1,0.3,0.1,0.5,0.1c0.1,0,0.2,0,0.3,0c0.1,0,0.2,0,0.2,0l0.3,1.3c-0.1,0-0.2,0.1-0.4,0.1c-0.2,0-0.4,0.1-0.6,0.1
								c-0.4,0-0.8-0.1-1.2-0.2c-0.4-0.2-0.7-0.4-0.9-0.7c-0.2-0.3-0.3-0.7-0.3-1.2V21.7z"/>
							<path class="st2" d="M114.7,34.9c-0.2,0-0.5,0-0.6-0.1s-0.3-0.1-0.4-0.1l0.4-1.3c0.3,0.1,0.6,0.1,0.8,0.1
								c0.2,0,0.4-0.1,0.6-0.3s0.3-0.4,0.5-0.8l0.2-0.5l-3-8.3h1.7l2.1,6.3h0.1l2.1-6.3h1.7l-3.4,9.3c-0.2,0.4-0.4,0.8-0.6,1.1
								s-0.5,0.5-0.9,0.7C115.5,34.8,115.1,34.9,114.7,34.9z"/>
							<path class="st2" d="M127.9,20.9v10.9h-1.6V20.9H127.9z"/>
							<path class="st2" d="M131.8,27v4.9h-1.6v-8.2h1.5V25h0.1c0.2-0.4,0.5-0.8,0.9-1c0.4-0.3,0.9-0.4,1.5-0.4s1,0.1,1.5,0.3
								c0.4,0.2,0.7,0.6,1,1s0.3,1,0.3,1.7v5.2h-1.6v-5c0-0.6-0.2-1.1-0.5-1.4s-0.7-0.5-1.3-0.5c-0.4,0-0.7,0.1-1,0.2
								c-0.3,0.2-0.5,0.4-0.7,0.7C131.9,26.2,131.8,26.5,131.8,27z"/>
							<path class="st2" d="M142.2,32c-0.7,0-1.2-0.2-1.8-0.5c-0.5-0.3-0.9-0.8-1.2-1.5s-0.4-1.4-0.4-2.3s0.1-1.6,0.4-2.3
								c0.3-0.6,0.7-1.1,1.2-1.4s1.1-0.5,1.8-0.5c0.5,0,0.9,0.1,1.2,0.3c0.3,0.2,0.6,0.4,0.7,0.6c0.2,0.2,0.3,0.4,0.4,0.6h0.1v-4.1
								h1.6v10.9h-1.6v-1.3h-0.1c-0.1,0.2-0.2,0.4-0.4,0.6s-0.4,0.4-0.7,0.6C143.1,31.9,142.7,32,142.2,32z M142.6,30.6
								c0.5,0,0.8-0.1,1.2-0.4s0.6-0.6,0.7-1s0.2-0.9,0.2-1.5s-0.1-1.1-0.2-1.5c-0.2-0.4-0.4-0.8-0.7-1s-0.7-0.4-1.2-0.4
								s-0.9,0.1-1.2,0.4c-0.3,0.2-0.6,0.6-0.7,1s-0.2,0.9-0.2,1.5c0,0.5,0.1,1,0.2,1.5c0.2,0.4,0.4,0.8,0.7,1
								C141.7,30.5,142.1,30.6,142.6,30.6z"/>
							<path class="st2" d="M152.1,32c-0.8,0-1.5-0.2-2.1-0.5s-1-0.8-1.3-1.5c-0.3-0.6-0.5-1.4-0.5-2.2c0-0.8,0.2-1.6,0.5-2.2
								s0.8-1.1,1.3-1.5c0.6-0.4,1.2-0.5,2-0.5c0.5,0,0.9,0.1,1.3,0.2c0.4,0.2,0.8,0.4,1.2,0.7c0.3,0.3,0.6,0.8,0.8,1.3
								s0.3,1.2,0.3,1.9v0.6h-6.5V27h4.9c0-0.4-0.1-0.8-0.3-1.1c-0.2-0.3-0.4-0.6-0.7-0.8c-0.3-0.2-0.7-0.3-1.1-0.3
								c-0.4,0-0.8,0.1-1.2,0.3s-0.6,0.5-0.8,0.9s-0.3,0.7-0.3,1.1V28c0,0.5,0.1,1,0.3,1.4s0.5,0.7,0.8,0.9s0.8,0.3,1.2,0.3
								c0.3,0,0.6,0,0.8-0.1s0.5-0.2,0.6-0.4c0.2-0.2,0.3-0.4,0.4-0.6l1.5,0.3c-0.1,0.4-0.3,0.8-0.6,1.2c-0.3,0.3-0.7,0.6-1.2,0.8
								C153.2,31.9,152.7,32,152.1,32z"/>
							<path class="st2" d="M158.6,23.6l1.8,3.2l1.8-3.2h1.7l-2.6,4.1l2.6,4.1h-1.7l-1.8-3.1l-1.8,3.1h-1.7l2.5-4.1l-2.5-4.1H158.6z
								"/>
							<path class="st2" d="M47.8,74.8V63.9h3.9c0.8,0,1.6,0.2,2.1,0.5c0.6,0.3,1,0.7,1.3,1.3c0.3,0.5,0.4,1.1,0.4,1.8
								c0,0.7-0.1,1.3-0.4,1.8c-0.3,0.5-0.7,1-1.3,1.3s-1.3,0.5-2.1,0.5H49v-1.4h2.5c0.5,0,1-0.1,1.3-0.3c0.3-0.2,0.6-0.4,0.7-0.8
								s0.2-0.7,0.2-1.1s-0.1-0.8-0.2-1.1c-0.2-0.3-0.4-0.6-0.7-0.8c-0.3-0.2-0.8-0.3-1.3-0.3h-2.1v9.5H47.8z"/>
							<path class="st2" d="M57.4,63.9h2l3.5,8.5H63l3.5-8.5h2v10.9h-1.6v-7.9h-0.1l-3.2,7.9h-1.3l-3.2-7.9H59v7.9h-1.6V63.9z"/>
							<path class="st2" d="M70.6,76.8v-1l3.2-3.3c0.3-0.4,0.6-0.7,0.8-0.9s0.4-0.5,0.5-0.8s0.2-0.5,0.2-0.8s-0.1-0.6-0.2-0.8
								c-0.1-0.2-0.3-0.4-0.6-0.5c-0.3-0.1-0.5-0.2-0.9-0.2c-0.3,0-0.6,0.1-0.9,0.2s-0.4,0.3-0.6,0.6c-0.1,0.3-0.2,0.5-0.2,0.9h-1.4
								c0-0.6,0.1-1.1,0.4-1.5s0.6-0.8,1.1-1s1-0.4,1.6-0.4s1.1,0.1,1.6,0.4c0.5,0.2,0.8,0.6,1.1,1c0.3,0.4,0.4,0.9,0.4,1.4
								c0,0.4-0.1,0.7-0.2,1s-0.4,0.7-0.7,1.1c-0.3,0.4-0.8,0.9-1.3,1.5l-1.9,2v0.1h4.3V77h-6.3V76.8z"/>
							<path class="st2" d="M79.5,76.9c-0.3,0-0.5-0.1-0.7-0.3c-0.2-0.2-0.3-0.4-0.3-0.7c0-0.3,0.1-0.5,0.3-0.6
								c0.2-0.2,0.4-0.3,0.7-0.3s0.5,0.1,0.7,0.3c0.2,0.2,0.3,0.4,0.3,0.6s0,0.3-0.1,0.5c-0.1,0.1-0.2,0.3-0.3,0.3
								C79.8,76.9,79.7,76.9,79.5,76.9z"/>
							<path class="st2" d="M85.4,76.9c-0.6,0-1.1-0.1-1.6-0.3s-0.8-0.5-1.1-0.9c-0.3-0.4-0.4-0.8-0.4-1.3h1.4c0,0.4,0.2,0.7,0.5,1
								s0.7,0.4,1.2,0.4c0.4,0,0.7-0.1,1-0.3c0.3-0.2,0.5-0.4,0.7-0.7s0.2-0.6,0.2-1s-0.1-0.7-0.2-1c-0.2-0.3-0.4-0.5-0.7-0.7
								c-0.3-0.2-0.6-0.3-1-0.3c-0.3,0-0.6,0-0.9,0.1s-0.5,0.2-0.7,0.4l-1.3-0.2l0.5-4.8h5.2v1.2h-4l-0.3,2.6H84
								c0.2-0.2,0.4-0.3,0.7-0.4s0.6-0.2,1-0.2c0.6,0,1.1,0.1,1.5,0.4c0.5,0.3,0.8,0.6,1.1,1.1c0.3,0.5,0.4,1,0.4,1.6
								s-0.1,1.2-0.4,1.6c-0.3,0.5-0.7,0.9-1.2,1.1C86.6,76.8,86,76.9,85.4,76.9z"/>
							<path class="st2" d="M53.8,109.8c-0.1-0.5-0.3-0.9-0.7-1.2s-0.9-0.4-1.6-0.4c-0.4,0-0.8,0.1-1.2,0.2
								c-0.3,0.1-0.6,0.3-0.8,0.6c-0.2,0.2-0.3,0.5-0.3,0.8s0.1,0.5,0.2,0.7c0.1,0.2,0.3,0.3,0.5,0.5s0.4,0.2,0.6,0.3
								c0.2,0.1,0.5,0.2,0.7,0.2l1.1,0.3c0.3,0.1,0.7,0.2,1.1,0.3c0.4,0.1,0.7,0.3,1,0.6s0.6,0.5,0.8,0.9s0.3,0.8,0.3,1.3
								c0,0.6-0.2,1.2-0.5,1.6c-0.3,0.5-0.8,0.9-1.4,1.1c-0.6,0.3-1.3,0.4-2.2,0.4c-0.8,0-1.5-0.1-2.1-0.4s-1.1-0.6-1.4-1.1
								s-0.5-1-0.6-1.7H49c0,0.4,0.2,0.7,0.4,1s0.5,0.5,0.9,0.6s0.7,0.2,1.2,0.2s0.9-0.1,1.2-0.2c0.4-0.1,0.7-0.4,0.9-0.6
								c0.2-0.3,0.3-0.6,0.3-0.9s-0.1-0.6-0.3-0.8c-0.2-0.2-0.4-0.4-0.7-0.5s-0.7-0.3-1.1-0.4l-1.3-0.4c-0.9-0.2-1.6-0.6-2.1-1
								c-0.5-0.5-0.8-1.1-0.8-1.8c0-0.6,0.2-1.2,0.5-1.6s0.8-0.8,1.4-1.1c0.6-0.3,1.2-0.4,2-0.4c0.7,0,1.4,0.1,2,0.4s1,0.6,1.3,1.1
								s0.5,1,0.5,1.6h-1.5V109.8z"/>
							<path class="st2" d="M60.8,118c-0.8,0-1.4-0.2-2-0.5s-1-0.8-1.3-1.5c-0.3-0.6-0.5-1.4-0.5-2.2c0-0.8,0.2-1.6,0.5-2.2
								s0.8-1.1,1.3-1.5s1.2-0.5,2-0.5s1.4,0.2,2,0.5c0.6,0.4,1,0.8,1.3,1.5c0.3,0.7,0.5,1.4,0.5,2.2c0,0.8-0.2,1.6-0.5,2.2
								c-0.3,0.6-0.8,1.1-1.3,1.5C62.2,117.8,61.6,118,60.8,118z M60.8,116.6c0.5,0,0.9-0.1,1.2-0.4s0.6-0.6,0.7-1
								c0.2-0.4,0.2-0.9,0.2-1.4s-0.1-1-0.2-1.4c-0.2-0.4-0.4-0.8-0.7-1.1c-0.3-0.3-0.7-0.4-1.2-0.4s-0.9,0.1-1.2,0.4
								s-0.6,0.6-0.7,1.1c-0.2,0.4-0.2,0.9-0.2,1.4s0.1,1,0.2,1.4c0.2,0.4,0.4,0.8,0.7,1C59.9,116.5,60.3,116.6,60.8,116.6z"/>
							<path class="st2" d="M66.2,119.8v-1l3.2-3.3c0.3-0.4,0.6-0.7,0.8-0.9s0.4-0.5,0.5-0.8s0.2-0.5,0.2-0.8s-0.1-0.6-0.2-0.8
								c-0.1-0.2-0.3-0.4-0.6-0.5c-0.3-0.1-0.5-0.2-0.9-0.2c-0.3,0-0.6,0.1-0.9,0.2s-0.4,0.3-0.6,0.6c-0.1,0.3-0.2,0.5-0.2,0.9h-1.4
								c0-0.6,0.1-1.1,0.4-1.5s0.6-0.8,1.1-1s1-0.4,1.6-0.4s1.1,0.1,1.6,0.4c0.5,0.2,0.8,0.6,1.1,1c0.3,0.4,0.4,0.9,0.4,1.4
								c0,0.4-0.1,0.7-0.2,1s-0.4,0.7-0.7,1.1c-0.3,0.4-0.8,0.9-1.3,1.5l-1.9,2v0.1h4.3v1.2h-6.3V119.8z"/>
							<path class="st2" d="M57.3,155.4c0,1.2-0.2,2.2-0.6,3c-0.4,0.8-1,1.5-1.8,1.9c-0.7,0.4-1.6,0.7-2.5,0.7s-1.8-0.2-2.5-0.7
								c-0.7-0.4-1.3-1.1-1.7-1.9c-0.4-0.8-0.6-1.8-0.6-3s0.2-2.2,0.6-3c0.4-0.8,1-1.5,1.7-1.9s1.6-0.7,2.5-0.7s1.8,0.2,2.5,0.7
								s1.3,1.1,1.8,1.9C57.1,153.2,57.3,154.2,57.3,155.4z M55.7,155.4c0-0.9-0.1-1.6-0.4-2.2c-0.3-0.6-0.7-1.1-1.2-1.4
								c-0.5-0.3-1.1-0.5-1.7-0.5c-0.6,0-1.2,0.2-1.7,0.5s-0.9,0.8-1.2,1.4c-0.3,0.6-0.4,1.4-0.4,2.2s0.1,1.6,0.4,2.2
								c0.3,0.6,0.7,1.1,1.2,1.4c0.5,0.3,1.1,0.5,1.7,0.5c0.6,0,1.2-0.2,1.7-0.5s0.9-0.8,1.2-1.4C55.5,157,55.7,156.3,55.7,155.4z"
								/>
							<path class="st2" d="M62.4,162.9c-0.6,0-1.2-0.1-1.7-0.3s-0.9-0.5-1.2-0.9s-0.4-0.8-0.5-1.4h1.4c0,0.3,0.1,0.5,0.3,0.7
								s0.4,0.4,0.7,0.5s0.6,0.2,0.9,0.2c0.4,0,0.7-0.1,1-0.2c0.3-0.1,0.5-0.3,0.7-0.5s0.2-0.5,0.2-0.8s-0.1-0.6-0.2-0.8
								c-0.2-0.2-0.4-0.4-0.7-0.6c-0.3-0.1-0.7-0.2-1.1-0.2h-0.8v-1.2h0.8c0.4,0,0.7-0.1,0.9-0.2c0.3-0.1,0.5-0.3,0.6-0.5
								s0.2-0.5,0.2-0.8s-0.1-0.5-0.2-0.8c-0.1-0.2-0.3-0.4-0.6-0.5c-0.2-0.1-0.5-0.2-0.8-0.2s-0.6,0.1-0.9,0.2s-0.5,0.3-0.6,0.5
								c-0.2,0.2-0.3,0.5-0.3,0.7h-1.4c0-0.5,0.2-1,0.5-1.3c0.3-0.4,0.7-0.7,1.1-0.9c0.5-0.2,1-0.3,1.6-0.3s1.1,0.1,1.6,0.4
								c0.4,0.2,0.8,0.5,1,0.9s0.4,0.8,0.4,1.3s-0.1,1-0.4,1.3c-0.3,0.4-0.7,0.6-1.2,0.7v0.1c0.6,0.1,1.1,0.3,1.5,0.7
								c0.3,0.4,0.5,0.9,0.5,1.5c0,0.5-0.1,1-0.4,1.4s-0.7,0.7-1.2,1C63.6,162.8,63,162.9,62.4,162.9z"/>
							<path class="st2" d="M56.9,196.5h-1.7c-0.1-0.4-0.2-0.7-0.4-0.9c-0.2-0.3-0.4-0.5-0.6-0.7c-0.3-0.2-0.5-0.3-0.8-0.4
								c-0.3-0.1-0.6-0.1-1-0.1c-0.6,0-1.2,0.2-1.7,0.5s-0.9,0.8-1.2,1.4c-0.3,0.6-0.4,1.4-0.4,2.2c0,0.9,0.1,1.6,0.4,2.2
								c0.3,0.6,0.7,1.1,1.2,1.4s1.1,0.5,1.7,0.5c0.3,0,0.7,0,1-0.1s0.6-0.2,0.8-0.4c0.3-0.2,0.5-0.4,0.6-0.7s0.3-0.6,0.4-0.9h1.7
								c-0.1,0.5-0.3,1-0.5,1.5s-0.6,0.8-1,1.2c-0.4,0.3-0.8,0.6-1.4,0.8s-1,0-1.6,0c-0.9,0-1.8-0.2-2.5-0.7
								c-0.7-0.4-1.3-1.1-1.7-1.9s-0.6-1.8-0.6-3s0.2-2.2,0.6-3c0.4-0.8,1-1.5,1.7-1.9s1.6-0.7,2.5-0.7c0.6,0,1.1,0.1,1.6,0.2
								c0.5,0.2,1,0.4,1.4,0.7s0.7,0.7,1,1.2C56.6,195.4,56.8,195.9,56.9,196.5z"/>
							<path class="st2" d="M62.2,204c-0.8,0-1.4-0.2-2-0.5s-1-0.8-1.3-1.5c-0.3-0.6-0.5-1.4-0.5-2.2s0.2-1.6,0.5-2.2
								s0.8-1.1,1.3-1.5s1.2-0.5,2-0.5s1.4,0.2,2,0.5c0.6,0.4,1,0.8,1.3,1.5s0.5,1.4,0.5,2.2s-0.2,1.6-0.5,2.2
								c-0.3,0.6-0.8,1.1-1.3,1.5C63.6,203.8,62.9,204,62.2,204z M62.2,202.6c0.5,0,0.9-0.1,1.2-0.4s0.6-0.6,0.7-1
								c0.2-0.4,0.2-0.9,0.2-1.4s-0.1-1-0.2-1.4c-0.2-0.4-0.4-0.8-0.7-1.1s-0.7-0.4-1.2-0.4s-0.9,0.1-1.2,0.4
								c-0.3,0.3-0.6,0.6-0.7,1.1c-0.2,0.4-0.2,0.9-0.2,1.4s0.1,1,0.2,1.4c0.2,0.4,0.4,0.8,0.7,1C61.3,202.5,61.7,202.6,62.2,202.6z
								"/>
							<path class="st2" d="M47.8,246.8v-10.9h3.9c0.8,0,1.6,0.2,2.1,0.5c0.6,0.3,1,0.7,1.3,1.3c0.3,0.5,0.4,1.1,0.4,1.8
								s-0.1,1.3-0.4,1.8c-0.3,0.5-0.7,1-1.3,1.3s-1.3,0.5-2.1,0.5H49v-1.4h2.5c0.5,0,1-0.1,1.3-0.3s0.6-0.4,0.7-0.8
								s0.2-0.7,0.2-1.1s-0.1-0.8-0.2-1.1c-0.2-0.3-0.4-0.6-0.7-0.8s-0.8-0.3-1.3-0.3h-2.1v9.5H47.8z"/>
							<path class="st2" d="M57.4,235.9h2l3.5,8.5H63l3.5-8.5h2v10.9h-1.6v-7.9h-0.1l-3.2,7.9h-1.3l-3.2-7.9H59v7.9h-1.6V235.9z"/>
							<path class="st2" d="M74.2,239.4v9.5h-1.4v-8h-0.1l-2.3,1.5V241l2.4-1.5h1.4V239.4z"/>
							<path class="st2" d="M80,249c-0.7,0-1.4-0.2-1.9-0.6c-0.5-0.4-0.9-0.9-1.2-1.7c-0.3-0.7-0.4-1.6-0.4-2.6s0.1-1.9,0.4-2.6
								c0.3-0.7,0.7-1.3,1.2-1.7s1.1-0.6,1.9-0.6c0.7,0,1.3,0.2,1.9,0.6c0.5,0.4,0.9,0.9,1.2,1.7s0.4,1.6,0.4,2.6s-0.1,1.9-0.4,2.6
								c-0.3,0.7-0.7,1.3-1.2,1.7C81.4,248.8,80.8,249,80,249z M80,247.7c0.6,0,1.1-0.3,1.5-0.9c0.4-0.6,0.5-1.5,0.5-2.7
								c0-0.8-0.1-1.4-0.2-2c-0.2-0.5-0.4-1-0.7-1.2c-0.3-0.3-0.7-0.4-1.1-0.4c-0.6,0-1.1,0.3-1.5,0.9s-0.5,1.5-0.5,2.7
								c0,0.8,0.1,1.5,0.2,2c0.2,0.5,0.4,1,0.7,1.2C79.2,247.6,79.6,247.7,80,247.7z"/>
							<path class="st2" d="M56.6,278.9v10.9h-1.5l-5.5-8h-0.1v8h-1.6v-10.9h1.5l5.6,8l0,0v-8H56.6z"/>
							<path class="st2" d="M68.5,284.4c0,1.2-0.2,2.2-0.6,3s-1,1.5-1.8,1.9c-0.7,0.4-1.6,0.7-2.5,0.7s-1.8-0.2-2.5-0.7
								c-0.7-0.4-1.3-1.1-1.7-1.9s-0.6-1.8-0.6-3s0.2-2.2,0.6-3c0.4-0.8,1-1.5,1.7-1.9s1.6-0.7,2.5-0.7s1.8,0.2,2.5,0.7
								s1.3,1.1,1.8,1.9C68.3,282.2,68.5,283.2,68.5,284.4z M66.9,284.4c0-0.9-0.1-1.6-0.4-2.2s-0.7-1.1-1.2-1.4s-1.1-0.5-1.7-0.5
								c-0.6,0-1.2,0.2-1.7,0.5s-0.9,0.8-1.2,1.4s-0.4,1.4-0.4,2.2s0.1,1.6,0.4,2.2c0.3,0.6,0.7,1.1,1.2,1.4s1.1,0.5,1.7,0.5
								s1.2-0.2,1.7-0.5s0.9-0.8,1.2-1.4C66.7,286,66.9,285.3,66.9,284.4z"/>
							<path class="st2" d="M70.3,291.8v-1l3.2-3.3c0.3-0.4,0.6-0.7,0.8-0.9s0.4-0.5,0.5-0.8s0.2-0.5,0.2-0.8s-0.1-0.6-0.2-0.8
								c-0.1-0.2-0.3-0.4-0.6-0.5c-0.3-0.1-0.5-0.2-0.9-0.2c-0.3,0-0.6,0.1-0.9,0.2s-0.4,0.3-0.6,0.6c-0.1,0.3-0.2,0.5-0.2,0.9h-1.4
								c0-0.6,0.1-1.1,0.4-1.5s0.6-0.8,1.1-1s1-0.4,1.6-0.4s1.1,0.1,1.6,0.4c0.5,0.2,0.8,0.6,1.1,1c0.3,0.4,0.4,0.9,0.4,1.4
								c0,0.4-0.1,0.7-0.2,1s-0.4,0.7-0.7,1.1c-0.3,0.4-0.8,0.9-1.3,1.5l-1.9,2v0.1h4.3v1.2h-6.3V291.8z"/>
						</g>
					</g>
				</g>
			</g>
		</g>
		<g>
			<g>
				<g>
					<path class="st2" d="M30.2,35.1c-4.6,0-8.4-3.9-8.4-8.7s3.8-8.7,8.4-8.7s8.4,3.9,8.4,8.7S34.8,35.1,30.2,35.1z M30.2,18.5
						c-4.1,0-7.4,3.5-7.4,7.8s3.3,7.8,7.4,7.8s7.4-3.5,7.4-7.8C37.7,22,34.3,18.5,30.2,18.5z"/>
				</g>
				<ellipse class="st3" cx="30.2" cy="26.3" rx="6.2" ry="6.5"/>
			</g>
			<g>
				<g>
					<path class="st2" d="M30.2,78c-4.6,0-8.4-3.9-8.4-8.7s3.8-8.7,8.4-8.7s8.4,3.9,8.4,8.7S34.8,78,30.2,78z M30.2,61.5
						c-4.1,0-7.4,3.5-7.4,7.8s3.3,7.8,7.4,7.8s7.4-3.5,7.4-7.8C37.7,65,34.3,61.5,30.2,61.5z"/>
				</g>
				<ellipse class="st4" cx="30.2" cy="69.3" rx="6.2" ry="6.5"/>
			</g>
			<g>
				<g>
					<path class="st2" d="M30.2,121c-4.6,0-8.4-3.9-8.4-8.7s3.8-8.7,8.4-8.7s8.4,3.9,8.4,8.7S34.8,121,30.2,121z M30.2,104.5
						c-4.1,0-7.4,3.5-7.4,7.8s3.3,7.8,7.4,7.8s7.4-3.5,7.4-7.8C37.7,108,34.3,104.5,30.2,104.5z"/>
				</g>
				<ellipse class="st4" cx="30.2" cy="112.3" rx="6.2" ry="6.5"/>
			</g>
			<g>
				<g>
					<path class="st2" d="M30.2,164c-4.6,0-8.4-3.9-8.4-8.7s3.8-8.7,8.4-8.7s8.4,3.9,8.4,8.7S34.8,164,30.2,164z M30.2,147.5
						c-4.1,0-7.4,3.5-7.4,7.8s3.3,7.8,7.4,7.8s7.4-3.5,7.4-7.8C37.7,151,34.3,147.5,30.2,147.5z"/>
				</g>
				<ellipse class="st4" cx="30.2" cy="155.3" rx="6.2" ry="6.5"/>
			</g>
			<g>
				<g>
					<path class="st2" d="M30.2,207c-4.6,0-8.4-3.9-8.4-8.7s3.8-8.7,8.4-8.7s8.4,3.9,8.4,8.7S34.8,207,30.2,207z M30.2,190.5
						c-4.1,0-7.4,3.5-7.4,7.8s3.3,7.8,7.4,7.8s7.4-3.5,7.4-7.8C37.7,194,34.3,190.5,30.2,190.5z"/>
				</g>
				<ellipse class="st4" cx="30.2" cy="198.3" rx="6.2" ry="6.5"/>
			</g>
			<g>
				<g>
					<path class="st2" d="M30.2,250c-4.6,0-8.4-3.9-8.4-8.7s3.8-8.7,8.4-8.7s8.4,3.9,8.4,8.7S34.8,250,30.2,250z M30.2,233.5
						c-4.1,0-7.4,3.5-7.4,7.8s3.3,7.8,7.4,7.8s7.4-3.5,7.4-7.8C37.7,237,34.3,233.5,30.2,233.5z"/>
				</g>
				<ellipse class="st4" cx="30.2" cy="241.2" rx="6.2" ry="6.5"/>
			</g>
			<g>
				<g>
					<path class="st2" d="M30.2,293c-4.6,0-8.4-3.9-8.4-8.7s3.8-8.7,8.4-8.7s8.4,3.9,8.4,8.7S34.8,293,30.2,293z M30.2,276.5
						c-4.1,0-7.4,3.5-7.4,7.8s3.3,7.8,7.4,7.8s7.4-3.5,7.4-7.8C37.7,279.9,34.3,276.5,30.2,276.5z"/>
				</g>
				<ellipse class="st4" cx="30.2" cy="284.2" rx="6.2" ry="6.5"/>
			</g>
		</g>
		<g>
			<line class="st5" x1="28.7" y1="47.4" x2="228.2" y2="47.4"/>
			<line class="st5" x1="28.7" y1="90.8" x2="228.2" y2="90.8"/>
			<line class="st5" x1="28.7" y1="133.3" x2="228.2" y2="133.3"/>
			<line class="st5" x1="28.7" y1="174.7" x2="228.2" y2="174.7"/>
			<line class="st5" x1="28.7" y1="219.7" x2="228.2" y2="219.7"/>
			<line class="st5" x1="28.7" y1="262.7" x2="228.2" y2="262.7"/>
		</g>
	</g>
	<g>
		<path class="st6" d="M252.3,292L252.3,292c3,0,5.5-2.5,5.5-5.5V29.1c0-3-2.5-5.5-5.5-5.5l0,0c-3,0-5.5,2.5-5.5,5.5v257.3
			C246.8,289.5,249.2,292,252.3,292z"/>
		<g>
			<g>
				<path class="st3" d="M252.3,163.6L252.3,163.6c3,0,5.5-2.5,5.5-5.5v-108c0-3-2.5-5.5-5.5-5.5l0,0c-3,0-5.5,2.5-5.5,5.5v108
					C246.8,161.1,249.2,163.6,252.3,163.6z"/>
			</g>
		</g>
	</g>
</g>
</svg>
