<?xml version="1.0" encoding="utf-8"?>
<!-- Generator: Adobe Illustrator 28.1.0, SVG Export Plug-In . SVG Version: 6.00 Build 0)  -->
<svg version="1.1" id="Layer_1" xmlns="http://www.w3.org/2000/svg" xmlns:xlink="http://www.w3.org/1999/xlink" x="0px" y="0px"
	 viewBox="0 0 256 274" style="enable-background:new 0 0 256 274;" xml:space="preserve">
<style type="text/css">
	.st0{fill:#FFFFFF;}
	.st1{fill:none;stroke:#25B5B1;stroke-width:0.8;stroke-miterlimit:10;}
	.st2{fill:#4F4F4F;}
	.st3{fill:#25B5B1;}
	.st4{fill:#888888;}
	.st5{fill:none;stroke:#E7E7E7;}
	.st6{fill:none;stroke:#4F4F4F;}
	.st7{fill:#C3C3C3;}
	.st8{fill:none;stroke:#FFFFFF;stroke-width:1.1393;stroke-linecap:round;stroke-linejoin:round;stroke-miterlimit:10;}
</style>
<g>
	<g>
		<g>
			<g>
				<path class="st0" d="M30.2,10.1h198.6c11.3,0,20.5,9.2,20.5,20.5v215.3c0,11.3-9.2,20.5-20.5,20.5H30.2
					c-11.3,0-20.5-9.2-20.5-20.5V30.6C9.7,19.3,18.9,10.1,30.2,10.1z"/>
				<path class="st1" d="M30.2,10.1h198.6c11.3,0,20.5,9.2,20.5,20.5v215.3c0,11.3-9.2,20.5-20.5,20.5H30.2
					c-11.3,0-20.5-9.2-20.5-20.5V30.6C9.7,19.3,18.9,10.1,30.2,10.1z"/>
			</g>
			<g>
				<g>
					<g>
						<path class="st2" d="M161.9,40.6c-0.1-0.1-0.2-0.2-0.2-0.4c0-0.3,0.2-0.5,0.6-0.5l0.5,0c0.5,0,0.9-0.2,1.2-0.5
							c0.3-0.3,0.4-0.8,0.4-1.4v-7.3c0-0.2,0.1-0.3,0.2-0.5c0.1-0.1,0.3-0.2,0.4-0.2c0.2,0,0.3,0.1,0.5,0.2c0.1,0.1,0.2,0.3,0.2,0.5
							v7.3c0,0.9-0.2,1.6-0.6,2.1c-0.4,0.5-1.1,0.7-1.9,0.8l-0.5,0C162.2,40.7,162,40.7,161.9,40.6z"/>
						<path class="st2" d="M173.8,35.9v4.1c0,0.2-0.1,0.3-0.2,0.4c-0.1,0.1-0.3,0.2-0.4,0.2c-0.2,0-0.3-0.1-0.4-0.2
							c-0.1-0.1-0.2-0.3-0.2-0.4v-0.7c-0.2,0.4-0.5,0.8-0.9,1c-0.4,0.2-0.9,0.4-1.4,0.4c-0.5,0-0.9-0.1-1.3-0.3
							c-0.4-0.2-0.7-0.5-1-0.8c-0.2-0.3-0.3-0.7-0.3-1.1c0-0.6,0.1-1,0.4-1.3c0.3-0.3,0.7-0.5,1.4-0.7c0.6-0.1,1.6-0.2,2.7-0.2h0.3
							v-0.5c0-0.6-0.1-1.1-0.4-1.3c-0.2-0.3-0.7-0.4-1.2-0.4c-0.7,0-1.4,0.2-2.1,0.6c-0.3,0.2-0.5,0.3-0.6,0.3c-0.1,0-0.2,0-0.3-0.1
							c-0.1-0.1-0.1-0.2-0.1-0.3c0-0.1,0-0.3,0.1-0.4c0.1-0.1,0.2-0.2,0.4-0.3c0.4-0.2,0.8-0.4,1.2-0.5c0.5-0.1,0.9-0.2,1.3-0.2
							C172.8,33,173.8,34,173.8,35.9z M172,39.1c0.4-0.4,0.6-0.9,0.6-1.6v-0.4h-0.3c-0.9,0-1.6,0-2,0.1c-0.5,0.1-0.8,0.2-1,0.4
							c-0.2,0.2-0.3,0.4-0.3,0.8c0,0.4,0.1,0.7,0.4,1c0.3,0.3,0.7,0.4,1.1,0.4C171.1,39.7,171.6,39.5,172,39.1z"/>
						<path class="st2" d="M182.4,36v4.1c0,0.2-0.1,0.3-0.2,0.4c-0.1,0.1-0.3,0.2-0.4,0.2c-0.2,0-0.3-0.1-0.5-0.2
							c-0.1-0.1-0.2-0.3-0.2-0.4v-4c0-0.7-0.1-1.2-0.4-1.5c-0.3-0.3-0.7-0.5-1.3-0.5c-0.7,0-1.2,0.2-1.6,0.6c-0.4,0.4-0.6,1-0.6,1.7
							v3.7c0,0.2-0.1,0.3-0.2,0.4c-0.1,0.1-0.3,0.2-0.4,0.2c-0.2,0-0.3-0.1-0.5-0.2c-0.1-0.1-0.2-0.3-0.2-0.4v-6.4
							c0-0.2,0.1-0.3,0.2-0.4c0.1-0.1,0.3-0.2,0.5-0.2c0.2,0,0.3,0.1,0.4,0.2c0.1,0.1,0.2,0.3,0.2,0.4v0.8c0.2-0.5,0.6-0.8,1-1
							c0.4-0.2,0.9-0.4,1.5-0.4C181.5,33,182.4,34,182.4,36z"/>
						<path class="st2" d="M190.7,33.2c0.1,0.1,0.2,0.3,0.2,0.4v6.4c0,0.2-0.1,0.3-0.2,0.4c-0.1,0.1-0.3,0.2-0.4,0.2
							c-0.2,0-0.3-0.1-0.4-0.2c-0.1-0.1-0.2-0.2-0.2-0.4v-0.8c-0.2,0.4-0.6,0.8-1,1c-0.4,0.2-0.9,0.4-1.4,0.4c-0.9,0-1.5-0.2-2-0.7
							c-0.4-0.5-0.7-1.2-0.7-2.2v-4.1c0-0.2,0.1-0.3,0.2-0.4c0.1-0.1,0.3-0.2,0.5-0.2c0.2,0,0.3,0.1,0.4,0.2
							c0.1,0.1,0.2,0.3,0.2,0.4v4.1c0,0.7,0.1,1.1,0.4,1.5c0.3,0.3,0.7,0.5,1.2,0.5c0.6,0,1.2-0.2,1.6-0.6c0.4-0.4,0.6-1,0.6-1.7
							v-3.7c0-0.2,0.1-0.3,0.2-0.4c0.1-0.1,0.3-0.2,0.5-0.2C190.5,33.1,190.6,33.1,190.7,33.2z"/>
						<path class="st2" d="M199,35.9v4.1c0,0.2-0.1,0.3-0.2,0.4c-0.1,0.1-0.3,0.2-0.4,0.2c-0.2,0-0.3-0.1-0.4-0.2
							c-0.1-0.1-0.2-0.3-0.2-0.4v-0.7c-0.2,0.4-0.5,0.8-0.9,1c-0.4,0.2-0.9,0.4-1.4,0.4c-0.5,0-0.9-0.1-1.3-0.3
							c-0.4-0.2-0.7-0.5-1-0.8c-0.2-0.3-0.3-0.7-0.3-1.1c0-0.6,0.1-1,0.4-1.3c0.3-0.3,0.7-0.5,1.4-0.7c0.6-0.1,1.6-0.2,2.7-0.2h0.3
							v-0.5c0-0.6-0.1-1.1-0.4-1.3c-0.2-0.3-0.7-0.4-1.2-0.4c-0.7,0-1.4,0.2-2.1,0.6c-0.3,0.2-0.5,0.3-0.6,0.3c-0.1,0-0.2,0-0.3-0.1
							c-0.1-0.1-0.1-0.2-0.1-0.3c0-0.1,0-0.3,0.1-0.4c0.1-0.1,0.2-0.2,0.4-0.3c0.4-0.2,0.8-0.4,1.2-0.5c0.5-0.1,0.9-0.2,1.3-0.2
							C198.1,33,199,34,199,35.9z M197.2,39.1c0.4-0.4,0.6-0.9,0.6-1.6v-0.4h-0.3c-0.9,0-1.6,0-2,0.1c-0.5,0.1-0.8,0.2-1,0.4
							c-0.2,0.2-0.3,0.4-0.3,0.8c0,0.4,0.1,0.7,0.4,1c0.3,0.3,0.7,0.4,1.1,0.4C196.3,39.7,196.8,39.5,197.2,39.1z"/>
						<path class="st2" d="M205.5,33.6c0,0.2,0,0.3-0.1,0.4c-0.1,0.1-0.2,0.2-0.5,0.2l-0.5,0c-0.7,0.1-1.2,0.3-1.5,0.7
							c-0.3,0.4-0.5,0.9-0.5,1.5v3.7c0,0.2-0.1,0.4-0.2,0.5c-0.1,0.1-0.3,0.2-0.4,0.2s-0.3-0.1-0.4-0.2c-0.1-0.1-0.2-0.3-0.2-0.4
							v-6.4c0-0.2,0.1-0.3,0.2-0.4c0.1-0.1,0.3-0.2,0.4-0.2c0.2,0,0.3,0.1,0.4,0.2c0.1,0.1,0.2,0.3,0.2,0.4v0.9
							c0.2-0.4,0.5-0.8,0.9-1c0.4-0.2,0.8-0.4,1.3-0.4l0.2,0C205.3,33,205.5,33.2,205.5,33.6z"/>
						<path class="st2" d="M212.9,33.1c0.2,0,0.3,0.1,0.4,0.2c0.1,0.1,0.2,0.2,0.2,0.4c0,0.1,0,0.2-0.1,0.2l-4.3,9.2
							c-0.1,0.1-0.1,0.2-0.2,0.3c-0.1,0.1-0.2,0.1-0.3,0.1c-0.2,0-0.3,0-0.4-0.1c-0.1-0.1-0.2-0.2-0.2-0.4c0-0.1,0-0.2,0.1-0.2
							l1.1-2.3l-3-6.5c0-0.1-0.1-0.1-0.1-0.2c0-0.2,0.1-0.3,0.2-0.4c0.1-0.1,0.3-0.2,0.4-0.2c0.1,0,0.2,0,0.3,0.1
							c0.1,0.1,0.2,0.1,0.2,0.3l2.5,5.7l2.5-5.7C212.5,33.2,212.7,33.1,212.9,33.1z"/>
					</g>
				</g>
				<g>
					<g>
						<path class="st3" d="M29.9,75.8c-0.3-0.1-0.6-0.2-0.9-0.4c-0.1-0.1-0.3-0.2-0.3-0.3c-0.1-0.1-0.1-0.2-0.1-0.3
							c0-0.1,0-0.2,0.1-0.3c0.1-0.1,0.1-0.1,0.2-0.1c0.1,0,0.2,0.1,0.4,0.2c0.2,0.1,0.5,0.3,0.7,0.4c0.2,0.1,0.5,0.1,0.9,0.1
							c0.4,0,0.8-0.1,1-0.2c0.2-0.2,0.4-0.4,0.4-0.7c0-0.2,0-0.3-0.1-0.4c-0.1-0.1-0.2-0.2-0.5-0.3c-0.2-0.1-0.5-0.2-1-0.3
							c-0.7-0.2-1.2-0.4-1.5-0.6c-0.3-0.3-0.5-0.6-0.5-1.1c0-0.4,0.1-0.7,0.3-0.9c0.2-0.3,0.5-0.5,0.8-0.6c0.3-0.2,0.7-0.2,1.2-0.2
							c0.3,0,0.6,0,0.9,0.1c0.3,0.1,0.6,0.2,0.8,0.4c0.3,0.2,0.4,0.4,0.4,0.6c0,0.1,0,0.2-0.1,0.3c-0.1,0.1-0.1,0.1-0.2,0.1
							c-0.1,0-0.2-0.1-0.4-0.2c-0.2-0.1-0.4-0.3-0.7-0.3c-0.2-0.1-0.5-0.1-0.8-0.1c-0.4,0-0.7,0.1-0.9,0.3c-0.2,0.2-0.3,0.4-0.3,0.7
							c0,0.2,0,0.3,0.1,0.4c0.1,0.1,0.2,0.2,0.4,0.3c0.2,0.1,0.5,0.2,0.9,0.3c0.6,0.1,1,0.3,1.3,0.4c0.3,0.1,0.5,0.3,0.7,0.5
							c0.1,0.2,0.2,0.5,0.2,0.8c0,0.5-0.2,0.9-0.6,1.2c-0.4,0.3-1,0.5-1.7,0.5C30.6,75.9,30.3,75.9,29.9,75.8z"/>
						<path class="st3" d="M39.8,69.8c0.1,0.1,0.1,0.2,0.1,0.4v5.2c0,0.1,0,0.3-0.1,0.3c-0.1,0.1-0.2,0.1-0.4,0.1
							c-0.1,0-0.3,0-0.3-0.1C39,75.7,39,75.5,39,75.4v-0.6c-0.2,0.4-0.5,0.6-0.8,0.8c-0.3,0.2-0.7,0.3-1.1,0.3
							c-0.7,0-1.2-0.2-1.6-0.6c-0.4-0.4-0.5-1-0.5-1.8v-3.3c0-0.1,0-0.3,0.1-0.4c0.1-0.1,0.2-0.1,0.4-0.1c0.2,0,0.3,0,0.4,0.1
							c0.1,0.1,0.1,0.2,0.1,0.4v3.3c0,0.5,0.1,0.9,0.3,1.2c0.2,0.2,0.5,0.4,1,0.4c0.5,0,0.9-0.2,1.3-0.5c0.3-0.3,0.5-0.8,0.5-1.3v-3
							c0-0.1,0-0.3,0.1-0.4c0.1-0.1,0.2-0.1,0.4-0.1S39.7,69.8,39.8,69.8z"/>
						<path class="st3" d="M46.9,72.1v3.3c0,0.2,0,0.3-0.1,0.4c-0.1,0.1-0.2,0.1-0.4,0.1s-0.3,0-0.4-0.1c-0.1-0.1-0.1-0.2-0.1-0.4
							v-3.3c0-0.6-0.1-1-0.3-1.2c-0.2-0.3-0.6-0.4-1-0.4c-0.6,0-1,0.2-1.3,0.5c-0.3,0.3-0.5,0.8-0.5,1.4v3c0,0.2,0,0.3-0.1,0.4
							c-0.1,0.1-0.2,0.1-0.4,0.1c-0.2,0-0.3,0-0.4-0.1c-0.1-0.1-0.1-0.2-0.1-0.4v-5.2c0-0.1,0-0.3,0.1-0.4c0.1-0.1,0.2-0.1,0.4-0.1
							c0.1,0,0.3,0,0.3,0.1c0.1,0.1,0.1,0.2,0.1,0.3v0.6c0.2-0.4,0.5-0.6,0.8-0.8c0.4-0.2,0.8-0.3,1.2-0.3
							C46.2,69.7,46.9,70.5,46.9,72.1z"/>
					</g>
					<g>
						<path class="st3" d="M66.1,72.1v3.3c0,0.2,0,0.3-0.1,0.4c-0.1,0.1-0.2,0.1-0.4,0.1c-0.1,0-0.3,0-0.4-0.1
							c-0.1-0.1-0.1-0.2-0.1-0.4v-3.3c0-0.5-0.1-0.9-0.3-1.2c-0.2-0.2-0.5-0.4-0.9-0.4c-0.5,0-0.9,0.2-1.2,0.5
							c-0.3,0.3-0.4,0.8-0.4,1.4v3c0,0.2,0,0.3-0.1,0.4c-0.1,0.1-0.2,0.1-0.4,0.1c-0.1,0-0.3,0-0.4-0.1c-0.1-0.1-0.1-0.2-0.1-0.4
							v-3.3c0-0.5-0.1-0.9-0.3-1.2c-0.2-0.2-0.5-0.4-0.9-0.4c-0.5,0-0.9,0.2-1.2,0.5c-0.3,0.3-0.4,0.8-0.4,1.4v3
							c0,0.2,0,0.3-0.1,0.4c-0.1,0.1-0.2,0.1-0.4,0.1c-0.1,0-0.3,0-0.4-0.1c-0.1-0.1-0.1-0.2-0.1-0.4v-5.2c0-0.1,0-0.3,0.1-0.4
							c0.1-0.1,0.2-0.1,0.4-0.1c0.1,0,0.3,0,0.3,0.1c0.1,0.1,0.1,0.2,0.1,0.4v0.6c0.2-0.4,0.4-0.6,0.7-0.8c0.3-0.2,0.7-0.3,1.1-0.3
							c0.9,0,1.5,0.4,1.8,1.2c0.2-0.4,0.4-0.6,0.8-0.9c0.4-0.2,0.8-0.3,1.2-0.3C65.5,69.7,66.1,70.5,66.1,72.1z"/>
						<path class="st3" d="M68.9,75.5c-0.4-0.3-0.8-0.6-1-1.1c-0.2-0.5-0.4-1-0.4-1.6c0-0.6,0.1-1.2,0.4-1.6c0.2-0.5,0.6-0.8,1-1.1
							c0.4-0.3,0.9-0.4,1.5-0.4c0.6,0,1.1,0.1,1.5,0.4c0.4,0.3,0.8,0.6,1,1.1c0.2,0.5,0.4,1,0.4,1.6c0,0.6-0.1,1.2-0.4,1.6
							c-0.2,0.5-0.6,0.8-1,1.1c-0.4,0.3-0.9,0.4-1.5,0.4C69.9,75.9,69.4,75.8,68.9,75.5z M71.8,74.5c0.3-0.4,0.5-1,0.5-1.7
							c0-0.7-0.2-1.3-0.5-1.7c-0.3-0.4-0.8-0.6-1.4-0.6c-0.6,0-1,0.2-1.4,0.6c-0.3,0.4-0.5,1-0.5,1.7c0,0.7,0.2,1.3,0.5,1.7
							c0.3,0.4,0.8,0.6,1.4,0.6C71,75.1,71.5,74.9,71.8,74.5z"/>
						<path class="st3" d="M79.9,72.1v3.3c0,0.2,0,0.3-0.1,0.4c-0.1,0.1-0.2,0.1-0.4,0.1c-0.2,0-0.3,0-0.4-0.1
							c-0.1-0.1-0.1-0.2-0.1-0.4v-3.3c0-0.6-0.1-1-0.3-1.2c-0.2-0.3-0.6-0.4-1-0.4c-0.6,0-1,0.2-1.3,0.5c-0.3,0.3-0.5,0.8-0.5,1.4v3
							c0,0.2,0,0.3-0.1,0.4c-0.1,0.1-0.2,0.1-0.4,0.1c-0.2,0-0.3,0-0.4-0.1c-0.1-0.1-0.1-0.2-0.1-0.4v-5.2c0-0.1,0-0.3,0.1-0.4
							c0.1-0.1,0.2-0.1,0.4-0.1c0.1,0,0.3,0,0.3,0.1c0.1,0.1,0.1,0.2,0.1,0.3v0.6c0.2-0.4,0.5-0.6,0.8-0.8c0.4-0.2,0.8-0.3,1.2-0.3
							C79.2,69.7,79.9,70.5,79.9,72.1z"/>
					</g>
					<g>
						<path class="st3" d="M94.8,75.5c0,0.1-0.1,0.2-0.2,0.3c-0.1,0.1-0.3,0.1-0.5,0.1l-0.3,0c-0.7,0-1.1-0.2-1.4-0.6
							c-0.3-0.3-0.5-0.9-0.5-1.6v-3.1h-0.8c-0.1,0-0.2,0-0.3-0.1c-0.1-0.1-0.1-0.2-0.1-0.3c0-0.1,0-0.2,0.1-0.3
							c0.1-0.1,0.2-0.1,0.3-0.1h0.8v-1.4c0-0.2,0-0.3,0.1-0.4c0.1-0.1,0.2-0.1,0.4-0.1c0.1,0,0.3,0,0.4,0.1c0.1,0.1,0.1,0.2,0.1,0.4
							v1.4h1.4c0.1,0,0.2,0,0.3,0.1c0.1,0.1,0.1,0.2,0.1,0.3c0,0.1,0,0.2-0.1,0.3c-0.1,0.1-0.2,0.1-0.3,0.1h-1.4v3.1
							c0,0.5,0.1,0.8,0.3,1c0.2,0.2,0.5,0.3,0.8,0.3l0.3,0C94.6,75.1,94.8,75.2,94.8,75.5z"/>
						<path class="st3" d="M100.7,69.8c0.1,0.1,0.1,0.2,0.1,0.4v5.2c0,0.1,0,0.3-0.1,0.3c-0.1,0.1-0.2,0.1-0.4,0.1
							c-0.1,0-0.3,0-0.3-0.1c-0.1-0.1-0.1-0.2-0.1-0.3v-0.6c-0.2,0.4-0.5,0.6-0.8,0.8c-0.3,0.2-0.7,0.3-1.1,0.3
							c-0.7,0-1.2-0.2-1.6-0.6c-0.4-0.4-0.5-1-0.5-1.8v-3.3c0-0.1,0-0.3,0.1-0.4c0.1-0.1,0.2-0.1,0.4-0.1c0.2,0,0.3,0,0.4,0.1
							c0.1,0.1,0.1,0.2,0.1,0.4v3.3c0,0.5,0.1,0.9,0.3,1.2c0.2,0.2,0.5,0.4,1,0.4c0.5,0,0.9-0.2,1.3-0.5c0.3-0.3,0.5-0.8,0.5-1.3v-3
							c0-0.1,0-0.3,0.1-0.4c0.1-0.1,0.2-0.1,0.4-0.1C100.5,69.7,100.6,69.8,100.7,69.8z"/>
						<path class="st3" d="M107.5,74.5c0.1,0.1,0.1,0.2,0.1,0.3c0,0.2-0.1,0.4-0.4,0.6c-0.3,0.2-0.6,0.3-0.9,0.4
							c-0.3,0.1-0.6,0.1-1,0.1c-0.9,0-1.7-0.3-2.2-0.8c-0.5-0.5-0.8-1.3-0.8-2.3c0-0.6,0.1-1.2,0.4-1.6c0.2-0.5,0.6-0.8,1-1.1
							c0.4-0.3,0.9-0.4,1.5-0.4c0.8,0,1.4,0.3,1.9,0.8c0.5,0.5,0.7,1.2,0.7,2.1c0,0.2,0,0.3-0.1,0.4c-0.1,0.1-0.2,0.1-0.3,0.1h-4
							c0.1,1.4,0.7,2.1,2,2.1c0.3,0,0.6,0,0.8-0.1c0.2-0.1,0.5-0.2,0.7-0.4c0.2-0.1,0.4-0.2,0.4-0.2
							C107.4,74.4,107.4,74.5,107.5,74.5z M103.9,70.9c-0.3,0.3-0.5,0.8-0.6,1.4h3.5c0-0.6-0.2-1.1-0.5-1.4
							c-0.3-0.3-0.7-0.5-1.2-0.5C104.6,70.5,104.2,70.6,103.9,70.9z"/>
					</g>
					<g>
						<path class="st3" d="M127.7,69.7c0.1,0,0.2,0,0.3,0.1c0.1,0.1,0.1,0.2,0.1,0.3c0,0.1,0,0.1,0,0.2l-2,5.2
							c0,0.1-0.1,0.2-0.2,0.3c-0.1,0.1-0.2,0.1-0.3,0.1c-0.1,0-0.2,0-0.3-0.1c-0.1-0.1-0.2-0.1-0.2-0.3l-1.7-4.3l-1.7,4.3
							c0,0.1-0.1,0.2-0.2,0.3c-0.1,0.1-0.2,0.1-0.3,0.1c-0.1,0-0.2,0-0.3-0.1c-0.1-0.1-0.2-0.1-0.2-0.3l-2-5.1c0-0.1,0-0.1,0-0.2
							c0-0.1,0.1-0.2,0.2-0.3c0.1-0.1,0.2-0.1,0.4-0.1c0.2,0,0.3,0.1,0.4,0.3l1.7,4.5l1.7-4.5c0-0.1,0.1-0.2,0.2-0.2
							c0.1-0.1,0.2-0.1,0.3-0.1c0.1,0,0.2,0,0.3,0.1c0.1,0.1,0.2,0.1,0.2,0.2l1.7,4.5l1.7-4.5C127.4,69.8,127.5,69.7,127.7,69.7z"/>
						<path class="st3" d="M134.3,74.5c0.1,0.1,0.1,0.2,0.1,0.3c0,0.2-0.1,0.4-0.4,0.6c-0.3,0.2-0.6,0.3-0.9,0.4
							c-0.3,0.1-0.6,0.1-1,0.1c-0.9,0-1.7-0.3-2.2-0.8c-0.5-0.5-0.8-1.3-0.8-2.3c0-0.6,0.1-1.2,0.4-1.6c0.2-0.5,0.6-0.8,1-1.1
							c0.4-0.3,0.9-0.4,1.5-0.4c0.8,0,1.4,0.3,1.9,0.8c0.5,0.5,0.7,1.2,0.7,2.1c0,0.2,0,0.3-0.1,0.4c-0.1,0.1-0.2,0.1-0.3,0.1h-4
							c0.1,1.4,0.7,2.1,2,2.1c0.3,0,0.6,0,0.8-0.1c0.2-0.1,0.5-0.2,0.7-0.4c0.2-0.1,0.4-0.2,0.4-0.2
							C134.1,74.4,134.2,74.5,134.3,74.5z M130.6,70.9c-0.3,0.3-0.5,0.8-0.6,1.4h3.5c0-0.6-0.2-1.1-0.5-1.4
							c-0.3-0.3-0.7-0.5-1.2-0.5C131.4,70.5,130.9,70.6,130.6,70.9z"/>
						<path class="st3" d="M141.1,67.2c0.1,0.1,0.1,0.2,0.1,0.3v7.8c0,0.1,0,0.3-0.1,0.4c-0.1,0.1-0.2,0.1-0.4,0.1
							c-0.2,0-0.3,0-0.4-0.1c-0.1-0.1-0.1-0.2-0.1-0.4v-0.7c-0.2,0.4-0.4,0.7-0.8,0.9c-0.3,0.2-0.8,0.3-1.2,0.3
							c-0.5,0-1-0.1-1.4-0.4c-0.4-0.3-0.7-0.6-0.9-1.1c-0.2-0.5-0.3-1-0.3-1.6c0-0.6,0.1-1.2,0.3-1.6c0.2-0.5,0.5-0.8,0.9-1.1
							c0.4-0.3,0.9-0.4,1.4-0.4c0.5,0,0.9,0.1,1.2,0.3c0.3,0.2,0.6,0.5,0.8,0.9v-3.3c0-0.1,0-0.3,0.1-0.4c0.1-0.1,0.2-0.1,0.4-0.1
							C140.8,67.1,141,67.1,141.1,67.2z M139.7,74.5c0.3-0.4,0.5-1,0.5-1.7c0-0.7-0.2-1.3-0.5-1.7c-0.3-0.4-0.8-0.6-1.3-0.6
							c-0.6,0-1,0.2-1.4,0.6c-0.3,0.4-0.5,0.9-0.5,1.7c0,0.7,0.2,1.3,0.5,1.7c0.3,0.4,0.8,0.6,1.4,0.6
							C139,75.1,139.4,74.9,139.7,74.5z"/>
					</g>
					<g>
						<path class="st3" d="M156,75.5c0,0.1-0.1,0.2-0.2,0.3c-0.1,0.1-0.3,0.1-0.5,0.1l-0.3,0c-0.7,0-1.1-0.2-1.4-0.6
							c-0.3-0.3-0.5-0.9-0.5-1.6v-3.1h-0.8c-0.1,0-0.2,0-0.3-0.1c-0.1-0.1-0.1-0.2-0.1-0.3c0-0.1,0-0.2,0.1-0.3
							c0.1-0.1,0.2-0.1,0.3-0.1h0.8v-1.4c0-0.2,0-0.3,0.1-0.4c0.1-0.1,0.2-0.1,0.4-0.1c0.1,0,0.3,0,0.4,0.1c0.1,0.1,0.1,0.2,0.1,0.4
							v1.4h1.4c0.1,0,0.2,0,0.3,0.1c0.1,0.1,0.1,0.2,0.1,0.3c0,0.1,0,0.2-0.1,0.3c-0.1,0.1-0.2,0.1-0.3,0.1h-1.4v3.1
							c0,0.5,0.1,0.8,0.3,1c0.2,0.2,0.5,0.3,0.8,0.3l0.3,0C155.9,75.1,156,75.2,156,75.5z"/>
						<path class="st3" d="M161.6,70.3c0.4,0.4,0.5,1,0.5,1.8v3.3c0,0.2,0,0.3-0.1,0.4c-0.1,0.1-0.2,0.1-0.4,0.1
							c-0.2,0-0.3,0-0.4-0.1c-0.1-0.1-0.1-0.2-0.1-0.4v-3.3c0-0.5-0.1-0.9-0.3-1.2c-0.2-0.3-0.6-0.4-1-0.4c-0.5,0-1,0.2-1.3,0.5
							c-0.3,0.3-0.5,0.8-0.5,1.4v3c0,0.2,0,0.3-0.1,0.4c-0.1,0.1-0.2,0.1-0.4,0.1c-0.2,0-0.3,0-0.4-0.1c-0.1-0.1-0.1-0.2-0.1-0.4
							v-7.8c0-0.1,0-0.3,0.1-0.3c0.1-0.1,0.2-0.1,0.4-0.1c0.2,0,0.3,0,0.4,0.1c0.1,0.1,0.1,0.2,0.1,0.4v3.2c0.2-0.4,0.5-0.6,0.8-0.8
							c0.4-0.2,0.8-0.3,1.2-0.3C160.7,69.7,161.2,69.9,161.6,70.3z"/>
						<path class="st3" d="M168.9,69.8c0.1,0.1,0.1,0.2,0.1,0.4v5.2c0,0.1,0,0.3-0.1,0.3c-0.1,0.1-0.2,0.1-0.4,0.1
							c-0.1,0-0.3,0-0.3-0.1c-0.1-0.1-0.1-0.2-0.1-0.3v-0.6c-0.2,0.4-0.5,0.6-0.8,0.8c-0.3,0.2-0.7,0.3-1.1,0.3
							c-0.7,0-1.2-0.2-1.6-0.6c-0.4-0.4-0.5-1-0.5-1.8v-3.3c0-0.1,0-0.3,0.1-0.4c0.1-0.1,0.2-0.1,0.4-0.1c0.2,0,0.3,0,0.4,0.1
							c0.1,0.1,0.1,0.2,0.1,0.4v3.3c0,0.5,0.1,0.9,0.3,1.2c0.2,0.2,0.5,0.4,1,0.4c0.5,0,0.9-0.2,1.3-0.5c0.3-0.3,0.5-0.8,0.5-1.3v-3
							c0-0.1,0-0.3,0.1-0.4c0.1-0.1,0.2-0.1,0.4-0.1C168.7,69.7,168.8,69.8,168.9,69.8z"/>
					</g>
					<g>
						<path class="st3" d="M188.6,68.4c-0.2,0.2-0.3,0.6-0.3,1.1v0.4h1.4c0.1,0,0.2,0,0.3,0.1c0.1,0.1,0.1,0.2,0.1,0.3
							c0,0.1,0,0.2-0.1,0.3c-0.1,0.1-0.2,0.1-0.3,0.1h-1.4v4.8c0,0.2,0,0.3-0.1,0.4c-0.1,0.1-0.2,0.1-0.3,0.1c-0.1,0-0.3,0-0.4-0.1
							c-0.1-0.1-0.1-0.2-0.1-0.4v-4.8h-0.8c-0.1,0-0.2,0-0.3-0.1c-0.1-0.1-0.1-0.2-0.1-0.3c0-0.1,0-0.2,0.1-0.3
							c0.1-0.1,0.2-0.1,0.3-0.1h0.8v-0.2c0-0.7,0.2-1.3,0.6-1.7c0.4-0.4,0.9-0.7,1.6-0.7l0.3,0c0.2,0,0.4,0,0.5,0.1
							c0.1,0.1,0.1,0.2,0.1,0.3c0,0.2-0.1,0.4-0.4,0.4l-0.3,0C189.2,68,188.8,68.1,188.6,68.4z"/>
						<path class="st3" d="M194.5,70.1c0,0.1,0,0.2-0.1,0.3c-0.1,0.1-0.2,0.1-0.4,0.1l-0.4,0c-0.5,0-1,0.2-1.2,0.6
							c-0.3,0.3-0.4,0.7-0.4,1.2v3c0,0.2,0,0.3-0.1,0.4c-0.1,0.1-0.2,0.1-0.4,0.1c-0.1,0-0.3,0-0.4-0.1c-0.1-0.1-0.1-0.2-0.1-0.4
							v-5.2c0-0.2,0-0.3,0.1-0.4c0.1-0.1,0.2-0.1,0.4-0.1c0.1,0,0.2,0,0.3,0.1c0.1,0.1,0.1,0.2,0.1,0.4v0.7c0.2-0.4,0.4-0.6,0.7-0.8
							c0.3-0.2,0.7-0.3,1.1-0.3l0.2,0C194.3,69.7,194.5,69.8,194.5,70.1z"/>
						<path class="st3" d="M195.3,68.2c-0.1-0.1-0.2-0.3-0.2-0.5c0-0.2,0.1-0.3,0.2-0.4c0.1-0.1,0.3-0.2,0.5-0.2
							c0.2,0,0.4,0.1,0.5,0.2c0.1,0.1,0.2,0.3,0.2,0.4c0,0.2-0.1,0.3-0.2,0.5c-0.1,0.1-0.3,0.2-0.5,0.2
							C195.6,68.4,195.5,68.4,195.3,68.2z M195.5,75.7c-0.1-0.1-0.1-0.2-0.1-0.4v-5.2c0-0.2,0-0.3,0.1-0.4c0.1-0.1,0.2-0.1,0.4-0.1
							c0.1,0,0.3,0,0.4,0.1c0.1,0.1,0.1,0.2,0.1,0.4v5.2c0,0.2,0,0.3-0.1,0.4c-0.1,0.1-0.2,0.1-0.4,0.1
							C195.7,75.9,195.6,75.8,195.5,75.7z"/>
					</g>
					<g>
						<path class="st3" d="M215.9,75.8c-0.3-0.1-0.6-0.2-0.9-0.4c-0.1-0.1-0.3-0.2-0.3-0.3c-0.1-0.1-0.1-0.2-0.1-0.3
							c0-0.1,0-0.2,0.1-0.3c0.1-0.1,0.1-0.1,0.2-0.1c0.1,0,0.2,0.1,0.4,0.2c0.2,0.1,0.5,0.3,0.7,0.4c0.2,0.1,0.5,0.1,0.9,0.1
							c0.4,0,0.8-0.1,1-0.2c0.2-0.2,0.4-0.4,0.4-0.7c0-0.2,0-0.3-0.1-0.4c-0.1-0.1-0.2-0.2-0.5-0.3c-0.2-0.1-0.5-0.2-1-0.3
							c-0.7-0.2-1.2-0.4-1.5-0.6c-0.3-0.3-0.5-0.6-0.5-1.1c0-0.4,0.1-0.7,0.3-0.9c0.2-0.3,0.5-0.5,0.8-0.6c0.3-0.2,0.7-0.2,1.2-0.2
							c0.3,0,0.6,0,0.9,0.1c0.3,0.1,0.6,0.2,0.8,0.4c0.3,0.2,0.4,0.4,0.4,0.6c0,0.1,0,0.2-0.1,0.3c-0.1,0.1-0.1,0.1-0.2,0.1
							c-0.1,0-0.2-0.1-0.4-0.2c-0.2-0.1-0.4-0.3-0.7-0.3c-0.2-0.1-0.5-0.1-0.8-0.1c-0.4,0-0.7,0.1-0.9,0.3c-0.2,0.2-0.3,0.4-0.3,0.7
							c0,0.2,0,0.3,0.1,0.4c0.1,0.1,0.2,0.2,0.4,0.3c0.2,0.1,0.5,0.2,0.9,0.3c0.6,0.1,1,0.3,1.3,0.4c0.3,0.1,0.5,0.3,0.7,0.5
							c0.1,0.2,0.2,0.5,0.2,0.8c0,0.5-0.2,0.9-0.6,1.2c-0.4,0.3-1,0.5-1.7,0.5C216.6,75.9,216.3,75.9,215.9,75.8z"/>
						<path class="st3" d="M225.6,72v3.3c0,0.1,0,0.3-0.1,0.4c-0.1,0.1-0.2,0.1-0.3,0.1c-0.1,0-0.3,0-0.4-0.1
							c-0.1-0.1-0.1-0.2-0.1-0.4v-0.6c-0.2,0.4-0.4,0.6-0.7,0.8c-0.3,0.2-0.7,0.3-1.1,0.3c-0.4,0-0.7-0.1-1.1-0.2
							c-0.3-0.2-0.6-0.4-0.8-0.7c-0.2-0.3-0.3-0.6-0.3-0.9c0-0.4,0.1-0.8,0.3-1c0.2-0.2,0.6-0.4,1.1-0.5c0.5-0.1,1.3-0.2,2.2-0.2
							h0.3v-0.4c0-0.5-0.1-0.9-0.3-1.1c-0.2-0.2-0.5-0.3-1-0.3c-0.6,0-1.1,0.2-1.7,0.5c-0.2,0.1-0.4,0.2-0.5,0.2
							c-0.1,0-0.2,0-0.2-0.1c-0.1-0.1-0.1-0.2-0.1-0.3c0-0.1,0-0.2,0.1-0.3c0.1-0.1,0.2-0.2,0.3-0.3c0.3-0.2,0.6-0.3,1-0.4
							c0.4-0.1,0.7-0.1,1.1-0.1C224.8,69.7,225.6,70.5,225.6,72z M224.2,74.6c0.3-0.3,0.5-0.8,0.5-1.3V73h-0.2c-0.7,0-1.3,0-1.6,0.1
							c-0.4,0.1-0.6,0.2-0.8,0.3c-0.2,0.1-0.2,0.4-0.2,0.6c0,0.3,0.1,0.6,0.4,0.8c0.2,0.2,0.5,0.3,0.9,0.3
							C223.4,75.1,223.8,74.9,224.2,74.6z"/>
						<path class="st3" d="M230.6,75.5c0,0.1-0.1,0.2-0.2,0.3c-0.1,0.1-0.3,0.1-0.5,0.1l-0.3,0c-0.7,0-1.1-0.2-1.4-0.6
							c-0.3-0.3-0.5-0.9-0.5-1.6v-3.1h-0.8c-0.1,0-0.2,0-0.3-0.1c-0.1-0.1-0.1-0.2-0.1-0.3c0-0.1,0-0.2,0.1-0.3
							c0.1-0.1,0.2-0.1,0.3-0.1h0.8v-1.4c0-0.2,0-0.3,0.1-0.4c0.1-0.1,0.2-0.1,0.4-0.1c0.1,0,0.3,0,0.4,0.1c0.1,0.1,0.1,0.2,0.1,0.4
							v1.4h1.4c0.1,0,0.2,0,0.3,0.1c0.1,0.1,0.1,0.2,0.1,0.3c0,0.1,0,0.2-0.1,0.3c-0.1,0.1-0.2,0.1-0.3,0.1h-1.4v3.1
							c0,0.5,0.1,0.8,0.3,1c0.2,0.2,0.5,0.3,0.8,0.3l0.3,0C230.5,75.1,230.6,75.2,230.6,75.5z"/>
					</g>
				</g>
				<g>
					<path class="st4" d="M194.3,101.7c0.1,0.1,0.1,0.2,0.1,0.3c0,0.1,0,0.2-0.1,0.3c-0.1,0.1-0.2,0.1-0.4,0.1h-4.1
						c-0.2,0-0.3,0-0.4-0.1c-0.1-0.1-0.1-0.2-0.1-0.3c0-0.1,0-0.2,0.1-0.3c0.1-0.1,0.2-0.1,0.3-0.1h1.5V95l-1.3,0.9
						c-0.1,0-0.1,0.1-0.2,0.1c-0.1,0-0.2-0.1-0.3-0.2c-0.1-0.1-0.1-0.2-0.1-0.3c0-0.2,0.1-0.3,0.2-0.4l1.9-1.2
						c0.1-0.1,0.3-0.1,0.4-0.1c0.1,0,0.3,0,0.3,0.1c0.1,0.1,0.1,0.2,0.1,0.4v7.4h1.5C194.1,101.6,194.3,101.6,194.3,101.7z"/>
				</g>
				<g>
					<path class="st4" d="M225.3,101.7c0.1,0.1,0.1,0.2,0.1,0.3c0,0.3-0.2,0.4-0.5,0.4h-4.8c-0.1,0-0.3,0-0.3-0.1
						c-0.1-0.1-0.1-0.2-0.1-0.3c0-0.2,0.1-0.3,0.2-0.4l3-3.3c0.4-0.5,0.7-0.9,0.9-1.2c0.2-0.4,0.3-0.7,0.3-1.1
						c0-0.5-0.1-0.8-0.4-1.1c-0.3-0.3-0.7-0.4-1.2-0.4c-0.4,0-0.8,0.1-1.1,0.2c-0.4,0.1-0.7,0.4-1.1,0.7c-0.1,0.1-0.2,0.1-0.3,0.1
						c-0.1,0-0.2,0-0.2-0.1c-0.1-0.1-0.1-0.2-0.1-0.3c0-0.2,0.1-0.3,0.2-0.4c0.3-0.3,0.7-0.6,1.2-0.7c0.5-0.2,1-0.3,1.5-0.3
						c0.8,0,1.4,0.2,1.9,0.6c0.5,0.4,0.7,1,0.7,1.7c0,0.5-0.1,1-0.3,1.4c-0.2,0.5-0.6,1-1.1,1.5l-2.5,2.7h3.9
						C225.1,101.6,225.2,101.6,225.3,101.7z"/>
				</g>
				<g>
					<path class="st4" d="M40.3,127.4c0.3,0.4,0.4,0.8,0.4,1.3c0,0.8-0.3,1.3-0.8,1.8c-0.5,0.4-1.2,0.7-2.1,0.7
						c-0.5,0-1-0.1-1.5-0.3c-0.5-0.2-0.9-0.4-1.2-0.7c-0.1-0.1-0.2-0.3-0.2-0.4c0-0.1,0-0.2,0.1-0.3c0.1-0.1,0.1-0.1,0.2-0.1
						c0.1,0,0.2,0,0.3,0.1c0.4,0.3,0.7,0.5,1.1,0.7c0.4,0.1,0.7,0.2,1.2,0.2c0.6,0,1.1-0.1,1.4-0.4c0.3-0.3,0.5-0.7,0.5-1.2
						c0-1.1-0.7-1.6-2-1.6h-0.7c-0.1,0-0.2,0-0.3-0.1c-0.1-0.1-0.1-0.2-0.1-0.3c0-0.1,0-0.2,0.1-0.3c0.1-0.1,0.2-0.1,0.3-0.1h0.5
						c0.6,0,1.1-0.1,1.5-0.4c0.3-0.3,0.5-0.7,0.5-1.2c0-0.5-0.1-0.8-0.4-1.1c-0.3-0.2-0.7-0.4-1.2-0.4c-0.4,0-0.8,0.1-1.1,0.2
						c-0.4,0.1-0.7,0.4-1.1,0.7c-0.1,0.1-0.2,0.1-0.3,0.1c-0.1,0-0.2,0-0.2-0.1c-0.1-0.1-0.1-0.2-0.1-0.3c0-0.2,0.1-0.3,0.2-0.4
						c0.3-0.3,0.7-0.6,1.2-0.7c0.5-0.2,1-0.3,1.5-0.3c0.8,0,1.4,0.2,1.9,0.6c0.5,0.4,0.7,0.9,0.7,1.6c0,0.5-0.1,0.9-0.4,1.3
						c-0.2,0.4-0.6,0.6-1,0.8C39.6,126.8,40,127.1,40.3,127.4z"/>
				</g>
				<g>
					<path class="st4" d="M71.9,128.5c0.1,0.1,0.1,0.2,0.1,0.3c0,0.3-0.2,0.4-0.5,0.4h-0.9v1.4c0,0.2,0,0.3-0.1,0.4
						c-0.1,0.1-0.2,0.1-0.4,0.1c-0.1,0-0.3,0-0.4-0.1c-0.1-0.1-0.1-0.2-0.1-0.4v-1.4H66c-0.1,0-0.3,0-0.3-0.1
						c-0.1-0.1-0.1-0.2-0.1-0.3c0-0.1,0-0.2,0.1-0.4l4-5.8c0.1-0.1,0.3-0.2,0.4-0.2c0.1,0,0.3,0,0.4,0.1c0.1,0.1,0.1,0.2,0.1,0.4
						v5.5h0.9C71.7,128.4,71.8,128.4,71.9,128.5z M66.7,128.4h3v-4.3L66.7,128.4z"/>
				</g>
				<g>
					<path class="st4" d="M101.2,126c0.4,0.2,0.7,0.6,1,1c0.2,0.4,0.3,0.9,0.3,1.4c0,0.5-0.1,1-0.4,1.4c-0.2,0.4-0.6,0.7-1,1
						c-0.4,0.2-0.9,0.4-1.5,0.4c-0.5,0-1-0.1-1.5-0.3c-0.5-0.2-0.9-0.4-1.2-0.7c-0.1-0.1-0.2-0.3-0.2-0.4c0-0.1,0-0.2,0.1-0.3
						c0.1-0.1,0.1-0.1,0.2-0.1c0.1,0,0.2,0,0.3,0.1c0.4,0.3,0.7,0.5,1.1,0.7c0.4,0.1,0.7,0.2,1.1,0.2c0.6,0,1.1-0.2,1.4-0.5
						c0.3-0.3,0.5-0.8,0.5-1.4c0-0.6-0.2-1-0.5-1.4c-0.3-0.4-0.8-0.5-1.4-0.5c-0.7,0-1.4,0.3-1.8,0.9c-0.1,0.1-0.3,0.2-0.4,0.2
						c-0.1,0-0.2,0-0.3-0.1s-0.1-0.2-0.1-0.3v-4.2c0-0.1,0-0.3,0.1-0.3c0.1-0.1,0.2-0.1,0.4-0.1h4.3c0.1,0,0.3,0,0.3,0.1
						c0.1,0.1,0.1,0.2,0.1,0.3c0,0.1,0,0.2-0.1,0.3c-0.1,0.1-0.2,0.1-0.3,0.1H98v3.1c0.2-0.2,0.5-0.4,0.8-0.5c0.3-0.1,0.6-0.2,1-0.2
						C100.3,125.7,100.8,125.8,101.2,126z"/>
				</g>
				<g>
					<path class="st4" d="M131.9,126c0.4,0.2,0.7,0.6,1,1c0.2,0.4,0.3,0.9,0.3,1.4c0,0.5-0.1,1-0.4,1.4c-0.2,0.4-0.6,0.8-1,1
						c-0.4,0.2-0.9,0.4-1.4,0.4c-1,0-1.9-0.4-2.4-1.1c-0.6-0.7-0.9-1.8-0.9-3.1c0-1,0.1-1.8,0.4-2.5c0.3-0.7,0.6-1.2,1.1-1.6
						c0.5-0.4,1.1-0.6,1.8-0.6c0.5,0,0.9,0.1,1.4,0.3c0.5,0.2,0.9,0.4,1.2,0.7c0.1,0.1,0.2,0.3,0.2,0.4c0,0.1,0,0.2-0.1,0.3
						c-0.1,0.1-0.1,0.1-0.2,0.1c-0.1,0-0.2,0-0.4-0.1c-0.7-0.6-1.4-0.9-2.1-0.9c-0.7,0-1.3,0.3-1.7,1c-0.4,0.7-0.6,1.6-0.6,2.8v0.2
						c0.2-0.5,0.5-0.8,0.9-1.1c0.4-0.3,0.9-0.4,1.4-0.4C131.1,125.7,131.5,125.8,131.9,126z M131.7,129.8c0.3-0.4,0.5-0.8,0.5-1.4
						c0-0.6-0.2-1-0.5-1.4c-0.3-0.3-0.8-0.5-1.3-0.5c-0.6,0-1,0.2-1.4,0.5c-0.4,0.4-0.5,0.8-0.5,1.4c0,0.6,0.2,1,0.5,1.4
						c0.4,0.4,0.8,0.5,1.4,0.5C131,130.4,131.4,130.2,131.7,129.8z"/>
				</g>
				<g>
					<path class="st4" d="M163.7,122.6c0.1,0.1,0.1,0.2,0.1,0.3c0,0.1,0,0.2-0.1,0.4l-4.1,7.7c-0.1,0.2-0.2,0.3-0.4,0.3
						c-0.1,0-0.2,0-0.3-0.1c-0.1-0.1-0.2-0.2-0.2-0.3c0-0.1,0-0.2,0.1-0.3l3.8-7.2h-4.2c-0.1,0-0.3,0-0.3-0.1
						c-0.1-0.1-0.1-0.2-0.1-0.3c0-0.1,0-0.2,0.1-0.3c0.1-0.1,0.2-0.1,0.3-0.1h5C163.5,122.5,163.7,122.5,163.7,122.6z"/>
				</g>
				<g>
					<path class="st4" d="M194.3,127.5c0.3,0.4,0.4,0.8,0.4,1.4c0,0.7-0.3,1.3-0.8,1.8c-0.5,0.4-1.3,0.6-2.3,0.6
						c-1,0-1.8-0.2-2.3-0.6c-0.5-0.4-0.8-1-0.8-1.8c0-0.5,0.1-1,0.4-1.4c0.3-0.4,0.7-0.6,1.2-0.8c-0.4-0.2-0.8-0.4-1-0.8
						c-0.3-0.4-0.4-0.8-0.4-1.2c0-0.7,0.3-1.3,0.8-1.7c0.5-0.4,1.2-0.6,2.1-0.6c0.9,0,1.6,0.2,2.1,0.6c0.5,0.4,0.8,1,0.8,1.7
						c0,0.5-0.1,0.9-0.4,1.2c-0.3,0.4-0.6,0.6-1,0.8C193.6,126.8,194,127.1,194.3,127.5z M193.8,128.8c0-1.1-0.7-1.6-2.1-1.6
						c-1.4,0-2.1,0.5-2.1,1.6c0,1.1,0.7,1.6,2.1,1.6C193,130.4,193.8,129.8,193.8,128.8z M190.2,125.9c0.3,0.3,0.8,0.4,1.4,0.4
						c0.6,0,1.1-0.1,1.4-0.4c0.3-0.3,0.5-0.7,0.5-1.2c0-0.5-0.2-0.9-0.5-1.1c-0.3-0.3-0.8-0.4-1.4-0.4c-0.6,0-1.1,0.1-1.4,0.4
						c-0.3,0.3-0.5,0.6-0.5,1.1C189.7,125.2,189.9,125.6,190.2,125.9z"/>
				</g>
				<g>
					<path class="st4" d="M224.5,123.5c0.6,0.7,0.9,1.8,0.9,3.1c0,1-0.1,1.8-0.4,2.5c-0.3,0.7-0.6,1.2-1.1,1.6
						c-0.5,0.4-1.1,0.6-1.8,0.6c-0.5,0-0.9-0.1-1.4-0.3c-0.5-0.2-0.9-0.4-1.2-0.7c-0.1-0.1-0.2-0.3-0.2-0.4c0-0.1,0-0.2,0.1-0.3
						c0.1-0.1,0.1-0.1,0.2-0.1c0.1,0,0.2,0,0.4,0.1c0.7,0.6,1.4,0.9,2.1,0.9c0.7,0,1.3-0.3,1.7-1c0.4-0.7,0.6-1.6,0.6-2.8v-0.2
						c-0.2,0.5-0.5,0.8-0.9,1.1c-0.4,0.3-0.9,0.4-1.4,0.4c-0.5,0-1-0.1-1.4-0.3c-0.4-0.2-0.7-0.6-1-1c-0.2-0.4-0.3-0.9-0.3-1.4
						c0-0.5,0.1-1,0.4-1.4c0.2-0.4,0.6-0.8,1-1c0.4-0.2,0.9-0.4,1.4-0.4C223.2,122.4,224,122.7,224.5,123.5z M223.6,126.5
						c0.4-0.4,0.5-0.8,0.5-1.4c0-0.6-0.2-1-0.5-1.4c-0.4-0.4-0.8-0.5-1.4-0.5c-0.6,0-1,0.2-1.3,0.5c-0.3,0.4-0.5,0.8-0.5,1.4
						c0,0.6,0.2,1,0.5,1.4c0.3,0.3,0.8,0.5,1.3,0.5C222.7,127.1,223.2,126.9,223.6,126.5z"/>
				</g>
				<g>
					<path class="st4" d="M37,159.1c0.1,0.1,0.1,0.2,0.1,0.3c0,0.1,0,0.2-0.1,0.3c-0.1,0.1-0.2,0.1-0.3,0.1h-4.1
						c-0.2,0-0.3,0-0.3-0.1c-0.1-0.1-0.1-0.2-0.1-0.3c0-0.1,0-0.2,0.1-0.3c0.1-0.1,0.2-0.1,0.3-0.1h1.5v-6.6l-1.3,0.9
						c-0.1,0-0.1,0.1-0.2,0.1c-0.1,0-0.2-0.1-0.3-0.2c-0.1-0.1-0.1-0.2-0.1-0.3c0-0.2,0.1-0.3,0.2-0.4l1.9-1.2
						c0.1-0.1,0.3-0.1,0.4-0.1c0.1,0,0.3,0,0.3,0.1c0.1,0.1,0.1,0.2,0.1,0.4v7.4h1.5C36.8,159,36.9,159,37,159.1z"/>
					<path class="st4" d="M39.4,158.8c-0.5-0.8-0.8-1.9-0.8-3.3c0-1.4,0.3-2.6,0.8-3.3c0.5-0.8,1.3-1.1,2.3-1.1c1,0,1.7,0.4,2.3,1.1
						c0.5,0.7,0.8,1.8,0.8,3.3c0,1.4-0.3,2.6-0.8,3.3c-0.5,0.8-1.3,1.1-2.3,1.1C40.7,159.9,39.9,159.5,39.4,158.8z M43.2,158.2
						c0.3-0.6,0.5-1.5,0.5-2.7c0-1.2-0.2-2.1-0.5-2.7c-0.3-0.6-0.8-0.9-1.5-0.9c-0.7,0-1.2,0.3-1.5,0.9c-0.3,0.6-0.5,1.5-0.5,2.7
						c0,1.2,0.2,2.1,0.5,2.7c0.3,0.6,0.8,0.9,1.5,0.9C42.3,159.1,42.8,158.8,43.2,158.2z"/>
				</g>
				<g>
					<path class="st4" d="M67.7,159.1c0.1,0.1,0.1,0.2,0.1,0.3c0,0.1,0,0.2-0.1,0.3c-0.1,0.1-0.2,0.1-0.3,0.1h-4.1
						c-0.2,0-0.3,0-0.3-0.1c-0.1-0.1-0.1-0.2-0.1-0.3c0-0.1,0-0.2,0.1-0.3c0.1-0.1,0.2-0.1,0.3-0.1h1.5v-6.6l-1.3,0.9
						c-0.1,0-0.1,0.1-0.2,0.1c-0.1,0-0.2-0.1-0.3-0.2c-0.1-0.1-0.1-0.2-0.1-0.3c0-0.2,0.1-0.3,0.2-0.4l1.9-1.2
						c0.1-0.1,0.3-0.1,0.4-0.1c0.1,0,0.3,0,0.3,0.1c0.1,0.1,0.1,0.2,0.1,0.4v7.4h1.5C67.5,159,67.6,159,67.7,159.1z"/>
					<path class="st4" d="M75.1,159.1c0.1,0.1,0.1,0.2,0.1,0.3c0,0.1,0,0.2-0.1,0.3c-0.1,0.1-0.2,0.1-0.3,0.1h-4.1
						c-0.2,0-0.3,0-0.3-0.1c-0.1-0.1-0.1-0.2-0.1-0.3c0-0.1,0-0.2,0.1-0.3c0.1-0.1,0.2-0.1,0.3-0.1h1.5v-6.6l-1.3,0.9
						c-0.1,0-0.1,0.1-0.2,0.1c-0.1,0-0.2-0.1-0.3-0.2c-0.1-0.1-0.1-0.2-0.1-0.3c0-0.2,0.1-0.3,0.2-0.4l1.9-1.2
						c0.1-0.1,0.3-0.1,0.4-0.1c0.1,0,0.3,0,0.3,0.1c0.1,0.1,0.1,0.2,0.1,0.4v7.4h1.5C74.9,159,75,159,75.1,159.1z"/>
				</g>
				<g>
					<path class="st4" d="M98.4,159.1c0.1,0.1,0.1,0.2,0.1,0.3c0,0.1,0,0.2-0.1,0.3c-0.1,0.1-0.2,0.1-0.3,0.1H94
						c-0.2,0-0.3,0-0.3-0.1c-0.1-0.1-0.1-0.2-0.1-0.3c0-0.1,0-0.2,0.1-0.3c0.1-0.1,0.2-0.1,0.3-0.1h1.5v-6.6l-1.3,0.9
						c-0.1,0-0.1,0.1-0.2,0.1c-0.1,0-0.2-0.1-0.3-0.2c-0.1-0.1-0.1-0.2-0.1-0.3c0-0.2,0.1-0.3,0.2-0.4l1.9-1.2
						c0.1-0.1,0.3-0.1,0.4-0.1c0.1,0,0.3,0,0.3,0.1c0.1,0.1,0.1,0.2,0.1,0.4v7.4h1.5C98.3,159,98.4,159,98.4,159.1z"/>
					<path class="st4" d="M106,159.1c0.1,0.1,0.1,0.2,0.1,0.3c0,0.3-0.2,0.4-0.5,0.4h-4.8c-0.1,0-0.3,0-0.3-0.1
						c-0.1-0.1-0.1-0.2-0.1-0.3c0-0.2,0.1-0.3,0.2-0.4l3-3.3c0.4-0.5,0.7-0.9,0.9-1.2c0.2-0.4,0.3-0.7,0.3-1.1
						c0-0.5-0.1-0.8-0.4-1.1c-0.3-0.3-0.7-0.4-1.2-0.4c-0.4,0-0.8,0.1-1.1,0.2c-0.4,0.1-0.7,0.4-1.1,0.7c-0.1,0.1-0.2,0.1-0.3,0.1
						c-0.1,0-0.2,0-0.2-0.1c-0.1-0.1-0.1-0.2-0.1-0.3c0-0.2,0.1-0.3,0.2-0.4c0.3-0.3,0.7-0.6,1.2-0.7c0.5-0.2,1-0.3,1.5-0.3
						c0.8,0,1.4,0.2,1.9,0.6c0.5,0.4,0.7,1,0.7,1.7c0,0.5-0.1,1-0.3,1.4c-0.2,0.5-0.6,1-1.1,1.5l-2.5,2.7h3.9
						C105.8,159,105.9,159,106,159.1z"/>
				</g>
				<g>
					<path class="st4" d="M129.2,159.1c0.1,0.1,0.1,0.2,0.1,0.3c0,0.1,0,0.2-0.1,0.3c-0.1,0.1-0.2,0.1-0.3,0.1h-4.1
						c-0.2,0-0.3,0-0.3-0.1c-0.1-0.1-0.1-0.2-0.1-0.3c0-0.1,0-0.2,0.1-0.3c0.1-0.1,0.2-0.1,0.3-0.1h1.5v-6.6l-1.3,0.9
						c-0.1,0-0.1,0.1-0.2,0.1c-0.1,0-0.2-0.1-0.3-0.2c-0.1-0.1-0.1-0.2-0.1-0.3c0-0.2,0.1-0.3,0.2-0.4l1.9-1.2
						c0.1-0.1,0.3-0.1,0.4-0.1c0.1,0,0.3,0,0.3,0.1c0.1,0.1,0.1,0.2,0.1,0.4v7.4h1.5C129,159,129.1,159,129.2,159.1z"/>
					<path class="st4" d="M136.2,156.1c0.3,0.4,0.4,0.8,0.4,1.3c0,0.8-0.3,1.3-0.8,1.8c-0.5,0.4-1.2,0.7-2.1,0.7
						c-0.5,0-1-0.1-1.5-0.3c-0.5-0.2-0.9-0.4-1.2-0.7c-0.1-0.1-0.2-0.3-0.2-0.4c0-0.1,0-0.2,0.1-0.3c0.1-0.1,0.1-0.1,0.2-0.1
						c0.1,0,0.2,0,0.3,0.1c0.4,0.3,0.7,0.5,1.1,0.7c0.4,0.1,0.7,0.2,1.2,0.2c0.6,0,1.1-0.1,1.4-0.4c0.3-0.3,0.5-0.7,0.5-1.2
						c0-1.1-0.7-1.6-2-1.6H133c-0.1,0-0.2,0-0.3-0.1c-0.1-0.1-0.1-0.2-0.1-0.3c0-0.1,0-0.2,0.1-0.3c0.1-0.1,0.2-0.1,0.3-0.1h0.5
						c0.6,0,1.1-0.1,1.5-0.4c0.3-0.3,0.5-0.7,0.5-1.2c0-0.5-0.1-0.8-0.4-1.1c-0.3-0.2-0.7-0.4-1.2-0.4c-0.4,0-0.8,0.1-1.1,0.2
						c-0.4,0.1-0.7,0.4-1.1,0.7c-0.1,0.1-0.2,0.1-0.3,0.1c-0.1,0-0.2,0-0.2-0.1c-0.1-0.1-0.1-0.2-0.1-0.3c0-0.2,0.1-0.3,0.2-0.4
						c0.3-0.3,0.7-0.6,1.2-0.7c0.5-0.2,1-0.3,1.5-0.3c0.8,0,1.4,0.2,1.9,0.6c0.5,0.4,0.7,0.9,0.7,1.6c0,0.5-0.1,0.9-0.4,1.3
						c-0.2,0.4-0.6,0.6-1,0.8C135.5,155.5,135.9,155.8,136.2,156.1z"/>
				</g>
				<g>
					<path class="st4" d="M159.9,159.1c0.1,0.1,0.1,0.2,0.1,0.3c0,0.1,0,0.2-0.1,0.3c-0.1,0.1-0.2,0.1-0.3,0.1h-4.1
						c-0.2,0-0.3,0-0.3-0.1c-0.1-0.1-0.1-0.2-0.1-0.3c0-0.1,0-0.2,0.1-0.3c0.1-0.1,0.2-0.1,0.3-0.1h1.5v-6.6l-1.3,0.9
						c-0.1,0-0.1,0.1-0.2,0.1c-0.1,0-0.2-0.1-0.3-0.2c-0.1-0.1-0.1-0.2-0.1-0.3c0-0.2,0.1-0.3,0.2-0.4l1.9-1.2
						c0.1-0.1,0.3-0.1,0.4-0.1c0.1,0,0.3,0,0.3,0.1c0.1,0.1,0.1,0.2,0.1,0.4v7.4h1.5C159.7,159,159.8,159,159.9,159.1z"/>
					<path class="st4" d="M167.8,157.2c0.1,0.1,0.1,0.2,0.1,0.3c0,0.3-0.2,0.4-0.5,0.4h-0.9v1.4c0,0.2,0,0.3-0.1,0.4
						c-0.1,0.1-0.2,0.1-0.4,0.1c-0.1,0-0.3,0-0.4-0.1c-0.1-0.1-0.1-0.2-0.1-0.4v-1.4h-3.6c-0.1,0-0.3,0-0.3-0.1
						c-0.1-0.1-0.1-0.2-0.1-0.3c0-0.1,0-0.2,0.1-0.4l4-5.8c0.1-0.1,0.3-0.2,0.4-0.2c0.1,0,0.3,0,0.4,0.1c0.1,0.1,0.1,0.2,0.1,0.4
						v5.5h0.9C167.6,157.1,167.7,157.1,167.8,157.2z M162.6,157.1h3v-4.3L162.6,157.1z"/>
				</g>
				<g>
					<path class="st4" d="M190.7,159.1c0.1,0.1,0.1,0.2,0.1,0.3c0,0.1,0,0.2-0.1,0.3c-0.1,0.1-0.2,0.1-0.3,0.1h-4.1
						c-0.2,0-0.3,0-0.3-0.1c-0.1-0.1-0.1-0.2-0.1-0.3c0-0.1,0-0.2,0.1-0.3c0.1-0.1,0.2-0.1,0.3-0.1h1.5v-6.6l-1.3,0.9
						c-0.1,0-0.1,0.1-0.2,0.1c-0.1,0-0.2-0.1-0.3-0.2c-0.1-0.1-0.1-0.2-0.1-0.3c0-0.2,0.1-0.3,0.2-0.4l1.9-1.2
						c0.1-0.1,0.3-0.1,0.4-0.1c0.1,0,0.3,0,0.3,0.1c0.1,0.1,0.1,0.2,0.1,0.4v7.4h1.5C190.5,159,190.6,159,190.7,159.1z"/>
					<path class="st4" d="M197.1,154.7c0.4,0.2,0.7,0.6,1,1c0.2,0.4,0.3,0.9,0.3,1.4s-0.1,1-0.4,1.4c-0.2,0.4-0.6,0.7-1,1
						c-0.4,0.2-0.9,0.4-1.5,0.4c-0.5,0-1-0.1-1.5-0.3c-0.5-0.2-0.9-0.4-1.2-0.7c-0.1-0.1-0.2-0.3-0.2-0.4c0-0.1,0-0.2,0.1-0.3
						c0.1-0.1,0.1-0.1,0.2-0.1c0.1,0,0.2,0,0.3,0.1c0.4,0.3,0.7,0.5,1.1,0.7c0.4,0.1,0.7,0.2,1.1,0.2c0.6,0,1.1-0.2,1.4-0.5
						c0.3-0.3,0.5-0.8,0.5-1.4c0-0.6-0.2-1-0.5-1.4c-0.3-0.4-0.8-0.5-1.4-0.5c-0.7,0-1.4,0.3-1.8,0.9c-0.1,0.1-0.3,0.2-0.4,0.2
						c-0.1,0-0.2,0-0.3-0.1c-0.1-0.1-0.1-0.2-0.1-0.3v-4.2c0-0.1,0-0.3,0.1-0.3c0.1-0.1,0.2-0.1,0.4-0.1h4.3c0.1,0,0.3,0,0.3,0.1
						c0.1,0.1,0.1,0.2,0.1,0.3s0,0.2-0.1,0.3c-0.1,0.1-0.2,0.1-0.3,0.1h-3.8v3.1c0.2-0.2,0.5-0.4,0.8-0.5c0.3-0.1,0.6-0.2,1-0.2
						C196.2,154.4,196.7,154.5,197.1,154.7z"/>
				</g>
				<g>
					<path class="st4" d="M221.4,159.1c0.1,0.1,0.1,0.2,0.1,0.3c0,0.1,0,0.2-0.1,0.3c-0.1,0.1-0.2,0.1-0.4,0.1H217
						c-0.2,0-0.3,0-0.4-0.1c-0.1-0.1-0.1-0.2-0.1-0.3c0-0.1,0-0.2,0.1-0.3c0.1-0.1,0.2-0.1,0.3-0.1h1.5v-6.6l-1.3,0.9
						c-0.1,0-0.1,0.1-0.2,0.1c-0.1,0-0.2-0.1-0.3-0.2c-0.1-0.1-0.1-0.2-0.1-0.3c0-0.2,0.1-0.3,0.2-0.4l1.9-1.2
						c0.1-0.1,0.3-0.1,0.4-0.1c0.1,0,0.3,0,0.3,0.1c0.1,0.1,0.1,0.2,0.1,0.4v7.4h1.5C221.2,159,221.3,159,221.4,159.1z"/>
					<path class="st4" d="M227.8,154.7c0.4,0.2,0.7,0.6,1,1c0.2,0.4,0.3,0.9,0.3,1.4c0,0.5-0.1,1-0.4,1.4c-0.2,0.4-0.6,0.8-1,1
						c-0.4,0.2-0.9,0.4-1.4,0.4c-1,0-1.9-0.4-2.4-1.1c-0.6-0.7-0.9-1.8-0.9-3.1c0-1,0.1-1.8,0.4-2.5c0.3-0.7,0.6-1.2,1.1-1.6
						c0.5-0.4,1.1-0.6,1.8-0.6c0.5,0,0.9,0.1,1.4,0.3c0.5,0.2,0.9,0.4,1.2,0.7c0.1,0.1,0.2,0.3,0.2,0.4c0,0.1,0,0.2-0.1,0.3
						c-0.1,0.1-0.1,0.1-0.2,0.1c-0.1,0-0.2,0-0.4-0.1c-0.7-0.6-1.4-0.9-2.1-0.9c-0.7,0-1.3,0.3-1.7,1c-0.4,0.7-0.6,1.6-0.6,2.8v0.2
						c0.2-0.5,0.5-0.8,0.9-1.1c0.4-0.3,0.9-0.4,1.4-0.4C227,154.4,227.4,154.5,227.8,154.7z M227.6,158.5c0.3-0.4,0.5-0.8,0.5-1.4
						c0-0.6-0.2-1-0.5-1.4c-0.3-0.3-0.8-0.5-1.3-0.5c-0.6,0-1,0.2-1.4,0.5c-0.4,0.4-0.5,0.8-0.5,1.4c0,0.6,0.2,1,0.5,1.4
						c0.4,0.4,0.8,0.5,1.4,0.5C226.8,159.1,227.3,158.9,227.6,158.5z"/>
				</g>
				<g>
					<path class="st4" d="M37,187.7c0.1,0.1,0.1,0.2,0.1,0.3c0,0.1,0,0.2-0.1,0.3c-0.1,0.1-0.2,0.1-0.3,0.1h-4.1
						c-0.2,0-0.3,0-0.3-0.1c-0.1-0.1-0.1-0.2-0.1-0.3c0-0.1,0-0.2,0.1-0.3c0.1-0.1,0.2-0.1,0.3-0.1h1.5v-6.6l-1.3,0.9
						c-0.1,0-0.1,0.1-0.2,0.1c-0.1,0-0.2-0.1-0.3-0.2c-0.1-0.1-0.1-0.2-0.1-0.3c0-0.2,0.1-0.3,0.2-0.4l1.9-1.2
						c0.1-0.1,0.3-0.1,0.4-0.1c0.1,0,0.3,0,0.3,0.1c0.1,0.1,0.1,0.2,0.1,0.4v7.4h1.5C36.8,187.6,36.9,187.7,37,187.7z"/>
					<path class="st4" d="M44.5,179.9c0.1,0.1,0.1,0.2,0.1,0.3c0,0.1,0,0.2-0.1,0.4l-4.1,7.7c-0.1,0.2-0.2,0.3-0.4,0.3
						c-0.1,0-0.2,0-0.3-0.1c-0.1-0.1-0.2-0.2-0.2-0.3c0-0.1,0-0.2,0.1-0.3l3.8-7.2h-4.2c-0.1,0-0.3,0-0.3-0.1
						c-0.1-0.1-0.1-0.2-0.1-0.3c0-0.1,0-0.2,0.1-0.3c0.1-0.1,0.2-0.1,0.3-0.1h5C44.3,179.8,44.4,179.9,44.5,179.9z"/>
				</g>
				<g>
					<path class="st4" d="M67.7,187.7c0.1,0.1,0.1,0.2,0.1,0.3c0,0.1,0,0.2-0.1,0.3c-0.1,0.1-0.2,0.1-0.3,0.1h-4.1
						c-0.2,0-0.3,0-0.3-0.1c-0.1-0.1-0.1-0.2-0.1-0.3c0-0.1,0-0.2,0.1-0.3c0.1-0.1,0.2-0.1,0.3-0.1h1.5v-6.6l-1.3,0.9
						c-0.1,0-0.1,0.1-0.2,0.1c-0.1,0-0.2-0.1-0.3-0.2c-0.1-0.1-0.1-0.2-0.1-0.3c0-0.2,0.1-0.3,0.2-0.4l1.9-1.2
						c0.1-0.1,0.3-0.1,0.4-0.1c0.1,0,0.3,0,0.3,0.1c0.1,0.1,0.1,0.2,0.1,0.4v7.4h1.5C67.5,187.6,67.6,187.7,67.7,187.7z"/>
					<path class="st4" d="M75.1,184.8c0.3,0.4,0.4,0.8,0.4,1.4c0,0.7-0.3,1.3-0.8,1.8c-0.5,0.4-1.3,0.6-2.3,0.6
						c-1,0-1.8-0.2-2.3-0.6c-0.5-0.4-0.8-1-0.8-1.8c0-0.5,0.1-1,0.4-1.4c0.3-0.4,0.7-0.6,1.2-0.8c-0.4-0.2-0.8-0.4-1-0.8
						c-0.3-0.4-0.4-0.8-0.4-1.2c0-0.7,0.3-1.3,0.8-1.7c0.5-0.4,1.2-0.6,2.1-0.6c0.9,0,1.6,0.2,2.1,0.6c0.5,0.4,0.8,1,0.8,1.7
						c0,0.5-0.1,0.9-0.4,1.2c-0.3,0.4-0.6,0.6-1,0.8C74.4,184.2,74.8,184.5,75.1,184.8z M74.5,186.1c0-1.1-0.7-1.6-2.1-1.6
						c-1.4,0-2.1,0.5-2.1,1.6c0,1.1,0.7,1.6,2.1,1.6C73.8,187.7,74.5,187.2,74.5,186.1z M71,183.3c0.3,0.3,0.8,0.4,1.4,0.4
						c0.6,0,1.1-0.1,1.4-0.4c0.3-0.3,0.5-0.7,0.5-1.2c0-0.5-0.2-0.9-0.5-1.1c-0.3-0.3-0.8-0.4-1.4-0.4c-0.6,0-1.1,0.1-1.4,0.4
						c-0.3,0.3-0.5,0.6-0.5,1.1C70.5,182.6,70.6,183,71,183.3z"/>
				</g>
				<g>
					<path class="st4" d="M98.4,187.7c0.1,0.1,0.1,0.2,0.1,0.3c0,0.1,0,0.2-0.1,0.3c-0.1,0.1-0.2,0.1-0.3,0.1H94
						c-0.2,0-0.3,0-0.3-0.1c-0.1-0.1-0.1-0.2-0.1-0.3c0-0.1,0-0.2,0.1-0.3c0.1-0.1,0.2-0.1,0.3-0.1h1.5v-6.6l-1.3,0.9
						c-0.1,0-0.1,0.1-0.2,0.1c-0.1,0-0.2-0.1-0.3-0.2c-0.1-0.1-0.1-0.2-0.1-0.3c0-0.2,0.1-0.3,0.2-0.4l1.9-1.2
						c0.1-0.1,0.3-0.1,0.4-0.1c0.1,0,0.3,0,0.3,0.1c0.1,0.1,0.1,0.2,0.1,0.4v7.4h1.5C98.3,187.6,98.4,187.7,98.4,187.7z"/>
					<path class="st4" d="M105.3,180.8c0.6,0.7,0.9,1.8,0.9,3.1c0,1-0.1,1.8-0.4,2.5c-0.3,0.7-0.6,1.2-1.1,1.6
						c-0.5,0.4-1.1,0.6-1.8,0.6c-0.5,0-0.9-0.1-1.4-0.3c-0.5-0.2-0.9-0.4-1.2-0.7c-0.1-0.1-0.2-0.3-0.2-0.4c0-0.1,0-0.2,0.1-0.3
						c0.1-0.1,0.1-0.1,0.2-0.1c0.1,0,0.2,0,0.4,0.1c0.7,0.6,1.4,0.9,2.1,0.9c0.7,0,1.3-0.3,1.7-1c0.4-0.7,0.6-1.6,0.6-2.8v-0.2
						c-0.2,0.5-0.5,0.8-0.9,1.1c-0.4,0.3-0.9,0.4-1.4,0.4c-0.5,0-1-0.1-1.4-0.3c-0.4-0.2-0.7-0.6-1-1c-0.2-0.4-0.3-0.9-0.3-1.4
						c0-0.5,0.1-1,0.4-1.4c0.2-0.4,0.6-0.8,1-1c0.4-0.2,0.9-0.4,1.4-0.4C103.9,179.7,104.7,180.1,105.3,180.8z M104.3,183.9
						c0.4-0.4,0.5-0.8,0.5-1.4c0-0.6-0.2-1-0.5-1.4c-0.4-0.4-0.8-0.5-1.4-0.5c-0.6,0-1,0.2-1.3,0.5c-0.3,0.4-0.5,0.8-0.5,1.4
						c0,0.6,0.2,1,0.5,1.4c0.3,0.3,0.8,0.5,1.3,0.5C103.5,184.4,103.9,184.2,104.3,183.9z"/>
				</g>
				<g>
					<path class="st4" d="M129.4,187.7c0.1,0.1,0.1,0.2,0.1,0.3c0,0.3-0.2,0.4-0.5,0.4h-4.8c-0.1,0-0.3,0-0.3-0.1
						c-0.1-0.1-0.1-0.2-0.1-0.3c0-0.2,0.1-0.3,0.2-0.4l3-3.3c0.4-0.5,0.7-0.9,0.9-1.2c0.2-0.4,0.3-0.7,0.3-1.1
						c0-0.5-0.1-0.8-0.4-1.1c-0.3-0.3-0.7-0.4-1.2-0.4c-0.4,0-0.8,0.1-1.1,0.2c-0.4,0.1-0.7,0.4-1.1,0.7c-0.1,0.1-0.2,0.1-0.3,0.1
						c-0.1,0-0.2,0-0.2-0.1c-0.1-0.1-0.1-0.2-0.1-0.3c0-0.2,0.1-0.3,0.2-0.4c0.3-0.3,0.7-0.6,1.2-0.7c0.5-0.2,1-0.3,1.5-0.3
						c0.8,0,1.4,0.2,1.9,0.6c0.5,0.4,0.7,1,0.7,1.7c0,0.5-0.1,1-0.3,1.4c-0.2,0.5-0.6,1-1.1,1.5l-2.5,2.7h3.9
						C129.2,187.6,129.3,187.7,129.4,187.7z"/>
					<path class="st4" d="M131.6,187.5c-0.5-0.8-0.8-1.9-0.8-3.3c0-1.4,0.3-2.6,0.8-3.3c0.5-0.8,1.3-1.1,2.3-1.1
						c1,0,1.7,0.4,2.3,1.1c0.5,0.7,0.8,1.8,0.8,3.3c0,1.4-0.3,2.6-0.8,3.3c-0.5,0.8-1.3,1.1-2.3,1.1
						C132.9,188.6,132.1,188.2,131.6,187.5z M135.4,186.9c0.3-0.6,0.5-1.5,0.5-2.7c0-1.2-0.2-2.1-0.5-2.7c-0.3-0.6-0.8-0.9-1.5-0.9
						c-0.7,0-1.2,0.3-1.5,0.9c-0.3,0.6-0.5,1.5-0.5,2.7s0.2,2.1,0.5,2.7c0.3,0.6,0.8,0.9,1.5,0.9S135,187.4,135.4,186.9z"/>
				</g>
				<g>
					<path class="st4" d="M160.1,187.7c0.1,0.1,0.1,0.2,0.1,0.3c0,0.3-0.2,0.4-0.5,0.4H155c-0.1,0-0.3,0-0.3-0.1
						c-0.1-0.1-0.1-0.2-0.1-0.3c0-0.2,0.1-0.3,0.2-0.4l3-3.3c0.4-0.5,0.7-0.9,0.9-1.2c0.2-0.4,0.3-0.7,0.3-1.1
						c0-0.5-0.1-0.8-0.4-1.1c-0.3-0.3-0.7-0.4-1.2-0.4c-0.4,0-0.8,0.1-1.1,0.2c-0.4,0.1-0.7,0.4-1.1,0.7c-0.1,0.1-0.2,0.1-0.3,0.1
						c-0.1,0-0.2,0-0.2-0.1c-0.1-0.1-0.1-0.2-0.1-0.3c0-0.2,0.1-0.3,0.2-0.4c0.3-0.3,0.7-0.6,1.2-0.7c0.5-0.2,1-0.3,1.5-0.3
						c0.8,0,1.4,0.2,1.9,0.6c0.5,0.4,0.7,1,0.7,1.7c0,0.5-0.1,1-0.3,1.4c-0.2,0.5-0.6,1-1.1,1.5l-2.5,2.7h3.9
						C159.9,187.6,160,187.7,160.1,187.7z"/>
					<path class="st4" d="M167.3,187.7c0.1,0.1,0.1,0.2,0.1,0.3c0,0.1,0,0.2-0.1,0.3c-0.1,0.1-0.2,0.1-0.3,0.1h-4.1
						c-0.2,0-0.3,0-0.3-0.1c-0.1-0.1-0.1-0.2-0.1-0.3c0-0.1,0-0.2,0.1-0.3c0.1-0.1,0.2-0.1,0.3-0.1h1.5v-6.6l-1.3,0.9
						c-0.1,0-0.1,0.1-0.2,0.1c-0.1,0-0.2-0.1-0.3-0.2c-0.1-0.1-0.1-0.2-0.1-0.3c0-0.2,0.1-0.3,0.2-0.4l1.9-1.2
						c0.1-0.1,0.3-0.1,0.4-0.1c0.1,0,0.3,0,0.3,0.1c0.1,0.1,0.1,0.2,0.1,0.4v7.4h1.5C167.1,187.6,167.2,187.7,167.3,187.7z"/>
				</g>
				<g>
					<path class="st4" d="M190.9,187.7c0.1,0.1,0.1,0.2,0.1,0.3c0,0.3-0.2,0.4-0.5,0.4h-4.8c-0.1,0-0.3,0-0.3-0.1
						c-0.1-0.1-0.1-0.2-0.1-0.3c0-0.2,0.1-0.3,0.2-0.4l3-3.3c0.4-0.5,0.7-0.9,0.9-1.2c0.2-0.4,0.3-0.7,0.3-1.1
						c0-0.5-0.1-0.8-0.4-1.1c-0.3-0.3-0.7-0.4-1.2-0.4c-0.4,0-0.8,0.1-1.1,0.2c-0.4,0.1-0.7,0.4-1.1,0.7c-0.1,0.1-0.2,0.1-0.3,0.1
						c-0.1,0-0.2,0-0.2-0.1c-0.1-0.1-0.1-0.2-0.1-0.3c0-0.2,0.1-0.3,0.2-0.4c0.3-0.3,0.7-0.6,1.2-0.7c0.5-0.2,1-0.3,1.5-0.3
						c0.8,0,1.4,0.2,1.9,0.6c0.5,0.4,0.7,1,0.7,1.7c0,0.5-0.1,1-0.3,1.4c-0.2,0.5-0.6,1-1.1,1.5l-2.5,2.7h3.9
						C190.7,187.6,190.8,187.7,190.9,187.7z"/>
					<path class="st4" d="M198.2,187.7c0.1,0.1,0.1,0.2,0.1,0.3c0,0.3-0.2,0.4-0.5,0.4h-4.8c-0.1,0-0.3,0-0.3-0.1
						c-0.1-0.1-0.1-0.2-0.1-0.3c0-0.2,0.1-0.3,0.2-0.4l3-3.3c0.4-0.5,0.7-0.9,0.9-1.2c0.2-0.4,0.3-0.7,0.3-1.1
						c0-0.5-0.1-0.8-0.4-1.1c-0.3-0.3-0.7-0.4-1.2-0.4c-0.4,0-0.8,0.1-1.1,0.2c-0.4,0.1-0.7,0.4-1.1,0.7c-0.1,0.1-0.2,0.1-0.3,0.1
						c-0.1,0-0.2,0-0.2-0.1c-0.1-0.1-0.1-0.2-0.1-0.3c0-0.2,0.1-0.3,0.2-0.4c0.3-0.3,0.7-0.6,1.2-0.7c0.5-0.2,1-0.3,1.5-0.3
						c0.8,0,1.4,0.2,1.9,0.6c0.5,0.4,0.7,1,0.7,1.7c0,0.5-0.1,1-0.3,1.4c-0.2,0.5-0.6,1-1.1,1.5l-2.5,2.7h3.9
						C198,187.6,198.1,187.7,198.2,187.7z"/>
				</g>
				<g>
					<path class="st4" d="M221.6,187.7c0.1,0.1,0.1,0.2,0.1,0.3c0,0.3-0.2,0.4-0.5,0.4h-4.8c-0.1,0-0.3,0-0.3-0.1
						c-0.1-0.1-0.1-0.2-0.1-0.3c0-0.2,0.1-0.3,0.2-0.4l3-3.3c0.4-0.5,0.7-0.9,0.9-1.2c0.2-0.4,0.3-0.7,0.3-1.1
						c0-0.5-0.1-0.8-0.4-1.1c-0.3-0.3-0.7-0.4-1.2-0.4c-0.4,0-0.8,0.1-1.1,0.2c-0.4,0.1-0.7,0.4-1.1,0.7c-0.1,0.1-0.2,0.1-0.3,0.1
						c-0.1,0-0.2,0-0.2-0.1c-0.1-0.1-0.1-0.2-0.1-0.3c0-0.2,0.1-0.3,0.2-0.4c0.3-0.3,0.7-0.6,1.2-0.7c0.5-0.2,1-0.3,1.5-0.3
						c0.8,0,1.4,0.2,1.9,0.6c0.5,0.4,0.7,1,0.7,1.7c0,0.5-0.1,1-0.3,1.4c-0.2,0.5-0.6,1-1.1,1.5l-2.5,2.7h3.9
						C221.4,187.6,221.5,187.7,221.6,187.7z"/>
					<path class="st4" d="M228.4,184.8c0.3,0.4,0.4,0.8,0.4,1.3c0,0.8-0.3,1.3-0.8,1.8c-0.5,0.4-1.2,0.7-2.1,0.7
						c-0.5,0-1-0.1-1.5-0.3c-0.5-0.2-0.9-0.4-1.2-0.7c-0.1-0.1-0.2-0.3-0.2-0.4c0-0.1,0-0.2,0.1-0.3c0.1-0.1,0.1-0.1,0.2-0.1
						c0.1,0,0.2,0,0.3,0.1c0.4,0.3,0.7,0.5,1.1,0.7c0.4,0.1,0.7,0.2,1.2,0.2c0.6,0,1.1-0.1,1.4-0.4c0.3-0.3,0.5-0.7,0.5-1.2
						c0-1.1-0.7-1.6-2-1.6h-0.7c-0.1,0-0.2,0-0.3-0.1c-0.1-0.1-0.1-0.2-0.1-0.3c0-0.1,0-0.2,0.1-0.3c0.1-0.1,0.2-0.1,0.3-0.1h0.5
						c0.6,0,1.1-0.1,1.5-0.4c0.3-0.3,0.5-0.7,0.5-1.2c0-0.5-0.1-0.8-0.4-1.1c-0.3-0.2-0.7-0.4-1.2-0.4c-0.4,0-0.8,0.1-1.1,0.2
						c-0.4,0.1-0.7,0.4-1.1,0.7c-0.1,0.1-0.2,0.1-0.3,0.1c-0.1,0-0.2,0-0.2-0.1c-0.1-0.1-0.1-0.2-0.1-0.3c0-0.2,0.1-0.3,0.2-0.4
						c0.3-0.3,0.7-0.6,1.2-0.7c0.5-0.2,1-0.3,1.5-0.3c0.8,0,1.4,0.2,1.9,0.6c0.5,0.4,0.7,0.9,0.7,1.6c0,0.5-0.1,0.9-0.4,1.3
						c-0.2,0.4-0.6,0.6-1,0.8C227.7,184.2,228.1,184.4,228.4,184.8z"/>
				</g>
				<g>
					<path class="st4" d="M37.2,216.4c0.1,0.1,0.1,0.2,0.1,0.3c0,0.3-0.2,0.4-0.5,0.4H32c-0.1,0-0.3,0-0.3-0.1
						c-0.1-0.1-0.1-0.2-0.1-0.3c0-0.2,0.1-0.3,0.2-0.4l3-3.3c0.4-0.5,0.7-0.9,0.9-1.2c0.2-0.4,0.3-0.7,0.3-1.1
						c0-0.5-0.1-0.8-0.4-1.1c-0.3-0.3-0.7-0.4-1.2-0.4c-0.4,0-0.8,0.1-1.1,0.2c-0.4,0.1-0.7,0.4-1.1,0.7c-0.1,0.1-0.2,0.1-0.3,0.1
						c-0.1,0-0.2,0-0.2-0.1c-0.1-0.1-0.1-0.2-0.1-0.3c0-0.2,0.1-0.3,0.2-0.4c0.3-0.3,0.7-0.6,1.2-0.7c0.5-0.2,1-0.3,1.5-0.3
						c0.8,0,1.4,0.2,1.9,0.6c0.5,0.4,0.7,1,0.7,1.7c0,0.5-0.1,1-0.3,1.4c-0.2,0.5-0.6,1-1.1,1.5l-2.5,2.7h3.9
						C37,216.3,37.1,216.3,37.2,216.4z"/>
					<path class="st4" d="M44.8,214.6c0.1,0.1,0.1,0.2,0.1,0.3c0,0.3-0.2,0.4-0.5,0.4h-0.9v1.4c0,0.2,0,0.3-0.1,0.4
						c-0.1,0.1-0.2,0.1-0.4,0.1c-0.1,0-0.3,0-0.4-0.1c-0.1-0.1-0.1-0.2-0.1-0.4v-1.4H39c-0.1,0-0.3,0-0.3-0.1
						c-0.1-0.1-0.1-0.2-0.1-0.3c0-0.1,0-0.2,0.1-0.4l4-5.8c0.1-0.1,0.3-0.2,0.4-0.2c0.1,0,0.3,0,0.4,0.1c0.1,0.1,0.1,0.2,0.1,0.4
						v5.5h0.9C44.7,214.4,44.8,214.5,44.8,214.6z M39.6,214.4h3v-4.3L39.6,214.4z"/>
				</g>
				<g>
					<path class="st4" d="M67.9,216.4c0.1,0.1,0.1,0.2,0.1,0.3c0,0.3-0.2,0.4-0.5,0.4h-4.8c-0.1,0-0.3,0-0.3-0.1
						c-0.1-0.1-0.1-0.2-0.1-0.3c0-0.2,0.1-0.3,0.2-0.4l3-3.3c0.4-0.5,0.7-0.9,0.9-1.2c0.2-0.4,0.3-0.7,0.3-1.1
						c0-0.5-0.1-0.8-0.4-1.1c-0.3-0.3-0.7-0.4-1.2-0.4c-0.4,0-0.8,0.1-1.1,0.2c-0.4,0.1-0.7,0.4-1.1,0.7c-0.1,0.1-0.2,0.1-0.3,0.1
						c-0.1,0-0.2,0-0.2-0.1c-0.1-0.1-0.1-0.2-0.1-0.3c0-0.2,0.1-0.3,0.2-0.4c0.3-0.3,0.7-0.6,1.2-0.7c0.5-0.2,1-0.3,1.5-0.3
						c0.8,0,1.4,0.2,1.9,0.6c0.5,0.4,0.7,1,0.7,1.7c0,0.5-0.1,1-0.3,1.4c-0.2,0.5-0.6,1-1.1,1.5l-2.5,2.7h3.9
						C67.7,216.3,67.8,216.3,67.9,216.4z"/>
					<path class="st4" d="M74.2,212.1c0.4,0.2,0.7,0.6,1,1c0.2,0.4,0.3,0.9,0.3,1.4s-0.1,1-0.4,1.4c-0.2,0.4-0.6,0.7-1,1
						c-0.4,0.2-0.9,0.4-1.5,0.4c-0.5,0-1-0.1-1.5-0.3c-0.5-0.2-0.9-0.4-1.2-0.7c-0.1-0.1-0.2-0.3-0.2-0.4c0-0.1,0-0.2,0.1-0.3
						c0.1-0.1,0.1-0.1,0.2-0.1c0.1,0,0.2,0,0.3,0.1c0.4,0.3,0.7,0.5,1.1,0.7c0.4,0.1,0.7,0.2,1.1,0.2c0.6,0,1.1-0.2,1.4-0.5
						c0.3-0.3,0.5-0.8,0.5-1.4c0-0.6-0.2-1-0.5-1.4c-0.3-0.4-0.8-0.5-1.4-0.5c-0.7,0-1.4,0.3-1.8,0.9c-0.1,0.1-0.3,0.2-0.4,0.2
						c-0.1,0-0.2,0-0.3-0.1c-0.1-0.1-0.1-0.2-0.1-0.3V209c0-0.1,0-0.3,0.1-0.3c0.1-0.1,0.2-0.1,0.4-0.1h4.3c0.1,0,0.3,0,0.3,0.1
						c0.1,0.1,0.1,0.2,0.1,0.3c0,0.1,0,0.2-0.1,0.3c-0.1,0.1-0.2,0.1-0.3,0.1h-3.8v3.1c0.2-0.2,0.5-0.4,0.8-0.5
						c0.3-0.1,0.6-0.2,1-0.2C73.3,211.7,73.7,211.8,74.2,212.1z"/>
				</g>
				<g>
					<path class="st4" d="M98.7,216.4c0.1,0.1,0.1,0.2,0.1,0.3c0,0.3-0.2,0.4-0.5,0.4h-4.8c-0.1,0-0.3,0-0.3-0.1
						c-0.1-0.1-0.1-0.2-0.1-0.3c0-0.2,0.1-0.3,0.2-0.4l3-3.3c0.4-0.5,0.7-0.9,0.9-1.2c0.2-0.4,0.3-0.7,0.3-1.1
						c0-0.5-0.1-0.8-0.4-1.1c-0.3-0.3-0.7-0.4-1.2-0.4c-0.4,0-0.8,0.1-1.1,0.2c-0.4,0.1-0.7,0.4-1.1,0.7c-0.1,0.1-0.2,0.1-0.3,0.1
						c-0.1,0-0.2,0-0.2-0.1c-0.1-0.1-0.1-0.2-0.1-0.3c0-0.2,0.1-0.3,0.2-0.4c0.3-0.3,0.7-0.6,1.2-0.7c0.5-0.2,1-0.3,1.5-0.3
						c0.8,0,1.4,0.2,1.9,0.6c0.5,0.4,0.7,1,0.7,1.7c0,0.5-0.1,1-0.3,1.4c-0.2,0.5-0.6,1-1.1,1.5l-2.5,2.7h3.9
						C98.5,216.3,98.6,216.3,98.7,216.4z"/>
					<path class="st4" d="M104.9,212.1c0.4,0.2,0.7,0.6,1,1c0.2,0.4,0.3,0.9,0.3,1.4c0,0.5-0.1,1-0.4,1.4c-0.2,0.4-0.6,0.8-1,1
						c-0.4,0.2-0.9,0.4-1.4,0.4c-1,0-1.9-0.4-2.4-1.1c-0.6-0.7-0.9-1.8-0.9-3.1c0-1,0.1-1.8,0.4-2.5c0.3-0.7,0.6-1.2,1.1-1.6
						c0.5-0.4,1.1-0.6,1.8-0.6c0.5,0,0.9,0.1,1.4,0.3c0.5,0.2,0.9,0.4,1.2,0.7c0.1,0.1,0.2,0.3,0.2,0.4c0,0.1,0,0.2-0.1,0.3
						c-0.1,0.1-0.1,0.1-0.2,0.1c-0.1,0-0.2,0-0.4-0.1c-0.7-0.6-1.4-0.9-2.1-0.9c-0.7,0-1.3,0.3-1.7,1c-0.4,0.7-0.6,1.6-0.6,2.8v0.2
						c0.2-0.5,0.5-0.8,0.9-1.1c0.4-0.3,0.9-0.4,1.4-0.4C104,211.7,104.5,211.8,104.9,212.1z M104.7,215.9c0.3-0.4,0.5-0.8,0.5-1.4
						c0-0.6-0.2-1-0.5-1.4c-0.3-0.3-0.8-0.5-1.3-0.5c-0.6,0-1,0.2-1.4,0.5c-0.4,0.4-0.5,0.8-0.5,1.4c0,0.6,0.2,1,0.5,1.4
						c0.4,0.4,0.8,0.5,1.4,0.5C103.9,216.4,104.3,216.2,104.7,215.9z"/>
				</g>
				<g>
					<path class="st4" d="M129.4,216.4c0.1,0.1,0.1,0.2,0.1,0.3c0,0.3-0.2,0.4-0.5,0.4h-4.8c-0.1,0-0.3,0-0.3-0.1
						c-0.1-0.1-0.1-0.2-0.1-0.3c0-0.2,0.1-0.3,0.2-0.4l3-3.3c0.4-0.5,0.7-0.9,0.9-1.2c0.2-0.4,0.3-0.7,0.3-1.1
						c0-0.5-0.1-0.8-0.4-1.1c-0.3-0.3-0.7-0.4-1.2-0.4c-0.4,0-0.8,0.1-1.1,0.2c-0.4,0.1-0.7,0.4-1.1,0.7c-0.1,0.1-0.2,0.1-0.3,0.1
						c-0.1,0-0.2,0-0.2-0.1c-0.1-0.1-0.1-0.2-0.1-0.3c0-0.2,0.1-0.3,0.2-0.4c0.3-0.3,0.7-0.6,1.2-0.7c0.5-0.2,1-0.3,1.5-0.3
						c0.8,0,1.4,0.2,1.9,0.6c0.5,0.4,0.7,1,0.7,1.7c0,0.5-0.1,1-0.3,1.4c-0.2,0.5-0.6,1-1.1,1.5l-2.5,2.7h3.9
						C129.2,216.3,129.3,216.3,129.4,216.4z"/>
					<path class="st4" d="M136.7,208.6c0.1,0.1,0.1,0.2,0.1,0.3c0,0.1,0,0.2-0.1,0.4l-4.1,7.7c-0.1,0.2-0.2,0.3-0.4,0.3
						c-0.1,0-0.2,0-0.3-0.1c-0.1-0.1-0.2-0.2-0.2-0.3c0-0.1,0-0.2,0.1-0.3l3.8-7.2h-4.2c-0.1,0-0.3,0-0.3-0.1
						c-0.1-0.1-0.1-0.2-0.1-0.3c0-0.1,0-0.2,0.1-0.3c0.1-0.1,0.2-0.1,0.3-0.1h5C136.5,208.5,136.6,208.5,136.7,208.6z"/>
				</g>
				<g>
					<path class="st4" d="M160.1,216.4c0.1,0.1,0.1,0.2,0.1,0.3c0,0.3-0.2,0.4-0.5,0.4H155c-0.1,0-0.3,0-0.3-0.1
						c-0.1-0.1-0.1-0.2-0.1-0.3c0-0.2,0.1-0.3,0.2-0.4l3-3.3c0.4-0.5,0.7-0.9,0.9-1.2c0.2-0.4,0.3-0.7,0.3-1.1
						c0-0.5-0.1-0.8-0.4-1.1c-0.3-0.3-0.7-0.4-1.2-0.4c-0.4,0-0.8,0.1-1.1,0.2c-0.4,0.1-0.7,0.4-1.1,0.7c-0.1,0.1-0.2,0.1-0.3,0.1
						c-0.1,0-0.2,0-0.2-0.1c-0.1-0.1-0.1-0.2-0.1-0.3c0-0.2,0.1-0.3,0.2-0.4c0.3-0.3,0.7-0.6,1.2-0.7c0.5-0.2,1-0.3,1.5-0.3
						c0.8,0,1.4,0.2,1.9,0.6c0.5,0.4,0.7,1,0.7,1.7c0,0.5-0.1,1-0.3,1.4c-0.2,0.5-0.6,1-1.1,1.5l-2.5,2.7h3.9
						C159.9,216.3,160,216.3,160.1,216.4z"/>
					<path class="st4" d="M167.3,213.5c0.3,0.4,0.4,0.8,0.4,1.4c0,0.7-0.3,1.3-0.8,1.8c-0.5,0.4-1.3,0.6-2.3,0.6
						c-1,0-1.8-0.2-2.3-0.6c-0.5-0.4-0.8-1-0.8-1.8c0-0.5,0.1-1,0.4-1.4c0.3-0.4,0.7-0.6,1.2-0.8c-0.4-0.2-0.8-0.4-1-0.8
						c-0.3-0.4-0.4-0.8-0.4-1.2c0-0.7,0.3-1.3,0.8-1.7c0.5-0.4,1.2-0.6,2.1-0.6c0.9,0,1.6,0.2,2.1,0.6c0.5,0.4,0.8,1,0.8,1.7
						c0,0.5-0.1,0.9-0.4,1.2c-0.3,0.4-0.6,0.6-1,0.8C166.6,212.9,167,213.1,167.3,213.5z M166.7,214.8c0-1.1-0.7-1.6-2.1-1.6
						c-1.4,0-2.1,0.5-2.1,1.6c0,1.1,0.7,1.6,2.1,1.6C166,216.4,166.7,215.9,166.7,214.8z M163.2,211.9c0.3,0.3,0.8,0.4,1.4,0.4
						c0.6,0,1.1-0.1,1.4-0.4c0.3-0.3,0.5-0.7,0.5-1.2c0-0.5-0.2-0.9-0.5-1.1c-0.3-0.3-0.8-0.4-1.4-0.4c-0.6,0-1.1,0.1-1.4,0.4
						c-0.3,0.3-0.5,0.6-0.5,1.1C162.7,211.3,162.8,211.7,163.2,211.9z"/>
				</g>
				<g>
					<path class="st4" d="M190.9,216.4c0.1,0.1,0.1,0.2,0.1,0.3c0,0.3-0.2,0.4-0.5,0.4h-4.8c-0.1,0-0.3,0-0.3-0.1
						c-0.1-0.1-0.1-0.2-0.1-0.3c0-0.2,0.1-0.3,0.2-0.4l3-3.3c0.4-0.5,0.7-0.9,0.9-1.2c0.2-0.4,0.3-0.7,0.3-1.1
						c0-0.5-0.1-0.8-0.4-1.1c-0.3-0.3-0.7-0.4-1.2-0.4c-0.4,0-0.8,0.1-1.1,0.2c-0.4,0.1-0.7,0.4-1.1,0.7c-0.1,0.1-0.2,0.1-0.3,0.1
						c-0.1,0-0.2,0-0.2-0.1c-0.1-0.1-0.1-0.2-0.1-0.3c0-0.2,0.1-0.3,0.2-0.4c0.3-0.3,0.7-0.6,1.2-0.7c0.5-0.2,1-0.3,1.5-0.3
						c0.8,0,1.4,0.2,1.9,0.6c0.5,0.4,0.7,1,0.7,1.7c0,0.5-0.1,1-0.3,1.4c-0.2,0.5-0.6,1-1.1,1.5l-2.5,2.7h3.9
						C190.7,216.3,190.8,216.3,190.9,216.4z"/>
					<path class="st4" d="M197.5,209.5c0.6,0.7,0.9,1.8,0.9,3.1c0,1-0.1,1.8-0.4,2.5c-0.3,0.7-0.6,1.2-1.1,1.6
						c-0.5,0.4-1.1,0.6-1.8,0.6c-0.5,0-0.9-0.1-1.4-0.3c-0.5-0.2-0.9-0.4-1.2-0.7c-0.1-0.1-0.2-0.3-0.2-0.4c0-0.1,0-0.2,0.1-0.3
						c0.1-0.1,0.1-0.1,0.2-0.1c0.1,0,0.2,0,0.4,0.1c0.7,0.6,1.4,0.9,2.1,0.9c0.7,0,1.3-0.3,1.7-1c0.4-0.7,0.6-1.6,0.6-2.8v-0.2
						c-0.2,0.5-0.5,0.8-0.9,1.1c-0.4,0.3-0.9,0.4-1.4,0.4c-0.5,0-1-0.1-1.4-0.3c-0.4-0.2-0.7-0.6-1-1c-0.2-0.4-0.3-0.9-0.3-1.4
						c0-0.5,0.1-1,0.4-1.4c0.2-0.4,0.6-0.8,1-1c0.4-0.2,0.9-0.4,1.4-0.4C196.1,208.4,196.9,208.8,197.5,209.5z M196.5,212.6
						c0.4-0.4,0.5-0.8,0.5-1.4c0-0.6-0.2-1-0.5-1.4c-0.4-0.4-0.8-0.5-1.4-0.5c-0.6,0-1,0.2-1.3,0.5c-0.3,0.4-0.5,0.8-0.5,1.4
						c0,0.6,0.2,1,0.5,1.4c0.3,0.3,0.8,0.5,1.3,0.5C195.7,213.1,196.1,212.9,196.5,212.6z"/>
				</g>
				<g>
					<path class="st4" d="M221,213.5c0.3,0.4,0.4,0.8,0.4,1.3c0,0.8-0.3,1.3-0.8,1.8c-0.5,0.4-1.2,0.7-2.1,0.7c-0.5,0-1-0.1-1.5-0.3
						c-0.5-0.2-0.9-0.4-1.2-0.7c-0.1-0.1-0.2-0.3-0.2-0.4c0-0.1,0-0.2,0.1-0.3c0.1-0.1,0.1-0.1,0.2-0.1c0.1,0,0.2,0,0.3,0.1
						c0.4,0.3,0.7,0.5,1.1,0.7c0.4,0.1,0.7,0.2,1.2,0.2c0.6,0,1.1-0.1,1.4-0.4c0.3-0.3,0.5-0.7,0.5-1.2c0-1.1-0.7-1.6-2-1.6h-0.7
						c-0.1,0-0.2,0-0.3-0.1c-0.1-0.1-0.1-0.2-0.1-0.3c0-0.1,0-0.2,0.1-0.3c0.1-0.1,0.2-0.1,0.3-0.1h0.5c0.6,0,1.1-0.1,1.5-0.4
						c0.3-0.3,0.5-0.7,0.5-1.2c0-0.5-0.1-0.8-0.4-1.1c-0.3-0.2-0.7-0.4-1.2-0.4c-0.4,0-0.8,0.1-1.1,0.2c-0.4,0.1-0.7,0.4-1.1,0.7
						c-0.1,0.1-0.2,0.1-0.3,0.1c-0.1,0-0.2,0-0.2-0.1c-0.1-0.1-0.1-0.2-0.1-0.3c0-0.2,0.1-0.3,0.2-0.4c0.3-0.3,0.7-0.6,1.2-0.7
						c0.5-0.2,1-0.3,1.5-0.3c0.8,0,1.4,0.2,1.9,0.6c0.5,0.4,0.7,0.9,0.7,1.6c0,0.5-0.1,0.9-0.4,1.3c-0.2,0.4-0.6,0.6-1,0.8
						C220.4,212.9,220.8,213.1,221,213.5z"/>
					<path class="st4" d="M223.8,216.1c-0.5-0.8-0.8-1.9-0.8-3.3c0-1.4,0.3-2.6,0.8-3.3c0.5-0.8,1.3-1.1,2.3-1.1
						c1,0,1.7,0.4,2.3,1.1c0.5,0.7,0.8,1.8,0.8,3.3c0,1.4-0.3,2.6-0.8,3.3c-0.5,0.8-1.3,1.1-2.3,1.1
						C225.1,217.3,224.3,216.9,223.8,216.1z M227.6,215.5c0.3-0.6,0.5-1.5,0.5-2.7c0-1.2-0.2-2.1-0.5-2.7c-0.3-0.6-0.8-0.9-1.5-0.9
						c-0.7,0-1.2,0.3-1.5,0.9c-0.3,0.6-0.5,1.5-0.5,2.7c0,1.2,0.2,2.1,0.5,2.7c0.3,0.6,0.8,0.9,1.5,0.9
						C226.8,216.4,227.3,216.1,227.6,215.5z"/>
				</g>
				<g>
					<path class="st4" d="M36.6,242.2c0.3,0.4,0.4,0.8,0.4,1.3c0,0.8-0.3,1.3-0.8,1.8c-0.5,0.4-1.2,0.7-2.1,0.7
						c-0.5,0-1-0.1-1.5-0.3c-0.5-0.2-0.9-0.4-1.2-0.7c-0.1-0.1-0.2-0.3-0.2-0.4c0-0.1,0-0.2,0.1-0.3c0.1-0.1,0.1-0.1,0.2-0.1
						c0.1,0,0.2,0,0.3,0.1c0.4,0.3,0.7,0.5,1.1,0.7c0.4,0.1,0.7,0.2,1.2,0.2c0.6,0,1.1-0.1,1.4-0.4c0.3-0.3,0.5-0.7,0.5-1.2
						c0-1.1-0.7-1.6-2-1.6h-0.7c-0.1,0-0.2,0-0.3-0.1c-0.1-0.1-0.1-0.2-0.1-0.3c0-0.1,0-0.2,0.1-0.3c0.1-0.1,0.2-0.1,0.3-0.1h0.5
						c0.6,0,1.1-0.1,1.5-0.4c0.3-0.3,0.5-0.7,0.5-1.2c0-0.5-0.1-0.8-0.4-1.1c-0.3-0.2-0.7-0.4-1.2-0.4c-0.4,0-0.8,0.1-1.1,0.2
						c-0.4,0.1-0.7,0.4-1.1,0.7c-0.1,0.1-0.2,0.1-0.3,0.1c-0.1,0-0.2,0-0.2-0.1c-0.1-0.1-0.1-0.2-0.1-0.3c0-0.2,0.1-0.3,0.2-0.4
						c0.3-0.3,0.7-0.6,1.2-0.7c0.5-0.2,1-0.3,1.5-0.3c0.8,0,1.4,0.2,1.9,0.6c0.5,0.4,0.7,0.9,0.7,1.6c0,0.5-0.1,0.9-0.4,1.3
						c-0.2,0.4-0.6,0.6-1,0.8C36,241.5,36.4,241.8,36.6,242.2z"/>
					<path class="st4" d="M44.3,245.1c0.1,0.1,0.1,0.2,0.1,0.3c0,0.1,0,0.2-0.1,0.3c-0.1,0.1-0.2,0.1-0.3,0.1h-4.1
						c-0.2,0-0.3,0-0.3-0.1c-0.1-0.1-0.1-0.2-0.1-0.3c0-0.1,0-0.2,0.1-0.3c0.1-0.1,0.2-0.1,0.3-0.1h1.5v-6.6l-1.3,0.9
						c-0.1,0-0.1,0.1-0.2,0.1c-0.1,0-0.2-0.1-0.3-0.2c-0.1-0.1-0.1-0.2-0.1-0.3c0-0.2,0.1-0.3,0.2-0.4l1.9-1.2
						c0.1-0.1,0.3-0.1,0.4-0.1c0.1,0,0.3,0,0.3,0.1c0.1,0.1,0.1,0.2,0.1,0.4v7.4H44C44.1,245,44.3,245,44.3,245.1z"/>
				</g>
				<g>
					<path class="st3" d="M161.3,168.8c-7.1,0-12.8-5.7-12.8-12.8c0-7.1,5.7-12.8,12.8-12.8c7.1,0,12.8,5.7,12.8,12.8
						C174.1,163,168.4,168.8,161.3,168.8z M161.3,144.1c-6.5,0-11.8,5.3-11.8,11.8c0,6.5,5.3,11.8,11.8,11.8
						c6.5,0,11.8-5.3,11.8-11.8C173.2,149.5,167.8,144.1,161.3,144.1z"/>
				</g>
			</g>
		</g>
		<g>
			<line class="st5" x1="26.3" y1="112.1" x2="233.5" y2="112.1"/>
			<line class="st6" x1="26.3" y1="83.1" x2="233.5" y2="83.1"/>
			<line class="st5" x1="26.3" y1="141.1" x2="233.5" y2="141.1"/>
			<line class="st5" x1="26.3" y1="170.1" x2="233.5" y2="170.1"/>
			<line class="st5" x1="26.3" y1="199.1" x2="233.5" y2="199.1"/>
			<line class="st5" x1="26.3" y1="228.1" x2="233.5" y2="228.1"/>
		</g>
		<g>
			<path class="st2" d="M28.3,43.4v-1.1l3.4-3.6c0.4-0.4,0.7-0.7,0.9-1c0.2-0.3,0.4-0.6,0.5-0.8c0.1-0.3,0.2-0.5,0.2-0.8
				c0-0.3-0.1-0.6-0.2-0.9c-0.2-0.2-0.4-0.4-0.7-0.6c-0.3-0.1-0.6-0.2-0.9-0.2c-0.4,0-0.7,0.1-1,0.2c-0.3,0.1-0.5,0.4-0.6,0.6
				c-0.1,0.3-0.2,0.6-0.2,1h-1.5c0-0.6,0.1-1.2,0.4-1.6c0.3-0.5,0.7-0.8,1.2-1.1s1.1-0.4,1.7-0.4c0.6,0,1.2,0.1,1.7,0.4
				c0.5,0.3,0.9,0.6,1.1,1c0.3,0.4,0.4,0.9,0.4,1.5c0,0.4-0.1,0.7-0.2,1.1s-0.4,0.8-0.7,1.2c-0.3,0.4-0.8,1-1.5,1.6l-2,2.1v0.1H35
				v1.3H28.3z"/>
			<path class="st2" d="M40.4,43.6c-0.8,0-1.5-0.2-2-0.6c-0.6-0.4-1-1-1.3-1.8c-0.3-0.8-0.4-1.7-0.4-2.8c0-1.1,0.1-2,0.4-2.8
				s0.7-1.4,1.3-1.8c0.6-0.4,1.2-0.6,2-0.6c0.8,0,1.4,0.2,2,0.6c0.6,0.4,1,1,1.3,1.8c0.3,0.8,0.4,1.7,0.4,2.8c0,1.1-0.1,2.1-0.4,2.8
				S43,42.5,42.4,43C41.8,43.4,41.2,43.6,40.4,43.6z M40.4,42.3c0.7,0,1.2-0.3,1.6-1s0.6-1.6,0.6-2.9c0-0.8-0.1-1.6-0.3-2.1
				c-0.2-0.6-0.4-1-0.8-1.3c-0.3-0.3-0.7-0.5-1.2-0.5c-0.7,0-1.2,0.3-1.6,1c-0.4,0.7-0.6,1.6-0.6,2.9c0,0.8,0.1,1.6,0.3,2.2
				c0.2,0.6,0.4,1,0.8,1.3C39.5,42.1,39.9,42.3,40.4,42.3z"/>
			<path class="st2" d="M45.9,43.4v-1.1l3.4-3.6c0.4-0.4,0.7-0.7,0.9-1c0.2-0.3,0.4-0.6,0.5-0.8c0.1-0.3,0.2-0.5,0.2-0.8
				c0-0.3-0.1-0.6-0.2-0.9c-0.2-0.2-0.4-0.4-0.7-0.6c-0.3-0.1-0.6-0.2-0.9-0.2c-0.4,0-0.7,0.1-1,0.2c-0.3,0.1-0.5,0.4-0.6,0.6
				c-0.1,0.3-0.2,0.6-0.2,1h-1.5c0-0.6,0.1-1.2,0.4-1.6c0.3-0.5,0.7-0.8,1.2-1.1s1.1-0.4,1.7-0.4c0.6,0,1.2,0.1,1.7,0.4
				c0.5,0.3,0.9,0.6,1.1,1c0.3,0.4,0.4,0.9,0.4,1.5c0,0.4-0.1,0.7-0.2,1.1s-0.4,0.8-0.7,1.2c-0.3,0.4-0.8,1-1.5,1.6L48,42v0.1h4.6
				v1.3H45.9z"/>
			<path class="st2" d="M54.3,41.4v-1.2l4.4-7h1v1.8H59l-3.1,5v0.1h6v1.3H54.3z M59.1,43.4V41l0-0.6v-7.2h1.5v10.2H59.1z"/>
		</g>
	</g>
	<g>
		<circle class="st7" cx="225.2" cy="36.9" r="5.6"/>
		<polyline class="st8" points="223.3,40.2 227.1,36.9 223.3,33.6 		"/>
	</g>
	<g>
		<circle class="st3" cx="150" cy="36.9" r="5.6"/>
		<polyline class="st8" points="151.9,33.6 148.1,36.9 151.9,40.2 		"/>
	</g>
</g>
</svg>
