<?xml version="1.0" encoding="utf-8"?>
<!-- Generator: Adobe Illustrator 28.1.0, SVG Export Plug-In . SVG Version: 6.00 Build 0)  -->
<svg version="1.1" id="Layer_1" xmlns="http://www.w3.org/2000/svg" xmlns:xlink="http://www.w3.org/1999/xlink" x="0px" y="0px"
	 viewBox="0 0 593 57" style="enable-background:new 0 0 593 57;" xml:space="preserve">
<style type="text/css">
	.st0{fill:none;stroke:#888888;stroke-width:0.5987;stroke-miterlimit:10;}
	.st1{fill:#4F4F4F;}
	.st2{clip-path:url(#SVGID_00000142163288745158524610000014010708035038941594_);}
	.st3{clip-path:url(#SVGID_00000096759890054806151160000016674266657790702495_);}
	.st4{fill:#00C800;}
	.st5{fill:#FFE12D;}
	.st6{fill:#D1D1D1;}
	.st7{fill:#FF7E00;}
	.st8{fill:#FA0A00;}
	.st9{fill:#8F3F97;}
	.st10{fill:#7E0023;}
	
		.st11{clip-path:url(#SVGID_00000096759890054806151160000016674266657790702495_);fill:none;stroke:#FFFFFF;stroke-width:0.5334;stroke-miterlimit:10;}
</style>
<g>
	<g>
		<g>
			<g>
				<g>
					<line class="st0" x1="173.2" y1="24" x2="173.2" y2="17.8"/>
					<line class="st0" x1="250.8" y1="24" x2="250.8" y2="17.8"/>
					<line class="st0" x1="327.6" y1="24" x2="327.6" y2="17.8"/>
					<line class="st0" x1="405.4" y1="24" x2="405.4" y2="17.8"/>
					<line class="st0" x1="482.7" y1="24" x2="482.7" y2="17.8"/>
					<line class="st0" x1="560.8" y1="24" x2="560.8" y2="17.8"/>
				</g>
				<g>
					<g>
						<line class="st0" x1="97.2" y1="24" x2="97.2" y2="17.8"/>
					</g>
				</g>
			</g>
			<g>
				<g>
					<g>
						<path class="st1" d="M169.4,16.1c-0.4,0-0.8-0.1-1.1-0.2s-0.6-0.4-0.8-0.6c-0.2-0.3-0.3-0.6-0.3-0.9h1c0,0.3,0.1,0.5,0.4,0.7
							s0.5,0.3,0.8,0.3c0.3,0,0.5-0.1,0.7-0.2c0.2-0.1,0.3-0.3,0.5-0.5s0.2-0.4,0.2-0.7c0-0.3-0.1-0.5-0.2-0.7
							c-0.1-0.2-0.3-0.4-0.5-0.5c-0.2-0.1-0.4-0.2-0.7-0.2c-0.2,0-0.4,0-0.6,0.1c-0.2,0.1-0.4,0.2-0.5,0.3l-0.9-0.1l0.4-3.3h3.6v0.8
							h-2.8l-0.2,1.8h0c0.1-0.1,0.3-0.2,0.5-0.3s0.4-0.1,0.7-0.1c0.4,0,0.8,0.1,1.1,0.3s0.6,0.4,0.7,0.8s0.3,0.7,0.3,1.1
							c0,0.4-0.1,0.8-0.3,1.1c-0.2,0.3-0.5,0.6-0.8,0.8C170.2,16,169.8,16.1,169.4,16.1z"/>
						<path class="st1" d="M175.1,16.1c-0.5,0-0.9-0.1-1.3-0.4c-0.4-0.3-0.6-0.6-0.8-1.2c-0.2-0.5-0.3-1.1-0.3-1.8
							c0-0.7,0.1-1.3,0.3-1.8s0.5-0.9,0.8-1.1s0.8-0.4,1.3-0.4c0.5,0,0.9,0.1,1.3,0.4s0.6,0.6,0.8,1.1c0.2,0.5,0.3,1.1,0.3,1.8
							c0,0.7-0.1,1.3-0.3,1.8c-0.2,0.5-0.5,0.9-0.8,1.2C176,16,175.6,16.1,175.1,16.1z M175.1,15.2c0.4,0,0.8-0.2,1-0.6
							c0.2-0.4,0.4-1.1,0.4-1.9c0-0.5-0.1-1-0.2-1.4s-0.3-0.7-0.5-0.9c-0.2-0.2-0.5-0.3-0.8-0.3c-0.4,0-0.8,0.2-1,0.7
							s-0.4,1.1-0.4,1.9c0,0.5,0.1,1,0.2,1.4c0.1,0.4,0.3,0.7,0.5,0.9C174.5,15.2,174.8,15.2,175.1,15.2z"/>
					</g>
				</g>
				<g>
					<g>
						<path class="st1" d="M97.2,16.1c-0.5,0-0.9-0.1-1.3-0.4c-0.4-0.3-0.6-0.6-0.8-1.2c-0.2-0.5-0.3-1.1-0.3-1.8
							c0-0.7,0.1-1.3,0.3-1.8s0.5-0.9,0.8-1.1s0.8-0.4,1.3-0.4c0.5,0,0.9,0.1,1.3,0.4s0.6,0.6,0.8,1.1c0.2,0.5,0.3,1.1,0.3,1.8
							c0,0.7-0.1,1.3-0.3,1.8c-0.2,0.5-0.5,0.9-0.8,1.2C98.1,16,97.7,16.1,97.2,16.1z M97.2,15.2c0.4,0,0.8-0.2,1-0.6
							c0.2-0.4,0.4-1.1,0.4-1.9c0-0.5-0.1-1-0.2-1.4s-0.3-0.7-0.5-0.9c-0.2-0.2-0.5-0.3-0.8-0.3c-0.4,0-0.8,0.2-1,0.7
							s-0.4,1.1-0.4,1.9c0,0.5,0.1,1,0.2,1.4c0.1,0.4,0.3,0.7,0.5,0.9C96.6,15.2,96.9,15.2,97.2,15.2z"/>
					</g>
				</g>
				<g>
					<path class="st1" d="M247.2,9.5V16h-1v-5.5h0l-1.6,1v-0.9l1.6-1.1H247.2z"/>
					<path class="st1" d="M251.3,16.1c-0.5,0-0.9-0.1-1.3-0.4c-0.4-0.3-0.6-0.6-0.8-1.2c-0.2-0.5-0.3-1.1-0.3-1.8
						c0-0.7,0.1-1.3,0.3-1.8s0.5-0.9,0.8-1.1s0.8-0.4,1.3-0.4c0.5,0,0.9,0.1,1.3,0.4s0.6,0.6,0.8,1.1c0.2,0.5,0.3,1.1,0.3,1.8
						c0,0.7-0.1,1.3-0.3,1.8c-0.2,0.5-0.5,0.9-0.8,1.2C252.2,16,251.8,16.1,251.3,16.1z M251.3,15.2c0.4,0,0.8-0.2,1-0.6
						c0.2-0.4,0.4-1.1,0.4-1.9c0-0.5-0.1-1-0.2-1.4s-0.3-0.7-0.5-0.9c-0.2-0.2-0.5-0.3-0.8-0.3c-0.4,0-0.8,0.2-1,0.7
						s-0.4,1.1-0.4,1.9c0,0.5,0.1,1,0.2,1.4c0.1,0.4,0.3,0.7,0.5,0.9C250.7,15.2,251,15.2,251.3,15.2z"/>
					<path class="st1" d="M257.1,16.1c-0.5,0-0.9-0.1-1.3-0.4c-0.4-0.3-0.6-0.6-0.8-1.2c-0.2-0.5-0.3-1.1-0.3-1.8
						c0-0.7,0.1-1.3,0.3-1.8s0.5-0.9,0.8-1.1s0.8-0.4,1.3-0.4c0.5,0,0.9,0.1,1.3,0.4s0.6,0.6,0.8,1.1c0.2,0.5,0.3,1.1,0.3,1.8
						c0,0.7-0.1,1.3-0.3,1.8c-0.2,0.5-0.5,0.9-0.8,1.2C258,16,257.6,16.1,257.1,16.1z M257.1,15.2c0.4,0,0.8-0.2,1-0.6
						c0.2-0.4,0.4-1.1,0.4-1.9c0-0.5-0.1-1-0.2-1.4s-0.3-0.7-0.5-0.9c-0.2-0.2-0.5-0.3-0.8-0.3c-0.4,0-0.8,0.2-1,0.7
						s-0.4,1.1-0.4,1.9c0,0.5,0.1,1,0.2,1.4c0.1,0.4,0.3,0.7,0.5,0.9C256.5,15.2,256.8,15.2,257.1,15.2z"/>
				</g>
				<g>
					<path class="st1" d="M322.7,9.5V16h-1v-5.5h0l-1.6,1v-0.9l1.6-1.1H322.7z"/>
					<path class="st1" d="M326.6,16.1c-0.4,0-0.8-0.1-1.1-0.2c-0.3-0.2-0.6-0.4-0.8-0.6c-0.2-0.3-0.3-0.6-0.3-0.9h1
						c0,0.3,0.1,0.5,0.4,0.7c0.2,0.2,0.5,0.3,0.8,0.3c0.3,0,0.5-0.1,0.7-0.2c0.2-0.1,0.3-0.3,0.5-0.5s0.2-0.4,0.2-0.7
						c0-0.3-0.1-0.5-0.2-0.7s-0.3-0.4-0.5-0.5c-0.2-0.1-0.4-0.2-0.7-0.2c-0.2,0-0.4,0-0.6,0.1c-0.2,0.1-0.4,0.2-0.5,0.3l-0.9-0.1
						l0.4-3.3h3.6v0.8h-2.8l-0.2,1.8h0c0.1-0.1,0.3-0.2,0.5-0.3s0.4-0.1,0.7-0.1c0.4,0,0.8,0.1,1.1,0.3c0.3,0.2,0.6,0.4,0.7,0.8
						c0.2,0.3,0.3,0.7,0.3,1.1c0,0.4-0.1,0.8-0.3,1.1s-0.5,0.6-0.8,0.8C327.4,16,327,16.1,326.6,16.1z"/>
					<path class="st1" d="M332.3,16.1c-0.5,0-0.9-0.1-1.3-0.4c-0.4-0.3-0.6-0.6-0.8-1.2c-0.2-0.5-0.3-1.1-0.3-1.8
						c0-0.7,0.1-1.3,0.3-1.8c0.2-0.5,0.5-0.9,0.8-1.1s0.8-0.4,1.3-0.4c0.5,0,0.9,0.1,1.3,0.4c0.4,0.3,0.6,0.6,0.8,1.1
						s0.3,1.1,0.3,1.8c0,0.7-0.1,1.3-0.3,1.8c-0.2,0.5-0.5,0.9-0.8,1.2C333.2,16,332.8,16.1,332.3,16.1z M332.3,15.2
						c0.4,0,0.8-0.2,1-0.6c0.2-0.4,0.4-1.1,0.4-1.9c0-0.5-0.1-1-0.2-1.4c-0.1-0.4-0.3-0.7-0.5-0.9c-0.2-0.2-0.5-0.3-0.8-0.3
						c-0.4,0-0.8,0.2-1,0.7s-0.4,1.1-0.4,1.9c0,0.5,0.1,1,0.2,1.4c0.1,0.4,0.3,0.7,0.5,0.9S332,15.2,332.3,15.2z"/>
				</g>
				<g>
					<path class="st1" d="M396.9,16v-0.7l2.2-2.3c0.2-0.2,0.4-0.5,0.6-0.7c0.2-0.2,0.3-0.4,0.3-0.5c0.1-0.2,0.1-0.4,0.1-0.5
						c0-0.2-0.1-0.4-0.2-0.6c-0.1-0.2-0.2-0.3-0.4-0.4c-0.2-0.1-0.4-0.1-0.6-0.1c-0.2,0-0.4,0-0.6,0.1c-0.2,0.1-0.3,0.2-0.4,0.4
						c-0.1,0.2-0.1,0.4-0.1,0.6h-0.9c0-0.4,0.1-0.7,0.3-1c0.2-0.3,0.4-0.5,0.8-0.7c0.3-0.2,0.7-0.2,1.1-0.2c0.4,0,0.8,0.1,1.1,0.2
						s0.6,0.4,0.7,0.7c0.2,0.3,0.3,0.6,0.3,0.9c0,0.2,0,0.5-0.1,0.7c-0.1,0.2-0.2,0.5-0.5,0.8c-0.2,0.3-0.5,0.6-0.9,1l-1.3,1.4v0
						h2.9V16H396.9z"/>
					<path class="st1" d="M404.7,16.1c-0.5,0-0.9-0.1-1.3-0.4c-0.4-0.3-0.6-0.6-0.8-1.2c-0.2-0.5-0.3-1.1-0.3-1.8
						c0-0.7,0.1-1.3,0.3-1.8c0.2-0.5,0.5-0.9,0.8-1.1s0.8-0.4,1.3-0.4c0.5,0,0.9,0.1,1.3,0.4c0.4,0.3,0.6,0.6,0.8,1.1
						s0.3,1.1,0.3,1.8c0,0.7-0.1,1.3-0.3,1.8c-0.2,0.5-0.5,0.9-0.8,1.2C405.6,16,405.2,16.1,404.7,16.1z M404.7,15.2
						c0.4,0,0.8-0.2,1-0.6c0.2-0.4,0.4-1.1,0.4-1.9c0-0.5-0.1-1-0.2-1.4c-0.1-0.4-0.3-0.7-0.5-0.9c-0.2-0.2-0.5-0.3-0.8-0.3
						c-0.4,0-0.8,0.2-1,0.7s-0.4,1.1-0.4,1.9c0,0.5,0.1,1,0.2,1.4c0.1,0.4,0.3,0.7,0.5,0.9S404.4,15.2,404.7,15.2z"/>
					<path class="st1" d="M410.5,16.1c-0.5,0-0.9-0.1-1.3-0.4c-0.4-0.3-0.6-0.6-0.8-1.2c-0.2-0.5-0.3-1.1-0.3-1.8
						c0-0.7,0.1-1.3,0.3-1.8c0.2-0.5,0.5-0.9,0.8-1.1s0.8-0.4,1.3-0.4c0.5,0,0.9,0.1,1.3,0.4c0.4,0.3,0.6,0.6,0.8,1.1
						s0.3,1.1,0.3,1.8c0,0.7-0.1,1.3-0.3,1.8c-0.2,0.5-0.5,0.9-0.8,1.2C411.4,16,411,16.1,410.5,16.1z M410.5,15.2
						c0.4,0,0.8-0.2,1-0.6c0.2-0.4,0.4-1.1,0.4-1.9c0-0.5-0.1-1-0.2-1.4c-0.1-0.4-0.3-0.7-0.5-0.9c-0.2-0.2-0.5-0.3-0.8-0.3
						c-0.4,0-0.8,0.2-1,0.7s-0.4,1.1-0.4,1.9c0,0.5,0.1,1,0.2,1.4c0.1,0.4,0.3,0.7,0.5,0.9S410.2,15.2,410.5,15.2z"/>
				</g>
				<g>
					<path class="st1" d="M475,16.1c-0.4,0-0.8-0.1-1.2-0.2c-0.3-0.2-0.6-0.4-0.8-0.6c-0.2-0.3-0.3-0.6-0.3-0.9h1
						c0,0.2,0.1,0.4,0.2,0.5c0.1,0.1,0.3,0.3,0.5,0.3c0.2,0.1,0.4,0.1,0.6,0.1c0.3,0,0.5,0,0.7-0.1c0.2-0.1,0.4-0.2,0.5-0.4
						s0.2-0.3,0.2-0.6c0-0.2-0.1-0.4-0.2-0.6c-0.1-0.2-0.3-0.3-0.5-0.4s-0.5-0.1-0.8-0.1h-0.6v-0.8h0.6c0.2,0,0.5,0,0.6-0.1
						c0.2-0.1,0.3-0.2,0.4-0.4c0.1-0.2,0.2-0.3,0.2-0.5c0-0.2,0-0.4-0.1-0.5c-0.1-0.1-0.2-0.3-0.4-0.4c-0.2-0.1-0.4-0.1-0.6-0.1
						c-0.2,0-0.4,0-0.6,0.1c-0.2,0.1-0.3,0.2-0.4,0.3c-0.1,0.1-0.2,0.3-0.2,0.5h-1c0-0.4,0.1-0.7,0.3-0.9c0.2-0.3,0.5-0.5,0.8-0.6
						s0.7-0.2,1.1-0.2c0.4,0,0.8,0.1,1.1,0.2c0.3,0.2,0.5,0.4,0.7,0.6s0.2,0.6,0.2,0.9c0,0.4-0.1,0.7-0.3,0.9
						c-0.2,0.3-0.5,0.4-0.8,0.5v0.1c0.4,0.1,0.8,0.2,1,0.5c0.2,0.3,0.4,0.6,0.4,1c0,0.4-0.1,0.7-0.3,1c-0.2,0.3-0.5,0.5-0.8,0.7
						S475.5,16.1,475,16.1z"/>
					<path class="st1" d="M480.8,16.1c-0.5,0-0.9-0.1-1.3-0.4s-0.6-0.6-0.8-1.2c-0.2-0.5-0.3-1.1-0.3-1.8c0-0.7,0.1-1.3,0.3-1.8
						c0.2-0.5,0.5-0.9,0.8-1.1s0.8-0.4,1.3-0.4c0.5,0,0.9,0.1,1.3,0.4c0.4,0.3,0.6,0.6,0.8,1.1s0.3,1.1,0.3,1.8
						c0,0.7-0.1,1.3-0.3,1.8c-0.2,0.5-0.5,0.9-0.8,1.2S481.3,16.1,480.8,16.1z M480.8,15.2c0.4,0,0.8-0.2,1-0.6
						c0.2-0.4,0.4-1.1,0.4-1.9c0-0.5-0.1-1-0.2-1.4c-0.1-0.4-0.3-0.7-0.5-0.9c-0.2-0.2-0.5-0.3-0.8-0.3c-0.4,0-0.8,0.2-1,0.7
						s-0.4,1.1-0.4,1.9c0,0.5,0.1,1,0.2,1.4c0.1,0.4,0.3,0.7,0.5,0.9C480.3,15.2,480.5,15.2,480.8,15.2z"/>
					<path class="st1" d="M486.6,16.1c-0.5,0-0.9-0.1-1.3-0.4c-0.4-0.3-0.6-0.6-0.8-1.2s-0.3-1.1-0.3-1.8c0-0.7,0.1-1.3,0.3-1.8
						c0.2-0.5,0.5-0.9,0.8-1.1s0.8-0.4,1.3-0.4s0.9,0.1,1.3,0.4c0.4,0.3,0.6,0.6,0.8,1.1s0.3,1.1,0.3,1.8c0,0.7-0.1,1.3-0.3,1.8
						s-0.5,0.9-0.8,1.2C487.6,16,487.1,16.1,486.6,16.1z M486.6,15.2c0.4,0,0.8-0.2,1-0.6s0.4-1.1,0.4-1.9c0-0.5-0.1-1-0.2-1.4
						c-0.1-0.4-0.3-0.7-0.5-0.9c-0.2-0.2-0.5-0.3-0.8-0.3c-0.4,0-0.8,0.2-1,0.7s-0.4,1.1-0.4,1.9c0,0.5,0.1,1,0.2,1.4
						c0.1,0.4,0.3,0.7,0.5,0.9C486.1,15.2,486.3,15.2,486.6,15.2z"/>
				</g>
				<line class="st0" x1="560.8" y1="24" x2="560.8" y2="17.8"/>
				<g>
					<path class="st1" d="M553.1,16.1c-0.4,0-0.8-0.1-1.1-0.2c-0.3-0.2-0.6-0.4-0.8-0.6s-0.3-0.6-0.3-0.9h1c0,0.3,0.1,0.5,0.4,0.7
						c0.2,0.2,0.5,0.3,0.8,0.3c0.3,0,0.5-0.1,0.7-0.2c0.2-0.1,0.3-0.3,0.5-0.5c0.1-0.2,0.2-0.4,0.2-0.7c0-0.3-0.1-0.5-0.2-0.7
						c-0.1-0.2-0.3-0.4-0.5-0.5s-0.4-0.2-0.7-0.2c-0.2,0-0.4,0-0.6,0.1c-0.2,0.1-0.4,0.2-0.5,0.3l-0.9-0.1l0.4-3.3h3.6v0.8h-2.8
						l-0.2,1.8h0c0.1-0.1,0.3-0.2,0.5-0.3c0.2-0.1,0.4-0.1,0.7-0.1c0.4,0,0.8,0.1,1.1,0.3c0.3,0.2,0.6,0.4,0.7,0.8
						c0.2,0.3,0.3,0.7,0.3,1.1c0,0.4-0.1,0.8-0.3,1.1s-0.5,0.6-0.8,0.8C553.9,16,553.6,16.1,553.1,16.1z"/>
					<path class="st1" d="M558.8,16.1c-0.5,0-0.9-0.1-1.3-0.4c-0.4-0.3-0.6-0.6-0.8-1.2s-0.3-1.1-0.3-1.8c0-0.7,0.1-1.3,0.3-1.8
						c0.2-0.5,0.5-0.9,0.8-1.1s0.8-0.4,1.3-0.4s0.9,0.1,1.3,0.4c0.4,0.3,0.6,0.6,0.8,1.1s0.3,1.1,0.3,1.8c0,0.7-0.1,1.3-0.3,1.8
						s-0.5,0.9-0.8,1.2C559.7,16,559.3,16.1,558.8,16.1z M558.8,15.2c0.4,0,0.8-0.2,1-0.6s0.4-1.1,0.4-1.9c0-0.5-0.1-1-0.2-1.4
						c-0.1-0.4-0.3-0.7-0.5-0.9c-0.2-0.2-0.5-0.3-0.8-0.3c-0.4,0-0.8,0.2-1,0.7s-0.4,1.1-0.4,1.9c0,0.5,0.1,1,0.2,1.4
						c0.1,0.4,0.3,0.7,0.5,0.9C558.3,15.2,558.5,15.2,558.8,15.2z"/>
					<path class="st1" d="M564.6,16.1c-0.5,0-0.9-0.1-1.3-0.4s-0.6-0.6-0.8-1.2c-0.2-0.5-0.3-1.1-0.3-1.8c0-0.7,0.1-1.3,0.3-1.8
						c0.2-0.5,0.5-0.9,0.8-1.1s0.8-0.4,1.3-0.4c0.5,0,0.9,0.1,1.3,0.4c0.4,0.3,0.6,0.6,0.8,1.1s0.3,1.1,0.3,1.8
						c0,0.7-0.1,1.3-0.3,1.8c-0.2,0.5-0.5,0.9-0.8,1.2S565.1,16.1,564.6,16.1z M564.6,15.2c0.4,0,0.8-0.2,1-0.6
						c0.2-0.4,0.4-1.1,0.4-1.9c0-0.5-0.1-1-0.2-1.4c-0.1-0.4-0.3-0.7-0.5-0.9c-0.2-0.2-0.5-0.3-0.8-0.3c-0.4,0-0.8,0.2-1,0.7
						s-0.4,1.1-0.4,1.9c0,0.5,0.1,1,0.2,1.4c0.1,0.4,0.3,0.7,0.5,0.9C564.1,15.2,564.3,15.2,564.6,15.2z"/>
				</g>
			</g>
		</g>
		<g>
			<defs>
				<path id="SVGID_1_" d="M20.5,40.4c-3.9,0-7-3.2-7-7v-1.6c0-3.9,3.2-7,7-7h532.4c3.9,0,7,3.2,7,7v1.6c0,3.9-3.2,7-7,7H20.5z"/>
			</defs>
			<clipPath id="SVGID_00000183962056578436192620000007187833775930989983_">
				<use xlink:href="#SVGID_1_"  style="overflow:visible;"/>
			</clipPath>
			<g style="clip-path:url(#SVGID_00000183962056578436192620000007187833775930989983_);">
				<defs>
					<path id="SVGID_00000013191627371574249230000012996462482099305663_" d="M20.5,44.1c-5.9,0-10.7-4.8-10.7-10.7v-1.6
						c0-5.9,4.8-10.7,10.7-10.7h532.4c5.9,0,10.7,4.8,10.7,10.7v1.6c0,5.9-4.8,10.7-10.7,10.7H20.5z"/>
				</defs>
				<clipPath id="SVGID_00000183215150260682652960000013957370535736200881_">
					<use xlink:href="#SVGID_00000013191627371574249230000012996462482099305663_"  style="overflow:visible;"/>
				</clipPath>
				<g style="clip-path:url(#SVGID_00000183215150260682652960000013957370535736200881_);">
					<g>
						<rect x="97.8" y="18.4" class="st4" width="75.5" height="28.3"/>
						<rect x="173.2" y="18.4" class="st5" width="77.5" height="28.3"/>
						<rect x="5.7" y="18.4" class="st6" width="81.1" height="28.3"/>
						<rect x="250.8" y="18.4" class="st7" width="77.5" height="28.3"/>
						<rect x="327.6" y="18.4" class="st8" width="77.5" height="28.3"/>
						<rect x="405.4" y="18.4" class="st9" width="77.5" height="28.3"/>
						<rect x="482.7" y="18.4" class="st10" width="84.3" height="28.3"/>
					</g>
				</g>
				
					<line style="clip-path:url(#SVGID_00000183215150260682652960000013957370535736200881_);fill:none;stroke:#FFFFFF;stroke-width:0.5334;stroke-miterlimit:10;" x1="173.2" y1="43.9" x2="173.2" y2="21.3"/>
				
					<line style="clip-path:url(#SVGID_00000183215150260682652960000013957370535736200881_);fill:none;stroke:#FFFFFF;stroke-width:0.5334;stroke-miterlimit:10;" x1="250.8" y1="43.9" x2="250.8" y2="21.3"/>
				
					<line style="clip-path:url(#SVGID_00000183215150260682652960000013957370535736200881_);fill:none;stroke:#FFFFFF;stroke-width:0.5334;stroke-miterlimit:10;" x1="327.6" y1="43.9" x2="327.6" y2="21.3"/>
				
					<line style="clip-path:url(#SVGID_00000183215150260682652960000013957370535736200881_);fill:none;stroke:#FFFFFF;stroke-width:0.5334;stroke-miterlimit:10;" x1="405.4" y1="43.9" x2="405.4" y2="21.3"/>
				
					<line style="clip-path:url(#SVGID_00000183215150260682652960000013957370535736200881_);fill:none;stroke:#FFFFFF;stroke-width:0.5334;stroke-miterlimit:10;" x1="482.7" y1="43.9" x2="482.7" y2="21.3"/>
			</g>
		</g>
	</g>
	<g>
		<path class="st1" d="M537.9,51.3V44h1.1v3.2h3.6V44h1.1v7.3h-1.1v-3.2H539v3.2H537.9z"/>
		<path class="st1" d="M546.8,51.4c-0.3,0-0.7-0.1-0.9-0.2c-0.3-0.1-0.5-0.3-0.7-0.6s-0.2-0.5-0.2-0.9c0-0.3,0.1-0.6,0.2-0.8
			c0.1-0.2,0.3-0.4,0.5-0.5c0.2-0.1,0.4-0.2,0.7-0.3s0.5-0.1,0.8-0.1c0.3,0,0.6-0.1,0.8-0.1s0.4-0.1,0.4-0.1
			c0.1-0.1,0.1-0.1,0.1-0.3v0c0-0.3-0.1-0.5-0.3-0.7c-0.2-0.2-0.4-0.3-0.8-0.3c-0.4,0-0.6,0.1-0.8,0.2c-0.2,0.2-0.3,0.3-0.4,0.5
			l-1-0.2c0.1-0.3,0.3-0.6,0.5-0.8c0.2-0.2,0.5-0.4,0.8-0.4s0.6-0.1,0.9-0.1c0.2,0,0.4,0,0.7,0.1c0.2,0.1,0.5,0.1,0.7,0.3
			c0.2,0.1,0.4,0.3,0.5,0.6c0.1,0.2,0.2,0.6,0.2,1v3.6h-1v-0.7h0c-0.1,0.1-0.2,0.3-0.3,0.4c-0.1,0.1-0.3,0.2-0.5,0.3
			S547.1,51.4,546.8,51.4z M547.1,50.6c0.3,0,0.5-0.1,0.8-0.2c0.2-0.1,0.4-0.3,0.5-0.5c0.1-0.2,0.2-0.4,0.2-0.6v-0.7
			c0,0-0.1,0.1-0.2,0.1c-0.1,0-0.2,0.1-0.4,0.1c-0.1,0-0.3,0-0.4,0.1s-0.2,0-0.3,0c-0.2,0-0.4,0.1-0.6,0.1s-0.3,0.1-0.4,0.3
			s-0.2,0.3-0.2,0.5c0,0.3,0.1,0.5,0.3,0.6S546.8,50.6,547.1,50.6z"/>
		<path class="st1" d="M550.8,51.3v-0.7l2.9-3.7v0h-2.9v-0.9h4.2v0.8l-2.8,3.7v0h2.9v0.9H550.8z"/>
		<path class="st1" d="M558,51.4c-0.3,0-0.7-0.1-0.9-0.2c-0.3-0.1-0.5-0.3-0.7-0.6s-0.2-0.5-0.2-0.9c0-0.3,0.1-0.6,0.2-0.8
			c0.1-0.2,0.3-0.4,0.5-0.5c0.2-0.1,0.4-0.2,0.7-0.3s0.5-0.1,0.8-0.1c0.3,0,0.6-0.1,0.8-0.1s0.4-0.1,0.4-0.1
			c0.1-0.1,0.1-0.1,0.1-0.3v0c0-0.3-0.1-0.5-0.3-0.7c-0.2-0.2-0.4-0.3-0.8-0.3c-0.4,0-0.6,0.1-0.8,0.2c-0.2,0.2-0.3,0.3-0.4,0.5
			l-1-0.2c0.1-0.3,0.3-0.6,0.5-0.8c0.2-0.2,0.5-0.4,0.8-0.4s0.6-0.1,0.9-0.1c0.2,0,0.4,0,0.7,0.1c0.2,0.1,0.5,0.1,0.7,0.3
			c0.2,0.1,0.4,0.3,0.5,0.6c0.1,0.2,0.2,0.6,0.2,1v3.6h-1v-0.7h0c-0.1,0.1-0.2,0.3-0.3,0.4c-0.1,0.1-0.3,0.2-0.5,0.3
			S558.3,51.4,558,51.4z M558.2,50.6c0.3,0,0.5-0.1,0.8-0.2c0.2-0.1,0.4-0.3,0.5-0.5c0.1-0.2,0.2-0.4,0.2-0.6v-0.7
			c0,0-0.1,0.1-0.2,0.1c-0.1,0-0.2,0.1-0.4,0.1c-0.1,0-0.3,0-0.4,0.1s-0.2,0-0.3,0c-0.2,0-0.4,0.1-0.6,0.1s-0.3,0.1-0.4,0.3
			s-0.2,0.3-0.2,0.5c0,0.3,0.1,0.5,0.3,0.6S557.9,50.6,558.2,50.6z"/>
		<path class="st1" d="M562.1,51.3v-5.4h1v0.9h0.1c0.1-0.3,0.3-0.5,0.5-0.7c0.3-0.2,0.5-0.3,0.9-0.3c0.1,0,0.1,0,0.2,0
			c0.1,0,0.2,0,0.2,0v1c0,0-0.1,0-0.2,0c-0.1,0-0.2,0-0.3,0c-0.3,0-0.5,0.1-0.7,0.2c-0.2,0.1-0.3,0.2-0.5,0.4s-0.2,0.4-0.2,0.6v3.3
			H562.1z"/>
		<path class="st1" d="M568,51.4c-0.4,0-0.8-0.1-1.2-0.3s-0.6-0.5-0.8-1c-0.2-0.4-0.3-0.9-0.3-1.5s0.1-1.1,0.3-1.5
			c0.2-0.4,0.5-0.7,0.8-1s0.7-0.3,1.2-0.3c0.3,0,0.6,0.1,0.8,0.2c0.2,0.1,0.4,0.2,0.5,0.4s0.2,0.3,0.3,0.4h0.1V44h1.1v7.3h-1v-0.8
			h-0.1c-0.1,0.1-0.2,0.2-0.3,0.4c-0.1,0.1-0.3,0.3-0.5,0.4C568.6,51.3,568.3,51.4,568,51.4z M568.2,50.5c0.3,0,0.6-0.1,0.8-0.2
			c0.2-0.2,0.4-0.4,0.5-0.7c0.1-0.3,0.2-0.6,0.2-1c0-0.4-0.1-0.7-0.2-1c-0.1-0.3-0.3-0.5-0.5-0.7c-0.2-0.2-0.5-0.2-0.8-0.2
			c-0.3,0-0.6,0.1-0.8,0.2s-0.4,0.4-0.5,0.7c-0.1,0.3-0.2,0.6-0.2,1c0,0.4,0.1,0.7,0.2,1s0.3,0.5,0.5,0.7S567.9,50.5,568.2,50.5z"/>
		<path class="st1" d="M574.5,51.4c-0.5,0-1-0.1-1.3-0.4c-0.4-0.2-0.7-0.6-0.9-1s-0.3-0.9-0.3-1.5c0-0.6,0.1-1.1,0.3-1.5
			s0.5-0.8,0.9-1c0.4-0.2,0.8-0.4,1.3-0.4c0.5,0,1,0.1,1.3,0.4c0.4,0.2,0.7,0.6,0.9,1c0.2,0.4,0.3,0.9,0.3,1.5
			c0,0.6-0.1,1.1-0.3,1.5c-0.2,0.4-0.5,0.7-0.9,1C575.4,51.3,575,51.4,574.5,51.4z M574.5,50.5c0.3,0,0.6-0.1,0.8-0.3
			c0.2-0.2,0.4-0.4,0.5-0.7s0.2-0.6,0.2-1c0-0.3-0.1-0.7-0.2-1c-0.1-0.3-0.3-0.5-0.5-0.7c-0.2-0.2-0.5-0.3-0.8-0.3
			c-0.3,0-0.6,0.1-0.8,0.3c-0.2,0.2-0.4,0.4-0.5,0.7c-0.1,0.3-0.2,0.6-0.2,1c0,0.3,0.1,0.7,0.2,1c0.1,0.3,0.3,0.5,0.5,0.7
			C573.9,50.4,574.1,50.5,574.5,50.5z"/>
		<path class="st1" d="M581.6,49v-3.2h1.1v5.4h-1v-0.9h-0.1c-0.1,0.3-0.3,0.5-0.6,0.7c-0.3,0.2-0.6,0.3-1,0.3
			c-0.3,0-0.7-0.1-0.9-0.2c-0.3-0.2-0.5-0.4-0.6-0.7s-0.2-0.7-0.2-1.1v-3.5h1.1v3.3c0,0.4,0.1,0.7,0.3,0.9s0.5,0.3,0.8,0.3
			c0.2,0,0.4,0,0.6-0.1c0.2-0.1,0.4-0.2,0.5-0.4C581.6,49.6,581.6,49.3,581.6,49z"/>
		<path class="st1" d="M588.2,47.2l-1,0.2c0-0.1-0.1-0.2-0.2-0.4c-0.1-0.1-0.2-0.2-0.3-0.3s-0.3-0.1-0.5-0.1c-0.3,0-0.6,0.1-0.8,0.2
			c-0.2,0.1-0.3,0.3-0.3,0.5c0,0.2,0.1,0.3,0.2,0.4c0.1,0.1,0.4,0.2,0.7,0.3l0.9,0.2c0.5,0.1,0.9,0.3,1.1,0.5
			c0.2,0.2,0.4,0.6,0.4,0.9c0,0.3-0.1,0.6-0.3,0.9c-0.2,0.3-0.4,0.5-0.8,0.6c-0.3,0.1-0.7,0.2-1.2,0.2c-0.6,0-1.1-0.1-1.5-0.4
			c-0.4-0.3-0.6-0.6-0.7-1.1l1-0.2c0.1,0.3,0.2,0.5,0.4,0.6s0.5,0.2,0.8,0.2c0.3,0,0.6-0.1,0.8-0.2c0.2-0.1,0.3-0.3,0.3-0.5
			c0-0.2-0.1-0.3-0.2-0.4c-0.1-0.1-0.3-0.2-0.6-0.3l-0.9-0.2c-0.5-0.1-0.9-0.3-1.1-0.6c-0.2-0.3-0.4-0.6-0.4-1
			c0-0.3,0.1-0.6,0.3-0.8c0.2-0.2,0.4-0.4,0.7-0.6s0.7-0.2,1.1-0.2c0.6,0,1.1,0.1,1.4,0.4S588.1,46.7,588.2,47.2z"/>
	</g>
	<g>
		<path class="st1" d="M92.6,46.3c-0.1-0.2-0.2-0.4-0.3-0.6s-0.3-0.3-0.4-0.4s-0.3-0.2-0.5-0.3s-0.4-0.1-0.7-0.1
			c-0.4,0-0.8,0.1-1.1,0.3c-0.3,0.2-0.6,0.5-0.8,0.9c-0.2,0.4-0.3,0.9-0.3,1.5c0,0.6,0.1,1.1,0.3,1.5s0.5,0.7,0.8,0.9
			c0.3,0.2,0.7,0.3,1.1,0.3c0.4,0,0.7-0.1,1-0.2c0.3-0.2,0.5-0.4,0.7-0.7c0.2-0.3,0.2-0.6,0.2-1l0.3,0.1h-2.1v-0.9h2.9v0.8
			c0,0.6-0.1,1.1-0.4,1.6c-0.3,0.4-0.6,0.8-1.1,1c-0.5,0.2-1,0.4-1.6,0.4c-0.7,0-1.2-0.2-1.7-0.5c-0.5-0.3-0.9-0.7-1.2-1.3
			s-0.4-1.2-0.4-2c0-0.6,0.1-1.1,0.2-1.6c0.2-0.5,0.4-0.9,0.7-1.2c0.3-0.3,0.6-0.6,1-0.7s0.8-0.3,1.3-0.3c0.4,0,0.8,0.1,1.1,0.2
			c0.3,0.1,0.6,0.3,0.9,0.5s0.5,0.5,0.7,0.8s0.3,0.6,0.4,1H92.6z"/>
		<path class="st1" d="M97.4,51.4c-0.5,0-1-0.1-1.3-0.4c-0.4-0.2-0.7-0.6-0.9-1c-0.2-0.4-0.3-0.9-0.3-1.5c0-0.6,0.1-1.1,0.3-1.5
			c0.2-0.4,0.5-0.8,0.9-1c0.4-0.2,0.8-0.4,1.3-0.4s1,0.1,1.3,0.4c0.4,0.2,0.7,0.6,0.9,1c0.2,0.4,0.3,0.9,0.3,1.5
			c0,0.6-0.1,1.1-0.3,1.5c-0.2,0.4-0.5,0.7-0.9,1C98.3,51.3,97.9,51.4,97.4,51.4z M97.4,50.5c0.3,0,0.6-0.1,0.8-0.3s0.4-0.4,0.5-0.7
			c0.1-0.3,0.2-0.6,0.2-1c0-0.3-0.1-0.7-0.2-1c-0.1-0.3-0.3-0.5-0.5-0.7c-0.2-0.2-0.5-0.3-0.8-0.3c-0.3,0-0.6,0.1-0.8,0.3
			c-0.2,0.2-0.4,0.4-0.5,0.7c-0.1,0.3-0.2,0.6-0.2,1c0,0.3,0.1,0.7,0.2,1c0.1,0.3,0.3,0.5,0.5,0.7C96.8,50.4,97.1,50.5,97.4,50.5z"
			/>
		<path class="st1" d="M103.4,51.4c-0.5,0-1-0.1-1.3-0.4c-0.4-0.2-0.7-0.6-0.9-1c-0.2-0.4-0.3-0.9-0.3-1.5c0-0.6,0.1-1.1,0.3-1.5
			c0.2-0.4,0.5-0.8,0.9-1c0.4-0.2,0.8-0.4,1.3-0.4s1,0.1,1.3,0.4c0.4,0.2,0.7,0.6,0.9,1c0.2,0.4,0.3,0.9,0.3,1.5
			c0,0.6-0.1,1.1-0.3,1.5c-0.2,0.4-0.5,0.7-0.9,1C104.3,51.3,103.9,51.4,103.4,51.4z M103.4,50.5c0.3,0,0.6-0.1,0.8-0.3
			s0.4-0.4,0.5-0.7c0.1-0.3,0.2-0.6,0.2-1c0-0.3-0.1-0.7-0.2-1c-0.1-0.3-0.3-0.5-0.5-0.7c-0.2-0.2-0.5-0.3-0.8-0.3
			c-0.3,0-0.6,0.1-0.8,0.3c-0.2,0.2-0.4,0.4-0.5,0.7c-0.1,0.3-0.2,0.6-0.2,1c0,0.3,0.1,0.7,0.2,1c0.1,0.3,0.3,0.5,0.5,0.7
			C102.8,50.4,103.1,50.5,103.4,50.5z"/>
		<path class="st1" d="M109.1,51.4c-0.4,0-0.8-0.1-1.2-0.3s-0.6-0.5-0.8-1c-0.2-0.4-0.3-0.9-0.3-1.5s0.1-1.1,0.3-1.5s0.5-0.7,0.8-1
			s0.7-0.3,1.2-0.3c0.3,0,0.6,0.1,0.8,0.2s0.4,0.2,0.5,0.4c0.1,0.1,0.2,0.3,0.3,0.4h0.1V44h1.1v7.3h-1v-0.8h-0.1
			c-0.1,0.1-0.2,0.2-0.3,0.4c-0.1,0.1-0.3,0.3-0.5,0.4C109.7,51.3,109.5,51.4,109.1,51.4z M109.4,50.5c0.3,0,0.6-0.1,0.8-0.2
			s0.4-0.4,0.5-0.7s0.2-0.6,0.2-1c0-0.4-0.1-0.7-0.2-1c-0.1-0.3-0.3-0.5-0.5-0.7c-0.2-0.2-0.5-0.2-0.8-0.2c-0.3,0-0.6,0.1-0.8,0.2
			c-0.2,0.2-0.4,0.4-0.5,0.7c-0.1,0.3-0.2,0.6-0.2,1c0,0.4,0.1,0.7,0.2,1c0.1,0.3,0.3,0.5,0.5,0.7C108.8,50.4,109.1,50.5,109.4,50.5
			z"/>
	</g>
	<g>
		<path class="st1" d="M13.8,44v7.3h-1L9.1,46H9v5.3H7.9V44h1l3.7,5.3h0.1V44H13.8z"/>
		<path class="st1" d="M18.1,43.7l-2.3,8.7h-0.9l2.3-8.7H18.1z"/>
		<path class="st1" d="M19.7,51.3h-1.2l2.6-7.3h1.3l2.6,7.3h-1.2l-2.1-6h-0.1L19.7,51.3z M19.9,48.4h3.8v0.9h-3.8V48.4z"/>
	</g>
</g>
</svg>
