<?xml version="1.0" encoding="utf-8"?>
<!-- Generator: Adobe Illustrator 28.1.0, SVG Export Plug-In . SVG Version: 6.00 Build 0)  -->
<svg version="1.1" id="Layer_1" xmlns="http://www.w3.org/2000/svg" xmlns:xlink="http://www.w3.org/1999/xlink" x="0px" y="0px"
	 viewBox="0 0 494 43" style="enable-background:new 0 0 494 43;" xml:space="preserve">
<style type="text/css">
	.st0{fill:#25B5B1;stroke:#D1D1D1;stroke-width:2.5042;stroke-linecap:round;stroke-linejoin:round;stroke-miterlimit:10;}
	.st1{fill:#FFFFFF;}
	.st2{fill:#EBEBEB;stroke:#E7E7E7;stroke-width:3.1586;stroke-linecap:round;stroke-linejoin:round;stroke-miterlimit:10;}
	.st3{fill:#C5C8D2;}
	.st4{fill:#4F4F4F;}
</style>
<g>
	<g>
		<g>
			<path class="st0" d="M129.1,36.4h-106c-8.4,0-15.3-6.9-15.3-15.3v0c0-8.4,6.9-15.3,15.3-15.3h106c8.4,0,15.3,6.9,15.3,15.3v0
				C144.4,29.5,137.5,36.4,129.1,36.4z"/>
			<g>
				<path class="st1" d="M64.5,26.2H60V12.4h4.6c1.4,0,2.5,0.3,3.5,0.8c1,0.5,1.7,1.3,2.2,2.4c0.5,1,0.8,2.3,0.8,3.7
					c0,1.4-0.3,2.7-0.8,3.7c-0.5,1-1.3,1.8-2.3,2.4S65.9,26.2,64.5,26.2z M62.1,24.4h2.3c1,0,1.9-0.2,2.6-0.6s1.2-1,1.6-1.7
					c0.3-0.8,0.5-1.7,0.5-2.8c0-1.1-0.2-2-0.5-2.8c-0.3-0.8-0.9-1.3-1.5-1.7c-0.7-0.4-1.5-0.6-2.5-0.6h-2.4V24.4z"/>
				<path class="st1" d="M76.6,26.5c-0.7,0-1.2-0.1-1.8-0.4c-0.5-0.2-0.9-0.6-1.3-1.1s-0.5-1-0.5-1.7c0-0.6,0.1-1.1,0.3-1.4
					c0.2-0.4,0.5-0.7,0.9-0.9c0.4-0.2,0.8-0.4,1.3-0.5c0.5-0.1,1-0.2,1.4-0.3c0.6-0.1,1.1-0.1,1.5-0.2c0.4,0,0.7-0.1,0.8-0.2
					s0.3-0.3,0.3-0.5v0c0-0.6-0.2-1-0.5-1.4c-0.3-0.3-0.8-0.5-1.5-0.5c-0.7,0-1.2,0.1-1.6,0.4s-0.7,0.6-0.8,1l-1.9-0.4
					c0.2-0.6,0.6-1.1,1-1.5c0.4-0.4,0.9-0.7,1.5-0.8s1.2-0.3,1.8-0.3c0.4,0,0.9,0,1.3,0.1c0.5,0.1,0.9,0.3,1.3,0.5
					c0.4,0.3,0.7,0.6,1,1.1c0.3,0.5,0.4,1.1,0.4,1.8v6.9h-2v-1.4h-0.1c-0.1,0.3-0.3,0.5-0.6,0.8c-0.3,0.3-0.6,0.5-1,0.6
					C77.6,26.4,77.1,26.5,76.6,26.5z M77,24.8c0.6,0,1-0.1,1.4-0.3c0.4-0.2,0.7-0.5,0.9-0.9c0.2-0.4,0.3-0.7,0.3-1.1v-1.3
					c-0.1,0.1-0.2,0.1-0.4,0.2s-0.4,0.1-0.7,0.2c-0.3,0-0.5,0.1-0.8,0.1s-0.5,0.1-0.6,0.1c-0.4,0-0.7,0.1-1.1,0.2
					c-0.3,0.1-0.6,0.3-0.8,0.5C75.1,22.7,75,23,75,23.3c0,0.5,0.2,0.9,0.6,1.1C76,24.7,76.4,24.8,77,24.8z"/>
				<path class="st1" d="M85.6,30.1c-0.3,0-0.6,0-0.8-0.1c-0.2,0-0.4-0.1-0.6-0.2l0.5-1.6c0.4,0.1,0.7,0.1,1,0.1
					c0.3,0,0.5-0.1,0.8-0.3c0.2-0.2,0.4-0.5,0.6-1l0.2-0.7l-3.8-10.5h2.2l2.6,8h0.1l2.6-8h2.2l-4.3,11.7c-0.2,0.5-0.4,1-0.8,1.4
					c-0.3,0.4-0.7,0.7-1.1,0.8S86.2,30.1,85.6,30.1z"/>
			</g>
		</g>
		<g>
			<path class="st2" d="M279.2,36.4h-106c-8.4,0-15.3-6.9-15.3-15.3v0c0-8.4,6.9-15.3,15.3-15.3h106c8.4,0,15.3,6.9,15.3,15.3v0
				C294.5,29.5,287.6,36.4,279.2,36.4z"/>
			<g>
				<g>
					<path class="st3" d="M204.7,26.2l-3.8-13.8h2.2l2.7,10.7h0.1l2.8-10.7h2.2l2.8,10.7h0.1l2.7-10.7h2.2l-3.8,13.8h-2.1l-2.9-10.3
						h-0.1l-2.9,10.3H204.7z"/>
					<path class="st3" d="M224.8,26.4c-1,0-1.9-0.2-2.6-0.7c-0.7-0.4-1.3-1.1-1.7-1.9c-0.4-0.8-0.6-1.7-0.6-2.8c0-1.1,0.2-2,0.6-2.8
						c0.4-0.8,1-1.4,1.7-1.9c0.7-0.5,1.6-0.7,2.5-0.7c0.6,0,1.1,0.1,1.7,0.3c0.5,0.2,1,0.5,1.5,0.9c0.4,0.4,0.8,0.9,1,1.6
						s0.4,1.5,0.4,2.4v0.7H221v-1.5h6.2c0-0.5-0.1-1-0.3-1.4c-0.2-0.4-0.5-0.7-0.9-1s-0.8-0.4-1.4-0.4c-0.6,0-1.1,0.1-1.5,0.4
						c-0.4,0.3-0.7,0.6-1,1.1s-0.3,0.9-0.3,1.4v1.2c0,0.7,0.1,1.3,0.4,1.8c0.2,0.5,0.6,0.9,1,1.1s1,0.4,1.5,0.4c0.4,0,0.7-0.1,1-0.2
						c0.3-0.1,0.6-0.3,0.8-0.5s0.4-0.5,0.5-0.8l1.9,0.3c-0.2,0.6-0.4,1.1-0.8,1.5s-0.9,0.7-1.5,1C226.3,26.3,225.6,26.4,224.8,26.4z
						"/>
					<path class="st3" d="M236,26.4c-1,0-1.9-0.2-2.6-0.7c-0.7-0.4-1.3-1.1-1.7-1.9c-0.4-0.8-0.6-1.7-0.6-2.8c0-1.1,0.2-2,0.6-2.8
						c0.4-0.8,1-1.4,1.7-1.9c0.7-0.5,1.6-0.7,2.5-0.7c0.6,0,1.1,0.1,1.7,0.3c0.5,0.2,1,0.5,1.5,0.9c0.4,0.4,0.8,0.9,1,1.6
						s0.4,1.5,0.4,2.4v0.7h-8.2v-1.5h6.2c0-0.5-0.1-1-0.3-1.4c-0.2-0.4-0.5-0.7-0.9-1s-0.8-0.4-1.4-0.4c-0.6,0-1.1,0.1-1.5,0.4
						c-0.4,0.3-0.7,0.6-1,1.1s-0.3,0.9-0.3,1.4v1.2c0,0.7,0.1,1.3,0.4,1.8c0.2,0.5,0.6,0.9,1,1.1s1,0.4,1.5,0.4c0.4,0,0.7-0.1,1-0.2
						c0.3-0.1,0.6-0.3,0.8-0.5s0.4-0.5,0.5-0.8l1.9,0.3c-0.2,0.6-0.4,1.1-0.8,1.5s-0.9,0.7-1.5,1C237.4,26.3,236.7,26.4,236,26.4z"
						/>
					<path class="st3" d="M242.6,26.2V12.4h2v13.8H242.6z M244.5,22.7l0-2.5h0.3l4.1-4.4h2.4l-4.7,5h-0.3L244.5,22.7z M249.2,26.2
						l-3.7-4.9l1.4-1.4l4.8,6.3H249.2z"/>
				</g>
			</g>
		</g>
		<g>
			<path class="st2" d="M429.2,36.4h-106c-8.4,0-15.3-6.9-15.3-15.3v0c0-8.4,6.9-15.3,15.3-15.3h106c8.4,0,15.3,6.9,15.3,15.3v0
				C444.5,29.5,437.6,36.4,429.2,36.4z"/>
			<g>
				<g>
					<path class="st3" d="M348.6,12.4h2.5l4.4,10.7h0.2l4.4-10.7h2.5v13.8h-2v-10h-0.1l-4.1,10h-1.6l-4.1-10h-0.1v10h-2V12.4z"/>
					<path class="st3" d="M369.8,26.4c-1,0-1.8-0.2-2.5-0.7c-0.7-0.4-1.3-1.1-1.7-1.9s-0.6-1.7-0.6-2.8c0-1.1,0.2-2,0.6-2.8
						s1-1.4,1.7-1.9s1.6-0.7,2.5-0.7s1.8,0.2,2.5,0.7s1.3,1.1,1.7,1.9s0.6,1.7,0.6,2.8c0,1.1-0.2,2-0.6,2.8s-1,1.4-1.7,1.9
						C371.6,26.2,370.8,26.4,369.8,26.4z M369.8,24.7c0.6,0,1.1-0.2,1.6-0.5c0.4-0.3,0.7-0.8,0.9-1.3c0.2-0.6,0.3-1.2,0.3-1.8
						c0-0.7-0.1-1.3-0.3-1.8c-0.2-0.6-0.5-1-0.9-1.3c-0.4-0.3-0.9-0.5-1.6-0.5c-0.6,0-1.2,0.2-1.6,0.5s-0.7,0.8-0.9,1.3
						c-0.2,0.6-0.3,1.2-0.3,1.8c0,0.7,0.1,1.3,0.3,1.8c0.2,0.6,0.5,1,0.9,1.3S369.2,24.7,369.8,24.7z"/>
					<path class="st3" d="M378.9,20.1v6.1h-2V15.9h1.9v1.7h0.1c0.2-0.5,0.6-1,1.1-1.3c0.5-0.3,1.2-0.5,1.9-0.5
						c0.7,0,1.3,0.1,1.9,0.4c0.5,0.3,0.9,0.7,1.2,1.3c0.3,0.6,0.4,1.3,0.4,2.1v6.6h-2v-6.3c0-0.7-0.2-1.3-0.6-1.8s-0.9-0.6-1.6-0.6
						c-0.5,0-0.9,0.1-1.2,0.3c-0.4,0.2-0.6,0.5-0.9,0.9C379,19.1,378.9,19.5,378.9,20.1z"/>
					<path class="st3" d="M393,15.9v1.6h-5.6v-1.6H393z M388.9,13.4h2v9.8c0,0.4,0.1,0.7,0.2,0.9c0.1,0.2,0.3,0.3,0.5,0.4
						c0.2,0.1,0.4,0.1,0.6,0.1c0.2,0,0.3,0,0.4,0c0.1,0,0.2,0,0.3-0.1l0.4,1.7c-0.1,0-0.3,0.1-0.5,0.1c-0.2,0-0.5,0.1-0.8,0.1
						c-0.5,0-1-0.1-1.5-0.3c-0.5-0.2-0.8-0.5-1.1-0.9c-0.3-0.4-0.4-0.9-0.4-1.6V13.4z"/>
					<path class="st3" d="M397.2,20.1v6.1h-2V12.4h2v5.1h0.1c0.2-0.6,0.6-1,1.1-1.3s1.1-0.5,2-0.5c0.7,0,1.3,0.1,1.9,0.4
						c0.5,0.3,0.9,0.7,1.2,1.3c0.3,0.6,0.4,1.3,0.4,2.2v6.6h-2v-6.3c0-0.8-0.2-1.3-0.6-1.8c-0.4-0.4-0.9-0.6-1.6-0.6
						c-0.5,0-0.9,0.1-1.3,0.3c-0.4,0.2-0.7,0.5-0.9,0.9S397.2,19.5,397.2,20.1z"/>
				</g>
			</g>
		</g>
	</g>
	<g>
		<circle class="st2" cx="472.6" cy="19.6" r="15.3"/>
		<g>
			<g>
				<path class="st4" d="M463.8,27.3c0-4.6,0-9.3,0-13.9c0-0.1,0-0.1,0.1-0.2c0.1-0.5,0.5-0.8,1-0.8c0.6,0,1.3,0,1.9,0c0,0,0,0,0,0
					c0,0.1,0,0.1,0,0.2c0,0.5,0,1.1,0,1.6c0,0.2,0,0.4,0.1,0.6c0.2,0.5,0.7,0.7,1.3,0.7c0.8,0,1.3-0.5,1.3-1.3c0-0.5,0-1.1,0-1.6
					c0-0.1,0-0.1,0-0.2c2,0,4.1,0,6.1,0c0,0,0,0,0,0c0,0.6,0,1.2,0,1.8c0,0.6,0.2,1,0.7,1.2c0.3,0.2,0.7,0.1,1.1,0.1
					c0.6-0.1,0.9-0.5,0.9-1.1c0-0.6,0-1.2,0-1.8c0-0.1,0-0.1,0-0.2c0.1,0,0.1,0,0.1,0c0.5,0,1.1,0,1.6,0c0.7,0,1.2,0.5,1.2,1.2
					c0,4.5,0,9,0,13.5c0,0.2,0,0.4-0.1,0.5c-0.2,0.5-0.6,0.6-1.1,0.6c-1.3,0-2.7,0-4,0c-3.7,0-7.3,0-11,0c-0.2,0-0.5,0-0.7-0.1
					C464.1,28,463.9,27.7,463.8,27.3z M464.9,27.1c5.1,0,10.2,0,15.2,0c0-3.4,0-6.8,0-10.2c-5.1,0-10.2,0-15.2,0
					C464.9,20.3,464.9,23.7,464.9,27.1z"/>
				<path class="st4" d="M467.4,13.1c0-0.4,0-0.8,0-1.2c0-0.5,0.3-0.7,0.8-0.8c0,0,0.1,0,0.1,0c0.5,0,0.8,0.3,0.8,0.8
					c0,0.8,0,1.7,0,2.5c0,0.5-0.3,0.7-0.8,0.8c-0.1,0-0.2,0-0.3,0c-0.4-0.1-0.6-0.3-0.6-0.7C467.4,13.9,467.4,13.5,467.4,13.1z"/>
				<path class="st4" d="M477.9,13c0,0.4,0,0.8,0,1.3c0,0.4-0.3,0.7-0.7,0.7c-0.1,0-0.3,0-0.4,0c-0.3-0.1-0.4-0.3-0.5-0.5
					c0-0.1,0-0.1,0-0.2c0-0.8,0-1.6,0-2.4c0-0.3,0.1-0.6,0.4-0.7c0.3-0.2,0.6-0.2,0.9,0c0.2,0.1,0.3,0.3,0.3,0.6
					C477.9,12.2,477.9,12.6,477.9,13C477.9,13,477.9,13,477.9,13z"/>
				<path class="st4" d="M467.6,26c-0.3,0-0.6,0-0.9,0c-0.2,0-0.2-0.1-0.2-0.2c0-0.5,0-1.1,0-1.6c0-0.2,0.1-0.2,0.2-0.2
					c0.6,0,1.2,0,1.9,0c0.2,0,0.2,0.1,0.2,0.2c0,0.5,0,1,0,1.6c0,0.2,0,0.2-0.2,0.2C468.2,26,467.9,26,467.6,26z"/>
				<path class="st4" d="M470.9,26c-0.3,0-0.6,0-0.9,0c-0.1,0-0.2-0.1-0.2-0.2c0-0.5,0-1.1,0-1.6c0-0.2,0.1-0.2,0.2-0.2
					c0.6,0,1.3,0,1.9,0c0.2,0,0.2,0.1,0.2,0.2c0,0.5,0,1.1,0,1.6c0,0.2-0.1,0.2-0.2,0.2C471.5,26,471.2,26,470.9,26z"/>
				<path class="st4" d="M474.1,26c-0.3,0-0.6,0-0.9,0c-0.2,0-0.2-0.1-0.2-0.2c0-0.5,0-1.1,0-1.6c0-0.2,0.1-0.2,0.2-0.2
					c0.6,0,1.2,0,1.9,0c0.2,0,0.2,0.1,0.2,0.2c0,0.5,0,1,0,1.6c0,0.2,0,0.2-0.2,0.2C474.7,26,474.4,26,474.1,26z"/>
				<path class="st4" d="M477.4,26c-0.3,0-0.6,0-0.9,0c-0.2,0-0.2,0-0.2-0.2c0-0.5,0-1,0-1.6c0-0.2,0-0.2,0.2-0.2c0.6,0,1.2,0,1.8,0
					c0.2,0,0.2,0,0.2,0.2c0,0.5,0,1,0,1.6c0,0.2,0,0.2-0.2,0.2C478,26,477.7,26,477.4,26z"/>
				<path class="st4" d="M474.1,20.3c-0.3,0-0.6,0-0.9,0c-0.2,0-0.2-0.1-0.2-0.2c0-0.5,0-1.1,0-1.6c0-0.2,0.1-0.2,0.2-0.2
					c0.6,0,1.3,0,1.9,0c0.1,0,0.2,0.1,0.2,0.2c0,0.5,0,1.1,0,1.6c0,0.1-0.1,0.2-0.2,0.2C474.8,20.3,474.4,20.3,474.1,20.3z"/>
				<path class="st4" d="M477.4,20.3c-0.3,0-0.6,0-0.9,0c-0.1,0-0.2-0.1-0.2-0.2c0-0.5,0-1.1,0-1.6c0-0.1,0.1-0.2,0.2-0.2
					c0.6,0,1.3,0,1.9,0c0.1,0,0.2,0.1,0.2,0.2c0,0.5,0,1.1,0,1.6c0,0.2-0.1,0.2-0.2,0.2C478,20.3,477.7,20.3,477.4,20.3z"/>
				<path class="st4" d="M467.6,23.2c-0.3,0-0.6,0-0.9,0c-0.2,0-0.2-0.1-0.2-0.2c0-0.5,0-1.1,0-1.6c0-0.2,0.1-0.2,0.2-0.2
					c0.6,0,1.2,0,1.9,0c0.2,0,0.2,0.1,0.2,0.2c0,0.5,0,1.1,0,1.6c0,0.2-0.1,0.2-0.2,0.2C468.2,23.2,467.9,23.2,467.6,23.2z"/>
				<path class="st4" d="M470.8,23.2c-0.3,0-0.6,0-0.9,0c-0.2,0-0.2-0.1-0.2-0.2c0-0.5,0-1.1,0-1.6c0-0.2,0.1-0.2,0.2-0.2
					c0.6,0,1.2,0,1.9,0c0.2,0,0.2,0.1,0.2,0.2c0,0.5,0,1.1,0,1.6c0,0.2-0.1,0.2-0.2,0.2C471.5,23.2,471.2,23.2,470.8,23.2z"/>
				<path class="st4" d="M474.1,23.2c-0.3,0-0.6,0-0.9,0c-0.2,0-0.2-0.1-0.2-0.2c0-0.5,0-1.1,0-1.6c0-0.2,0.1-0.2,0.2-0.2
					c0.6,0,1.3,0,1.9,0c0.1,0,0.2,0.1,0.2,0.2c0,0.5,0,1.1,0,1.6c0,0.1-0.1,0.2-0.2,0.2C474.8,23.2,474.4,23.2,474.1,23.2z"/>
				<path class="st4" d="M477.4,23.2c-0.3,0-0.6,0-0.9,0c-0.2,0-0.2-0.1-0.2-0.2c0-0.5,0-1.1,0-1.6c0-0.2,0.1-0.2,0.2-0.2
					c0.6,0,1.2,0,1.9,0c0.1,0,0.2,0.1,0.2,0.2c0,0.5,0,1.1,0,1.6c0,0.2-0.1,0.2-0.2,0.2C478,23.2,477.7,23.2,477.4,23.2z"/>
			</g>
		</g>
	</g>
</g>
</svg>
