<?xml version="1.0" encoding="utf-8"?>
<!-- Generator: Adobe Illustrator 28.1.0, SVG Export Plug-In . SVG Version: 6.00 Build 0)  -->
<svg version="1.1" id="Layer_1" xmlns="http://www.w3.org/2000/svg" xmlns:xlink="http://www.w3.org/1999/xlink" x="0px" y="0px"
	 viewBox="0 0 149 43" style="enable-background:new 0 0 149 43;" xml:space="preserve">
<style type="text/css">
	.st0{fill:#25B5B1;stroke:#D1D1D1;stroke-width:2.5042;stroke-linecap:round;stroke-linejoin:round;stroke-miterlimit:10;}
	.st1{fill:#FFFFFF;}
</style>
<g>
	<g>
		<g>
			<path class="st0" d="M127.5,36.8h-106c-8.4,0-15.3-6.9-15.3-15.3v0c0-8.4,6.9-15.3,15.3-15.3h106c8.4,0,15.3,6.9,15.3,15.3v0
				C142.8,29.9,135.9,36.8,127.5,36.8z"/>
			<g>
				<path class="st1" d="M62.9,26.7h-4.5V12.9H63c1.4,0,2.5,0.3,3.5,0.8c1,0.5,1.7,1.3,2.2,2.4c0.5,1,0.8,2.3,0.8,3.7
					c0,1.4-0.3,2.7-0.8,3.7c-0.5,1-1.3,1.8-2.3,2.4S64.3,26.7,62.9,26.7z M60.5,24.8h2.3c1,0,1.9-0.2,2.6-0.6s1.2-1,1.6-1.7
					c0.3-0.8,0.5-1.7,0.5-2.8c0-1.1-0.2-2-0.5-2.8c-0.3-0.8-0.9-1.3-1.5-1.7c-0.7-0.4-1.5-0.6-2.5-0.6h-2.4V24.8z"/>
				<path class="st1" d="M74.9,26.9c-0.7,0-1.2-0.1-1.8-0.4c-0.5-0.2-0.9-0.6-1.3-1.1s-0.5-1-0.5-1.7c0-0.6,0.1-1.1,0.3-1.4
					c0.2-0.4,0.5-0.7,0.9-0.9c0.4-0.2,0.8-0.4,1.3-0.5c0.5-0.1,1-0.2,1.4-0.3c0.6-0.1,1.1-0.1,1.5-0.2c0.4,0,0.7-0.1,0.8-0.2
					S78,20,78,19.7v0c0-0.6-0.2-1-0.5-1.4c-0.3-0.3-0.8-0.5-1.5-0.5c-0.7,0-1.2,0.1-1.6,0.4s-0.7,0.6-0.8,1l-1.9-0.4
					c0.2-0.6,0.6-1.1,1-1.5c0.4-0.4,0.9-0.7,1.5-0.8s1.2-0.3,1.8-0.3c0.4,0,0.9,0,1.3,0.1c0.5,0.1,0.9,0.3,1.3,0.5
					c0.4,0.3,0.7,0.6,1,1.1c0.3,0.5,0.4,1.1,0.4,1.8v6.9h-2v-1.4H78c-0.1,0.3-0.3,0.5-0.6,0.8c-0.3,0.3-0.6,0.5-1,0.6
					C76,26.8,75.5,26.9,74.9,26.9z M75.4,25.3c0.6,0,1-0.1,1.4-0.3c0.4-0.2,0.7-0.5,0.9-0.9c0.2-0.4,0.3-0.7,0.3-1.1v-1.3
					c-0.1,0.1-0.2,0.1-0.4,0.2s-0.4,0.1-0.7,0.2c-0.3,0-0.5,0.1-0.8,0.1s-0.5,0.1-0.6,0.1c-0.4,0-0.7,0.1-1.1,0.2
					c-0.3,0.1-0.6,0.3-0.8,0.5c-0.2,0.2-0.3,0.5-0.3,0.9c0,0.5,0.2,0.9,0.6,1.1C74.3,25.1,74.8,25.3,75.4,25.3z"/>
				<path class="st1" d="M84,30.5c-0.3,0-0.6,0-0.8-0.1c-0.2,0-0.4-0.1-0.6-0.2l0.5-1.6c0.4,0.1,0.7,0.1,1,0.1
					c0.3,0,0.5-0.1,0.8-0.3c0.2-0.2,0.4-0.5,0.6-1l0.2-0.7l-3.8-10.5h2.2l2.6,8h0.1l2.6-8h2.2L87.3,28c-0.2,0.5-0.4,1-0.8,1.4
					c-0.3,0.4-0.7,0.7-1.1,0.8S84.5,30.5,84,30.5z"/>
			</g>
		</g>
	</g>
</g>
</svg>
