<?xml version="1.0" encoding="utf-8"?>
<!-- Generator: Adobe Illustrator 28.1.0, SVG Export Plug-In . SVG Version: 6.00 Build 0)  -->
<svg version="1.1" id="Layer_1" xmlns="http://www.w3.org/2000/svg" xmlns:xlink="http://www.w3.org/1999/xlink" x="0px" y="0px"
	 viewBox="0 0 1161 276" style="enable-background:new 0 0 1161 276;" xml:space="preserve">
<style type="text/css">
	.st0{fill:#00C800;}
	.st1{fill:#FFE12D;}
	.st2{fill:#FF7E00;}
	.st3{fill:#FA0A00;}
</style>
<g>
	<g>
		<circle class="st0" cx="21.3" cy="258.5" r="11.6"/>
		<circle class="st0" cx="21.3" cy="235.3" r="11.6"/>
		<circle class="st0" cx="21.3" cy="237.2" r="11.6"/>
		<circle class="st1" cx="21.3" cy="183.2" r="11.6"/>
		<circle class="st1" cx="21.3" cy="168.2" r="11.6"/>
		<circle class="st1" cx="21.3" cy="212" r="11.6"/>
		<circle class="st0" cx="21.3" cy="223.6" r="11.6"/>
		<circle class="st2" cx="21.3" cy="146.2" r="11.6"/>
		<circle class="st2" cx="21.3" cy="138" r="11.6"/>
		<circle class="st2" cx="21.3" cy="111" r="11.6"/>
		<circle class="st3" cx="21.3" cy="79.2" r="11.6"/>
	</g>
	<g>
		<circle class="st0" cx="392.6" cy="258.5" r="11.6"/>
		<circle class="st0" cx="392.6" cy="235.3" r="11.6"/>
		<circle class="st0" cx="392.6" cy="235.2" r="11.6"/>
		<circle class="st1" cx="392.6" cy="196.5" r="11.6"/>
		<circle class="st0" cx="392.6" cy="225.7" r="11.6"/>
		<circle class="st1" cx="392.6" cy="169.4" r="11.6"/>
	</g>
	<g>
		<circle class="st0" cx="207" cy="258.5" r="11.6"/>
		<circle class="st0" cx="207" cy="247.6" r="11.6"/>
		<circle class="st1" cx="207" cy="216.1" r="11.6"/>
		<circle class="st1" cx="207" cy="185.1" r="11.6"/>
		<circle class="st1" cx="207" cy="196.7" r="11.6"/>
		<circle class="st1" cx="207" cy="215" r="11.6"/>
		<circle class="st0" cx="207" cy="227.7" r="11.6"/>
		<circle class="st2" cx="207" cy="139.2" r="11.6"/>
		<circle class="st2" cx="207" cy="111.6" r="11.6"/>
		<circle class="st3" cx="207" cy="56.6" r="11.6"/>
		<circle class="st1" cx="207" cy="168.8" r="11.6"/>
	</g>
	<g>
		<circle class="st0" cx="485.4" cy="258.5" r="11.6"/>
		<circle class="st0" cx="485.4" cy="247.6" r="11.6"/>
		<circle class="st1" cx="485.4" cy="216.1" r="11.6"/>
		<circle class="st0" cx="485.4" cy="231.7" r="11.6"/>
		<circle class="st1" cx="485.4" cy="170" r="11.6"/>
		<circle class="st1" cx="485.4" cy="196.7" r="11.6"/>
		<circle class="st2" cx="485.4" cy="135.4" r="11.6"/>
		<circle class="st2" cx="485.4" cy="147" r="11.6"/>
		<circle class="st3" cx="485.4" cy="92.5" r="11.6"/>
	</g>
	<g>
		<circle class="st0" cx="114.1" cy="258.5" r="11.6"/>
		<circle class="st0" cx="114.1" cy="243.5" r="11.6"/>
		<circle class="st1" cx="114.1" cy="172.2" r="11.6"/>
		<circle class="st1" cx="114.1" cy="209.8" r="11.6"/>
		<circle class="st0" cx="114.1" cy="227" r="11.6"/>
	</g>
	<g>
		<circle class="st0" cx="578.2" cy="258.5" r="11.6"/>
		<circle class="st0" cx="578.2" cy="235.3" r="11.6"/>
		<circle class="st0" cx="578.2" cy="235.2" r="11.6"/>
		<circle class="st0" cx="578.2" cy="229.2" r="11.6"/>
		<circle class="st1" cx="578.2" cy="186.1" r="11.6"/>
		<circle class="st1" cx="578.2" cy="197.7" r="11.6"/>
		<circle class="st1" cx="578.2" cy="168.4" r="11.6"/>
		<circle class="st2" cx="578.2" cy="122.4" r="11.6"/>
	</g>
	<g>
		<circle class="st0" cx="299.8" cy="258.5" r="11.6"/>
		<circle class="st0" cx="299.8" cy="235.3" r="11.6"/>
		<circle class="st0" cx="299.8" cy="235.2" r="11.6"/>
		<circle class="st1" cx="299.8" cy="185.1" r="11.6"/>
		<circle class="st1" cx="299.8" cy="196.7" r="11.6"/>
		<circle class="st0" cx="299.8" cy="229.1" r="11.6"/>
		<circle class="st1" cx="299.8" cy="169.4" r="11.6"/>
	</g>
	<g>
		<circle class="st0" cx="856.6" cy="258.5" r="11.6"/>
		<circle class="st0" cx="856.6" cy="235.3" r="11.6"/>
		<circle class="st0" cx="856.6" cy="235.2" r="11.6"/>
		<circle class="st0" cx="856.6" cy="228.2" r="11.6"/>
		<circle class="st1" cx="856.6" cy="185.1" r="11.6"/>
		<circle class="st1" cx="856.6" cy="169.4" r="11.6"/>
		<circle class="st1" cx="856.6" cy="207.7" r="11.6"/>
	</g>
	<g>
		<circle class="st0" cx="763.8" cy="258.5" r="11.6"/>
		<circle class="st0" cx="763.8" cy="247.6" r="11.6"/>
		<circle class="st1" cx="763.8" cy="216.1" r="11.6"/>
		<circle class="st0" cx="763.8" cy="234.7" r="11.6"/>
		<circle class="st1" cx="763.8" cy="185.1" r="11.6"/>
		<circle class="st2" cx="763.8" cy="150.1" r="11.6"/>
		<circle class="st1" cx="763.8" cy="169" r="11.6"/>
		<circle class="st1" cx="763.8" cy="196.7" r="11.6"/>
		<circle class="st2" cx="763.8" cy="133.7" r="11.6"/>
	</g>
	<g>
		<circle class="st0" cx="671" cy="258.5" r="11.6"/>
		<circle class="st0" cx="671" cy="243.5" r="11.6"/>
		<circle class="st0" cx="671" cy="235.2" r="11.6"/>
		<circle class="st1" cx="671" cy="185.1" r="11.6"/>
		<circle class="st1" cx="671" cy="170" r="11.6"/>
		<circle class="st1" cx="671" cy="216.1" r="11.6"/>
		<circle class="st1" cx="671" cy="208" r="11.6"/>
		<circle class="st2" cx="671" cy="140.2" r="11.6"/>
		<circle class="st2" cx="671" cy="128.6" r="11.6"/>
	</g>
	<g>
		<circle class="st0" cx="949.4" cy="258.5" r="11.6"/>
		<circle class="st0" cx="949.4" cy="235.3" r="11.6"/>
		<circle class="st1" cx="949.4" cy="221.9" r="11.6"/>
		<circle class="st0" cx="949.4" cy="236.2" r="11.6"/>
		<circle class="st0" cx="949.4" cy="231.2" r="11.6"/>
		<circle class="st1" cx="949.4" cy="185.1" r="11.6"/>
		<circle class="st1" cx="949.4" cy="169.4" r="11.6"/>
		<circle class="st2" cx="949.4" cy="146.2" r="11.6"/>
		<circle class="st2" cx="949.4" cy="124" r="11.6"/>
		<circle class="st1" cx="949.4" cy="196.7" r="11.6"/>
		<circle class="st1" cx="949.4" cy="201.1" r="11.6"/>
		<circle class="st3" cx="949.4" cy="87.3" r="11.6"/>
	</g>
	<g>
		<circle class="st0" cx="1135" cy="258.5" r="11.6"/>
		<circle class="st0" cx="1135" cy="247.6" r="11.6"/>
		<circle class="st1" cx="1135" cy="216.1" r="11.6"/>
		<circle class="st1" cx="1135" cy="210.3" r="11.6"/>
		<circle class="st0" cx="1135" cy="230.7" r="11.6"/>
		<circle class="st1" cx="1135" cy="191.7" r="11.6"/>
		<circle class="st2" cx="1135" cy="139.2" r="11.6"/>
		<circle class="st2" cx="1135" cy="119.3" r="11.6"/>
		<circle class="st2" cx="1135" cy="149.2" r="11.6"/>
		<circle class="st1" cx="1135" cy="169.5" r="11.6"/>
		<circle class="st3" cx="1135" cy="34.3" r="11.6"/>
	</g>
	<g>
		<circle class="st0" cx="1042.2" cy="258.5" r="11.6"/>
		<circle class="st0" cx="1042.2" cy="243.5" r="11.6"/>
		<circle class="st1" cx="1042.2" cy="217.7" r="11.6"/>
		<circle class="st0" cx="1042.2" cy="230.2" r="11.6"/>
		<circle class="st1" cx="1042.2" cy="187.1" r="11.6"/>
		<circle class="st2" cx="1042.2" cy="139.4" r="11.6"/>
		<circle class="st2" cx="1042.2" cy="126.1" r="11.6"/>
		<circle class="st1" cx="1042.2" cy="196.7" r="11.6"/>
		<circle class="st1" cx="1042.2" cy="169.2" r="11.6"/>
		<circle class="st3" cx="1042.2" cy="98.9" r="11.6"/>
		<circle class="st3" cx="1042.2" cy="80.6" r="11.6"/>
	</g>
</g>
</svg>
