<?xml version="1.0" encoding="utf-8"?>
<!-- Generator: Adobe Illustrator 28.1.0, SVG Export Plug-In . SVG Version: 6.00 Build 0)  -->
<svg version="1.1" id="Layer_1" xmlns="http://www.w3.org/2000/svg" xmlns:xlink="http://www.w3.org/1999/xlink" x="0px" y="0px"
	 viewBox="0 0 1326 663" style="enable-background:new 0 0 1326 663;" xml:space="preserve">
<style type="text/css">
	.st0{fill:none;stroke:#4F4F4F;stroke-width:0.9306;stroke-miterlimit:10;}
	.st1{fill:#4F4F4F;}
	.st2{fill:none;stroke:#888888;stroke-width:0.4;stroke-miterlimit:10;}
	.st3{fill:none;stroke:#888888;stroke-width:0.4;stroke-miterlimit:10;stroke-dasharray:1.2006,1.2006;}
</style>
<g>
	<g>
		<g>
			<line class="st0" x1="68.5" y1="18.5" x2="68.5" y2="625.8"/>
			<g>
				<g>
					<g>
						<g>
							<path class="st1" d="M28.7,631.2c-0.8,0-1.5-0.2-2-0.6c-0.6-0.4-1-1-1.3-1.8c-0.3-0.8-0.4-1.7-0.4-2.8c0-1.1,0.1-2,0.4-2.8
								c0.3-0.8,0.7-1.4,1.3-1.8c0.6-0.4,1.2-0.6,2-0.6c0.8,0,1.4,0.2,2,0.6c0.6,0.4,1,1,1.3,1.8s0.4,1.7,0.4,2.8
								c0,1.1-0.1,2.1-0.4,2.8c-0.3,0.8-0.7,1.4-1.3,1.8C30.2,631,29.5,631.2,28.7,631.2z M28.7,629.9c0.7,0,1.2-0.3,1.6-1
								s0.6-1.6,0.6-2.9c0-0.8-0.1-1.6-0.3-2.1c-0.2-0.6-0.4-1-0.8-1.3c-0.3-0.3-0.7-0.5-1.2-0.5c-0.7,0-1.2,0.3-1.6,1
								c-0.4,0.7-0.6,1.6-0.6,2.9c0,0.8,0.1,1.6,0.3,2.1s0.4,1,0.8,1.3S28.3,629.9,28.7,629.9z"/>
						</g>
					</g>
				</g>
				<g>
					<g>
						<path class="st1" d="M147.4,642.6v10.2h-1.5v-8.6h-0.1l-2.4,1.6v-1.5l2.5-1.7H147.4z"/>
						<path class="st1" d="M150.2,652.8v-1.1l3.4-3.6c0.4-0.4,0.7-0.7,0.9-1c0.2-0.3,0.4-0.6,0.5-0.8c0.1-0.3,0.2-0.5,0.2-0.8
							c0-0.3-0.1-0.6-0.2-0.9s-0.4-0.4-0.6-0.6c-0.3-0.1-0.6-0.2-0.9-0.2c-0.4,0-0.7,0.1-1,0.2c-0.3,0.1-0.5,0.4-0.6,0.6
							c-0.1,0.3-0.2,0.6-0.2,1h-1.5c0-0.6,0.1-1.2,0.4-1.6c0.3-0.5,0.7-0.8,1.2-1.1s1.1-0.4,1.7-0.4c0.6,0,1.2,0.1,1.7,0.4
							c0.5,0.3,0.9,0.6,1.1,1c0.3,0.4,0.4,0.9,0.4,1.5c0,0.4-0.1,0.7-0.2,1.1c-0.1,0.4-0.4,0.8-0.7,1.2c-0.3,0.4-0.8,1-1.4,1.6
							l-2,2.1v0.1h4.6v1.3H150.2z"/>
						<path class="st1" d="M159.7,652.8h-1.6l3.7-10.2h1.8l3.7,10.2h-1.6l-2.9-8.3h-0.1L159.7,652.8z M160,648.8h5.3v1.3H160V648.8z
							"/>
						<path class="st1" d="M168.7,642.6h1.9l3.2,7.9h0.1l3.2-7.9h1.9v10.2h-1.5v-7.3h-0.1l-3,7.3h-1.2l-3-7.3h-0.1v7.4h-1.5V642.6z"
							/>
					</g>
				</g>
				<g>
					<g>
						<path class="st1" d="M244.5,642.6v10.2H243v-8.6h-0.1l-2.4,1.6v-1.5l2.5-1.7H244.5z"/>
						<path class="st1" d="M248.3,652.8h-1.6l3.7-10.2h1.8l3.7,10.2h-1.6l-2.9-8.3h-0.1L248.3,652.8z M248.5,648.8h5.3v1.3h-5.3
							V648.8z"/>
						<path class="st1" d="M257.2,642.6h1.9l3.2,7.9h0.1l3.2-7.9h1.9v10.2H266v-7.3h-0.1l-3,7.3h-1.2l-3-7.3h-0.1v7.4h-1.5V642.6z"
							/>
					</g>
				</g>
				<g>
					<g>
						<path class="st1" d="M332.5,652.8v-1.1l3.4-3.6c0.4-0.4,0.7-0.7,0.9-1c0.2-0.3,0.4-0.6,0.5-0.8c0.1-0.3,0.2-0.5,0.2-0.8
							c0-0.3-0.1-0.6-0.2-0.9s-0.4-0.4-0.6-0.6c-0.3-0.1-0.6-0.2-0.9-0.2c-0.4,0-0.7,0.1-1,0.2c-0.3,0.1-0.5,0.4-0.6,0.6
							c-0.1,0.3-0.2,0.6-0.2,1h-1.5c0-0.6,0.1-1.2,0.4-1.6c0.3-0.5,0.7-0.8,1.2-1.1s1.1-0.4,1.7-0.4c0.6,0,1.2,0.1,1.7,0.4
							c0.5,0.3,0.9,0.6,1.1,1c0.3,0.4,0.4,0.9,0.4,1.5c0,0.4-0.1,0.7-0.2,1.1c-0.1,0.4-0.4,0.8-0.7,1.2c-0.3,0.4-0.8,1-1.4,1.6
							l-2,2.1v0.1h4.6v1.3H332.5z"/>
						<path class="st1" d="M342.1,652.8h-1.6l3.7-10.2h1.8l3.7,10.2h-1.6l-2.9-8.3h-0.1L342.1,652.8z M342.3,648.8h5.3v1.3h-5.3
							V648.8z"/>
						<path class="st1" d="M351,642.6h1.9l3.2,7.9h0.1l3.2-7.9h1.9v10.2h-1.5v-7.3h-0.1l-3,7.3h-1.2l-3-7.3h-0.1v7.4H351V642.6z"/>
					</g>
				</g>
				<g>
					<g>
						<path class="st1" d="M428.6,652.9c-0.7,0-1.3-0.1-1.8-0.4s-1-0.6-1.3-1c-0.3-0.4-0.5-0.9-0.5-1.5h1.6c0,0.3,0.1,0.6,0.3,0.8
							c0.2,0.2,0.4,0.4,0.7,0.5s0.6,0.2,1,0.2c0.4,0,0.8-0.1,1.1-0.2s0.6-0.3,0.7-0.6c0.2-0.2,0.3-0.5,0.3-0.9
							c0-0.3-0.1-0.6-0.3-0.9c-0.2-0.3-0.4-0.5-0.8-0.6c-0.3-0.1-0.7-0.2-1.2-0.2h-0.9V647h0.9c0.4,0,0.7-0.1,1-0.2
							c0.3-0.1,0.5-0.3,0.7-0.6c0.2-0.2,0.2-0.5,0.2-0.9c0-0.3-0.1-0.6-0.2-0.8c-0.1-0.2-0.3-0.4-0.6-0.5c-0.3-0.1-0.6-0.2-0.9-0.2
							c-0.3,0-0.6,0.1-0.9,0.2c-0.3,0.1-0.5,0.3-0.7,0.5c-0.2,0.2-0.3,0.5-0.3,0.8h-1.5c0-0.5,0.2-1,0.5-1.4c0.3-0.4,0.7-0.7,1.2-1
							s1.1-0.4,1.7-0.4c0.7,0,1.2,0.1,1.7,0.4c0.5,0.3,0.8,0.6,1.1,1s0.4,0.9,0.4,1.4c0,0.6-0.2,1.1-0.5,1.4
							c-0.3,0.4-0.7,0.7-1.3,0.8v0.1c0.7,0.1,1.2,0.4,1.6,0.8c0.4,0.4,0.6,1,0.6,1.6c0,0.6-0.2,1.1-0.5,1.5c-0.3,0.4-0.7,0.8-1.3,1
							S429.3,652.9,428.6,652.9z"/>
						<path class="st1" d="M435.1,652.8h-1.6l3.7-10.2h1.8l3.7,10.2h-1.6l-2.9-8.3h-0.1L435.1,652.8z M435.3,648.8h5.3v1.3h-5.3
							V648.8z"/>
						<path class="st1" d="M444,642.6h1.9l3.2,7.9h0.1l3.2-7.9h1.9v10.2h-1.5v-7.3h-0.1l-3,7.3h-1.2l-3-7.3h-0.1v7.4H444V642.6z"/>
					</g>
				</g>
				<g>
					<g>
						<path class="st1" d="M517.6,650.8v-1.2l4.4-6.9h1v1.8h-0.6l-3.1,5v0.1h6v1.3H517.6z M522.4,652.8v-2.4l0-0.6v-7.2h1.5v10.2
							H522.4z"/>
						<path class="st1" d="M527.9,652.8h-1.6l3.7-10.2h1.8l3.7,10.2h-1.6l-2.9-8.3h-0.1L527.9,652.8z M528.2,648.8h5.3v1.3h-5.3
							V648.8z"/>
						<path class="st1" d="M536.9,642.6h1.9l3.2,7.9h0.1l3.2-7.9h1.9v10.2h-1.5v-7.3h-0.1l-3,7.3h-1.2l-3-7.3h-0.1v7.4h-1.5V642.6z"
							/>
					</g>
				</g>
				<g>
					<g>
						<path class="st1" d="M614.2,652.9c-0.6,0-1.2-0.1-1.7-0.4s-0.9-0.6-1.2-1c-0.3-0.4-0.5-0.9-0.5-1.4h1.5c0,0.4,0.2,0.8,0.6,1.1
							c0.4,0.3,0.8,0.4,1.3,0.4c0.4,0,0.7-0.1,1-0.3c0.3-0.2,0.5-0.4,0.7-0.7s0.3-0.7,0.3-1.1c0-0.4-0.1-0.8-0.3-1.1
							c-0.2-0.3-0.4-0.6-0.7-0.8c-0.3-0.2-0.7-0.3-1.1-0.3c-0.3,0-0.6,0.1-0.9,0.2s-0.6,0.2-0.8,0.4l-1.4-0.2l0.6-5.1h5.6v1.3h-4.3
							l-0.3,2.8h0.1c0.2-0.2,0.5-0.4,0.8-0.5c0.3-0.1,0.7-0.2,1.1-0.2c0.6,0,1.2,0.1,1.7,0.4c0.5,0.3,0.9,0.7,1.1,1.2
							c0.3,0.5,0.4,1.1,0.4,1.7c0,0.7-0.1,1.2-0.4,1.8c-0.3,0.5-0.7,0.9-1.2,1.2C615.5,652.8,614.9,652.9,614.2,652.9z"/>
						<path class="st1" d="M620.5,652.8h-1.6l3.7-10.2h1.8l3.7,10.2h-1.6l-2.9-8.3h-0.1L620.5,652.8z M620.8,648.8h5.3v1.3h-5.3
							V648.8z"/>
						<path class="st1" d="M629.4,642.6h1.9l3.2,7.9h0.1l3.2-7.9h1.9v10.2h-1.5v-7.3h-0.1l-3,7.3H634l-3-7.3h-0.1v7.4h-1.5V642.6z"
							/>
					</g>
				</g>
				<g>
					<g>
						<path class="st1" d="M707.1,652.9c-0.5,0-0.9-0.1-1.3-0.2c-0.4-0.2-0.8-0.4-1.2-0.8c-0.4-0.4-0.6-0.9-0.9-1.5
							c-0.2-0.6-0.3-1.4-0.3-2.3c0-0.9,0.1-1.7,0.3-2.4c0.2-0.7,0.4-1.3,0.8-1.7c0.3-0.5,0.7-0.8,1.2-1.1c0.5-0.2,1-0.4,1.6-0.4
							c0.6,0,1.1,0.1,1.6,0.4c0.5,0.2,0.8,0.6,1.1,1c0.3,0.4,0.5,0.9,0.6,1.4H709c-0.1-0.4-0.3-0.8-0.6-1c-0.3-0.3-0.7-0.4-1.2-0.4
							c-0.7,0-1.3,0.3-1.7,1s-0.6,1.5-0.6,2.7h0.1c0.2-0.3,0.4-0.5,0.6-0.7c0.3-0.2,0.5-0.4,0.9-0.5c0.3-0.1,0.7-0.2,1-0.2
							c0.6,0,1.1,0.1,1.6,0.4c0.5,0.3,0.9,0.7,1.1,1.2s0.4,1.1,0.4,1.7c0,0.6-0.1,1.2-0.4,1.8c-0.3,0.5-0.7,0.9-1.2,1.2
							C708.4,652.8,707.8,652.9,707.1,652.9z M707.1,651.6c0.4,0,0.7-0.1,1-0.3s0.5-0.4,0.7-0.8c0.2-0.3,0.3-0.7,0.3-1.1
							c0-0.4-0.1-0.7-0.3-1.1c-0.2-0.3-0.4-0.6-0.7-0.8c-0.3-0.2-0.6-0.3-1-0.3c-0.3,0-0.6,0.1-0.8,0.2c-0.2,0.1-0.5,0.3-0.7,0.5
							s-0.3,0.4-0.4,0.7s-0.2,0.5-0.2,0.8c0,0.4,0.1,0.7,0.3,1.1s0.4,0.6,0.7,0.8C706.4,651.5,706.7,651.6,707.1,651.6z"/>
						<path class="st1" d="M713.4,652.8h-1.6l3.7-10.2h1.8l3.7,10.2h-1.6l-2.9-8.3h-0.1L713.4,652.8z M713.7,648.8h5.3v1.3h-5.3
							V648.8z"/>
						<path class="st1" d="M722.3,642.6h1.9l3.2,7.9h0.1l3.2-7.9h1.9v10.2h-1.5v-7.3h-0.1l-3,7.3h-1.2l-3-7.3h-0.1v7.4h-1.5V642.6z"
							/>
					</g>
				</g>
				<g>
					<g>
						<path class="st1" d="M797.1,652.8l4.4-8.8v-0.1h-5.1v-1.3h6.7v1.4l-4.4,8.8H797.1z"/>
						<path class="st1" d="M805.8,652.8h-1.6l3.7-10.2h1.8l3.7,10.2h-1.6l-2.9-8.3h-0.1L805.8,652.8z M806.1,648.8h5.3v1.3h-5.3
							V648.8z"/>
						<path class="st1" d="M814.7,642.6h1.9l3.2,7.9h0.1l3.2-7.9h1.9v10.2h-1.5v-7.3h-0.1l-3,7.3h-1.2l-3-7.3h-0.1v7.4h-1.5V642.6z"
							/>
					</g>
				</g>
				<g>
					<g>
						<path class="st1" d="M892.6,652.9c-0.7,0-1.3-0.1-1.9-0.4c-0.5-0.2-1-0.6-1.3-1c-0.3-0.4-0.5-0.9-0.5-1.5
							c0-0.4,0.1-0.8,0.3-1.2s0.4-0.7,0.7-0.9s0.7-0.4,1-0.5v-0.1c-0.5-0.1-0.9-0.4-1.2-0.8c-0.3-0.4-0.5-0.9-0.5-1.4
							c0-0.5,0.1-1,0.4-1.4s0.7-0.7,1.2-1c0.5-0.2,1-0.4,1.7-0.4c0.6,0,1.2,0.1,1.7,0.4c0.5,0.2,0.9,0.6,1.2,1
							c0.3,0.4,0.4,0.9,0.4,1.4c0,0.5-0.2,1-0.5,1.4c-0.3,0.4-0.7,0.7-1.2,0.8v0.1c0.4,0.1,0.7,0.2,1,0.5c0.3,0.2,0.5,0.5,0.7,0.9
							s0.3,0.8,0.3,1.2c0,0.5-0.2,1-0.5,1.5s-0.7,0.8-1.3,1C894,652.8,893.3,652.9,892.6,652.9z M892.6,651.7c0.4,0,0.8-0.1,1.1-0.2
							c0.3-0.1,0.5-0.3,0.7-0.6s0.3-0.5,0.3-0.9c0-0.4-0.1-0.7-0.3-0.9c-0.2-0.3-0.4-0.5-0.7-0.6s-0.7-0.2-1.1-0.2
							c-0.4,0-0.8,0.1-1.1,0.2s-0.6,0.4-0.7,0.6c-0.2,0.3-0.3,0.6-0.3,0.9c0,0.3,0.1,0.6,0.2,0.9c0.2,0.3,0.4,0.4,0.7,0.6
							S892.2,651.7,892.6,651.7z M892.6,646.9c0.3,0,0.6-0.1,0.9-0.2c0.3-0.1,0.5-0.3,0.6-0.6s0.2-0.5,0.2-0.8
							c0-0.3-0.1-0.6-0.2-0.8c-0.1-0.2-0.4-0.4-0.6-0.6c-0.3-0.1-0.6-0.2-0.9-0.2c-0.3,0-0.7,0.1-0.9,0.2c-0.3,0.1-0.5,0.3-0.6,0.6
							c-0.1,0.2-0.2,0.5-0.2,0.8c0,0.3,0.1,0.6,0.2,0.8s0.4,0.4,0.6,0.6C892,646.9,892.3,646.9,892.6,646.9z"/>
						<path class="st1" d="M899,652.8h-1.6l3.7-10.2h1.8l3.7,10.2h-1.6l-2.9-8.3h-0.1L899,652.8z M899.3,648.8h5.3v1.3h-5.3V648.8z"
							/>
						<path class="st1" d="M907.9,642.6h1.9l3.2,7.9h0.1l3.2-7.9h1.9v10.2h-1.5v-7.3h-0.1l-3,7.3h-1.2l-3-7.3h-0.1v7.4h-1.5V642.6z"
							/>
					</g>
				</g>
				<g>
					<g>
						<path class="st1" d="M985.3,642.5c0.5,0,0.9,0.1,1.3,0.2c0.4,0.2,0.8,0.4,1.2,0.8c0.4,0.4,0.6,0.9,0.9,1.5
							c0.2,0.6,0.3,1.4,0.3,2.3c0,0.9-0.1,1.7-0.3,2.4s-0.4,1.3-0.8,1.8s-0.7,0.8-1.2,1.1c-0.5,0.2-1,0.4-1.6,0.4
							c-0.6,0-1.1-0.1-1.6-0.4c-0.5-0.2-0.9-0.6-1.1-1c-0.3-0.4-0.5-0.9-0.5-1.5h1.5c0.1,0.4,0.3,0.8,0.6,1.1s0.7,0.4,1.2,0.4
							c0.7,0,1.3-0.3,1.7-1s0.6-1.6,0.6-2.7h-0.1c-0.2,0.3-0.4,0.5-0.6,0.7c-0.3,0.2-0.5,0.4-0.9,0.5c-0.3,0.1-0.7,0.2-1,0.2
							c-0.6,0-1.1-0.1-1.6-0.4c-0.5-0.3-0.9-0.7-1.1-1.2c-0.3-0.5-0.4-1.1-0.4-1.7c0-0.6,0.1-1.2,0.4-1.7c0.3-0.5,0.7-0.9,1.2-1.2
							C984,642.6,984.6,642.5,985.3,642.5z M985.3,643.8c-0.4,0-0.7,0.1-1,0.3c-0.3,0.2-0.6,0.4-0.7,0.8c-0.2,0.3-0.3,0.7-0.3,1.1
							s0.1,0.7,0.3,1.1c0.2,0.3,0.4,0.6,0.7,0.8c0.3,0.2,0.6,0.3,1,0.3c0.3,0,0.6-0.1,0.8-0.2c0.3-0.1,0.5-0.3,0.7-0.5
							s0.3-0.4,0.4-0.7c0.1-0.3,0.2-0.5,0.2-0.8c0-0.4-0.1-0.7-0.3-1s-0.4-0.6-0.7-0.8C986.1,643.9,985.7,643.8,985.3,643.8z"/>
						<path class="st1" d="M991.8,652.8h-1.6l3.7-10.2h1.8l3.7,10.2h-1.6l-2.9-8.3h-0.1L991.8,652.8z M992.1,648.8h5.3v1.3h-5.3
							V648.8z"/>
						<path class="st1" d="M1000.7,642.6h1.9l3.2,7.9h0.1l3.2-7.9h1.9v10.2h-1.5v-7.3h-0.1l-3,7.3h-1.2l-3-7.3h-0.1v7.4h-1.5V642.6z
							"/>
					</g>
				</g>
				<g>
					<g>
						<path class="st1" d="M1075.3,642.6v10.2h-1.5v-8.6h-0.1l-2.4,1.6v-1.5l2.5-1.7H1075.3z"/>
						<path class="st1" d="M1081.5,653c-0.8,0-1.5-0.2-2-0.6c-0.6-0.4-1-1-1.3-1.8s-0.4-1.7-0.4-2.8c0-1.1,0.1-2,0.4-2.8
							c0.3-0.8,0.7-1.4,1.3-1.8c0.6-0.4,1.2-0.6,2-0.6s1.4,0.2,2,0.6c0.6,0.4,1,1,1.3,1.8c0.3,0.8,0.4,1.7,0.4,2.8
							c0,1.1-0.1,2.1-0.4,2.8c-0.3,0.8-0.7,1.4-1.3,1.8C1083,652.7,1082.3,653,1081.5,653z M1081.5,651.6c0.7,0,1.2-0.3,1.6-1
							s0.6-1.6,0.6-2.9c0-0.8-0.1-1.6-0.3-2.1c-0.2-0.6-0.4-1-0.8-1.3c-0.3-0.3-0.7-0.5-1.2-0.5c-0.7,0-1.2,0.3-1.6,1
							c-0.4,0.7-0.6,1.6-0.6,2.9c0,0.8,0.1,1.6,0.3,2.1s0.4,1,0.8,1.3S1081.1,651.6,1081.5,651.6z"/>
						<path class="st1" d="M1088,652.8h-1.6l3.7-10.2h1.8l3.7,10.2h-1.6l-2.9-8.3h-0.1L1088,652.8z M1088.3,648.8h5.3v1.3h-5.3
							V648.8z"/>
						<path class="st1" d="M1096.9,642.6h1.9l3.2,7.9h0.1l3.2-7.9h1.9v10.2h-1.5v-7.3h-0.1l-3,7.3h-1.2l-3-7.3h-0.1v7.4h-1.5V642.6z
							"/>
					</g>
				</g>
				<g>
					<g>
						<path class="st1" d="M1169.3,642.6v10.2h-1.5v-8.6h-0.1l-2.4,1.6v-1.5l2.5-1.7H1169.3z"/>
						<path class="st1" d="M1175.9,642.6v10.2h-1.5v-8.6h-0.1l-2.4,1.6v-1.5l2.5-1.7H1175.9z"/>
						<path class="st1" d="M1179.6,652.8h-1.6l3.7-10.2h1.8l3.7,10.2h-1.6l-2.9-8.3h-0.1L1179.6,652.8z M1179.9,648.8h5.3v1.3h-5.3
							V648.8z"/>
						<path class="st1" d="M1188.5,642.6h1.9l3.2,7.9h0.1l3.2-7.9h1.9v10.2h-1.5v-7.3h-0.1l-3,7.3h-1.2l-3-7.3h-0.1v7.4h-1.5V642.6z
							"/>
					</g>
				</g>
				<g>
					<g>
						<path class="st1" d="M1261.5,642.6v10.2h-1.5v-8.6h-0.1l-2.4,1.6v-1.5l2.5-1.7H1261.5z"/>
						<path class="st1" d="M1264.3,652.8v-1.1l3.4-3.6c0.4-0.4,0.7-0.7,0.9-1c0.2-0.3,0.4-0.6,0.5-0.8c0.1-0.3,0.2-0.5,0.2-0.8
							c0-0.3-0.1-0.6-0.2-0.9c-0.2-0.2-0.4-0.4-0.7-0.6c-0.3-0.1-0.6-0.2-0.9-0.2c-0.4,0-0.7,0.1-1,0.2c-0.3,0.1-0.5,0.4-0.6,0.6
							c-0.1,0.3-0.2,0.6-0.2,1h-1.5c0-0.6,0.1-1.2,0.4-1.6c0.3-0.5,0.7-0.8,1.2-1.1c0.5-0.3,1.1-0.4,1.7-0.4c0.6,0,1.2,0.1,1.7,0.4
							c0.5,0.3,0.9,0.6,1.1,1c0.3,0.4,0.4,0.9,0.4,1.5c0,0.4-0.1,0.7-0.2,1.1s-0.4,0.8-0.7,1.2c-0.3,0.4-0.8,1-1.4,1.6l-2,2.1v0.1
							h4.6v1.3H1264.3z"/>
						<path class="st1" d="M1273,652.8v-10.2h3.6c0.8,0,1.4,0.1,2,0.4c0.5,0.3,0.9,0.7,1.2,1.2s0.4,1.1,0.4,1.7
							c0,0.6-0.1,1.2-0.4,1.7c-0.3,0.5-0.6,0.9-1.2,1.2c-0.5,0.3-1.2,0.4-2,0.4h-2.5v-1.3h2.3c0.5,0,0.9-0.1,1.2-0.3
							s0.5-0.4,0.7-0.7c0.1-0.3,0.2-0.6,0.2-1c0-0.4-0.1-0.7-0.2-1c-0.1-0.3-0.4-0.5-0.7-0.7c-0.3-0.2-0.7-0.3-1.2-0.3h-1.9v8.8
							H1273z"/>
						<path class="st1" d="M1281.9,642.6h1.9l3.2,7.9h0.1l3.2-7.9h1.9v10.2h-1.5v-7.3h-0.1l-3,7.3h-1.2l-3-7.3h-0.1v7.4h-1.5V642.6z
							"/>
					</g>
				</g>
				<g>
					<g>
						<g>
							<path class="st1" d="M19.9,578c-0.6,0-1.2-0.1-1.7-0.4s-0.9-0.6-1.2-1c-0.3-0.4-0.5-0.9-0.5-1.4h1.5c0,0.4,0.2,0.8,0.6,1.1
								c0.4,0.3,0.8,0.4,1.3,0.4c0.4,0,0.7-0.1,1-0.3c0.3-0.2,0.5-0.4,0.7-0.7s0.3-0.7,0.3-1.1c0-0.4-0.1-0.8-0.3-1.1
								c-0.2-0.3-0.4-0.6-0.7-0.8c-0.3-0.2-0.7-0.3-1.1-0.3c-0.3,0-0.6,0.1-0.9,0.2s-0.6,0.2-0.8,0.4l-1.4-0.2l0.6-5.1h5.6v1.3h-4.3
								l-0.3,2.8h0.1c0.2-0.2,0.5-0.4,0.8-0.5c0.3-0.1,0.7-0.2,1.1-0.2c0.6,0,1.2,0.1,1.7,0.4c0.5,0.3,0.9,0.7,1.1,1.2
								c0.3,0.5,0.4,1.1,0.4,1.7c0,0.7-0.1,1.2-0.4,1.8c-0.3,0.5-0.7,0.9-1.2,1.2C21.2,577.9,20.6,578,19.9,578z"/>
							<path class="st1" d="M28.7,578.1c-0.8,0-1.5-0.2-2-0.6c-0.6-0.4-1-1-1.3-1.8c-0.3-0.8-0.4-1.7-0.4-2.8c0-1.1,0.1-2,0.4-2.8
								c0.3-0.8,0.7-1.4,1.3-1.8c0.6-0.4,1.2-0.6,2-0.6c0.8,0,1.4,0.2,2,0.6c0.6,0.4,1,1,1.3,1.8s0.4,1.7,0.4,2.8
								c0,1.1-0.1,2.1-0.4,2.8c-0.3,0.8-0.7,1.4-1.3,1.8C30.2,577.9,29.5,578.1,28.7,578.1z M28.7,576.7c0.7,0,1.2-0.3,1.6-1
								s0.6-1.6,0.6-2.9c0-0.8-0.1-1.6-0.3-2.1c-0.2-0.6-0.4-1-0.8-1.3c-0.3-0.3-0.7-0.5-1.2-0.5c-0.7,0-1.2,0.3-1.6,1
								c-0.4,0.7-0.6,1.6-0.6,2.9c0,0.8,0.1,1.6,0.3,2.1s0.4,1,0.8,1.3S28.3,576.7,28.7,576.7z"/>
						</g>
					</g>
				</g>
				<g>
					<g>
						<path class="st1" d="M13.5,506.7v10.2h-1.5v-8.6h-0.1l-2.4,1.6v-1.5l2.5-1.7H13.5z"/>
						<path class="st1" d="M19.7,517c-0.8,0-1.5-0.2-2-0.6c-0.6-0.4-1-1-1.3-1.8c-0.3-0.8-0.4-1.7-0.4-2.8c0-1.1,0.1-2,0.4-2.8
							c0.3-0.8,0.7-1.4,1.3-1.8c0.6-0.4,1.2-0.6,2-0.6c0.8,0,1.4,0.2,2,0.6c0.6,0.4,1,1,1.3,1.8s0.4,1.7,0.4,2.8
							c0,1.1-0.1,2.1-0.4,2.8c-0.3,0.8-0.7,1.4-1.3,1.8C21.2,516.8,20.5,517,19.7,517z M19.7,515.7c0.7,0,1.2-0.3,1.6-1
							s0.6-1.6,0.6-2.9c0-0.8-0.1-1.6-0.3-2.1c-0.2-0.6-0.4-1-0.8-1.3c-0.3-0.3-0.7-0.5-1.2-0.5c-0.7,0-1.2,0.3-1.6,1
							c-0.4,0.7-0.6,1.6-0.6,2.9c0,0.8,0.1,1.6,0.3,2.1s0.4,1,0.8,1.3S19.3,515.7,19.7,515.7z"/>
						<path class="st1" d="M28.7,517c-0.8,0-1.5-0.2-2-0.6c-0.6-0.4-1-1-1.3-1.8c-0.3-0.8-0.4-1.7-0.4-2.8c0-1.1,0.1-2,0.4-2.8
							c0.3-0.8,0.7-1.4,1.3-1.8c0.6-0.4,1.2-0.6,2-0.6c0.8,0,1.4,0.2,2,0.6c0.6,0.4,1,1,1.3,1.8s0.4,1.7,0.4,2.8
							c0,1.1-0.1,2.1-0.4,2.8c-0.3,0.8-0.7,1.4-1.3,1.8C30.2,516.8,29.5,517,28.7,517z M28.7,515.7c0.7,0,1.2-0.3,1.6-1
							s0.6-1.6,0.6-2.9c0-0.8-0.1-1.6-0.3-2.1c-0.2-0.6-0.4-1-0.8-1.3c-0.3-0.3-0.7-0.5-1.2-0.5c-0.7,0-1.2,0.3-1.6,1
							c-0.4,0.7-0.6,1.6-0.6,2.9c0,0.8,0.1,1.6,0.3,2.1s0.4,1,0.8,1.3S28.3,515.7,28.7,515.7z"/>
					</g>
				</g>
				<g>
					<g>
						<path class="st1" d="M13.8,447.5v10.2h-1.5v-8.6h-0.1l-2.4,1.6v-1.5l2.5-1.7H13.8z"/>
						<path class="st1" d="M19.9,457.8c-0.6,0-1.2-0.1-1.7-0.4s-0.9-0.6-1.2-1c-0.3-0.4-0.5-0.9-0.5-1.4h1.5c0,0.4,0.2,0.8,0.6,1.1
							c0.4,0.3,0.8,0.4,1.3,0.4c0.4,0,0.7-0.1,1-0.3c0.3-0.2,0.5-0.4,0.7-0.7s0.3-0.7,0.3-1.1c0-0.4-0.1-0.8-0.3-1.1
							c-0.2-0.3-0.4-0.6-0.7-0.8c-0.3-0.2-0.7-0.3-1.1-0.3c-0.3,0-0.6,0.1-0.9,0.2s-0.6,0.2-0.8,0.4l-1.4-0.2l0.6-5.1h5.6v1.3h-4.3
							l-0.3,2.8h0.1c0.2-0.2,0.5-0.4,0.8-0.5c0.3-0.1,0.7-0.2,1.1-0.2c0.6,0,1.2,0.1,1.7,0.4c0.5,0.3,0.9,0.7,1.1,1.2
							c0.3,0.5,0.4,1.1,0.4,1.7c0,0.7-0.1,1.2-0.4,1.8c-0.3,0.5-0.7,0.9-1.2,1.2C21.2,457.7,20.6,457.8,19.9,457.8z"/>
						<path class="st1" d="M28.7,457.9c-0.8,0-1.5-0.2-2-0.6c-0.6-0.4-1-1-1.3-1.8c-0.3-0.8-0.4-1.7-0.4-2.8c0-1.1,0.1-2,0.4-2.8
							c0.3-0.8,0.7-1.4,1.3-1.8c0.6-0.4,1.2-0.6,2-0.6c0.8,0,1.4,0.2,2,0.6c0.6,0.4,1,1,1.3,1.8s0.4,1.7,0.4,2.8
							c0,1.1-0.1,2.1-0.4,2.8c-0.3,0.8-0.7,1.4-1.3,1.8C30.2,457.7,29.5,457.9,28.7,457.9z M28.7,456.5c0.7,0,1.2-0.3,1.6-1
							s0.6-1.6,0.6-2.9c0-0.8-0.1-1.6-0.3-2.1c-0.2-0.6-0.4-1-0.8-1.3c-0.3-0.3-0.7-0.5-1.2-0.5c-0.7,0-1.2,0.3-1.6,1
							c-0.4,0.7-0.6,1.6-0.6,2.9c0,0.8,0.1,1.6,0.3,2.1s0.4,1,0.8,1.3S28.3,456.5,28.7,456.5z"/>
					</g>
				</g>
				<g>
					<g>
						<path class="st1" d="M7.6,396.8v-1.1l3.4-3.6c0.4-0.4,0.7-0.7,0.9-1c0.2-0.3,0.4-0.6,0.5-0.8c0.1-0.3,0.2-0.5,0.2-0.8
							c0-0.3-0.1-0.6-0.2-0.9s-0.4-0.4-0.6-0.6c-0.3-0.1-0.6-0.2-0.9-0.2c-0.4,0-0.7,0.1-1,0.2c-0.3,0.1-0.5,0.4-0.6,0.6
							c-0.1,0.3-0.2,0.6-0.2,1H7.6c0-0.6,0.1-1.2,0.4-1.6c0.3-0.5,0.7-0.8,1.2-1.1s1.1-0.4,1.7-0.4c0.6,0,1.2,0.1,1.7,0.4
							c0.5,0.3,0.9,0.6,1.1,1c0.3,0.4,0.4,0.9,0.4,1.5c0,0.4-0.1,0.7-0.2,1.1c-0.1,0.4-0.4,0.8-0.7,1.2c-0.3,0.4-0.8,1-1.4,1.6
							l-2,2.1v0.1h4.6v1.3H7.6z"/>
						<path class="st1" d="M19.7,397c-0.8,0-1.5-0.2-2-0.6c-0.6-0.4-1-1-1.3-1.8c-0.3-0.8-0.4-1.7-0.4-2.8c0-1.1,0.1-2,0.4-2.8
							c0.3-0.8,0.7-1.4,1.3-1.8c0.6-0.4,1.2-0.6,2-0.6c0.8,0,1.4,0.2,2,0.6c0.6,0.4,1,1,1.3,1.8s0.4,1.7,0.4,2.8
							c0,1.1-0.1,2.1-0.4,2.8c-0.3,0.8-0.7,1.4-1.3,1.8C21.2,396.8,20.5,397,19.7,397z M19.7,395.6c0.7,0,1.2-0.3,1.6-1
							s0.6-1.6,0.6-2.9c0-0.8-0.1-1.6-0.3-2.1c-0.2-0.6-0.4-1-0.8-1.3c-0.3-0.3-0.7-0.5-1.2-0.5c-0.7,0-1.2,0.3-1.6,1
							c-0.4,0.7-0.6,1.6-0.6,2.9c0,0.8,0.1,1.6,0.3,2.1s0.4,1,0.8,1.3S19.3,395.6,19.7,395.6z"/>
						<path class="st1" d="M28.7,397c-0.8,0-1.5-0.2-2-0.6c-0.6-0.4-1-1-1.3-1.8c-0.3-0.8-0.4-1.7-0.4-2.8c0-1.1,0.1-2,0.4-2.8
							c0.3-0.8,0.7-1.4,1.3-1.8c0.6-0.4,1.2-0.6,2-0.6c0.8,0,1.4,0.2,2,0.6c0.6,0.4,1,1,1.3,1.8s0.4,1.7,0.4,2.8
							c0,1.1-0.1,2.1-0.4,2.8c-0.3,0.8-0.7,1.4-1.3,1.8C30.2,396.8,29.5,397,28.7,397z M28.7,395.6c0.7,0,1.2-0.3,1.6-1
							s0.6-1.6,0.6-2.9c0-0.8-0.1-1.6-0.3-2.1c-0.2-0.6-0.4-1-0.8-1.3c-0.3-0.3-0.7-0.5-1.2-0.5c-0.7,0-1.2,0.3-1.6,1
							c-0.4,0.7-0.6,1.6-0.6,2.9c0,0.8,0.1,1.6,0.3,2.1s0.4,1,0.8,1.3S28.3,395.6,28.7,395.6z"/>
					</g>
				</g>
				<g>
					<g>
						<path class="st1" d="M8,337.3v-1.1l3.4-3.6c0.4-0.4,0.7-0.7,0.9-1c0.2-0.3,0.4-0.6,0.5-0.8c0.1-0.3,0.2-0.5,0.2-0.8
							c0-0.3-0.1-0.6-0.2-0.9s-0.4-0.4-0.6-0.6c-0.3-0.1-0.6-0.2-0.9-0.2c-0.4,0-0.7,0.1-1,0.2c-0.3,0.1-0.5,0.4-0.6,0.6
							c-0.1,0.3-0.2,0.6-0.2,1H8c0-0.6,0.1-1.2,0.4-1.6c0.3-0.5,0.7-0.8,1.2-1.1s1.1-0.4,1.7-0.4c0.6,0,1.2,0.1,1.7,0.4
							c0.5,0.3,0.9,0.6,1.1,1c0.3,0.4,0.4,0.9,0.4,1.5c0,0.4-0.1,0.7-0.2,1.1c-0.1,0.4-0.4,0.8-0.7,1.2c-0.3,0.4-0.8,1-1.4,1.6
							l-2,2.1v0.1h4.6v1.3H8z"/>
						<path class="st1" d="M19.9,337.5c-0.6,0-1.2-0.1-1.7-0.4s-0.9-0.6-1.2-1c-0.3-0.4-0.5-0.9-0.5-1.4h1.5c0,0.4,0.2,0.8,0.6,1.1
							c0.4,0.3,0.8,0.4,1.3,0.4c0.4,0,0.7-0.1,1-0.3c0.3-0.2,0.5-0.4,0.7-0.7s0.3-0.7,0.3-1.1c0-0.4-0.1-0.8-0.3-1.1
							c-0.2-0.3-0.4-0.6-0.7-0.8c-0.3-0.2-0.7-0.3-1.1-0.3c-0.3,0-0.6,0.1-0.9,0.2s-0.6,0.2-0.8,0.4l-1.4-0.2l0.6-5.1h5.6v1.3h-4.3
							l-0.3,2.8h0.1c0.2-0.2,0.5-0.4,0.8-0.5c0.3-0.1,0.7-0.2,1.1-0.2c0.6,0,1.2,0.1,1.7,0.4c0.5,0.3,0.9,0.7,1.1,1.2
							c0.3,0.5,0.4,1.1,0.4,1.7c0,0.7-0.1,1.2-0.4,1.8c-0.3,0.5-0.7,0.9-1.2,1.2C21.2,337.3,20.6,337.5,19.9,337.5z"/>
						<path class="st1" d="M28.7,337.5c-0.8,0-1.5-0.2-2-0.6c-0.6-0.4-1-1-1.3-1.8c-0.3-0.8-0.4-1.7-0.4-2.8c0-1.1,0.1-2,0.4-2.8
							c0.3-0.8,0.7-1.4,1.3-1.8c0.6-0.4,1.2-0.6,2-0.6c0.8,0,1.4,0.2,2,0.6c0.6,0.4,1,1,1.3,1.8s0.4,1.7,0.4,2.8
							c0,1.1-0.1,2.1-0.4,2.8c-0.3,0.8-0.7,1.4-1.3,1.8C30.2,337.3,29.5,337.5,28.7,337.5z M28.7,336.2c0.7,0,1.2-0.3,1.6-1
							s0.6-1.6,0.6-2.9c0-0.8-0.1-1.6-0.3-2.1c-0.2-0.6-0.4-1-0.8-1.3c-0.3-0.3-0.7-0.5-1.2-0.5c-0.7,0-1.2,0.3-1.6,1
							c-0.4,0.7-0.6,1.6-0.6,2.9c0,0.8,0.1,1.6,0.3,2.1s0.4,1,0.8,1.3S28.3,336.2,28.7,336.2z"/>
					</g>
				</g>
				<g>
					<g>
						<path class="st1" d="M10.7,276.6c-0.7,0-1.3-0.1-1.8-0.4s-1-0.6-1.3-1c-0.3-0.4-0.5-0.9-0.5-1.5h1.6c0,0.3,0.1,0.6,0.3,0.8
							c0.2,0.2,0.4,0.4,0.7,0.5s0.6,0.2,1,0.2c0.4,0,0.8-0.1,1.1-0.2s0.6-0.3,0.7-0.6c0.2-0.2,0.3-0.5,0.3-0.9
							c0-0.3-0.1-0.6-0.3-0.9c-0.2-0.3-0.4-0.5-0.8-0.6c-0.3-0.1-0.7-0.2-1.2-0.2H9.7v-1.2h0.9c0.4,0,0.7-0.1,1-0.2
							c0.3-0.1,0.5-0.3,0.7-0.6c0.2-0.2,0.2-0.5,0.2-0.9c0-0.3-0.1-0.6-0.2-0.8c-0.1-0.2-0.3-0.4-0.6-0.5c-0.3-0.1-0.6-0.2-0.9-0.2
							c-0.3,0-0.6,0.1-0.9,0.2c-0.3,0.1-0.5,0.3-0.7,0.5c-0.2,0.2-0.3,0.5-0.3,0.8H7.4c0-0.5,0.2-1,0.5-1.4c0.3-0.4,0.7-0.7,1.2-1
							s1.1-0.4,1.7-0.4c0.7,0,1.2,0.1,1.7,0.4c0.5,0.3,0.8,0.6,1.1,1s0.4,0.9,0.4,1.4c0,0.6-0.2,1.1-0.5,1.4
							c-0.3,0.4-0.7,0.7-1.3,0.8v0.1c0.7,0.1,1.2,0.4,1.6,0.8c0.4,0.4,0.6,1,0.6,1.6c0,0.6-0.2,1.1-0.5,1.5c-0.3,0.4-0.7,0.8-1.3,1
							S11.4,276.6,10.7,276.6z"/>
						<path class="st1" d="M19.7,276.6c-0.8,0-1.5-0.2-2-0.6c-0.6-0.4-1-1-1.3-1.8c-0.3-0.8-0.4-1.7-0.4-2.8c0-1.1,0.1-2,0.4-2.8
							c0.3-0.8,0.7-1.4,1.3-1.8c0.6-0.4,1.2-0.6,2-0.6c0.8,0,1.4,0.2,2,0.6c0.6,0.4,1,1,1.3,1.8s0.4,1.7,0.4,2.8
							c0,1.1-0.1,2.1-0.4,2.8c-0.3,0.8-0.7,1.4-1.3,1.8C21.2,276.4,20.5,276.6,19.7,276.6z M19.7,275.3c0.7,0,1.2-0.3,1.6-1
							s0.6-1.6,0.6-2.9c0-0.8-0.1-1.6-0.3-2.1c-0.2-0.6-0.4-1-0.8-1.3c-0.3-0.3-0.7-0.5-1.2-0.5c-0.7,0-1.2,0.3-1.6,1
							c-0.4,0.7-0.6,1.6-0.6,2.9c0,0.8,0.1,1.6,0.3,2.1s0.4,1,0.8,1.3S19.3,275.3,19.7,275.3z"/>
						<path class="st1" d="M28.7,276.6c-0.8,0-1.5-0.2-2-0.6c-0.6-0.4-1-1-1.3-1.8c-0.3-0.8-0.4-1.7-0.4-2.8c0-1.1,0.1-2,0.4-2.8
							c0.3-0.8,0.7-1.4,1.3-1.8c0.6-0.4,1.2-0.6,2-0.6c0.8,0,1.4,0.2,2,0.6c0.6,0.4,1,1,1.3,1.8s0.4,1.7,0.4,2.8
							c0,1.1-0.1,2.1-0.4,2.8c-0.3,0.8-0.7,1.4-1.3,1.8C30.2,276.4,29.5,276.6,28.7,276.6z M28.7,275.3c0.7,0,1.2-0.3,1.6-1
							s0.6-1.6,0.6-2.9c0-0.8-0.1-1.6-0.3-2.1c-0.2-0.6-0.4-1-0.8-1.3c-0.3-0.3-0.7-0.5-1.2-0.5c-0.7,0-1.2,0.3-1.6,1
							c-0.4,0.7-0.6,1.6-0.6,2.9c0,0.8,0.1,1.6,0.3,2.1s0.4,1,0.8,1.3S28.3,275.3,28.7,275.3z"/>
					</g>
				</g>
				<g>
					<g>
						<path class="st1" d="M11.1,228.5c-0.7,0-1.3-0.1-1.8-0.4s-1-0.6-1.3-1c-0.3-0.4-0.5-0.9-0.5-1.5h1.6c0,0.3,0.1,0.6,0.3,0.8
							c0.2,0.2,0.4,0.4,0.7,0.5s0.6,0.2,1,0.2c0.4,0,0.8-0.1,1.1-0.2s0.6-0.3,0.7-0.6c0.2-0.2,0.3-0.5,0.3-0.9
							c0-0.3-0.1-0.6-0.3-0.9c-0.2-0.3-0.4-0.5-0.8-0.6c-0.3-0.1-0.7-0.2-1.2-0.2h-0.9v-1.2h0.9c0.4,0,0.7-0.1,1-0.2
							c0.3-0.1,0.5-0.3,0.7-0.6c0.2-0.2,0.2-0.5,0.2-0.9c0-0.3-0.1-0.6-0.2-0.8c-0.1-0.2-0.3-0.4-0.6-0.5c-0.3-0.1-0.6-0.2-0.9-0.2
							c-0.3,0-0.6,0.1-0.9,0.2c-0.3,0.1-0.5,0.3-0.7,0.5c-0.2,0.2-0.3,0.5-0.3,0.8H7.7c0-0.5,0.2-1,0.5-1.4c0.3-0.4,0.7-0.7,1.2-1
							s1.1-0.4,1.7-0.4c0.7,0,1.2,0.1,1.7,0.4c0.5,0.3,0.8,0.6,1.1,1s0.4,0.9,0.4,1.4c0,0.6-0.2,1.1-0.5,1.4
							c-0.3,0.4-0.7,0.7-1.3,0.8v0.1c0.7,0.1,1.2,0.4,1.6,0.8c0.4,0.4,0.6,1,0.6,1.6c0,0.6-0.2,1.1-0.5,1.5c-0.3,0.4-0.7,0.8-1.3,1
							S11.8,228.5,11.1,228.5z"/>
						<path class="st1" d="M19.9,228.5c-0.6,0-1.2-0.1-1.7-0.4s-0.9-0.6-1.2-1c-0.3-0.4-0.5-0.9-0.5-1.4h1.5c0,0.4,0.2,0.8,0.6,1.1
							c0.4,0.3,0.8,0.4,1.3,0.4c0.4,0,0.7-0.1,1-0.3c0.3-0.2,0.5-0.4,0.7-0.7s0.3-0.7,0.3-1.1c0-0.4-0.1-0.8-0.3-1.1
							c-0.2-0.3-0.4-0.6-0.7-0.8c-0.3-0.2-0.7-0.3-1.1-0.3c-0.3,0-0.6,0.1-0.9,0.2s-0.6,0.2-0.8,0.4l-1.4-0.2l0.6-5.1h5.6v1.3h-4.3
							l-0.3,2.8h0.1c0.2-0.2,0.5-0.4,0.8-0.5c0.3-0.1,0.7-0.2,1.1-0.2c0.6,0,1.2,0.1,1.7,0.4c0.5,0.3,0.9,0.7,1.1,1.2
							c0.3,0.5,0.4,1.1,0.4,1.7c0,0.7-0.1,1.2-0.4,1.8c-0.3,0.5-0.7,0.9-1.2,1.2C21.2,228.3,20.6,228.5,19.9,228.5z"/>
						<path class="st1" d="M28.7,228.5c-0.8,0-1.5-0.2-2-0.6c-0.6-0.4-1-1-1.3-1.8c-0.3-0.8-0.4-1.7-0.4-2.8c0-1.1,0.1-2,0.4-2.8
							c0.3-0.8,0.7-1.4,1.3-1.8c0.6-0.4,1.2-0.6,2-0.6c0.8,0,1.4,0.2,2,0.6c0.6,0.4,1,1,1.3,1.8s0.4,1.7,0.4,2.8
							c0,1.1-0.1,2.1-0.4,2.8c-0.3,0.8-0.7,1.4-1.3,1.8C30.2,228.3,29.5,228.5,28.7,228.5z M28.7,227.2c0.7,0,1.2-0.3,1.6-1
							s0.6-1.6,0.6-2.9c0-0.8-0.1-1.6-0.3-2.1c-0.2-0.6-0.4-1-0.8-1.3c-0.3-0.3-0.7-0.5-1.2-0.5c-0.7,0-1.2,0.3-1.6,1
							c-0.4,0.7-0.6,1.6-0.6,2.9c0,0.8,0.1,1.6,0.3,2.1s0.4,1,0.8,1.3S28.3,227.2,28.7,227.2z"/>
					</g>
				</g>
				<g>
					<g>
						<path class="st1" d="M6.9,165.5v-1.2l4.4-6.9h1v1.8h-0.6l-3.1,5v0.1h6v1.3H6.9z M11.7,167.5v-2.4l0-0.6v-7.2h1.5v10.2H11.7z"
							/>
						<path class="st1" d="M19.7,167.7c-0.8,0-1.5-0.2-2-0.6c-0.6-0.4-1-1-1.3-1.8c-0.3-0.8-0.4-1.7-0.4-2.8c0-1.1,0.1-2,0.4-2.8
							c0.3-0.8,0.7-1.4,1.3-1.8c0.6-0.4,1.2-0.6,2-0.6c0.8,0,1.4,0.2,2,0.6c0.6,0.4,1,1,1.3,1.8s0.4,1.7,0.4,2.8
							c0,1.1-0.1,2.1-0.4,2.8s-0.7,1.4-1.3,1.8C21.2,167.5,20.5,167.7,19.7,167.7z M19.7,166.4c0.7,0,1.2-0.3,1.6-1s0.6-1.6,0.6-2.9
							c0-0.8-0.1-1.6-0.3-2.1s-0.4-1-0.8-1.3c-0.3-0.3-0.7-0.5-1.2-0.5c-0.7,0-1.2,0.3-1.6,1c-0.4,0.7-0.6,1.6-0.6,2.9
							c0,0.8,0.1,1.6,0.3,2.1c0.2,0.6,0.4,1,0.8,1.3S19.3,166.4,19.7,166.4z"/>
						<path class="st1" d="M28.7,167.7c-0.8,0-1.5-0.2-2-0.6c-0.6-0.4-1-1-1.3-1.8c-0.3-0.8-0.4-1.7-0.4-2.8c0-1.1,0.1-2,0.4-2.8
							c0.3-0.8,0.7-1.4,1.3-1.8c0.6-0.4,1.2-0.6,2-0.6c0.8,0,1.4,0.2,2,0.6c0.6,0.4,1,1,1.3,1.8s0.4,1.7,0.4,2.8
							c0,1.1-0.1,2.1-0.4,2.8s-0.7,1.4-1.3,1.8C30.2,167.5,29.5,167.7,28.7,167.7z M28.7,166.4c0.7,0,1.2-0.3,1.6-1s0.6-1.6,0.6-2.9
							c0-0.8-0.1-1.6-0.3-2.1s-0.4-1-0.8-1.3c-0.3-0.3-0.7-0.5-1.2-0.5c-0.7,0-1.2,0.3-1.6,1c-0.4,0.7-0.6,1.6-0.6,2.9
							c0,0.8,0.1,1.6,0.3,2.1c0.2,0.6,0.4,1,0.8,1.3S28.3,166.4,28.7,166.4z"/>
					</g>
				</g>
				<g>
					<g>
						<path class="st1" d="M7.2,106.4v-1.2l4.4-6.9h1v1.8H12l-3.1,5v0.1h6v1.3H7.2z M12,108.4V106l0-0.6v-7.2h1.5v10.2H12z"/>
						<path class="st1" d="M19.9,108.5c-0.6,0-1.2-0.1-1.7-0.4c-0.5-0.2-0.9-0.6-1.2-1c-0.3-0.4-0.5-0.9-0.5-1.4h1.5
							c0,0.4,0.2,0.8,0.6,1.1c0.4,0.3,0.8,0.4,1.3,0.4c0.4,0,0.7-0.1,1-0.3s0.5-0.4,0.7-0.7c0.2-0.3,0.3-0.7,0.3-1.1
							c0-0.4-0.1-0.8-0.3-1.1c-0.2-0.3-0.4-0.6-0.7-0.8c-0.3-0.2-0.7-0.3-1.1-0.3c-0.3,0-0.6,0.1-0.9,0.2c-0.3,0.1-0.6,0.2-0.8,0.4
							l-1.4-0.2l0.6-5.1h5.6v1.3h-4.3l-0.3,2.8h0.1c0.2-0.2,0.5-0.4,0.8-0.5c0.3-0.1,0.7-0.2,1.1-0.2c0.6,0,1.2,0.1,1.7,0.4
							c0.5,0.3,0.9,0.7,1.1,1.2c0.3,0.5,0.4,1.1,0.4,1.7c0,0.7-0.1,1.2-0.4,1.8c-0.3,0.5-0.7,0.9-1.2,1.2
							C21.2,108.4,20.6,108.5,19.9,108.5z"/>
						<path class="st1" d="M28.7,108.6c-0.8,0-1.5-0.2-2-0.6c-0.6-0.4-1-1-1.3-1.8c-0.3-0.8-0.4-1.7-0.4-2.8c0-1.1,0.1-2,0.4-2.8
							c0.3-0.8,0.7-1.4,1.3-1.8c0.6-0.4,1.2-0.6,2-0.6c0.8,0,1.4,0.2,2,0.6c0.6,0.4,1,1,1.3,1.8s0.4,1.7,0.4,2.8
							c0,1.1-0.1,2.1-0.4,2.8c-0.3,0.8-0.7,1.4-1.3,1.8C30.2,108.4,29.5,108.6,28.7,108.6z M28.7,107.2c0.7,0,1.2-0.3,1.6-1
							s0.6-1.6,0.6-2.9c0-0.8-0.1-1.6-0.3-2.1c-0.2-0.6-0.4-1-0.8-1.3c-0.3-0.3-0.7-0.5-1.2-0.5c-0.7,0-1.2,0.3-1.6,1
							c-0.4,0.7-0.6,1.6-0.6,2.9c0,0.8,0.1,1.6,0.3,2.1c0.2,0.6,0.4,1,0.8,1.3C27.9,107.1,28.3,107.2,28.7,107.2z"/>
					</g>
				</g>
				<g>
					<g>
						<path class="st1" d="M10.9,46.9c-0.6,0-1.2-0.1-1.7-0.4c-0.5-0.2-0.9-0.6-1.2-1c-0.3-0.4-0.5-0.9-0.5-1.4h1.5
							c0,0.4,0.2,0.8,0.6,1.1c0.4,0.3,0.8,0.4,1.3,0.4c0.4,0,0.7-0.1,1-0.3s0.5-0.4,0.7-0.7c0.2-0.3,0.3-0.7,0.3-1.1
							c0-0.4-0.1-0.8-0.3-1.1c-0.2-0.3-0.4-0.6-0.7-0.8c-0.3-0.2-0.7-0.3-1.1-0.3c-0.3,0-0.6,0.1-0.9,0.2c-0.3,0.1-0.6,0.2-0.8,0.4
							l-1.4-0.2l0.6-5.1h5.6v1.3H9.6l-0.3,2.8h0.1c0.2-0.2,0.5-0.4,0.8-0.5c0.3-0.1,0.7-0.2,1.1-0.2c0.6,0,1.2,0.1,1.7,0.4
							c0.5,0.3,0.9,0.7,1.1,1.2c0.3,0.5,0.4,1.1,0.4,1.7c0,0.7-0.1,1.2-0.4,1.8c-0.3,0.5-0.7,0.9-1.2,1.2
							C12.2,46.7,11.6,46.9,10.9,46.9z"/>
						<path class="st1" d="M19.7,46.9c-0.8,0-1.5-0.2-2-0.6c-0.6-0.4-1-1-1.3-1.8c-0.3-0.8-0.4-1.7-0.4-2.8c0-1.1,0.1-2,0.4-2.8
							c0.3-0.8,0.7-1.4,1.3-1.8c0.6-0.4,1.2-0.6,2-0.6c0.8,0,1.4,0.2,2,0.6c0.6,0.4,1,1,1.3,1.8s0.4,1.7,0.4,2.8
							c0,1.1-0.1,2.1-0.4,2.8c-0.3,0.8-0.7,1.4-1.3,1.8C21.2,46.7,20.5,46.9,19.7,46.9z M19.7,45.6c0.7,0,1.2-0.3,1.6-1
							s0.6-1.6,0.6-2.9c0-0.8-0.1-1.6-0.3-2.1c-0.2-0.6-0.4-1-0.8-1.3c-0.3-0.3-0.7-0.5-1.2-0.5c-0.7,0-1.2,0.3-1.6,1
							c-0.4,0.7-0.6,1.6-0.6,2.9c0,0.8,0.1,1.6,0.3,2.1c0.2,0.6,0.4,1,0.8,1.3C18.9,45.4,19.3,45.6,19.7,45.6z"/>
						<path class="st1" d="M28.7,46.9c-0.8,0-1.5-0.2-2-0.6c-0.6-0.4-1-1-1.3-1.8c-0.3-0.8-0.4-1.7-0.4-2.8c0-1.1,0.1-2,0.4-2.8
							c0.3-0.8,0.7-1.4,1.3-1.8c0.6-0.4,1.2-0.6,2-0.6c0.8,0,1.4,0.2,2,0.6c0.6,0.4,1,1,1.3,1.8s0.4,1.7,0.4,2.8
							c0,1.1-0.1,2.1-0.4,2.8c-0.3,0.8-0.7,1.4-1.3,1.8C30.2,46.7,29.5,46.9,28.7,46.9z M28.7,45.6c0.7,0,1.2-0.3,1.6-1
							s0.6-1.6,0.6-2.9c0-0.8-0.1-1.6-0.3-2.1c-0.2-0.6-0.4-1-0.8-1.3c-0.3-0.3-0.7-0.5-1.2-0.5c-0.7,0-1.2,0.3-1.6,1
							c-0.4,0.7-0.6,1.6-0.6,2.9c0,0.8,0.1,1.6,0.3,2.1c0.2,0.6,0.4,1,0.8,1.3C27.9,45.4,28.3,45.6,28.7,45.6z"/>
					</g>
				</g>
			</g>
		</g>
	</g>
</g>
<g>
	<line class="st0" x1="43.1" y1="631" x2="1297.8" y2="631"/>
	<g>
		<g>
			<line class="st2" x1="72.4" y1="572.1" x2="73" y2="572.1"/>
			<line class="st3" x1="74.2" y1="572.1" x2="1291" y2="572.1"/>
			<line class="st2" x1="1291.6" y1="572.1" x2="1292.2" y2="572.1"/>
		</g>
	</g>
	<g>
		<g>
			<line class="st2" x1="72.4" y1="513.1" x2="73" y2="513.1"/>
			<line class="st3" x1="74.2" y1="513.1" x2="1291" y2="513.1"/>
			<line class="st2" x1="1291.6" y1="513.1" x2="1292.2" y2="513.1"/>
		</g>
	</g>
	<g>
		<g>
			<line class="st2" x1="72.4" y1="454.2" x2="73" y2="454.2"/>
			<line class="st3" x1="74.2" y1="454.2" x2="1291" y2="454.2"/>
			<line class="st2" x1="1291.6" y1="454.2" x2="1292.2" y2="454.2"/>
		</g>
	</g>
	<g>
		<g>
			<line class="st2" x1="72.4" y1="41.5" x2="73" y2="41.5"/>
			<line class="st3" x1="74.2" y1="41.5" x2="1291" y2="41.5"/>
			<line class="st2" x1="1291.6" y1="41.5" x2="1292.2" y2="41.5"/>
		</g>
	</g>
	<g>
		<g>
			<line class="st2" x1="72.4" y1="100.5" x2="73" y2="100.5"/>
			<line class="st3" x1="74.2" y1="100.5" x2="1291" y2="100.5"/>
			<line class="st2" x1="1291.6" y1="100.5" x2="1292.2" y2="100.5"/>
		</g>
	</g>
	<g>
		<g>
			<line class="st2" x1="72.4" y1="159.4" x2="73" y2="159.4"/>
			<line class="st3" x1="74.2" y1="159.4" x2="1291" y2="159.4"/>
			<line class="st2" x1="1291.6" y1="159.4" x2="1292.2" y2="159.4"/>
		</g>
	</g>
	<g>
		<g>
			<line class="st2" x1="72.4" y1="218.4" x2="73" y2="218.4"/>
			<line class="st3" x1="74.2" y1="218.4" x2="1291" y2="218.4"/>
			<line class="st2" x1="1291.6" y1="218.4" x2="1292.2" y2="218.4"/>
		</g>
	</g>
	<g>
		<g>
			<line class="st2" x1="72.4" y1="277.3" x2="73" y2="277.3"/>
			<line class="st3" x1="74.2" y1="277.3" x2="1291" y2="277.3"/>
			<line class="st2" x1="1291.6" y1="277.3" x2="1292.2" y2="277.3"/>
		</g>
	</g>
	<g>
		<g>
			<line class="st2" x1="72.4" y1="336.3" x2="73" y2="336.3"/>
			<line class="st3" x1="74.2" y1="336.3" x2="1291" y2="336.3"/>
			<line class="st2" x1="1291.6" y1="336.3" x2="1292.2" y2="336.3"/>
		</g>
	</g>
	<g>
		<g>
			<line class="st2" x1="72.4" y1="395.2" x2="73" y2="395.2"/>
			<line class="st3" x1="74.2" y1="395.2" x2="1291" y2="395.2"/>
			<line class="st2" x1="1291.6" y1="395.2" x2="1292.2" y2="395.2"/>
		</g>
	</g>
</g>
<g>
	<g>
		<rect x="39.3" y="512.9" class="st1" width="21.9" height="0.6"/>
	</g>
	<g>
		<rect x="48.7" y="549.2" class="st1" width="12.4" height="0.6"/>
	</g>
	<g>
		<rect x="48.7" y="561.3" class="st1" width="12.4" height="0.6"/>
	</g>
	<g>
		<rect x="48.7" y="537.1" class="st1" width="12.4" height="0.6"/>
	</g>
	<g>
		<rect x="48.7" y="525" class="st1" width="12.4" height="0.6"/>
	</g>
	<g>
		<rect x="39.3" y="573.4" class="st1" width="21.9" height="0.6"/>
	</g>
	<g>
		<rect x="48.7" y="609.7" class="st1" width="12.4" height="0.6"/>
	</g>
	<g>
		<rect x="48.7" y="621.8" class="st1" width="12.4" height="0.6"/>
	</g>
	<g>
		<rect x="48.7" y="597.6" class="st1" width="12.4" height="0.6"/>
	</g>
	<g>
		<rect x="48.7" y="585.5" class="st1" width="12.4" height="0.6"/>
	</g>
	<g>
		<rect x="39.3" y="452.5" class="st1" width="21.9" height="0.6"/>
	</g>
	<g>
		<rect x="48.7" y="488.8" class="st1" width="12.4" height="0.6"/>
	</g>
	<g>
		<rect x="48.7" y="500.9" class="st1" width="12.4" height="0.6"/>
	</g>
	<g>
		<rect x="48.7" y="476.7" class="st1" width="12.4" height="0.6"/>
	</g>
	<g>
		<rect x="48.7" y="464.6" class="st1" width="12.4" height="0.6"/>
	</g>
	<g>
		<rect x="39.3" y="392" class="st1" width="21.9" height="0.6"/>
	</g>
	<g>
		<rect x="48.7" y="428.3" class="st1" width="12.4" height="0.6"/>
	</g>
	<g>
		<rect x="48.7" y="440.4" class="st1" width="12.4" height="0.6"/>
	</g>
	<g>
		<rect x="48.7" y="416.2" class="st1" width="12.4" height="0.6"/>
	</g>
	<g>
		<rect x="48.7" y="404.1" class="st1" width="12.4" height="0.6"/>
	</g>
	<g>
		<rect x="39.3" y="331.5" class="st1" width="21.9" height="0.6"/>
	</g>
	<g>
		<rect x="48.7" y="367.8" class="st1" width="12.4" height="0.6"/>
	</g>
	<g>
		<rect x="48.7" y="379.9" class="st1" width="12.4" height="0.6"/>
	</g>
	<g>
		<rect x="48.7" y="355.7" class="st1" width="12.4" height="0.6"/>
	</g>
	<g>
		<rect x="48.7" y="343.6" class="st1" width="12.4" height="0.6"/>
	</g>
	<g>
		<rect x="39.3" y="271" class="st1" width="21.9" height="0.6"/>
	</g>
	<g>
		<rect x="48.7" y="307.3" class="st1" width="12.4" height="0.6"/>
	</g>
	<g>
		<rect x="48.7" y="319.4" class="st1" width="12.4" height="0.6"/>
	</g>
	<g>
		<rect x="48.7" y="295.2" class="st1" width="12.4" height="0.6"/>
	</g>
	<g>
		<rect x="48.7" y="283.1" class="st1" width="12.4" height="0.6"/>
	</g>
	<rect x="39.3" y="222.7" class="st1" width="21.9" height="0.6"/>
	<rect x="48.7" y="259" class="st1" width="12.4" height="0.6"/>
	<rect x="48.7" y="246.9" class="st1" width="12.4" height="0.6"/>
	<rect x="48.7" y="234.8" class="st1" width="12.4" height="0.6"/>
	<rect x="39.3" y="162.2" class="st1" width="21.9" height="0.6"/>
	<rect x="48.7" y="198.5" class="st1" width="12.4" height="0.6"/>
	<rect x="48.7" y="210.6" class="st1" width="12.4" height="0.6"/>
	<rect x="48.7" y="186.4" class="st1" width="12.4" height="0.6"/>
	<rect x="48.7" y="174.3" class="st1" width="12.4" height="0.6"/>
	<rect x="39.3" y="101.7" class="st1" width="21.9" height="0.6"/>
	<rect x="48.7" y="138" class="st1" width="12.4" height="0.6"/>
	<rect x="48.7" y="150.1" class="st1" width="12.4" height="0.6"/>
	<rect x="48.7" y="125.9" class="st1" width="12.4" height="0.6"/>
	<rect x="48.7" y="113.8" class="st1" width="12.4" height="0.6"/>
	<rect x="39.3" y="41.2" class="st1" width="21.9" height="0.6"/>
	<rect x="48.7" y="77.5" class="st1" width="12.4" height="0.6"/>
	<rect x="48.7" y="89.6" class="st1" width="12.4" height="0.6"/>
	<rect x="48.7" y="65.4" class="st1" width="12.4" height="0.6"/>
	<rect x="48.7" y="53.3" class="st1" width="12.4" height="0.6"/>
</g>
</svg>
