<?xml version="1.0" encoding="utf-8"?>
<!-- Generator: Adobe Illustrator 28.1.0, SVG Export Plug-In . SVG Version: 6.00 Build 0)  -->
<svg version="1.1" id="Layer_1" xmlns="http://www.w3.org/2000/svg" xmlns:xlink="http://www.w3.org/1999/xlink" x="0px" y="0px"
	 viewBox="0 0 135 22" style="enable-background:new 0 0 135 22;" xml:space="preserve">
<style type="text/css">
	.st0{fill:#25B5B1;}
	.st1{fill:#4F4F4F;}
</style>
<g>
	<g>
		<g>
			<g>
				<g>
					<path class="st0" d="M10.9,14.8V4.6h1.5v4.4h5.1V4.6h1.5v10.2h-1.5v-4.4h-5.1v4.4H10.9z"/>
					<path class="st0" d="M24.4,15c-0.7,0-1.3-0.2-1.9-0.5c-0.5-0.3-0.9-0.8-1.2-1.4c-0.3-0.6-0.4-1.3-0.4-2.1
						c0-0.8,0.1-1.5,0.4-2.1c0.3-0.6,0.7-1.1,1.2-1.4c0.5-0.3,1.2-0.5,1.9-0.5s1.3,0.2,1.9,0.5s0.9,0.8,1.2,1.4
						C27.8,9.5,28,10.2,28,11c0,0.8-0.1,1.5-0.4,2.1c-0.3,0.6-0.7,1-1.2,1.4S25.1,15,24.4,15z M24.4,13.7c0.5,0,0.8-0.1,1.2-0.4
						c0.3-0.2,0.5-0.6,0.7-1c0.1-0.4,0.2-0.9,0.2-1.3c0-0.5-0.1-0.9-0.2-1.3c-0.1-0.4-0.4-0.7-0.7-1c-0.3-0.2-0.7-0.4-1.2-0.4
						c-0.5,0-0.9,0.1-1.2,0.4c-0.3,0.2-0.5,0.6-0.7,1c-0.1,0.4-0.2,0.9-0.2,1.3c0,0.5,0.1,0.9,0.2,1.3c0.1,0.4,0.4,0.7,0.7,1
						S23.9,13.7,24.4,13.7z"/>
					<path class="st0" d="M29.6,14.8V7.2H31v1.2h0.1c0.2-0.4,0.4-0.8,0.8-1c0.4-0.2,0.8-0.4,1.3-0.4c0.5,0,0.9,0.1,1.3,0.4
						c0.3,0.2,0.6,0.6,0.8,1h0.1c0.2-0.4,0.5-0.7,0.9-1c0.4-0.2,0.9-0.4,1.4-0.4c0.7,0,1.3,0.2,1.7,0.7c0.4,0.4,0.7,1.1,0.7,2v5.1
						h-1.5v-5c0-0.5-0.1-0.9-0.4-1.1c-0.3-0.2-0.6-0.3-1-0.3c-0.5,0-0.9,0.1-1.1,0.4c-0.3,0.3-0.4,0.7-0.4,1.1v4.9h-1.5V9.7
						c0-0.4-0.1-0.7-0.4-1c-0.3-0.3-0.6-0.4-1-0.4c-0.3,0-0.5,0.1-0.8,0.2c-0.2,0.1-0.4,0.4-0.6,0.6s-0.2,0.6-0.2,0.9v4.7H29.6z"/>
					<path class="st0" d="M45.3,15c-0.8,0-1.4-0.2-1.9-0.5s-1-0.8-1.3-1.4c-0.3-0.6-0.4-1.3-0.4-2.1c0-0.8,0.1-1.5,0.4-2.1
						s0.7-1.1,1.2-1.4c0.5-0.3,1.1-0.5,1.9-0.5c0.4,0,0.8,0.1,1.3,0.2s0.8,0.4,1.1,0.7c0.3,0.3,0.6,0.7,0.8,1.2
						c0.2,0.5,0.3,1.1,0.3,1.8v0.5h-6.1v-1.1h4.6c0-0.4-0.1-0.7-0.2-1c-0.2-0.3-0.4-0.5-0.7-0.7s-0.6-0.3-1-0.3
						c-0.4,0-0.8,0.1-1.1,0.3c-0.3,0.2-0.5,0.5-0.7,0.8c-0.2,0.3-0.3,0.7-0.3,1.1v0.9c0,0.5,0.1,0.9,0.3,1.3s0.4,0.6,0.8,0.8
						c0.3,0.2,0.7,0.3,1.1,0.3c0.3,0,0.5,0,0.8-0.1c0.2-0.1,0.4-0.2,0.6-0.4c0.2-0.2,0.3-0.4,0.4-0.6l1.4,0.3
						c-0.1,0.4-0.3,0.8-0.6,1.1c-0.3,0.3-0.7,0.6-1.1,0.7C46.3,14.9,45.8,15,45.3,15z"/>
					<path class="st1" d="M57.8,4.1l-3.3,12.2h-1.3l3.3-12.2H57.8z"/>
					<path class="st1" d="M71.7,9.7c0,1.1-0.2,2-0.6,2.8c-0.4,0.8-0.9,1.4-1.6,1.8c-0.7,0.4-1.5,0.6-2.4,0.6c-0.9,0-1.7-0.2-2.4-0.6
						c-0.7-0.4-1.2-1-1.6-1.8c-0.4-0.8-0.6-1.7-0.6-2.8c0-1.1,0.2-2,0.6-2.8c0.4-0.8,0.9-1.4,1.6-1.8c0.7-0.4,1.5-0.6,2.4-0.6
						c0.9,0,1.7,0.2,2.4,0.6s1.2,1,1.6,1.8C71.5,7.7,71.7,8.6,71.7,9.7z M70.2,9.7c0-0.8-0.1-1.5-0.4-2.1s-0.6-1-1.1-1.3
						c-0.5-0.3-1-0.4-1.6-0.4c-0.6,0-1.1,0.1-1.6,0.4c-0.5,0.3-0.8,0.7-1.1,1.3c-0.3,0.6-0.4,1.3-0.4,2.1c0,0.8,0.1,1.5,0.4,2.1
						c0.3,0.6,0.6,1,1.1,1.3c0.5,0.3,1,0.4,1.6,0.4c0.6,0,1.1-0.1,1.6-0.4s0.8-0.7,1.1-1.3C70.1,11.2,70.2,10.5,70.2,9.7z"/>
					<path class="st1" d="M80.1,7.2l-2.8,7.6h-1.6l-2.8-7.6h1.6l1.9,5.9h0.1l1.9-5.9H80.1z"/>
					<path class="st1" d="M84.8,15c-0.8,0-1.4-0.2-1.9-0.5s-1-0.8-1.3-1.4c-0.3-0.6-0.4-1.3-0.4-2.1c0-0.8,0.1-1.5,0.4-2.1
						s0.7-1.1,1.2-1.4c0.5-0.3,1.1-0.5,1.9-0.5c0.4,0,0.8,0.1,1.3,0.2S86.7,7.7,87,8c0.3,0.3,0.6,0.7,0.8,1.2
						c0.2,0.5,0.3,1.1,0.3,1.8v0.5H82v-1.1h4.6c0-0.4-0.1-0.7-0.2-1C86.2,9,86,8.7,85.7,8.6s-0.6-0.3-1-0.3c-0.4,0-0.8,0.1-1.1,0.3
						c-0.3,0.2-0.5,0.5-0.7,0.8c-0.2,0.3-0.3,0.7-0.3,1.1v0.9c0,0.5,0.1,0.9,0.3,1.3s0.4,0.6,0.8,0.8c0.3,0.2,0.7,0.3,1.1,0.3
						c0.3,0,0.5,0,0.8-0.1c0.2-0.1,0.4-0.2,0.6-0.4c0.2-0.2,0.3-0.4,0.4-0.6l1.4,0.3c-0.1,0.4-0.3,0.8-0.6,1.1
						c-0.3,0.3-0.7,0.6-1.1,0.7C85.8,14.9,85.3,15,84.8,15z"/>
					<path class="st1" d="M89.7,14.8V7.2h1.4v1.2h0.1c0.1-0.4,0.4-0.7,0.7-1s0.8-0.4,1.2-0.4c0.1,0,0.2,0,0.3,0s0.2,0,0.3,0v1.4
						c-0.1,0-0.2,0-0.3-0.1s-0.3,0-0.5,0c-0.4,0-0.7,0.1-0.9,0.2S91.6,9,91.4,9.3c-0.2,0.3-0.2,0.6-0.2,0.9v4.7H89.7z"/>
					<path class="st1" d="M101.6,7.2l-2.8,7.6h-1.6l-2.8-7.6h1.6L98,13h0.1l1.9-5.9H101.6z"/>
					<path class="st1" d="M103.7,6c-0.3,0-0.5-0.1-0.7-0.3c-0.2-0.2-0.3-0.4-0.3-0.6c0-0.2,0.1-0.5,0.3-0.6c0.2-0.2,0.4-0.3,0.7-0.3
						s0.5,0.1,0.7,0.3c0.2,0.2,0.3,0.4,0.3,0.6c0,0.2-0.1,0.5-0.3,0.6C104.2,5.9,104,6,103.7,6z M103,14.8V7.2h1.5v7.6H103z"/>
					<path class="st1" d="M109.8,15c-0.8,0-1.4-0.2-1.9-0.5s-1-0.8-1.3-1.4c-0.3-0.6-0.4-1.3-0.4-2.1c0-0.8,0.1-1.5,0.4-2.1
						s0.7-1.1,1.2-1.4c0.5-0.3,1.1-0.5,1.9-0.5c0.4,0,0.8,0.1,1.3,0.2s0.8,0.4,1.1,0.7c0.3,0.3,0.6,0.7,0.8,1.2
						c0.2,0.5,0.3,1.1,0.3,1.8v0.5H107v-1.1h4.6c0-0.4-0.1-0.7-0.2-1c-0.2-0.3-0.4-0.5-0.7-0.7s-0.6-0.3-1-0.3
						c-0.4,0-0.8,0.1-1.1,0.3c-0.3,0.2-0.5,0.5-0.7,0.8c-0.2,0.3-0.3,0.7-0.3,1.1v0.9c0,0.5,0.1,0.9,0.3,1.3s0.4,0.6,0.8,0.8
						c0.3,0.2,0.7,0.3,1.1,0.3c0.3,0,0.5,0,0.8-0.1c0.2-0.1,0.4-0.2,0.6-0.4c0.2-0.2,0.3-0.4,0.4-0.6l1.4,0.3
						c-0.1,0.4-0.3,0.8-0.6,1.1c-0.3,0.3-0.7,0.6-1.1,0.7C110.8,14.9,110.3,15,109.8,15z"/>
					<path class="st1" d="M116.4,14.8l-2.2-7.6h1.5l1.5,5.6h0.1l1.5-5.6h1.5l1.5,5.6h0.1l1.5-5.6h1.5l-2.2,7.6h-1.5l-1.6-5.5h-0.1
						l-1.6,5.5H116.4z"/>
				</g>
			</g>
		</g>
	</g>
</g>
</svg>
