<?xml version="1.0" encoding="utf-8"?>
<!-- Generator: Adobe Illustrator 28.1.0, SVG Export Plug-In . SVG Version: 6.00 Build 0)  -->
<svg version="1.1" id="Layer_1" xmlns="http://www.w3.org/2000/svg" xmlns:xlink="http://www.w3.org/1999/xlink" x="0px" y="0px"
	 viewBox="0 0 149 43" style="enable-background:new 0 0 149 43;" xml:space="preserve">
<style type="text/css">
	.st0{fill:#EBEBEB;stroke:#E7E7E7;stroke-width:3.1586;stroke-linecap:round;stroke-linejoin:round;stroke-miterlimit:10;}
	.st1{fill:#C5C8D2;}
</style>
<g>
	<g>
		<g>
			<path class="st0" d="M127.5,36.8h-106c-8.4,0-15.3-6.9-15.3-15.3v0c0-8.4,6.9-15.3,15.3-15.3h106c8.4,0,15.3,6.9,15.3,15.3v0
				C142.8,29.9,135.9,36.8,127.5,36.8z"/>
			<g>
				<g>
					<path class="st1" d="M46.9,12.9h2.5l4.4,10.7H54l4.4-10.7h2.5v13.8h-2v-10h-0.1l-4.1,10h-1.6l-4.1-10h-0.1v10h-2V12.9z"/>
					<path class="st1" d="M68.1,26.9c-1,0-1.8-0.2-2.5-0.7c-0.7-0.4-1.3-1.1-1.7-1.9s-0.6-1.7-0.6-2.8c0-1.1,0.2-2,0.6-2.8
						s1-1.4,1.7-1.9s1.6-0.7,2.5-0.7s1.8,0.2,2.5,0.7s1.3,1.1,1.7,1.9s0.6,1.7,0.6,2.8c0,1.1-0.2,2-0.6,2.8s-1,1.4-1.7,1.9
						C69.9,26.6,69.1,26.9,68.1,26.9z M68.1,25.2c0.6,0,1.1-0.2,1.6-0.5c0.4-0.3,0.7-0.8,0.9-1.3c0.2-0.6,0.3-1.2,0.3-1.8
						c0-0.7-0.1-1.3-0.3-1.8c-0.2-0.6-0.5-1-0.9-1.3c-0.4-0.3-0.9-0.5-1.6-0.5c-0.6,0-1.2,0.2-1.6,0.5s-0.7,0.8-0.9,1.3
						c-0.2,0.6-0.3,1.2-0.3,1.8c0,0.7,0.1,1.3,0.3,1.8c0.2,0.6,0.5,1,0.9,1.3S67.5,25.2,68.1,25.2z"/>
					<path class="st1" d="M77.2,20.5v6.1h-2V16.3h1.9V18h0.1c0.2-0.5,0.6-1,1.1-1.3c0.5-0.3,1.2-0.5,1.9-0.5c0.7,0,1.3,0.1,1.9,0.4
						c0.5,0.3,0.9,0.7,1.2,1.3c0.3,0.6,0.4,1.3,0.4,2.1v6.6h-2v-6.3c0-0.7-0.2-1.3-0.6-1.8s-0.9-0.6-1.6-0.6c-0.5,0-0.9,0.1-1.2,0.3
						c-0.4,0.2-0.6,0.5-0.9,0.9C77.3,19.5,77.2,20,77.2,20.5z"/>
					<path class="st1" d="M91.3,16.3v1.6h-5.6v-1.6H91.3z M87.2,13.8h2v9.8c0,0.4,0.1,0.7,0.2,0.9c0.1,0.2,0.3,0.3,0.5,0.4
						C90,25,90.2,25,90.4,25c0.2,0,0.3,0,0.4,0c0.1,0,0.2,0,0.3-0.1l0.4,1.7c-0.1,0-0.3,0.1-0.5,0.1c-0.2,0-0.5,0.1-0.8,0.1
						c-0.5,0-1-0.1-1.5-0.3c-0.5-0.2-0.8-0.5-1.1-0.9c-0.3-0.4-0.4-0.9-0.4-1.6V13.8z"/>
					<path class="st1" d="M95.6,20.5v6.1h-2V12.9h2V18h0.1c0.2-0.6,0.6-1,1.1-1.3s1.1-0.5,2-0.5c0.7,0,1.3,0.1,1.9,0.4
						c0.5,0.3,0.9,0.7,1.2,1.3c0.3,0.6,0.4,1.3,0.4,2.2v6.6h-2v-6.3c0-0.8-0.2-1.3-0.6-1.8c-0.4-0.4-0.9-0.6-1.6-0.6
						c-0.5,0-0.9,0.1-1.3,0.3c-0.4,0.2-0.7,0.5-0.9,0.9S95.6,20,95.6,20.5z"/>
				</g>
			</g>
		</g>
	</g>
</g>
</svg>
