<?xml version="1.0" encoding="utf-8"?>
<!-- Generator: Adobe Illustrator 28.1.0, SVG Export Plug-In . SVG Version: 6.00 Build 0)  -->
<svg version="1.1" id="Layer_1" xmlns="http://www.w3.org/2000/svg" xmlns:xlink="http://www.w3.org/1999/xlink" x="0px" y="0px"
	 viewBox="0 0 1397 829" style="enable-background:new 0 0 1397 829;" xml:space="preserve">
<style type="text/css">
	.st0{opacity:0.2;}
	.st1{fill:#E7E7E7;}
</style>
<g class="st0">
	<g>
		<g>
			<path class="st1" d="M26.3,6.1h1347.4c8.6,0,15.5,6.9,15.5,15.5v783.5c0,8.6-6.9,15.5-15.5,15.5H26.3c-8.6,0-15.5-6.9-15.5-15.5
				V21.6C10.8,13,17.7,6.1,26.3,6.1z"/>
		</g>
	</g>
</g>
<g>
	<g>
		<path d="M46.4,49.8c-0.1-0.9-0.5-1.5-1.1-2c-0.6-0.5-1.5-0.7-2.6-0.7c-0.8,0-1.4,0.1-1.9,0.3c-0.5,0.2-0.9,0.5-1.2,0.9
			c-0.3,0.4-0.4,0.8-0.4,1.3c0,0.4,0.1,0.7,0.3,1c0.2,0.3,0.4,0.5,0.8,0.8s0.7,0.4,1.1,0.5c0.4,0.2,0.9,0.3,1.3,0.4l2,0.5
			c1,0.2,1.8,0.5,2.6,0.9c0.8,0.4,1.5,0.8,2.1,1.3c0.6,0.5,1,1.1,1.4,1.8c0.3,0.7,0.5,1.5,0.5,2.4c0,1.3-0.3,2.5-1,3.5
			c-0.7,1-1.6,1.7-2.9,2.3c-1.3,0.5-2.8,0.8-4.6,0.8c-1.8,0-3.3-0.3-4.6-0.8c-1.3-0.5-2.3-1.3-3-2.4c-0.7-1.1-1.1-2.4-1.1-3.9h4.5
			c0,0.7,0.3,1.3,0.6,1.8c0.4,0.5,0.9,0.9,1.5,1.1s1.3,0.4,2.1,0.4c0.8,0,1.5-0.1,2-0.3c0.6-0.2,1-0.5,1.3-0.9
			c0.3-0.4,0.5-0.9,0.5-1.4c0-0.5-0.1-0.9-0.4-1.2s-0.7-0.6-1.3-0.9s-1.2-0.4-2-0.6l-2.4-0.6c-1.8-0.4-3.3-1.1-4.4-2.1
			s-1.6-2.2-1.6-3.8c0-1.3,0.3-2.5,1.1-3.5s1.7-1.8,2.9-2.3c1.2-0.6,2.7-0.8,4.3-0.8c1.6,0,3,0.3,4.2,0.8c1.2,0.6,2.2,1.3,2.8,2.3
			s1,2.1,1,3.4H46.4z"/>
		<path d="M62.8,49v3.4h-9.9V49H62.8z M55.2,45.1h4.5v15.3c0,0.4,0.1,0.7,0.2,1c0.1,0.2,0.3,0.4,0.5,0.5c0.2,0.1,0.5,0.1,0.8,0.1
			c0.2,0,0.4,0,0.6-0.1s0.4-0.1,0.5-0.1l0.7,3.4c-0.2,0.1-0.5,0.2-1,0.3c-0.4,0.1-0.9,0.2-1.5,0.2c-1.1,0-2.1-0.1-2.9-0.4
			c-0.8-0.3-1.5-0.9-1.9-1.6S55.2,62,55.2,61V45.1z"/>
		<path d="M70.4,65.7c-1,0-2-0.2-2.8-0.5s-1.5-0.9-1.9-1.6S65,61.9,65,60.8c0-0.9,0.2-1.7,0.5-2.3c0.3-0.6,0.8-1.1,1.4-1.5
			c0.6-0.4,1.2-0.7,2-0.9c0.7-0.2,1.5-0.3,2.3-0.4c1-0.1,1.7-0.2,2.3-0.3c0.6-0.1,1-0.2,1.3-0.4c0.3-0.2,0.4-0.4,0.4-0.8v-0.1
			c0-0.7-0.2-1.2-0.6-1.6c-0.4-0.4-1-0.6-1.8-0.6c-0.8,0-1.5,0.2-1.9,0.5c-0.5,0.4-0.8,0.8-1,1.3l-4.2-0.3c0.2-1,0.6-1.9,1.3-2.6
			s1.4-1.3,2.4-1.7c1-0.4,2.1-0.6,3.4-0.6c0.9,0,1.8,0.1,2.6,0.3c0.8,0.2,1.6,0.5,2.2,1c0.6,0.4,1.2,1,1.5,1.7
			c0.4,0.7,0.6,1.5,0.6,2.5v11h-4.3v-2.3h-0.1c-0.3,0.5-0.6,1-1.1,1.3s-1,0.7-1.6,0.9C71.9,65.6,71.2,65.7,70.4,65.7z M71.7,62.6
			c0.7,0,1.3-0.1,1.8-0.4s0.9-0.6,1.2-1.1c0.3-0.5,0.4-1,0.4-1.5v-1.7c-0.1,0.1-0.3,0.2-0.6,0.3s-0.5,0.1-0.8,0.2
			c-0.3,0.1-0.6,0.1-0.9,0.2c-0.3,0-0.6,0.1-0.8,0.1c-0.5,0.1-1,0.2-1.4,0.4c-0.4,0.2-0.7,0.4-0.9,0.7c-0.2,0.3-0.3,0.6-0.3,1.1
			c0,0.6,0.2,1.1,0.7,1.4C70.4,62.4,71,62.6,71.7,62.6z"/>
		<path d="M91.9,49v3.4H82V49H91.9z M84.2,45.1h4.5v15.3c0,0.4,0.1,0.7,0.2,1c0.1,0.2,0.3,0.4,0.5,0.5c0.2,0.1,0.5,0.1,0.8,0.1
			c0.2,0,0.4,0,0.6-0.1s0.4-0.1,0.5-0.1l0.7,3.4c-0.2,0.1-0.5,0.2-1,0.3c-0.4,0.1-0.9,0.2-1.5,0.2c-1.1,0-2.1-0.1-2.9-0.4
			c-0.8-0.3-1.5-0.9-1.9-1.6S84.2,62,84.2,61V45.1z"/>
		<path d="M97.1,46.9c-0.7,0-1.3-0.2-1.7-0.7c-0.5-0.4-0.7-1-0.7-1.6c0-0.6,0.2-1.2,0.7-1.6c0.5-0.5,1.1-0.7,1.7-0.7
			c0.7,0,1.3,0.2,1.7,0.7c0.5,0.4,0.7,1,0.7,1.6c0,0.6-0.2,1.2-0.7,1.6C98.3,46.7,97.8,46.9,97.1,46.9z M94.8,65.4V49h4.5v16.4H94.8
			z"/>
		<path d="M110.4,65.7c-1.7,0-3.1-0.4-4.3-1.1c-1.2-0.7-2.1-1.7-2.8-3c-0.7-1.3-1-2.7-1-4.4c0-1.7,0.3-3.2,1-4.4
			c0.7-1.3,1.6-2.3,2.8-3c1.2-0.7,2.6-1.1,4.3-1.1s3.1,0.4,4.3,1.1c1.2,0.7,2.1,1.7,2.8,3c0.7,1.3,1,2.7,1,4.4c0,1.7-0.3,3.1-1,4.4
			c-0.7,1.3-1.6,2.3-2.8,3C113.4,65.4,112,65.7,110.4,65.7z M110.4,62.2c0.8,0,1.4-0.2,1.9-0.6s0.9-1,1.1-1.8
			c0.3-0.7,0.4-1.6,0.4-2.5s-0.1-1.8-0.4-2.5c-0.3-0.7-0.6-1.3-1.1-1.8s-1.1-0.6-1.9-0.6c-0.8,0-1.4,0.2-1.9,0.6s-0.9,1-1.2,1.8
			c-0.3,0.7-0.4,1.6-0.4,2.5s0.1,1.8,0.4,2.5c0.3,0.7,0.6,1.3,1.2,1.8S109.6,62.2,110.4,62.2z"/>
		<path d="M125.9,55.9v9.5h-4.5V49h4.3v2.9h0.2c0.4-1,1-1.7,1.8-2.3c0.9-0.6,1.9-0.8,3.1-0.8c1.1,0,2.1,0.2,3,0.7s1.5,1.2,2,2.1
			s0.7,2,0.7,3.3v10.4h-4.5v-9.6c0-1-0.2-1.8-0.8-2.3s-1.2-0.8-2.1-0.8c-0.6,0-1.1,0.1-1.6,0.4s-0.8,0.6-1.1,1.1
			C126.1,54.6,125.9,55.2,125.9,55.9z"/>
		<path d="M153.6,53.7l-4.2,0.3c-0.1-0.4-0.2-0.7-0.5-1s-0.5-0.5-0.9-0.7c-0.4-0.2-0.8-0.3-1.4-0.3c-0.7,0-1.3,0.1-1.8,0.4
			c-0.5,0.3-0.7,0.7-0.7,1.2c0,0.4,0.2,0.7,0.5,1c0.3,0.3,0.8,0.5,1.6,0.6l3,0.6c1.6,0.3,2.8,0.9,3.6,1.6c0.8,0.7,1.2,1.7,1.2,2.9
			c0,1.1-0.3,2-0.9,2.8c-0.6,0.8-1.5,1.4-2.6,1.9c-1.1,0.5-2.3,0.7-3.8,0.7c-2.2,0-3.9-0.5-5.2-1.4c-1.3-0.9-2-2.1-2.3-3.7l4.5-0.2
			c0.1,0.7,0.5,1.2,1,1.5c0.5,0.3,1.2,0.5,2,0.5c0.8,0,1.4-0.2,1.9-0.5c0.5-0.3,0.7-0.7,0.7-1.2c0-0.4-0.2-0.8-0.5-1
			c-0.3-0.3-0.9-0.5-1.6-0.6l-2.8-0.6c-1.6-0.3-2.8-0.9-3.6-1.7c-0.8-0.8-1.2-1.8-1.2-3c0-1.1,0.3-2,0.9-2.7
			c0.6-0.8,1.4-1.3,2.4-1.8c1-0.4,2.3-0.6,3.7-0.6c2.1,0,3.7,0.4,4.9,1.3C152.8,51,153.4,52.2,153.6,53.7z"/>
		<path d="M184,54.5c0,2.4-0.4,4.4-1.3,6.1s-2.1,2.9-3.7,3.8c-1.5,0.9-3.3,1.3-5.2,1.3c-1.9,0-3.7-0.4-5.2-1.3
			c-1.5-0.9-2.8-2.2-3.7-3.8c-0.9-1.7-1.3-3.7-1.3-6.1c0-2.4,0.4-4.4,1.3-6.1c0.9-1.7,2.1-2.9,3.7-3.8c1.5-0.9,3.3-1.3,5.2-1.3
			c1.9,0,3.7,0.4,5.2,1.3c1.5,0.9,2.8,2.2,3.7,3.8S184,52.1,184,54.5z M179.3,54.5c0-1.5-0.2-2.8-0.7-3.9s-1.1-1.9-1.9-2.4
			s-1.8-0.8-2.9-0.8c-1.1,0-2.1,0.3-2.9,0.8c-0.8,0.5-1.5,1.3-1.9,2.4c-0.5,1.1-0.7,2.4-0.7,3.9c0,1.5,0.2,2.8,0.7,3.9
			c0.5,1.1,1.1,1.9,1.9,2.4c0.8,0.5,1.8,0.8,2.9,0.8c1.1,0,2.1-0.3,2.9-0.8s1.5-1.3,1.9-2.4C179.1,57.3,179.3,56,179.3,54.5z"/>
		<path d="M202.6,49l-5.7,16.4h-5.1L186,49h4.8l3.4,11.7h0.2l3.4-11.7H202.6z"/>
		<path d="M212.3,65.7c-1.7,0-3.1-0.3-4.3-1c-1.2-0.7-2.1-1.7-2.8-2.9c-0.7-1.3-1-2.8-1-4.5c0-1.7,0.3-3.2,1-4.4
			c0.7-1.3,1.6-2.3,2.8-3c1.2-0.7,2.6-1.1,4.2-1.1c1.1,0,2.1,0.2,3,0.5c0.9,0.3,1.8,0.9,2.5,1.6c0.7,0.7,1.2,1.6,1.6,2.6
			c0.4,1,0.6,2.3,0.6,3.6v1.2H206v-2.8h9.5c0-0.7-0.1-1.2-0.4-1.7c-0.3-0.5-0.7-0.9-1.2-1.2c-0.5-0.3-1.1-0.4-1.7-0.4
			c-0.7,0-1.3,0.2-1.8,0.5c-0.5,0.3-0.9,0.7-1.2,1.3c-0.3,0.5-0.5,1.1-0.5,1.8v2.7c0,0.8,0.2,1.5,0.5,2.1s0.7,1,1.3,1.4
			c0.6,0.3,1.2,0.5,2,0.5c0.5,0,1-0.1,1.4-0.2c0.4-0.1,0.8-0.4,1.1-0.6c0.3-0.3,0.5-0.6,0.7-1l4.2,0.3c-0.2,1-0.6,1.9-1.3,2.6
			c-0.7,0.7-1.5,1.3-2.5,1.7C214.9,65.5,213.7,65.7,212.3,65.7z"/>
		<path d="M222.8,65.4V49h4.4v2.9h0.2c0.3-1,0.8-1.8,1.5-2.3s1.5-0.8,2.4-0.8c0.2,0,0.5,0,0.7,0s0.5,0.1,0.7,0.1v4
			c-0.2-0.1-0.5-0.1-0.9-0.2s-0.7-0.1-1-0.1c-0.7,0-1.3,0.1-1.8,0.4s-0.9,0.7-1.2,1.2c-0.3,0.5-0.5,1.1-0.5,1.8v9.3H222.8z"/>
		<path d="M250.3,49l-5.7,16.4h-5.1L233.8,49h4.8l3.4,11.7h0.2l3.4-11.7H250.3z"/>
		<path d="M254.9,46.9c-0.7,0-1.3-0.2-1.7-0.7c-0.5-0.4-0.7-1-0.7-1.6c0-0.6,0.2-1.2,0.7-1.6c0.5-0.5,1.1-0.7,1.7-0.7
			c0.7,0,1.3,0.2,1.7,0.7c0.5,0.4,0.7,1,0.7,1.6c0,0.6-0.2,1.2-0.7,1.6C256.2,46.7,255.6,46.9,254.9,46.9z M252.6,65.4V49h4.5v16.4
			H252.6z"/>
		<path d="M268.3,65.7c-1.7,0-3.1-0.3-4.3-1c-1.2-0.7-2.1-1.7-2.8-2.9c-0.7-1.3-1-2.8-1-4.5c0-1.7,0.3-3.2,1-4.4
			c0.7-1.3,1.6-2.3,2.8-3c1.2-0.7,2.6-1.1,4.2-1.1c1.1,0,2.1,0.2,3,0.5c0.9,0.3,1.8,0.9,2.5,1.6c0.7,0.7,1.2,1.6,1.6,2.6
			c0.4,1,0.6,2.3,0.6,3.6v1.2H262v-2.8h9.5c0-0.7-0.1-1.2-0.4-1.7c-0.3-0.5-0.7-0.9-1.2-1.2c-0.5-0.3-1.1-0.4-1.7-0.4
			c-0.7,0-1.3,0.2-1.8,0.5c-0.5,0.3-0.9,0.7-1.2,1.3c-0.3,0.5-0.5,1.1-0.5,1.8v2.7c0,0.8,0.2,1.5,0.5,2.1s0.7,1,1.3,1.4
			c0.6,0.3,1.2,0.5,2,0.5c0.5,0,1-0.1,1.4-0.2c0.4-0.1,0.8-0.4,1.1-0.6c0.3-0.3,0.5-0.6,0.7-1l4.2,0.3c-0.2,1-0.6,1.9-1.3,2.6
			c-0.7,0.7-1.5,1.3-2.5,1.7C270.8,65.5,269.6,65.7,268.3,65.7z"/>
		<path d="M282,65.4L277.5,49h4.6l2.5,11h0.1l2.6-11h4.5l2.7,10.9h0.1l2.5-10.9h4.6l-4.4,16.4h-4.8l-2.8-10.3h-0.2l-2.8,10.3H282z"
			/>
	</g>
</g>
</svg>
