<svg width="167" height="49" viewBox="0 0 167 49" fill="none" xmlns="http://www.w3.org/2000/svg">
<g filter="url(#filter0_d_23_214)">
<rect x="6" y="3" width="155" height="37" rx="6" fill="#FF7E00"/>
</g>
<path d="M64.5641 24.784C64.5641 25.1893 64.4947 25.5947 64.3561 26C64.2174 26.3947 63.9827 26.752 63.6521 27.072C63.3321 27.3813 62.9001 27.6373 62.3561 27.84C61.8227 28.032 61.1561 28.128 60.3561 28.128C59.7481 28.128 59.2201 28.1013 58.7721 28.048C58.3241 27.9947 57.9081 27.9253 57.5241 27.84C57.4387 27.8187 57.3641 27.7813 57.3001 27.728C57.2467 27.6747 57.2201 27.6053 57.2201 27.52V26.368C57.2201 26.2827 57.2467 26.2133 57.3001 26.16C57.3641 26.096 57.4387 26.064 57.5241 26.064H57.5561C57.7161 26.0853 57.9241 26.1067 58.1801 26.128C58.4467 26.1387 58.7187 26.1547 58.9961 26.176C59.2734 26.1867 59.5347 26.1973 59.7801 26.208C60.0361 26.2187 60.2387 26.224 60.3881 26.224C61.1027 26.224 61.5881 26.1013 61.8441 25.856C62.1107 25.6107 62.2441 25.2533 62.2441 24.784C62.2441 24.624 62.2227 24.4853 62.1801 24.368C62.1374 24.24 62.0627 24.1173 61.9561 24C61.8601 23.8827 61.7214 23.7653 61.5401 23.648C61.3694 23.52 61.1507 23.376 60.8841 23.216L58.7721 21.952C58.3987 21.728 58.0894 21.504 57.8441 21.28C57.6094 21.056 57.4174 20.8267 57.2681 20.592C57.1294 20.3467 57.0281 20.096 56.9641 19.84C56.9107 19.5733 56.8841 19.3013 56.8841 19.024C56.8841 18.5867 56.9534 18.1813 57.0921 17.808C57.2307 17.4347 57.4547 17.1147 57.7641 16.848C58.0841 16.5707 58.4947 16.3573 58.9961 16.208C59.5081 16.0587 60.1374 15.984 60.8841 15.984C61.1507 15.984 61.4334 15.9947 61.7321 16.016C62.0307 16.0267 62.3241 16.048 62.6121 16.08C62.9001 16.112 63.1614 16.144 63.3961 16.176C63.6307 16.208 63.8174 16.24 63.9561 16.272C64.0414 16.2933 64.1107 16.3307 64.1641 16.384C64.2174 16.4267 64.2441 16.4907 64.2441 16.576V17.76C64.2441 17.8453 64.2174 17.9147 64.1641 17.968C64.1214 18.0213 64.0574 18.048 63.9721 18.048H63.9401C63.4067 17.9947 62.8787 17.9573 62.3561 17.936C61.8334 17.904 61.3107 17.888 60.7881 17.888C60.1907 17.888 59.7587 17.9893 59.4921 18.192C59.2361 18.384 59.1081 18.6613 59.1081 19.024C59.1081 19.152 59.1241 19.2747 59.1561 19.392C59.1987 19.4987 59.2681 19.6107 59.3641 19.728C59.4707 19.8347 59.6094 19.9467 59.7801 20.064C59.9507 20.1707 60.1641 20.2987 60.4201 20.448L62.3401 21.52C62.7774 21.7653 63.1401 22.016 63.4281 22.272C63.7161 22.5173 63.9454 22.7733 64.1161 23.04C64.2867 23.3067 64.4041 23.584 64.4681 23.872C64.5321 24.16 64.5641 24.464 64.5641 24.784ZM73.0171 27.68C73.0171 27.7653 72.9851 27.84 72.9211 27.904C72.8571 27.968 72.7824 28 72.6971 28H71.3371C71.2517 28 71.1771 27.968 71.1131 27.904C71.0491 27.84 71.0171 27.7653 71.0171 27.68V27.424C70.6437 27.648 70.2704 27.824 69.8971 27.952C69.5237 28.0693 69.1451 28.128 68.7611 28.128C68.4304 28.128 68.0997 28.0907 67.7691 28.016C67.4384 27.9413 67.1397 27.8027 66.8731 27.6C66.6171 27.3973 66.4037 27.1253 66.2331 26.784C66.0731 26.4427 65.9931 26 65.9931 25.456V25.392C65.9931 24.4747 66.2971 23.7867 66.9051 23.328C67.5131 22.8587 68.5104 22.624 69.8971 22.624H70.9051V21.92C70.9051 21.3973 70.7877 21.0507 70.5531 20.88C70.3291 20.7093 69.9771 20.624 69.4971 20.624C68.9851 20.624 68.4891 20.64 68.0091 20.672C67.5291 20.6933 67.1557 20.72 66.8891 20.752H66.8091C66.7237 20.752 66.6544 20.736 66.6011 20.704C66.5477 20.672 66.5211 20.5973 66.5211 20.48V19.456C66.5211 19.2747 66.6224 19.1627 66.8251 19.12C67.1451 19.056 67.5291 18.9973 67.9771 18.944C68.4357 18.8907 68.9424 18.864 69.4971 18.864C70.6384 18.864 71.5077 19.1147 72.1051 19.616C72.7131 20.1173 73.0171 20.8853 73.0171 21.92V27.68ZM70.9051 24.032H69.8971C69.5344 24.032 69.2357 24.064 69.0011 24.128C68.7771 24.1813 68.5957 24.2667 68.4571 24.384C68.3291 24.4907 68.2384 24.6293 68.1851 24.8C68.1424 24.9707 68.1211 25.168 68.1211 25.392V25.456C68.1211 25.8507 68.2117 26.1173 68.3931 26.256C68.5744 26.384 68.8677 26.448 69.2731 26.448C69.5611 26.448 69.8437 26.4053 70.1211 26.32C70.4091 26.2347 70.6704 26.128 70.9051 26V24.032ZM80.1347 27.728C80.1347 27.888 80.0334 27.984 79.8307 28.016C79.6387 28.048 79.452 28.0747 79.2707 28.096C79.1 28.1173 78.924 28.128 78.7427 28.128C78.2947 28.128 77.9054 28.096 77.5747 28.032C77.2547 27.968 76.9934 27.8453 76.7907 27.664C76.588 27.472 76.4387 27.2107 76.3427 26.88C76.2467 26.5493 76.1987 26.1173 76.1987 25.584V20.56L74.6947 20.336C74.6094 20.3147 74.5347 20.2773 74.4707 20.224C74.4067 20.1707 74.3747 20.1013 74.3747 20.016V19.296C74.3747 19.2107 74.4067 19.136 74.4707 19.072C74.5347 19.008 74.6094 18.976 74.6947 18.976H76.1987V17.664C76.1987 17.5787 76.2307 17.5093 76.2947 17.456C76.3587 17.4027 76.4334 17.3653 76.5187 17.344L78.0067 17.088H78.0707C78.2414 17.088 78.3267 17.168 78.3267 17.328V18.976H79.7667C79.852 18.976 79.9267 19.008 79.9907 19.072C80.0547 19.136 80.0867 19.2107 80.0867 19.296V20.24C80.0867 20.3253 80.0547 20.4 79.9907 20.464C79.9267 20.528 79.852 20.56 79.7667 20.56H78.3267V25.584C78.3267 25.7867 78.332 25.9467 78.3427 26.064C78.3534 26.1813 78.38 26.272 78.4227 26.336C78.4654 26.4 78.5294 26.4427 78.6147 26.464C78.7 26.4747 78.812 26.48 78.9507 26.48H79.7987C80.0227 26.48 80.1347 26.56 80.1347 26.72V27.728ZM83.7871 17.456C83.7871 17.5413 83.7551 17.616 83.6911 17.68C83.6271 17.744 83.5524 17.776 83.4671 17.776H81.9151C81.8297 17.776 81.7497 17.744 81.6751 17.68C81.6111 17.616 81.5791 17.5413 81.5791 17.456V16.048C81.5791 15.9627 81.6111 15.888 81.6751 15.824C81.7497 15.76 81.8297 15.728 81.9151 15.728H83.4671C83.5524 15.728 83.6271 15.76 83.6911 15.824C83.7551 15.888 83.7871 15.9627 83.7871 16.048V17.456ZM83.7391 27.664C83.7391 27.7493 83.7071 27.8293 83.6431 27.904C83.5791 27.968 83.5044 28 83.4191 28H81.9471C81.8617 28 81.7871 27.968 81.7231 27.904C81.6591 27.8293 81.6271 27.7493 81.6271 27.664V19.296C81.6271 19.2107 81.6591 19.136 81.7231 19.072C81.7871 19.008 81.8617 18.976 81.9471 18.976H83.4191C83.5044 18.976 83.5791 19.008 83.6431 19.072C83.7071 19.136 83.7391 19.2107 83.7391 19.296V27.664ZM91.9243 25.632C91.9243 25.984 91.8603 26.3147 91.7323 26.624C91.6043 26.9227 91.407 27.184 91.1403 27.408C90.8843 27.632 90.559 27.808 90.1643 27.936C89.7696 28.064 89.311 28.128 88.7883 28.128C88.6283 28.128 88.431 28.1227 88.1963 28.112C87.9723 28.1013 87.727 28.08 87.4603 28.048C87.1936 28.0267 86.927 28 86.6603 27.968C86.3936 27.9253 86.1483 27.872 85.9243 27.808C85.7216 27.7547 85.6203 27.632 85.6203 27.44V26.48C85.6203 26.416 85.6416 26.3573 85.6843 26.304C85.7376 26.2507 85.807 26.224 85.8923 26.224H85.9563C86.1483 26.2453 86.3723 26.2667 86.6283 26.288C86.895 26.3093 87.1563 26.3307 87.4123 26.352C87.6683 26.3627 87.9083 26.3733 88.1323 26.384C88.3563 26.3947 88.527 26.4 88.6443 26.4C88.8896 26.4 89.087 26.384 89.2363 26.352C89.3856 26.3093 89.4976 26.256 89.5723 26.192C89.6576 26.1173 89.711 26.032 89.7323 25.936C89.7643 25.84 89.7803 25.7387 89.7803 25.632C89.7803 25.4827 89.727 25.3493 89.6203 25.232C89.5136 25.1147 89.3323 24.976 89.0763 24.816L86.8843 23.472C86.4896 23.2267 86.1643 22.9173 85.9083 22.544C85.663 22.16 85.5403 21.7333 85.5403 21.264C85.5403 19.664 86.5536 18.864 88.5803 18.864C88.9003 18.864 89.1883 18.8747 89.4443 18.896C89.711 18.9067 89.9563 18.928 90.1803 18.96C90.4043 18.992 90.6176 19.0293 90.8203 19.072C91.023 19.104 91.2256 19.1413 91.4283 19.184C91.6203 19.2267 91.7163 19.3493 91.7163 19.552V20.48C91.7163 20.6827 91.631 20.784 91.4603 20.784H91.3963C91.2896 20.7627 91.1296 20.7413 90.9163 20.72C90.7136 20.6987 90.4896 20.6827 90.2443 20.672C89.999 20.6507 89.743 20.6347 89.4763 20.624C89.2203 20.6027 88.9803 20.592 88.7563 20.592C88.3723 20.592 88.0896 20.6453 87.9083 20.752C87.7376 20.848 87.6523 21.0187 87.6523 21.264C87.6523 21.392 87.7056 21.504 87.8123 21.6C87.9296 21.696 88.0896 21.8027 88.2923 21.92L90.3883 23.2C90.7296 23.4027 90.9963 23.6053 91.1883 23.808C91.391 24.0107 91.5456 24.2133 91.6523 24.416C91.7696 24.6187 91.8443 24.8213 91.8763 25.024C91.9083 25.2267 91.9243 25.4293 91.9243 25.632ZM98.6484 16.96C98.6484 17.056 98.6218 17.1253 98.5684 17.168C98.5151 17.2107 98.4618 17.232 98.4084 17.232H97.6884C97.3044 17.232 97.0484 17.296 96.9204 17.424C96.8031 17.5413 96.7444 17.7973 96.7444 18.192V18.976H98.2804C98.3658 18.976 98.4404 19.008 98.5044 19.072C98.5684 19.136 98.6004 19.2107 98.6004 19.296V20.256C98.6004 20.3413 98.5684 20.416 98.5044 20.48C98.4404 20.5333 98.3658 20.56 98.2804 20.56H96.7444V27.664C96.7444 27.7493 96.7124 27.8293 96.6484 27.904C96.5844 27.968 96.5098 28 96.4244 28H94.9684C94.8831 28 94.8031 27.968 94.7284 27.904C94.6644 27.8293 94.6324 27.7493 94.6324 27.664V20.56L93.2084 20.336C93.1231 20.3147 93.0484 20.2827 92.9844 20.24C92.9204 20.1867 92.8884 20.1173 92.8884 20.032V19.296C92.8884 19.2107 92.9204 19.136 92.9844 19.072C93.0484 19.008 93.1231 18.976 93.2084 18.976H94.6324V18.192C94.6324 17.68 94.6964 17.2587 94.8244 16.928C94.9631 16.5973 95.1498 16.336 95.3844 16.144C95.6298 15.952 95.9231 15.8187 96.2644 15.744C96.6058 15.6693 96.9844 15.632 97.4004 15.632C97.5924 15.632 97.7631 15.648 97.9124 15.68C98.0618 15.7013 98.2111 15.728 98.3604 15.76C98.4244 15.7813 98.4884 15.8133 98.5524 15.856C98.6164 15.888 98.6484 15.9413 98.6484 16.016V16.96ZM106.689 27.68C106.689 27.7653 106.657 27.84 106.593 27.904C106.529 27.968 106.454 28 106.369 28H105.009C104.924 28 104.849 27.968 104.785 27.904C104.721 27.84 104.689 27.7653 104.689 27.68V27.424C104.316 27.648 103.942 27.824 103.569 27.952C103.196 28.0693 102.817 28.128 102.433 28.128C102.102 28.128 101.772 28.0907 101.441 28.016C101.11 27.9413 100.812 27.8027 100.545 27.6C100.289 27.3973 100.076 27.1253 99.9049 26.784C99.7449 26.4427 99.6649 26 99.6649 25.456V25.392C99.6649 24.4747 99.9689 23.7867 100.577 23.328C101.185 22.8587 102.182 22.624 103.569 22.624H104.577V21.92C104.577 21.3973 104.46 21.0507 104.225 20.88C104.001 20.7093 103.649 20.624 103.169 20.624C102.657 20.624 102.161 20.64 101.681 20.672C101.201 20.6933 100.828 20.72 100.561 20.752H100.481C100.396 20.752 100.326 20.736 100.273 20.704C100.22 20.672 100.193 20.5973 100.193 20.48V19.456C100.193 19.2747 100.294 19.1627 100.497 19.12C100.817 19.056 101.201 18.9973 101.649 18.944C102.108 18.8907 102.614 18.864 103.169 18.864C104.31 18.864 105.18 19.1147 105.777 19.616C106.385 20.1173 106.689 20.8853 106.689 21.92V27.68ZM104.577 24.032H103.569C103.206 24.032 102.908 24.064 102.673 24.128C102.449 24.1813 102.268 24.2667 102.129 24.384C102.001 24.4907 101.91 24.6293 101.857 24.8C101.814 24.9707 101.793 25.168 101.793 25.392V25.456C101.793 25.8507 101.884 26.1173 102.065 26.256C102.246 26.384 102.54 26.448 102.945 26.448C103.233 26.448 103.516 26.4053 103.793 26.32C104.081 26.2347 104.342 26.128 104.577 26V24.032ZM114.495 27.504C114.495 27.632 114.473 27.728 114.431 27.792C114.388 27.8453 114.297 27.888 114.159 27.92C113.977 27.9733 113.711 28.0213 113.359 28.064C113.007 28.1067 112.585 28.128 112.095 28.128C111.572 28.128 111.087 28.048 110.639 27.888C110.201 27.728 109.817 27.488 109.487 27.168C109.167 26.8373 108.911 26.432 108.719 25.952C108.537 25.4613 108.447 24.8907 108.447 24.24V22.752C108.447 22.1013 108.537 21.536 108.719 21.056C108.911 20.5653 109.167 20.16 109.487 19.84C109.817 19.5093 110.201 19.264 110.639 19.104C111.087 18.944 111.572 18.864 112.095 18.864C112.585 18.864 113.007 18.8853 113.359 18.928C113.711 18.9707 113.977 19.0187 114.159 19.072C114.297 19.104 114.388 19.152 114.431 19.216C114.473 19.2693 114.495 19.36 114.495 19.488V20.528C114.495 20.6133 114.468 20.6773 114.415 20.72C114.361 20.752 114.292 20.768 114.207 20.768H114.159C113.999 20.7467 113.849 20.7307 113.711 20.72C113.572 20.6987 113.428 20.688 113.279 20.688C113.129 20.6773 112.959 20.672 112.767 20.672C112.575 20.6613 112.351 20.656 112.095 20.656C111.903 20.656 111.716 20.688 111.535 20.752C111.353 20.816 111.188 20.928 111.039 21.088C110.9 21.2373 110.783 21.4507 110.687 21.728C110.601 21.9947 110.559 22.336 110.559 22.752V24.24C110.559 24.656 110.601 25.0027 110.687 25.28C110.783 25.5467 110.9 25.76 111.039 25.92C111.188 26.0693 111.353 26.176 111.535 26.24C111.716 26.304 111.903 26.336 112.095 26.336C112.351 26.336 112.575 26.336 112.767 26.336C112.959 26.3253 113.129 26.32 113.279 26.32C113.428 26.3093 113.572 26.2987 113.711 26.288C113.849 26.2667 113.999 26.2453 114.159 26.224H114.207C114.292 26.224 114.361 26.2453 114.415 26.288C114.468 26.32 114.495 26.3787 114.495 26.464V27.504ZM121.291 27.728C121.291 27.888 121.19 27.984 120.987 28.016C120.795 28.048 120.608 28.0747 120.427 28.096C120.256 28.1173 120.08 28.128 119.899 28.128C119.451 28.128 119.062 28.096 118.731 28.032C118.411 27.968 118.15 27.8453 117.947 27.664C117.744 27.472 117.595 27.2107 117.499 26.88C117.403 26.5493 117.355 26.1173 117.355 25.584V20.56L115.851 20.336C115.766 20.3147 115.691 20.2773 115.627 20.224C115.563 20.1707 115.531 20.1013 115.531 20.016V19.296C115.531 19.2107 115.563 19.136 115.627 19.072C115.691 19.008 115.766 18.976 115.851 18.976H117.355V17.664C117.355 17.5787 117.387 17.5093 117.451 17.456C117.515 17.4027 117.59 17.3653 117.675 17.344L119.163 17.088H119.227C119.398 17.088 119.483 17.168 119.483 17.328V18.976H120.923C121.008 18.976 121.083 19.008 121.147 19.072C121.211 19.136 121.243 19.2107 121.243 19.296V20.24C121.243 20.3253 121.211 20.4 121.147 20.464C121.083 20.528 121.008 20.56 120.923 20.56H119.483V25.584C119.483 25.7867 119.488 25.9467 119.499 26.064C119.51 26.1813 119.536 26.272 119.579 26.336C119.622 26.4 119.686 26.4427 119.771 26.464C119.856 26.4747 119.968 26.48 120.107 26.48H120.955C121.179 26.48 121.291 26.56 121.291 26.72V27.728ZM130.111 24.144C130.111 24.72 130.026 25.2533 129.855 25.744C129.695 26.224 129.455 26.64 129.135 26.992C128.815 27.344 128.415 27.6213 127.935 27.824C127.466 28.0267 126.917 28.128 126.287 28.128C125.658 28.128 125.103 28.0267 124.623 27.824C124.154 27.6213 123.759 27.344 123.439 26.992C123.119 26.64 122.874 26.224 122.703 25.744C122.543 25.2533 122.463 24.72 122.463 24.144V22.848C122.463 22.272 122.543 21.744 122.703 21.264C122.874 20.7733 123.119 20.352 123.439 20C123.759 19.648 124.154 19.3707 124.623 19.168C125.103 18.9653 125.658 18.864 126.287 18.864C126.917 18.864 127.466 18.9653 127.935 19.168C128.415 19.3707 128.815 19.648 129.135 20C129.455 20.352 129.695 20.7733 129.855 21.264C130.026 21.744 130.111 22.272 130.111 22.848V24.144ZM127.999 22.848C127.999 22.1867 127.855 21.664 127.567 21.28C127.279 20.8853 126.853 20.688 126.287 20.688C125.722 20.688 125.295 20.8853 125.007 21.28C124.719 21.664 124.575 22.1867 124.575 22.848V24.144C124.575 24.8053 124.719 25.3333 125.007 25.728C125.295 26.112 125.722 26.304 126.287 26.304C126.853 26.304 127.279 26.112 127.567 25.728C127.855 25.3333 127.999 24.8053 127.999 24.144V22.848ZM136.563 20.336C136.563 20.4213 136.531 20.496 136.467 20.56C136.403 20.624 136.328 20.656 136.243 20.656C135.805 20.656 135.411 20.7093 135.059 20.816C134.717 20.912 134.376 21.0507 134.035 21.232V27.664C134.035 27.7493 134.003 27.8293 133.939 27.904C133.875 27.968 133.8 28 133.715 28H132.243C132.157 28 132.083 27.968 132.019 27.904C131.955 27.8293 131.923 27.7493 131.923 27.664V19.296C131.923 19.2107 131.955 19.136 132.019 19.072C132.083 19.008 132.157 18.976 132.243 18.976H133.635C133.72 18.976 133.795 19.008 133.859 19.072C133.923 19.136 133.955 19.2107 133.955 19.296V19.632C134.349 19.3227 134.749 19.12 135.155 19.024C135.56 18.9173 135.923 18.864 136.243 18.864C136.328 18.864 136.403 18.896 136.467 18.96C136.531 19.024 136.563 19.0987 136.563 19.184V20.336ZM145.443 19.248C145.443 19.2907 145.437 19.3227 145.427 19.344L142.755 28.688C142.627 29.1253 142.488 29.4987 142.339 29.808C142.189 30.128 141.992 30.3893 141.747 30.592C141.512 30.8053 141.213 30.96 140.851 31.056C140.488 31.152 140.035 31.2 139.491 31.2C139.363 31.2 139.219 31.1947 139.059 31.184C138.899 31.1733 138.739 31.1573 138.579 31.136C138.429 31.1147 138.285 31.0933 138.147 31.072C138.008 31.0507 137.891 31.024 137.795 30.992C137.709 30.9707 137.629 30.9387 137.555 30.896C137.491 30.864 137.459 30.8053 137.459 30.72V29.696C137.459 29.6107 137.491 29.5413 137.555 29.488C137.619 29.4347 137.693 29.408 137.779 29.408H137.811C137.928 29.408 138.067 29.4133 138.227 29.424C138.387 29.4347 138.547 29.4453 138.707 29.456C138.877 29.4667 139.043 29.4773 139.203 29.488C139.373 29.4987 139.512 29.504 139.619 29.504C139.96 29.504 140.227 29.4347 140.419 29.296C140.611 29.168 140.765 28.896 140.883 28.48L141.011 28H140.771C140.653 28 140.531 27.9893 140.403 27.968C140.275 27.936 140.147 27.8773 140.019 27.792C139.901 27.7067 139.784 27.5733 139.667 27.392C139.56 27.2107 139.464 26.9707 139.379 26.672L137.283 19.344C137.272 19.312 137.267 19.2747 137.267 19.232C137.267 19.0613 137.368 18.976 137.571 18.976H139.187C139.261 18.976 139.325 19.008 139.379 19.072C139.432 19.1253 139.469 19.1893 139.491 19.264L141.107 25.776C141.139 25.9147 141.171 26.0107 141.203 26.064C141.235 26.1067 141.277 26.128 141.331 26.128H141.347H141.427H141.475L143.203 19.248C143.224 19.1733 143.261 19.1093 143.315 19.056C143.368 19.0027 143.437 18.976 143.523 18.976H145.155C145.24 18.976 145.309 19.0027 145.363 19.056C145.416 19.1093 145.443 19.1733 145.443 19.248Z" fill="white"/>
<circle cx="33.5" cy="21.5" r="12.5" fill="white"/>
<circle cx="39.3099" cy="22.3811" r="1.40845" fill="#FF7E00"/>
<circle cx="27.6901" cy="22.3811" r="1.40845" fill="#FF7E00"/>
<path d="M35.8768 26.8691C35.0928 25.8727 32.9916 24.4777 30.8592 26.8691" stroke="#FF7E00" stroke-width="1.2" stroke-linecap="round"/>
<defs>
<filter id="filter0_d_23_214" x="0" y="0" width="167" height="49" filterUnits="userSpaceOnUse" color-interpolation-filters="sRGB">
<feFlood flood-opacity="0" result="BackgroundImageFix"/>
<feColorMatrix in="SourceAlpha" type="matrix" values="0 0 0 0 0 0 0 0 0 0 0 0 0 0 0 0 0 0 127 0" result="hardAlpha"/>
<feOffset dy="3"/>
<feGaussianBlur stdDeviation="3"/>
<feComposite in2="hardAlpha" operator="out"/>
<feColorMatrix type="matrix" values="0 0 0 0 0 0 0 0 0 0 0 0 0 0 0 0 0 0 0.1 0"/>
<feBlend mode="normal" in2="BackgroundImageFix" result="effect1_dropShadow_23_214"/>
<feBlend mode="normal" in="SourceGraphic" in2="effect1_dropShadow_23_214" result="shape"/>
</filter>
</defs>
</svg>
