<svg xmlns="http://www.w3.org/2000/svg" fill="none" viewBox="4 2.02 217.38 150.41">
<g filter="url(#filter0_d_23_44)">
<path d="M12.1637 90.7462C10.0422 90.1302 7.81546 91.3493 7.27776 93.492C2.64377 111.958 2.92777 131.318 8.10142 149.641C8.70174 151.767 10.9633 152.92 13.0658 152.242L26.2 148.007C28.3026 147.329 29.448 145.077 28.8672 142.946C25.0056 128.774 24.7867 113.854 28.231 99.5749C28.749 97.4274 27.538 95.2097 25.4165 94.5938L12.1637 90.7462Z" fill="#00C800"/>
</g>
<g filter="url(#filter1_d_23_44)">
<path d="M45.2503 39.8032C43.8248 38.1155 41.2956 37.8974 39.6613 39.3838C27.0052 50.8941 17.2354 65.2233 11.144 81.2095C10.3574 83.2739 11.4844 85.5487 13.5762 86.259L26.6433 90.6964C28.7351 91.4067 30.998 90.2827 31.8035 88.2256C36.5967 75.9852 44.0962 64.9858 53.7396 56.0523C55.3602 54.551 55.5799 52.0339 54.1545 50.3462L45.2503 39.8032Z" fill="#FFE12D"/>
</g>
<g filter="url(#filter2_d_23_44)">
<path d="M113 5.93183C113 3.75821 111.263 1.97259 109.09 2.02339C85.3498 2.57839 62.496 13.0039 43.7669 27.8523C41.9701 29.2767 41.8175 31.927 43.3857 33.5998L60.4064 51.7553C61.8607 53.3065 64.2694 53.442 65.9423 52.1296C78.4828 42.2915 93.1483 35.3079 108.908 34.5711C111.15 34.4663 113 32.6745 113 30.4296V5.93183Z" fill="#FF7E00"/>
</g>
<g filter="url(#filter3_d_23_44)">
<path d="M179.894 39.0883C181.302 37.3855 181.066 34.8577 179.313 33.5137C162.395 20.5449 142.042 12.8206 120.78 11.2995C118.576 11.1418 116.723 12.877 116.647 15.0848L116.167 28.8765C116.091 31.0843 117.82 32.9268 120.022 33.1046C136.477 34.4337 152.22 40.4084 165.413 50.3315C167.179 51.6593 169.695 51.428 171.102 49.7252L179.894 39.0883Z" fill="#FA0A00"/>
</g>
<g filter="url(#filter4_d_23_44)">
<path d="M213.317 148.539C215.379 149.089 217.519 147.925 218.091 145.869C222.839 128.801 222.131 113.53 217.946 96.2432C217.441 94.1578 215.346 92.889 213.252 93.3545L198.568 96.6176C196.348 97.1107 194.994 99.3516 195.508 101.566C198.545 114.643 199.047 126.572 195.671 139.49C195.093 141.7 196.348 144.014 198.555 144.603L213.317 148.539Z" fill="#7E0023"/>
</g>
<g filter="url(#filter5_d_23_44)">
<path d="M212.457 89.5322C214.663 88.9808 215.97 86.7026 215.289 84.5336C209.947 67.5139 202.747 52.1319 190.052 39.8258C188.426 38.2497 185.816 38.4813 184.39 40.2404L174.432 52.5224C173.075 54.1956 173.299 56.6355 174.847 58.1333C184.473 67.4463 189.321 77.4613 193.382 90.3456C194.028 92.3918 196.143 93.6106 198.225 93.0903L212.457 89.5322Z" fill="#8F3F97"/>
</g>
<g filter="url(#filter6_d_23_44)">
<circle cx="110.137" cy="134.427" r="10.1786" transform="rotate(-5.68594 110.137 134.427)" fill="white"/>
</g>
<path d="M86.8641 56.6585L115.233 134.429L105.602 137.293L86.8641 56.6585Z" fill="#002125"/>
<path d="M115.132 132.56C115.992 135.451 114.346 138.491 111.455 139.35C108.565 140.21 105.525 138.564 104.665 135.673C103.805 132.783 105.452 129.743 108.342 128.883C111.233 128.023 114.273 129.67 115.132 132.56Z" fill="#002125"/>
<circle cx="109.873" cy="135.462" r="2.02723" transform="rotate(-70.2548 109.873 135.462)" fill="white"/>
<defs>
<filter id="filter0_d_23_44" x="-1.90735e-06" y="88.5859" width="33.0177" height="69.8496" filterUnits="userSpaceOnUse" color-interpolation-filters="sRGB">
<feFlood flood-opacity="0" result="BackgroundImageFix"/>
<feColorMatrix in="SourceAlpha" type="matrix" values="0 0 0 0 0 0 0 0 0 0 0 0 0 0 0 0 0 0 127 0" result="hardAlpha"/>
<feOffset dy="2"/>
<feGaussianBlur stdDeviation="2"/>
<feComposite in2="hardAlpha" operator="out"/>
<feColorMatrix type="matrix" values="0 0 0 0 0 0 0 0 0 0 0 0 0 0 0 0 0 0 0.16 0"/>
<feBlend mode="normal" in2="BackgroundImageFix" result="effect1_dropShadow_23_44"/>
<feBlend mode="normal" in="SourceGraphic" in2="effect1_dropShadow_23_44" result="shape"/>
</filter>
<filter id="filter1_d_23_44" x="6.89259" y="36.3906" width="52.2091" height="60.5195" filterUnits="userSpaceOnUse" color-interpolation-filters="sRGB">
<feFlood flood-opacity="0" result="BackgroundImageFix"/>
<feColorMatrix in="SourceAlpha" type="matrix" values="0 0 0 0 0 0 0 0 0 0 0 0 0 0 0 0 0 0 127 0" result="hardAlpha"/>
<feOffset dy="2"/>
<feGaussianBlur stdDeviation="2"/>
<feComposite in2="hardAlpha" operator="out"/>
<feColorMatrix type="matrix" values="0 0 0 0 0 0 0 0 0 0 0 0 0 0 0 0 0 0 0.16 0"/>
<feBlend mode="normal" in2="BackgroundImageFix" result="effect1_dropShadow_23_44"/>
<feBlend mode="normal" in="SourceGraphic" in2="effect1_dropShadow_23_44" result="shape"/>
</filter>
<filter id="filter2_d_23_44" x="38.3065" y="0.0214844" width="78.6935" height="59.0039" filterUnits="userSpaceOnUse" color-interpolation-filters="sRGB">
<feFlood flood-opacity="0" result="BackgroundImageFix"/>
<feColorMatrix in="SourceAlpha" type="matrix" values="0 0 0 0 0 0 0 0 0 0 0 0 0 0 0 0 0 0 127 0" result="hardAlpha"/>
<feOffset dy="2"/>
<feGaussianBlur stdDeviation="2"/>
<feComposite in2="hardAlpha" operator="out"/>
<feColorMatrix type="matrix" values="0 0 0 0 0 0 0 0 0 0 0 0 0 0 0 0 0 0 0.16 0"/>
<feBlend mode="normal" in2="BackgroundImageFix" result="effect1_dropShadow_23_44"/>
<feBlend mode="normal" in="SourceGraphic" in2="effect1_dropShadow_23_44" result="shape"/>
</filter>
<filter id="filter3_d_23_44" x="112.165" y="10.2891" width="72.6437" height="47.8965" filterUnits="userSpaceOnUse" color-interpolation-filters="sRGB">
<feFlood flood-opacity="0" result="BackgroundImageFix"/>
<feColorMatrix in="SourceAlpha" type="matrix" values="0 0 0 0 0 0 0 0 0 0 0 0 0 0 0 0 0 0 127 0" result="hardAlpha"/>
<feOffset dy="3"/>
<feGaussianBlur stdDeviation="2"/>
<feComposite in2="hardAlpha" operator="out"/>
<feColorMatrix type="matrix" values="0 0 0 0 0 0 0 0 0 0 0 0 0 0 0 0 0 0 0.2 0"/>
<feBlend mode="normal" in2="BackgroundImageFix" result="effect1_dropShadow_23_44"/>
<feBlend mode="normal" in="SourceGraphic" in2="effect1_dropShadow_23_44" result="shape"/>
</filter>
<filter id="filter4_d_23_44" x="191.399" y="91.2578" width="33.9768" height="63.418" filterUnits="userSpaceOnUse" color-interpolation-filters="sRGB">
<feFlood flood-opacity="0" result="BackgroundImageFix"/>
<feColorMatrix in="SourceAlpha" type="matrix" values="0 0 0 0 0 0 0 0 0 0 0 0 0 0 0 0 0 0 127 0" result="hardAlpha"/>
<feOffset dy="2"/>
<feGaussianBlur stdDeviation="2"/>
<feComposite in2="hardAlpha" operator="out"/>
<feColorMatrix type="matrix" values="0 0 0 0 0 0 0 0 0 0 0 0 0 0 0 0 0 0 0.16 0"/>
<feBlend mode="normal" in2="BackgroundImageFix" result="effect1_dropShadow_23_44"/>
<feBlend mode="normal" in="SourceGraphic" in2="effect1_dropShadow_23_44" result="shape"/>
</filter>
<filter id="filter5_d_23_44" x="169.537" y="36.7715" width="49.933" height="62.4395" filterUnits="userSpaceOnUse" color-interpolation-filters="sRGB">
<feFlood flood-opacity="0" result="BackgroundImageFix"/>
<feColorMatrix in="SourceAlpha" type="matrix" values="0 0 0 0 0 0 0 0 0 0 0 0 0 0 0 0 0 0 127 0" result="hardAlpha"/>
<feOffset dy="2"/>
<feGaussianBlur stdDeviation="2"/>
<feComposite in2="hardAlpha" operator="out"/>
<feColorMatrix type="matrix" values="0 0 0 0 0 0 0 0 0 0 0 0 0 0 0 0 0 0 0.16 0"/>
<feBlend mode="normal" in2="BackgroundImageFix" result="effect1_dropShadow_23_44"/>
<feBlend mode="normal" in="SourceGraphic" in2="effect1_dropShadow_23_44" result="shape"/>
</filter>
<filter id="filter6_d_23_44" x="97.9576" y="124.248" width="24.3587" height="24.3574" filterUnits="userSpaceOnUse" color-interpolation-filters="sRGB">
<feFlood flood-opacity="0" result="BackgroundImageFix"/>
<feColorMatrix in="SourceAlpha" type="matrix" values="0 0 0 0 0 0 0 0 0 0 0 0 0 0 0 0 0 0 127 0" result="hardAlpha"/>
<feOffset dy="2"/>
<feGaussianBlur stdDeviation="1"/>
<feComposite in2="hardAlpha" operator="out"/>
<feColorMatrix type="matrix" values="0 0 0 0 0 0 0 0 0 0 0 0 0 0 0 0 0 0 0.12 0"/>
<feBlend mode="normal" in2="BackgroundImageFix" result="effect1_dropShadow_23_44"/>
<feBlend mode="normal" in="SourceGraphic" in2="effect1_dropShadow_23_44" result="shape"/>
</filter>
</defs>
</svg>