<svg xmlns="http://www.w3.org/2000/svg" fill="none" viewBox="4 1.69 217.38 145.72">
<g filter="url(#filter0_d_23_86)">
<path d="M12.1637 85.7247C10.0422 85.1088 7.81546 86.3278 7.27776 88.4705C2.64377 106.937 2.92777 126.297 8.10142 144.619C8.70174 146.745 10.9633 147.898 13.0658 147.22L26.2 142.986C28.3026 142.308 29.448 140.056 28.8672 137.924C25.0056 123.752 24.7867 108.832 28.231 94.5534C28.749 92.4059 27.538 90.1882 25.4165 89.5723L12.1637 85.7247Z" fill="#00C800"/>
</g>
<g filter="url(#filter1_d_23_86)">
<path d="M45.2503 34.7817C43.8248 33.094 41.2956 32.8759 39.6613 34.3623C27.0052 45.8727 17.2354 60.2019 11.144 76.1881C10.3574 78.2524 11.4844 80.5272 13.5762 81.2375L26.6433 85.6749C28.7351 86.3852 30.998 85.2612 31.8035 83.2041C36.5967 70.9637 44.0962 59.9643 53.7396 51.0309C55.3602 49.5296 55.5799 47.0124 54.1545 45.3247L45.2503 34.7817Z" fill="#FFE12D"/>
</g>
<g filter="url(#filter2_d_23_86)">
<path d="M113 10C113 7.79086 111.208 5.99234 109.001 6.07336C88.0418 6.84261 67.7467 13.6438 50.5566 25.6589C48.7459 26.9245 48.3997 29.4395 49.7308 31.2026L58.0462 42.2159C59.3773 43.979 61.8809 44.3207 63.7031 43.0718C77.0939 33.894 92.7841 28.6359 109.001 27.8917C111.208 27.7904 113 26.0091 113 23.8L113 10Z" fill="#FF7E00"/>
</g>
<g filter="url(#filter3_d_23_86)">
<path d="M121.209 5.32138C121.382 3.11901 123.309 1.46606 125.503 1.71944C145.661 4.04675 164.771 11.9563 180.677 24.5553C182.409 25.9269 182.604 28.4581 181.17 30.1383L165.134 48.9248C163.699 50.6051 161.181 50.7952 159.427 49.451C148.802 41.3038 136.218 36.0953 122.943 34.3506C120.753 34.0628 119.105 32.1482 119.278 29.9458L121.209 5.32138Z" fill="#FA0A00"/>
</g>
<g filter="url(#filter4_d_23_86)">
<path d="M213.317 143.518C215.379 144.068 217.519 142.904 218.091 140.847C222.839 123.779 222.131 108.508 217.946 91.2217C217.441 89.1363 215.346 87.8675 213.252 88.333L198.568 91.5961C196.348 92.0892 194.994 94.3301 195.508 96.5444C198.545 109.622 199.047 121.551 195.671 134.468C195.093 136.678 196.348 138.993 198.556 139.581L213.317 143.518Z" fill="#7E0023"/>
</g>
<g filter="url(#filter5_d_23_86)">
<path d="M212.457 84.5107C214.663 83.9593 215.97 81.6811 215.289 79.5121C209.947 62.4924 202.747 47.1104 190.052 34.8044C188.426 33.2282 185.816 33.4599 184.39 35.2189L174.432 47.5009C173.075 49.1742 173.299 51.614 174.847 53.1118C184.473 62.4249 189.32 72.4398 193.382 85.3241C194.028 87.3703 196.143 88.5891 198.225 88.0688L212.457 84.5107Z" fill="#8F3F97"/>
</g>
<g filter="url(#filter6_d_23_86)">
<circle cx="110.137" cy="129.403" r="10.1786" transform="rotate(-5.68594 110.137 129.403)" fill="white"/>
</g>
<path d="M133.068 50.2076L115.76 131.162L106.08 128.468L133.068 50.2076Z" fill="#002125"/>
<path d="M116.668 129.525C115.86 132.43 112.85 134.13 109.944 133.322C107.039 132.514 105.339 129.503 106.147 126.598C106.956 123.693 109.966 121.993 112.871 122.801C115.777 123.609 117.477 126.62 116.668 129.525Z" fill="#002125"/>
<circle cx="110.671" cy="129.19" r="2.02723" transform="rotate(-38.1462 110.671 129.19)" fill="white"/>
<defs>
<filter id="filter0_d_23_86" x="0" y="83.5645" width="33.0176" height="69.8496" filterUnits="userSpaceOnUse" color-interpolation-filters="sRGB">
<feFlood flood-opacity="0" result="BackgroundImageFix"/>
<feColorMatrix in="SourceAlpha" type="matrix" values="0 0 0 0 0 0 0 0 0 0 0 0 0 0 0 0 0 0 127 0" result="hardAlpha"/>
<feOffset dy="2"/>
<feGaussianBlur stdDeviation="2"/>
<feComposite in2="hardAlpha" operator="out"/>
<feColorMatrix type="matrix" values="0 0 0 0 0 0 0 0 0 0 0 0 0 0 0 0 0 0 0.16 0"/>
<feBlend mode="normal" in2="BackgroundImageFix" result="effect1_dropShadow_23_86"/>
<feBlend mode="normal" in="SourceGraphic" in2="effect1_dropShadow_23_86" result="shape"/>
</filter>
<filter id="filter1_d_23_86" x="6.89258" y="31.3691" width="52.2091" height="60.5195" filterUnits="userSpaceOnUse" color-interpolation-filters="sRGB">
<feFlood flood-opacity="0" result="BackgroundImageFix"/>
<feColorMatrix in="SourceAlpha" type="matrix" values="0 0 0 0 0 0 0 0 0 0 0 0 0 0 0 0 0 0 127 0" result="hardAlpha"/>
<feOffset dy="2"/>
<feGaussianBlur stdDeviation="2"/>
<feComposite in2="hardAlpha" operator="out"/>
<feColorMatrix type="matrix" values="0 0 0 0 0 0 0 0 0 0 0 0 0 0 0 0 0 0 0.16 0"/>
<feBlend mode="normal" in2="BackgroundImageFix" result="effect1_dropShadow_23_86"/>
<feBlend mode="normal" in="SourceGraphic" in2="effect1_dropShadow_23_86" result="shape"/>
</filter>
<filter id="filter2_d_23_86" x="44.9247" y="4.07031" width="72.0753" height="45.748" filterUnits="userSpaceOnUse" color-interpolation-filters="sRGB">
<feFlood flood-opacity="0" result="BackgroundImageFix"/>
<feColorMatrix in="SourceAlpha" type="matrix" values="0 0 0 0 0 0 0 0 0 0 0 0 0 0 0 0 0 0 127 0" result="hardAlpha"/>
<feOffset dy="2"/>
<feGaussianBlur stdDeviation="2"/>
<feComposite in2="hardAlpha" operator="out"/>
<feColorMatrix type="matrix" values="0 0 0 0 0 0 0 0 0 0 0 0 0 0 0 0 0 0 0.16 0"/>
<feBlend mode="normal" in2="BackgroundImageFix" result="effect1_dropShadow_23_86"/>
<feBlend mode="normal" in="SourceGraphic" in2="effect1_dropShadow_23_86" result="shape"/>
</filter>
<filter id="filter3_d_23_86" x="115.265" y="0.693359" width="70.8593" height="56.6445" filterUnits="userSpaceOnUse" color-interpolation-filters="sRGB">
<feFlood flood-opacity="0" result="BackgroundImageFix"/>
<feColorMatrix in="SourceAlpha" type="matrix" values="0 0 0 0 0 0 0 0 0 0 0 0 0 0 0 0 0 0 127 0" result="hardAlpha"/>
<feOffset dy="3"/>
<feGaussianBlur stdDeviation="2"/>
<feComposite in2="hardAlpha" operator="out"/>
<feColorMatrix type="matrix" values="0 0 0 0 0 0 0 0 0 0 0 0 0 0 0 0 0 0 0.2 0"/>
<feBlend mode="normal" in2="BackgroundImageFix" result="effect1_dropShadow_23_86"/>
<feBlend mode="normal" in="SourceGraphic" in2="effect1_dropShadow_23_86" result="shape"/>
</filter>
<filter id="filter4_d_23_86" x="191.399" y="86.2363" width="33.9768" height="63.418" filterUnits="userSpaceOnUse" color-interpolation-filters="sRGB">
<feFlood flood-opacity="0" result="BackgroundImageFix"/>
<feColorMatrix in="SourceAlpha" type="matrix" values="0 0 0 0 0 0 0 0 0 0 0 0 0 0 0 0 0 0 127 0" result="hardAlpha"/>
<feOffset dy="2"/>
<feGaussianBlur stdDeviation="2"/>
<feComposite in2="hardAlpha" operator="out"/>
<feColorMatrix type="matrix" values="0 0 0 0 0 0 0 0 0 0 0 0 0 0 0 0 0 0 0.16 0"/>
<feBlend mode="normal" in2="BackgroundImageFix" result="effect1_dropShadow_23_86"/>
<feBlend mode="normal" in="SourceGraphic" in2="effect1_dropShadow_23_86" result="shape"/>
</filter>
<filter id="filter5_d_23_86" x="169.537" y="31.75" width="49.933" height="62.4395" filterUnits="userSpaceOnUse" color-interpolation-filters="sRGB">
<feFlood flood-opacity="0" result="BackgroundImageFix"/>
<feColorMatrix in="SourceAlpha" type="matrix" values="0 0 0 0 0 0 0 0 0 0 0 0 0 0 0 0 0 0 127 0" result="hardAlpha"/>
<feOffset dy="2"/>
<feGaussianBlur stdDeviation="2"/>
<feComposite in2="hardAlpha" operator="out"/>
<feColorMatrix type="matrix" values="0 0 0 0 0 0 0 0 0 0 0 0 0 0 0 0 0 0 0.16 0"/>
<feBlend mode="normal" in2="BackgroundImageFix" result="effect1_dropShadow_23_86"/>
<feBlend mode="normal" in="SourceGraphic" in2="effect1_dropShadow_23_86" result="shape"/>
</filter>
<filter id="filter6_d_23_86" x="97.9576" y="119.225" width="24.3586" height="24.3574" filterUnits="userSpaceOnUse" color-interpolation-filters="sRGB">
<feFlood flood-opacity="0" result="BackgroundImageFix"/>
<feColorMatrix in="SourceAlpha" type="matrix" values="0 0 0 0 0 0 0 0 0 0 0 0 0 0 0 0 0 0 127 0" result="hardAlpha"/>
<feOffset dy="2"/>
<feGaussianBlur stdDeviation="1"/>
<feComposite in2="hardAlpha" operator="out"/>
<feColorMatrix type="matrix" values="0 0 0 0 0 0 0 0 0 0 0 0 0 0 0 0 0 0 0.12 0"/>
<feBlend mode="normal" in2="BackgroundImageFix" result="effect1_dropShadow_23_86"/>
<feBlend mode="normal" in="SourceGraphic" in2="effect1_dropShadow_23_86" result="shape"/>
</filter>
</defs>
</svg>