<svg xmlns="http://www.w3.org/2000/svg" fill="none" viewBox="4 2.07 217.38 141.34">
<g filter="url(#filter0_d_23_72)">
<path d="M12.1637 81.7247C10.0422 81.1088 7.81546 82.3278 7.27776 84.4705C2.64377 102.937 2.92777 122.297 8.10142 140.619C8.70174 142.745 10.9633 143.898 13.0658 143.22L26.2 138.986C28.3026 138.308 29.448 136.056 28.8672 133.924C25.0056 119.752 24.7867 104.832 28.231 90.5534C28.749 88.4059 27.538 86.1882 25.4165 85.5723L12.1637 81.7247Z" fill="#00C800"/>
</g>
<g filter="url(#filter1_d_23_72)">
<path d="M45.2503 30.7817C43.8248 29.094 41.2956 28.8759 39.6613 30.3623C27.0052 41.8727 17.2354 56.2019 11.144 72.1881C10.3574 74.2524 11.4844 76.5272 13.5762 77.2375L26.6433 81.6749C28.7351 82.3852 30.998 81.2612 31.8035 79.2041C36.5967 66.9637 44.0962 55.9643 53.7396 47.0309C55.3602 45.5296 55.5799 43.0124 54.1545 41.3247L45.2503 30.7817Z" fill="#FFE12D"/>
</g>
<g filter="url(#filter2_d_23_72)">
<path d="M113 6C113 3.79086 111.208 1.99234 109.001 2.07336C87.8891 2.8482 67.4544 9.74307 50.1891 21.9169C48.3836 23.19 48.0477 25.7064 49.3861 27.4639L57.7468 38.4429C59.0852 40.2005 61.5901 40.5319 63.4072 39.2755C76.8605 29.9732 92.6621 24.6415 109.001 23.8917C111.208 23.7904 113 22.0091 113 19.8L113 6Z" fill="#FF7E00"/>
</g>
<g filter="url(#filter3_d_23_72)">
<path d="M175.355 26.5201C176.667 24.7427 176.294 22.2317 174.469 20.9859C158.648 10.1818 140.257 3.73795 121.152 2.30527C118.949 2.14006 117.091 3.86892 117.006 6.07646L116.48 19.8664C116.395 22.0739 118.118 23.9223 120.32 24.1077C135.051 25.3485 149.228 30.3155 161.512 38.5405C163.348 39.7695 165.848 39.4006 167.16 37.6232L175.355 26.5201Z" fill="#FA0A00"/>
</g>
<g filter="url(#filter4_d_23_72)">
<path d="M179.251 27.1888C180.582 25.4255 183.095 25.0692 184.809 26.4637C200.546 39.2729 212.397 56.2236 219.023 75.4025C219.745 77.4905 218.547 79.7289 216.434 80.3733L192.808 87.5778C190.695 88.2222 188.47 87.027 187.716 84.9506C183.145 72.3659 175.341 61.2038 165.091 52.5895C163.4 51.1682 163.041 48.6677 164.372 46.9044L179.251 27.1888Z" fill="#8F3F97"/>
</g>
<g filter="url(#filter5_d_23_72)">
<path d="M213.317 139.518C215.379 140.068 217.519 138.904 218.091 136.847C222.839 119.779 222.131 104.508 217.946 87.2217C217.441 85.1363 215.346 83.8675 213.252 84.333L198.568 87.5961C196.348 88.0892 194.994 90.3301 195.508 92.5444C198.545 105.622 199.047 117.551 195.671 130.468C195.093 132.678 196.348 134.993 198.555 135.581L213.317 139.518Z" fill="#7E0023"/>
</g>
<g filter="url(#filter6_d_23_72)">
<circle cx="110.137" cy="125.405" r="10.1786" transform="rotate(-5.68594 110.137 125.405)" fill="white"/>
</g>
<path d="M171.379 72.2888L113.261 131.241L106.547 123.765L171.379 72.2888Z" fill="#002125"/>
<path d="M114.907 130.349C112.663 132.364 109.211 132.179 107.196 129.936C105.181 127.692 105.366 124.24 107.61 122.225C109.853 120.21 113.305 120.395 115.32 122.638C117.335 124.882 117.15 128.334 114.907 130.349Z" fill="#002125"/>
<circle cx="110.031" cy="126.84" r="2.02723" transform="rotate(-5.62216 110.031 126.84)" fill="white"/>
<defs>
<filter id="filter0_d_23_72" x="0" y="79.5645" width="33.0177" height="69.8496" filterUnits="userSpaceOnUse" color-interpolation-filters="sRGB">
<feFlood flood-opacity="0" result="BackgroundImageFix"/>
<feColorMatrix in="SourceAlpha" type="matrix" values="0 0 0 0 0 0 0 0 0 0 0 0 0 0 0 0 0 0 127 0" result="hardAlpha"/>
<feOffset dy="2"/>
<feGaussianBlur stdDeviation="2"/>
<feComposite in2="hardAlpha" operator="out"/>
<feColorMatrix type="matrix" values="0 0 0 0 0 0 0 0 0 0 0 0 0 0 0 0 0 0 0.16 0"/>
<feBlend mode="normal" in2="BackgroundImageFix" result="effect1_dropShadow_23_72"/>
<feBlend mode="normal" in="SourceGraphic" in2="effect1_dropShadow_23_72" result="shape"/>
</filter>
<filter id="filter1_d_23_72" x="6.89258" y="27.3691" width="52.2091" height="60.5195" filterUnits="userSpaceOnUse" color-interpolation-filters="sRGB">
<feFlood flood-opacity="0" result="BackgroundImageFix"/>
<feColorMatrix in="SourceAlpha" type="matrix" values="0 0 0 0 0 0 0 0 0 0 0 0 0 0 0 0 0 0 127 0" result="hardAlpha"/>
<feOffset dy="2"/>
<feGaussianBlur stdDeviation="2"/>
<feComposite in2="hardAlpha" operator="out"/>
<feColorMatrix type="matrix" values="0 0 0 0 0 0 0 0 0 0 0 0 0 0 0 0 0 0 0.16 0"/>
<feBlend mode="normal" in2="BackgroundImageFix" result="effect1_dropShadow_23_72"/>
<feBlend mode="normal" in="SourceGraphic" in2="effect1_dropShadow_23_72" result="shape"/>
</filter>
<filter id="filter2_d_23_72" x="44.5701" y="0.0703125" width="72.4299" height="45.9609" filterUnits="userSpaceOnUse" color-interpolation-filters="sRGB">
<feFlood flood-opacity="0" result="BackgroundImageFix"/>
<feColorMatrix in="SourceAlpha" type="matrix" values="0 0 0 0 0 0 0 0 0 0 0 0 0 0 0 0 0 0 127 0" result="hardAlpha"/>
<feOffset dy="2"/>
<feGaussianBlur stdDeviation="2"/>
<feComposite in2="hardAlpha" operator="out"/>
<feColorMatrix type="matrix" values="0 0 0 0 0 0 0 0 0 0 0 0 0 0 0 0 0 0 0.16 0"/>
<feBlend mode="normal" in2="BackgroundImageFix" result="effect1_dropShadow_23_72"/>
<feBlend mode="normal" in="SourceGraphic" in2="effect1_dropShadow_23_72" result="shape"/>
</filter>
<filter id="filter3_d_23_72" x="112.477" y="1.29492" width="67.6586" height="44.9648" filterUnits="userSpaceOnUse" color-interpolation-filters="sRGB">
<feFlood flood-opacity="0" result="BackgroundImageFix"/>
<feColorMatrix in="SourceAlpha" type="matrix" values="0 0 0 0 0 0 0 0 0 0 0 0 0 0 0 0 0 0 127 0" result="hardAlpha"/>
<feOffset dy="3"/>
<feGaussianBlur stdDeviation="2"/>
<feComposite in2="hardAlpha" operator="out"/>
<feColorMatrix type="matrix" values="0 0 0 0 0 0 0 0 0 0 0 0 0 0 0 0 0 0 0.2 0"/>
<feBlend mode="normal" in2="BackgroundImageFix" result="effect1_dropShadow_23_72"/>
<feBlend mode="normal" in="SourceGraphic" in2="effect1_dropShadow_23_72" result="shape"/>
</filter>
<filter id="filter4_d_23_72" x="159.562" y="24.6074" width="63.6717" height="70.1445" filterUnits="userSpaceOnUse" color-interpolation-filters="sRGB">
<feFlood flood-opacity="0" result="BackgroundImageFix"/>
<feColorMatrix in="SourceAlpha" type="matrix" values="0 0 0 0 0 0 0 0 0 0 0 0 0 0 0 0 0 0 127 0" result="hardAlpha"/>
<feOffset dy="3"/>
<feGaussianBlur stdDeviation="2"/>
<feComposite in2="hardAlpha" operator="out"/>
<feColorMatrix type="matrix" values="0 0 0 0 0 0 0 0 0 0 0 0 0 0 0 0 0 0 0.2 0"/>
<feBlend mode="normal" in2="BackgroundImageFix" result="effect1_dropShadow_23_72"/>
<feBlend mode="normal" in="SourceGraphic" in2="effect1_dropShadow_23_72" result="shape"/>
</filter>
<filter id="filter5_d_23_72" x="191.399" y="82.2363" width="33.9768" height="63.418" filterUnits="userSpaceOnUse" color-interpolation-filters="sRGB">
<feFlood flood-opacity="0" result="BackgroundImageFix"/>
<feColorMatrix in="SourceAlpha" type="matrix" values="0 0 0 0 0 0 0 0 0 0 0 0 0 0 0 0 0 0 127 0" result="hardAlpha"/>
<feOffset dy="2"/>
<feGaussianBlur stdDeviation="2"/>
<feComposite in2="hardAlpha" operator="out"/>
<feColorMatrix type="matrix" values="0 0 0 0 0 0 0 0 0 0 0 0 0 0 0 0 0 0 0.16 0"/>
<feBlend mode="normal" in2="BackgroundImageFix" result="effect1_dropShadow_23_72"/>
<feBlend mode="normal" in="SourceGraphic" in2="effect1_dropShadow_23_72" result="shape"/>
</filter>
<filter id="filter6_d_23_72" x="97.9576" y="115.227" width="24.3586" height="24.3574" filterUnits="userSpaceOnUse" color-interpolation-filters="sRGB">
<feFlood flood-opacity="0" result="BackgroundImageFix"/>
<feColorMatrix in="SourceAlpha" type="matrix" values="0 0 0 0 0 0 0 0 0 0 0 0 0 0 0 0 0 0 127 0" result="hardAlpha"/>
<feOffset dy="2"/>
<feGaussianBlur stdDeviation="1"/>
<feComposite in2="hardAlpha" operator="out"/>
<feColorMatrix type="matrix" values="0 0 0 0 0 0 0 0 0 0 0 0 0 0 0 0 0 0 0.12 0"/>
<feBlend mode="normal" in2="BackgroundImageFix" result="effect1_dropShadow_23_72"/>
<feBlend mode="normal" in="SourceGraphic" in2="effect1_dropShadow_23_72" result="shape"/>
</filter>
</defs>
</svg>