<svg width="226" height="222" viewBox="0 0 226 222" fill="none" xmlns="http://www.w3.org/2000/svg">
<g filter="url(#filter0_d_23_30)">
<path d="M12.1637 83.7247C10.0422 83.1088 7.81546 84.3278 7.27776 86.4705C2.64377 104.937 2.92777 124.297 8.10142 142.619C8.70174 144.745 10.9633 145.898 13.0658 145.22L26.2 140.986C28.3026 140.308 29.448 138.056 28.8672 135.924C25.0056 121.752 24.7867 106.832 28.231 92.5534C28.749 90.4059 27.538 88.1882 25.4165 87.5723L12.1637 83.7247Z" fill="#00C800"/>
</g>
<g filter="url(#filter1_d_23_30)">
<path d="M11.2126 79.5567C9.09214 78.9372 7.86819 76.7131 8.56502 74.6167C14.9656 55.3612 26.6162 38.2722 42.2019 25.2788C43.8987 23.8642 46.4163 24.1909 47.7677 25.9385L62.8776 45.4777C64.229 47.2253 63.9 49.7298 62.2256 51.1709C52.0777 59.9051 44.4056 71.1583 39.983 83.7959C39.2533 85.881 37.0422 87.1023 34.9217 86.4829L11.2126 79.5567Z" fill="#FFE12D"/>
</g>
<g filter="url(#filter2_d_23_30)">
<path d="M113 8C113 5.79086 111.208 3.99233 109.001 4.07337C90.2293 4.76238 71.9522 10.2918 55.9468 20.124C54.0645 21.2804 53.5704 23.7704 54.795 25.609L62.4448 37.0947C63.6694 38.9334 66.1484 39.4225 68.0412 38.2835C80.4527 30.8151 94.5312 26.5558 109.001 25.8917C111.208 25.7904 113 24.0091 113 21.8L113 8Z" fill="#FF7E00"/>
</g>
<g filter="url(#filter3_d_23_30)">
<path d="M179.894 32.0668C181.302 30.3641 181.066 27.8362 179.313 26.4922C162.395 13.5234 142.042 5.79915 120.78 4.27797C118.576 4.12032 116.723 5.85553 116.647 8.06334L116.167 21.855C116.091 24.0628 117.82 25.9053 120.022 26.0831C136.477 27.4122 152.22 33.3869 165.413 43.31C167.179 44.6378 169.695 44.4066 171.102 42.7038L179.894 32.0668Z" fill="#FA0A00"/>
</g>
<g filter="url(#filter4_d_23_30)">
<path d="M213.317 141.518C215.379 142.068 217.519 140.904 218.091 138.847C222.839 121.779 222.131 106.508 217.946 89.2217C217.441 87.1363 215.346 85.8675 213.252 86.333L198.568 89.5961C196.348 90.0892 194.994 92.3301 195.508 94.5444C198.545 107.622 199.047 119.551 195.671 132.468C195.093 134.678 196.348 136.993 198.556 137.581L213.317 141.518Z" fill="#7E0023"/>
</g>
<g filter="url(#filter5_d_23_30)">
<path d="M212.457 82.5107C214.663 81.9593 215.97 79.6811 215.289 77.5121C209.947 60.4924 202.747 45.1104 190.052 32.8044C188.426 31.2282 185.816 31.4599 184.39 33.2189L174.432 45.5009C173.075 47.1742 173.299 49.614 174.847 51.1118C184.473 60.4249 189.32 70.4398 193.382 83.3241C194.028 85.3703 196.143 86.5891 198.225 86.0688L212.457 82.5107Z" fill="#8F3F97"/>
</g>
<g filter="url(#filter6_d_23_30)">
<circle cx="110.137" cy="127.403" r="10.1786" transform="rotate(-5.68594 110.137 127.403)" fill="white"/>
</g>
<path d="M52.7591 70.0976L114.608 125.123L107.485 132.211L52.7591 70.0976Z" fill="#002125"/>
<path d="M113.633 123.526C115.76 125.663 115.752 129.12 113.614 131.247C111.477 133.375 108.02 133.366 105.892 131.229C103.765 129.091 103.774 125.634 105.911 123.507C108.049 121.38 111.506 121.388 113.633 123.526Z" fill="#002125"/>
<circle cx="110.379" cy="128.575" r="2.02723" transform="rotate(-98.555 110.379 128.575)" fill="white"/>
<defs>
<filter id="filter0_d_23_30" x="0" y="81.5645" width="33.0177" height="69.8496" filterUnits="userSpaceOnUse" color-interpolation-filters="sRGB">
<feFlood flood-opacity="0" result="BackgroundImageFix"/>
<feColorMatrix in="SourceAlpha" type="matrix" values="0 0 0 0 0 0 0 0 0 0 0 0 0 0 0 0 0 0 127 0" result="hardAlpha"/>
<feOffset dy="2"/>
<feGaussianBlur stdDeviation="2"/>
<feComposite in2="hardAlpha" operator="out"/>
<feColorMatrix type="matrix" values="0 0 0 0 0 0 0 0 0 0 0 0 0 0 0 0 0 0 0.16 0"/>
<feBlend mode="normal" in2="BackgroundImageFix" result="effect1_dropShadow_23_30"/>
<feBlend mode="normal" in="SourceGraphic" in2="effect1_dropShadow_23_30" result="shape"/>
</filter>
<filter id="filter1_d_23_30" x="4.3688" y="22.3945" width="63.3471" height="70.25" filterUnits="userSpaceOnUse" color-interpolation-filters="sRGB">
<feFlood flood-opacity="0" result="BackgroundImageFix"/>
<feColorMatrix in="SourceAlpha" type="matrix" values="0 0 0 0 0 0 0 0 0 0 0 0 0 0 0 0 0 0 127 0" result="hardAlpha"/>
<feOffset dy="2"/>
<feGaussianBlur stdDeviation="2"/>
<feComposite in2="hardAlpha" operator="out"/>
<feColorMatrix type="matrix" values="0 0 0 0 0 0 0 0 0 0 0 0 0 0 0 0 0 0 0.16 0"/>
<feBlend mode="normal" in2="BackgroundImageFix" result="effect1_dropShadow_23_30"/>
<feBlend mode="normal" in="SourceGraphic" in2="effect1_dropShadow_23_30" result="shape"/>
</filter>
<filter id="filter2_d_23_30" x="50.1248" y="2.07031" width="66.8752" height="42.8242" filterUnits="userSpaceOnUse" color-interpolation-filters="sRGB">
<feFlood flood-opacity="0" result="BackgroundImageFix"/>
<feColorMatrix in="SourceAlpha" type="matrix" values="0 0 0 0 0 0 0 0 0 0 0 0 0 0 0 0 0 0 127 0" result="hardAlpha"/>
<feOffset dy="2"/>
<feGaussianBlur stdDeviation="2"/>
<feComposite in2="hardAlpha" operator="out"/>
<feColorMatrix type="matrix" values="0 0 0 0 0 0 0 0 0 0 0 0 0 0 0 0 0 0 0.16 0"/>
<feBlend mode="normal" in2="BackgroundImageFix" result="effect1_dropShadow_23_30"/>
<feBlend mode="normal" in="SourceGraphic" in2="effect1_dropShadow_23_30" result="shape"/>
</filter>
<filter id="filter3_d_23_30" x="112.165" y="3.26758" width="72.6437" height="47.8965" filterUnits="userSpaceOnUse" color-interpolation-filters="sRGB">
<feFlood flood-opacity="0" result="BackgroundImageFix"/>
<feColorMatrix in="SourceAlpha" type="matrix" values="0 0 0 0 0 0 0 0 0 0 0 0 0 0 0 0 0 0 127 0" result="hardAlpha"/>
<feOffset dy="3"/>
<feGaussianBlur stdDeviation="2"/>
<feComposite in2="hardAlpha" operator="out"/>
<feColorMatrix type="matrix" values="0 0 0 0 0 0 0 0 0 0 0 0 0 0 0 0 0 0 0.2 0"/>
<feBlend mode="normal" in2="BackgroundImageFix" result="effect1_dropShadow_23_30"/>
<feBlend mode="normal" in="SourceGraphic" in2="effect1_dropShadow_23_30" result="shape"/>
</filter>
<filter id="filter4_d_23_30" x="191.399" y="84.2363" width="33.9768" height="63.418" filterUnits="userSpaceOnUse" color-interpolation-filters="sRGB">
<feFlood flood-opacity="0" result="BackgroundImageFix"/>
<feColorMatrix in="SourceAlpha" type="matrix" values="0 0 0 0 0 0 0 0 0 0 0 0 0 0 0 0 0 0 127 0" result="hardAlpha"/>
<feOffset dy="2"/>
<feGaussianBlur stdDeviation="2"/>
<feComposite in2="hardAlpha" operator="out"/>
<feColorMatrix type="matrix" values="0 0 0 0 0 0 0 0 0 0 0 0 0 0 0 0 0 0 0.16 0"/>
<feBlend mode="normal" in2="BackgroundImageFix" result="effect1_dropShadow_23_30"/>
<feBlend mode="normal" in="SourceGraphic" in2="effect1_dropShadow_23_30" result="shape"/>
</filter>
<filter id="filter5_d_23_30" x="169.537" y="29.75" width="49.933" height="62.4395" filterUnits="userSpaceOnUse" color-interpolation-filters="sRGB">
<feFlood flood-opacity="0" result="BackgroundImageFix"/>
<feColorMatrix in="SourceAlpha" type="matrix" values="0 0 0 0 0 0 0 0 0 0 0 0 0 0 0 0 0 0 127 0" result="hardAlpha"/>
<feOffset dy="2"/>
<feGaussianBlur stdDeviation="2"/>
<feComposite in2="hardAlpha" operator="out"/>
<feColorMatrix type="matrix" values="0 0 0 0 0 0 0 0 0 0 0 0 0 0 0 0 0 0 0.16 0"/>
<feBlend mode="normal" in2="BackgroundImageFix" result="effect1_dropShadow_23_30"/>
<feBlend mode="normal" in="SourceGraphic" in2="effect1_dropShadow_23_30" result="shape"/>
</filter>
<filter id="filter6_d_23_30" x="97.9575" y="117.225" width="24.3586" height="24.3574" filterUnits="userSpaceOnUse" color-interpolation-filters="sRGB">
<feFlood flood-opacity="0" result="BackgroundImageFix"/>
<feColorMatrix in="SourceAlpha" type="matrix" values="0 0 0 0 0 0 0 0 0 0 0 0 0 0 0 0 0 0 127 0" result="hardAlpha"/>
<feOffset dy="2"/>
<feGaussianBlur stdDeviation="1"/>
<feComposite in2="hardAlpha" operator="out"/>
<feColorMatrix type="matrix" values="0 0 0 0 0 0 0 0 0 0 0 0 0 0 0 0 0 0 0.12 0"/>
<feBlend mode="normal" in2="BackgroundImageFix" result="effect1_dropShadow_23_30"/>
<feBlend mode="normal" in="SourceGraphic" in2="effect1_dropShadow_23_30" result="shape"/>
</filter>
</defs>
</svg>
