<?xml version="1.0" encoding="utf-8"?>
<!-- Generator: Adobe Illustrator 28.1.0, SVG Export Plug-In . SVG Version: 6.00 Build 0)  -->
<svg version="1.1" id="Layer_1" xmlns="http://www.w3.org/2000/svg" xmlns:xlink="http://www.w3.org/1999/xlink" x="0px" y="0px"
	 viewBox="0 0 255 472" style="enable-background:new 0 0 255 472;" xml:space="preserve">
<style type="text/css">
	.st0{fill:#4F4F4F;}
	.st1{fill:#00C800;}
	.st2{fill:#888888;}
	.st3{fill:#FFE12D;}
	.st4{fill:#FF7E00;}
	.st5{fill:#FA0A00;}
	.st6{fill:#8F3F97;}
	.st7{fill:#7E0023;}
	.st8{fill:#D1D1D1;}
	.st9{fill:none;stroke:#E7E7E7;}
	.st10{fill:#E7E7E7;}
</style>
<g>
	<g>
		<g>
			<path class="st0" d="M79.6,23V8.4H85c1,0,1.9,0.2,2.6,0.5c0.7,0.3,1.2,0.8,1.5,1.4s0.5,1.2,0.5,1.9c0,0.6-0.1,1.1-0.3,1.5
				c-0.2,0.4-0.5,0.7-0.9,1c-0.4,0.2-0.8,0.4-1.2,0.5v0.1c0.5,0,1,0.2,1.4,0.5c0.5,0.3,0.8,0.7,1.1,1.2c0.3,0.5,0.5,1.2,0.5,1.9
				c0,0.7-0.2,1.4-0.5,2c-0.3,0.6-0.9,1.1-1.6,1.4c-0.7,0.3-1.6,0.5-2.8,0.5H79.6z M81.8,14.7h2.9c0.5,0,0.9-0.1,1.3-0.3
				c0.4-0.2,0.7-0.5,0.9-0.8s0.4-0.7,0.4-1.2c0-0.6-0.2-1.1-0.6-1.5c-0.4-0.4-1.1-0.6-1.9-0.6h-3V14.7z M81.8,21.1H85
				c1.1,0,1.8-0.2,2.3-0.6c0.5-0.4,0.7-0.9,0.7-1.5c0-0.5-0.1-0.9-0.3-1.3c-0.2-0.4-0.6-0.7-1-0.9c-0.4-0.2-0.9-0.3-1.5-0.3h-3.2
				V21.1z"/>
			<path class="st0" d="M92.5,23V12.1h2.1v1.7h0.1c0.2-0.6,0.5-1,1.1-1.4c0.5-0.3,1.1-0.5,1.7-0.5c0.1,0,0.3,0,0.5,0
				c0.2,0,0.3,0,0.4,0v2c-0.1,0-0.2-0.1-0.5-0.1s-0.4,0-0.7,0c-0.5,0-0.9,0.1-1.3,0.3s-0.7,0.5-0.9,0.9s-0.3,0.8-0.3,1.3V23H92.5z"
				/>
			<path class="st0" d="M104.9,23.2c-1.1,0-2-0.2-2.8-0.7c-0.8-0.5-1.4-1.1-1.8-2s-0.6-1.8-0.6-3c0-1.1,0.2-2.1,0.6-3
				c0.4-0.9,1-1.5,1.8-2c0.8-0.5,1.6-0.7,2.7-0.7c0.6,0,1.2,0.1,1.8,0.3c0.6,0.2,1.1,0.5,1.6,1c0.5,0.4,0.8,1,1.1,1.7
				c0.3,0.7,0.4,1.5,0.4,2.5v0.8h-8.7v-1.6h6.6c0-0.6-0.1-1.1-0.3-1.5c-0.2-0.4-0.5-0.8-1-1c-0.4-0.3-0.9-0.4-1.4-0.4
				c-0.6,0-1.1,0.1-1.6,0.4c-0.4,0.3-0.8,0.7-1,1.1s-0.4,1-0.4,1.5V18c0,0.7,0.1,1.3,0.4,1.9c0.3,0.5,0.6,0.9,1.1,1.2
				c0.5,0.3,1,0.4,1.6,0.4c0.4,0,0.8-0.1,1.1-0.2c0.3-0.1,0.6-0.3,0.9-0.5s0.4-0.5,0.6-0.9l2,0.4c-0.2,0.6-0.4,1.1-0.9,1.6
				s-0.9,0.8-1.6,1C106.4,23.1,105.7,23.2,104.9,23.2z"/>
			<path class="st0" d="M115.1,23.2c-0.7,0-1.3-0.1-1.9-0.4c-0.6-0.3-1-0.6-1.3-1.1c-0.3-0.5-0.5-1.1-0.5-1.8c0-0.6,0.1-1.1,0.4-1.5
				c0.2-0.4,0.6-0.7,1-0.9s0.9-0.4,1.3-0.5c0.5-0.1,1-0.2,1.5-0.3c0.7-0.1,1.2-0.1,1.6-0.2c0.4,0,0.7-0.1,0.9-0.2
				c0.2-0.1,0.3-0.3,0.3-0.6v0c0-0.6-0.2-1.1-0.5-1.4c-0.3-0.3-0.9-0.5-1.6-0.5c-0.7,0-1.3,0.2-1.7,0.5c-0.4,0.3-0.7,0.7-0.8,1
				l-2-0.5c0.2-0.7,0.6-1.2,1-1.6c0.5-0.4,1-0.7,1.6-0.9s1.2-0.3,1.9-0.3c0.4,0,0.9,0.1,1.4,0.2c0.5,0.1,1,0.3,1.4,0.6
				c0.4,0.3,0.8,0.7,1.1,1.2c0.3,0.5,0.4,1.1,0.4,1.9V23h-2.1v-1.5h-0.1c-0.1,0.3-0.3,0.5-0.6,0.8c-0.3,0.3-0.6,0.5-1.1,0.7
				C116.3,23.1,115.8,23.2,115.1,23.2z M115.6,21.5c0.6,0,1.1-0.1,1.5-0.3s0.7-0.5,1-0.9c0.2-0.4,0.3-0.8,0.3-1.2v-1.4
				c-0.1,0.1-0.2,0.1-0.4,0.2c-0.2,0.1-0.5,0.1-0.7,0.2c-0.3,0-0.5,0.1-0.8,0.1c-0.3,0-0.5,0.1-0.7,0.1c-0.4,0.1-0.8,0.1-1.1,0.3
				s-0.6,0.3-0.8,0.5c-0.2,0.2-0.3,0.5-0.3,0.9c0,0.5,0.2,0.9,0.6,1.2C114.5,21.4,115,21.5,115.6,21.5z"/>
			<path class="st0" d="M123.4,23V8.4h2.1V23H123.4z M125.3,19.3l0-2.6h0.4l4.3-4.6h2.5l-5,5.3h-0.3L125.3,19.3z M130.2,23l-3.9-5.2
				l1.5-1.5l5,6.7H130.2z"/>
			<path class="st0" d="M138.6,23.2c-0.9,0-1.7-0.2-2.4-0.7s-1.2-1.1-1.6-1.9c-0.4-0.8-0.6-1.9-0.6-3c0-1.2,0.2-2.2,0.6-3
				c0.4-0.8,0.9-1.5,1.6-1.9c0.7-0.4,1.5-0.7,2.4-0.7c0.7,0,1.2,0.1,1.6,0.3c0.4,0.2,0.7,0.5,1,0.8c0.2,0.3,0.4,0.6,0.5,0.8h0.1V8.4
				h2.1V23h-2.1v-1.7h-0.2c-0.1,0.2-0.3,0.5-0.6,0.8s-0.6,0.6-1,0.8C139.8,23.1,139.2,23.2,138.6,23.2z M139,21.4
				c0.6,0,1.1-0.2,1.6-0.5s0.7-0.8,1-1.4c0.2-0.6,0.3-1.2,0.3-2c0-0.8-0.1-1.4-0.3-2c-0.2-0.6-0.5-1-1-1.3c-0.4-0.3-0.9-0.5-1.6-0.5
				c-0.6,0-1.2,0.2-1.6,0.5c-0.4,0.3-0.7,0.8-1,1.4c-0.2,0.6-0.3,1.2-0.3,1.9c0,0.7,0.1,1.4,0.3,2s0.5,1,1,1.4
				C137.9,21.2,138.4,21.4,139,21.4z"/>
			<path class="st0" d="M151.6,23.2c-1,0-1.9-0.2-2.7-0.7c-0.8-0.5-1.4-1.1-1.8-2s-0.6-1.8-0.6-3c0-1.1,0.2-2.1,0.6-3s1-1.5,1.8-2
				c0.8-0.5,1.7-0.7,2.7-0.7s1.9,0.2,2.7,0.7c0.8,0.5,1.4,1.1,1.8,2s0.6,1.8,0.6,3c0,1.1-0.2,2.1-0.6,3s-1,1.5-1.8,2
				C153.5,23,152.6,23.2,151.6,23.2z M151.6,21.4c0.7,0,1.2-0.2,1.6-0.5c0.4-0.4,0.8-0.8,1-1.4c0.2-0.6,0.3-1.2,0.3-1.9
				c0-0.7-0.1-1.3-0.3-1.9c-0.2-0.6-0.5-1.1-1-1.4c-0.4-0.4-1-0.5-1.6-0.5c-0.7,0-1.2,0.2-1.7,0.5c-0.4,0.4-0.8,0.8-1,1.4
				c-0.2,0.6-0.3,1.2-0.3,1.9c0,0.7,0.1,1.3,0.3,1.9c0.2,0.6,0.5,1,1,1.4C150.4,21.3,150.9,21.4,151.6,21.4z"/>
			<path class="st0" d="M161.4,23l-3.2-10.9h2.2l2.1,8h0.1l2.1-8h2.2l2.1,8h0.1l2.1-8h2.2L170.3,23h-2.2l-2.2-7.9h-0.2l-2.2,7.9
				H161.4z"/>
			<path class="st0" d="M177.7,16.5V23h-2.1V12.1h2v1.8h0.1c0.3-0.6,0.6-1,1.2-1.4c0.5-0.4,1.2-0.5,2-0.5c0.7,0,1.4,0.2,2,0.5
				c0.6,0.3,1,0.8,1.3,1.4c0.3,0.6,0.5,1.4,0.5,2.3V23h-2.1v-6.7c0-0.8-0.2-1.4-0.6-1.9s-1-0.7-1.7-0.7c-0.5,0-0.9,0.1-1.3,0.3
				s-0.7,0.5-0.9,0.9C177.8,15.4,177.7,15.9,177.7,16.5z"/>
		</g>
		<g>
			<g>
				<path class="st1" d="M35.7,275.3c-1.1-3.5-4.3-6.1-8.1-6.1s-7.1,2.5-8.1,6c-0.2,0.8-0.4,1.7-0.4,2.5c0,0.8,0.1,1.7,0.4,2.4
					c1.1,3.5,4.3,6.1,8.1,6.1s7.1-2.5,8.1-6c0.2-0.8,0.4-1.7,0.4-2.5C36,276.9,35.9,276.1,35.7,275.3z M27.5,282.1
					c-1.4,0-2.6-0.7-3.5-1.8c-0.6-0.7-0.8-1.7-0.8-2.6c0-0.8,0.2-1.7,0.7-2.3c0.7-1.2,2.2-2,3.7-2c1.6,0,3,0.8,3.7,2.2
					c0.4,0.6,0.6,1.4,0.6,2.3c0,1.1-0.4,1.9-1,2.6C30.2,281.4,29,282.1,27.5,282.1z"/>
				<path class="st1" d="M25.7,277.9c0-1,0.8-1.8,1.8-1.8c1,0,1.8,0.8,1.8,1.8c0,1-0.8,1.8-1.8,1.8
					C26.6,279.7,25.7,278.9,25.7,277.9z"/>
			</g>
			<g>
				<path class="st2" d="M55.8,274.3c-0.1-0.3-0.3-0.7-0.4-0.9c-0.2-0.3-0.4-0.5-0.7-0.7s-0.5-0.3-0.9-0.4c-0.3-0.1-0.7-0.2-1.1-0.2
					c-0.7,0-1.2,0.2-1.8,0.5s-0.9,0.8-1.2,1.5c-0.3,0.6-0.5,1.4-0.5,2.4c0,0.9,0.2,1.7,0.5,2.4c0.3,0.7,0.7,1.1,1.3,1.5
					c0.5,0.3,1.1,0.5,1.8,0.5c0.6,0,1.2-0.1,1.7-0.4c0.5-0.3,0.8-0.6,1.1-1.1c0.3-0.5,0.4-1,0.4-1.7l0.5,0.1h-3.3v-1.4h4.6v1.3
					c0,1-0.2,1.8-0.6,2.5s-1,1.3-1.7,1.7c-0.7,0.4-1.6,0.6-2.5,0.6c-1.1,0-2-0.2-2.8-0.7c-0.8-0.5-1.4-1.2-1.9-2.1
					c-0.4-0.9-0.7-2-0.7-3.2c0-0.9,0.1-1.8,0.4-2.5c0.3-0.7,0.6-1.4,1.1-1.9c0.5-0.5,1-0.9,1.7-1.2c0.6-0.3,1.3-0.4,2.1-0.4
					c0.6,0,1.2,0.1,1.8,0.3s1,0.4,1.5,0.8c0.4,0.3,0.8,0.7,1.1,1.2c0.3,0.5,0.5,1,0.6,1.6H55.8z"/>
				<path class="st2" d="M63.4,282.4c-0.8,0-1.5-0.2-2.1-0.6c-0.6-0.4-1.1-0.9-1.4-1.6c-0.3-0.7-0.5-1.5-0.5-2.4
					c0-0.9,0.2-1.7,0.5-2.4c0.3-0.7,0.8-1.2,1.4-1.6c0.6-0.4,1.3-0.6,2.1-0.6s1.5,0.2,2.1,0.6c0.6,0.4,1.1,0.9,1.4,1.6
					c0.3,0.7,0.5,1.5,0.5,2.4c0,0.9-0.2,1.7-0.5,2.4c-0.3,0.7-0.8,1.2-1.4,1.6C65,282.3,64.2,282.4,63.4,282.4z M63.4,281
					c0.5,0,1-0.1,1.3-0.4c0.3-0.3,0.6-0.7,0.8-1.1c0.2-0.5,0.3-1,0.3-1.5c0-0.6-0.1-1.1-0.3-1.5c-0.2-0.5-0.4-0.8-0.8-1.1
					c-0.3-0.3-0.8-0.4-1.3-0.4c-0.5,0-1,0.1-1.3,0.4s-0.6,0.7-0.8,1.1s-0.3,1-0.3,1.5c0,0.6,0.1,1.1,0.3,1.5s0.4,0.8,0.8,1.1
					C62.5,280.9,62.9,281,63.4,281z"/>
				<path class="st2" d="M73.1,282.4c-0.8,0-1.5-0.2-2.1-0.6c-0.6-0.4-1.1-0.9-1.4-1.6c-0.3-0.7-0.5-1.5-0.5-2.4
					c0-0.9,0.2-1.7,0.5-2.4c0.3-0.7,0.8-1.2,1.4-1.6c0.6-0.4,1.3-0.6,2.1-0.6s1.5,0.2,2.1,0.6c0.6,0.4,1.1,0.9,1.4,1.6
					c0.3,0.7,0.5,1.5,0.5,2.4c0,0.9-0.2,1.7-0.5,2.4c-0.3,0.7-0.8,1.2-1.4,1.6C74.6,282.3,73.9,282.4,73.1,282.4z M73.1,281
					c0.5,0,1-0.1,1.3-0.4c0.3-0.3,0.6-0.7,0.8-1.1c0.2-0.5,0.3-1,0.3-1.5c0-0.6-0.1-1.1-0.3-1.5c-0.2-0.5-0.4-0.8-0.8-1.1
					c-0.3-0.3-0.8-0.4-1.3-0.4c-0.5,0-1,0.1-1.3,0.4s-0.6,0.7-0.8,1.1s-0.3,1-0.3,1.5c0,0.6,0.1,1.1,0.3,1.5s0.4,0.8,0.8,1.1
					C72.1,280.9,72.5,281,73.1,281z"/>
				<path class="st2" d="M82.3,282.4c-0.7,0-1.3-0.2-1.9-0.5c-0.6-0.4-1-0.9-1.3-1.6c-0.3-0.7-0.5-1.5-0.5-2.4s0.2-1.8,0.5-2.4
					c0.3-0.7,0.8-1.2,1.3-1.5c0.6-0.4,1.2-0.5,1.9-0.5c0.5,0,1,0.1,1.3,0.3c0.3,0.2,0.6,0.4,0.8,0.6c0.2,0.2,0.3,0.4,0.4,0.6h0.1
					v-4.3h1.7v11.6h-1.7v-1.4h-0.1c-0.1,0.2-0.2,0.4-0.4,0.6s-0.5,0.4-0.8,0.6C83.2,282.3,82.8,282.4,82.3,282.4z M82.7,281
					c0.5,0,0.9-0.1,1.2-0.4c0.3-0.3,0.6-0.6,0.8-1.1c0.2-0.5,0.3-1,0.3-1.6c0-0.6-0.1-1.1-0.3-1.6c-0.2-0.5-0.4-0.8-0.8-1.1
					c-0.3-0.3-0.8-0.4-1.2-0.4c-0.5,0-0.9,0.1-1.3,0.4c-0.3,0.3-0.6,0.6-0.8,1.1c-0.2,0.5-0.3,1-0.3,1.6c0,0.6,0.1,1.1,0.3,1.6
					c0.2,0.5,0.4,0.8,0.8,1.1C81.7,280.9,82.2,281,82.7,281z"/>
			</g>
			<g>
				<path class="st2" d="M215.7,282.4c-0.8,0-1.5-0.1-2.1-0.4c-0.6-0.3-1.1-0.6-1.4-1.1c-0.4-0.5-0.5-1-0.6-1.7h1.8
					c0,0.3,0.1,0.6,0.3,0.9c0.2,0.3,0.5,0.4,0.8,0.6c0.3,0.1,0.7,0.2,1.1,0.2c0.5,0,0.9-0.1,1.2-0.2s0.6-0.4,0.8-0.7
					c0.2-0.3,0.3-0.6,0.3-1c0-0.4-0.1-0.7-0.3-1c-0.2-0.3-0.5-0.5-0.9-0.7c-0.4-0.2-0.8-0.3-1.4-0.3h-1v-1.4h1
					c0.4,0,0.8-0.1,1.1-0.2c0.3-0.2,0.6-0.4,0.8-0.7s0.3-0.6,0.3-1c0-0.4-0.1-0.7-0.2-0.9c-0.2-0.3-0.4-0.5-0.7-0.6
					c-0.3-0.2-0.6-0.2-1-0.2c-0.4,0-0.7,0.1-1.1,0.2c-0.3,0.1-0.6,0.3-0.8,0.6c-0.2,0.3-0.3,0.6-0.3,0.9h-1.7c0-0.6,0.2-1.2,0.6-1.7
					c0.4-0.5,0.8-0.9,1.4-1.1c0.6-0.3,1.2-0.4,1.9-0.4c0.7,0,1.4,0.1,1.9,0.4c0.5,0.3,1,0.7,1.3,1.2c0.3,0.5,0.4,1,0.4,1.6
					c0,0.7-0.2,1.2-0.5,1.7c-0.4,0.5-0.9,0.8-1.5,0.9v0.1c0.8,0.1,1.4,0.4,1.8,0.9c0.4,0.5,0.6,1.1,0.6,1.8c0,0.6-0.2,1.2-0.5,1.7
					c-0.4,0.5-0.8,0.9-1.5,1.2C217.2,282.3,216.5,282.4,215.7,282.4z"/>
				<path class="st2" d="M226,282.5c-0.9,0-1.7-0.2-2.3-0.7c-0.6-0.5-1.1-1.2-1.5-2.1s-0.5-2-0.5-3.2c0-1.3,0.2-2.3,0.5-3.2
					c0.3-0.9,0.8-1.6,1.5-2c0.6-0.5,1.4-0.7,2.3-0.7c0.9,0,1.7,0.2,2.3,0.7c0.6,0.5,1.1,1.2,1.5,2c0.3,0.9,0.5,2,0.5,3.2
					c0,1.3-0.2,2.4-0.5,3.2c-0.3,0.9-0.8,1.6-1.5,2.1C227.6,282.2,226.9,282.5,226,282.5z M226,280.9c0.8,0,1.4-0.4,1.8-1.2
					c0.4-0.8,0.7-1.9,0.7-3.3c0-1-0.1-1.8-0.3-2.5c-0.2-0.7-0.5-1.2-0.9-1.5c-0.4-0.3-0.8-0.5-1.3-0.5c-0.8,0-1.4,0.4-1.8,1.2
					c-0.4,0.8-0.7,1.9-0.7,3.3c0,1,0.1,1.8,0.3,2.5c0.2,0.7,0.5,1.2,0.9,1.5S225.4,280.9,226,280.9z"/>
				<path class="st2" d="M232.5,273.4v-0.6c0-0.4,0.1-0.8,0.3-1.2c0.2-0.4,0.5-0.7,0.8-0.9c0.4-0.2,0.8-0.3,1.3-0.3
					c0.5,0,0.9,0.1,1.3,0.3c0.3,0.2,0.6,0.5,0.8,0.9c0.2,0.4,0.3,0.8,0.3,1.2v0.6c0,0.4-0.1,0.8-0.3,1.2c-0.2,0.4-0.4,0.7-0.8,0.9
					s-0.8,0.3-1.3,0.3c-0.5,0-0.9-0.1-1.3-0.3s-0.6-0.5-0.8-0.9C232.6,274.3,232.5,273.9,232.5,273.4z M233,282.3l8-11.6h1.4
					l-8,11.6H233z M233.8,272.8v0.6c0,0.3,0.1,0.6,0.2,0.9c0.2,0.3,0.4,0.4,0.8,0.4c0.4,0,0.6-0.1,0.8-0.4c0.2-0.3,0.2-0.6,0.2-0.9
					v-0.6c0-0.3-0.1-0.6-0.2-0.9c-0.1-0.3-0.4-0.4-0.8-0.4c-0.4,0-0.6,0.1-0.8,0.4C233.9,272.2,233.8,272.5,233.8,272.8z
					 M238.3,280.1v-0.6c0-0.4,0.1-0.8,0.3-1.2s0.5-0.7,0.8-0.9s0.8-0.3,1.3-0.3c0.5,0,0.9,0.1,1.3,0.3c0.3,0.2,0.6,0.5,0.8,0.9
					s0.3,0.8,0.3,1.2v0.6c0,0.4-0.1,0.8-0.3,1.2c-0.2,0.4-0.4,0.7-0.8,0.9s-0.8,0.3-1.3,0.3c-0.5,0-0.9-0.1-1.3-0.3
					c-0.4-0.2-0.6-0.5-0.8-0.9C238.4,280.9,238.3,280.5,238.3,280.1z M239.6,279.5v0.6c0,0.3,0.1,0.6,0.2,0.9
					c0.2,0.3,0.4,0.4,0.8,0.4c0.4,0,0.6-0.1,0.8-0.4c0.2-0.3,0.2-0.6,0.2-0.9v-0.6c0-0.3-0.1-0.6-0.2-0.9c-0.1-0.3-0.4-0.4-0.8-0.4
					c-0.4,0-0.6,0.1-0.8,0.4C239.7,278.9,239.6,279.1,239.6,279.5z"/>
			</g>
		</g>
		<g>
			<g>
				<path class="st3" d="M35.7,302.8c-1.1-3.5-4.3-6.1-8.1-6.1s-7.1,2.5-8.1,6c-0.2,0.8-0.4,1.7-0.4,2.5c0,0.8,0.1,1.7,0.4,2.4
					c1.1,3.5,4.3,6.1,8.1,6.1s7.1-2.5,8.1-6c0.2-0.8,0.4-1.7,0.4-2.5C36,304.4,35.9,303.7,35.7,302.8z M27.5,309.7
					c-1.4,0-2.6-0.7-3.5-1.8c-0.6-0.7-0.8-1.7-0.8-2.6c0-0.8,0.2-1.7,0.7-2.3c0.7-1.2,2.2-2,3.7-2c1.6,0,3,0.8,3.7,2.2
					c0.4,0.6,0.6,1.4,0.6,2.3c0,1.1-0.4,1.9-1,2.6C30.2,308.9,29,309.7,27.5,309.7z"/>
				<path class="st3" d="M25.7,305.5c0-1,0.8-1.8,1.8-1.8c1,0,1.8,0.8,1.8,1.8c0,1-0.8,1.8-1.8,1.8
					C26.6,307.3,25.7,306.4,25.7,305.5z"/>
			</g>
			<g>
				<path class="st2" d="M47.9,300.6H50l3.7,9h0.1l3.7-9h2.1v11.6H58v-8.4h-0.1l-3.4,8.4h-1.4l-3.4-8.4h-0.1v8.4h-1.7V300.6z"/>
				<path class="st2" d="M65.8,312.4c-0.8,0-1.5-0.2-2.1-0.6c-0.6-0.4-1.1-0.9-1.4-1.6c-0.3-0.7-0.5-1.5-0.5-2.4
					c0-0.9,0.2-1.7,0.5-2.4c0.3-0.7,0.8-1.2,1.4-1.6c0.6-0.4,1.3-0.6,2.1-0.6s1.5,0.2,2.1,0.6c0.6,0.4,1.1,0.9,1.4,1.6
					c0.3,0.7,0.5,1.5,0.5,2.4c0,0.9-0.2,1.7-0.5,2.4c-0.3,0.7-0.8,1.2-1.4,1.6C67.3,312.2,66.6,312.4,65.8,312.4z M65.8,311
					c0.5,0,1-0.1,1.3-0.4c0.3-0.3,0.6-0.7,0.8-1.1c0.2-0.5,0.3-1,0.3-1.5c0-0.6-0.1-1.1-0.3-1.5c-0.2-0.5-0.4-0.8-0.8-1.1
					c-0.3-0.3-0.8-0.4-1.3-0.4c-0.5,0-1,0.1-1.3,0.4s-0.6,0.7-0.8,1.1s-0.3,1-0.3,1.5c0,0.6,0.1,1.1,0.3,1.5s0.4,0.8,0.8,1.1
					C64.8,310.8,65.3,311,65.8,311z"/>
				<path class="st2" d="M75,312.4c-0.7,0-1.3-0.2-1.9-0.5c-0.6-0.4-1-0.9-1.3-1.6c-0.3-0.7-0.5-1.5-0.5-2.4s0.2-1.8,0.5-2.4
					c0.3-0.7,0.8-1.2,1.3-1.5c0.6-0.4,1.2-0.5,1.9-0.5c0.5,0,1,0.1,1.3,0.3c0.3,0.2,0.6,0.4,0.8,0.6c0.2,0.2,0.3,0.4,0.4,0.6h0.1
					v-4.3h1.7v11.6h-1.7v-1.4h-0.1c-0.1,0.2-0.2,0.4-0.4,0.6s-0.5,0.4-0.8,0.6C76,312.3,75.6,312.4,75,312.4z M75.4,310.9
					c0.5,0,0.9-0.1,1.2-0.4c0.3-0.3,0.6-0.6,0.8-1.1c0.2-0.5,0.3-1,0.3-1.6c0-0.6-0.1-1.1-0.3-1.6c-0.2-0.5-0.4-0.8-0.8-1.1
					c-0.3-0.3-0.8-0.4-1.2-0.4c-0.5,0-0.9,0.1-1.3,0.4c-0.3,0.3-0.6,0.6-0.8,1.1c-0.2,0.5-0.3,1-0.3,1.6c0,0.6,0.1,1.1,0.3,1.6
					c0.2,0.5,0.4,0.8,0.8,1.1C74.5,310.8,74.9,310.9,75.4,310.9z"/>
				<path class="st2" d="M85.5,312.4c-0.9,0-1.6-0.2-2.2-0.6s-1.1-0.9-1.4-1.6c-0.3-0.7-0.5-1.5-0.5-2.4c0-0.9,0.2-1.7,0.5-2.4
					c0.3-0.7,0.8-1.2,1.4-1.6c0.6-0.4,1.3-0.6,2.1-0.6c0.5,0,1,0.1,1.4,0.2s0.9,0.4,1.2,0.8c0.4,0.3,0.7,0.8,0.9,1.4
					c0.2,0.6,0.3,1.2,0.3,2v0.6h-6.9v-1.3h5.3c0-0.4-0.1-0.8-0.3-1.2s-0.4-0.6-0.8-0.8c-0.3-0.2-0.7-0.3-1.2-0.3
					c-0.5,0-0.9,0.1-1.2,0.3c-0.4,0.2-0.6,0.5-0.8,0.9c-0.2,0.4-0.3,0.8-0.3,1.2v1c0,0.6,0.1,1.1,0.3,1.5c0.2,0.4,0.5,0.7,0.9,0.9
					c0.4,0.2,0.8,0.3,1.3,0.3c0.3,0,0.6,0,0.9-0.1c0.3-0.1,0.5-0.2,0.7-0.4c0.2-0.2,0.3-0.4,0.4-0.7l1.6,0.3
					c-0.1,0.5-0.4,0.9-0.7,1.2c-0.3,0.4-0.7,0.6-1.2,0.8C86.7,312.3,86.2,312.4,85.5,312.4z"/>
				<path class="st2" d="M91.2,312.2v-8.7h1.6v1.4h0.1c0.2-0.5,0.4-0.8,0.8-1.1c0.4-0.3,0.9-0.4,1.4-0.4c0.1,0,0.2,0,0.4,0
					s0.3,0,0.3,0v1.6c-0.1,0-0.2,0-0.4-0.1c-0.2,0-0.3,0-0.5,0c-0.4,0-0.8,0.1-1.1,0.3c-0.3,0.2-0.6,0.4-0.7,0.7
					c-0.2,0.3-0.3,0.6-0.3,1v5.3H91.2z"/>
				<path class="st2" d="M99.9,312.4c-0.6,0-1.1-0.1-1.5-0.3c-0.4-0.2-0.8-0.5-1.1-0.9c-0.3-0.4-0.4-0.9-0.4-1.4
					c0-0.5,0.1-0.9,0.3-1.2s0.4-0.6,0.8-0.8s0.7-0.3,1.1-0.4c0.4-0.1,0.8-0.2,1.2-0.2c0.5-0.1,0.9-0.1,1.3-0.2
					c0.3,0,0.6-0.1,0.7-0.2c0.1-0.1,0.2-0.2,0.2-0.4v0c0-0.5-0.1-0.9-0.4-1.2s-0.7-0.4-1.2-0.4c-0.6,0-1,0.1-1.3,0.4
					c-0.3,0.3-0.6,0.5-0.7,0.8l-1.6-0.4c0.2-0.5,0.5-1,0.8-1.3c0.4-0.3,0.8-0.6,1.3-0.7s1-0.2,1.5-0.2c0.3,0,0.7,0,1.1,0.1
					c0.4,0.1,0.8,0.2,1.1,0.4s0.6,0.5,0.8,0.9s0.3,0.9,0.3,1.6v5.8h-1.7V311h-0.1c-0.1,0.2-0.3,0.4-0.5,0.6
					c-0.2,0.2-0.5,0.4-0.8,0.5C100.8,312.3,100.3,312.4,99.9,312.4z M100.2,311c0.5,0,0.9-0.1,1.2-0.3c0.3-0.2,0.6-0.4,0.8-0.7
					c0.2-0.3,0.3-0.6,0.3-1v-1.1c-0.1,0.1-0.2,0.1-0.3,0.2c-0.2,0.1-0.4,0.1-0.6,0.1s-0.4,0.1-0.6,0.1c-0.2,0-0.4,0.1-0.5,0.1
					c-0.3,0-0.6,0.1-0.9,0.2c-0.3,0.1-0.5,0.2-0.6,0.4c-0.2,0.2-0.2,0.4-0.2,0.7c0,0.4,0.2,0.7,0.5,1S99.7,311,100.2,311z"/>
				<path class="st2" d="M110.5,303.5v1.4h-4.8v-1.4H110.5z M107,301.4h1.7v8.3c0,0.3,0,0.6,0.1,0.7c0.1,0.2,0.2,0.3,0.4,0.3
					c0.2,0.1,0.3,0.1,0.5,0.1c0.1,0,0.3,0,0.4,0c0.1,0,0.2,0,0.2,0l0.3,1.4c-0.1,0-0.2,0.1-0.4,0.1c-0.2,0-0.4,0.1-0.7,0.1
					c-0.4,0-0.9-0.1-1.2-0.2c-0.4-0.2-0.7-0.4-0.9-0.8c-0.2-0.3-0.4-0.8-0.4-1.3V301.4z"/>
				<path class="st2" d="M116.1,312.4c-0.9,0-1.6-0.2-2.2-0.6s-1.1-0.9-1.4-1.6c-0.3-0.7-0.5-1.5-0.5-2.4c0-0.9,0.2-1.7,0.5-2.4
					c0.3-0.7,0.8-1.2,1.4-1.6c0.6-0.4,1.3-0.6,2.1-0.6c0.5,0,1,0.1,1.4,0.2s0.9,0.4,1.2,0.8c0.4,0.3,0.7,0.8,0.9,1.4
					c0.2,0.6,0.3,1.2,0.3,2v0.6h-6.9v-1.3h5.3c0-0.4-0.1-0.8-0.3-1.2s-0.4-0.6-0.8-0.8c-0.3-0.2-0.7-0.3-1.2-0.3
					c-0.5,0-0.9,0.1-1.2,0.3c-0.4,0.2-0.6,0.5-0.8,0.9c-0.2,0.4-0.3,0.8-0.3,1.2v1c0,0.6,0.1,1.1,0.3,1.5c0.2,0.4,0.5,0.7,0.9,0.9
					c0.4,0.2,0.8,0.3,1.3,0.3c0.3,0,0.6,0,0.9-0.1c0.3-0.1,0.5-0.2,0.7-0.4c0.2-0.2,0.3-0.4,0.4-0.7l1.6,0.3
					c-0.1,0.5-0.4,0.9-0.7,1.2c-0.3,0.4-0.7,0.6-1.2,0.8C117.3,312.3,116.8,312.4,116.1,312.4z"/>
			</g>
			<g>
				<path class="st2" d="M211.4,309.9v-1.4l5-7.9h1.1v2.1h-0.7l-3.6,5.7v0.1h6.9v1.5H211.4z M216.9,312.2v-2.7l0-0.6v-8.3h1.7v11.6
					H216.9z"/>
				<path class="st2" d="M222.1,312.2v-1.3l3.9-4.1c0.4-0.4,0.8-0.8,1-1.2c0.3-0.3,0.5-0.7,0.6-1c0.1-0.3,0.2-0.6,0.2-1
					c0-0.4-0.1-0.7-0.3-1s-0.4-0.5-0.7-0.7s-0.7-0.2-1.1-0.2c-0.4,0-0.8,0.1-1.1,0.3c-0.3,0.2-0.5,0.4-0.7,0.7s-0.2,0.7-0.2,1.1
					h-1.7c0-0.7,0.2-1.3,0.5-1.9c0.3-0.5,0.8-0.9,1.3-1.2c0.6-0.3,1.2-0.4,1.9-0.4c0.7,0,1.4,0.1,1.9,0.4c0.6,0.3,1,0.7,1.3,1.2
					s0.5,1.1,0.5,1.7c0,0.4-0.1,0.9-0.2,1.3c-0.2,0.4-0.4,0.9-0.8,1.4c-0.4,0.5-1,1.1-1.7,1.8l-2.3,2.4v0.1h5.2v1.5H222.1z"/>
				<path class="st2" d="M232.1,303.4v-0.6c0-0.4,0.1-0.8,0.3-1.2c0.2-0.4,0.5-0.7,0.8-0.9c0.4-0.2,0.8-0.3,1.3-0.3
					c0.5,0,0.9,0.1,1.3,0.3c0.3,0.2,0.6,0.5,0.8,0.9c0.2,0.4,0.3,0.8,0.3,1.2v0.6c0,0.4-0.1,0.8-0.3,1.2c-0.2,0.4-0.4,0.7-0.8,0.9
					s-0.8,0.3-1.3,0.3c-0.5,0-0.9-0.1-1.3-0.3s-0.6-0.5-0.8-0.9C232.2,304.2,232.1,303.8,232.1,303.4z M232.7,312.2l8-11.6h1.4
					l-8,11.6H232.7z M233.4,302.8v0.6c0,0.3,0.1,0.6,0.2,0.9c0.2,0.3,0.4,0.4,0.8,0.4c0.4,0,0.6-0.1,0.8-0.4
					c0.2-0.3,0.2-0.6,0.2-0.9v-0.6c0-0.3-0.1-0.6-0.2-0.9c-0.1-0.3-0.4-0.4-0.8-0.4c-0.4,0-0.6,0.1-0.8,0.4
					C233.5,302.1,233.4,302.4,233.4,302.8z M238,310v-0.6c0-0.4,0.1-0.8,0.3-1.2s0.5-0.7,0.8-0.9s0.8-0.3,1.3-0.3
					c0.5,0,0.9,0.1,1.3,0.3c0.3,0.2,0.6,0.5,0.8,0.9s0.3,0.8,0.3,1.2v0.6c0,0.4-0.1,0.8-0.3,1.2c-0.2,0.4-0.4,0.7-0.8,0.9
					s-0.8,0.3-1.3,0.3c-0.5,0-0.9-0.1-1.3-0.3c-0.4-0.2-0.6-0.5-0.8-0.9C238.1,310.9,238,310.5,238,310z M239.3,309.4v0.6
					c0,0.3,0.1,0.6,0.2,0.9c0.2,0.3,0.4,0.4,0.8,0.4c0.4,0,0.6-0.1,0.8-0.4c0.2-0.3,0.2-0.6,0.2-0.9v-0.6c0-0.3-0.1-0.6-0.2-0.9
					c-0.1-0.3-0.4-0.4-0.8-0.4c-0.4,0-0.6,0.1-0.8,0.4C239.4,308.8,239.3,309.1,239.3,309.4z"/>
			</g>
		</g>
		<g>
			<g>
				<path class="st4" d="M35.7,334.8c-1.1-3.5-4.3-6.1-8.1-6.1s-7.1,2.5-8.1,6c-0.2,0.8-0.4,1.7-0.4,2.5c0,0.8,0.1,1.7,0.4,2.4
					c1.1,3.5,4.3,6.1,8.1,6.1s7.1-2.5,8.1-6c0.2-0.8,0.4-1.7,0.4-2.5C36,336.4,35.9,335.7,35.7,334.8z M27.5,341.6
					c-1.4,0-2.6-0.7-3.5-1.8c-0.6-0.7-0.8-1.7-0.8-2.6c0-0.8,0.2-1.7,0.7-2.3c0.7-1.2,2.2-2,3.7-2c1.6,0,3,0.8,3.7,2.2
					c0.4,0.6,0.6,1.4,0.6,2.3c0,1.1-0.4,1.9-1,2.6C30.2,340.9,29,341.6,27.5,341.6z"/>
				<path class="st4" d="M25.7,337.5c0-1,0.8-1.8,1.8-1.8c1,0,1.8,0.8,1.8,1.8c0,1-0.8,1.8-1.8,1.8
					C26.6,339.3,25.7,338.4,25.7,337.5z"/>
			</g>
			<g>
				<path class="st2" d="M54.2,331.8c-0.1-0.5-0.3-1-0.8-1.3c-0.4-0.3-1-0.4-1.7-0.4c-0.5,0-0.9,0.1-1.2,0.2s-0.6,0.4-0.8,0.6
					c-0.2,0.3-0.3,0.6-0.3,0.9c0,0.3,0.1,0.5,0.2,0.7c0.1,0.2,0.3,0.4,0.5,0.5s0.4,0.2,0.7,0.3s0.5,0.2,0.7,0.2l1.1,0.3
					c0.4,0.1,0.8,0.2,1.1,0.4c0.4,0.2,0.8,0.4,1.1,0.6c0.3,0.3,0.6,0.6,0.8,0.9c0.2,0.4,0.3,0.8,0.3,1.3c0,0.7-0.2,1.2-0.5,1.8
					c-0.3,0.5-0.8,0.9-1.5,1.2c-0.6,0.3-1.4,0.4-2.3,0.4c-0.9,0-1.6-0.1-2.3-0.4s-1.1-0.7-1.5-1.2c-0.4-0.5-0.6-1.1-0.6-1.8h1.8
					c0,0.4,0.2,0.8,0.4,1c0.2,0.3,0.5,0.5,0.9,0.6c0.4,0.1,0.8,0.2,1.2,0.2c0.5,0,0.9-0.1,1.3-0.2c0.4-0.2,0.7-0.4,0.9-0.7
					s0.3-0.6,0.3-1c0-0.3-0.1-0.6-0.3-0.8c-0.2-0.2-0.5-0.4-0.8-0.5s-0.7-0.3-1.1-0.4l-1.4-0.4c-0.9-0.3-1.7-0.6-2.2-1.1
					c-0.5-0.5-0.8-1.1-0.8-2c0-0.7,0.2-1.3,0.5-1.8c0.4-0.5,0.9-0.9,1.5-1.2s1.3-0.4,2.1-0.4c0.8,0,1.5,0.1,2.1,0.4s1.1,0.7,1.4,1.1
					c0.3,0.5,0.5,1,0.5,1.7H54.2z"/>
				<path class="st2" d="M60.6,340.5c-0.6,0-1.1-0.1-1.5-0.3c-0.4-0.2-0.8-0.5-1.1-0.9c-0.3-0.4-0.4-0.9-0.4-1.4
					c0-0.5,0.1-0.9,0.3-1.2s0.4-0.6,0.8-0.8s0.7-0.3,1.1-0.4c0.4-0.1,0.8-0.2,1.2-0.2c0.5-0.1,0.9-0.1,1.3-0.2
					c0.3,0,0.6-0.1,0.7-0.2c0.1-0.1,0.2-0.2,0.2-0.4v0c0-0.5-0.1-0.9-0.4-1.2s-0.7-0.4-1.2-0.4c-0.6,0-1,0.1-1.3,0.4
					c-0.3,0.3-0.6,0.5-0.7,0.8l-1.6-0.4c0.2-0.5,0.5-1,0.8-1.3c0.4-0.3,0.8-0.6,1.3-0.7s1-0.2,1.5-0.2c0.3,0,0.7,0,1.1,0.1
					c0.4,0.1,0.8,0.2,1.1,0.4s0.6,0.5,0.8,0.9s0.3,0.9,0.3,1.6v5.8h-1.7v-1.2h-0.1c-0.1,0.2-0.3,0.4-0.5,0.6
					c-0.2,0.2-0.5,0.4-0.8,0.5C61.5,340.5,61.1,340.5,60.6,340.5z M61,339.2c0.5,0,0.9-0.1,1.2-0.3c0.3-0.2,0.6-0.4,0.8-0.7
					c0.2-0.3,0.3-0.6,0.3-1v-1.1c-0.1,0.1-0.2,0.1-0.3,0.2c-0.2,0.1-0.4,0.1-0.6,0.1s-0.4,0.1-0.6,0.1c-0.2,0-0.4,0.1-0.5,0.1
					c-0.3,0-0.6,0.1-0.9,0.2c-0.3,0.1-0.5,0.2-0.6,0.4c-0.2,0.2-0.2,0.4-0.2,0.7c0,0.4,0.2,0.7,0.5,1S60.5,339.2,61,339.2z"/>
				<path class="st2" d="M71.2,331.6v1.4h-4.8v-1.4H71.2z M67.8,329.5h1.7v8.3c0,0.3,0,0.6,0.1,0.7c0.1,0.2,0.2,0.3,0.4,0.3
					c0.2,0.1,0.3,0.1,0.5,0.1c0.1,0,0.3,0,0.4,0c0.1,0,0.2,0,0.2,0l0.3,1.4c-0.1,0-0.2,0.1-0.4,0.1c-0.2,0-0.4,0.1-0.7,0.1
					c-0.4,0-0.9-0.1-1.2-0.2c-0.4-0.2-0.7-0.4-0.9-0.8c-0.2-0.3-0.4-0.8-0.4-1.3V329.5z"/>
				<path class="st2" d="M74,330.3c-0.3,0-0.5-0.1-0.8-0.3c-0.2-0.2-0.3-0.4-0.3-0.7c0-0.3,0.1-0.5,0.3-0.7c0.2-0.2,0.5-0.3,0.8-0.3
					s0.5,0.1,0.8,0.3c0.2,0.2,0.3,0.4,0.3,0.7c0,0.3-0.1,0.5-0.3,0.7C74.5,330.2,74.3,330.3,74,330.3z M73.1,340.3v-8.7h1.7v8.7
					H73.1z"/>
				<path class="st2" d="M83.6,333.8l-1.5,0.3c-0.1-0.2-0.2-0.4-0.3-0.6c-0.1-0.2-0.3-0.3-0.6-0.4c-0.2-0.1-0.5-0.2-0.9-0.2
					c-0.5,0-0.9,0.1-1.2,0.3c-0.3,0.2-0.5,0.5-0.5,0.8c0,0.3,0.1,0.5,0.3,0.7c0.2,0.2,0.6,0.3,1,0.4l1.4,0.3
					c0.8,0.2,1.4,0.5,1.8,0.9c0.4,0.4,0.6,0.9,0.6,1.5c0,0.5-0.2,1-0.5,1.4c-0.3,0.4-0.7,0.7-1.3,1c-0.5,0.2-1.2,0.3-1.9,0.3
					c-1,0-1.8-0.2-2.4-0.6c-0.6-0.4-1-1-1.1-1.8l1.6-0.2c0.1,0.4,0.3,0.8,0.6,1s0.7,0.3,1.2,0.3c0.6,0,1-0.1,1.3-0.3
					c0.3-0.2,0.5-0.5,0.5-0.9c0-0.3-0.1-0.5-0.3-0.7c-0.2-0.2-0.5-0.3-0.9-0.4l-1.5-0.3c-0.8-0.2-1.4-0.5-1.8-0.9s-0.6-0.9-0.6-1.5
					c0-0.5,0.1-1,0.4-1.4c0.3-0.4,0.7-0.7,1.2-0.9c0.5-0.2,1.1-0.3,1.7-0.3c0.9,0,1.7,0.2,2.2,0.6C83.1,332.5,83.5,333.1,83.6,333.8
					z"/>
				<path class="st2" d="M89.8,331.6v1.4h-4.9v-1.4H89.8z M86.2,340.3v-9.7c0-0.5,0.1-1,0.4-1.4c0.2-0.4,0.6-0.6,0.9-0.8
					c0.4-0.2,0.8-0.3,1.3-0.3c0.3,0,0.6,0,0.9,0.1s0.4,0.1,0.5,0.2l-0.4,1.4c-0.1,0-0.2,0-0.3-0.1s-0.3,0-0.5,0
					c-0.4,0-0.7,0.1-0.9,0.3c-0.2,0.2-0.3,0.5-0.3,0.9v9.5H86.2z"/>
				<path class="st2" d="M94.1,340.5c-0.6,0-1.1-0.1-1.5-0.3c-0.4-0.2-0.8-0.5-1.1-0.9c-0.3-0.4-0.4-0.9-0.4-1.4
					c0-0.5,0.1-0.9,0.3-1.2s0.4-0.6,0.8-0.8s0.7-0.3,1.1-0.4c0.4-0.1,0.8-0.2,1.2-0.2c0.5-0.1,0.9-0.1,1.3-0.2
					c0.3,0,0.6-0.1,0.7-0.2c0.1-0.1,0.2-0.2,0.2-0.4v0c0-0.5-0.1-0.9-0.4-1.2s-0.7-0.4-1.2-0.4c-0.6,0-1,0.1-1.3,0.4
					c-0.3,0.3-0.6,0.5-0.7,0.8l-1.6-0.4c0.2-0.5,0.5-1,0.8-1.3c0.4-0.3,0.8-0.6,1.3-0.7s1-0.2,1.5-0.2c0.3,0,0.7,0,1.1,0.1
					c0.4,0.1,0.8,0.2,1.1,0.4s0.6,0.5,0.8,0.9s0.3,0.9,0.3,1.6v5.8h-1.7v-1.2h-0.1c-0.1,0.2-0.3,0.4-0.5,0.6
					c-0.2,0.2-0.5,0.4-0.8,0.5C95,340.5,94.6,340.5,94.1,340.5z M94.5,339.2c0.5,0,0.9-0.1,1.2-0.3c0.3-0.2,0.6-0.4,0.8-0.7
					c0.2-0.3,0.3-0.6,0.3-1v-1.1c-0.1,0.1-0.2,0.1-0.3,0.2c-0.2,0.1-0.4,0.1-0.6,0.1s-0.4,0.1-0.6,0.1c-0.2,0-0.4,0.1-0.5,0.1
					c-0.3,0-0.6,0.1-0.9,0.2c-0.3,0.1-0.5,0.2-0.6,0.4c-0.2,0.2-0.2,0.4-0.2,0.7c0,0.4,0.2,0.7,0.5,1S94,339.2,94.5,339.2z"/>
				<path class="st2" d="M104.4,340.5c-0.8,0-1.6-0.2-2.2-0.6c-0.6-0.4-1.1-0.9-1.4-1.6c-0.3-0.7-0.5-1.5-0.5-2.3
					c0-0.9,0.2-1.7,0.5-2.3c0.3-0.7,0.8-1.2,1.4-1.6c0.6-0.4,1.3-0.6,2.1-0.6c0.7,0,1.3,0.1,1.8,0.4c0.5,0.2,0.9,0.6,1.3,1
					c0.3,0.4,0.5,1,0.6,1.5h-1.7c-0.1-0.4-0.3-0.8-0.6-1.1c-0.3-0.3-0.8-0.4-1.3-0.4c-0.5,0-0.9,0.1-1.2,0.4s-0.6,0.6-0.8,1.1
					c-0.2,0.5-0.3,1-0.3,1.6c0,0.6,0.1,1.2,0.3,1.6s0.5,0.8,0.8,1.1c0.4,0.3,0.8,0.4,1.3,0.4c0.3,0,0.6-0.1,0.9-0.2
					c0.3-0.1,0.5-0.3,0.7-0.5c0.2-0.2,0.3-0.5,0.4-0.8h1.7c-0.1,0.6-0.2,1.1-0.6,1.5s-0.7,0.8-1.2,1
					C105.6,340.4,105,340.5,104.4,340.5z"/>
				<path class="st2" d="M113.8,331.6v1.4h-4.8v-1.4H113.8z M110.4,329.5h1.7v8.3c0,0.3,0,0.6,0.1,0.7c0.1,0.2,0.2,0.3,0.4,0.3
					c0.2,0.1,0.3,0.1,0.5,0.1c0.1,0,0.3,0,0.4,0c0.1,0,0.2,0,0.2,0l0.3,1.4c-0.1,0-0.2,0.1-0.4,0.1c-0.2,0-0.4,0.1-0.7,0.1
					c-0.4,0-0.9-0.1-1.2-0.2c-0.4-0.2-0.7-0.4-0.9-0.8c-0.2-0.3-0.4-0.8-0.4-1.3V329.5z"/>
				<path class="st2" d="M119.4,340.5c-0.8,0-1.5-0.2-2.1-0.6c-0.6-0.4-1.1-0.9-1.4-1.6c-0.3-0.7-0.5-1.5-0.5-2.4
					c0-0.9,0.2-1.7,0.5-2.4c0.3-0.7,0.8-1.2,1.4-1.6c0.6-0.4,1.3-0.6,2.1-0.6s1.5,0.2,2.1,0.6c0.6,0.4,1.1,0.9,1.4,1.6
					c0.3,0.7,0.5,1.5,0.5,2.4c0,0.9-0.2,1.7-0.5,2.4c-0.3,0.7-0.8,1.2-1.4,1.6C120.9,340.3,120.2,340.5,119.4,340.5z M119.4,339.1
					c0.5,0,1-0.1,1.3-0.4c0.3-0.3,0.6-0.7,0.8-1.1c0.2-0.5,0.3-1,0.3-1.5c0-0.6-0.1-1.1-0.3-1.5c-0.2-0.5-0.4-0.8-0.8-1.1
					c-0.3-0.3-0.8-0.4-1.3-0.4c-0.5,0-1,0.1-1.3,0.4s-0.6,0.7-0.8,1.1s-0.3,1-0.3,1.5c0,0.6,0.1,1.1,0.3,1.5s0.4,0.8,0.8,1.1
					C118.4,339,118.9,339.1,119.4,339.1z"/>
				<path class="st2" d="M125.4,340.3v-8.7h1.6v1.4h0.1c0.2-0.5,0.4-0.8,0.8-1.1c0.4-0.3,0.9-0.4,1.4-0.4c0.1,0,0.2,0,0.4,0
					s0.3,0,0.3,0v1.6c-0.1,0-0.2,0-0.4-0.1c-0.2,0-0.3,0-0.5,0c-0.4,0-0.8,0.1-1.1,0.3c-0.3,0.2-0.6,0.4-0.7,0.7
					c-0.2,0.3-0.3,0.6-0.3,1v5.3H125.4z"/>
				<path class="st2" d="M132.6,343.6c-0.3,0-0.5,0-0.7-0.1c-0.2,0-0.4-0.1-0.5-0.1l0.4-1.4c0.3,0.1,0.6,0.1,0.8,0.1
					c0.2,0,0.5-0.1,0.6-0.3c0.2-0.2,0.4-0.4,0.5-0.8l0.2-0.6l-3.2-8.8h1.8l2.2,6.8h0.1l2.2-6.8h1.8l-3.6,9.9
					c-0.2,0.5-0.4,0.8-0.6,1.2s-0.6,0.6-0.9,0.7C133.5,343.5,133,343.6,132.6,343.6z"/>
			</g>
			<g>
				<path class="st2" d="M216,328.7v11.6h-1.8v-9.9h-0.1l-2.8,1.8v-1.7l2.9-1.9H216z"/>
				<path class="st2" d="M223.2,340.5c-0.8,0-1.5-0.1-2.1-0.4c-0.6-0.3-1.1-0.6-1.4-1.1c-0.4-0.5-0.5-1-0.6-1.7h1.8
					c0,0.3,0.1,0.6,0.3,0.9c0.2,0.3,0.5,0.4,0.8,0.6c0.3,0.1,0.7,0.2,1.1,0.2c0.5,0,0.9-0.1,1.2-0.2s0.6-0.4,0.8-0.7
					c0.2-0.3,0.3-0.6,0.3-1c0-0.4-0.1-0.7-0.3-1c-0.2-0.3-0.5-0.5-0.9-0.7c-0.4-0.2-0.8-0.3-1.4-0.3h-1v-1.4h1
					c0.4,0,0.8-0.1,1.1-0.2c0.3-0.2,0.6-0.4,0.8-0.7s0.3-0.6,0.3-1c0-0.4-0.1-0.7-0.2-0.9c-0.2-0.3-0.4-0.5-0.7-0.6
					c-0.3-0.2-0.6-0.2-1-0.2c-0.4,0-0.7,0.1-1.1,0.2c-0.3,0.1-0.6,0.3-0.8,0.6c-0.2,0.3-0.3,0.6-0.3,0.9h-1.7c0-0.6,0.2-1.2,0.6-1.7
					c0.4-0.5,0.8-0.9,1.4-1.1c0.6-0.3,1.2-0.4,1.9-0.4c0.7,0,1.4,0.1,1.9,0.4c0.5,0.3,1,0.7,1.3,1.2c0.3,0.5,0.4,1,0.4,1.6
					c0,0.7-0.2,1.2-0.5,1.7c-0.4,0.5-0.9,0.8-1.5,0.9v0.1c0.8,0.1,1.4,0.4,1.8,0.9c0.4,0.5,0.6,1.1,0.6,1.8c0,0.6-0.2,1.2-0.5,1.7
					c-0.4,0.5-0.8,0.9-1.5,1.2C224.7,340.4,224,340.5,223.2,340.5z"/>
				<path class="st2" d="M229.7,331.5v-0.6c0-0.4,0.1-0.8,0.3-1.2c0.2-0.4,0.5-0.7,0.8-0.9c0.4-0.2,0.8-0.3,1.3-0.3
					c0.5,0,0.9,0.1,1.3,0.3c0.3,0.2,0.6,0.5,0.8,0.9c0.2,0.4,0.3,0.8,0.3,1.2v0.6c0,0.4-0.1,0.8-0.3,1.2c-0.2,0.4-0.4,0.7-0.8,0.9
					s-0.8,0.3-1.3,0.3c-0.5,0-0.9-0.1-1.3-0.3s-0.6-0.5-0.8-0.9C229.8,332.3,229.7,331.9,229.7,331.5z M230.2,340.3l8-11.6h1.4
					l-8,11.6H230.2z M231,330.9v0.6c0,0.3,0.1,0.6,0.2,0.9c0.2,0.3,0.4,0.4,0.8,0.4c0.4,0,0.6-0.1,0.8-0.4c0.2-0.3,0.2-0.6,0.2-0.9
					v-0.6c0-0.3-0.1-0.6-0.2-0.9c-0.1-0.3-0.4-0.4-0.8-0.4c-0.4,0-0.6,0.1-0.8,0.4C231.1,330.3,231,330.6,231,330.9z M235.6,338.2
					v-0.6c0-0.4,0.1-0.8,0.3-1.2s0.5-0.7,0.8-0.9s0.8-0.3,1.3-0.3c0.5,0,0.9,0.1,1.3,0.3c0.3,0.2,0.6,0.5,0.8,0.9s0.3,0.8,0.3,1.2
					v0.6c0,0.4-0.1,0.8-0.3,1.2c-0.2,0.4-0.4,0.7-0.8,0.9s-0.8,0.3-1.3,0.3c-0.5,0-0.9-0.1-1.3-0.3c-0.4-0.2-0.6-0.5-0.8-0.9
					C235.6,339,235.6,338.6,235.6,338.2z M236.9,337.6v0.6c0,0.3,0.1,0.6,0.2,0.9c0.2,0.3,0.4,0.4,0.8,0.4c0.4,0,0.6-0.1,0.8-0.4
					c0.2-0.3,0.2-0.6,0.2-0.9v-0.6c0-0.3-0.1-0.6-0.2-0.9c-0.1-0.3-0.4-0.4-0.8-0.4c-0.4,0-0.6,0.1-0.8,0.4
					C237,336.9,236.9,337.2,236.9,337.6z"/>
			</g>
		</g>
		<g>
			<g>
				<path class="st5" d="M35.7,360.2c-1.1-3.5-4.3-6.1-8.1-6.1s-7.1,2.5-8.1,6c-0.2,0.8-0.4,1.7-0.4,2.5c0,0.8,0.1,1.7,0.4,2.4
					c1.1,3.5,4.3,6.1,8.1,6.1s7.1-2.5,8.1-6c0.2-0.8,0.4-1.7,0.4-2.5C36,361.7,35.9,361,35.7,360.2z M27.5,367
					c-1.4,0-2.6-0.7-3.5-1.8c-0.6-0.7-0.8-1.7-0.8-2.6c0-0.8,0.2-1.7,0.7-2.3c0.7-1.2,2.2-2,3.7-2c1.6,0,3,0.8,3.7,2.2
					c0.4,0.6,0.6,1.4,0.6,2.3c0,1.1-0.4,1.9-1,2.6C30.2,366.3,29,367,27.5,367z"/>
				<path class="st5" d="M25.7,362.8c0-1,0.8-1.8,1.8-1.8c1,0,1.8,0.8,1.8,1.8c0,1-0.8,1.8-1.8,1.8
					C26.6,364.6,25.7,363.8,25.7,362.8z"/>
			</g>
			<g>
				<path class="st2" d="M55.4,359.6h1.8v7.7c0,0.8-0.2,1.5-0.6,2.2c-0.4,0.6-0.9,1.1-1.6,1.5s-1.5,0.5-2.4,0.5
					c-0.9,0-1.7-0.2-2.4-0.5s-1.2-0.9-1.6-1.5c-0.4-0.6-0.6-1.3-0.6-2.2v-7.7h1.8v7.5c0,0.5,0.1,1,0.3,1.4c0.2,0.4,0.6,0.7,1,1
					c0.4,0.2,0.9,0.3,1.5,0.3c0.6,0,1.1-0.1,1.5-0.3c0.4-0.2,0.8-0.6,1-1c0.2-0.4,0.3-0.9,0.3-1.4V359.6z"/>
				<path class="st2" d="M61.3,366.1v5.2h-1.7v-8.7h1.6v1.4h0.1c0.2-0.5,0.5-0.8,0.9-1.1c0.4-0.3,1-0.4,1.6-0.4
					c0.6,0,1.1,0.1,1.6,0.4c0.4,0.2,0.8,0.6,1,1.1c0.2,0.5,0.4,1.1,0.4,1.8v5.6h-1.7v-5.3c0-0.6-0.2-1.1-0.5-1.5
					c-0.3-0.4-0.8-0.5-1.4-0.5c-0.4,0-0.7,0.1-1,0.3c-0.3,0.2-0.5,0.4-0.7,0.7C61.3,365.2,61.3,365.6,61.3,366.1z"/>
				<path class="st2" d="M70.8,366.1v5.2h-1.7v-11.6h1.7v4.3h0.1c0.2-0.5,0.5-0.8,0.9-1.1c0.4-0.3,1-0.4,1.6-0.4
					c0.6,0,1.1,0.1,1.6,0.4c0.4,0.2,0.8,0.6,1,1.1s0.4,1.1,0.4,1.8v5.6h-1.7v-5.3c0-0.6-0.2-1.1-0.5-1.5c-0.3-0.4-0.8-0.5-1.4-0.5
					c-0.4,0-0.8,0.1-1.1,0.3c-0.3,0.2-0.6,0.4-0.7,0.7C70.9,365.2,70.8,365.6,70.8,366.1z"/>
				<path class="st2" d="M82.5,371.5c-0.9,0-1.6-0.2-2.2-0.6s-1.1-0.9-1.4-1.6c-0.3-0.7-0.5-1.5-0.5-2.4c0-0.9,0.2-1.7,0.5-2.4
					c0.3-0.7,0.8-1.2,1.4-1.6c0.6-0.4,1.3-0.6,2.1-0.6c0.5,0,1,0.1,1.4,0.2s0.9,0.4,1.2,0.8c0.4,0.3,0.7,0.8,0.9,1.4
					c0.2,0.6,0.3,1.2,0.3,2v0.6h-6.9v-1.3h5.3c0-0.4-0.1-0.8-0.3-1.2s-0.4-0.6-0.8-0.8c-0.3-0.2-0.7-0.3-1.2-0.3
					c-0.5,0-0.9,0.1-1.2,0.3c-0.4,0.2-0.6,0.5-0.8,0.9c-0.2,0.4-0.3,0.8-0.3,1.2v1c0,0.6,0.1,1.1,0.3,1.5c0.2,0.4,0.5,0.7,0.9,0.9
					c0.4,0.2,0.8,0.3,1.3,0.3c0.3,0,0.6,0,0.9-0.1c0.3-0.1,0.5-0.2,0.7-0.4c0.2-0.2,0.3-0.4,0.4-0.7l1.6,0.3
					c-0.1,0.5-0.4,0.9-0.7,1.2c-0.3,0.4-0.7,0.6-1.2,0.8C83.7,371.4,83.1,371.5,82.5,371.5z"/>
				<path class="st2" d="M90.7,371.5c-0.6,0-1.1-0.1-1.5-0.3c-0.4-0.2-0.8-0.5-1.1-0.9c-0.3-0.4-0.4-0.9-0.4-1.4
					c0-0.5,0.1-0.9,0.3-1.2s0.4-0.6,0.8-0.8s0.7-0.3,1.1-0.4c0.4-0.1,0.8-0.2,1.2-0.2c0.5-0.1,0.9-0.1,1.3-0.2
					c0.3,0,0.6-0.1,0.7-0.2c0.1-0.1,0.2-0.2,0.2-0.4v0c0-0.5-0.1-0.9-0.4-1.2s-0.7-0.4-1.2-0.4c-0.6,0-1,0.1-1.3,0.4
					c-0.3,0.3-0.6,0.5-0.7,0.8l-1.6-0.4c0.2-0.5,0.5-1,0.8-1.3c0.4-0.3,0.8-0.6,1.3-0.7s1-0.2,1.5-0.2c0.3,0,0.7,0,1.1,0.1
					c0.4,0.1,0.8,0.2,1.1,0.4s0.6,0.5,0.8,0.9s0.3,0.9,0.3,1.6v5.8h-1.7v-1.2h-0.1c-0.1,0.2-0.3,0.4-0.5,0.6
					c-0.2,0.2-0.5,0.4-0.8,0.5C91.6,371.4,91.2,371.5,90.7,371.5z M91.1,370.1c0.5,0,0.9-0.1,1.2-0.3c0.3-0.2,0.6-0.4,0.8-0.7
					c0.2-0.3,0.3-0.6,0.3-1V367c-0.1,0.1-0.2,0.1-0.3,0.2c-0.2,0.1-0.4,0.1-0.6,0.1s-0.4,0.1-0.6,0.1c-0.2,0-0.4,0.1-0.5,0.1
					c-0.3,0-0.6,0.1-0.9,0.2c-0.3,0.1-0.5,0.2-0.6,0.4c-0.2,0.2-0.2,0.4-0.2,0.7c0,0.4,0.2,0.7,0.5,1S90.6,370.1,91.1,370.1z"/>
				<path class="st2" d="M99,359.6v11.6h-1.7v-11.6H99z"/>
				<path class="st2" d="M105.3,362.6v1.4h-4.8v-1.4H105.3z M101.8,360.5h1.7v8.3c0,0.3,0,0.6,0.1,0.7c0.1,0.2,0.2,0.3,0.4,0.3
					c0.2,0.1,0.3,0.1,0.5,0.1c0.1,0,0.3,0,0.4,0c0.1,0,0.2,0,0.2,0l0.3,1.4c-0.1,0-0.2,0.1-0.4,0.1c-0.2,0-0.4,0.1-0.7,0.1
					c-0.4,0-0.9-0.1-1.2-0.2c-0.4-0.2-0.7-0.4-0.9-0.8c-0.2-0.3-0.4-0.8-0.4-1.3V360.5z"/>
				<path class="st2" d="M108.9,366.1v5.2h-1.7v-11.6h1.7v4.3h0.1c0.2-0.5,0.5-0.8,0.9-1.1c0.4-0.3,1-0.4,1.6-0.4
					c0.6,0,1.1,0.1,1.6,0.4c0.4,0.2,0.8,0.6,1,1.1s0.4,1.1,0.4,1.8v5.6h-1.7v-5.3c0-0.6-0.2-1.1-0.5-1.5c-0.3-0.4-0.8-0.5-1.4-0.5
					c-0.4,0-0.8,0.1-1.1,0.3c-0.3,0.2-0.6,0.4-0.7,0.7C109,365.2,108.9,365.6,108.9,366.1z"/>
				<path class="st2" d="M117.9,374.6c-0.3,0-0.5,0-0.7-0.1c-0.2,0-0.4-0.1-0.5-0.1l0.4-1.4c0.3,0.1,0.6,0.1,0.8,0.1
					c0.2,0,0.5-0.1,0.6-0.3c0.2-0.2,0.4-0.4,0.5-0.8l0.2-0.6l-3.2-8.8h1.8l2.2,6.8h0.1l2.2-6.8h1.8l-3.6,9.9
					c-0.2,0.5-0.4,0.8-0.6,1.2s-0.6,0.6-0.9,0.7C118.8,374.5,118.4,374.6,117.9,374.6z"/>
			</g>
			<g>
				<g>
					<path class="st2" d="M212,371.3l5.1-10v-0.1h-5.9v-1.5h7.7v1.6l-5.1,10.1H212z"/>
					<path class="st2" d="M221.1,362.4v-0.6c0-0.4,0.1-0.8,0.3-1.2c0.2-0.4,0.5-0.7,0.8-0.9c0.4-0.2,0.8-0.3,1.3-0.3
						c0.5,0,0.9,0.1,1.3,0.3c0.3,0.2,0.6,0.5,0.8,0.9c0.2,0.4,0.3,0.8,0.3,1.2v0.6c0,0.4-0.1,0.8-0.3,1.2c-0.2,0.4-0.4,0.7-0.8,0.9
						s-0.8,0.3-1.3,0.3c-0.5,0-0.9-0.1-1.3-0.3s-0.6-0.5-0.8-0.9C221.2,363.3,221.1,362.9,221.1,362.4z M221.6,371.3l8-11.6h1.4
						l-8,11.6H221.6z M222.4,361.8v0.6c0,0.3,0.1,0.6,0.2,0.9c0.2,0.3,0.4,0.4,0.8,0.4c0.4,0,0.6-0.1,0.8-0.4
						c0.2-0.3,0.2-0.6,0.2-0.9v-0.6c0-0.3-0.1-0.6-0.2-0.9c-0.1-0.3-0.4-0.4-0.8-0.4c-0.4,0-0.6,0.1-0.8,0.4
						C222.5,361.2,222.4,361.5,222.4,361.8z M226.9,369.1v-0.6c0-0.4,0.1-0.8,0.3-1.2s0.5-0.7,0.8-0.9s0.8-0.3,1.3-0.3
						c0.5,0,0.9,0.1,1.3,0.3c0.3,0.2,0.6,0.5,0.8,0.9s0.3,0.8,0.3,1.2v0.6c0,0.4-0.1,0.8-0.3,1.2c-0.2,0.4-0.4,0.7-0.8,0.9
						s-0.8,0.3-1.3,0.3c-0.5,0-0.9-0.1-1.3-0.3c-0.4-0.2-0.6-0.5-0.8-0.9C227,369.9,226.9,369.5,226.9,369.1z M228.3,368.5v0.6
						c0,0.3,0.1,0.6,0.2,0.9c0.2,0.3,0.4,0.4,0.8,0.4c0.4,0,0.6-0.1,0.8-0.4c0.2-0.3,0.2-0.6,0.2-0.9v-0.6c0-0.3-0.1-0.6-0.2-0.9
						c-0.1-0.3-0.4-0.4-0.8-0.4c-0.4,0-0.6,0.1-0.8,0.4C228.3,367.9,228.3,368.2,228.3,368.5z"/>
				</g>
			</g>
		</g>
		<g>
			<g>
				<path class="st6" d="M35.7,389.3c-1.1-3.5-4.3-6.1-8.1-6.1s-7.1,2.5-8.1,6c-0.2,0.8-0.4,1.7-0.4,2.5c0,0.8,0.1,1.7,0.4,2.4
					c1.1,3.5,4.3,6.1,8.1,6.1s7.1-2.5,8.1-6c0.2-0.8,0.4-1.7,0.4-2.5C36,390.8,35.9,390.1,35.7,389.3z M27.5,396.1
					c-1.4,0-2.6-0.7-3.5-1.8c-0.6-0.7-0.8-1.7-0.8-2.6c0-0.8,0.2-1.7,0.7-2.3c0.7-1.2,2.2-2,3.7-2c1.6,0,3,0.8,3.7,2.2
					c0.4,0.6,0.6,1.4,0.6,2.3c0,1.1-0.4,1.9-1,2.6C30.2,395.4,29,396.1,27.5,396.1z"/>
				<path class="st6" d="M25.7,391.9c0-1,0.8-1.8,1.8-1.8c1,0,1.8,0.8,1.8,1.8c0,1-0.8,1.8-1.8,1.8
					C26.6,393.7,25.7,392.9,25.7,391.9z"/>
			</g>
			<g>
				<path class="st2" d="M48.9,388.8l3.2,9.5h0.1l3.2-9.5h1.9l-4.2,11.6h-2L47,388.8H48.9z"/>
				<path class="st2" d="M62.7,400.6c-0.9,0-1.6-0.2-2.2-0.6s-1.1-0.9-1.4-1.6c-0.3-0.7-0.5-1.5-0.5-2.4c0-0.9,0.2-1.7,0.5-2.4
					c0.3-0.7,0.8-1.2,1.4-1.6c0.6-0.4,1.3-0.6,2.1-0.6c0.5,0,1,0.1,1.4,0.2s0.9,0.4,1.2,0.8c0.4,0.3,0.7,0.8,0.9,1.4
					c0.2,0.6,0.3,1.2,0.3,2v0.6h-6.9v-1.3h5.3c0-0.4-0.1-0.8-0.3-1.2s-0.4-0.6-0.8-0.8c-0.3-0.2-0.7-0.3-1.2-0.3
					c-0.5,0-0.9,0.1-1.2,0.3c-0.4,0.2-0.6,0.5-0.8,0.9c-0.2,0.4-0.3,0.8-0.3,1.2v1c0,0.6,0.1,1.1,0.3,1.5c0.2,0.4,0.5,0.7,0.9,0.9
					c0.4,0.2,0.8,0.3,1.3,0.3c0.3,0,0.6,0,0.9-0.1c0.3-0.1,0.5-0.2,0.7-0.4c0.2-0.2,0.3-0.4,0.4-0.7l1.6,0.3
					c-0.1,0.5-0.4,0.9-0.7,1.2c-0.3,0.4-0.7,0.6-1.2,0.8C63.9,400.5,63.4,400.6,62.7,400.6z"/>
				<path class="st2" d="M68.4,400.4v-8.7H70v1.4h0.1c0.2-0.5,0.4-0.8,0.8-1.1c0.4-0.3,0.9-0.4,1.4-0.4c0.1,0,0.2,0,0.4,0
					s0.3,0,0.3,0v1.6c-0.1,0-0.2,0-0.4-0.1c-0.2,0-0.3,0-0.5,0c-0.4,0-0.8,0.1-1.1,0.3c-0.3,0.2-0.6,0.4-0.7,0.7
					c-0.2,0.3-0.3,0.6-0.3,1v5.3H68.4z"/>
				<path class="st2" d="M75.6,403.7c-0.3,0-0.5,0-0.7-0.1c-0.2,0-0.4-0.1-0.5-0.1l0.4-1.4c0.3,0.1,0.6,0.1,0.8,0.1
					c0.2,0,0.5-0.1,0.6-0.3c0.2-0.2,0.4-0.4,0.5-0.8l0.2-0.6l-3.2-8.8h1.8l2.2,6.8h0.1l2.2-6.8H82l-3.6,9.9
					c-0.2,0.5-0.4,0.8-0.6,1.2s-0.6,0.6-0.9,0.7C76.5,403.6,76,403.7,75.6,403.7z"/>
				<path class="st2" d="M95.4,388.8h1.8v7.7c0,0.8-0.2,1.5-0.6,2.2c-0.4,0.6-0.9,1.1-1.6,1.5s-1.5,0.5-2.4,0.5
					c-0.9,0-1.7-0.2-2.4-0.5s-1.2-0.9-1.6-1.5c-0.4-0.6-0.6-1.3-0.6-2.2v-7.7h1.8v7.5c0,0.5,0.1,1,0.3,1.4c0.2,0.4,0.6,0.7,1,1
					c0.4,0.2,0.9,0.3,1.5,0.3c0.6,0,1.1-0.1,1.5-0.3c0.4-0.2,0.8-0.6,1-1c0.2-0.4,0.3-0.9,0.3-1.4V388.8z"/>
				<path class="st2" d="M101.3,395.2v5.2h-1.7v-8.7h1.6v1.4h0.1c0.2-0.5,0.5-0.8,0.9-1.1c0.4-0.3,1-0.4,1.6-0.4
					c0.6,0,1.1,0.1,1.6,0.4c0.4,0.2,0.8,0.6,1,1.1c0.2,0.5,0.4,1.1,0.4,1.8v5.6h-1.7V395c0-0.6-0.2-1.1-0.5-1.5
					c-0.3-0.4-0.8-0.5-1.4-0.5c-0.4,0-0.7,0.1-1,0.3c-0.3,0.2-0.5,0.4-0.7,0.7C101.4,394.4,101.3,394.7,101.3,395.2z"/>
				<path class="st2" d="M110.9,395.2v5.2h-1.7v-11.6h1.7v4.3h0.1c0.2-0.5,0.5-0.8,0.9-1.1c0.4-0.3,1-0.4,1.6-0.4
					c0.6,0,1.1,0.1,1.6,0.4c0.4,0.2,0.8,0.6,1,1.1s0.4,1.1,0.4,1.8v5.6h-1.7V395c0-0.6-0.2-1.1-0.5-1.5c-0.3-0.4-0.8-0.5-1.4-0.5
					c-0.4,0-0.8,0.1-1.1,0.3c-0.3,0.2-0.6,0.4-0.7,0.7C111,394.4,110.9,394.7,110.9,395.2z"/>
				<path class="st2" d="M122.6,400.6c-0.9,0-1.6-0.2-2.2-0.6s-1.1-0.9-1.4-1.6c-0.3-0.7-0.5-1.5-0.5-2.4c0-0.9,0.2-1.7,0.5-2.4
					c0.3-0.7,0.8-1.2,1.4-1.6c0.6-0.4,1.3-0.6,2.1-0.6c0.5,0,1,0.1,1.4,0.2s0.9,0.4,1.2,0.8c0.4,0.3,0.7,0.8,0.9,1.4
					c0.2,0.6,0.3,1.2,0.3,2v0.6h-6.9v-1.3h5.3c0-0.4-0.1-0.8-0.3-1.2s-0.4-0.6-0.8-0.8c-0.3-0.2-0.7-0.3-1.2-0.3
					c-0.5,0-0.9,0.1-1.2,0.3c-0.4,0.2-0.6,0.5-0.8,0.9c-0.2,0.4-0.3,0.8-0.3,1.2v1c0,0.6,0.1,1.1,0.3,1.5c0.2,0.4,0.5,0.7,0.9,0.9
					c0.4,0.2,0.8,0.3,1.3,0.3c0.3,0,0.6,0,0.9-0.1c0.3-0.1,0.5-0.2,0.7-0.4c0.2-0.2,0.3-0.4,0.4-0.7l1.6,0.3
					c-0.1,0.5-0.4,0.9-0.7,1.2c-0.3,0.4-0.7,0.6-1.2,0.8C123.8,400.5,123.2,400.6,122.6,400.6z"/>
				<path class="st2" d="M130.7,400.6c-0.6,0-1.1-0.1-1.5-0.3c-0.4-0.2-0.8-0.5-1.1-0.9c-0.3-0.4-0.4-0.9-0.4-1.4
					c0-0.5,0.1-0.9,0.3-1.2s0.4-0.6,0.8-0.8s0.7-0.3,1.1-0.4c0.4-0.1,0.8-0.2,1.2-0.2c0.5-0.1,0.9-0.1,1.3-0.2
					c0.3,0,0.6-0.1,0.7-0.2c0.1-0.1,0.2-0.2,0.2-0.4v0c0-0.5-0.1-0.9-0.4-1.2s-0.7-0.4-1.2-0.4c-0.6,0-1,0.1-1.3,0.4
					c-0.3,0.3-0.6,0.5-0.7,0.8l-1.6-0.4c0.2-0.5,0.5-1,0.8-1.3c0.4-0.3,0.8-0.6,1.3-0.7s1-0.2,1.5-0.2c0.3,0,0.7,0,1.1,0.1
					c0.4,0.1,0.8,0.2,1.1,0.4s0.6,0.5,0.8,0.9s0.3,0.9,0.3,1.6v5.8h-1.7v-1.2h-0.1c-0.1,0.2-0.3,0.4-0.5,0.6
					c-0.2,0.2-0.5,0.4-0.8,0.5C131.6,400.5,131.2,400.6,130.7,400.6z M131.1,399.2c0.5,0,0.9-0.1,1.2-0.3c0.3-0.2,0.6-0.4,0.8-0.7
					c0.2-0.3,0.3-0.6,0.3-1v-1.1c-0.1,0.1-0.2,0.1-0.3,0.2c-0.2,0.1-0.4,0.1-0.6,0.1s-0.4,0.1-0.6,0.1c-0.2,0-0.4,0.1-0.5,0.1
					c-0.3,0-0.6,0.1-0.9,0.2c-0.3,0.1-0.5,0.2-0.6,0.4c-0.2,0.2-0.2,0.4-0.2,0.7c0,0.4,0.2,0.7,0.5,1S130.6,399.2,131.1,399.2z"/>
				<path class="st2" d="M139,388.8v11.6h-1.7v-11.6H139z"/>
				<path class="st2" d="M145.4,391.7v1.4h-4.8v-1.4H145.4z M141.9,389.6h1.7v8.3c0,0.3,0,0.6,0.1,0.7c0.1,0.2,0.2,0.3,0.4,0.3
					c0.2,0.1,0.3,0.1,0.5,0.1c0.1,0,0.3,0,0.4,0c0.1,0,0.2,0,0.2,0l0.3,1.4c-0.1,0-0.2,0.1-0.4,0.1c-0.2,0-0.4,0.1-0.7,0.1
					c-0.4,0-0.9-0.1-1.2-0.2c-0.4-0.2-0.7-0.4-0.9-0.8c-0.2-0.3-0.4-0.8-0.4-1.3V389.6z"/>
				<path class="st2" d="M148.9,395.2v5.2h-1.7v-11.6h1.7v4.3h0.1c0.2-0.5,0.5-0.8,0.9-1.1c0.4-0.3,1-0.4,1.6-0.4
					c0.6,0,1.1,0.1,1.6,0.4c0.4,0.2,0.8,0.6,1,1.1s0.4,1.1,0.4,1.8v5.6h-1.7V395c0-0.6-0.2-1.1-0.5-1.5c-0.3-0.4-0.8-0.5-1.4-0.5
					c-0.4,0-0.8,0.1-1.1,0.3c-0.3,0.2-0.6,0.4-0.7,0.7C149,394.4,148.9,394.7,148.9,395.2z"/>
				<path class="st2" d="M157.9,403.7c-0.3,0-0.5,0-0.7-0.1c-0.2,0-0.4-0.1-0.5-0.1l0.4-1.4c0.3,0.1,0.6,0.1,0.8,0.1
					c0.2,0,0.5-0.1,0.6-0.3c0.2-0.2,0.4-0.4,0.5-0.8l0.2-0.6l-3.2-8.8h1.8l2.2,6.8h0.1l2.2-6.8h1.8l-3.6,9.9
					c-0.2,0.5-0.4,0.8-0.6,1.2s-0.6,0.6-0.9,0.7C158.8,403.6,158.4,403.7,157.9,403.7z"/>
			</g>
			<g>
				<g>
					<path class="st2" d="M215.5,400.5c-0.7,0-1.4-0.1-1.9-0.4c-0.6-0.3-1-0.7-1.4-1.1c-0.3-0.5-0.5-1-0.5-1.6h1.7
						c0,0.5,0.3,0.9,0.7,1.2c0.4,0.3,0.9,0.5,1.4,0.5c0.4,0,0.8-0.1,1.2-0.3c0.3-0.2,0.6-0.5,0.8-0.9c0.2-0.4,0.3-0.8,0.3-1.2
						c0-0.5-0.1-0.9-0.3-1.3c-0.2-0.4-0.5-0.7-0.8-0.9c-0.4-0.2-0.8-0.3-1.2-0.3c-0.4,0-0.7,0.1-1.1,0.2c-0.4,0.1-0.6,0.3-0.9,0.5
						l-1.6-0.2l0.7-5.9h6.4v1.5H214l-0.4,3.3h0.1c0.2-0.2,0.5-0.4,0.9-0.6c0.4-0.1,0.8-0.2,1.2-0.2c0.7,0,1.3,0.2,1.9,0.5
						c0.6,0.3,1,0.8,1.3,1.4c0.3,0.6,0.5,1.2,0.5,2c0,0.8-0.2,1.4-0.5,2s-0.8,1.1-1.4,1.4C216.9,400.4,216.2,400.5,215.5,400.5z"/>
					<path class="st2" d="M221.8,391.5v-0.6c0-0.4,0.1-0.8,0.3-1.2c0.2-0.4,0.5-0.7,0.8-0.9c0.4-0.2,0.8-0.3,1.3-0.3
						c0.5,0,0.9,0.1,1.3,0.3c0.3,0.2,0.6,0.5,0.8,0.9c0.2,0.4,0.3,0.8,0.3,1.2v0.6c0,0.4-0.1,0.8-0.3,1.2c-0.2,0.4-0.4,0.7-0.8,0.9
						s-0.8,0.3-1.3,0.3c-0.5,0-0.9-0.1-1.3-0.3s-0.6-0.5-0.8-0.9C221.8,392.4,221.8,392,221.8,391.5z M222.3,400.4l8-11.6h1.4
						l-8,11.6H222.3z M223.1,390.9v0.6c0,0.3,0.1,0.6,0.2,0.9c0.2,0.3,0.4,0.4,0.8,0.4c0.4,0,0.6-0.1,0.8-0.4
						c0.2-0.3,0.2-0.6,0.2-0.9v-0.6c0-0.3-0.1-0.6-0.2-0.9c-0.1-0.3-0.4-0.4-0.8-0.4c-0.4,0-0.6,0.1-0.8,0.4
						C223.2,390.3,223.1,390.6,223.1,390.9z M227.6,398.2v-0.6c0-0.4,0.1-0.8,0.3-1.2s0.5-0.7,0.8-0.9s0.8-0.3,1.3-0.3
						c0.5,0,0.9,0.1,1.3,0.3c0.3,0.2,0.6,0.5,0.8,0.9s0.3,0.8,0.3,1.2v0.6c0,0.4-0.1,0.8-0.3,1.2c-0.2,0.4-0.4,0.7-0.8,0.9
						s-0.8,0.3-1.3,0.3c-0.5,0-0.9-0.1-1.3-0.3c-0.4-0.2-0.6-0.5-0.8-0.9C227.7,399,227.6,398.6,227.6,398.2z M228.9,397.6v0.6
						c0,0.3,0.1,0.6,0.2,0.9c0.2,0.3,0.4,0.4,0.8,0.4c0.4,0,0.6-0.1,0.8-0.4c0.2-0.3,0.2-0.6,0.2-0.9v-0.6c0-0.3-0.1-0.6-0.2-0.9
						c-0.1-0.3-0.4-0.4-0.8-0.4c-0.4,0-0.6,0.1-0.8,0.4C229,397,228.9,397.3,228.9,397.6z"/>
				</g>
			</g>
		</g>
		<g>
			<g>
				<path class="st7" d="M35.7,419.1c-1.1-3.5-4.3-6.1-8.1-6.1s-7.1,2.5-8.1,6c-0.2,0.8-0.4,1.7-0.4,2.5c0,0.8,0.1,1.7,0.4,2.4
					c1.1,3.5,4.3,6.1,8.1,6.1s7.1-2.5,8.1-6c0.2-0.8,0.4-1.7,0.4-2.5C36,420.6,35.9,419.9,35.7,419.1z M27.5,425.9
					c-1.4,0-2.6-0.7-3.5-1.8c-0.6-0.7-0.8-1.7-0.8-2.6c0-0.8,0.2-1.7,0.7-2.3c0.7-1.2,2.2-2,3.7-2c1.6,0,3,0.8,3.7,2.2
					c0.4,0.6,0.6,1.4,0.6,2.3c0,1.1-0.4,1.9-1,2.6C30.2,425.2,29,425.9,27.5,425.9z"/>
				<path class="st7" d="M25.7,421.7c0-1,0.8-1.8,1.8-1.8c1,0,1.8,0.8,1.8,1.8c0,1-0.8,1.8-1.8,1.8
					C26.6,423.5,25.7,422.7,25.7,421.7z"/>
			</g>
			<g>
				<path class="st2" d="M47.9,428.8v-11.6h1.8v5.1h5.8v-5.1h1.8v11.6h-1.8v-5.1h-5.8v5.1H47.9z"/>
				<path class="st2" d="M62.2,429c-0.6,0-1.1-0.1-1.5-0.3c-0.4-0.2-0.8-0.5-1.1-0.9c-0.3-0.4-0.4-0.9-0.4-1.4
					c0-0.5,0.1-0.9,0.3-1.2s0.4-0.6,0.8-0.8s0.7-0.3,1.1-0.4c0.4-0.1,0.8-0.2,1.2-0.2c0.5-0.1,0.9-0.1,1.3-0.2
					c0.3,0,0.6-0.1,0.7-0.2c0.1-0.1,0.2-0.2,0.2-0.4v0c0-0.5-0.1-0.9-0.4-1.2s-0.7-0.4-1.2-0.4c-0.6,0-1,0.1-1.3,0.4
					c-0.3,0.3-0.6,0.5-0.7,0.8l-1.6-0.4c0.2-0.5,0.5-1,0.8-1.3c0.4-0.3,0.8-0.6,1.3-0.7s1-0.2,1.5-0.2c0.3,0,0.7,0,1.1,0.1
					c0.4,0.1,0.8,0.2,1.1,0.4s0.6,0.5,0.8,0.9s0.3,0.9,0.3,1.6v5.8h-1.7v-1.2h-0.1c-0.1,0.2-0.3,0.4-0.5,0.6
					c-0.2,0.2-0.5,0.4-0.8,0.5C63.1,428.9,62.7,429,62.2,429z M62.5,427.6c0.5,0,0.9-0.1,1.2-0.3c0.3-0.2,0.6-0.4,0.8-0.7
					c0.2-0.3,0.3-0.6,0.3-1v-1.1c-0.1,0.1-0.2,0.1-0.3,0.2c-0.2,0.1-0.4,0.1-0.6,0.1s-0.4,0.1-0.6,0.1c-0.2,0-0.4,0.1-0.5,0.1
					c-0.3,0-0.6,0.1-0.9,0.2c-0.3,0.1-0.5,0.2-0.6,0.4c-0.2,0.2-0.2,0.4-0.2,0.7c0,0.4,0.2,0.7,0.5,1S62.1,427.6,62.5,427.6z"/>
				<path class="st2" d="M68.6,428.8v-1.2l4.7-6v-0.1h-4.6v-1.5h6.7v1.2l-4.5,5.9v0.1h4.7v1.5H68.6z"/>
				<path class="st2" d="M80.1,429c-0.6,0-1.1-0.1-1.5-0.3c-0.4-0.2-0.8-0.5-1.1-0.9c-0.3-0.4-0.4-0.9-0.4-1.4
					c0-0.5,0.1-0.9,0.3-1.2s0.4-0.6,0.8-0.8s0.7-0.3,1.1-0.4c0.4-0.1,0.8-0.2,1.2-0.2c0.5-0.1,0.9-0.1,1.3-0.2
					c0.3,0,0.6-0.1,0.7-0.2c0.1-0.1,0.2-0.2,0.2-0.4v0c0-0.5-0.1-0.9-0.4-1.2s-0.7-0.4-1.2-0.4c-0.6,0-1,0.1-1.3,0.4
					c-0.3,0.3-0.6,0.5-0.7,0.8l-1.6-0.4c0.2-0.5,0.5-1,0.8-1.3c0.4-0.3,0.8-0.6,1.3-0.7s1-0.2,1.5-0.2c0.3,0,0.7,0,1.1,0.1
					c0.4,0.1,0.8,0.2,1.1,0.4s0.6,0.5,0.8,0.9s0.3,0.9,0.3,1.6v5.8h-1.7v-1.2h-0.1c-0.1,0.2-0.3,0.4-0.5,0.6
					c-0.2,0.2-0.5,0.4-0.8,0.5C81,428.9,80.6,429,80.1,429z M80.5,427.6c0.5,0,0.9-0.1,1.2-0.3c0.3-0.2,0.6-0.4,0.8-0.7
					c0.2-0.3,0.3-0.6,0.3-1v-1.1c-0.1,0.1-0.2,0.1-0.3,0.2c-0.2,0.1-0.4,0.1-0.6,0.1s-0.4,0.1-0.6,0.1c-0.2,0-0.4,0.1-0.5,0.1
					c-0.3,0-0.6,0.1-0.9,0.2c-0.3,0.1-0.5,0.2-0.6,0.4c-0.2,0.2-0.2,0.4-0.2,0.7c0,0.4,0.2,0.7,0.5,1S80,427.6,80.5,427.6z"/>
				<path class="st2" d="M86.7,428.8v-8.7h1.6v1.4h0.1c0.2-0.5,0.4-0.8,0.8-1.1c0.4-0.3,0.9-0.4,1.4-0.4c0.1,0,0.2,0,0.4,0
					s0.3,0,0.3,0v1.6c-0.1,0-0.2,0-0.4-0.1c-0.2,0-0.3,0-0.5,0c-0.4,0-0.8,0.1-1.1,0.3c-0.3,0.2-0.6,0.4-0.7,0.7
					c-0.2,0.3-0.3,0.6-0.3,1v5.3H86.7z"/>
				<path class="st2" d="M96.1,429c-0.7,0-1.3-0.2-1.9-0.5c-0.6-0.4-1-0.9-1.3-1.6c-0.3-0.7-0.5-1.5-0.5-2.4s0.2-1.8,0.5-2.4
					c0.3-0.7,0.8-1.2,1.3-1.5c0.6-0.4,1.2-0.5,1.9-0.5c0.5,0,1,0.1,1.3,0.3c0.3,0.2,0.6,0.4,0.8,0.6c0.2,0.2,0.3,0.4,0.4,0.6h0.1
					v-4.3h1.7v11.6h-1.7v-1.4h-0.1c-0.1,0.2-0.2,0.4-0.4,0.6s-0.5,0.4-0.8,0.6C97.1,428.9,96.6,429,96.1,429z M96.5,427.5
					c0.5,0,0.9-0.1,1.2-0.4c0.3-0.3,0.6-0.6,0.8-1.1c0.2-0.5,0.3-1,0.3-1.6c0-0.6-0.1-1.1-0.3-1.6c-0.2-0.5-0.4-0.8-0.8-1.1
					c-0.3-0.3-0.8-0.4-1.2-0.4c-0.5,0-0.9,0.1-1.3,0.4c-0.3,0.3-0.6,0.6-0.8,1.1c-0.2,0.5-0.3,1-0.3,1.6c0,0.6,0.1,1.1,0.3,1.6
					c0.2,0.5,0.4,0.8,0.8,1.1C95.5,427.4,96,427.5,96.5,427.5z"/>
				<path class="st2" d="M106.5,429c-0.8,0-1.5-0.2-2.1-0.6c-0.6-0.4-1.1-0.9-1.4-1.6c-0.3-0.7-0.5-1.5-0.5-2.4
					c0-0.9,0.2-1.7,0.5-2.4c0.3-0.7,0.8-1.2,1.4-1.6c0.6-0.4,1.3-0.6,2.1-0.6s1.5,0.2,2.1,0.6c0.6,0.4,1.1,0.9,1.4,1.6
					c0.3,0.7,0.5,1.5,0.5,2.4c0,0.9-0.2,1.7-0.5,2.4c-0.3,0.7-0.8,1.2-1.4,1.6C108,428.8,107.3,429,106.5,429z M106.5,427.5
					c0.5,0,1-0.1,1.3-0.4c0.3-0.3,0.6-0.7,0.8-1.1c0.2-0.5,0.3-1,0.3-1.5c0-0.6-0.1-1.1-0.3-1.5c-0.2-0.5-0.4-0.8-0.8-1.1
					c-0.3-0.3-0.8-0.4-1.3-0.4c-0.5,0-1,0.1-1.3,0.4s-0.6,0.7-0.8,1.1s-0.3,1-0.3,1.5c0,0.6,0.1,1.1,0.3,1.5s0.4,0.8,0.8,1.1
					C105.5,427.4,106,427.5,106.5,427.5z"/>
				<path class="st2" d="M118,425.2v-5.1h1.7v8.7H118v-1.5h-0.1c-0.2,0.5-0.5,0.9-1,1.2s-1,0.5-1.6,0.5c-0.6,0-1.1-0.1-1.5-0.4
					c-0.4-0.2-0.8-0.6-1-1.1c-0.2-0.5-0.4-1.1-0.4-1.8v-5.6h1.7v5.3c0,0.6,0.2,1.1,0.5,1.4c0.3,0.4,0.8,0.5,1.3,0.5
					c0.3,0,0.6-0.1,1-0.2c0.3-0.2,0.6-0.4,0.8-0.7C117.9,426.1,118,425.7,118,425.2z"/>
				<path class="st2" d="M128.5,422.2l-1.5,0.3c-0.1-0.2-0.2-0.4-0.3-0.6c-0.1-0.2-0.3-0.3-0.6-0.4c-0.2-0.1-0.5-0.2-0.9-0.2
					c-0.5,0-0.9,0.1-1.2,0.3c-0.3,0.2-0.5,0.5-0.5,0.8c0,0.3,0.1,0.5,0.3,0.7c0.2,0.2,0.6,0.3,1,0.4l1.4,0.3
					c0.8,0.2,1.4,0.5,1.8,0.9c0.4,0.4,0.6,0.9,0.6,1.5c0,0.5-0.2,1-0.5,1.4c-0.3,0.4-0.7,0.7-1.3,1c-0.5,0.2-1.2,0.3-1.9,0.3
					c-1,0-1.8-0.2-2.4-0.6c-0.6-0.4-1-1-1.1-1.8l1.6-0.2c0.1,0.4,0.3,0.8,0.6,1s0.7,0.3,1.2,0.3c0.6,0,1-0.1,1.3-0.3
					c0.3-0.2,0.5-0.5,0.5-0.9c0-0.3-0.1-0.5-0.3-0.7c-0.2-0.2-0.5-0.3-0.9-0.4l-1.5-0.3c-0.8-0.2-1.4-0.5-1.8-0.9s-0.6-0.9-0.6-1.5
					c0-0.5,0.1-1,0.4-1.4c0.3-0.4,0.7-0.7,1.2-0.9c0.5-0.2,1.1-0.3,1.7-0.3c0.9,0,1.7,0.2,2.2,0.6C128,421,128.3,421.5,128.5,422.2z
					"/>
			</g>
			<g>
				<g>
					<path class="st2" d="M211.6,428.8v-1.3l3.9-4.1c0.4-0.4,0.8-0.8,1-1.2c0.3-0.3,0.5-0.7,0.6-1c0.1-0.3,0.2-0.6,0.2-1
						c0-0.4-0.1-0.7-0.3-1s-0.4-0.5-0.7-0.7s-0.7-0.2-1.1-0.2c-0.4,0-0.8,0.1-1.1,0.3c-0.3,0.2-0.5,0.4-0.7,0.7s-0.2,0.7-0.2,1.1
						h-1.7c0-0.7,0.2-1.3,0.5-1.9c0.3-0.5,0.8-0.9,1.3-1.2c0.6-0.3,1.2-0.4,1.9-0.4c0.7,0,1.4,0.1,1.9,0.4c0.6,0.3,1,0.7,1.3,1.2
						s0.5,1.1,0.5,1.7c0,0.4-0.1,0.9-0.2,1.3c-0.2,0.4-0.4,0.9-0.8,1.4c-0.4,0.5-1,1.1-1.7,1.8l-2.3,2.4v0.1h5.2v1.5H211.6z"/>
					<path class="st2" d="M221.6,419.9v-0.6c0-0.4,0.1-0.8,0.3-1.2c0.2-0.4,0.5-0.7,0.8-0.9c0.4-0.2,0.8-0.3,1.3-0.3
						c0.5,0,0.9,0.1,1.3,0.3c0.3,0.2,0.6,0.5,0.8,0.9c0.2,0.4,0.3,0.8,0.3,1.2v0.6c0,0.4-0.1,0.8-0.3,1.2c-0.2,0.4-0.4,0.7-0.8,0.9
						s-0.8,0.3-1.3,0.3c-0.5,0-0.9-0.1-1.3-0.3s-0.6-0.5-0.8-0.9C221.7,420.8,221.6,420.4,221.6,419.9z M222.2,428.8l8-11.6h1.4
						l-8,11.6H222.2z M223,419.3v0.6c0,0.3,0.1,0.6,0.2,0.9c0.2,0.3,0.4,0.4,0.8,0.4c0.4,0,0.6-0.1,0.8-0.4c0.2-0.3,0.2-0.6,0.2-0.9
						v-0.6c0-0.3-0.1-0.6-0.2-0.9c-0.1-0.3-0.4-0.4-0.8-0.4c-0.4,0-0.6,0.1-0.8,0.4C223.1,418.7,223,419,223,419.3z M227.5,426.6
						V426c0-0.4,0.1-0.8,0.3-1.2s0.5-0.7,0.8-0.9s0.8-0.3,1.3-0.3c0.5,0,0.9,0.1,1.3,0.3c0.3,0.2,0.6,0.5,0.8,0.9s0.3,0.8,0.3,1.2
						v0.6c0,0.4-0.1,0.8-0.3,1.2c-0.2,0.4-0.4,0.7-0.8,0.9s-0.8,0.3-1.3,0.3c-0.5,0-0.9-0.1-1.3-0.3c-0.4-0.2-0.6-0.5-0.8-0.9
						C227.6,427.4,227.5,427,227.5,426.6z M228.8,426v0.6c0,0.3,0.1,0.6,0.2,0.9c0.2,0.3,0.4,0.4,0.8,0.4c0.4,0,0.6-0.1,0.8-0.4
						c0.2-0.3,0.2-0.6,0.2-0.9V426c0-0.3-0.1-0.6-0.2-0.9c-0.1-0.3-0.4-0.4-0.8-0.4c-0.4,0-0.6,0.1-0.8,0.4
						C228.9,425.4,228.8,425.7,228.8,426z"/>
				</g>
			</g>
		</g>
		<g>
			<g>
				<path class="st8" d="M35.7,448.2c-1.1-3.5-4.3-6.1-8.1-6.1s-7.1,2.5-8.1,6c-0.2,0.8-0.4,1.7-0.4,2.5c0,0.8,0.1,1.7,0.4,2.4
					c1.1,3.5,4.3,6.1,8.1,6.1s7.1-2.5,8.1-6c0.2-0.8,0.4-1.7,0.4-2.5C36,449.7,35.9,449,35.7,448.2z M27.5,455
					c-1.4,0-2.6-0.7-3.5-1.8c-0.6-0.7-0.8-1.7-0.8-2.6c0-0.8,0.2-1.7,0.7-2.3c0.7-1.2,2.2-2,3.7-2c1.6,0,3,0.8,3.7,2.2
					c0.4,0.6,0.6,1.4,0.6,2.3c0,1.1-0.4,1.9-1,2.6C30.2,454.3,29,455,27.5,455z"/>
				<path class="st8" d="M25.7,450.8c0-1,0.8-1.8,1.8-1.8c1,0,1.8,0.8,1.8,1.8c0,1-0.8,1.8-1.8,1.8
					C26.6,452.6,25.7,451.8,25.7,450.8z"/>
			</g>
			<g>
				<path class="st2" d="M57.3,446.2v11.6h-1.6l-5.9-8.5h-0.1v8.5h-1.8v-11.6h1.6l5.9,8.5h0.1v-8.5H57.3z"/>
				<path class="st2" d="M64.1,445.7l-3.8,13.9h-1.5l3.8-13.9H64.1z"/>
				<path class="st2" d="M66.7,457.9h-1.9l4.2-11.6h2l4.2,11.6h-1.9l-3.3-9.5H70L66.7,457.9z M67,453.3h6v1.5h-6V453.3z"/>
			</g>
			<g>
				<g>
					<path class="st2" d="M216,446.2v11.6h-1.8V448h-0.1l-2.8,1.8v-1.7l2.9-1.9H216z"/>
					<path class="st2" d="M219.4,449v-0.6c0-0.4,0.1-0.8,0.3-1.2c0.2-0.4,0.5-0.7,0.8-0.9c0.4-0.2,0.8-0.3,1.3-0.3
						c0.5,0,0.9,0.1,1.3,0.3c0.3,0.2,0.6,0.5,0.8,0.9c0.2,0.4,0.3,0.8,0.3,1.2v0.6c0,0.4-0.1,0.8-0.3,1.2c-0.2,0.4-0.4,0.7-0.8,0.9
						s-0.8,0.3-1.3,0.3c-0.5,0-0.9-0.1-1.3-0.3s-0.6-0.5-0.8-0.9C219.5,449.9,219.4,449.5,219.4,449z M219.9,457.9l8-11.6h1.4
						l-8,11.6H219.9z M220.7,448.4v0.6c0,0.3,0.1,0.6,0.2,0.9c0.2,0.3,0.4,0.4,0.8,0.4c0.4,0,0.6-0.1,0.8-0.4
						c0.2-0.3,0.2-0.6,0.2-0.9v-0.6c0-0.3-0.1-0.6-0.2-0.9c-0.1-0.3-0.4-0.4-0.8-0.4c-0.4,0-0.6,0.1-0.8,0.4
						C220.8,447.8,220.7,448.1,220.7,448.4z M225.2,455.7v-0.6c0-0.4,0.1-0.8,0.3-1.2s0.5-0.7,0.8-0.9s0.8-0.3,1.3-0.3
						c0.5,0,0.9,0.1,1.3,0.3c0.3,0.2,0.6,0.5,0.8,0.9s0.3,0.8,0.3,1.2v0.6c0,0.4-0.1,0.8-0.3,1.2c-0.2,0.4-0.4,0.7-0.8,0.9
						s-0.8,0.3-1.3,0.3c-0.5,0-0.9-0.1-1.3-0.3c-0.4-0.2-0.6-0.5-0.8-0.9C225.3,456.5,225.2,456.1,225.2,455.7z M226.6,455.1v0.6
						c0,0.3,0.1,0.6,0.2,0.9c0.2,0.3,0.4,0.4,0.8,0.4c0.4,0,0.6-0.1,0.8-0.4c0.2-0.3,0.2-0.6,0.2-0.9v-0.6c0-0.3-0.1-0.6-0.2-0.9
						c-0.1-0.3-0.4-0.4-0.8-0.4c-0.4,0-0.6,0.1-0.8,0.4C226.7,454.5,226.6,454.8,226.6,455.1z"/>
				</g>
			</g>
		</g>
		<g>
			<path d="M107.8,153.9h-5.4l8.3-24h6.5l8.3,24H120l-6-18.5h-0.2L107.8,153.9z M107.5,144.5h12.8v4h-12.8V144.5z"/>
			<path d="M150.4,141.9c0,2.6-0.5,4.8-1.5,6.7s-2.3,3.2-4,4.2s-3.6,1.4-5.7,1.4c-2.1,0-4-0.5-5.7-1.5s-3-2.4-4-4.2
				s-1.5-4.1-1.5-6.7c0-2.6,0.5-4.8,1.5-6.7s2.3-3.2,4-4.2s3.6-1.4,5.7-1.4c2.1,0,4,0.5,5.7,1.4s3,2.4,4,4.2
				S150.4,139.3,150.4,141.9z M145.2,141.9c0-1.7-0.3-3.1-0.8-4.3s-1.2-2-2.1-2.6s-2-0.9-3.2-0.9s-2.3,0.3-3.2,0.9s-1.6,1.5-2.1,2.6
				s-0.8,2.6-0.8,4.3s0.3,3.1,0.8,4.3s1.2,2,2.1,2.6s2,0.9,3.2,0.9s2.3-0.3,3.2-0.9s1.6-1.5,2.1-2.6S145.2,143.6,145.2,141.9z
				 M137.4,145.6h4.3l2.2,2.8l2.1,2.5l4,5h-4.7l-2.8-3.4l-1.4-2L137.4,145.6z"/>
			<path d="M159.2,129.9v24h-5.1v-24H159.2z"/>
		</g>
		<line class="st9" x1="20" y1="257.8" x2="243" y2="257.8"/>
	</g>
	<g>
		<path class="st6" d="M99.2,77.7l-9.5-21.9c-7.3,3.5-14.1,8-20.2,13.1l16.1,17.6C89.8,83.1,94.3,80.1,99.2,77.7z"/>
		<path class="st7" d="M117.4,71.5l-3.4-23.6c-5.8,1.1-11.5,2.7-16.9,4.8l9.5,21.9C110,73.2,113.6,72.2,117.4,71.5z"/>
		<path class="st5" d="M79.8,91.9L63.6,74.3c-7.5,7.5-13.7,16.2-18.4,25.7l21.9,9.6C70.4,103.1,74.7,97.2,79.8,91.9z"/>
		<path class="st4" d="M59.2,142.6c0-9,1.6-17.6,4.6-25.5l-21.9-9.6c-4.3,10.9-6.6,22.8-6.6,35.2c0,7.1,0.8,14.1,2.2,20.7l23.1-6.1
			C59.7,152.5,59.2,147.6,59.2,142.6z"/>
		<path class="st3" d="M131.7,215.1c-32.3,0-59.6-21-69-50.2L39.6,171c12.1,39.3,48.8,67.9,92.1,67.9c47.2,0,86.4-33.8,94.7-78.6
			l-23.6-3.4C196.2,190.1,166.9,215.1,131.7,215.1z"/>
		<path class="st10" d="M127.6,70.2l0-23.9c-1.9,0.1-3.8,0.2-5.7,0.4l3.4,23.6C126,70.3,126.8,70.2,127.6,70.2z"/>
		<path class="st1" d="M204.2,142.6c0,2.2-0.1,4.3-0.3,6.5l23.6,3.4c0.3-3.3,0.5-6.6,0.5-9.9c0-52-41.1-94.3-92.6-96.3l0,23.9
			C173.9,72.1,204.2,103.8,204.2,142.6z"/>
	</g>
</g>
</svg>
