<?xml version="1.0" encoding="utf-8"?>
<!-- Generator: Adobe Illustrator 28.1.0, SVG Export Plug-In . SVG Version: 6.00 Build 0)  -->
<svg version="1.1" id="Layer_1" xmlns="http://www.w3.org/2000/svg" xmlns:xlink="http://www.w3.org/1999/xlink" x="0px" y="0px"
	 viewBox="0 0 49 43" style="enable-background:new 0 0 49 43;" xml:space="preserve">
<style type="text/css">
	.st0{fill:#EBEBEB;stroke:#E7E7E7;stroke-width:3.1586;stroke-linecap:round;stroke-linejoin:round;stroke-miterlimit:10;}
	.st1{fill:#4F4F4F;}
</style>
<g>
	<circle class="st0" cx="24.5" cy="21.5" r="15.3"/>
	<g>
		<g>
			<path class="st1" d="M15.7,29.2c0-4.6,0-9.3,0-13.9c0-0.1,0-0.1,0.1-0.2c0.1-0.5,0.5-0.8,1-0.8c0.6,0,1.3,0,1.9,0c0,0,0,0,0,0
				c0,0.1,0,0.1,0,0.2c0,0.5,0,1.1,0,1.6c0,0.2,0,0.4,0.1,0.6c0.2,0.5,0.7,0.7,1.3,0.7c0.8,0,1.3-0.5,1.3-1.3c0-0.5,0-1.1,0-1.6
				c0-0.1,0-0.1,0-0.2c2,0,4.1,0,6.1,0c0,0,0,0,0,0c0,0.6,0,1.2,0,1.8c0,0.6,0.2,1,0.7,1.2c0.3,0.2,0.7,0.1,1.1,0.1
				c0.6-0.1,0.9-0.5,0.9-1.1c0-0.6,0-1.2,0-1.8c0-0.1,0-0.1,0-0.2c0.1,0,0.1,0,0.1,0c0.5,0,1.1,0,1.6,0c0.7,0,1.2,0.5,1.2,1.2
				c0,4.5,0,9,0,13.5c0,0.2,0,0.4-0.1,0.5c-0.2,0.5-0.6,0.6-1.1,0.6c-1.3,0-2.7,0-4,0c-3.7,0-7.3,0-11,0c-0.2,0-0.5,0-0.7-0.1
				C16,29.8,15.9,29.5,15.7,29.2z M16.9,29c5.1,0,10.2,0,15.2,0c0-3.4,0-6.8,0-10.2c-5.1,0-10.2,0-15.2,0
				C16.9,22.2,16.9,25.6,16.9,29z"/>
			<path class="st1" d="M19.3,14.9c0-0.4,0-0.8,0-1.2c0-0.5,0.3-0.7,0.8-0.8c0,0,0.1,0,0.1,0c0.5,0,0.8,0.3,0.8,0.8
				c0,0.8,0,1.7,0,2.5c0,0.5-0.3,0.7-0.8,0.8c-0.1,0-0.2,0-0.3,0c-0.4-0.1-0.6-0.3-0.6-0.7C19.3,15.8,19.3,15.4,19.3,14.9z"/>
			<path class="st1" d="M29.8,14.9c0,0.4,0,0.8,0,1.3c0,0.4-0.3,0.7-0.7,0.7c-0.1,0-0.3,0-0.4,0c-0.3-0.1-0.4-0.3-0.5-0.5
				c0-0.1,0-0.1,0-0.2c0-0.8,0-1.6,0-2.4c0-0.3,0.1-0.6,0.4-0.7c0.3-0.2,0.6-0.2,0.9,0c0.2,0.1,0.3,0.3,0.3,0.6
				C29.8,14,29.8,14.5,29.8,14.9C29.8,14.9,29.8,14.9,29.8,14.9z"/>
			<path class="st1" d="M19.5,27.9c-0.3,0-0.6,0-0.9,0c-0.2,0-0.2-0.1-0.2-0.2c0-0.5,0-1.1,0-1.6c0-0.2,0.1-0.2,0.2-0.2
				c0.6,0,1.2,0,1.9,0c0.2,0,0.2,0.1,0.2,0.2c0,0.5,0,1,0,1.6c0,0.2,0,0.2-0.2,0.2C20.1,27.9,19.8,27.9,19.5,27.9z"/>
			<path class="st1" d="M22.8,27.9c-0.3,0-0.6,0-0.9,0c-0.1,0-0.2-0.1-0.2-0.2c0-0.5,0-1.1,0-1.6c0-0.2,0.1-0.2,0.2-0.2
				c0.6,0,1.3,0,1.9,0c0.2,0,0.2,0.1,0.2,0.2c0,0.5,0,1.1,0,1.6c0,0.2-0.1,0.2-0.2,0.2C23.4,27.9,23.1,27.9,22.8,27.9z"/>
			<path class="st1" d="M26.1,27.9c-0.3,0-0.6,0-0.9,0c-0.2,0-0.2-0.1-0.2-0.2c0-0.5,0-1.1,0-1.6c0-0.2,0.1-0.2,0.2-0.2
				c0.6,0,1.2,0,1.9,0c0.2,0,0.2,0.1,0.2,0.2c0,0.5,0,1,0,1.6c0,0.2,0,0.2-0.2,0.2C26.7,27.9,26.4,27.9,26.1,27.9z"/>
			<path class="st1" d="M29.4,27.9c-0.3,0-0.6,0-0.9,0c-0.2,0-0.2,0-0.2-0.2c0-0.5,0-1,0-1.6c0-0.2,0-0.2,0.2-0.2c0.6,0,1.2,0,1.8,0
				c0.2,0,0.2,0,0.2,0.2c0,0.5,0,1,0,1.6c0,0.2,0,0.2-0.2,0.2C30,27.9,29.7,27.9,29.4,27.9z"/>
			<path class="st1" d="M26.1,22.2c-0.3,0-0.6,0-0.9,0c-0.2,0-0.2-0.1-0.2-0.2c0-0.5,0-1.1,0-1.6c0-0.2,0.1-0.2,0.2-0.2
				c0.6,0,1.3,0,1.9,0c0.1,0,0.2,0.1,0.2,0.2c0,0.5,0,1.1,0,1.6c0,0.1-0.1,0.2-0.2,0.2C26.7,22.2,26.4,22.2,26.1,22.2z"/>
			<path class="st1" d="M29.4,22.2c-0.3,0-0.6,0-0.9,0c-0.1,0-0.2-0.1-0.2-0.2c0-0.5,0-1.1,0-1.6c0-0.1,0.1-0.2,0.2-0.2
				c0.6,0,1.3,0,1.9,0c0.1,0,0.2,0.1,0.2,0.2c0,0.5,0,1.1,0,1.6c0,0.2-0.1,0.2-0.2,0.2C30,22.2,29.7,22.2,29.4,22.2z"/>
			<path class="st1" d="M19.5,25c-0.3,0-0.6,0-0.9,0c-0.2,0-0.2-0.1-0.2-0.2c0-0.5,0-1.1,0-1.6c0-0.2,0.1-0.2,0.2-0.2
				c0.6,0,1.2,0,1.9,0c0.2,0,0.2,0.1,0.2,0.2c0,0.5,0,1.1,0,1.6c0,0.2-0.1,0.2-0.2,0.2C20.1,25,19.8,25,19.5,25z"/>
			<path class="st1" d="M22.8,25c-0.3,0-0.6,0-0.9,0c-0.2,0-0.2-0.1-0.2-0.2c0-0.5,0-1.1,0-1.6c0-0.2,0.1-0.2,0.2-0.2
				c0.6,0,1.2,0,1.9,0c0.2,0,0.2,0.1,0.2,0.2c0,0.5,0,1.1,0,1.6c0,0.2-0.1,0.2-0.2,0.2C23.4,25,23.1,25,22.8,25z"/>
			<path class="st1" d="M26.1,25c-0.3,0-0.6,0-0.9,0c-0.2,0-0.2-0.1-0.2-0.2c0-0.5,0-1.1,0-1.6c0-0.2,0.1-0.2,0.2-0.2
				c0.6,0,1.3,0,1.9,0c0.1,0,0.2,0.1,0.2,0.2c0,0.5,0,1.1,0,1.6c0,0.1-0.1,0.2-0.2,0.2C26.7,25,26.4,25,26.1,25z"/>
			<path class="st1" d="M29.4,25c-0.3,0-0.6,0-0.9,0c-0.2,0-0.2-0.1-0.2-0.2c0-0.5,0-1.1,0-1.6c0-0.2,0.1-0.2,0.2-0.2
				c0.6,0,1.2,0,1.9,0c0.1,0,0.2,0.1,0.2,0.2c0,0.5,0,1.1,0,1.6c0,0.2-0.1,0.2-0.2,0.2C30,25,29.7,25,29.4,25z"/>
		</g>
	</g>
</g>
</svg>
