<?xml version="1.0" encoding="utf-8"?>
<!-- Generator: Adobe Illustrator 28.1.0, SVG Export Plug-In . SVG Version: 6.00 Build 0)  -->
<svg version="1.1" id="Layer_1" xmlns="http://www.w3.org/2000/svg" xmlns:xlink="http://www.w3.org/1999/xlink" x="0px" y="0px"
	 viewBox="0 0 152 81" style="enable-background:new 0 0 152 81;" xml:space="preserve">
<style type="text/css">
	.st0{fill:#E7E7E7;}
	.st1{fill:none;stroke:#888888;stroke-width:0.6165;stroke-miterlimit:10;}
	.st2{fill:#25B5B1;}
	.st3{fill:#888888;}
	.st4{fill:#00C800;}
</style>
<g>
	<g>
		<g>
			<path class="st0" d="M139.1,70.6H12.9c-4.3,0-7.7-3.5-7.7-7.8V18.3c0-4.3,3.5-7.8,7.7-7.8h126.1c4.3,0,7.7,3.5,7.7,7.8v44.5
				C146.8,67.1,143.3,70.6,139.1,70.6z"/>
			<line class="st1" x1="14.8" y1="40.9" x2="137.2" y2="40.9"/>
		</g>
		<g>
			<g>
				<g>
					<path class="st2" d="M37.4,62.4v-1.8l4.3-3.9c0.4-0.4,0.7-0.7,0.9-0.9s0.4-0.6,0.6-0.8c0.1-0.3,0.2-0.6,0.2-0.9
						c0-0.4-0.1-0.7-0.2-0.9s-0.4-0.5-0.7-0.6c-0.3-0.1-0.6-0.2-0.9-0.2c-0.4,0-0.7,0.1-1,0.2s-0.5,0.4-0.6,0.6
						c-0.1,0.3-0.2,0.6-0.2,1h-2.4c0-0.8,0.2-1.5,0.5-2c0.4-0.6,0.9-1,1.5-1.3c0.6-0.3,1.4-0.5,2.2-0.5c0.9,0,1.6,0.2,2.2,0.5
						c0.6,0.3,1.1,0.7,1.5,1.3s0.5,1.1,0.5,1.8c0,0.5-0.1,0.9-0.3,1.3c-0.2,0.4-0.5,0.9-0.9,1.5c-0.5,0.5-1.1,1.2-1.9,1.9l-1.7,1.7
						v0.1h5v2.1H37.4z"/>
					<path class="st2" d="M52.1,50.2c0.6,0,1.2,0.1,1.8,0.3c0.6,0.2,1.1,0.5,1.5,1c0.4,0.5,0.8,1,1.1,1.8c0.3,0.7,0.4,1.7,0.4,2.7
						c0,1-0.1,1.9-0.3,2.7c-0.2,0.8-0.6,1.5-1,2s-0.9,1-1.5,1.3s-1.3,0.4-2,0.4c-0.8,0-1.5-0.2-2.1-0.5c-0.6-0.3-1.1-0.7-1.5-1.3
						c-0.4-0.5-0.6-1.1-0.7-1.8h2.5c0.1,0.4,0.3,0.8,0.6,1s0.7,0.4,1.2,0.4c0.8,0,1.4-0.3,1.8-1c0.4-0.7,0.6-1.6,0.6-2.8h-0.1
						c-0.2,0.4-0.4,0.7-0.7,0.9c-0.3,0.3-0.7,0.4-1,0.6c-0.4,0.1-0.8,0.2-1.2,0.2c-0.7,0-1.3-0.2-1.9-0.5c-0.6-0.3-1-0.8-1.3-1.4
						s-0.5-1.2-0.5-2c0-0.8,0.2-1.5,0.6-2.1c0.4-0.6,0.9-1.1,1.6-1.5C50.4,50.4,51.2,50.2,52.1,50.2z M52.1,52.2
						c-0.4,0-0.7,0.1-1,0.3s-0.5,0.4-0.7,0.8c-0.2,0.3-0.3,0.7-0.3,1.1c0,0.4,0.1,0.7,0.3,1.1c0.2,0.3,0.4,0.6,0.7,0.7
						s0.6,0.3,1,0.3c0.3,0,0.6-0.1,0.8-0.2s0.5-0.3,0.7-0.5c0.2-0.2,0.3-0.4,0.4-0.7c0.1-0.3,0.2-0.5,0.2-0.8c0-0.4-0.1-0.7-0.3-1
						c-0.2-0.3-0.4-0.6-0.7-0.8S52.5,52.2,52.1,52.2z"/>
					<path class="st2" d="M60.1,62.5c-0.4,0-0.7-0.1-1-0.4s-0.4-0.6-0.4-1c0-0.4,0.1-0.7,0.4-1s0.6-0.4,1-0.4c0.4,0,0.7,0.1,1,0.4
						s0.4,0.6,0.4,1c0,0.3-0.1,0.5-0.2,0.7c-0.1,0.2-0.3,0.4-0.5,0.5S60.4,62.5,60.1,62.5z"/>
					<path class="st2" d="M67.9,50.2c0.6,0,1.2,0.1,1.8,0.3c0.6,0.2,1.1,0.5,1.5,1c0.4,0.5,0.8,1,1.1,1.8c0.3,0.7,0.4,1.7,0.4,2.7
						c0,1-0.1,1.9-0.3,2.7c-0.2,0.8-0.6,1.5-1,2s-0.9,1-1.5,1.3s-1.3,0.4-2,0.4c-0.8,0-1.5-0.2-2.1-0.5c-0.6-0.3-1.1-0.7-1.5-1.3
						c-0.4-0.5-0.6-1.1-0.7-1.8H66c0.1,0.4,0.3,0.8,0.6,1s0.7,0.4,1.2,0.4c0.8,0,1.4-0.3,1.8-1c0.4-0.7,0.6-1.6,0.6-2.8h-0.1
						c-0.2,0.4-0.4,0.7-0.7,0.9c-0.3,0.3-0.7,0.4-1,0.6c-0.4,0.1-0.8,0.2-1.2,0.2c-0.7,0-1.3-0.2-1.9-0.5c-0.6-0.3-1-0.8-1.3-1.4
						s-0.5-1.2-0.5-2c0-0.8,0.2-1.5,0.6-2.1c0.4-0.6,0.9-1.1,1.6-1.5C66.2,50.4,67,50.2,67.9,50.2z M67.9,52.2c-0.4,0-0.7,0.1-1,0.3
						s-0.5,0.4-0.7,0.8c-0.2,0.3-0.3,0.7-0.3,1.1c0,0.4,0.1,0.7,0.3,1.1c0.2,0.3,0.4,0.6,0.7,0.7s0.6,0.3,1,0.3
						c0.3,0,0.6-0.1,0.8-0.2s0.5-0.3,0.7-0.5c0.2-0.2,0.3-0.4,0.4-0.7c0.1-0.3,0.2-0.5,0.2-0.8c0-0.4-0.1-0.7-0.3-1
						c-0.2-0.3-0.4-0.6-0.7-0.8S68.3,52.2,67.9,52.2z"/>
					<path class="st2" d="M79.6,50.4v12h-2.5v-9.6H77l-2.7,1.7v-2.2l3-1.9H79.6z"/>
					<path class="st2" d="M90.2,65.3V54.5h1.2v1.2h0.1c0.1-0.1,0.2-0.3,0.4-0.5s0.4-0.4,0.7-0.6c0.3-0.2,0.7-0.3,1.2-0.3
						c0.7,0,1.2,0.2,1.7,0.5c0.5,0.3,0.9,0.8,1.2,1.4c0.3,0.6,0.4,1.3,0.4,2.1c0,0.8-0.1,1.6-0.4,2.2c-0.3,0.6-0.7,1.1-1.2,1.4
						c-0.5,0.3-1.1,0.5-1.7,0.5c-0.5,0-0.9-0.1-1.2-0.3c-0.3-0.2-0.5-0.4-0.7-0.6s-0.3-0.4-0.4-0.5h-0.1v4.1H90.2z M91.4,58.4
						c0,0.6,0.1,1.1,0.3,1.6s0.4,0.8,0.8,1.1c0.3,0.3,0.7,0.4,1.2,0.4c0.5,0,0.9-0.1,1.3-0.4c0.3-0.3,0.6-0.6,0.8-1.1s0.3-1,0.3-1.5
						c0-0.6-0.1-1-0.3-1.5c-0.2-0.4-0.4-0.8-0.8-1.1c-0.3-0.3-0.8-0.4-1.3-0.4c-0.5,0-0.9,0.1-1.2,0.4s-0.6,0.6-0.8,1
						C91.5,57.3,91.4,57.9,91.4,58.4z"/>
					<path class="st2" d="M99,65.3V54.5h1.2v1.2h0.1c0.1-0.1,0.2-0.3,0.4-0.5s0.4-0.4,0.7-0.6c0.3-0.2,0.7-0.3,1.2-0.3
						c0.7,0,1.2,0.2,1.7,0.5c0.5,0.3,0.9,0.8,1.2,1.4c0.3,0.6,0.4,1.3,0.4,2.1c0,0.8-0.1,1.6-0.4,2.2c-0.3,0.6-0.7,1.1-1.2,1.4
						c-0.5,0.3-1.1,0.5-1.7,0.5c-0.5,0-0.9-0.1-1.2-0.3c-0.3-0.2-0.5-0.4-0.7-0.6s-0.3-0.4-0.4-0.5h-0.1v4.1H99z M100.1,58.4
						c0,0.6,0.1,1.1,0.3,1.6s0.4,0.8,0.8,1.1c0.3,0.3,0.7,0.4,1.2,0.4c0.5,0,0.9-0.1,1.3-0.4c0.3-0.3,0.6-0.6,0.8-1.1s0.3-1,0.3-1.5
						c0-0.6-0.1-1-0.3-1.5c-0.2-0.4-0.4-0.8-0.8-1.1c-0.3-0.3-0.8-0.4-1.3-0.4c-0.5,0-0.9,0.1-1.2,0.4s-0.6,0.6-0.8,1
						C100.2,57.3,100.1,57.9,100.1,58.4z"/>
					<path class="st2" d="M107.9,62.4V51.9h1.2v3.9h0.1c0.1-0.1,0.2-0.3,0.4-0.5c0.2-0.2,0.4-0.4,0.7-0.6c0.3-0.2,0.7-0.3,1.2-0.3
						c0.7,0,1.2,0.2,1.7,0.5c0.5,0.3,0.9,0.8,1.2,1.4c0.3,0.6,0.4,1.3,0.4,2.1c0,0.8-0.1,1.6-0.4,2.2s-0.7,1.1-1.2,1.4
						s-1.1,0.5-1.7,0.5c-0.5,0-0.9-0.1-1.2-0.3s-0.5-0.4-0.7-0.6c-0.2-0.2-0.3-0.4-0.4-0.5H109v1.2H107.9z M109.1,58.4
						c0,0.6,0.1,1.1,0.3,1.6c0.2,0.5,0.4,0.8,0.8,1.1c0.3,0.3,0.7,0.4,1.2,0.4c0.5,0,0.9-0.1,1.3-0.4c0.3-0.3,0.6-0.6,0.8-1.1
						c0.2-0.5,0.3-1,0.3-1.5c0-0.6-0.1-1-0.3-1.5c-0.2-0.4-0.4-0.8-0.8-1.1c-0.3-0.3-0.8-0.4-1.3-0.4c-0.5,0-0.9,0.1-1.2,0.4
						c-0.3,0.2-0.6,0.6-0.8,1C109.2,57.3,109.1,57.9,109.1,58.4z"/>
				</g>
			</g>
		</g>
		<g>
			<g>
				<g>
					<path class="st3" d="M28.3,21.7h-1.9c-0.1-0.4-0.2-0.8-0.4-1.1c-0.2-0.3-0.5-0.6-0.7-0.8c-0.3-0.2-0.6-0.4-1-0.5
						c-0.4-0.1-0.7-0.2-1.2-0.2c-0.7,0-1.4,0.2-2,0.6c-0.6,0.4-1,0.9-1.4,1.6c-0.3,0.7-0.5,1.6-0.5,2.6c0,1,0.2,1.9,0.5,2.6
						c0.3,0.7,0.8,1.2,1.4,1.6c0.6,0.4,1.2,0.5,2,0.5c0.4,0,0.8-0.1,1.1-0.2c0.4-0.1,0.7-0.3,1-0.5c0.3-0.2,0.5-0.5,0.7-0.8
						c0.2-0.3,0.3-0.7,0.4-1.1l1.9,0c-0.1,0.6-0.3,1.2-0.6,1.7c-0.3,0.5-0.7,1-1.1,1.4s-1,0.7-1.6,0.9c-0.6,0.2-1.2,0.3-1.9,0.3
						c-1.1,0-2.1-0.3-2.9-0.8c-0.9-0.5-1.5-1.3-2-2.2s-0.7-2.1-0.7-3.5c0-1.4,0.2-2.5,0.7-3.5c0.5-1,1.2-1.7,2-2.2
						c0.9-0.5,1.8-0.8,2.9-0.8c0.7,0,1.3,0.1,1.9,0.3c0.6,0.2,1.1,0.5,1.6,0.8c0.5,0.4,0.9,0.8,1.2,1.4C28,20.4,28.2,21,28.3,21.7z"
						/>
					<path class="st3" d="M41.6,23.9c0,1.4-0.2,2.5-0.7,3.5c-0.5,1-1.2,1.7-2,2.2c-0.9,0.5-1.8,0.8-2.9,0.8c-1.1,0-2.1-0.3-2.9-0.8
						c-0.9-0.5-1.5-1.3-2-2.2s-0.7-2.1-0.7-3.5c0-1.4,0.2-2.5,0.7-3.5c0.5-1,1.2-1.7,2-2.2c0.9-0.5,1.8-0.8,2.9-0.8
						c1.1,0,2.1,0.3,2.9,0.8c0.9,0.5,1.5,1.3,2,2.2C41.4,21.4,41.6,22.6,41.6,23.9z M39.7,23.9c0-1-0.2-1.9-0.5-2.6
						c-0.3-0.7-0.8-1.2-1.4-1.6c-0.6-0.4-1.2-0.5-2-0.5c-0.7,0-1.4,0.2-2,0.5c-0.6,0.4-1,0.9-1.4,1.6c-0.3,0.7-0.5,1.6-0.5,2.6
						s0.2,1.9,0.5,2.6c0.3,0.7,0.8,1.2,1.4,1.6c0.6,0.4,1.2,0.5,2,0.5c0.7,0,1.4-0.2,2-0.5c0.6-0.4,1-0.9,1.4-1.6
						C39.6,25.8,39.7,25,39.7,23.9z"/>
				</g>
			</g>
		</g>
	</g>
	<g>
		<path class="st4" d="M136.7,22.5c-1.1-3.5-4.3-6.1-8.1-6.1c-3.8,0-7.1,2.5-8.1,6c-0.2,0.8-0.4,1.7-0.4,2.5c0,0.8,0.1,1.7,0.4,2.4
			c1.1,3.5,4.3,6.1,8.1,6.1c3.8,0,7.1-2.5,8.1-6c0.2-0.8,0.4-1.7,0.4-2.5C137,24.1,136.9,23.3,136.7,22.5z M128.5,29.3
			c-1.4,0-2.6-0.7-3.5-1.8c-0.6-0.7-0.8-1.7-0.8-2.6c0-0.8,0.2-1.7,0.7-2.3c0.7-1.2,2.2-2,3.7-2s3,0.8,3.7,2.2
			c0.4,0.6,0.6,1.4,0.6,2.3c0,1.1-0.4,1.9-1,2.6C131.1,28.6,129.9,29.3,128.5,29.3z"/>
		<path class="st4" d="M126.7,25.1c0-1,0.8-1.8,1.8-1.8s1.8,0.8,1.8,1.8c0,1-0.8,1.8-1.8,1.8S126.7,26.1,126.7,25.1z"/>
	</g>
</g>
</svg>
