<?xml version="1.0" encoding="utf-8"?>
<!-- Generator: Adobe Illustrator 28.1.0, SVG Export Plug-In . SVG Version: 6.00 Build 0)  -->
<svg version="1.1" id="Layer_1" xmlns="http://www.w3.org/2000/svg" xmlns:xlink="http://www.w3.org/1999/xlink" x="0px" y="0px"
	 viewBox="0 0 599 59" style="enable-background:new 0 0 599 59;" xml:space="preserve">
<style type="text/css">
	.st0{fill:none;stroke:#888888;stroke-width:0.5987;stroke-miterlimit:10;}
	.st1{fill:#4F4F4F;}
	.st2{clip-path:url(#SVGID_00000086688079226891341320000006215896604541245623_);}
	.st3{clip-path:url(#SVGID_00000124876509911821765240000005595291828018895237_);}
	.st4{fill:#00C800;}
	.st5{fill:#FFE12D;}
	.st6{fill:#D1D1D1;}
	.st7{fill:#FF7E00;}
	.st8{fill:#FA0A00;}
	.st9{fill:#8F3F97;}
	.st10{fill:#7E0023;}
	
		.st11{clip-path:url(#SVGID_00000124876509911821765240000005595291828018895237_);fill:none;stroke:#FFFFFF;stroke-width:0.5334;stroke-miterlimit:10;}
</style>
<g>
	<g>
		<g>
			<g>
				<g>
					<line class="st0" x1="178.2" y1="24" x2="178.2" y2="17.8"/>
					<line class="st0" x1="255.8" y1="24" x2="255.8" y2="17.8"/>
					<line class="st0" x1="332.6" y1="24" x2="332.6" y2="17.8"/>
					<line class="st0" x1="410.4" y1="24" x2="410.4" y2="17.8"/>
					<line class="st0" x1="487.7" y1="24" x2="487.7" y2="17.8"/>
					<line class="st0" x1="565.8" y1="24" x2="565.8" y2="17.8"/>
				</g>
				<g>
					<g>
						<line class="st0" x1="102.2" y1="24" x2="102.2" y2="17.8"/>
					</g>
				</g>
			</g>
			<g>
				<g>
					<g>
						<path class="st1" d="M174.4,16.1c-0.4,0-0.8-0.1-1.1-0.2c-0.3-0.2-0.6-0.4-0.8-0.6c-0.2-0.3-0.3-0.6-0.3-0.9h1
							c0,0.3,0.1,0.5,0.4,0.7s0.5,0.3,0.8,0.3c0.3,0,0.5-0.1,0.7-0.2c0.2-0.1,0.3-0.3,0.5-0.5c0.1-0.2,0.2-0.4,0.2-0.7
							c0-0.3-0.1-0.5-0.2-0.7c-0.1-0.2-0.3-0.4-0.5-0.5c-0.2-0.1-0.4-0.2-0.7-0.2c-0.2,0-0.4,0-0.6,0.1c-0.2,0.1-0.4,0.2-0.5,0.3
							l-0.9-0.1l0.4-3.3h3.6v0.8h-2.8l-0.2,1.8h0c0.1-0.1,0.3-0.2,0.5-0.3c0.2-0.1,0.4-0.1,0.7-0.1c0.4,0,0.8,0.1,1.1,0.3
							s0.6,0.4,0.7,0.8s0.3,0.7,0.3,1.1c0,0.4-0.1,0.8-0.3,1.1c-0.2,0.3-0.5,0.6-0.8,0.8S174.8,16.1,174.4,16.1z"/>
						<path class="st1" d="M180.1,16.1c-0.5,0-0.9-0.1-1.3-0.4c-0.4-0.3-0.6-0.6-0.8-1.2s-0.3-1.1-0.3-1.8c0-0.7,0.1-1.3,0.3-1.8
							s0.5-0.9,0.8-1.1s0.8-0.4,1.3-0.4s0.9,0.1,1.3,0.4s0.6,0.6,0.8,1.1c0.2,0.5,0.3,1.1,0.3,1.8c0,0.7-0.1,1.3-0.3,1.8
							c-0.2,0.5-0.5,0.9-0.8,1.2C181,16,180.6,16.1,180.1,16.1z M180.1,15.2c0.4,0,0.8-0.2,1-0.6s0.4-1.1,0.4-1.9
							c0-0.5-0.1-1-0.2-1.4c-0.1-0.4-0.3-0.7-0.5-0.9c-0.2-0.2-0.5-0.3-0.8-0.3c-0.4,0-0.8,0.2-1,0.7s-0.4,1.1-0.4,1.9
							c0,0.5,0.1,1,0.2,1.4c0.1,0.4,0.3,0.7,0.5,0.9C179.5,15.2,179.8,15.2,180.1,15.2z"/>
					</g>
				</g>
				<g>
					<g>
						<path class="st1" d="M102.2,16.1c-0.5,0-0.9-0.1-1.3-0.4c-0.4-0.3-0.6-0.6-0.8-1.2s-0.3-1.1-0.3-1.8c0-0.7,0.1-1.3,0.3-1.8
							s0.5-0.9,0.8-1.1s0.8-0.4,1.3-0.4s0.9,0.1,1.3,0.4s0.6,0.6,0.8,1.1c0.2,0.5,0.3,1.1,0.3,1.8c0,0.7-0.1,1.3-0.3,1.8
							c-0.2,0.5-0.5,0.9-0.8,1.2C103.1,16,102.7,16.1,102.2,16.1z M102.2,15.2c0.4,0,0.8-0.2,1-0.6s0.4-1.1,0.4-1.9
							c0-0.5-0.1-1-0.2-1.4c-0.1-0.4-0.3-0.7-0.5-0.9c-0.2-0.2-0.5-0.3-0.8-0.3c-0.4,0-0.8,0.2-1,0.7s-0.4,1.1-0.4,1.9
							c0,0.5,0.1,1,0.2,1.4c0.1,0.4,0.3,0.7,0.5,0.9C101.6,15.2,101.9,15.2,102.2,15.2z"/>
					</g>
				</g>
				<g>
					<path class="st1" d="M252.2,9.5V16h-1v-5.5h0l-1.6,1v-0.9l1.6-1.1H252.2z"/>
					<path class="st1" d="M256.3,16.1c-0.5,0-0.9-0.1-1.3-0.4s-0.6-0.6-0.8-1.2c-0.2-0.5-0.3-1.1-0.3-1.8c0-0.7,0.1-1.3,0.3-1.8
						s0.5-0.9,0.8-1.1s0.8-0.4,1.3-0.4c0.5,0,0.9,0.1,1.3,0.4s0.6,0.6,0.8,1.1c0.2,0.5,0.3,1.1,0.3,1.8c0,0.7-0.1,1.3-0.3,1.8
						c-0.2,0.5-0.5,0.9-0.8,1.2C257.2,16,256.8,16.1,256.3,16.1z M256.3,15.2c0.4,0,0.8-0.2,1-0.6c0.2-0.4,0.4-1.1,0.4-1.9
						c0-0.5-0.1-1-0.2-1.4c-0.1-0.4-0.3-0.7-0.5-0.9c-0.2-0.2-0.5-0.3-0.8-0.3c-0.4,0-0.8,0.2-1,0.7s-0.4,1.1-0.4,1.9
						c0,0.5,0.1,1,0.2,1.4c0.1,0.4,0.3,0.7,0.5,0.9C255.7,15.2,256,15.2,256.3,15.2z"/>
					<path class="st1" d="M262.1,16.1c-0.5,0-0.9-0.1-1.3-0.4c-0.4-0.3-0.6-0.6-0.8-1.2s-0.3-1.1-0.3-1.8c0-0.7,0.1-1.3,0.3-1.8
						s0.5-0.9,0.8-1.1s0.8-0.4,1.3-0.4s0.9,0.1,1.3,0.4s0.6,0.6,0.8,1.1c0.2,0.5,0.3,1.1,0.3,1.8c0,0.7-0.1,1.3-0.3,1.8
						c-0.2,0.5-0.5,0.9-0.8,1.2C263,16,262.6,16.1,262.1,16.1z M262.1,15.2c0.4,0,0.8-0.2,1-0.6s0.4-1.1,0.4-1.9
						c0-0.5-0.1-1-0.2-1.4c-0.1-0.4-0.3-0.7-0.5-0.9c-0.2-0.2-0.5-0.3-0.8-0.3c-0.4,0-0.8,0.2-1,0.7s-0.4,1.1-0.4,1.9
						c0,0.5,0.1,1,0.2,1.4c0.1,0.4,0.3,0.7,0.5,0.9C261.5,15.2,261.8,15.2,262.1,15.2z"/>
				</g>
				<g>
					<path class="st1" d="M327.7,9.5V16h-1v-5.5h0l-1.6,1v-0.9l1.6-1.1H327.7z"/>
					<path class="st1" d="M331.6,16.1c-0.4,0-0.8-0.1-1.1-0.2c-0.3-0.2-0.6-0.4-0.8-0.6c-0.2-0.3-0.3-0.6-0.3-0.9h1
						c0,0.3,0.1,0.5,0.4,0.7c0.2,0.2,0.5,0.3,0.8,0.3c0.3,0,0.5-0.1,0.7-0.2c0.2-0.1,0.3-0.3,0.5-0.5c0.1-0.2,0.2-0.4,0.2-0.7
						c0-0.3-0.1-0.5-0.2-0.7c-0.1-0.2-0.3-0.4-0.5-0.5c-0.2-0.1-0.4-0.2-0.7-0.2c-0.2,0-0.4,0-0.6,0.1c-0.2,0.1-0.4,0.2-0.5,0.3
						l-0.9-0.1l0.4-3.3h3.6v0.8h-2.8l-0.2,1.8h0c0.1-0.1,0.3-0.2,0.5-0.3c0.2-0.1,0.4-0.1,0.7-0.1c0.4,0,0.8,0.1,1.1,0.3
						c0.3,0.2,0.6,0.4,0.7,0.8c0.2,0.3,0.3,0.7,0.3,1.1c0,0.4-0.1,0.8-0.3,1.1s-0.5,0.6-0.8,0.8C332.4,16,332,16.1,331.6,16.1z"/>
					<path class="st1" d="M337.3,16.1c-0.5,0-0.9-0.1-1.3-0.4s-0.6-0.6-0.8-1.2c-0.2-0.5-0.3-1.1-0.3-1.8c0-0.7,0.1-1.3,0.3-1.8
						c0.2-0.5,0.5-0.9,0.8-1.1s0.8-0.4,1.3-0.4c0.5,0,0.9,0.1,1.3,0.4c0.4,0.3,0.6,0.6,0.8,1.1s0.3,1.1,0.3,1.8
						c0,0.7-0.1,1.3-0.3,1.8c-0.2,0.5-0.5,0.9-0.8,1.2S337.8,16.1,337.3,16.1z M337.3,15.2c0.4,0,0.8-0.2,1-0.6
						c0.2-0.4,0.4-1.1,0.4-1.9c0-0.5-0.1-1-0.2-1.4c-0.1-0.4-0.3-0.7-0.5-0.9c-0.2-0.2-0.5-0.3-0.8-0.3c-0.4,0-0.8,0.2-1,0.7
						s-0.4,1.1-0.4,1.9c0,0.5,0.1,1,0.2,1.4c0.1,0.4,0.3,0.7,0.5,0.9C336.7,15.2,337,15.2,337.3,15.2z"/>
				</g>
				<g>
					<path class="st1" d="M401.9,16v-0.7l2.2-2.3c0.2-0.2,0.4-0.5,0.6-0.7s0.3-0.4,0.3-0.5c0.1-0.2,0.1-0.4,0.1-0.5
						c0-0.2-0.1-0.4-0.2-0.6c-0.1-0.2-0.2-0.3-0.4-0.4c-0.2-0.1-0.4-0.1-0.6-0.1c-0.2,0-0.4,0-0.6,0.1c-0.2,0.1-0.3,0.2-0.4,0.4
						s-0.1,0.4-0.1,0.6h-0.9c0-0.4,0.1-0.7,0.3-1c0.2-0.3,0.4-0.5,0.8-0.7c0.3-0.2,0.7-0.2,1.1-0.2c0.4,0,0.8,0.1,1.1,0.2
						s0.6,0.4,0.7,0.7c0.2,0.3,0.3,0.6,0.3,0.9c0,0.2,0,0.5-0.1,0.7c-0.1,0.2-0.2,0.5-0.5,0.8c-0.2,0.3-0.5,0.6-0.9,1l-1.3,1.4v0
						h2.9V16H401.9z"/>
					<path class="st1" d="M409.7,16.1c-0.5,0-0.9-0.1-1.3-0.4c-0.4-0.3-0.6-0.6-0.8-1.2s-0.3-1.1-0.3-1.8c0-0.7,0.1-1.3,0.3-1.8
						c0.2-0.5,0.5-0.9,0.8-1.1s0.8-0.4,1.3-0.4s0.9,0.1,1.3,0.4c0.4,0.3,0.6,0.6,0.8,1.1s0.3,1.1,0.3,1.8c0,0.7-0.1,1.3-0.3,1.8
						s-0.5,0.9-0.8,1.2C410.6,16,410.2,16.1,409.7,16.1z M409.7,15.2c0.4,0,0.8-0.2,1-0.6s0.4-1.1,0.4-1.9c0-0.5-0.1-1-0.2-1.4
						c-0.1-0.4-0.3-0.7-0.5-0.9c-0.2-0.2-0.5-0.3-0.8-0.3c-0.4,0-0.8,0.2-1,0.7s-0.4,1.1-0.4,1.9c0,0.5,0.1,1,0.2,1.4
						c0.1,0.4,0.3,0.7,0.5,0.9C409.1,15.2,409.4,15.2,409.7,15.2z"/>
					<path class="st1" d="M415.5,16.1c-0.5,0-0.9-0.1-1.3-0.4s-0.6-0.6-0.8-1.2c-0.2-0.5-0.3-1.1-0.3-1.8c0-0.7,0.1-1.3,0.3-1.8
						c0.2-0.5,0.5-0.9,0.8-1.1s0.8-0.4,1.3-0.4c0.5,0,0.9,0.1,1.3,0.4c0.4,0.3,0.6,0.6,0.8,1.1s0.3,1.1,0.3,1.8
						c0,0.7-0.1,1.3-0.3,1.8c-0.2,0.5-0.5,0.9-0.8,1.2S416,16.1,415.5,16.1z M415.5,15.2c0.4,0,0.8-0.2,1-0.6
						c0.2-0.4,0.4-1.1,0.4-1.9c0-0.5-0.1-1-0.2-1.4c-0.1-0.4-0.3-0.7-0.5-0.9c-0.2-0.2-0.5-0.3-0.8-0.3c-0.4,0-0.8,0.2-1,0.7
						s-0.4,1.1-0.4,1.9c0,0.5,0.1,1,0.2,1.4c0.1,0.4,0.3,0.7,0.5,0.9C414.9,15.2,415.2,15.2,415.5,15.2z"/>
				</g>
				<g>
					<path class="st1" d="M480,16.1c-0.4,0-0.8-0.1-1.2-0.2c-0.3-0.2-0.6-0.4-0.8-0.6c-0.2-0.3-0.3-0.6-0.3-0.9h1
						c0,0.2,0.1,0.4,0.2,0.5s0.3,0.3,0.5,0.3s0.4,0.1,0.6,0.1c0.3,0,0.5,0,0.7-0.1c0.2-0.1,0.4-0.2,0.5-0.4c0.1-0.2,0.2-0.3,0.2-0.6
						c0-0.2-0.1-0.4-0.2-0.6c-0.1-0.2-0.3-0.3-0.5-0.4s-0.5-0.1-0.8-0.1h-0.6v-0.8h0.6c0.2,0,0.5,0,0.6-0.1s0.3-0.2,0.4-0.4
						c0.1-0.2,0.2-0.3,0.2-0.5c0-0.2,0-0.4-0.1-0.5c-0.1-0.1-0.2-0.3-0.4-0.4c-0.2-0.1-0.4-0.1-0.6-0.1c-0.2,0-0.4,0-0.6,0.1
						c-0.2,0.1-0.3,0.2-0.4,0.3c-0.1,0.1-0.2,0.3-0.2,0.5h-1c0-0.4,0.1-0.7,0.3-0.9c0.2-0.3,0.5-0.5,0.8-0.6
						c0.3-0.2,0.7-0.2,1.1-0.2c0.4,0,0.8,0.1,1.1,0.2c0.3,0.2,0.5,0.4,0.7,0.6c0.2,0.3,0.2,0.6,0.2,0.9c0,0.4-0.1,0.7-0.3,0.9
						s-0.5,0.4-0.8,0.5v0.1c0.4,0.1,0.8,0.2,1,0.5s0.4,0.6,0.4,1c0,0.4-0.1,0.7-0.3,1c-0.2,0.3-0.5,0.5-0.8,0.7
						C480.9,16,480.5,16.1,480,16.1z"/>
					<path class="st1" d="M485.8,16.1c-0.5,0-0.9-0.1-1.3-0.4s-0.6-0.6-0.8-1.2c-0.2-0.5-0.3-1.1-0.3-1.8c0-0.7,0.1-1.3,0.3-1.8
						c0.2-0.5,0.5-0.9,0.8-1.1s0.8-0.4,1.3-0.4c0.5,0,0.9,0.1,1.3,0.4c0.4,0.3,0.6,0.6,0.8,1.1c0.2,0.5,0.3,1.1,0.3,1.8
						c0,0.7-0.1,1.3-0.3,1.8c-0.2,0.5-0.5,0.9-0.8,1.2S486.3,16.1,485.8,16.1z M485.8,15.2c0.4,0,0.8-0.2,1-0.6
						c0.2-0.4,0.4-1.1,0.4-1.9c0-0.5-0.1-1-0.2-1.4c-0.1-0.4-0.3-0.7-0.5-0.9c-0.2-0.2-0.5-0.3-0.8-0.3c-0.4,0-0.8,0.2-1,0.7
						s-0.4,1.1-0.4,1.9c0,0.5,0.1,1,0.2,1.4c0.1,0.4,0.3,0.7,0.5,0.9C485.3,15.2,485.5,15.2,485.8,15.2z"/>
					<path class="st1" d="M491.6,16.1c-0.5,0-0.9-0.1-1.3-0.4c-0.4-0.3-0.6-0.6-0.8-1.2s-0.3-1.1-0.3-1.8c0-0.7,0.1-1.3,0.3-1.8
						c0.2-0.5,0.5-0.9,0.8-1.1s0.8-0.4,1.3-0.4s0.9,0.1,1.3,0.4c0.4,0.3,0.6,0.6,0.8,1.1c0.2,0.5,0.3,1.1,0.3,1.8
						c0,0.7-0.1,1.3-0.3,1.8s-0.5,0.9-0.8,1.2C492.6,16,492.1,16.1,491.6,16.1z M491.6,15.2c0.4,0,0.8-0.2,1-0.6s0.4-1.1,0.4-1.9
						c0-0.5-0.1-1-0.2-1.4c-0.1-0.4-0.3-0.7-0.5-0.9c-0.2-0.2-0.5-0.3-0.8-0.3c-0.4,0-0.8,0.2-1,0.7s-0.4,1.1-0.4,1.9
						c0,0.5,0.1,1,0.2,1.4c0.1,0.4,0.3,0.7,0.5,0.9C491.1,15.2,491.3,15.2,491.6,15.2z"/>
				</g>
				<line class="st0" x1="565.8" y1="24" x2="565.8" y2="17.8"/>
				<g>
					<path class="st1" d="M558.1,16.1c-0.4,0-0.8-0.1-1.1-0.2c-0.3-0.2-0.6-0.4-0.8-0.6s-0.3-0.6-0.3-0.9h1c0,0.3,0.1,0.5,0.4,0.7
						c0.2,0.2,0.5,0.3,0.8,0.3c0.3,0,0.5-0.1,0.7-0.2c0.2-0.1,0.3-0.3,0.5-0.5c0.1-0.2,0.2-0.4,0.2-0.7c0-0.3-0.1-0.5-0.2-0.7
						c-0.1-0.2-0.3-0.4-0.5-0.5s-0.4-0.2-0.7-0.2c-0.2,0-0.4,0-0.6,0.1c-0.2,0.1-0.4,0.2-0.5,0.3l-0.9-0.1l0.4-3.3h3.6v0.8h-2.8
						l-0.2,1.8h0c0.1-0.1,0.3-0.2,0.5-0.3c0.2-0.1,0.4-0.1,0.7-0.1c0.4,0,0.8,0.1,1.1,0.3c0.3,0.2,0.6,0.4,0.7,0.8
						c0.2,0.3,0.3,0.7,0.3,1.1c0,0.4-0.1,0.8-0.3,1.1s-0.5,0.6-0.8,0.8C558.9,16,558.6,16.1,558.1,16.1z"/>
					<path class="st1" d="M563.8,16.1c-0.5,0-0.9-0.1-1.3-0.4c-0.4-0.3-0.6-0.6-0.8-1.2s-0.3-1.1-0.3-1.8c0-0.7,0.1-1.3,0.3-1.8
						c0.2-0.5,0.5-0.9,0.8-1.1s0.8-0.4,1.3-0.4s0.9,0.1,1.3,0.4c0.4,0.3,0.6,0.6,0.8,1.1s0.3,1.1,0.3,1.8c0,0.7-0.1,1.3-0.3,1.8
						s-0.5,0.9-0.8,1.2C564.7,16,564.3,16.1,563.8,16.1z M563.8,15.2c0.4,0,0.8-0.2,1-0.6s0.4-1.1,0.4-1.9c0-0.5-0.1-1-0.2-1.4
						c-0.1-0.4-0.3-0.7-0.5-0.9c-0.2-0.2-0.5-0.3-0.8-0.3c-0.4,0-0.8,0.2-1,0.7s-0.4,1.1-0.4,1.9c0,0.5,0.1,1,0.2,1.4
						c0.1,0.4,0.3,0.7,0.5,0.9C563.3,15.2,563.5,15.2,563.8,15.2z"/>
					<path class="st1" d="M569.6,16.1c-0.5,0-0.9-0.1-1.3-0.4s-0.6-0.6-0.8-1.2c-0.2-0.5-0.3-1.1-0.3-1.8c0-0.7,0.1-1.3,0.3-1.8
						c0.2-0.5,0.5-0.9,0.8-1.1s0.8-0.4,1.3-0.4c0.5,0,0.9,0.1,1.3,0.4c0.4,0.3,0.6,0.6,0.8,1.1s0.3,1.1,0.3,1.8
						c0,0.7-0.1,1.3-0.3,1.8c-0.2,0.5-0.5,0.9-0.8,1.2S570.1,16.1,569.6,16.1z M569.6,15.2c0.4,0,0.8-0.2,1-0.6
						c0.2-0.4,0.4-1.1,0.4-1.9c0-0.5-0.1-1-0.2-1.4c-0.1-0.4-0.3-0.7-0.5-0.9c-0.2-0.2-0.5-0.3-0.8-0.3c-0.4,0-0.8,0.2-1,0.7
						s-0.4,1.1-0.4,1.9c0,0.5,0.1,1,0.2,1.4c0.1,0.4,0.3,0.7,0.5,0.9C569.1,15.2,569.3,15.2,569.6,15.2z"/>
				</g>
			</g>
		</g>
		<g>
			<defs>
				<path id="SVGID_1_" d="M25.5,40.4c-3.9,0-7-3.2-7-7v-1.6c0-3.9,3.2-7,7-7h532.4c3.9,0,7,3.2,7,7v1.6c0,3.9-3.2,7-7,7H25.5z"/>
			</defs>
			<clipPath id="SVGID_00000172437474648645372140000013264065997859132041_">
				<use xlink:href="#SVGID_1_"  style="overflow:visible;"/>
			</clipPath>
			<g style="clip-path:url(#SVGID_00000172437474648645372140000013264065997859132041_);">
				<defs>
					<path id="SVGID_00000098937891964371995920000001329952255095846531_" d="M25.5,44.1c-5.9,0-10.7-4.8-10.7-10.7v-1.6
						c0-5.9,4.8-10.7,10.7-10.7h532.4c5.9,0,10.7,4.8,10.7,10.7v1.6c0,5.9-4.8,10.7-10.7,10.7H25.5z"/>
				</defs>
				<clipPath id="SVGID_00000114047651546502517770000008385298443714622878_">
					<use xlink:href="#SVGID_00000098937891964371995920000001329952255095846531_"  style="overflow:visible;"/>
				</clipPath>
				<g style="clip-path:url(#SVGID_00000114047651546502517770000008385298443714622878_);">
					<g>
						<rect x="102.8" y="18.4" class="st4" width="75.5" height="28.3"/>
						<rect x="178.2" y="18.4" class="st5" width="77.5" height="28.3"/>
						<rect x="10.7" y="18.4" class="st6" width="81.1" height="28.3"/>
						<rect x="255.8" y="18.4" class="st7" width="77.5" height="28.3"/>
						<rect x="332.6" y="18.4" class="st8" width="77.5" height="28.3"/>
						<rect x="410.4" y="18.4" class="st9" width="77.5" height="28.3"/>
						<rect x="487.7" y="18.4" class="st10" width="84.3" height="28.3"/>
					</g>
				</g>
				
					<line style="clip-path:url(#SVGID_00000114047651546502517770000008385298443714622878_);fill:none;stroke:#FFFFFF;stroke-width:0.5334;stroke-miterlimit:10;" x1="178.2" y1="43.9" x2="178.2" y2="21.3"/>
				
					<line style="clip-path:url(#SVGID_00000114047651546502517770000008385298443714622878_);fill:none;stroke:#FFFFFF;stroke-width:0.5334;stroke-miterlimit:10;" x1="255.8" y1="43.9" x2="255.8" y2="21.3"/>
				
					<line style="clip-path:url(#SVGID_00000114047651546502517770000008385298443714622878_);fill:none;stroke:#FFFFFF;stroke-width:0.5334;stroke-miterlimit:10;" x1="332.6" y1="43.9" x2="332.6" y2="21.3"/>
				
					<line style="clip-path:url(#SVGID_00000114047651546502517770000008385298443714622878_);fill:none;stroke:#FFFFFF;stroke-width:0.5334;stroke-miterlimit:10;" x1="410.4" y1="43.9" x2="410.4" y2="21.3"/>
				
					<line style="clip-path:url(#SVGID_00000114047651546502517770000008385298443714622878_);fill:none;stroke:#FFFFFF;stroke-width:0.5334;stroke-miterlimit:10;" x1="487.7" y1="43.9" x2="487.7" y2="21.3"/>
			</g>
		</g>
	</g>
	<g>
		<path class="st1" d="M542.9,51.3V44h1.1v3.2h3.6V44h1.1v7.3h-1.1v-3.2H544v3.2H542.9z"/>
		<path class="st1" d="M551.8,51.4c-0.3,0-0.7-0.1-0.9-0.2c-0.3-0.1-0.5-0.3-0.7-0.6s-0.2-0.5-0.2-0.9c0-0.3,0.1-0.6,0.2-0.8
			c0.1-0.2,0.3-0.4,0.5-0.5c0.2-0.1,0.4-0.2,0.7-0.3s0.5-0.1,0.8-0.1c0.3,0,0.6-0.1,0.8-0.1s0.4-0.1,0.4-0.1
			c0.1-0.1,0.1-0.1,0.1-0.3v0c0-0.3-0.1-0.5-0.3-0.7c-0.2-0.2-0.4-0.3-0.8-0.3c-0.4,0-0.6,0.1-0.8,0.2c-0.2,0.2-0.3,0.3-0.4,0.5
			l-1-0.2c0.1-0.3,0.3-0.6,0.5-0.8c0.2-0.2,0.5-0.4,0.8-0.4s0.6-0.1,0.9-0.1c0.2,0,0.4,0,0.7,0.1c0.2,0.1,0.5,0.1,0.7,0.3
			c0.2,0.1,0.4,0.3,0.5,0.6c0.1,0.2,0.2,0.6,0.2,1v3.6h-1v-0.7h0c-0.1,0.1-0.2,0.3-0.3,0.4c-0.1,0.1-0.3,0.2-0.5,0.3
			S552.1,51.4,551.8,51.4z M552.1,50.6c0.3,0,0.5-0.1,0.8-0.2c0.2-0.1,0.4-0.3,0.5-0.5c0.1-0.2,0.2-0.4,0.2-0.6v-0.7
			c0,0-0.1,0.1-0.2,0.1c-0.1,0-0.2,0.1-0.4,0.1c-0.1,0-0.3,0-0.4,0.1s-0.2,0-0.3,0c-0.2,0-0.4,0.1-0.6,0.1s-0.3,0.1-0.4,0.3
			s-0.2,0.3-0.2,0.5c0,0.3,0.1,0.5,0.3,0.6S551.8,50.6,552.1,50.6z"/>
		<path class="st1" d="M555.8,51.3v-0.7l2.9-3.7v0h-2.9v-0.9h4.2v0.8l-2.8,3.7v0h2.9v0.9H555.8z"/>
		<path class="st1" d="M563,51.4c-0.3,0-0.7-0.1-0.9-0.2c-0.3-0.1-0.5-0.3-0.7-0.6s-0.2-0.5-0.2-0.9c0-0.3,0.1-0.6,0.2-0.8
			c0.1-0.2,0.3-0.4,0.5-0.5c0.2-0.1,0.4-0.2,0.7-0.3s0.5-0.1,0.8-0.1c0.3,0,0.6-0.1,0.8-0.1s0.4-0.1,0.4-0.1
			c0.1-0.1,0.1-0.1,0.1-0.3v0c0-0.3-0.1-0.5-0.3-0.7c-0.2-0.2-0.4-0.3-0.8-0.3c-0.4,0-0.6,0.1-0.8,0.2c-0.2,0.2-0.3,0.3-0.4,0.5
			l-1-0.2c0.1-0.3,0.3-0.6,0.5-0.8c0.2-0.2,0.5-0.4,0.8-0.4s0.6-0.1,0.9-0.1c0.2,0,0.4,0,0.7,0.1c0.2,0.1,0.5,0.1,0.7,0.3
			c0.2,0.1,0.4,0.3,0.5,0.6c0.1,0.2,0.2,0.6,0.2,1v3.6h-1v-0.7h0c-0.1,0.1-0.2,0.3-0.3,0.4c-0.1,0.1-0.3,0.2-0.5,0.3
			S563.3,51.4,563,51.4z M563.2,50.6c0.3,0,0.5-0.1,0.8-0.2c0.2-0.1,0.4-0.3,0.5-0.5c0.1-0.2,0.2-0.4,0.2-0.6v-0.7
			c0,0-0.1,0.1-0.2,0.1c-0.1,0-0.2,0.1-0.4,0.1c-0.1,0-0.3,0-0.4,0.1s-0.2,0-0.3,0c-0.2,0-0.4,0.1-0.6,0.1s-0.3,0.1-0.4,0.3
			s-0.2,0.3-0.2,0.5c0,0.3,0.1,0.5,0.3,0.6S562.9,50.6,563.2,50.6z"/>
		<path class="st1" d="M567.1,51.3v-5.4h1v0.9h0.1c0.1-0.3,0.3-0.5,0.5-0.7c0.3-0.2,0.5-0.3,0.9-0.3c0.1,0,0.1,0,0.2,0
			c0.1,0,0.2,0,0.2,0v1c0,0-0.1,0-0.2,0c-0.1,0-0.2,0-0.3,0c-0.3,0-0.5,0.1-0.7,0.2c-0.2,0.1-0.3,0.2-0.5,0.4s-0.2,0.4-0.2,0.6v3.3
			H567.1z"/>
		<path class="st1" d="M573,51.4c-0.4,0-0.8-0.1-1.2-0.3s-0.6-0.5-0.8-1c-0.2-0.4-0.3-0.9-0.3-1.5s0.1-1.1,0.3-1.5
			c0.2-0.4,0.5-0.7,0.8-1s0.7-0.3,1.2-0.3c0.3,0,0.6,0.1,0.8,0.2c0.2,0.1,0.4,0.2,0.5,0.4s0.2,0.3,0.3,0.4h0.1V44h1.1v7.3h-1v-0.8
			h-0.1c-0.1,0.1-0.2,0.2-0.3,0.4c-0.1,0.1-0.3,0.3-0.5,0.4C573.6,51.3,573.3,51.4,573,51.4z M573.2,50.5c0.3,0,0.6-0.1,0.8-0.2
			c0.2-0.2,0.4-0.4,0.5-0.7c0.1-0.3,0.2-0.6,0.2-1c0-0.4-0.1-0.7-0.2-1c-0.1-0.3-0.3-0.5-0.5-0.7c-0.2-0.2-0.5-0.2-0.8-0.2
			c-0.3,0-0.6,0.1-0.8,0.2s-0.4,0.4-0.5,0.7c-0.1,0.3-0.2,0.6-0.2,1c0,0.4,0.1,0.7,0.2,1s0.3,0.5,0.5,0.7S572.9,50.5,573.2,50.5z"/>
		<path class="st1" d="M579.5,51.4c-0.5,0-1-0.1-1.3-0.4c-0.4-0.2-0.7-0.6-0.9-1s-0.3-0.9-0.3-1.5c0-0.6,0.1-1.1,0.3-1.5
			s0.5-0.8,0.9-1c0.4-0.2,0.8-0.4,1.3-0.4c0.5,0,1,0.1,1.3,0.4c0.4,0.2,0.7,0.6,0.9,1c0.2,0.4,0.3,0.9,0.3,1.5
			c0,0.6-0.1,1.1-0.3,1.5c-0.2,0.4-0.5,0.7-0.9,1C580.4,51.3,580,51.4,579.5,51.4z M579.5,50.5c0.3,0,0.6-0.1,0.8-0.3
			c0.2-0.2,0.4-0.4,0.5-0.7s0.2-0.6,0.2-1c0-0.3-0.1-0.7-0.2-1c-0.1-0.3-0.3-0.5-0.5-0.7c-0.2-0.2-0.5-0.3-0.8-0.3
			c-0.3,0-0.6,0.1-0.8,0.3c-0.2,0.2-0.4,0.4-0.5,0.7c-0.1,0.3-0.2,0.6-0.2,1c0,0.3,0.1,0.7,0.2,1c0.1,0.3,0.3,0.5,0.5,0.7
			C578.9,50.4,579.2,50.5,579.5,50.5z"/>
		<path class="st1" d="M586.6,49v-3.2h1.1v5.4h-1v-0.9h-0.1c-0.1,0.3-0.3,0.5-0.6,0.7c-0.3,0.2-0.6,0.3-1,0.3
			c-0.3,0-0.7-0.1-0.9-0.2c-0.3-0.2-0.5-0.4-0.6-0.7s-0.2-0.7-0.2-1.1v-3.5h1.1v3.3c0,0.4,0.1,0.7,0.3,0.9s0.5,0.3,0.8,0.3
			c0.2,0,0.4,0,0.6-0.1c0.2-0.1,0.4-0.2,0.5-0.4C586.6,49.6,586.6,49.3,586.6,49z"/>
		<path class="st1" d="M593.2,47.2l-1,0.2c0-0.1-0.1-0.2-0.2-0.4c-0.1-0.1-0.2-0.2-0.3-0.3s-0.3-0.1-0.5-0.1c-0.3,0-0.6,0.1-0.8,0.2
			c-0.2,0.1-0.3,0.3-0.3,0.5c0,0.2,0.1,0.3,0.2,0.4c0.1,0.1,0.4,0.2,0.7,0.3l0.9,0.2c0.5,0.1,0.9,0.3,1.1,0.5
			c0.2,0.2,0.4,0.6,0.4,0.9c0,0.3-0.1,0.6-0.3,0.9c-0.2,0.3-0.4,0.5-0.8,0.6c-0.3,0.1-0.7,0.2-1.2,0.2c-0.6,0-1.1-0.1-1.5-0.4
			c-0.4-0.3-0.6-0.6-0.7-1.1l1-0.2c0.1,0.3,0.2,0.5,0.4,0.6s0.5,0.2,0.8,0.2c0.3,0,0.6-0.1,0.8-0.2c0.2-0.1,0.3-0.3,0.3-0.5
			c0-0.2-0.1-0.3-0.2-0.4c-0.1-0.1-0.3-0.2-0.6-0.3l-0.9-0.2c-0.5-0.1-0.9-0.3-1.1-0.6c-0.2-0.3-0.4-0.6-0.4-1
			c0-0.3,0.1-0.6,0.3-0.8c0.2-0.2,0.4-0.4,0.7-0.6s0.7-0.2,1.1-0.2c0.6,0,1.1,0.1,1.4,0.4S593.1,46.7,593.2,47.2z"/>
	</g>
	<g>
		<path class="st1" d="M97.6,46.3c-0.1-0.2-0.2-0.4-0.3-0.6c-0.1-0.2-0.3-0.3-0.4-0.4s-0.3-0.2-0.5-0.3s-0.4-0.1-0.7-0.1
			c-0.4,0-0.8,0.1-1.1,0.3s-0.6,0.5-0.8,0.9c-0.2,0.4-0.3,0.9-0.3,1.5c0,0.6,0.1,1.1,0.3,1.5s0.5,0.7,0.8,0.9
			c0.3,0.2,0.7,0.3,1.1,0.3c0.4,0,0.7-0.1,1-0.2c0.3-0.2,0.5-0.4,0.7-0.7c0.2-0.3,0.2-0.6,0.2-1l0.3,0.1h-2.1v-0.9h2.9v0.8
			c0,0.6-0.1,1.1-0.4,1.6c-0.3,0.4-0.6,0.8-1.1,1s-1,0.4-1.6,0.4c-0.7,0-1.2-0.2-1.7-0.5c-0.5-0.3-0.9-0.7-1.2-1.3s-0.4-1.2-0.4-2
			c0-0.6,0.1-1.1,0.2-1.6c0.2-0.5,0.4-0.9,0.7-1.2c0.3-0.3,0.6-0.6,1-0.7s0.8-0.3,1.3-0.3c0.4,0,0.8,0.1,1.1,0.2
			c0.3,0.1,0.6,0.3,0.9,0.5s0.5,0.5,0.7,0.8s0.3,0.6,0.4,1H97.6z"/>
		<path class="st1" d="M102.4,51.4c-0.5,0-1-0.1-1.3-0.4c-0.4-0.2-0.7-0.6-0.9-1c-0.2-0.4-0.3-0.9-0.3-1.5c0-0.6,0.1-1.1,0.3-1.5
			s0.5-0.8,0.9-1c0.4-0.2,0.8-0.4,1.3-0.4c0.5,0,1,0.1,1.3,0.4c0.4,0.2,0.7,0.6,0.9,1c0.2,0.4,0.3,0.9,0.3,1.5
			c0,0.6-0.1,1.1-0.3,1.5c-0.2,0.4-0.5,0.7-0.9,1C103.3,51.3,102.9,51.4,102.4,51.4z M102.4,50.5c0.3,0,0.6-0.1,0.8-0.3
			c0.2-0.2,0.4-0.4,0.5-0.7c0.1-0.3,0.2-0.6,0.2-1c0-0.3-0.1-0.7-0.2-1c-0.1-0.3-0.3-0.5-0.5-0.7c-0.2-0.2-0.5-0.3-0.8-0.3
			c-0.3,0-0.6,0.1-0.8,0.3c-0.2,0.2-0.4,0.4-0.5,0.7c-0.1,0.3-0.2,0.6-0.2,1c0,0.3,0.1,0.7,0.2,1c0.1,0.3,0.3,0.5,0.5,0.7
			C101.8,50.4,102.1,50.5,102.4,50.5z"/>
		<path class="st1" d="M108.4,51.4c-0.5,0-1-0.1-1.3-0.4c-0.4-0.2-0.7-0.6-0.9-1c-0.2-0.4-0.3-0.9-0.3-1.5c0-0.6,0.1-1.1,0.3-1.5
			s0.5-0.8,0.9-1c0.4-0.2,0.8-0.4,1.3-0.4c0.5,0,1,0.1,1.3,0.4c0.4,0.2,0.7,0.6,0.9,1c0.2,0.4,0.3,0.9,0.3,1.5
			c0,0.6-0.1,1.1-0.3,1.5c-0.2,0.4-0.5,0.7-0.9,1C109.3,51.3,108.9,51.4,108.4,51.4z M108.4,50.5c0.3,0,0.6-0.1,0.8-0.3
			c0.2-0.2,0.4-0.4,0.5-0.7c0.1-0.3,0.2-0.6,0.2-1c0-0.3-0.1-0.7-0.2-1c-0.1-0.3-0.3-0.5-0.5-0.7c-0.2-0.2-0.5-0.3-0.8-0.3
			c-0.3,0-0.6,0.1-0.8,0.3c-0.2,0.2-0.4,0.4-0.5,0.7c-0.1,0.3-0.2,0.6-0.2,1c0,0.3,0.1,0.7,0.2,1c0.1,0.3,0.3,0.5,0.5,0.7
			C107.8,50.4,108.1,50.5,108.4,50.5z"/>
		<path class="st1" d="M114.1,51.4c-0.4,0-0.8-0.1-1.2-0.3s-0.6-0.5-0.8-1c-0.2-0.4-0.3-0.9-0.3-1.5s0.1-1.1,0.3-1.5s0.5-0.7,0.8-1
			s0.7-0.3,1.2-0.3c0.3,0,0.6,0.1,0.8,0.2c0.2,0.1,0.4,0.2,0.5,0.4c0.1,0.1,0.2,0.3,0.3,0.4h0.1V44h1.1v7.3h-1v-0.8h-0.1
			c-0.1,0.1-0.2,0.2-0.3,0.4c-0.1,0.1-0.3,0.3-0.5,0.4C114.7,51.3,114.5,51.4,114.1,51.4z M114.4,50.5c0.3,0,0.6-0.1,0.8-0.2
			c0.2-0.2,0.4-0.4,0.5-0.7c0.1-0.3,0.2-0.6,0.2-1c0-0.4-0.1-0.7-0.2-1s-0.3-0.5-0.5-0.7c-0.2-0.2-0.5-0.2-0.8-0.2
			c-0.3,0-0.6,0.1-0.8,0.2c-0.2,0.2-0.4,0.4-0.5,0.7c-0.1,0.3-0.2,0.6-0.2,1c0,0.4,0.1,0.7,0.2,1c0.1,0.3,0.3,0.5,0.5,0.7
			S114.1,50.5,114.4,50.5z"/>
	</g>
	<g>
		<path class="st1" d="M18.8,44v7.3h-1L14.1,46H14v5.3H13V44h1l3.7,5.3h0.1V44H18.8z"/>
		<path class="st1" d="M23.1,43.7l-2.3,8.7h-0.9l2.3-8.7H23.1z"/>
		<path class="st1" d="M24.7,51.3h-1.2l2.6-7.3h1.3l2.6,7.3h-1.2l-2.1-6h-0.1L24.7,51.3z M24.9,48.4h3.8v0.9h-3.8V48.4z"/>
	</g>
</g>
</svg>
