<?xml version="1.0" encoding="utf-8"?>
<!-- Generator: Adobe Illustrator 28.1.0, SVG Export Plug-In . SVG Version: 6.00 Build 0)  -->
<svg version="1.1" id="Layer_1" xmlns="http://www.w3.org/2000/svg" xmlns:xlink="http://www.w3.org/1999/xlink" x="0px" y="0px"
	 viewBox="0 0 1084 473" style="enable-background:new 0 0 1084 473;" xml:space="preserve">
<style type="text/css">
	.st0{fill:#4F4F4F;}
	.st1{fill:none;stroke:#4F4F4F;stroke-width:0.7701;stroke-miterlimit:10;}
	.st2{fill:none;stroke:#8F3F97;stroke-width:0.5;stroke-miterlimit:10;}
	.st3{fill:none;stroke:#8F3F97;stroke-width:0.5;stroke-miterlimit:10;stroke-dasharray:1.1971,1.1971;}
	.st4{fill:#25B5B1;}
	.st5{fill:none;stroke:url(#SVGID_1_);stroke-width:4;}
	.st6{fill:none;stroke:#00A0C8;stroke-width:4;}
	.st7{fill:#E7E7E7;}
</style>
<g>
	<g>
		<g>
			<g>
				<g>
					<g>
						<g>
							<g>
								<g>
									<rect x="35.4" y="363.4" class="st0" width="18.1" height="0.5"/>
								</g>
								<g>
									<rect x="43.2" y="388.4" class="st0" width="10.3" height="0.5"/>
								</g>
								<g>
									<rect x="43.2" y="397.4" class="st0" width="10.3" height="0.5"/>
								</g>
								<g>
									<rect x="43.2" y="379.5" class="st0" width="10.3" height="0.5"/>
								</g>
								<g>
									<rect x="43.2" y="370.5" class="st0" width="10.3" height="0.5"/>
								</g>
								<g>
									<rect x="35.4" y="404.5" class="st0" width="18.1" height="0.5"/>
								</g>
								<g>
									<rect x="43.2" y="429.6" class="st0" width="10.3" height="0.5"/>
								</g>
								<g>
									<rect x="43.2" y="438.5" class="st0" width="10.3" height="0.5"/>
								</g>
								<g>
									<rect x="43.2" y="420.6" class="st0" width="10.3" height="0.5"/>
								</g>
								<g>
									<rect x="43.2" y="411.7" class="st0" width="10.3" height="0.5"/>
								</g>
								<g>
									<rect x="35.4" y="322.2" class="st0" width="18.1" height="0.5"/>
								</g>
								<g>
									<rect x="43.2" y="347.2" class="st0" width="10.3" height="0.5"/>
								</g>
								<g>
									<rect x="43.2" y="356.2" class="st0" width="10.3" height="0.5"/>
								</g>
								<g>
									<rect x="43.2" y="338.3" class="st0" width="10.3" height="0.5"/>
								</g>
								<g>
									<rect x="43.2" y="329.3" class="st0" width="10.3" height="0.5"/>
								</g>
								<g>
									<rect x="35.4" y="281" class="st0" width="18.1" height="0.5"/>
								</g>
								<g>
									<rect x="43.2" y="306.1" class="st0" width="10.3" height="0.5"/>
								</g>
								<g>
									<rect x="43.2" y="315" class="st0" width="10.3" height="0.5"/>
								</g>
								<g>
									<rect x="43.2" y="297.1" class="st0" width="10.3" height="0.5"/>
								</g>
								<g>
									<rect x="43.2" y="288.2" class="st0" width="10.3" height="0.5"/>
								</g>
								<g>
									<rect x="35.4" y="239.8" class="st0" width="18.1" height="0.5"/>
								</g>
								<g>
									<rect x="43.2" y="264.9" class="st0" width="10.3" height="0.5"/>
								</g>
								<g>
									<rect x="43.2" y="273.9" class="st0" width="10.3" height="0.5"/>
								</g>
								<g>
									<rect x="43.2" y="256" class="st0" width="10.3" height="0.5"/>
								</g>
								<g>
									<rect x="43.2" y="247" class="st0" width="10.3" height="0.5"/>
								</g>
								<g>
									<rect x="35.4" y="198.7" class="st0" width="18.1" height="0.5"/>
								</g>
								<g>
									<rect x="43.2" y="223.7" class="st0" width="10.3" height="0.5"/>
								</g>
								<g>
									<rect x="43.2" y="232.7" class="st0" width="10.3" height="0.5"/>
								</g>
								<g>
									<rect x="43.2" y="214.8" class="st0" width="10.3" height="0.5"/>
								</g>
								<g>
									<rect x="43.2" y="205.8" class="st0" width="10.3" height="0.5"/>
								</g>
							</g>
							<g>
								<g>
									<rect x="35.4" y="164" class="st0" width="18.1" height="0.5"/>
								</g>
								<g>
									<rect x="43.2" y="189" class="st0" width="10.3" height="0.5"/>
								</g>
								<g>
									<rect x="43.2" y="180.1" class="st0" width="10.3" height="0.5"/>
								</g>
								<g>
									<rect x="43.2" y="171.1" class="st0" width="10.3" height="0.5"/>
								</g>
								<g>
									<rect x="35.4" y="122.8" class="st0" width="18.1" height="0.5"/>
								</g>
								<g>
									<rect x="43.2" y="147.9" class="st0" width="10.3" height="0.5"/>
								</g>
								<g>
									<rect x="43.2" y="156.8" class="st0" width="10.3" height="0.5"/>
								</g>
								<g>
									<rect x="43.2" y="138.9" class="st0" width="10.3" height="0.5"/>
								</g>
								<g>
									<rect x="43.2" y="130" class="st0" width="10.3" height="0.5"/>
								</g>
								<g>
									<rect x="35.4" y="81.6" class="st0" width="18.1" height="0.5"/>
								</g>
								<g>
									<rect x="43.2" y="106.7" class="st0" width="10.3" height="0.5"/>
								</g>
								<g>
									<rect x="43.2" y="115.7" class="st0" width="10.3" height="0.5"/>
								</g>
								<g>
									<rect x="43.2" y="97.8" class="st0" width="10.3" height="0.5"/>
								</g>
								<g>
									<rect x="43.2" y="88.8" class="st0" width="10.3" height="0.5"/>
								</g>
								<g>
									<rect x="35.4" y="40.5" class="st0" width="18.1" height="0.5"/>
								</g>
								<g>
									<rect x="43.2" y="65.5" class="st0" width="10.3" height="0.5"/>
								</g>
								<g>
									<rect x="43.2" y="74.5" class="st0" width="10.3" height="0.5"/>
								</g>
								<g>
									<rect x="43.2" y="56.6" class="st0" width="10.3" height="0.5"/>
								</g>
								<g>
									<rect x="43.2" y="47.6" class="st0" width="10.3" height="0.5"/>
								</g>
							</g>
						</g>
						<line class="st1" x1="59.6" y1="27.7" x2="59.6" y2="441.9"/>
						<g>
							<g>
								<g>
									<g>
										<path class="st0" d="M26.7,446.3c-0.6,0-1.2-0.2-1.7-0.5c-0.5-0.3-0.8-0.8-1.1-1.5c-0.2-0.6-0.4-1.4-0.4-2.3
											c0-0.9,0.1-1.7,0.4-2.3c0.2-0.6,0.6-1.1,1.1-1.5c0.5-0.3,1-0.5,1.7-0.5s1.2,0.2,1.7,0.5c0.5,0.3,0.8,0.8,1.1,1.5
											c0.2,0.6,0.4,1.4,0.4,2.3c0,0.9-0.1,1.7-0.4,2.3c-0.2,0.6-0.6,1.1-1.1,1.5C27.9,446.1,27.3,446.3,26.7,446.3z M26.7,445.2
											c0.6,0,1-0.3,1.3-0.8c0.3-0.6,0.5-1.4,0.5-2.4c0-0.7-0.1-1.3-0.2-1.8c-0.1-0.5-0.4-0.8-0.6-1.1c-0.3-0.3-0.6-0.4-1-0.4
											c-0.6,0-1,0.3-1.3,0.8c-0.3,0.6-0.5,1.4-0.5,2.4c0,0.7,0.1,1.3,0.2,1.8c0.1,0.5,0.4,0.8,0.6,1.1
											C26,445.1,26.3,445.2,26.7,445.2z"/>
									</g>
								</g>
							</g>
							<g>
								<g>
									<path class="st0" d="M116.9,455.8v8.4h-1.3V457h0l-2,1.3v-1.2l2.1-1.4H116.9z"/>
									<path class="st0" d="M119.1,464.2v-0.9l2.8-2.9c0.3-0.3,0.6-0.6,0.8-0.8c0.2-0.2,0.3-0.5,0.4-0.7s0.1-0.5,0.1-0.7
										c0-0.3-0.1-0.5-0.2-0.7c-0.1-0.2-0.3-0.4-0.5-0.5c-0.2-0.1-0.5-0.2-0.8-0.2c-0.3,0-0.6,0.1-0.8,0.2
										c-0.2,0.1-0.4,0.3-0.5,0.5c-0.1,0.2-0.2,0.5-0.2,0.8h-1.2c0-0.5,0.1-1,0.4-1.3c0.2-0.4,0.6-0.7,1-0.9s0.9-0.3,1.4-0.3
										c0.5,0,1,0.1,1.4,0.3s0.7,0.5,0.9,0.9c0.2,0.4,0.3,0.8,0.3,1.2c0,0.3-0.1,0.6-0.2,0.9s-0.3,0.6-0.6,1
										c-0.3,0.4-0.7,0.8-1.2,1.3l-1.7,1.7v0.1h3.8v1.1H119.1z"/>
									<path class="st0" d="M127.1,464.2h-1.3l3-8.4h1.5l3,8.4h-1.3l-2.4-6.9h-0.1L127.1,464.2z M127.3,460.9h4.4v1.1h-4.4V460.9z
										"/>
									<path class="st0" d="M134.4,455.8h1.5l2.7,6.5h0.1l2.7-6.5h1.5v8.4h-1.2v-6.1h-0.1l-2.5,6.1h-1l-2.5-6.1h-0.1v6.1h-1.2
										V455.8z"/>
								</g>
							</g>
							<g>
								<g>
									<path class="st0" d="M191,455.8v8.4h-1.3V457h0l-2,1.3v-1.2l2.1-1.4H191z"/>
									<path class="st0" d="M194.1,464.2h-1.3l3-8.4h1.5l3,8.4h-1.3l-2.4-6.9h-0.1L194.1,464.2z M194.3,460.9h4.4v1.1h-4.4V460.9z
										"/>
									<path class="st0" d="M201.4,455.8h1.5l2.7,6.5h0.1l2.7-6.5h1.5v8.4h-1.2v-6.1h-0.1l-2.5,6.1h-1l-2.5-6.1h-0.1v6.1h-1.2
										V455.8z"/>
								</g>
							</g>
							<g>
								<g>
									<path class="st0" d="M256.6,464.2v-0.9l2.8-2.9c0.3-0.3,0.6-0.6,0.8-0.8s0.3-0.5,0.4-0.7s0.1-0.5,0.1-0.7
										c0-0.3-0.1-0.5-0.2-0.7c-0.1-0.2-0.3-0.4-0.5-0.5c-0.2-0.1-0.5-0.2-0.8-0.2c-0.3,0-0.6,0.1-0.8,0.2s-0.4,0.3-0.5,0.5
										s-0.2,0.5-0.2,0.8h-1.2c0-0.5,0.1-1,0.4-1.3s0.6-0.7,1-0.9s0.9-0.3,1.4-0.3c0.5,0,1,0.1,1.4,0.3s0.7,0.5,0.9,0.9
										c0.2,0.4,0.3,0.8,0.3,1.2c0,0.3-0.1,0.6-0.2,0.9s-0.3,0.6-0.6,1c-0.3,0.4-0.7,0.8-1.2,1.3l-1.7,1.7v0.1h3.8v1.1H256.6z"/>
									<path class="st0" d="M264.5,464.2h-1.3l3-8.4h1.5l3,8.4h-1.3l-2.4-6.9h-0.1L264.5,464.2z M264.8,460.9h4.4v1.1h-4.4V460.9z
										"/>
									<path class="st0" d="M271.9,455.8h1.5l2.7,6.5h0.1l2.7-6.5h1.5v8.4h-1.2v-6.1h-0.1l-2.5,6.1h-1l-2.5-6.1h-0.1v6.1h-1.2
										V455.8z"/>
								</g>
							</g>
							<g>
								<g>
									<path class="st0" d="M329,464.3c-0.6,0-1.1-0.1-1.5-0.3c-0.4-0.2-0.8-0.5-1-0.8c-0.3-0.3-0.4-0.7-0.4-1.2h1.3
										c0,0.2,0.1,0.5,0.3,0.6c0.2,0.2,0.4,0.3,0.6,0.4s0.5,0.1,0.8,0.1c0.3,0,0.6-0.1,0.9-0.2c0.3-0.1,0.5-0.3,0.6-0.5
										c0.1-0.2,0.2-0.4,0.2-0.7c0-0.3-0.1-0.5-0.2-0.7s-0.4-0.4-0.6-0.5c-0.3-0.1-0.6-0.2-1-0.2h-0.7v-1h0.7
										c0.3,0,0.6-0.1,0.8-0.2c0.2-0.1,0.4-0.3,0.6-0.5c0.1-0.2,0.2-0.4,0.2-0.7c0-0.3-0.1-0.5-0.2-0.7c-0.1-0.2-0.3-0.3-0.5-0.5
										s-0.5-0.2-0.7-0.2c-0.3,0-0.5,0.1-0.8,0.2c-0.2,0.1-0.4,0.2-0.6,0.4c-0.1,0.2-0.2,0.4-0.2,0.7h-1.2c0-0.5,0.1-0.9,0.4-1.2
										c0.3-0.3,0.6-0.6,1-0.8s0.9-0.3,1.4-0.3c0.5,0,1,0.1,1.4,0.3s0.7,0.5,0.9,0.8c0.2,0.3,0.3,0.7,0.3,1.1
										c0,0.5-0.1,0.9-0.4,1.2s-0.6,0.5-1.1,0.7v0.1c0.6,0.1,1,0.3,1.3,0.7s0.5,0.8,0.5,1.3c0,0.5-0.1,0.9-0.4,1.2
										c-0.3,0.4-0.6,0.7-1.1,0.9C330.1,464.2,329.6,464.3,329,464.3z"/>
									<path class="st0" d="M334.4,464.2H333l3-8.4h1.5l3,8.4h-1.3l-2.4-6.9h-0.1L334.4,464.2z M334.6,460.9h4.4v1.1h-4.4V460.9z"
										/>
									<path class="st0" d="M341.8,455.8h1.5l2.7,6.5h0.1l2.7-6.5h1.5v8.4h-1.2v-6.1H349l-2.5,6.1h-1l-2.5-6.1H343v6.1h-1.2V455.8
										z"/>
								</g>
							</g>
							<g>
								<g>
									<path class="st0" d="M395.6,462.5v-1l3.6-5.7h0.8v1.5h-0.5l-2.6,4.1v0.1h5v1.1H395.6z M399.5,464.2v-2l0-0.5v-6h1.2v8.4
										H399.5z"/>
									<path class="st0" d="M404.1,464.2h-1.3l3-8.4h1.5l3,8.4h-1.3l-2.4-6.9h-0.1L404.1,464.2z M404.3,460.9h4.4v1.1h-4.4V460.9z
										"/>
									<path class="st0" d="M411.5,455.8h1.5l2.7,6.5h0.1l2.7-6.5h1.5v8.4h-1.2v-6.1h-0.1l-2.5,6.1h-1l-2.5-6.1h-0.1v6.1h-1.2
										V455.8z"/>
								</g>
							</g>
							<g>
								<g>
									<path class="st0" d="M468.4,464.3c-0.5,0-1-0.1-1.4-0.3s-0.7-0.5-1-0.8c-0.2-0.3-0.4-0.7-0.4-1.2h1.2
										c0,0.4,0.2,0.7,0.5,0.9s0.6,0.3,1,0.3c0.3,0,0.6-0.1,0.9-0.2c0.2-0.1,0.4-0.4,0.6-0.6c0.1-0.3,0.2-0.6,0.2-0.9
										c0-0.3-0.1-0.6-0.2-0.9c-0.1-0.3-0.4-0.5-0.6-0.6c-0.3-0.2-0.6-0.2-0.9-0.2c-0.3,0-0.5,0-0.8,0.1c-0.3,0.1-0.5,0.2-0.6,0.3
										l-1.2-0.2l0.5-4.2h4.6v1.1h-3.6l-0.3,2.4h0c0.2-0.2,0.4-0.3,0.7-0.4c0.3-0.1,0.6-0.2,0.9-0.2c0.5,0,1,0.1,1.4,0.4
										s0.7,0.6,0.9,1c0.2,0.4,0.3,0.9,0.3,1.4c0,0.5-0.1,1-0.4,1.5c-0.2,0.4-0.6,0.8-1,1C469.4,464.2,468.9,464.3,468.4,464.3z"
										/>
									<path class="st0" d="M473.6,464.2h-1.3l3-8.4h1.5l3,8.4h-1.3l-2.4-6.9H476L473.6,464.2z M473.8,460.9h4.4v1.1h-4.4V460.9z"
										/>
									<path class="st0" d="M481,455.8h1.5l2.7,6.5h0.1l2.7-6.5h1.5v8.4h-1.2v-6.1h-0.1l-2.5,6.1h-1l-2.5-6.1h-0.1v6.1H481V455.8z
										"/>
								</g>
							</g>
							<g>
								<g>
									<path class="st0" d="M538.1,464.3c-0.4,0-0.7-0.1-1.1-0.2c-0.4-0.1-0.7-0.4-1-0.7c-0.3-0.3-0.5-0.7-0.7-1.2
										c-0.2-0.5-0.3-1.2-0.3-1.9c0-0.7,0.1-1.4,0.2-2c0.1-0.6,0.4-1,0.6-1.4c0.3-0.4,0.6-0.7,1-0.9c0.4-0.2,0.8-0.3,1.3-0.3
										c0.5,0,0.9,0.1,1.3,0.3s0.7,0.5,0.9,0.8s0.4,0.7,0.5,1.2h-1.3c-0.1-0.3-0.3-0.6-0.5-0.9s-0.6-0.3-1-0.3
										c-0.6,0-1.1,0.3-1.4,0.8c-0.3,0.5-0.5,1.3-0.5,2.2h0.1c0.1-0.2,0.3-0.4,0.5-0.6c0.2-0.2,0.5-0.3,0.7-0.4
										c0.3-0.1,0.5-0.1,0.8-0.1c0.5,0,0.9,0.1,1.3,0.4c0.4,0.2,0.7,0.6,0.9,1s0.4,0.9,0.4,1.4s-0.1,1-0.4,1.5
										c-0.2,0.4-0.6,0.8-1,1C539.2,464.2,538.7,464.3,538.1,464.3z M538.1,463.2c0.3,0,0.6-0.1,0.9-0.2c0.3-0.2,0.5-0.4,0.6-0.6
										c0.1-0.3,0.2-0.6,0.2-0.9c0-0.3-0.1-0.6-0.2-0.9c-0.1-0.3-0.3-0.5-0.6-0.6c-0.3-0.2-0.5-0.2-0.9-0.2c-0.2,0-0.5,0-0.7,0.1
										c-0.2,0.1-0.4,0.2-0.5,0.4c-0.2,0.2-0.3,0.4-0.4,0.6s-0.1,0.4-0.1,0.7c0,0.3,0.1,0.6,0.2,0.9c0.1,0.3,0.3,0.5,0.6,0.6
										C537.5,463.1,537.8,463.2,538.1,463.2z"/>
									<path class="st0" d="M543.3,464.2H542l3-8.4h1.5l3,8.4h-1.3l-2.4-6.9h-0.1L543.3,464.2z M543.6,460.9h4.4v1.1h-4.4V460.9z"
										/>
									<path class="st0" d="M550.7,455.8h1.5l2.7,6.5h0.1l2.7-6.5h1.5v8.4H558v-6.1H558l-2.5,6.1h-1l-2.5-6.1h-0.1v6.1h-1.2V455.8
										z"/>
								</g>
							</g>
							<g>
								<g>
									<path class="st0" d="M605.5,464.2l3.7-7.3v-0.1h-4.2v-1.1h5.6v1.1l-3.7,7.3H605.5z"/>
									<path class="st0" d="M612.7,464.2h-1.3l3-8.4h1.5l3,8.4h-1.3l-2.4-6.9h-0.1L612.7,464.2z M612.9,460.9h4.4v1.1h-4.4V460.9z
										"/>
									<path class="st0" d="M620.1,455.8h1.5l2.7,6.5h0.1l2.7-6.5h1.5v8.4h-1.2v-6.1h-0.1l-2.5,6.1h-1l-2.5-6.1h-0.1v6.1h-1.2
										V455.8z"/>
								</g>
							</g>
							<g>
								<g>
									<path class="st0" d="M677.4,464.3c-0.6,0-1.1-0.1-1.6-0.3c-0.4-0.2-0.8-0.5-1.1-0.8c-0.3-0.4-0.4-0.8-0.4-1.2
										c0-0.4,0.1-0.7,0.2-1c0.1-0.3,0.4-0.5,0.6-0.8s0.5-0.3,0.9-0.4v0c-0.4-0.1-0.8-0.3-1-0.7c-0.3-0.3-0.4-0.7-0.4-1.2
										c0-0.4,0.1-0.8,0.3-1.2c0.2-0.3,0.5-0.6,1-0.8c0.4-0.2,0.9-0.3,1.4-0.3c0.5,0,1,0.1,1.4,0.3c0.4,0.2,0.7,0.5,1,0.8
										s0.3,0.7,0.4,1.1c0,0.5-0.1,0.9-0.4,1.2c-0.3,0.3-0.6,0.6-1,0.7v0c0.3,0.1,0.6,0.2,0.9,0.4c0.3,0.2,0.5,0.5,0.6,0.8
										c0.2,0.3,0.2,0.6,0.2,1c0,0.5-0.1,0.9-0.4,1.2c-0.3,0.4-0.6,0.6-1.1,0.8C678.5,464.2,678,464.3,677.4,464.3z M677.4,463.2
										c0.3,0,0.6-0.1,0.9-0.2c0.3-0.1,0.5-0.3,0.6-0.5c0.1-0.2,0.2-0.5,0.2-0.7c0-0.3-0.1-0.6-0.2-0.8c-0.1-0.2-0.4-0.4-0.6-0.5
										c-0.3-0.1-0.5-0.2-0.9-0.2c-0.3,0-0.6,0.1-0.9,0.2c-0.3,0.1-0.5,0.3-0.6,0.5c-0.1,0.2-0.2,0.5-0.2,0.8
										c0,0.3,0.1,0.5,0.2,0.7c0.1,0.2,0.3,0.4,0.6,0.5S677,463.2,677.4,463.2z M677.4,459.3c0.3,0,0.5-0.1,0.7-0.2
										c0.2-0.1,0.4-0.3,0.5-0.5c0.1-0.2,0.2-0.4,0.2-0.7c0-0.3-0.1-0.5-0.2-0.7c-0.1-0.2-0.3-0.3-0.5-0.5
										c-0.2-0.1-0.5-0.2-0.8-0.2c-0.3,0-0.5,0.1-0.8,0.2c-0.2,0.1-0.4,0.3-0.5,0.5c-0.1,0.2-0.2,0.4-0.2,0.7
										c0,0.3,0.1,0.5,0.2,0.7c0.1,0.2,0.3,0.4,0.5,0.5C676.8,459.3,677.1,459.3,677.4,459.3z"/>
									<path class="st0" d="M682.7,464.2h-1.3l3-8.4h1.5l3,8.4h-1.3l-2.4-6.9H685L682.7,464.2z M682.9,460.9h4.4v1.1h-4.4V460.9z"
										/>
									<path class="st0" d="M690,455.8h1.5l2.7,6.5h0.1l2.7-6.5h1.5v8.4h-1.2v-6.1h-0.1l-2.5,6.1h-1l-2.5-6.1h-0.1v6.1H690V455.8z
										"/>
								</g>
							</g>
							<g>
								<g>
									<path class="st0" d="M747,455.6c0.4,0,0.7,0.1,1.1,0.2c0.4,0.1,0.7,0.4,1,0.7s0.5,0.7,0.7,1.2s0.3,1.2,0.3,1.9
										c0,0.7-0.1,1.4-0.2,2c-0.1,0.6-0.4,1.1-0.6,1.5c-0.3,0.4-0.6,0.7-1,0.9c-0.4,0.2-0.8,0.3-1.3,0.3c-0.5,0-0.9-0.1-1.3-0.3
										c-0.4-0.2-0.7-0.5-0.9-0.8c-0.2-0.3-0.4-0.8-0.5-1.2h1.3c0.1,0.4,0.2,0.7,0.5,0.9s0.6,0.3,1,0.3c0.6,0,1.1-0.3,1.4-0.8
										s0.5-1.3,0.5-2.3h-0.1c-0.1,0.2-0.3,0.4-0.5,0.6c-0.2,0.2-0.4,0.3-0.7,0.4s-0.5,0.1-0.8,0.1c-0.5,0-0.9-0.1-1.3-0.4
										c-0.4-0.2-0.7-0.6-0.9-1c-0.2-0.4-0.4-0.9-0.4-1.4c0-0.5,0.1-1,0.4-1.4c0.2-0.4,0.6-0.8,1-1S746.4,455.6,747,455.6z
										 M747,456.7c-0.3,0-0.6,0.1-0.9,0.2s-0.5,0.4-0.6,0.6c-0.1,0.3-0.2,0.6-0.2,0.9s0.1,0.6,0.2,0.9s0.3,0.5,0.6,0.6
										s0.5,0.2,0.9,0.2c0.2,0,0.5,0,0.7-0.1s0.4-0.2,0.5-0.4c0.2-0.2,0.3-0.4,0.4-0.6c0.1-0.2,0.1-0.4,0.1-0.7
										c0-0.3-0.1-0.6-0.2-0.9c-0.1-0.3-0.3-0.5-0.6-0.6C747.6,456.8,747.3,456.7,747,456.7z"/>
									<path class="st0" d="M752.3,464.2H751l3-8.4h1.5l3,8.4h-1.3l-2.4-6.9h-0.1L752.3,464.2z M752.6,460.9h4.4v1.1h-4.4V460.9z"
										/>
									<path class="st0" d="M759.7,455.8h1.5l2.7,6.5h0.1l2.7-6.5h1.5v8.4H767v-6.1H767l-2.5,6.1h-1l-2.5-6.1h-0.1v6.1h-1.2V455.8
										z"/>
								</g>
							</g>
							<g>
								<g>
									<path class="st0" d="M814.2,455.8v8.4H813V457h0l-2,1.3v-1.2l2.1-1.4H814.2z"/>
									<path class="st0" d="M819.4,464.3c-0.6,0-1.2-0.2-1.7-0.5c-0.5-0.3-0.8-0.8-1.1-1.5c-0.2-0.6-0.4-1.4-0.4-2.3
										c0-0.9,0.1-1.7,0.4-2.3c0.2-0.6,0.6-1.1,1.1-1.5c0.5-0.3,1-0.5,1.7-0.5c0.6,0,1.2,0.2,1.7,0.5c0.5,0.3,0.8,0.8,1.1,1.5
										c0.2,0.6,0.4,1.4,0.4,2.3c0,0.9-0.1,1.7-0.4,2.3c-0.2,0.6-0.6,1.1-1.1,1.5C820.6,464.1,820.1,464.3,819.4,464.3z
										 M819.4,463.2c0.6,0,1-0.3,1.3-0.8c0.3-0.6,0.5-1.4,0.5-2.4c0-0.7-0.1-1.3-0.2-1.8c-0.1-0.5-0.4-0.8-0.6-1.1
										c-0.3-0.3-0.6-0.4-1-0.4c-0.6,0-1,0.3-1.3,0.8c-0.3,0.6-0.5,1.4-0.5,2.4c0,0.7,0.1,1.3,0.2,1.8c0.1,0.5,0.4,0.8,0.6,1.1
										C818.7,463.1,819.1,463.2,819.4,463.2z"/>
									<path class="st0" d="M824.8,464.2h-1.3l3-8.4h1.5l3,8.4h-1.3l-2.4-6.9h-0.1L824.8,464.2z M825,460.9h4.4v1.1H825V460.9z"/>
									<path class="st0" d="M832.2,455.8h1.5l2.7,6.5h0.1l2.7-6.5h1.5v8.4h-1.2v-6.1h-0.1l-2.5,6.1h-1l-2.5-6.1h-0.1v6.1h-1.2
										V455.8z"/>
								</g>
							</g>
							<g>
								<g>
									<path class="st0" d="M884.9,455.8v8.4h-1.3V457h0l-2,1.3v-1.2l2.1-1.4H884.9z"/>
									<path class="st0" d="M890.4,455.8v8.4h-1.3V457h0l-2,1.3v-1.2l2.1-1.4H890.4z"/>
									<path class="st0" d="M893.5,464.2h-1.3l3-8.4h1.5l3,8.4h-1.3l-2.4-6.9h-0.1L893.5,464.2z M893.7,460.9h4.4v1.1h-4.4V460.9z
										"/>
									<path class="st0" d="M900.8,455.8h1.5l2.7,6.5h0.1l2.7-6.5h1.5v8.4h-1.2v-6.1h-0.1l-2.5,6.1h-1l-2.5-6.1H902v6.1h-1.2
										V455.8z"/>
								</g>
							</g>
							<g>
								<g>
									<path class="st0" d="M954.1,455.8v8.4h-1.3V457h0l-2,1.3v-1.2l2.1-1.4H954.1z"/>
									<path class="st0" d="M956.4,464.2v-0.9l2.8-2.9c0.3-0.3,0.6-0.6,0.8-0.8s0.3-0.5,0.4-0.7s0.1-0.5,0.1-0.7
										c0-0.3-0.1-0.5-0.2-0.7c-0.1-0.2-0.3-0.4-0.5-0.5c-0.2-0.1-0.5-0.2-0.8-0.2c-0.3,0-0.6,0.1-0.8,0.2
										c-0.2,0.1-0.4,0.3-0.5,0.5s-0.2,0.5-0.2,0.8h-1.2c0-0.5,0.1-1,0.4-1.3s0.6-0.7,1-0.9s0.9-0.3,1.4-0.3c0.5,0,1,0.1,1.4,0.3
										s0.7,0.5,0.9,0.9c0.2,0.4,0.3,0.8,0.3,1.2c0,0.3-0.1,0.6-0.2,0.9s-0.3,0.6-0.6,1c-0.3,0.4-0.7,0.8-1.2,1.3l-1.7,1.7v0.1
										h3.8v1.1H956.4z"/>
									<path class="st0" d="M963.6,464.2v-8.4h3c0.7,0,1.2,0.1,1.6,0.4c0.4,0.2,0.8,0.6,1,1c0.2,0.4,0.3,0.9,0.3,1.4
										c0,0.5-0.1,1-0.3,1.4c-0.2,0.4-0.5,0.7-1,1s-1,0.4-1.6,0.4h-2.1v-1.1h1.9c0.4,0,0.7-0.1,1-0.2s0.4-0.3,0.6-0.6
										c0.1-0.2,0.2-0.5,0.2-0.8s-0.1-0.6-0.2-0.8c-0.1-0.2-0.3-0.4-0.6-0.6c-0.3-0.1-0.6-0.2-1-0.2h-1.6v7.3H963.6z"/>
									<path class="st0" d="M971,455.8h1.5l2.7,6.5h0.1l2.7-6.5h1.5v8.4h-1.2v-6.1h-0.1l-2.5,6.1h-1l-2.5-6.1h-0.1v6.1H971V455.8z
										"/>
								</g>
							</g>
							<g>
								<g>
									<g>
										<path class="st0" d="M19.3,406.1c-0.5,0-1-0.1-1.4-0.3c-0.4-0.2-0.7-0.5-1-0.8c-0.2-0.3-0.4-0.7-0.4-1.2h1.2
											c0,0.4,0.2,0.7,0.5,0.9c0.3,0.2,0.6,0.3,1,0.3c0.3,0,0.6-0.1,0.9-0.2c0.3-0.1,0.4-0.4,0.6-0.6c0.1-0.3,0.2-0.6,0.2-0.9
											c0-0.3-0.1-0.6-0.2-0.9c-0.1-0.3-0.4-0.5-0.6-0.6s-0.6-0.2-0.9-0.2c-0.3,0-0.5,0-0.8,0.1c-0.3,0.1-0.5,0.2-0.6,0.3
											l-1.2-0.2l0.5-4.2h4.6v1.1h-3.6l-0.3,2.4h0c0.2-0.2,0.4-0.3,0.7-0.4c0.3-0.1,0.6-0.2,0.9-0.2c0.5,0,1,0.1,1.4,0.4
											c0.4,0.2,0.7,0.6,0.9,1c0.2,0.4,0.3,0.9,0.3,1.4c0,0.5-0.1,1-0.4,1.5c-0.2,0.4-0.6,0.8-1,1
											C20.4,406,19.9,406.1,19.3,406.1z"/>
										<path class="st0" d="M26.7,406.2c-0.6,0-1.2-0.2-1.7-0.5c-0.5-0.3-0.8-0.8-1.1-1.5c-0.2-0.6-0.4-1.4-0.4-2.3
											c0-0.9,0.1-1.7,0.4-2.3c0.2-0.6,0.6-1.1,1.1-1.5c0.5-0.3,1-0.5,1.7-0.5s1.2,0.2,1.7,0.5c0.5,0.3,0.8,0.8,1.1,1.5
											c0.2,0.6,0.4,1.4,0.4,2.3c0,0.9-0.1,1.7-0.4,2.3c-0.2,0.6-0.6,1.1-1.1,1.5C27.9,406,27.3,406.2,26.7,406.2z M26.7,405.1
											c0.6,0,1-0.3,1.3-0.8c0.3-0.6,0.5-1.4,0.5-2.4c0-0.7-0.1-1.3-0.2-1.8c-0.1-0.5-0.4-0.8-0.6-1.1c-0.3-0.3-0.6-0.4-1-0.4
											c-0.6,0-1,0.3-1.3,0.8c-0.3,0.6-0.5,1.4-0.5,2.4c0,0.7,0.1,1.3,0.2,1.8c0.1,0.5,0.4,0.8,0.6,1.1
											C26,404.9,26.3,405.1,26.7,405.1z"/>
									</g>
								</g>
							</g>
							<g>
								<g>
									<path class="st0" d="M14,357.5v8.4h-1.3v-7.1h0l-2,1.3v-1.2l2.1-1.4H14z"/>
									<path class="st0" d="M19.2,366c-0.6,0-1.2-0.2-1.7-0.5c-0.5-0.3-0.8-0.8-1.1-1.5c-0.2-0.6-0.4-1.4-0.4-2.3
										c0-0.9,0.1-1.7,0.4-2.3c0.2-0.6,0.6-1.1,1.1-1.5c0.5-0.3,1-0.5,1.7-0.5s1.2,0.2,1.7,0.5c0.5,0.3,0.8,0.8,1.1,1.5
										c0.2,0.6,0.4,1.4,0.4,2.3c0,0.9-0.1,1.7-0.4,2.3c-0.2,0.6-0.6,1.1-1.1,1.5C20.4,365.9,19.8,366,19.2,366z M19.2,364.9
										c0.6,0,1-0.3,1.3-0.8c0.3-0.6,0.5-1.4,0.5-2.4c0-0.7-0.1-1.3-0.2-1.8c-0.1-0.5-0.4-0.8-0.6-1.1c-0.3-0.3-0.6-0.4-1-0.4
										c-0.6,0-1,0.3-1.3,0.8c-0.3,0.6-0.5,1.4-0.5,2.4c0,0.7,0.1,1.3,0.2,1.8c0.1,0.5,0.4,0.8,0.6,1.1
										C18.5,364.8,18.8,364.9,19.2,364.9z"/>
									<path class="st0" d="M26.7,366c-0.6,0-1.2-0.2-1.7-0.5c-0.5-0.3-0.8-0.8-1.1-1.5c-0.2-0.6-0.4-1.4-0.4-2.3
										c0-0.9,0.1-1.7,0.4-2.3c0.2-0.6,0.6-1.1,1.1-1.5c0.5-0.3,1-0.5,1.7-0.5s1.2,0.2,1.7,0.5c0.5,0.3,0.8,0.8,1.1,1.5
										c0.2,0.6,0.4,1.4,0.4,2.3c0,0.9-0.1,1.7-0.4,2.3c-0.2,0.6-0.6,1.1-1.1,1.5C27.9,365.9,27.3,366,26.7,366z M26.7,364.9
										c0.6,0,1-0.3,1.3-0.8c0.3-0.6,0.5-1.4,0.5-2.4c0-0.7-0.1-1.3-0.2-1.8c-0.1-0.5-0.4-0.8-0.6-1.1c-0.3-0.3-0.6-0.4-1-0.4
										c-0.6,0-1,0.3-1.3,0.8c-0.3,0.6-0.5,1.4-0.5,2.4c0,0.7,0.1,1.3,0.2,1.8c0.1,0.5,0.4,0.8,0.6,1.1
										C26,364.8,26.3,364.9,26.7,364.9z"/>
								</g>
							</g>
							<g>
								<g>
									<path class="st0" d="M14.3,317.4v8.4H13v-7.1h0l-2,1.3v-1.2l2.1-1.4H14.3z"/>
									<path class="st0" d="M19.3,325.9c-0.5,0-1-0.1-1.4-0.3c-0.4-0.2-0.7-0.5-1-0.8c-0.2-0.3-0.4-0.7-0.4-1.2h1.2
										c0,0.4,0.2,0.7,0.5,0.9c0.3,0.2,0.6,0.3,1,0.3c0.3,0,0.6-0.1,0.9-0.2c0.3-0.1,0.4-0.4,0.6-0.6c0.1-0.3,0.2-0.6,0.2-0.9
										c0-0.3-0.1-0.6-0.2-0.9c-0.1-0.3-0.4-0.5-0.6-0.6s-0.6-0.2-0.9-0.2c-0.3,0-0.5,0-0.8,0.1c-0.3,0.1-0.5,0.2-0.6,0.3
										l-1.2-0.2l0.5-4.2h4.6v1.1h-3.6l-0.3,2.4h0c0.2-0.2,0.4-0.3,0.7-0.4c0.3-0.1,0.6-0.2,0.9-0.2c0.5,0,1,0.1,1.4,0.4
										c0.4,0.2,0.7,0.6,0.9,1c0.2,0.4,0.3,0.9,0.3,1.4c0,0.5-0.1,1-0.4,1.5c-0.2,0.4-0.6,0.8-1,1
										C20.4,325.7,19.9,325.9,19.3,325.9z"/>
									<path class="st0" d="M26.7,325.9c-0.6,0-1.2-0.2-1.7-0.5c-0.5-0.3-0.8-0.8-1.1-1.5c-0.2-0.6-0.4-1.4-0.4-2.3
										c0-0.9,0.1-1.7,0.4-2.3c0.2-0.6,0.6-1.1,1.1-1.5c0.5-0.3,1-0.5,1.7-0.5s1.2,0.2,1.7,0.5c0.5,0.3,0.8,0.8,1.1,1.5
										c0.2,0.6,0.4,1.4,0.4,2.3c0,0.9-0.1,1.7-0.4,2.3c-0.2,0.6-0.6,1.1-1.1,1.5C27.9,325.7,27.3,325.9,26.7,325.9z M26.7,324.8
										c0.6,0,1-0.3,1.3-0.8c0.3-0.6,0.5-1.4,0.5-2.4c0-0.7-0.1-1.3-0.2-1.8c-0.1-0.5-0.4-0.8-0.6-1.1c-0.3-0.3-0.6-0.4-1-0.4
										c-0.6,0-1,0.3-1.3,0.8c-0.3,0.6-0.5,1.4-0.5,2.4c0,0.7,0.1,1.3,0.2,1.8c0.1,0.5,0.4,0.8,0.6,1.1
										C26,324.7,26.3,324.8,26.7,324.8z"/>
								</g>
							</g>
							<g>
								<g>
									<path class="st0" d="M9.2,285.6v-0.9l2.8-2.9c0.3-0.3,0.6-0.6,0.8-0.8c0.2-0.2,0.3-0.5,0.4-0.7s0.1-0.5,0.1-0.7
										c0-0.3-0.1-0.5-0.2-0.7c-0.1-0.2-0.3-0.4-0.5-0.5c-0.2-0.1-0.5-0.2-0.8-0.2c-0.3,0-0.6,0.1-0.8,0.2
										c-0.2,0.1-0.4,0.3-0.5,0.5c-0.1,0.2-0.2,0.5-0.2,0.8H9.2c0-0.5,0.1-1,0.4-1.3c0.2-0.4,0.6-0.7,1-0.9s0.9-0.3,1.4-0.3
										c0.5,0,1,0.1,1.4,0.3s0.7,0.5,0.9,0.9c0.2,0.4,0.3,0.8,0.3,1.2c0,0.3-0.1,0.6-0.2,0.9s-0.3,0.6-0.6,1
										c-0.3,0.4-0.7,0.8-1.2,1.3l-1.7,1.7v0.1h3.8v1.1H9.2z"/>
									<path class="st0" d="M19.2,285.8c-0.6,0-1.2-0.2-1.7-0.5c-0.5-0.3-0.8-0.8-1.1-1.5c-0.2-0.6-0.4-1.4-0.4-2.3
										c0-0.9,0.1-1.7,0.4-2.3c0.2-0.6,0.6-1.1,1.1-1.5c0.5-0.3,1-0.5,1.7-0.5s1.2,0.2,1.7,0.5c0.5,0.3,0.8,0.8,1.1,1.5
										c0.2,0.6,0.4,1.4,0.4,2.3c0,0.9-0.1,1.7-0.4,2.3c-0.2,0.6-0.6,1.1-1.1,1.5C20.4,285.6,19.8,285.8,19.2,285.8z M19.2,284.7
										c0.6,0,1-0.3,1.3-0.8c0.3-0.6,0.5-1.4,0.5-2.4c0-0.7-0.1-1.3-0.2-1.8c-0.1-0.5-0.4-0.8-0.6-1.1c-0.3-0.3-0.6-0.4-1-0.4
										c-0.6,0-1,0.3-1.3,0.8c-0.3,0.6-0.5,1.4-0.5,2.4c0,0.7,0.1,1.3,0.2,1.8c0.1,0.5,0.4,0.8,0.6,1.1
										C18.5,284.5,18.8,284.7,19.2,284.7z"/>
									<path class="st0" d="M26.7,285.8c-0.6,0-1.2-0.2-1.7-0.5c-0.5-0.3-0.8-0.8-1.1-1.5c-0.2-0.6-0.4-1.4-0.4-2.3
										c0-0.9,0.1-1.7,0.4-2.3c0.2-0.6,0.6-1.1,1.1-1.5c0.5-0.3,1-0.5,1.7-0.5s1.2,0.2,1.7,0.5c0.5,0.3,0.8,0.8,1.1,1.5
										c0.2,0.6,0.4,1.4,0.4,2.3c0,0.9-0.1,1.7-0.4,2.3c-0.2,0.6-0.6,1.1-1.1,1.5C27.9,285.6,27.3,285.8,26.7,285.8z M26.7,284.7
										c0.6,0,1-0.3,1.3-0.8c0.3-0.6,0.5-1.4,0.5-2.4c0-0.7-0.1-1.3-0.2-1.8c-0.1-0.5-0.4-0.8-0.6-1.1c-0.3-0.3-0.6-0.4-1-0.4
										c-0.6,0-1,0.3-1.3,0.8c-0.3,0.6-0.5,1.4-0.5,2.4c0,0.7,0.1,1.3,0.2,1.8c0.1,0.5,0.4,0.8,0.6,1.1
										C26,284.5,26.3,284.7,26.7,284.7z"/>
								</g>
							</g>
							<g>
								<g>
									<path class="st0" d="M9.5,245.5v-0.9l2.8-2.9c0.3-0.3,0.6-0.6,0.8-0.8c0.2-0.2,0.3-0.5,0.4-0.7s0.1-0.5,0.1-0.7
										c0-0.3-0.1-0.5-0.2-0.7c-0.1-0.2-0.3-0.4-0.5-0.5c-0.2-0.1-0.5-0.2-0.8-0.2c-0.3,0-0.6,0.1-0.8,0.2
										c-0.2,0.1-0.4,0.3-0.5,0.5c-0.1,0.2-0.2,0.5-0.2,0.8H9.5c0-0.5,0.1-1,0.4-1.3c0.2-0.4,0.6-0.7,1-0.9s0.9-0.3,1.4-0.3
										c0.5,0,1,0.1,1.4,0.3s0.7,0.5,0.9,0.9c0.2,0.4,0.3,0.8,0.3,1.2c0,0.3-0.1,0.6-0.2,0.9s-0.3,0.6-0.6,1
										c-0.3,0.4-0.7,0.8-1.2,1.3l-1.7,1.7v0.1H15v1.1H9.5z"/>
									<path class="st0" d="M19.3,245.6c-0.5,0-1-0.1-1.4-0.3c-0.4-0.2-0.7-0.5-1-0.8c-0.2-0.3-0.4-0.7-0.4-1.2h1.2
										c0,0.4,0.2,0.7,0.5,0.9c0.3,0.2,0.6,0.3,1,0.3c0.3,0,0.6-0.1,0.9-0.2c0.3-0.1,0.4-0.4,0.6-0.6c0.1-0.3,0.2-0.6,0.2-0.9
										c0-0.3-0.1-0.6-0.2-0.9c-0.1-0.3-0.4-0.5-0.6-0.6s-0.6-0.2-0.9-0.2c-0.3,0-0.5,0-0.8,0.1c-0.3,0.1-0.5,0.2-0.6,0.3
										l-1.2-0.2l0.5-4.2h4.6v1.1h-3.6l-0.3,2.4h0c0.2-0.2,0.4-0.3,0.7-0.4c0.3-0.1,0.6-0.2,0.9-0.2c0.5,0,1,0.1,1.4,0.4
										c0.4,0.2,0.7,0.6,0.9,1c0.2,0.4,0.3,0.9,0.3,1.4c0,0.5-0.1,1-0.4,1.5c-0.2,0.4-0.6,0.8-1,1
										C20.4,245.5,19.9,245.6,19.3,245.6z"/>
									<path class="st0" d="M26.7,245.6c-0.6,0-1.2-0.2-1.7-0.5c-0.5-0.3-0.8-0.8-1.1-1.5c-0.2-0.6-0.4-1.4-0.4-2.3
										c0-0.9,0.1-1.7,0.4-2.3c0.2-0.6,0.6-1.1,1.1-1.5c0.5-0.3,1-0.5,1.7-0.5s1.2,0.2,1.7,0.5c0.5,0.3,0.8,0.8,1.1,1.5
										c0.2,0.6,0.4,1.4,0.4,2.3c0,0.9-0.1,1.7-0.4,2.3c-0.2,0.6-0.6,1.1-1.1,1.5C27.9,245.5,27.3,245.6,26.7,245.6z M26.7,244.5
										c0.6,0,1-0.3,1.3-0.8c0.3-0.6,0.5-1.4,0.5-2.4c0-0.7-0.1-1.3-0.2-1.8c-0.1-0.5-0.4-0.8-0.6-1.1c-0.3-0.3-0.6-0.4-1-0.4
										c-0.6,0-1,0.3-1.3,0.8c-0.3,0.6-0.5,1.4-0.5,2.4c0,0.7,0.1,1.3,0.2,1.8c0.1,0.5,0.4,0.8,0.6,1.1
										C26,244.4,26.3,244.5,26.7,244.5z"/>
								</g>
							</g>
							<g>
								<g>
									<path class="st0" d="M11.8,205.5c-0.6,0-1.1-0.1-1.5-0.3c-0.4-0.2-0.8-0.5-1-0.8c-0.3-0.3-0.4-0.7-0.4-1.2h1.3
										c0,0.2,0.1,0.5,0.3,0.6c0.2,0.2,0.4,0.3,0.6,0.4s0.5,0.1,0.8,0.1c0.3,0,0.6-0.1,0.9-0.2c0.3-0.1,0.5-0.3,0.6-0.5
										c0.1-0.2,0.2-0.4,0.2-0.7c0-0.3-0.1-0.5-0.2-0.7s-0.4-0.4-0.6-0.5s-0.6-0.2-1-0.2h-0.7v-1h0.7c0.3,0,0.6-0.1,0.8-0.2
										c0.2-0.1,0.4-0.3,0.6-0.5c0.1-0.2,0.2-0.4,0.2-0.7c0-0.3-0.1-0.5-0.2-0.7c-0.1-0.2-0.3-0.3-0.5-0.5s-0.5-0.2-0.7-0.2
										c-0.3,0-0.5,0.1-0.8,0.2c-0.2,0.1-0.4,0.2-0.6,0.4c-0.1,0.2-0.2,0.4-0.2,0.7H9c0-0.5,0.1-0.9,0.4-1.2
										c0.3-0.3,0.6-0.6,1-0.8c0.4-0.2,0.9-0.3,1.4-0.3c0.5,0,1,0.1,1.4,0.3c0.4,0.2,0.7,0.5,0.9,0.8c0.2,0.3,0.3,0.7,0.3,1.1
										c0,0.5-0.1,0.9-0.4,1.2c-0.3,0.3-0.6,0.5-1.1,0.7v0.1c0.6,0.1,1,0.3,1.3,0.7s0.5,0.8,0.5,1.3c0,0.5-0.1,0.9-0.4,1.2
										s-0.6,0.7-1.1,0.9C12.8,205.4,12.3,205.5,11.8,205.5z"/>
									<path class="st0" d="M19.2,205.5c-0.6,0-1.2-0.2-1.7-0.5c-0.5-0.3-0.8-0.8-1.1-1.5c-0.2-0.6-0.4-1.4-0.4-2.3
										c0-0.9,0.1-1.7,0.4-2.3c0.2-0.6,0.6-1.1,1.1-1.5c0.5-0.3,1-0.5,1.7-0.5s1.2,0.2,1.7,0.5c0.5,0.3,0.8,0.8,1.1,1.5
										c0.2,0.6,0.4,1.4,0.4,2.3c0,0.9-0.1,1.7-0.4,2.3c-0.2,0.6-0.6,1.1-1.1,1.5C20.4,205.3,19.8,205.5,19.2,205.5z M19.2,204.4
										c0.6,0,1-0.3,1.3-0.8c0.3-0.6,0.5-1.4,0.5-2.4c0-0.7-0.1-1.3-0.2-1.8c-0.1-0.5-0.4-0.8-0.6-1.1c-0.3-0.3-0.6-0.4-1-0.4
										c-0.6,0-1,0.3-1.3,0.8c-0.3,0.6-0.5,1.4-0.5,2.4c0,0.7,0.1,1.3,0.2,1.8c0.1,0.5,0.4,0.8,0.6,1.1
										C18.5,204.3,18.8,204.4,19.2,204.4z"/>
									<path class="st0" d="M26.7,205.5c-0.6,0-1.2-0.2-1.7-0.5c-0.5-0.3-0.8-0.8-1.1-1.5c-0.2-0.6-0.4-1.4-0.4-2.3
										c0-0.9,0.1-1.7,0.4-2.3c0.2-0.6,0.6-1.1,1.1-1.5c0.5-0.3,1-0.5,1.7-0.5s1.2,0.2,1.7,0.5c0.5,0.3,0.8,0.8,1.1,1.5
										c0.2,0.6,0.4,1.4,0.4,2.3c0,0.9-0.1,1.7-0.4,2.3c-0.2,0.6-0.6,1.1-1.1,1.5C27.9,205.3,27.3,205.5,26.7,205.5z M26.7,204.4
										c0.6,0,1-0.3,1.3-0.8c0.3-0.6,0.5-1.4,0.5-2.4c0-0.7-0.1-1.3-0.2-1.8c-0.1-0.5-0.4-0.8-0.6-1.1c-0.3-0.3-0.6-0.4-1-0.4
										c-0.6,0-1,0.3-1.3,0.8c-0.3,0.6-0.5,1.4-0.5,2.4c0,0.7,0.1,1.3,0.2,1.8c0.1,0.5,0.4,0.8,0.6,1.1
										C26,204.3,26.3,204.4,26.7,204.4z"/>
								</g>
							</g>
							<g>
								<g>
									<path class="st0" d="M12.1,165.3c-0.6,0-1.1-0.1-1.5-0.3c-0.4-0.2-0.8-0.5-1-0.8c-0.3-0.3-0.4-0.7-0.4-1.2h1.3
										c0,0.2,0.1,0.5,0.3,0.6c0.2,0.2,0.4,0.3,0.6,0.4s0.5,0.1,0.8,0.1c0.3,0,0.6-0.1,0.9-0.2c0.3-0.1,0.5-0.3,0.6-0.5
										c0.1-0.2,0.2-0.4,0.2-0.7c0-0.3-0.1-0.5-0.2-0.7s-0.4-0.4-0.6-0.5s-0.6-0.2-1-0.2h-0.7v-1h0.7c0.3,0,0.6-0.1,0.8-0.2
										c0.2-0.1,0.4-0.3,0.6-0.5c0.1-0.2,0.2-0.4,0.2-0.7c0-0.3-0.1-0.5-0.2-0.7c-0.1-0.2-0.3-0.3-0.5-0.5s-0.5-0.2-0.7-0.2
										c-0.3,0-0.5,0.1-0.8,0.2c-0.2,0.1-0.4,0.2-0.6,0.4c-0.1,0.2-0.2,0.4-0.2,0.7H9.3c0-0.5,0.1-0.9,0.4-1.2
										c0.3-0.3,0.6-0.6,1-0.8c0.4-0.2,0.9-0.3,1.4-0.3c0.5,0,1,0.1,1.4,0.3c0.4,0.2,0.7,0.5,0.9,0.8c0.2,0.3,0.3,0.7,0.3,1.1
										c0,0.5-0.1,0.9-0.4,1.2c-0.3,0.3-0.6,0.5-1.1,0.7v0.1c0.6,0.1,1,0.3,1.3,0.7s0.5,0.8,0.5,1.3c0,0.5-0.1,0.9-0.4,1.2
										s-0.6,0.7-1.1,0.9C13.1,165.2,12.6,165.3,12.1,165.3z"/>
									<path class="st0" d="M19.3,165.3c-0.5,0-1-0.1-1.4-0.3c-0.4-0.2-0.7-0.5-1-0.8c-0.2-0.3-0.4-0.7-0.4-1.2h1.2
										c0,0.4,0.2,0.7,0.5,0.9c0.3,0.2,0.6,0.3,1,0.3c0.3,0,0.6-0.1,0.9-0.2c0.3-0.1,0.4-0.4,0.6-0.6c0.1-0.3,0.2-0.6,0.2-0.9
										c0-0.3-0.1-0.6-0.2-0.9c-0.1-0.3-0.4-0.5-0.6-0.6s-0.6-0.2-0.9-0.2c-0.3,0-0.5,0-0.8,0.1c-0.3,0.1-0.5,0.2-0.6,0.3
										l-1.2-0.2l0.5-4.2h4.6v1.1h-3.6l-0.3,2.4h0c0.2-0.2,0.4-0.3,0.7-0.4c0.3-0.1,0.6-0.2,0.9-0.2c0.5,0,1,0.1,1.4,0.4
										c0.4,0.2,0.7,0.6,0.9,1c0.2,0.4,0.3,0.9,0.3,1.4c0,0.5-0.1,1-0.4,1.5c-0.2,0.4-0.6,0.8-1,1
										C20.4,165.2,19.9,165.3,19.3,165.3z"/>
									<path class="st0" d="M26.7,165.4c-0.6,0-1.2-0.2-1.7-0.5c-0.5-0.3-0.8-0.8-1.1-1.5c-0.2-0.6-0.4-1.4-0.4-2.3
										c0-0.9,0.1-1.7,0.4-2.3c0.2-0.6,0.6-1.1,1.1-1.5c0.5-0.3,1-0.5,1.7-0.5s1.2,0.2,1.7,0.5c0.5,0.3,0.8,0.8,1.1,1.5
										c0.2,0.6,0.4,1.4,0.4,2.3c0,0.9-0.1,1.7-0.4,2.3c-0.2,0.6-0.6,1.1-1.1,1.5C27.9,165.2,27.3,165.4,26.7,165.4z M26.7,164.3
										c0.6,0,1-0.3,1.3-0.8c0.3-0.6,0.5-1.4,0.5-2.4c0-0.7-0.1-1.3-0.2-1.8c-0.1-0.5-0.4-0.8-0.6-1.1c-0.3-0.3-0.6-0.4-1-0.4
										c-0.6,0-1,0.3-1.3,0.8c-0.3,0.6-0.5,1.4-0.5,2.4c0,0.7,0.1,1.3,0.2,1.8c0.1,0.5,0.4,0.8,0.6,1.1
										C26,164.2,26.3,164.3,26.7,164.3z"/>
								</g>
							</g>
							<g>
								<g>
									<path class="st0" d="M8.5,123.5v-1l3.6-5.7H13v1.5h-0.5l-2.6,4.1v0.1h5v1.1H8.5z M12.5,125.1v-2l0-0.5v-6h1.2v8.4H12.5z"/>
									<path class="st0" d="M19.2,125.2c-0.6,0-1.2-0.2-1.7-0.5c-0.5-0.3-0.8-0.8-1.1-1.5c-0.2-0.6-0.4-1.4-0.4-2.3
										c0-0.9,0.1-1.7,0.4-2.3c0.2-0.6,0.6-1.1,1.1-1.5c0.5-0.3,1-0.5,1.7-0.5s1.2,0.2,1.7,0.5c0.5,0.3,0.8,0.8,1.1,1.5
										c0.2,0.6,0.4,1.4,0.4,2.3c0,0.9-0.1,1.7-0.4,2.3c-0.2,0.6-0.6,1.1-1.1,1.5C20.4,125.1,19.8,125.2,19.2,125.2z M19.2,124.1
										c0.6,0,1-0.3,1.3-0.8c0.3-0.6,0.5-1.4,0.5-2.4c0-0.7-0.1-1.3-0.2-1.8c-0.1-0.5-0.4-0.8-0.6-1.1c-0.3-0.3-0.6-0.4-1-0.4
										c-0.6,0-1,0.3-1.3,0.8c-0.3,0.6-0.5,1.4-0.5,2.4c0,0.7,0.1,1.3,0.2,1.8c0.1,0.5,0.4,0.8,0.6,1.1
										C18.5,124,18.8,124.1,19.2,124.1z"/>
									<path class="st0" d="M26.7,125.2c-0.6,0-1.2-0.2-1.7-0.5c-0.5-0.3-0.8-0.8-1.1-1.5c-0.2-0.6-0.4-1.4-0.4-2.3
										c0-0.9,0.1-1.7,0.4-2.3c0.2-0.6,0.6-1.1,1.1-1.5c0.5-0.3,1-0.5,1.7-0.5s1.2,0.2,1.7,0.5c0.5,0.3,0.8,0.8,1.1,1.5
										c0.2,0.6,0.4,1.4,0.4,2.3c0,0.9-0.1,1.7-0.4,2.3c-0.2,0.6-0.6,1.1-1.1,1.5C27.9,125.1,27.3,125.2,26.7,125.2z M26.7,124.1
										c0.6,0,1-0.3,1.3-0.8c0.3-0.6,0.5-1.4,0.5-2.4c0-0.7-0.1-1.3-0.2-1.8c-0.1-0.5-0.4-0.8-0.6-1.1c-0.3-0.3-0.6-0.4-1-0.4
										c-0.6,0-1,0.3-1.3,0.8c-0.3,0.6-0.5,1.4-0.5,2.4c0,0.7,0.1,1.3,0.2,1.8c0.1,0.5,0.4,0.8,0.6,1.1
										C26,124,26.3,124.1,26.7,124.1z"/>
								</g>
							</g>
							<g>
								<g>
									<path class="st0" d="M8.8,83.3v-1l3.6-5.7h0.8v1.5h-0.5l-2.6,4.1v0.1h5v1.1H8.8z M12.8,85v-2l0-0.5v-6H14V85H12.8z"/>
									<path class="st0" d="M19.3,85.1c-0.5,0-1-0.1-1.4-0.3c-0.4-0.2-0.7-0.5-1-0.8c-0.2-0.3-0.4-0.7-0.4-1.2h1.2
										c0,0.4,0.2,0.7,0.5,0.9c0.3,0.2,0.6,0.3,1,0.3c0.3,0,0.6-0.1,0.9-0.2c0.3-0.1,0.4-0.4,0.6-0.6c0.1-0.3,0.2-0.6,0.2-0.9
										c0-0.3-0.1-0.6-0.2-0.9c-0.1-0.3-0.4-0.5-0.6-0.6s-0.6-0.2-0.9-0.2c-0.3,0-0.5,0-0.8,0.1c-0.3,0.1-0.5,0.2-0.6,0.3
										l-1.2-0.2l0.5-4.2h4.6v1.1h-3.6L18,80h0c0.2-0.2,0.4-0.3,0.7-0.4c0.3-0.1,0.6-0.2,0.9-0.2c0.5,0,1,0.1,1.4,0.4
										c0.4,0.2,0.7,0.6,0.9,1c0.2,0.4,0.3,0.9,0.3,1.4c0,0.5-0.1,1-0.4,1.5c-0.2,0.4-0.6,0.8-1,1C20.4,85,19.9,85.1,19.3,85.1z"
										/>
									<path class="st0" d="M26.7,85.1c-0.6,0-1.2-0.2-1.7-0.5c-0.5-0.3-0.8-0.8-1.1-1.5c-0.2-0.6-0.4-1.4-0.4-2.3
										c0-0.9,0.1-1.7,0.4-2.3c0.2-0.6,0.6-1.1,1.1-1.5c0.5-0.3,1-0.5,1.7-0.5s1.2,0.2,1.7,0.5c0.5,0.3,0.8,0.8,1.1,1.5
										c0.2,0.6,0.4,1.4,0.4,2.3c0,0.9-0.1,1.7-0.4,2.3c-0.2,0.6-0.6,1.1-1.1,1.5C27.9,84.9,27.3,85.1,26.7,85.1z M26.7,84
										c0.6,0,1-0.3,1.3-0.8c0.3-0.6,0.5-1.4,0.5-2.4c0-0.7-0.1-1.3-0.2-1.8c-0.1-0.5-0.4-0.8-0.6-1.1c-0.3-0.3-0.6-0.4-1-0.4
										c-0.6,0-1,0.3-1.3,0.8c-0.3,0.6-0.5,1.4-0.5,2.4c0,0.7,0.1,1.3,0.2,1.8c0.1,0.5,0.4,0.8,0.6,1.1C26,83.9,26.3,84,26.7,84z"
										/>
								</g>
							</g>
							<g>
								<g>
									<path class="st0" d="M11.9,45c-0.5,0-1-0.1-1.4-0.3c-0.4-0.2-0.7-0.5-1-0.8c-0.2-0.3-0.4-0.7-0.4-1.2h1.2
										c0,0.4,0.2,0.7,0.5,0.9c0.3,0.2,0.6,0.3,1,0.3c0.3,0,0.6-0.1,0.9-0.2c0.3-0.1,0.4-0.4,0.6-0.6c0.1-0.3,0.2-0.6,0.2-0.9
										c0-0.3-0.1-0.6-0.2-0.9c-0.1-0.3-0.4-0.5-0.6-0.6c-0.3-0.2-0.6-0.2-0.9-0.2c-0.3,0-0.5,0-0.8,0.1c-0.3,0.1-0.5,0.2-0.6,0.3
										l-1.2-0.2l0.5-4.2h4.6v1.1h-3.6l-0.3,2.4h0c0.2-0.2,0.4-0.3,0.7-0.4c0.3-0.1,0.6-0.2,0.9-0.2c0.5,0,1,0.1,1.4,0.4
										c0.4,0.2,0.7,0.6,0.9,1c0.2,0.4,0.3,0.9,0.3,1.4c0,0.5-0.1,1-0.4,1.5s-0.6,0.8-1,1C12.9,44.8,12.4,45,11.9,45z"/>
									<path class="st0" d="M19.2,45c-0.6,0-1.2-0.2-1.7-0.5c-0.5-0.3-0.8-0.8-1.1-1.5c-0.2-0.6-0.4-1.4-0.4-2.3
										c0-0.9,0.1-1.7,0.4-2.3c0.2-0.6,0.6-1.1,1.1-1.5c0.5-0.3,1-0.5,1.7-0.5s1.2,0.2,1.7,0.5c0.5,0.3,0.8,0.8,1.1,1.5
										s0.4,1.4,0.4,2.3c0,0.9-0.1,1.7-0.4,2.3c-0.2,0.6-0.6,1.1-1.1,1.5C20.4,44.8,19.8,45,19.2,45z M19.2,43.9
										c0.6,0,1-0.3,1.3-0.8c0.3-0.6,0.5-1.4,0.5-2.4c0-0.7-0.1-1.3-0.2-1.8c-0.1-0.5-0.4-0.8-0.6-1.1c-0.3-0.2-0.6-0.4-1-0.4
										c-0.6,0-1,0.3-1.3,0.8c-0.3,0.6-0.5,1.4-0.5,2.4c0,0.7,0.1,1.3,0.2,1.8c0.1,0.5,0.4,0.8,0.6,1.1
										C18.5,43.8,18.8,43.9,19.2,43.9z"/>
									<path class="st0" d="M26.7,45c-0.6,0-1.2-0.2-1.7-0.5c-0.5-0.3-0.8-0.8-1.1-1.5c-0.2-0.6-0.4-1.4-0.4-2.3
										c0-0.9,0.1-1.7,0.4-2.3c0.2-0.6,0.6-1.1,1.1-1.5c0.5-0.3,1-0.5,1.7-0.5s1.2,0.2,1.7,0.5c0.5,0.3,0.8,0.8,1.1,1.5
										s0.4,1.4,0.4,2.3c0,0.9-0.1,1.7-0.4,2.3c-0.2,0.6-0.6,1.1-1.1,1.5C27.9,44.8,27.3,45,26.7,45z M26.7,43.9
										c0.6,0,1-0.3,1.3-0.8c0.3-0.6,0.5-1.4,0.5-2.4c0-0.7-0.1-1.3-0.2-1.8c-0.1-0.5-0.4-0.8-0.6-1.1c-0.3-0.2-0.6-0.4-1-0.4
										c-0.6,0-1,0.3-1.3,0.8c-0.3,0.6-0.5,1.4-0.5,2.4c0,0.7,0.1,1.3,0.2,1.8c0.1,0.5,0.4,0.8,0.6,1.1
										C26,43.8,26.3,43.9,26.7,43.9z"/>
								</g>
							</g>
						</g>
						<line class="st1" x1="38.6" y1="446.1" x2="1048.2" y2="446.1"/>
					</g>
				</g>
			</g>
			<g>
				<g>
					<g>
						<line class="st2" x1="129.3" y1="27.7" x2="129.3" y2="28.3"/>
						<line class="st3" x1="129.3" y1="29.5" x2="129.3" y2="440.7"/>
						<line class="st2" x1="129.3" y1="441.3" x2="129.3" y2="441.9"/>
					</g>
				</g>
				<g>
					<g>
						<line class="st2" x1="198.9" y1="27.7" x2="198.9" y2="28.3"/>
						<line class="st3" x1="198.9" y1="29.5" x2="198.9" y2="440.7"/>
						<line class="st2" x1="198.9" y1="441.3" x2="198.9" y2="441.9"/>
					</g>
				</g>
				<g>
					<g>
						<line class="st2" x1="825.9" y1="27.7" x2="825.9" y2="28.3"/>
						<line class="st3" x1="825.9" y1="29.5" x2="825.9" y2="440.7"/>
						<line class="st2" x1="825.9" y1="441.3" x2="825.9" y2="441.9"/>
					</g>
				</g>
				<g>
					<g>
						<line class="st2" x1="895.6" y1="27.7" x2="895.6" y2="28.3"/>
						<line class="st3" x1="895.6" y1="29.5" x2="895.6" y2="440.7"/>
						<line class="st2" x1="895.6" y1="441.3" x2="895.6" y2="441.9"/>
					</g>
				</g>
				<g>
					<g>
						<line class="st2" x1="965.3" y1="27.7" x2="965.3" y2="28.3"/>
						<line class="st3" x1="965.3" y1="29.5" x2="965.3" y2="440.7"/>
						<line class="st2" x1="965.3" y1="441.3" x2="965.3" y2="441.9"/>
					</g>
				</g>
				<g>
					<g>
						<line class="st2" x1="268.6" y1="27.7" x2="268.6" y2="28.3"/>
						<line class="st3" x1="268.6" y1="29.5" x2="268.6" y2="440.7"/>
						<line class="st2" x1="268.6" y1="441.3" x2="268.6" y2="441.9"/>
					</g>
				</g>
				<g>
					<g>
						<line class="st2" x1="338.3" y1="27.7" x2="338.3" y2="28.3"/>
						<line class="st3" x1="338.3" y1="29.5" x2="338.3" y2="440.7"/>
						<line class="st2" x1="338.3" y1="441.3" x2="338.3" y2="441.9"/>
					</g>
				</g>
				<g>
					<g>
						<line class="st2" x1="407.9" y1="27.7" x2="407.9" y2="28.3"/>
						<line class="st3" x1="407.9" y1="29.5" x2="407.9" y2="440.7"/>
						<line class="st2" x1="407.9" y1="441.3" x2="407.9" y2="441.9"/>
					</g>
				</g>
				<g>
					<g>
						<line class="st2" x1="547.3" y1="27.7" x2="547.3" y2="28.3"/>
						<line class="st3" x1="547.3" y1="29.5" x2="547.3" y2="440.7"/>
						<line class="st2" x1="547.3" y1="441.3" x2="547.3" y2="441.9"/>
					</g>
				</g>
				<g>
					<g>
						<line class="st2" x1="616.9" y1="27.7" x2="616.9" y2="28.3"/>
						<line class="st3" x1="616.9" y1="29.5" x2="616.9" y2="440.7"/>
						<line class="st2" x1="616.9" y1="441.3" x2="616.9" y2="441.9"/>
					</g>
				</g>
				<g>
					<g>
						<line class="st2" x1="686.6" y1="27.7" x2="686.6" y2="28.3"/>
						<line class="st3" x1="686.6" y1="29.5" x2="686.6" y2="440.7"/>
						<line class="st2" x1="686.6" y1="441.3" x2="686.6" y2="441.9"/>
					</g>
				</g>
				<g>
					<g>
						<line class="st2" x1="756.3" y1="27.7" x2="756.3" y2="28.3"/>
						<line class="st3" x1="756.3" y1="29.5" x2="756.3" y2="440.7"/>
						<line class="st2" x1="756.3" y1="441.3" x2="756.3" y2="441.9"/>
					</g>
				</g>
				<g>
					<g>
						<line class="st2" x1="477.6" y1="27.7" x2="477.6" y2="28.3"/>
						<line class="st3" x1="477.6" y1="29.5" x2="477.6" y2="440.7"/>
						<line class="st2" x1="477.6" y1="441.3" x2="477.6" y2="441.9"/>
					</g>
				</g>
			</g>
			<g>
				<g>
					<g>
						<g>
							<rect x="1033.1" y="363.4" class="st0" width="18.1" height="0.5"/>
						</g>
						<g>
							<rect x="1033.1" y="388.4" class="st0" width="10.3" height="0.5"/>
						</g>
						<g>
							<rect x="1033.1" y="397.4" class="st0" width="10.3" height="0.5"/>
						</g>
						<g>
							<rect x="1033.1" y="379.5" class="st0" width="10.3" height="0.5"/>
						</g>
						<g>
							<rect x="1033.1" y="370.5" class="st0" width="10.3" height="0.5"/>
						</g>
						<g>
							<rect x="1033.1" y="404.5" class="st0" width="18.1" height="0.5"/>
						</g>
						<g>
							<rect x="1033.1" y="429.6" class="st0" width="10.3" height="0.5"/>
						</g>
						<g>
							<rect x="1033.1" y="438.5" class="st0" width="10.3" height="0.5"/>
						</g>
						<g>
							<rect x="1033.1" y="420.6" class="st0" width="10.3" height="0.5"/>
						</g>
						<g>
							<rect x="1033.1" y="411.7" class="st0" width="10.3" height="0.5"/>
						</g>
						<g>
							<rect x="1033.1" y="322.2" class="st0" width="18.1" height="0.5"/>
						</g>
						<g>
							<rect x="1033.1" y="347.2" class="st0" width="10.3" height="0.5"/>
						</g>
						<g>
							<rect x="1033.1" y="356.2" class="st0" width="10.3" height="0.5"/>
						</g>
						<g>
							<rect x="1033.1" y="338.3" class="st0" width="10.3" height="0.5"/>
						</g>
						<g>
							<rect x="1033.1" y="329.3" class="st0" width="10.3" height="0.5"/>
						</g>
						<g>
							<rect x="1033.1" y="281" class="st0" width="18.1" height="0.5"/>
						</g>
						<g>
							<rect x="1033.1" y="306.1" class="st0" width="10.3" height="0.5"/>
						</g>
						<g>
							<rect x="1033.1" y="315" class="st0" width="10.3" height="0.5"/>
						</g>
						<g>
							<rect x="1033.1" y="297.1" class="st0" width="10.3" height="0.5"/>
						</g>
						<g>
							<rect x="1033.1" y="288.2" class="st0" width="10.3" height="0.5"/>
						</g>
						<g>
							<rect x="1033.1" y="239.8" class="st0" width="18.1" height="0.5"/>
						</g>
						<g>
							<rect x="1033.1" y="264.9" class="st0" width="10.3" height="0.5"/>
						</g>
						<g>
							<rect x="1033.1" y="273.9" class="st0" width="10.3" height="0.5"/>
						</g>
						<g>
							<rect x="1033.1" y="256" class="st0" width="10.3" height="0.5"/>
						</g>
						<g>
							<rect x="1033.1" y="247" class="st0" width="10.3" height="0.5"/>
						</g>
						<g>
							<rect x="1033.1" y="198.7" class="st0" width="18.1" height="0.5"/>
						</g>
						<g>
							<rect x="1033.1" y="223.7" class="st0" width="10.3" height="0.5"/>
						</g>
						<g>
							<rect x="1033.1" y="232.7" class="st0" width="10.3" height="0.5"/>
						</g>
						<g>
							<rect x="1033.1" y="214.8" class="st0" width="10.3" height="0.5"/>
						</g>
						<g>
							<rect x="1033.1" y="205.8" class="st0" width="10.3" height="0.5"/>
						</g>
					</g>
					<g>
						<g>
							<rect x="1033.1" y="164" class="st0" width="18.1" height="0.5"/>
						</g>
						<g>
							<rect x="1033.1" y="189" class="st0" width="10.3" height="0.5"/>
						</g>
						<g>
							<rect x="1033.1" y="180.1" class="st0" width="10.3" height="0.5"/>
						</g>
						<g>
							<rect x="1033.1" y="171.1" class="st0" width="10.3" height="0.5"/>
						</g>
						<g>
							<rect x="1033.1" y="122.8" class="st0" width="18.1" height="0.5"/>
						</g>
						<g>
							<rect x="1033.1" y="147.9" class="st0" width="10.3" height="0.5"/>
						</g>
						<g>
							<rect x="1033.1" y="156.8" class="st0" width="10.3" height="0.5"/>
						</g>
						<g>
							<rect x="1033.1" y="138.9" class="st0" width="10.3" height="0.5"/>
						</g>
						<g>
							<rect x="1033.1" y="130" class="st0" width="10.3" height="0.5"/>
						</g>
						<g>
							<rect x="1033.1" y="81.6" class="st0" width="18.1" height="0.5"/>
						</g>
						<g>
							<rect x="1033.1" y="106.7" class="st0" width="10.3" height="0.5"/>
						</g>
						<g>
							<rect x="1033.1" y="115.7" class="st0" width="10.3" height="0.5"/>
						</g>
						<g>
							<rect x="1033.1" y="97.8" class="st0" width="10.3" height="0.5"/>
						</g>
						<g>
							<rect x="1033.1" y="88.8" class="st0" width="10.3" height="0.5"/>
						</g>
						<g>
							<rect x="1033.1" y="40.5" class="st0" width="18.1" height="0.5"/>
						</g>
						<g>
							<rect x="1033.1" y="65.5" class="st0" width="10.3" height="0.5"/>
						</g>
						<g>
							<rect x="1033.1" y="74.5" class="st0" width="10.3" height="0.5"/>
						</g>
						<g>
							<rect x="1033.1" y="56.6" class="st0" width="10.3" height="0.5"/>
						</g>
						<g>
							<rect x="1033.1" y="47.6" class="st0" width="10.3" height="0.5"/>
						</g>
					</g>
				</g>
				<g>
					<g>
						<g>
							<path class="st0" d="M1059.9,446.3c-0.6,0-1.2-0.2-1.7-0.5c-0.5-0.3-0.8-0.8-1.1-1.5c-0.2-0.6-0.4-1.4-0.4-2.3
								c0-0.9,0.1-1.7,0.4-2.3s0.6-1.1,1.1-1.5c0.5-0.3,1-0.5,1.7-0.5s1.2,0.2,1.7,0.5c0.5,0.3,0.8,0.8,1.1,1.5
								c0.2,0.6,0.4,1.4,0.4,2.3c0,0.9-0.1,1.7-0.4,2.3c-0.2,0.6-0.6,1.1-1.1,1.5C1061.1,446.1,1060.5,446.3,1059.9,446.3z
								 M1059.9,445.2c0.6,0,1-0.3,1.3-0.8c0.3-0.6,0.5-1.4,0.5-2.4c0-0.7-0.1-1.3-0.2-1.8c-0.1-0.5-0.4-0.8-0.6-1.1
								c-0.3-0.3-0.6-0.4-1-0.4c-0.6,0-1,0.3-1.3,0.8c-0.3,0.6-0.5,1.4-0.5,2.4c0,0.7,0.1,1.3,0.2,1.8c0.1,0.5,0.4,0.8,0.6,1.1
								C1059.2,445.1,1059.5,445.2,1059.9,445.2z"/>
						</g>
					</g>
				</g>
				<g>
					<g>
						<g>
							<path class="st0" d="M1059.7,406.1c-0.5,0-1-0.1-1.4-0.3c-0.4-0.2-0.7-0.5-1-0.8s-0.4-0.7-0.4-1.2h1.2c0,0.4,0.2,0.7,0.5,0.9
								c0.3,0.2,0.6,0.3,1,0.3c0.3,0,0.6-0.1,0.9-0.2c0.3-0.1,0.4-0.4,0.6-0.6c0.1-0.3,0.2-0.6,0.2-0.9c0-0.3-0.1-0.6-0.2-0.9
								c-0.1-0.3-0.4-0.5-0.6-0.6c-0.3-0.2-0.6-0.2-0.9-0.2c-0.3,0-0.5,0-0.8,0.1c-0.3,0.1-0.5,0.2-0.6,0.3l-1.2-0.2l0.5-4.2h4.6
								v1.1h-3.6l-0.3,2.4h0c0.2-0.2,0.4-0.3,0.7-0.4s0.6-0.2,0.9-0.2c0.5,0,1,0.1,1.4,0.4c0.4,0.2,0.7,0.6,0.9,1
								c0.2,0.4,0.3,0.9,0.3,1.4c0,0.5-0.1,1-0.4,1.5c-0.2,0.4-0.6,0.8-1,1C1060.8,406,1060.3,406.1,1059.7,406.1z"/>
							<path class="st0" d="M1067,406.2c-0.6,0-1.2-0.2-1.7-0.5c-0.5-0.3-0.8-0.8-1.1-1.5c-0.2-0.6-0.4-1.4-0.4-2.3
								c0-0.9,0.1-1.7,0.4-2.3s0.6-1.1,1.1-1.5c0.5-0.3,1-0.5,1.7-0.5s1.2,0.2,1.7,0.5c0.5,0.3,0.8,0.8,1.1,1.5
								c0.2,0.6,0.4,1.4,0.4,2.3c0,0.9-0.1,1.7-0.4,2.3c-0.2,0.6-0.6,1.1-1.1,1.5C1068.2,406,1067.7,406.2,1067,406.2z M1067,405.1
								c0.6,0,1-0.3,1.3-0.8c0.3-0.6,0.5-1.4,0.5-2.4c0-0.7-0.1-1.3-0.2-1.8c-0.1-0.5-0.4-0.8-0.6-1.1c-0.3-0.3-0.6-0.4-1-0.4
								c-0.6,0-1,0.3-1.3,0.8c-0.3,0.6-0.5,1.4-0.5,2.4c0,0.7,0.1,1.3,0.2,1.8c0.1,0.5,0.4,0.8,0.6,1.1
								C1066.3,404.9,1066.7,405.1,1067,405.1z"/>
						</g>
					</g>
				</g>
				<g>
					<g>
						<path class="st0" d="M1060.1,357.5v8.4h-1.3v-7.1h0l-2,1.3v-1.2l2.1-1.4H1060.1z"/>
						<path class="st0" d="M1065.3,366c-0.6,0-1.2-0.2-1.7-0.5c-0.5-0.3-0.8-0.8-1.1-1.5c-0.2-0.6-0.4-1.4-0.4-2.3
							c0-0.9,0.1-1.7,0.4-2.3s0.6-1.1,1.1-1.5c0.5-0.3,1-0.5,1.7-0.5s1.2,0.2,1.7,0.5c0.5,0.3,0.8,0.8,1.1,1.5
							c0.2,0.6,0.4,1.4,0.4,2.3c0,0.9-0.1,1.7-0.4,2.3c-0.2,0.6-0.6,1.1-1.1,1.5C1066.5,365.9,1066,366,1065.3,366z M1065.3,364.9
							c0.6,0,1-0.3,1.3-0.8c0.3-0.6,0.5-1.4,0.5-2.4c0-0.7-0.1-1.3-0.2-1.8c-0.1-0.5-0.4-0.8-0.6-1.1c-0.3-0.3-0.6-0.4-1-0.4
							c-0.6,0-1,0.3-1.3,0.8c-0.3,0.6-0.5,1.4-0.5,2.4c0,0.7,0.1,1.3,0.2,1.8c0.1,0.5,0.4,0.8,0.6,1.1
							C1064.6,364.8,1065,364.9,1065.3,364.9z"/>
						<path class="st0" d="M1072.8,366c-0.6,0-1.2-0.2-1.7-0.5c-0.5-0.3-0.8-0.8-1.1-1.5c-0.2-0.6-0.4-1.4-0.4-2.3
							c0-0.9,0.1-1.7,0.4-2.3s0.6-1.1,1.1-1.5c0.5-0.3,1-0.5,1.7-0.5s1.2,0.2,1.7,0.5c0.5,0.3,0.8,0.8,1.1,1.5
							c0.2,0.6,0.4,1.4,0.4,2.3c0,0.9-0.1,1.7-0.4,2.3c-0.2,0.6-0.6,1.1-1.1,1.5C1074,365.9,1073.4,366,1072.8,366z M1072.8,364.9
							c0.6,0,1-0.3,1.3-0.8c0.3-0.6,0.5-1.4,0.5-2.4c0-0.7-0.1-1.3-0.2-1.8c-0.1-0.5-0.4-0.8-0.6-1.1c-0.3-0.3-0.6-0.4-1-0.4
							c-0.6,0-1,0.3-1.3,0.8c-0.3,0.6-0.5,1.4-0.5,2.4c0,0.7,0.1,1.3,0.2,1.8c0.1,0.5,0.4,0.8,0.6,1.1
							C1072.1,364.8,1072.4,364.9,1072.8,364.9z"/>
					</g>
				</g>
				<g>
					<g>
						<path class="st0" d="M1060.1,317.4v8.4h-1.3v-7.1h0l-2,1.3v-1.2l2.1-1.4H1060.1z"/>
						<path class="st0" d="M1065.2,325.9c-0.5,0-1-0.1-1.4-0.3c-0.4-0.2-0.7-0.5-1-0.8s-0.4-0.7-0.4-1.2h1.2c0,0.4,0.2,0.7,0.5,0.9
							c0.3,0.2,0.6,0.3,1,0.3c0.3,0,0.6-0.1,0.9-0.2c0.3-0.1,0.4-0.4,0.6-0.6c0.1-0.3,0.2-0.6,0.2-0.9c0-0.3-0.1-0.6-0.2-0.9
							c-0.1-0.3-0.4-0.5-0.6-0.6c-0.3-0.2-0.6-0.2-0.9-0.2c-0.3,0-0.5,0-0.8,0.1c-0.3,0.1-0.5,0.2-0.6,0.3l-1.2-0.2l0.5-4.2h4.6v1.1
							h-3.6l-0.3,2.4h0c0.2-0.2,0.4-0.3,0.7-0.4s0.6-0.2,0.9-0.2c0.5,0,1,0.1,1.4,0.4c0.4,0.2,0.7,0.6,0.9,1
							c0.2,0.4,0.3,0.9,0.3,1.4c0,0.5-0.1,1-0.4,1.5c-0.2,0.4-0.6,0.8-1,1C1066.2,325.7,1065.7,325.9,1065.2,325.9z"/>
						<path class="st0" d="M1072.5,325.9c-0.6,0-1.2-0.2-1.7-0.5c-0.5-0.3-0.8-0.8-1.1-1.5c-0.2-0.6-0.4-1.4-0.4-2.3
							c0-0.9,0.1-1.7,0.4-2.3s0.6-1.1,1.1-1.5c0.5-0.3,1-0.5,1.7-0.5s1.2,0.2,1.7,0.5c0.5,0.3,0.8,0.8,1.1,1.5
							c0.2,0.6,0.4,1.4,0.4,2.3c0,0.9-0.1,1.7-0.4,2.3c-0.2,0.6-0.6,1.1-1.1,1.5C1073.7,325.7,1073.1,325.9,1072.5,325.9z
							 M1072.5,324.8c0.6,0,1-0.3,1.3-0.8c0.3-0.6,0.5-1.4,0.5-2.4c0-0.7-0.1-1.3-0.2-1.8c-0.1-0.5-0.4-0.8-0.6-1.1
							c-0.3-0.3-0.6-0.4-1-0.4c-0.6,0-1,0.3-1.3,0.8c-0.3,0.6-0.5,1.4-0.5,2.4c0,0.7,0.1,1.3,0.2,1.8c0.1,0.5,0.4,0.8,0.6,1.1
							C1071.8,324.7,1072.1,324.8,1072.5,324.8z"/>
					</g>
				</g>
				<g>
					<g>
						<path class="st0" d="M1056.9,285.6v-0.9l2.8-2.9c0.3-0.3,0.6-0.6,0.8-0.8c0.2-0.2,0.3-0.5,0.4-0.7s0.1-0.5,0.1-0.7
							c0-0.3-0.1-0.5-0.2-0.7c-0.1-0.2-0.3-0.4-0.5-0.5c-0.2-0.1-0.5-0.2-0.8-0.2c-0.3,0-0.6,0.1-0.8,0.2c-0.2,0.1-0.4,0.3-0.5,0.5
							c-0.1,0.2-0.2,0.5-0.2,0.8h-1.2c0-0.5,0.1-1,0.4-1.3c0.2-0.4,0.6-0.7,1-0.9s0.9-0.3,1.4-0.3c0.5,0,1,0.1,1.4,0.3
							s0.7,0.5,0.9,0.9c0.2,0.4,0.3,0.8,0.3,1.2c0,0.3-0.1,0.6-0.2,0.9s-0.3,0.6-0.6,1c-0.3,0.4-0.7,0.8-1.2,1.3l-1.7,1.7v0.1h3.8
							v1.1H1056.9z"/>
						<path class="st0" d="M1067,285.8c-0.6,0-1.2-0.2-1.7-0.5s-0.8-0.8-1.1-1.5c-0.2-0.6-0.4-1.4-0.4-2.3c0-0.9,0.1-1.7,0.4-2.3
							c0.2-0.6,0.6-1.1,1.1-1.5c0.5-0.3,1-0.5,1.7-0.5s1.2,0.2,1.7,0.5c0.5,0.3,0.8,0.8,1.1,1.5c0.2,0.6,0.4,1.4,0.4,2.3
							c0,0.9-0.1,1.7-0.4,2.3c-0.2,0.6-0.6,1.1-1.1,1.5C1068.2,285.6,1067.6,285.8,1067,285.8z M1067,284.7c0.6,0,1-0.3,1.3-0.8
							c0.3-0.6,0.5-1.4,0.5-2.4c0-0.7-0.1-1.3-0.2-1.8c-0.1-0.5-0.4-0.8-0.6-1.1c-0.3-0.3-0.6-0.4-1-0.4c-0.6,0-1,0.3-1.3,0.8
							s-0.5,1.4-0.5,2.4c0,0.7,0.1,1.3,0.2,1.8c0.1,0.5,0.4,0.8,0.6,1.1C1066.2,284.5,1066.6,284.7,1067,284.7z"/>
						<path class="st0" d="M1074.4,285.8c-0.6,0-1.2-0.2-1.7-0.5c-0.5-0.3-0.8-0.8-1.1-1.5c-0.2-0.6-0.4-1.4-0.4-2.3
							c0-0.9,0.1-1.7,0.4-2.3s0.6-1.1,1.1-1.5c0.5-0.3,1-0.5,1.7-0.5s1.2,0.2,1.7,0.5c0.5,0.3,0.8,0.8,1.1,1.5
							c0.2,0.6,0.4,1.4,0.4,2.3c0,0.9-0.1,1.7-0.4,2.3c-0.2,0.6-0.6,1.1-1.1,1.5C1075.6,285.6,1075.1,285.8,1074.4,285.8z
							 M1074.4,284.7c0.6,0,1-0.3,1.3-0.8c0.3-0.6,0.5-1.4,0.5-2.4c0-0.7-0.1-1.3-0.2-1.8c-0.1-0.5-0.4-0.8-0.6-1.1
							c-0.3-0.3-0.6-0.4-1-0.4c-0.6,0-1,0.3-1.3,0.8c-0.3,0.6-0.5,1.4-0.5,2.4c0,0.7,0.1,1.3,0.2,1.8c0.1,0.5,0.4,0.8,0.6,1.1
							C1073.7,284.5,1074,284.7,1074.4,284.7z"/>
					</g>
				</g>
				<g>
					<g>
						<path class="st0" d="M1056.9,245.5v-0.9l2.8-2.9c0.3-0.3,0.6-0.6,0.8-0.8c0.2-0.2,0.3-0.5,0.4-0.7s0.1-0.5,0.1-0.7
							c0-0.3-0.1-0.5-0.2-0.7c-0.1-0.2-0.3-0.4-0.5-0.5c-0.2-0.1-0.5-0.2-0.8-0.2c-0.3,0-0.6,0.1-0.8,0.2c-0.2,0.1-0.4,0.3-0.5,0.5
							c-0.1,0.2-0.2,0.5-0.2,0.8h-1.2c0-0.5,0.1-1,0.4-1.3c0.2-0.4,0.6-0.7,1-0.9s0.9-0.3,1.4-0.3c0.5,0,1,0.1,1.4,0.3
							s0.7,0.5,0.9,0.9c0.2,0.4,0.3,0.8,0.3,1.2c0,0.3-0.1,0.6-0.2,0.9s-0.3,0.6-0.6,1c-0.3,0.4-0.7,0.8-1.2,1.3l-1.7,1.7v0.1h3.8
							v1.1H1056.9z"/>
						<path class="st0" d="M1066.8,245.6c-0.5,0-1-0.1-1.4-0.3s-0.7-0.5-1-0.8c-0.2-0.3-0.4-0.7-0.4-1.2h1.2c0,0.4,0.2,0.7,0.5,0.9
							s0.6,0.3,1,0.3c0.3,0,0.6-0.1,0.9-0.2c0.2-0.1,0.4-0.4,0.6-0.6c0.1-0.3,0.2-0.6,0.2-0.9c0-0.3-0.1-0.6-0.2-0.9
							c-0.1-0.3-0.4-0.5-0.6-0.6c-0.3-0.2-0.6-0.2-0.9-0.2c-0.3,0-0.5,0-0.8,0.1c-0.3,0.1-0.5,0.2-0.6,0.3l-1.2-0.2l0.5-4.2h4.6v1.1
							h-3.6l-0.3,2.4h0c0.2-0.2,0.4-0.3,0.7-0.4c0.3-0.1,0.6-0.2,0.9-0.2c0.5,0,1,0.1,1.4,0.4s0.7,0.6,0.9,1
							c0.2,0.4,0.3,0.9,0.3,1.4c0,0.5-0.1,1-0.4,1.5c-0.2,0.4-0.6,0.8-1,1C1067.9,245.5,1067.4,245.6,1066.8,245.6z"/>
						<path class="st0" d="M1074.1,245.6c-0.6,0-1.2-0.2-1.7-0.5s-0.8-0.8-1.1-1.5c-0.2-0.6-0.4-1.4-0.4-2.3c0-0.9,0.1-1.7,0.4-2.3
							c0.2-0.6,0.6-1.1,1.1-1.5c0.5-0.3,1-0.5,1.7-0.5s1.2,0.2,1.7,0.5c0.5,0.3,0.8,0.8,1.1,1.5c0.2,0.6,0.4,1.4,0.4,2.3
							c0,0.9-0.1,1.7-0.4,2.3c-0.2,0.6-0.6,1.1-1.1,1.5C1075.3,245.5,1074.8,245.6,1074.1,245.6z M1074.1,244.5c0.6,0,1-0.3,1.3-0.8
							c0.3-0.6,0.5-1.4,0.5-2.4c0-0.7-0.1-1.3-0.2-1.8c-0.1-0.5-0.4-0.8-0.6-1.1c-0.3-0.3-0.6-0.4-1-0.4c-0.6,0-1,0.3-1.3,0.8
							s-0.5,1.4-0.5,2.4c0,0.7,0.1,1.3,0.2,1.8c0.1,0.5,0.4,0.8,0.6,1.1C1073.4,244.4,1073.7,244.5,1074.1,244.5z"/>
					</g>
				</g>
				<g>
					<g>
						<path class="st0" d="M1059.9,205.5c-0.6,0-1.1-0.1-1.5-0.3c-0.4-0.2-0.8-0.5-1-0.8s-0.4-0.7-0.4-1.2h1.3
							c0,0.2,0.1,0.5,0.3,0.6c0.2,0.2,0.4,0.3,0.6,0.4s0.5,0.1,0.8,0.1c0.3,0,0.6-0.1,0.9-0.2c0.3-0.1,0.5-0.3,0.6-0.5
							c0.1-0.2,0.2-0.4,0.2-0.7c0-0.3-0.1-0.5-0.2-0.7s-0.4-0.4-0.6-0.5c-0.3-0.1-0.6-0.2-1-0.2h-0.7v-1h0.7c0.3,0,0.6-0.1,0.8-0.2
							c0.2-0.1,0.4-0.3,0.6-0.5c0.1-0.2,0.2-0.4,0.2-0.7c0-0.3-0.1-0.5-0.2-0.7c-0.1-0.2-0.3-0.3-0.5-0.5s-0.5-0.2-0.7-0.2
							c-0.3,0-0.5,0.1-0.8,0.2s-0.4,0.2-0.6,0.4s-0.2,0.4-0.2,0.7h-1.2c0-0.5,0.1-0.9,0.4-1.2c0.3-0.3,0.6-0.6,1-0.8
							c0.4-0.2,0.9-0.3,1.4-0.3c0.5,0,1,0.1,1.4,0.3c0.4,0.2,0.7,0.5,0.9,0.8c0.2,0.3,0.3,0.7,0.3,1.1c0,0.5-0.1,0.9-0.4,1.2
							c-0.3,0.3-0.6,0.5-1.1,0.7v0.1c0.6,0.1,1,0.3,1.3,0.7s0.5,0.8,0.5,1.3c0,0.5-0.1,0.9-0.4,1.2c-0.3,0.4-0.6,0.7-1.1,0.9
							C1061,205.4,1060.4,205.5,1059.9,205.5z"/>
						<path class="st0" d="M1067.3,205.5c-0.6,0-1.2-0.2-1.7-0.5c-0.5-0.3-0.8-0.8-1.1-1.5c-0.2-0.6-0.4-1.4-0.4-2.3
							c0-0.9,0.1-1.7,0.4-2.3s0.6-1.1,1.1-1.5c0.5-0.3,1-0.5,1.7-0.5s1.2,0.2,1.7,0.5c0.5,0.3,0.8,0.8,1.1,1.5
							c0.2,0.6,0.4,1.4,0.4,2.3c0,0.9-0.1,1.7-0.4,2.3c-0.2,0.6-0.6,1.1-1.1,1.5C1068.5,205.3,1068,205.5,1067.3,205.5z
							 M1067.3,204.4c0.6,0,1-0.3,1.3-0.8c0.3-0.6,0.5-1.4,0.5-2.4c0-0.7-0.1-1.3-0.2-1.8c-0.1-0.5-0.4-0.8-0.6-1.1
							c-0.3-0.3-0.6-0.4-1-0.4c-0.6,0-1,0.3-1.3,0.8c-0.3,0.6-0.5,1.4-0.5,2.4c0,0.7,0.1,1.3,0.2,1.8c0.1,0.5,0.4,0.8,0.6,1.1
							C1066.6,204.3,1066.9,204.4,1067.3,204.4z"/>
						<path class="st0" d="M1074.8,205.5c-0.6,0-1.2-0.2-1.7-0.5s-0.8-0.8-1.1-1.5c-0.2-0.6-0.4-1.4-0.4-2.3c0-0.9,0.1-1.7,0.4-2.3
							c0.2-0.6,0.6-1.1,1.1-1.5c0.5-0.3,1-0.5,1.7-0.5s1.2,0.2,1.7,0.5c0.5,0.3,0.8,0.8,1.1,1.5c0.2,0.6,0.4,1.4,0.4,2.3
							c0,0.9-0.1,1.7-0.4,2.3c-0.2,0.6-0.6,1.1-1.1,1.5C1076,205.3,1075.4,205.5,1074.8,205.5z M1074.8,204.4c0.6,0,1-0.3,1.3-0.8
							c0.3-0.6,0.5-1.4,0.5-2.4c0-0.7-0.1-1.3-0.2-1.8c-0.1-0.5-0.4-0.8-0.6-1.1c-0.3-0.3-0.6-0.4-1-0.4c-0.6,0-1,0.3-1.3,0.8
							s-0.5,1.4-0.5,2.4c0,0.7,0.1,1.3,0.2,1.8c0.1,0.5,0.4,0.8,0.6,1.1C1074.1,204.3,1074.4,204.4,1074.8,204.4z"/>
					</g>
				</g>
				<g>
					<g>
						<path class="st0" d="M1059.9,165.3c-0.6,0-1.1-0.1-1.5-0.3c-0.4-0.2-0.8-0.5-1-0.8s-0.4-0.7-0.4-1.2h1.3
							c0,0.2,0.1,0.5,0.3,0.6c0.2,0.2,0.4,0.3,0.6,0.4s0.5,0.1,0.8,0.1c0.3,0,0.6-0.1,0.9-0.2c0.3-0.1,0.5-0.3,0.6-0.5
							c0.1-0.2,0.2-0.4,0.2-0.7c0-0.3-0.1-0.5-0.2-0.7s-0.4-0.4-0.6-0.5c-0.3-0.1-0.6-0.2-1-0.2h-0.7v-1h0.7c0.3,0,0.6-0.1,0.8-0.2
							c0.2-0.1,0.4-0.3,0.6-0.5c0.1-0.2,0.2-0.4,0.2-0.7c0-0.3-0.1-0.5-0.2-0.7c-0.1-0.2-0.3-0.3-0.5-0.5s-0.5-0.2-0.7-0.2
							c-0.3,0-0.5,0.1-0.8,0.2s-0.4,0.2-0.6,0.4s-0.2,0.4-0.2,0.7h-1.2c0-0.5,0.1-0.9,0.4-1.2c0.3-0.3,0.6-0.6,1-0.8
							c0.4-0.2,0.9-0.3,1.4-0.3c0.5,0,1,0.1,1.4,0.3c0.4,0.2,0.7,0.5,0.9,0.8c0.2,0.3,0.3,0.7,0.3,1.1c0,0.5-0.1,0.9-0.4,1.2
							c-0.3,0.3-0.6,0.5-1.1,0.7v0.1c0.6,0.1,1,0.3,1.3,0.7s0.5,0.8,0.5,1.3c0,0.5-0.1,0.9-0.4,1.2c-0.3,0.4-0.6,0.7-1.1,0.9
							C1061,165.2,1060.4,165.3,1059.9,165.3z"/>
						<path class="st0" d="M1067.2,165.3c-0.5,0-1-0.1-1.4-0.3c-0.4-0.2-0.7-0.5-1-0.8s-0.4-0.7-0.4-1.2h1.2c0,0.4,0.2,0.7,0.5,0.9
							c0.3,0.2,0.6,0.3,1,0.3c0.3,0,0.6-0.1,0.9-0.2c0.3-0.1,0.4-0.4,0.6-0.6c0.1-0.3,0.2-0.6,0.2-0.9c0-0.3-0.1-0.6-0.2-0.9
							c-0.1-0.3-0.4-0.5-0.6-0.6c-0.3-0.2-0.6-0.2-0.9-0.2c-0.3,0-0.5,0-0.8,0.1c-0.3,0.1-0.5,0.2-0.6,0.3l-1.2-0.2l0.5-4.2h4.6v1.1
							h-3.6l-0.3,2.4h0c0.2-0.2,0.4-0.3,0.7-0.4s0.6-0.2,0.9-0.2c0.5,0,1,0.1,1.4,0.4c0.4,0.2,0.7,0.6,0.9,1
							c0.2,0.4,0.3,0.9,0.3,1.4c0,0.5-0.1,1-0.4,1.5c-0.2,0.4-0.6,0.8-1,1C1068.2,165.2,1067.7,165.3,1067.2,165.3z"/>
						<path class="st0" d="M1074.5,165.4c-0.6,0-1.2-0.2-1.7-0.5c-0.5-0.3-0.8-0.8-1.1-1.5c-0.2-0.6-0.4-1.4-0.4-2.3
							c0-0.9,0.1-1.7,0.4-2.3s0.6-1.1,1.1-1.5c0.5-0.3,1-0.5,1.7-0.5s1.2,0.2,1.7,0.5c0.5,0.3,0.8,0.8,1.1,1.5
							c0.2,0.6,0.4,1.4,0.4,2.3c0,0.9-0.1,1.7-0.4,2.3c-0.2,0.6-0.6,1.1-1.1,1.5C1075.7,165.2,1075.1,165.4,1074.5,165.4z
							 M1074.5,164.3c0.6,0,1-0.3,1.3-0.8c0.3-0.6,0.5-1.4,0.5-2.4c0-0.7-0.1-1.3-0.2-1.8c-0.1-0.5-0.4-0.8-0.6-1.1
							c-0.3-0.3-0.6-0.4-1-0.4c-0.6,0-1,0.3-1.3,0.8c-0.3,0.6-0.5,1.4-0.5,2.4c0,0.7,0.1,1.3,0.2,1.8c0.1,0.5,0.4,0.8,0.6,1.1
							C1073.8,164.2,1074.1,164.3,1074.5,164.3z"/>
					</g>
				</g>
				<g>
					<g>
						<path class="st0" d="M1056.8,123.5v-1l3.6-5.7h0.8v1.5h-0.5l-2.6,4.1v0.1h5v1.1H1056.8z M1060.8,125.1v-2l0-0.5v-6h1.2v8.4
							H1060.8z"/>
						<path class="st0" d="M1067.4,125.2c-0.6,0-1.2-0.2-1.7-0.5s-0.8-0.8-1.1-1.5c-0.2-0.6-0.4-1.4-0.4-2.3c0-0.9,0.1-1.7,0.4-2.3
							c0.2-0.6,0.6-1.1,1.1-1.5c0.5-0.3,1-0.5,1.7-0.5s1.2,0.2,1.7,0.5c0.5,0.3,0.8,0.8,1.1,1.5c0.2,0.6,0.4,1.4,0.4,2.3
							c0,0.9-0.1,1.7-0.4,2.3c-0.2,0.6-0.6,1.1-1.1,1.5C1068.6,125.1,1068.1,125.2,1067.4,125.2z M1067.4,124.1c0.6,0,1-0.3,1.3-0.8
							c0.3-0.6,0.5-1.4,0.5-2.4c0-0.7-0.1-1.3-0.2-1.8c-0.1-0.5-0.4-0.8-0.6-1.1c-0.3-0.3-0.6-0.4-1-0.4c-0.6,0-1,0.3-1.3,0.8
							s-0.5,1.4-0.5,2.4c0,0.7,0.1,1.3,0.2,1.8c0.1,0.5,0.4,0.8,0.6,1.1C1066.7,124,1067,124.1,1067.4,124.1z"/>
						<path class="st0" d="M1074.9,125.2c-0.6,0-1.2-0.2-1.7-0.5c-0.5-0.3-0.8-0.8-1.1-1.5c-0.2-0.6-0.4-1.4-0.4-2.3
							c0-0.9,0.1-1.7,0.4-2.3s0.6-1.1,1.1-1.5c0.5-0.3,1-0.5,1.7-0.5s1.2,0.2,1.7,0.5c0.5,0.3,0.8,0.8,1.1,1.5
							c0.2,0.6,0.4,1.4,0.4,2.3c0,0.9-0.1,1.7-0.4,2.3c-0.2,0.6-0.6,1.1-1.1,1.5C1076.1,125.1,1075.5,125.2,1074.9,125.2z
							 M1074.9,124.1c0.6,0,1-0.3,1.3-0.8c0.3-0.6,0.5-1.4,0.5-2.4c0-0.7-0.1-1.3-0.2-1.8c-0.1-0.5-0.4-0.8-0.6-1.1
							c-0.3-0.3-0.6-0.4-1-0.4c-0.6,0-1,0.3-1.3,0.8c-0.3,0.6-0.5,1.4-0.5,2.4c0,0.7,0.1,1.3,0.2,1.8c0.1,0.5,0.4,0.8,0.6,1.1
							C1074.2,124,1074.5,124.1,1074.9,124.1z"/>
					</g>
				</g>
				<g>
					<g>
						<path class="st0" d="M1056.8,83.3v-1l3.6-5.7h0.8v1.5h-0.5l-2.6,4.1v0.1h5v1.1H1056.8z M1060.8,85v-2l0-0.5v-6h1.2V85H1060.8z
							"/>
						<path class="st0" d="M1067.3,85.1c-0.5,0-1-0.1-1.4-0.3s-0.7-0.5-1-0.8c-0.2-0.3-0.4-0.7-0.4-1.2h1.2c0,0.4,0.2,0.7,0.5,0.9
							s0.6,0.3,1,0.3c0.3,0,0.6-0.1,0.9-0.2c0.2-0.1,0.4-0.4,0.6-0.6c0.1-0.3,0.2-0.6,0.2-0.9c0-0.3-0.1-0.6-0.2-0.9
							c-0.1-0.3-0.4-0.5-0.6-0.6c-0.3-0.2-0.6-0.2-0.9-0.2c-0.3,0-0.5,0-0.8,0.1c-0.3,0.1-0.5,0.2-0.6,0.3l-1.2-0.2l0.5-4.2h4.6v1.1
							h-3.6l-0.3,2.4h0c0.2-0.2,0.4-0.3,0.7-0.4c0.3-0.1,0.6-0.2,0.9-0.2c0.5,0,1,0.1,1.4,0.4s0.7,0.6,0.9,1
							c0.2,0.4,0.3,0.9,0.3,1.4c0,0.5-0.1,1-0.4,1.5c-0.2,0.4-0.6,0.8-1,1C1068.3,85,1067.8,85.1,1067.3,85.1z"/>
						<path class="st0" d="M1074.6,85.1c-0.6,0-1.2-0.2-1.7-0.5s-0.8-0.8-1.1-1.5c-0.2-0.6-0.4-1.4-0.4-2.3c0-0.9,0.1-1.7,0.4-2.3
							c0.2-0.6,0.6-1.1,1.1-1.5c0.5-0.3,1-0.5,1.7-0.5s1.2,0.2,1.7,0.5c0.5,0.3,0.8,0.8,1.1,1.5c0.2,0.6,0.4,1.4,0.4,2.3
							c0,0.9-0.1,1.7-0.4,2.3c-0.2,0.6-0.6,1.1-1.1,1.5C1075.8,84.9,1075.2,85.1,1074.6,85.1z M1074.6,84c0.6,0,1-0.3,1.3-0.8
							c0.3-0.6,0.5-1.4,0.5-2.4c0-0.7-0.1-1.3-0.2-1.8c-0.1-0.5-0.4-0.8-0.6-1.1c-0.3-0.3-0.6-0.4-1-0.4c-0.6,0-1,0.3-1.3,0.8
							s-0.5,1.4-0.5,2.4c0,0.7,0.1,1.3,0.2,1.8c0.1,0.5,0.4,0.8,0.6,1.1C1073.9,83.9,1074.2,84,1074.6,84z"/>
					</g>
				</g>
				<g>
					<g>
						<path class="st0" d="M1059.7,45c-0.5,0-1-0.1-1.4-0.3c-0.4-0.2-0.7-0.5-1-0.8s-0.4-0.7-0.4-1.2h1.2c0,0.4,0.2,0.7,0.5,0.9
							c0.3,0.2,0.6,0.3,1,0.3c0.3,0,0.6-0.1,0.9-0.2c0.3-0.1,0.4-0.4,0.6-0.6c0.1-0.3,0.2-0.6,0.2-0.9c0-0.3-0.1-0.6-0.2-0.9
							c-0.1-0.3-0.4-0.5-0.6-0.6c-0.3-0.2-0.6-0.2-0.9-0.2c-0.3,0-0.5,0-0.8,0.1c-0.3,0.1-0.5,0.2-0.6,0.3l-1.2-0.2l0.5-4.2h4.6v1.1
							h-3.6l-0.3,2.4h0c0.2-0.2,0.4-0.3,0.7-0.4c0.3-0.1,0.6-0.2,0.9-0.2c0.5,0,1,0.1,1.4,0.4c0.4,0.2,0.7,0.6,0.9,1
							s0.3,0.9,0.3,1.4c0,0.5-0.1,1-0.4,1.5c-0.2,0.4-0.6,0.8-1,1C1060.8,44.8,1060.3,45,1059.7,45z"/>
						<path class="st0" d="M1067,45c-0.6,0-1.2-0.2-1.7-0.5c-0.5-0.3-0.8-0.8-1.1-1.5c-0.2-0.6-0.4-1.4-0.4-2.3
							c0-0.9,0.1-1.7,0.4-2.3c0.2-0.6,0.6-1.1,1.1-1.5c0.5-0.3,1-0.5,1.7-0.5s1.2,0.2,1.7,0.5c0.5,0.3,0.8,0.8,1.1,1.5
							c0.2,0.6,0.4,1.4,0.4,2.3c0,0.9-0.1,1.7-0.4,2.3c-0.2,0.6-0.6,1.1-1.1,1.5C1068.2,44.8,1067.7,45,1067,45z M1067,43.9
							c0.6,0,1-0.3,1.3-0.8s0.5-1.4,0.5-2.4c0-0.7-0.1-1.3-0.2-1.8c-0.1-0.5-0.4-0.8-0.6-1.1c-0.3-0.2-0.6-0.4-1-0.4
							c-0.6,0-1,0.3-1.3,0.8c-0.3,0.6-0.5,1.4-0.5,2.4c0,0.7,0.1,1.3,0.2,1.8c0.1,0.5,0.4,0.8,0.6,1.1S1066.7,43.9,1067,43.9z"/>
						<path class="st0" d="M1074.5,45c-0.6,0-1.2-0.2-1.7-0.5c-0.5-0.3-0.8-0.8-1.1-1.5c-0.2-0.6-0.4-1.4-0.4-2.3
							c0-0.9,0.1-1.7,0.4-2.3c0.2-0.6,0.6-1.1,1.1-1.5c0.5-0.3,1-0.5,1.7-0.5s1.2,0.2,1.7,0.5c0.5,0.3,0.8,0.8,1.1,1.5
							c0.2,0.6,0.4,1.4,0.4,2.3c0,0.9-0.1,1.7-0.4,2.3c-0.2,0.6-0.6,1.1-1.1,1.5C1075.7,44.8,1075.1,45,1074.5,45z M1074.5,43.9
							c0.6,0,1-0.3,1.3-0.8s0.5-1.4,0.5-2.4c0-0.7-0.1-1.3-0.2-1.8c-0.1-0.5-0.4-0.8-0.6-1.1c-0.3-0.2-0.6-0.4-1-0.4
							c-0.6,0-1,0.3-1.3,0.8c-0.3,0.6-0.5,1.4-0.5,2.4c0,0.7,0.1,1.3,0.2,1.8c0.1,0.5,0.4,0.8,0.6,1.1S1074.1,43.9,1074.5,43.9z"/>
					</g>
				</g>
			</g>
			<line class="st1" x1="1026.9" y1="27.7" x2="1026.9" y2="441.9"/>
		</g>
		<g>
			<g>
				<path class="st4" d="M1026.2,22.1v-9.5h3.7c0.7,0,1.3,0.1,1.8,0.4s0.9,0.6,1.2,1.1s0.4,1,0.4,1.7s-0.1,1.2-0.4,1.7
					s-0.7,0.9-1.2,1.1s-1.1,0.4-1.9,0.4h-2.4v-1.6h2.1c0.4,0,0.7-0.1,1-0.2s0.4-0.3,0.6-0.6s0.2-0.5,0.2-0.8c0-0.3-0.1-0.6-0.2-0.8
					c-0.1-0.2-0.3-0.4-0.6-0.5s-0.6-0.2-1-0.2h-1.3v7.8H1026.2z"/>
				<path class="st4" d="M1034.7,12.6h2.5l2.6,6.4h0.1l2.6-6.4h2.5v9.5h-1.9v-6.2h-0.1l-2.4,6.1h-1.3l-2.4-6.1h-0.1v6.2h-1.9V12.6z"
					/>
				<path class="st4" d="M1046.3,24.1V23l2.6-2.4c0.2-0.2,0.4-0.4,0.6-0.6c0.2-0.2,0.3-0.3,0.3-0.5c0.1-0.2,0.1-0.3,0.1-0.5
					c0-0.2,0-0.4-0.1-0.6c-0.1-0.2-0.2-0.3-0.4-0.4s-0.4-0.1-0.6-0.1c-0.2,0-0.4,0-0.6,0.1c-0.2,0.1-0.3,0.2-0.4,0.4
					c-0.1,0.2-0.1,0.4-0.1,0.6h-1.5c0-0.5,0.1-0.9,0.3-1.2c0.2-0.4,0.5-0.6,0.9-0.8c0.4-0.2,0.8-0.3,1.3-0.3c0.5,0,1,0.1,1.4,0.3
					c0.4,0.2,0.7,0.4,0.9,0.8c0.2,0.3,0.3,0.7,0.3,1.1c0,0.3-0.1,0.5-0.2,0.8s-0.3,0.6-0.6,0.9c-0.3,0.3-0.7,0.7-1.2,1.2l-1.1,1v0
					h3.1v1.3H1046.3z"/>
				<path class="st4" d="M1053.5,24.2c-0.2,0-0.4-0.1-0.6-0.3s-0.2-0.4-0.2-0.6c0-0.2,0.1-0.4,0.2-0.6s0.4-0.2,0.6-0.2
					c0.2,0,0.4,0.1,0.6,0.2c0.2,0.2,0.3,0.4,0.3,0.6c0,0.2,0,0.3-0.1,0.4c-0.1,0.1-0.2,0.2-0.3,0.3
					C1053.8,24.1,1053.7,24.2,1053.5,24.2z"/>
				<path class="st4" d="M1058.3,24.2c-0.5,0-0.9-0.1-1.3-0.3s-0.7-0.4-0.9-0.8c-0.2-0.3-0.3-0.7-0.4-1.1h1.5c0,0.3,0.1,0.5,0.4,0.7
					c0.2,0.2,0.5,0.3,0.8,0.3c0.2,0,0.5-0.1,0.6-0.2s0.3-0.3,0.4-0.5c0.1-0.2,0.2-0.4,0.2-0.7c0-0.3-0.1-0.5-0.2-0.7
					c-0.1-0.2-0.3-0.3-0.4-0.5c-0.2-0.1-0.4-0.2-0.6-0.2c-0.2,0-0.4,0-0.6,0.1c-0.2,0.1-0.4,0.2-0.5,0.4l-1.4-0.2l0.3-3.8h4.4v1.3
					h-3.2l-0.2,1.8h0c0.1-0.2,0.3-0.3,0.6-0.4c0.3-0.1,0.5-0.2,0.9-0.2c0.4,0,0.8,0.1,1.2,0.3c0.3,0.2,0.6,0.5,0.8,0.8
					c0.2,0.4,0.3,0.8,0.3,1.2c0,0.5-0.1,0.9-0.3,1.3s-0.5,0.7-1,0.9S1058.8,24.2,1058.3,24.2z"/>
			</g>
		</g>
		<g>
			<g>
				<path class="st4" d="M41,22.1h-2.1l3.3-9.5h2.6l3.3,9.5h-2.1l-2.4-7.3h-0.1L41,22.1z M40.9,18.4h5.1v1.6h-5.1V18.4z"/>
				<path class="st4" d="M57.8,17.4c0,1-0.2,1.9-0.6,2.6c-0.4,0.7-0.9,1.3-1.6,1.7c-0.7,0.4-1.4,0.6-2.3,0.6c-0.8,0-1.6-0.2-2.3-0.6
					s-1.2-0.9-1.6-1.7c-0.4-0.7-0.6-1.6-0.6-2.6c0-1,0.2-1.9,0.6-2.6c0.4-0.7,0.9-1.3,1.6-1.7s1.4-0.6,2.3-0.6
					c0.8,0,1.6,0.2,2.3,0.6s1.2,0.9,1.6,1.7C57.6,15.5,57.8,16.3,57.8,17.4z M55.8,17.4c0-0.7-0.1-1.2-0.3-1.7
					c-0.2-0.5-0.5-0.8-0.8-1c-0.4-0.2-0.8-0.4-1.3-0.4c-0.5,0-0.9,0.1-1.3,0.4c-0.4,0.2-0.6,0.6-0.8,1c-0.2,0.5-0.3,1-0.3,1.7
					s0.1,1.2,0.3,1.7c0.2,0.5,0.5,0.8,0.8,1c0.4,0.2,0.8,0.4,1.3,0.4c0.5,0,0.9-0.1,1.3-0.4s0.6-0.6,0.8-1
					C55.7,18.6,55.8,18,55.8,17.4z M52.7,18.8h1.7l0.9,1.1l0.8,1l1.6,2h-1.9l-1.1-1.3l-0.6-0.8L52.7,18.8z"/>
				<path class="st4" d="M61.3,12.6v9.5h-2v-9.5H61.3z"/>
			</g>
		</g>
	</g>
	
		<linearGradient id="SVGID_1_" gradientUnits="userSpaceOnUse" x1="535.2651" y1="903.7742" x2="535.2651" y2="1195.3259" gradientTransform="matrix(1 0 0 -1 0 1354.1101)">
		<stop  offset="0" style="stop-color:#00C800"/>
		<stop  offset="0.1391" style="stop-color:#00C800"/>
		<stop  offset="0.1474" style="stop-color:#FFE12D"/>
		<stop  offset="0.3085" style="stop-color:#FFE12D"/>
		<stop  offset="0.3089" style="stop-color:#FF7E00"/>
		<stop  offset="0.4245" style="stop-color:#FF7E00"/>
		<stop  offset="0.442" style="stop-color:#FA0A00"/>
		<stop  offset="0.6641" style="stop-color:#FF0000"/>
		<stop  offset="0.6688" style="stop-color:#A715CB"/>
	</linearGradient>
	<path class="st5" d="M992.8,281l-75.6,18.4l-61.8,79.1l-24.5,2l-25.9,41.6l-9.8,13l-14.1-8.5l-27.6-5.8l-11.1,7l-14.1-17.5
		l-12.9-39.5l-8.6-20.5l-14.1-59.7l-9.2-12.5L668,332.8l-13.2-11l-10.2,13.3l-9.7-14.3l-14.2,96.6l-12.9,2l-12.3-11.5l-11.7,15
		l-11.1,19l-12.9-3.5l-10.5-11l-12.9-8l-13.5-11.5l-9.8,9.5l-19.7-5l-10.5,6.5l-12.3-97l-14,35.7l-8.2-32.7L424,382.1l-9.3-2.2
		l-10.6,10.8l-4.7,13.6l-11.7,10.5l-12.9-4.5l-12.9,13l-11.4-21.6l-13.8-26.3l-11.7-11.5l-10.5,23l-9.8,17.6l-17.6,9.2l-18.9-11.2
		l-6.6,5.4l-11.7,7l-11.1,3.5l-12.9-6l-14.1,11l-10.5-11l-9.8,8.5l-12.3-2.5l-12.9-6l-12.3,2.5l-11.7,3.5h-13.5l-14.1,5l-9.2-8.5
		l-14.1,3.5l-12.9,9"/>
	<path class="st6" d="M997.9,317.2l-75.6,18.4l-58.5,15.3l-40.6,24.5l-27.6,1.5l-7.7,21.4l-17.6-6.1l-22.2,6.9L739,380l-19.1-47.5
		l-10-45.2l-26.6-36.2L668,305.8l-9.1,6.8l-11,34.2l-22.7,15.3l-29.7,18.6l-11.7,15l-11.1,19l-12.9-3.5l-10.5-11l-12.9-8l-16.4,3.9
		l-19.9-10.7l-23.7-82.7L451,280.4L424,355.1l-19.9,8.6l-4.7,13.6l-11.7,10.5l-12.9-4.5l-24.8,34.3l-14.6-20.7l-5.4-18.4L315,350.6
		l-10.5,23l-12.8-14.3l-8.4,12l-13.8,17.9l-18.4,6.9l-25,32.5l-12.9-6l-14.1,11l-20.3-2.5l-11.5-27.9l-12.9-6l-24,6l-13.4,5.3
		l-23.4-3.5l-27.1,12.5"/>
	<g>
		<g>
			
				<image style="overflow:visible;opacity:0.5;" width="82" height="20" xlink:href="D09ADFD4.png"  transform="matrix(1 0 0 1 944 256)">
			</image>
			<g>
				<path class="st7" d="M1015.1,269.6H953c-3.6,0-6.5-2.9-6.5-6.5l0,0c0-3.6,2.9-6.5,6.5-6.5h62.1c3.6,0,6.5,2.9,6.5,6.5l0,0
					C1021.6,266.6,1018.7,269.6,1015.1,269.6z"/>
			</g>
		</g>
		<g>
			<g>
				<path class="st0" d="M977,267.1h-1.3l2.9-8.1h1.4l2.9,8.1h-1.3l-2.3-6.6h-0.1L977,267.1z M977.2,264h4.2v1h-4.2V264z"/>
				<path class="st0" d="M991.1,263.1c0,0.9-0.2,1.6-0.5,2.2s-0.7,1.1-1.3,1.4c-0.5,0.3-1.2,0.5-1.9,0.5c-0.7,0-1.3-0.2-1.9-0.5
					c-0.5-0.3-1-0.8-1.3-1.4s-0.5-1.4-0.5-2.2c0-0.9,0.2-1.6,0.5-2.2s0.7-1.1,1.3-1.4c0.5-0.3,1.2-0.5,1.9-0.5
					c0.7,0,1.3,0.2,1.9,0.5c0.5,0.3,1,0.8,1.3,1.4S991.1,262.3,991.1,263.1z M989.9,263.1c0-0.7-0.1-1.2-0.3-1.7
					c-0.2-0.5-0.5-0.8-0.9-1c-0.4-0.2-0.8-0.3-1.2-0.3c-0.5,0-0.9,0.1-1.2,0.3c-0.4,0.2-0.7,0.6-0.9,1c-0.2,0.5-0.3,1-0.3,1.7
					c0,0.7,0.1,1.2,0.3,1.7c0.2,0.5,0.5,0.8,0.9,1c0.4,0.2,0.8,0.3,1.2,0.3c0.5,0,0.9-0.1,1.2-0.3c0.4-0.2,0.7-0.6,0.9-1
					C989.8,264.3,989.9,263.8,989.9,263.1z M987,264.5h1.2l0.8,1.1l0.4,0.5l1.3,1.8h-1.2l-0.9-1.2l-0.3-0.4L987,264.5z"/>
				<path class="st0" d="M993.8,259.1v8.1h-1.2v-8.1H993.8z"/>
			</g>
		</g>
	</g>
	<g>
		<g>
			
				<image style="overflow:visible;opacity:0.5;" width="61" height="20" xlink:href="D09ADFD5.png"  transform="matrix(1 0 0 1 960 298)">
			</image>
			<g>
				<path class="st7" d="M1010.1,311.5h-40.6c-3.6,0-6.5-2.9-6.5-6.5l0,0c0-3.6,2.9-6.5,6.5-6.5h40.6c3.6,0,6.5,2.9,6.5,6.5l0,0
					C1016.6,308.5,1013.6,311.5,1010.1,311.5z"/>
			</g>
		</g>
		<g>
			<g>
				<path class="st0" d="M976.3,308v-8.1h2.9c0.6,0,1.1,0.1,1.6,0.3c0.4,0.2,0.7,0.5,0.9,0.9s0.3,0.8,0.3,1.3c0,0.5-0.1,0.9-0.3,1.3
					s-0.5,0.7-0.9,0.9c-0.4,0.2-0.9,0.3-1.6,0.3h-2v-1h1.9c0.4,0,0.7-0.1,1-0.2s0.4-0.3,0.5-0.6s0.2-0.5,0.2-0.8s-0.1-0.6-0.2-0.8
					c-0.1-0.2-0.3-0.4-0.5-0.6c-0.2-0.1-0.6-0.2-1-0.2h-1.5v7H976.3z"/>
				<path class="st0" d="M983.4,299.9h1.5l2.6,6.3h0.1l2.6-6.3h1.5v8.1h-1.2v-5.8h-0.1L988,308h-1l-2.4-5.8h-0.1v5.8h-1.2V299.9z"/>
				<path class="st0" d="M993.1,310v-0.7l2.2-2.3c0.2-0.2,0.4-0.5,0.6-0.7c0.2-0.2,0.3-0.4,0.3-0.5c0.1-0.2,0.1-0.4,0.1-0.5
					c0-0.2-0.1-0.4-0.2-0.6c-0.1-0.2-0.2-0.3-0.4-0.4c-0.2-0.1-0.4-0.1-0.6-0.1c-0.2,0-0.4,0-0.6,0.1c-0.2,0.1-0.3,0.2-0.4,0.4
					s-0.1,0.4-0.1,0.6h-0.9c0-0.4,0.1-0.7,0.3-1c0.2-0.3,0.4-0.5,0.8-0.7c0.3-0.2,0.7-0.2,1.1-0.2c0.4,0,0.8,0.1,1.1,0.2
					c0.3,0.2,0.6,0.4,0.7,0.7s0.3,0.6,0.3,0.9c0,0.2,0,0.5-0.1,0.7c-0.1,0.2-0.2,0.5-0.5,0.8c-0.2,0.3-0.5,0.6-0.9,1l-1.3,1.4v0h2.9
					v0.8H993.1z"/>
				<path class="st0" d="M999.3,310c-0.2,0-0.3-0.1-0.5-0.2c-0.1-0.1-0.2-0.3-0.2-0.5c0-0.2,0.1-0.3,0.2-0.4
					c0.1-0.1,0.3-0.2,0.5-0.2c0.2,0,0.3,0.1,0.5,0.2c0.1,0.1,0.2,0.3,0.2,0.4c0,0.1,0,0.2-0.1,0.3c-0.1,0.1-0.1,0.2-0.2,0.2
					S999.4,310,999.3,310z"/>
				<path class="st0" d="M1003.3,310.1c-0.4,0-0.8-0.1-1.1-0.2c-0.3-0.2-0.6-0.4-0.8-0.6c-0.2-0.3-0.3-0.6-0.3-0.9h1
					c0,0.3,0.1,0.5,0.4,0.7c0.2,0.2,0.5,0.3,0.8,0.3c0.3,0,0.5-0.1,0.7-0.2c0.2-0.1,0.3-0.3,0.5-0.5c0.1-0.2,0.2-0.4,0.2-0.7
					c0-0.3-0.1-0.5-0.2-0.7s-0.3-0.4-0.5-0.5s-0.4-0.2-0.7-0.2c-0.2,0-0.4,0-0.6,0.1c-0.2,0.1-0.4,0.2-0.5,0.3l-0.9-0.1l0.4-3.3h3.6
					v0.8h-2.8l-0.2,1.8h0c0.1-0.1,0.3-0.2,0.5-0.3c0.2-0.1,0.4-0.1,0.7-0.1c0.4,0,0.8,0.1,1.1,0.3s0.6,0.4,0.7,0.8s0.3,0.7,0.3,1.1
					c0,0.4-0.1,0.8-0.3,1.1c-0.2,0.3-0.5,0.6-0.8,0.8C1004.2,310,1003.8,310.1,1003.3,310.1z"/>
			</g>
		</g>
	</g>
</g>
</svg>
