<?xml version="1.0" encoding="utf-8"?>
<!-- Generator: Adobe Illustrator 28.1.0, SVG Export Plug-In . SVG Version: 6.00 Build 0)  -->
<svg version="1.1" id="Layer_1" xmlns="http://www.w3.org/2000/svg" xmlns:xlink="http://www.w3.org/1999/xlink" x="0px" y="0px"
	 viewBox="0 0 1070 473" style="enable-background:new 0 0 1070 473;" xml:space="preserve">
<style type="text/css">
	.st0{fill:#4F4F4F;}
	.st1{fill:none;stroke:#4F4F4F;stroke-width:0.7701;stroke-miterlimit:10;}
	.st2{fill:none;stroke:#8F3F97;stroke-width:0.5;stroke-miterlimit:10;}
	.st3{fill:none;stroke:#8F3F97;stroke-width:0.5;stroke-miterlimit:10;stroke-dasharray:1.1971,1.1971;}
	.st4{fill:none;stroke:url(#SVGID_1_);stroke-width:4;}
	.st5{fill:none;stroke:#00A0C8;stroke-width:4;}
	.st6{fill:#E7E7E7;}
</style>
<g>
	<g>
		<g>
			<g>
				<g>
					<g>
						<rect x="39.3" y="356.7" class="st0" width="18.1" height="0.5"/>
					</g>
					<g>
						<rect x="47.1" y="381.8" class="st0" width="10.3" height="0.5"/>
					</g>
					<g>
						<rect x="47.1" y="390.8" class="st0" width="10.3" height="0.5"/>
					</g>
					<g>
						<rect x="47.1" y="372.9" class="st0" width="10.3" height="0.5"/>
					</g>
					<g>
						<rect x="47.1" y="363.9" class="st0" width="10.3" height="0.5"/>
					</g>
					<g>
						<rect x="39.3" y="397.9" class="st0" width="18.1" height="0.5"/>
					</g>
					<g>
						<rect x="47.1" y="423" class="st0" width="10.3" height="0.5"/>
					</g>
					<g>
						<rect x="47.1" y="431.9" class="st0" width="10.3" height="0.5"/>
					</g>
					<g>
						<rect x="47.1" y="414" class="st0" width="10.3" height="0.5"/>
					</g>
					<g>
						<rect x="47.1" y="405.1" class="st0" width="10.3" height="0.5"/>
					</g>
					<g>
						<rect x="39.3" y="315.6" class="st0" width="18.1" height="0.5"/>
					</g>
					<g>
						<rect x="47.1" y="340.6" class="st0" width="10.3" height="0.5"/>
					</g>
					<g>
						<rect x="47.1" y="349.6" class="st0" width="10.3" height="0.5"/>
					</g>
					<g>
						<rect x="47.1" y="331.7" class="st0" width="10.3" height="0.5"/>
					</g>
					<g>
						<rect x="47.1" y="322.7" class="st0" width="10.3" height="0.5"/>
					</g>
					<g>
						<rect x="39.3" y="274.4" class="st0" width="18.1" height="0.5"/>
					</g>
					<g>
						<rect x="47.1" y="299.5" class="st0" width="10.3" height="0.5"/>
					</g>
					<g>
						<rect x="47.1" y="308.4" class="st0" width="10.3" height="0.5"/>
					</g>
					<g>
						<rect x="47.1" y="290.5" class="st0" width="10.3" height="0.5"/>
					</g>
					<g>
						<rect x="47.1" y="281.6" class="st0" width="10.3" height="0.5"/>
					</g>
					<g>
						<rect x="39.3" y="233.2" class="st0" width="18.1" height="0.5"/>
					</g>
					<g>
						<rect x="47.1" y="258.3" class="st0" width="10.3" height="0.5"/>
					</g>
					<g>
						<rect x="47.1" y="267.3" class="st0" width="10.3" height="0.5"/>
					</g>
					<g>
						<rect x="47.1" y="249.4" class="st0" width="10.3" height="0.5"/>
					</g>
					<g>
						<rect x="47.1" y="240.4" class="st0" width="10.3" height="0.5"/>
					</g>
					<g>
						<rect x="39.3" y="192.1" class="st0" width="18.1" height="0.5"/>
					</g>
					<g>
						<rect x="47.1" y="217.1" class="st0" width="10.3" height="0.5"/>
					</g>
					<g>
						<rect x="47.1" y="226.1" class="st0" width="10.3" height="0.5"/>
					</g>
					<g>
						<rect x="47.1" y="208.2" class="st0" width="10.3" height="0.5"/>
					</g>
					<g>
						<rect x="47.1" y="199.2" class="st0" width="10.3" height="0.5"/>
					</g>
				</g>
				<g>
					<g>
						<rect x="39.3" y="157.4" class="st0" width="18.1" height="0.5"/>
					</g>
					<g>
						<rect x="47.1" y="182.4" class="st0" width="10.3" height="0.5"/>
					</g>
					<g>
						<rect x="47.1" y="173.5" class="st0" width="10.3" height="0.5"/>
					</g>
					<g>
						<rect x="47.1" y="164.5" class="st0" width="10.3" height="0.5"/>
					</g>
					<g>
						<rect x="39.3" y="116.2" class="st0" width="18.1" height="0.5"/>
					</g>
					<g>
						<rect x="47.1" y="141.3" class="st0" width="10.3" height="0.5"/>
					</g>
					<g>
						<rect x="47.1" y="150.2" class="st0" width="10.3" height="0.5"/>
					</g>
					<g>
						<rect x="47.1" y="132.3" class="st0" width="10.3" height="0.5"/>
					</g>
					<g>
						<rect x="47.1" y="123.4" class="st0" width="10.3" height="0.5"/>
					</g>
					<g>
						<rect x="39.3" y="75" class="st0" width="18.1" height="0.5"/>
					</g>
					<g>
						<rect x="47.1" y="100.1" class="st0" width="10.3" height="0.5"/>
					</g>
					<g>
						<rect x="47.1" y="109.1" class="st0" width="10.3" height="0.5"/>
					</g>
					<g>
						<rect x="47.1" y="91.2" class="st0" width="10.3" height="0.5"/>
					</g>
					<g>
						<rect x="47.1" y="82.2" class="st0" width="10.3" height="0.5"/>
					</g>
					<g>
						<rect x="39.3" y="33.9" class="st0" width="18.1" height="0.5"/>
					</g>
					<g>
						<rect x="47.1" y="58.9" class="st0" width="10.3" height="0.5"/>
					</g>
					<g>
						<rect x="47.1" y="67.9" class="st0" width="10.3" height="0.5"/>
					</g>
					<g>
						<rect x="47.1" y="50" class="st0" width="10.3" height="0.5"/>
					</g>
					<g>
						<rect x="47.1" y="41" class="st0" width="10.3" height="0.5"/>
					</g>
				</g>
			</g>
			<line class="st1" x1="63.5" y1="21.1" x2="63.5" y2="435.3"/>
			<g>
				<g>
					<line class="st2" x1="130.8" y1="21.1" x2="130.8" y2="21.7"/>
					<line class="st3" x1="130.8" y1="22.9" x2="130.8" y2="434.1"/>
					<line class="st2" x1="130.8" y1="434.7" x2="130.8" y2="435.3"/>
				</g>
			</g>
			<g>
				<g>
					<line class="st2" x1="205.4" y1="21.1" x2="205.4" y2="21.7"/>
					<line class="st3" x1="205.4" y1="22.9" x2="205.4" y2="434.1"/>
					<line class="st2" x1="205.4" y1="434.7" x2="205.4" y2="435.3"/>
				</g>
			</g>
			<g>
				<g>
					<line class="st2" x1="876.7" y1="21.1" x2="876.7" y2="21.7"/>
					<line class="st3" x1="876.7" y1="22.9" x2="876.7" y2="434.1"/>
					<line class="st2" x1="876.7" y1="434.7" x2="876.7" y2="435.3"/>
				</g>
			</g>
			<g>
				<g>
					<line class="st2" x1="951.3" y1="21.1" x2="951.3" y2="21.7"/>
					<line class="st3" x1="951.3" y1="22.9" x2="951.3" y2="434.1"/>
					<line class="st2" x1="951.3" y1="434.7" x2="951.3" y2="435.3"/>
				</g>
			</g>
			<g>
				<g>
					<line class="st2" x1="1025.9" y1="21.1" x2="1025.9" y2="21.7"/>
					<line class="st3" x1="1025.9" y1="22.9" x2="1025.9" y2="434.1"/>
					<line class="st2" x1="1025.9" y1="434.7" x2="1025.9" y2="435.3"/>
				</g>
			</g>
			<g>
				<g>
					<line class="st2" x1="280" y1="21.1" x2="280" y2="21.7"/>
					<line class="st3" x1="280" y1="22.9" x2="280" y2="434.1"/>
					<line class="st2" x1="280" y1="434.7" x2="280" y2="435.3"/>
				</g>
			</g>
			<g>
				<g>
					<line class="st2" x1="354.6" y1="21.1" x2="354.6" y2="21.7"/>
					<line class="st3" x1="354.6" y1="22.9" x2="354.6" y2="434.1"/>
					<line class="st2" x1="354.6" y1="434.7" x2="354.6" y2="435.3"/>
				</g>
			</g>
			<g>
				<g>
					<line class="st2" x1="429.2" y1="21.1" x2="429.2" y2="21.7"/>
					<line class="st3" x1="429.2" y1="22.9" x2="429.2" y2="434.1"/>
					<line class="st2" x1="429.2" y1="434.7" x2="429.2" y2="435.3"/>
				</g>
			</g>
			<g>
				<g>
					<line class="st2" x1="578.3" y1="21.1" x2="578.3" y2="21.7"/>
					<line class="st3" x1="578.3" y1="22.9" x2="578.3" y2="434.1"/>
					<line class="st2" x1="578.3" y1="434.7" x2="578.3" y2="435.3"/>
				</g>
			</g>
			<g>
				<g>
					<line class="st2" x1="652.9" y1="21.1" x2="652.9" y2="21.7"/>
					<line class="st3" x1="652.9" y1="22.9" x2="652.9" y2="434.1"/>
					<line class="st2" x1="652.9" y1="434.7" x2="652.9" y2="435.3"/>
				</g>
			</g>
			<g>
				<g>
					<line class="st2" x1="727.5" y1="21.1" x2="727.5" y2="21.7"/>
					<line class="st3" x1="727.5" y1="22.9" x2="727.5" y2="434.1"/>
					<line class="st2" x1="727.5" y1="434.7" x2="727.5" y2="435.3"/>
				</g>
			</g>
			<g>
				<g>
					<line class="st2" x1="802.1" y1="21.1" x2="802.1" y2="21.7"/>
					<line class="st3" x1="802.1" y1="22.9" x2="802.1" y2="434.1"/>
					<line class="st2" x1="802.1" y1="434.7" x2="802.1" y2="435.3"/>
				</g>
			</g>
			<g>
				<g>
					<line class="st2" x1="503.7" y1="21.1" x2="503.7" y2="21.7"/>
					<line class="st3" x1="503.7" y1="22.9" x2="503.7" y2="434.1"/>
					<line class="st2" x1="503.7" y1="434.7" x2="503.7" y2="435.3"/>
				</g>
			</g>
			<g>
				<g>
					<g>
						<g>
							<path class="st0" d="M30.6,439.7c-0.6,0-1.2-0.2-1.7-0.5c-0.5-0.3-0.8-0.8-1.1-1.5c-0.2-0.6-0.4-1.4-0.4-2.3
								c0-0.9,0.1-1.7,0.4-2.3c0.2-0.6,0.6-1.1,1.1-1.5c0.5-0.3,1-0.5,1.7-0.5s1.2,0.2,1.7,0.5c0.5,0.3,0.8,0.8,1.1,1.5
								c0.2,0.6,0.4,1.4,0.4,2.3c0,0.9-0.1,1.7-0.4,2.3c-0.2,0.6-0.6,1.1-1.1,1.5C31.8,439.5,31.2,439.7,30.6,439.7z M30.6,438.6
								c0.6,0,1-0.3,1.3-0.8c0.3-0.6,0.5-1.4,0.5-2.4c0-0.7-0.1-1.3-0.2-1.8c-0.1-0.5-0.4-0.8-0.6-1.1c-0.3-0.3-0.6-0.4-1-0.4
								c-0.6,0-1,0.3-1.3,0.8c-0.3,0.6-0.5,1.4-0.5,2.4c0,0.7,0.1,1.3,0.2,1.8c0.1,0.5,0.4,0.8,0.6,1.1
								C29.9,438.5,30.2,438.6,30.6,438.6z"/>
						</g>
					</g>
				</g>
				<g>
					<g>
						<path class="st0" d="M120.8,449.2v8.4h-1.3v-7.1h0l-2,1.3v-1.2l2.1-1.4H120.8z"/>
						<path class="st0" d="M123.1,457.6v-0.9l2.8-2.9c0.3-0.3,0.6-0.6,0.8-0.8c0.2-0.2,0.3-0.5,0.4-0.7s0.1-0.5,0.1-0.7
							c0-0.3-0.1-0.5-0.2-0.7c-0.1-0.2-0.3-0.4-0.5-0.5c-0.2-0.1-0.5-0.2-0.8-0.2c-0.3,0-0.6,0.1-0.8,0.2c-0.2,0.1-0.4,0.3-0.5,0.5
							c-0.1,0.2-0.2,0.5-0.2,0.8h-1.2c0-0.5,0.1-1,0.4-1.3c0.2-0.4,0.6-0.7,1-0.9s0.9-0.3,1.4-0.3c0.5,0,1,0.1,1.4,0.3
							s0.7,0.5,0.9,0.9c0.2,0.4,0.3,0.8,0.3,1.2c0,0.3-0.1,0.6-0.2,0.9s-0.3,0.6-0.6,1c-0.3,0.4-0.7,0.8-1.2,1.3l-1.7,1.7v0.1h3.8
							v1.1H123.1z"/>
						<path class="st0" d="M131,457.6h-1.3l3-8.4h1.5l3,8.4h-1.3l-2.4-6.9h-0.1L131,457.6z M131.2,454.3h4.4v1.1h-4.4V454.3z"/>
						<path class="st0" d="M138.4,449.2h1.5l2.7,6.5h0.1l2.7-6.5h1.5v8.4h-1.2v-6.1h-0.1l-2.5,6.1h-1l-2.5-6.1h-0.1v6.1h-1.2V449.2z
							"/>
					</g>
				</g>
				<g>
					<g>
						<path class="st0" d="M197.4,449.2v8.4h-1.3v-7.1h0l-2,1.3v-1.2l2.1-1.4H197.4z"/>
						<path class="st0" d="M200.5,457.6h-1.3l3-8.4h1.5l3,8.4h-1.3l-2.4-6.9h-0.1L200.5,457.6z M200.7,454.3h4.4v1.1h-4.4V454.3z"/>
						<path class="st0" d="M207.9,449.2h1.5l2.7,6.5h0.1l2.7-6.5h1.5v8.4h-1.2v-6.1h-0.1l-2.5,6.1h-1l-2.5-6.1h-0.1v6.1h-1.2V449.2z
							"/>
					</g>
				</g>
				<g>
					<g>
						<path class="st0" d="M268,457.6v-0.9l2.8-2.9c0.3-0.3,0.6-0.6,0.8-0.8c0.2-0.2,0.3-0.5,0.4-0.7s0.1-0.5,0.1-0.7
							c0-0.3-0.1-0.5-0.2-0.7c-0.1-0.2-0.3-0.4-0.5-0.5c-0.2-0.1-0.5-0.2-0.8-0.2c-0.3,0-0.6,0.1-0.8,0.2c-0.2,0.1-0.4,0.3-0.5,0.5
							c-0.1,0.2-0.2,0.5-0.2,0.8H268c0-0.5,0.1-1,0.4-1.3c0.2-0.4,0.6-0.7,1-0.9s0.9-0.3,1.4-0.3c0.5,0,1,0.1,1.4,0.3
							s0.7,0.5,0.9,0.9c0.2,0.4,0.3,0.8,0.3,1.2c0,0.3-0.1,0.6-0.2,0.9s-0.3,0.6-0.6,1c-0.3,0.4-0.7,0.8-1.2,1.3l-1.7,1.7v0.1h3.8
							v1.1H268z"/>
						<path class="st0" d="M275.9,457.6h-1.3l3-8.4h1.5l3,8.4h-1.3l-2.4-6.9h-0.1L275.9,457.6z M276.2,454.3h4.4v1.1h-4.4V454.3z"/>
						<path class="st0" d="M283.3,449.2h1.5l2.7,6.5h0.1l2.7-6.5h1.5v8.4h-1.2v-6.1h-0.1l-2.5,6.1h-1l-2.5-6.1h-0.1v6.1h-1.2V449.2z
							"/>
					</g>
				</g>
				<g>
					<g>
						<path class="st0" d="M345.4,457.7c-0.6,0-1.1-0.1-1.5-0.3c-0.4-0.2-0.8-0.5-1-0.8c-0.3-0.3-0.4-0.7-0.4-1.2h1.3
							c0,0.2,0.1,0.5,0.3,0.6c0.2,0.2,0.4,0.3,0.6,0.4s0.5,0.1,0.8,0.1c0.3,0,0.6-0.1,0.9-0.2c0.3-0.1,0.5-0.3,0.6-0.5
							c0.1-0.2,0.2-0.4,0.2-0.7c0-0.3-0.1-0.5-0.2-0.7s-0.4-0.4-0.6-0.5c-0.3-0.1-0.6-0.2-1-0.2h-0.7v-1h0.7c0.3,0,0.6-0.1,0.8-0.2
							c0.2-0.1,0.4-0.3,0.6-0.5c0.1-0.2,0.2-0.4,0.2-0.7c0-0.3-0.1-0.5-0.2-0.7c-0.1-0.2-0.3-0.3-0.5-0.5s-0.5-0.2-0.7-0.2
							c-0.3,0-0.5,0.1-0.8,0.2c-0.2,0.1-0.4,0.2-0.6,0.4c-0.1,0.2-0.2,0.4-0.2,0.7h-1.2c0-0.5,0.1-0.9,0.4-1.2
							c0.3-0.3,0.6-0.6,1-0.8s0.9-0.3,1.4-0.3c0.5,0,1,0.1,1.4,0.3s0.7,0.5,0.9,0.8c0.2,0.3,0.3,0.7,0.3,1.1c0,0.5-0.1,0.9-0.4,1.2
							s-0.6,0.5-1.1,0.7v0.1c0.6,0.1,1,0.3,1.3,0.7s0.5,0.8,0.5,1.3c0,0.5-0.1,0.9-0.4,1.2c-0.3,0.4-0.6,0.7-1.1,0.9
							C346.4,457.6,345.9,457.7,345.4,457.7z"/>
						<path class="st0" d="M350.7,457.6h-1.3l3-8.4h1.5l3,8.4h-1.3l-2.4-6.9h-0.1L350.7,457.6z M350.9,454.3h4.4v1.1h-4.4V454.3z"/>
						<path class="st0" d="M358.1,449.2h1.5l2.7,6.5h0.1l2.7-6.5h1.5v8.4h-1.2v-6.1h-0.1l-2.5,6.1h-1l-2.5-6.1h-0.1v6.1h-1.2V449.2z
							"/>
					</g>
				</g>
				<g>
					<g>
						<path class="st0" d="M416.8,455.9v-1l3.6-5.7h0.8v1.5h-0.5l-2.6,4.1v0.1h5v1.1H416.8z M420.8,457.6v-2l0-0.5v-6h1.2v8.4H420.8
							z"/>
						<path class="st0" d="M425.3,457.6H424l3-8.4h1.5l3,8.4h-1.3l-2.4-6.9h-0.1L425.3,457.6z M425.6,454.3h4.4v1.1h-4.4V454.3z"/>
						<path class="st0" d="M432.7,449.2h1.5l2.7,6.5h0.1l2.7-6.5h1.5v8.4H440v-6.1H440l-2.5,6.1h-1l-2.5-6.1h-0.1v6.1h-1.2V449.2z"
							/>
					</g>
				</g>
				<g>
					<g>
						<path class="st0" d="M494.5,457.7c-0.5,0-1-0.1-1.4-0.3c-0.4-0.2-0.7-0.5-1-0.8s-0.4-0.7-0.4-1.2h1.2c0,0.4,0.2,0.7,0.5,0.9
							c0.3,0.2,0.6,0.3,1,0.3c0.3,0,0.6-0.1,0.9-0.2c0.3-0.1,0.4-0.4,0.6-0.6c0.1-0.3,0.2-0.6,0.2-0.9c0-0.3-0.1-0.6-0.2-0.9
							c-0.1-0.3-0.4-0.5-0.6-0.6c-0.3-0.2-0.6-0.2-0.9-0.2c-0.3,0-0.5,0-0.8,0.1c-0.3,0.1-0.5,0.2-0.6,0.3l-1.2-0.2l0.5-4.2h4.6v1.1
							h-3.6l-0.3,2.4h0c0.2-0.2,0.4-0.3,0.7-0.4s0.6-0.2,0.9-0.2c0.5,0,1,0.1,1.4,0.4c0.4,0.2,0.7,0.6,0.9,1
							c0.2,0.4,0.3,0.9,0.3,1.4c0,0.5-0.1,1-0.4,1.5c-0.2,0.4-0.6,0.8-1,1C495.6,457.6,495.1,457.7,494.5,457.7z"/>
						<path class="st0" d="M499.7,457.6h-1.3l3-8.4h1.5l3,8.4h-1.3l-2.4-6.9h-0.1L499.7,457.6z M500,454.3h4.4v1.1H500V454.3z"/>
						<path class="st0" d="M507.1,449.2h1.5l2.7,6.5h0.1l2.7-6.5h1.5v8.4h-1.2v-6.1h-0.1l-2.5,6.1h-1l-2.5-6.1h-0.1v6.1h-1.2V449.2z
							"/>
					</g>
				</g>
				<g>
					<g>
						<path class="st0" d="M569.2,457.7c-0.4,0-0.7-0.1-1.1-0.2c-0.4-0.1-0.7-0.4-1-0.7c-0.3-0.3-0.5-0.7-0.7-1.2
							c-0.2-0.5-0.3-1.2-0.3-1.9c0-0.7,0.1-1.4,0.2-2c0.1-0.6,0.4-1,0.6-1.4c0.3-0.4,0.6-0.7,1-0.9c0.4-0.2,0.8-0.3,1.3-0.3
							c0.5,0,0.9,0.1,1.3,0.3s0.7,0.5,0.9,0.8s0.4,0.7,0.5,1.2h-1.3c-0.1-0.3-0.3-0.6-0.5-0.9s-0.6-0.3-1-0.3
							c-0.6,0-1.1,0.3-1.4,0.8c-0.3,0.5-0.5,1.3-0.5,2.2h0.1c0.1-0.2,0.3-0.4,0.5-0.6c0.2-0.2,0.5-0.3,0.7-0.4
							c0.3-0.1,0.5-0.1,0.8-0.1c0.5,0,0.9,0.1,1.3,0.4c0.4,0.2,0.7,0.6,0.9,1s0.4,0.9,0.4,1.4s-0.1,1-0.4,1.5c-0.2,0.4-0.6,0.8-1,1
							C570.3,457.6,569.8,457.7,569.2,457.7z M569.2,456.6c0.3,0,0.6-0.1,0.9-0.2c0.3-0.2,0.5-0.4,0.6-0.6c0.1-0.3,0.2-0.6,0.2-0.9
							c0-0.3-0.1-0.6-0.2-0.9c-0.1-0.3-0.3-0.5-0.6-0.6c-0.3-0.2-0.5-0.2-0.9-0.2c-0.2,0-0.5,0-0.7,0.1c-0.2,0.1-0.4,0.2-0.5,0.4
							c-0.2,0.2-0.3,0.4-0.4,0.6s-0.1,0.4-0.1,0.7c0,0.3,0.1,0.6,0.2,0.9c0.1,0.3,0.3,0.5,0.6,0.6
							C568.6,456.5,568.9,456.6,569.2,456.6z"/>
						<path class="st0" d="M574.4,457.6h-1.3l3-8.4h1.5l3,8.4h-1.3l-2.4-6.9h-0.1L574.4,457.6z M574.6,454.3h4.4v1.1h-4.4V454.3z"/>
						<path class="st0" d="M581.8,449.2h1.5l2.7,6.5h0.1l2.7-6.5h1.5v8.4h-1.2v-6.1H589l-2.5,6.1h-1l-2.5-6.1H583v6.1h-1.2V449.2z"
							/>
					</g>
				</g>
				<g>
					<g>
						<path class="st0" d="M641.4,457.6l3.7-7.3v-0.1h-4.2v-1.1h5.6v1.1l-3.7,7.3H641.4z"/>
						<path class="st0" d="M648.7,457.6h-1.3l3-8.4h1.5l3,8.4h-1.3l-2.4-6.9h-0.1L648.7,457.6z M648.9,454.3h4.4v1.1h-4.4V454.3z"/>
						<path class="st0" d="M656.1,449.2h1.5l2.7,6.5h0.1l2.7-6.5h1.5v8.4h-1.2v-6.1h-0.1l-2.5,6.1h-1l-2.5-6.1h-0.1v6.1h-1.2V449.2z
							"/>
					</g>
				</g>
				<g>
					<g>
						<path class="st0" d="M718.3,457.7c-0.6,0-1.1-0.1-1.6-0.3c-0.4-0.2-0.8-0.5-1.1-0.8c-0.3-0.4-0.4-0.8-0.4-1.2
							c0-0.4,0.1-0.7,0.2-1c0.1-0.3,0.4-0.5,0.6-0.8s0.5-0.3,0.9-0.4v0c-0.4-0.1-0.8-0.3-1-0.7c-0.3-0.3-0.4-0.7-0.4-1.2
							c0-0.4,0.1-0.8,0.3-1.2c0.2-0.3,0.5-0.6,1-0.8c0.4-0.2,0.9-0.3,1.4-0.3c0.5,0,1,0.1,1.4,0.3c0.4,0.2,0.7,0.5,1,0.8
							s0.3,0.7,0.4,1.1c0,0.5-0.1,0.9-0.4,1.2c-0.3,0.3-0.6,0.6-1,0.7v0c0.3,0.1,0.6,0.2,0.9,0.4c0.3,0.2,0.5,0.5,0.6,0.8
							c0.2,0.3,0.2,0.6,0.2,1c0,0.5-0.1,0.9-0.4,1.2c-0.3,0.4-0.6,0.6-1.1,0.8C719.4,457.6,718.9,457.7,718.3,457.7z M718.3,456.6
							c0.3,0,0.6-0.1,0.9-0.2c0.3-0.1,0.5-0.3,0.6-0.5c0.1-0.2,0.2-0.5,0.2-0.7c0-0.3-0.1-0.6-0.2-0.8c-0.1-0.2-0.4-0.4-0.6-0.5
							c-0.3-0.1-0.5-0.2-0.9-0.2c-0.3,0-0.6,0.1-0.9,0.2c-0.3,0.1-0.5,0.3-0.6,0.5c-0.1,0.2-0.2,0.5-0.2,0.8c0,0.3,0.1,0.5,0.2,0.7
							c0.1,0.2,0.3,0.4,0.6,0.5S717.9,456.6,718.3,456.6z M718.3,452.7c0.3,0,0.5-0.1,0.7-0.2c0.2-0.1,0.4-0.3,0.5-0.5
							c0.1-0.2,0.2-0.4,0.2-0.7c0-0.3-0.1-0.5-0.2-0.7c-0.1-0.2-0.3-0.3-0.5-0.5c-0.2-0.1-0.5-0.2-0.8-0.2c-0.3,0-0.5,0.1-0.8,0.2
							c-0.2,0.1-0.4,0.3-0.5,0.5c-0.1,0.2-0.2,0.4-0.2,0.7c0,0.3,0.1,0.5,0.2,0.7c0.1,0.2,0.3,0.4,0.5,0.5
							C717.8,452.7,718,452.7,718.3,452.7z"/>
						<path class="st0" d="M723.6,457.6h-1.3l3-8.4h1.5l3,8.4h-1.3l-2.4-6.9h-0.1L723.6,457.6z M723.8,454.3h4.4v1.1h-4.4V454.3z"/>
						<path class="st0" d="M730.9,449.2h1.5l2.7,6.5h0.1l2.7-6.5h1.5v8.4h-1.2v-6.1h-0.1l-2.5,6.1h-1l-2.5-6.1h-0.1v6.1h-1.2V449.2z
							"/>
					</g>
				</g>
				<g>
					<g>
						<path class="st0" d="M792.8,449c0.4,0,0.7,0.1,1.1,0.2c0.4,0.1,0.7,0.4,1,0.7s0.5,0.7,0.7,1.2s0.3,1.2,0.3,1.9
							c0,0.7-0.1,1.4-0.2,2c-0.1,0.6-0.4,1.1-0.6,1.5c-0.3,0.4-0.6,0.7-1,0.9c-0.4,0.2-0.8,0.3-1.3,0.3c-0.5,0-0.9-0.1-1.3-0.3
							c-0.4-0.2-0.7-0.5-0.9-0.8c-0.2-0.3-0.4-0.8-0.5-1.2h1.3c0.1,0.4,0.2,0.7,0.5,0.9s0.6,0.3,1,0.3c0.6,0,1.1-0.3,1.4-0.8
							s0.5-1.3,0.5-2.3h-0.1c-0.1,0.2-0.3,0.4-0.5,0.6c-0.2,0.2-0.4,0.3-0.7,0.4s-0.5,0.1-0.8,0.1c-0.5,0-0.9-0.1-1.3-0.4
							c-0.4-0.2-0.7-0.6-0.9-1c-0.2-0.4-0.4-0.9-0.4-1.4c0-0.5,0.1-1,0.4-1.4c0.2-0.4,0.6-0.8,1-1S792.2,449,792.8,449z
							 M792.8,450.1c-0.3,0-0.6,0.1-0.9,0.2s-0.5,0.4-0.6,0.6c-0.1,0.3-0.2,0.6-0.2,0.9s0.1,0.6,0.2,0.9s0.3,0.5,0.6,0.6
							s0.5,0.2,0.9,0.2c0.2,0,0.5,0,0.7-0.1s0.4-0.2,0.5-0.4c0.2-0.2,0.3-0.4,0.4-0.6c0.1-0.2,0.1-0.4,0.1-0.7
							c0-0.3-0.1-0.6-0.2-0.9c-0.1-0.3-0.3-0.5-0.6-0.6C793.4,450.2,793.1,450.1,792.8,450.1z"/>
						<path class="st0" d="M798.2,457.6h-1.3l3-8.4h1.5l3,8.4H803l-2.4-6.9h-0.1L798.2,457.6z M798.4,454.3h4.4v1.1h-4.4V454.3z"/>
						<path class="st0" d="M805.6,449.2h1.5l2.7,6.5h0.1l2.7-6.5h1.5v8.4h-1.2v-6.1h-0.1l-2.5,6.1h-1l-2.5-6.1h-0.1v6.1h-1.2V449.2z
							"/>
					</g>
				</g>
				<g>
					<g>
						<path class="st0" d="M865,449.2v8.4h-1.3v-7.1h0l-2,1.3v-1.2l2.1-1.4H865z"/>
						<path class="st0" d="M870.2,457.7c-0.6,0-1.2-0.2-1.7-0.5c-0.5-0.3-0.8-0.8-1.1-1.5c-0.2-0.6-0.4-1.4-0.4-2.3
							c0-0.9,0.1-1.7,0.4-2.3c0.2-0.6,0.6-1.1,1.1-1.5c0.5-0.3,1-0.5,1.7-0.5c0.6,0,1.2,0.2,1.7,0.5c0.5,0.3,0.8,0.8,1.1,1.5
							c0.2,0.6,0.4,1.4,0.4,2.3c0,0.9-0.1,1.7-0.4,2.3c-0.2,0.6-0.6,1.1-1.1,1.5C871.4,457.5,870.8,457.7,870.2,457.7z M870.2,456.6
							c0.6,0,1-0.3,1.3-0.8c0.3-0.6,0.5-1.4,0.5-2.4c0-0.7-0.1-1.3-0.2-1.8c-0.1-0.5-0.4-0.8-0.6-1.1c-0.3-0.3-0.6-0.4-1-0.4
							c-0.6,0-1,0.3-1.3,0.8c-0.3,0.6-0.5,1.4-0.5,2.4c0,0.7,0.1,1.3,0.2,1.8c0.1,0.5,0.4,0.8,0.6,1.1
							C869.5,456.5,869.8,456.6,870.2,456.6z"/>
						<path class="st0" d="M875.6,457.6h-1.3l3-8.4h1.5l3,8.4h-1.3l-2.4-6.9h-0.1L875.6,457.6z M875.8,454.3h4.4v1.1h-4.4V454.3z"/>
						<path class="st0" d="M882.9,449.2h1.5l2.7,6.5h0.1l2.7-6.5h1.5v8.4h-1.2v-6.1h-0.1l-2.5,6.1h-1l-2.5-6.1h-0.1v6.1h-1.2V449.2z
							"/>
					</g>
				</g>
				<g>
					<g>
						<path class="st0" d="M940.6,449.2v8.4h-1.3v-7.1h0l-2,1.3v-1.2l2.1-1.4H940.6z"/>
						<path class="st0" d="M946.1,449.2v8.4h-1.3v-7.1h0l-2,1.3v-1.2l2.1-1.4H946.1z"/>
						<path class="st0" d="M949.2,457.6h-1.3l3-8.4h1.5l3,8.4H954l-2.4-6.9h-0.1L949.2,457.6z M949.4,454.3h4.4v1.1h-4.4V454.3z"/>
						<path class="st0" d="M956.5,449.2h1.5l2.7,6.5h0.1l2.7-6.5h1.5v8.4h-1.2v-6.1h-0.1l-2.5,6.1h-1l-2.5-6.1h-0.1v6.1h-1.2V449.2z
							"/>
					</g>
				</g>
				<g>
					<g>
						<path class="st0" d="M1014.7,449.2v8.4h-1.3v-7.1h0l-2,1.3v-1.2l2.1-1.4H1014.7z"/>
						<path class="st0" d="M1017,457.6v-0.9l2.8-2.9c0.3-0.3,0.6-0.6,0.8-0.8s0.3-0.5,0.4-0.7s0.1-0.5,0.1-0.7
							c0-0.3-0.1-0.5-0.2-0.7c-0.1-0.2-0.3-0.4-0.5-0.5c-0.2-0.1-0.5-0.2-0.8-0.2c-0.3,0-0.6,0.1-0.8,0.2c-0.2,0.1-0.4,0.3-0.5,0.5
							s-0.2,0.5-0.2,0.8h-1.2c0-0.5,0.1-1,0.4-1.3s0.6-0.7,1-0.9s0.9-0.3,1.4-0.3c0.5,0,1,0.1,1.4,0.3s0.7,0.5,0.9,0.9
							c0.2,0.4,0.3,0.8,0.3,1.2c0,0.3-0.1,0.6-0.2,0.9s-0.3,0.6-0.6,1c-0.3,0.4-0.7,0.8-1.2,1.3l-1.7,1.7v0.1h3.8v1.1H1017z"/>
						<path class="st0" d="M1024.2,457.6v-8.4h3c0.7,0,1.2,0.1,1.6,0.4c0.4,0.2,0.8,0.6,1,1c0.2,0.4,0.3,0.9,0.3,1.4
							c0,0.5-0.1,1-0.3,1.4c-0.2,0.4-0.5,0.7-1,1s-1,0.4-1.6,0.4h-2.1v-1.1h1.9c0.4,0,0.7-0.1,1-0.2s0.4-0.3,0.6-0.6
							c0.1-0.2,0.2-0.5,0.2-0.8s-0.1-0.6-0.2-0.8c-0.1-0.2-0.3-0.4-0.6-0.6c-0.3-0.1-0.6-0.2-1-0.2h-1.6v7.3H1024.2z"/>
						<path class="st0" d="M1031.6,449.2h1.5l2.7,6.5h0.1l2.7-6.5h1.5v8.4h-1.2v-6.1h-0.1l-2.5,6.1h-1l-2.5-6.1h-0.1v6.1h-1.2V449.2
							z"/>
					</g>
				</g>
				<g>
					<g>
						<g>
							<path class="st0" d="M23.3,399.5c-0.5,0-1-0.1-1.4-0.3c-0.4-0.2-0.7-0.5-1-0.8c-0.2-0.3-0.4-0.7-0.4-1.2h1.2
								c0,0.4,0.2,0.7,0.5,0.9c0.3,0.2,0.6,0.3,1,0.3c0.3,0,0.6-0.1,0.9-0.2c0.3-0.1,0.4-0.4,0.6-0.6c0.1-0.3,0.2-0.6,0.2-0.9
								c0-0.3-0.1-0.6-0.2-0.9c-0.1-0.3-0.4-0.5-0.6-0.6s-0.6-0.2-0.9-0.2c-0.3,0-0.5,0-0.8,0.1c-0.3,0.1-0.5,0.2-0.6,0.3l-1.2-0.2
								l0.5-4.2h4.6v1.1h-3.6l-0.3,2.4h0c0.2-0.2,0.4-0.3,0.7-0.4c0.3-0.1,0.6-0.2,0.9-0.2c0.5,0,1,0.1,1.4,0.4
								c0.4,0.2,0.7,0.6,0.9,1c0.2,0.4,0.3,0.9,0.3,1.4c0,0.5-0.1,1-0.4,1.5c-0.2,0.4-0.6,0.8-1,1C24.3,399.4,23.8,399.5,23.3,399.5
								z"/>
							<path class="st0" d="M30.6,399.6c-0.6,0-1.2-0.2-1.7-0.5c-0.5-0.3-0.8-0.8-1.1-1.5c-0.2-0.6-0.4-1.4-0.4-2.3
								c0-0.9,0.1-1.7,0.4-2.3c0.2-0.6,0.6-1.1,1.1-1.5c0.5-0.3,1-0.5,1.7-0.5s1.2,0.2,1.7,0.5c0.5,0.3,0.8,0.8,1.1,1.5
								c0.2,0.6,0.4,1.4,0.4,2.3c0,0.9-0.1,1.7-0.4,2.3c-0.2,0.6-0.6,1.1-1.1,1.5C31.8,399.4,31.2,399.6,30.6,399.6z M30.6,398.5
								c0.6,0,1-0.3,1.3-0.8c0.3-0.6,0.5-1.4,0.5-2.4c0-0.7-0.1-1.3-0.2-1.8c-0.1-0.5-0.4-0.8-0.6-1.1c-0.3-0.3-0.6-0.4-1-0.4
								c-0.6,0-1,0.3-1.3,0.8c-0.3,0.6-0.5,1.4-0.5,2.4c0,0.7,0.1,1.3,0.2,1.8c0.1,0.5,0.4,0.8,0.6,1.1
								C29.9,398.3,30.2,398.5,30.6,398.5z"/>
						</g>
					</g>
				</g>
				<g>
					<g>
						<path class="st0" d="M17.9,350.9v8.4h-1.3v-7.1h0l-2,1.3v-1.2l2.1-1.4H17.9z"/>
						<path class="st0" d="M23.1,359.4c-0.6,0-1.2-0.2-1.7-0.5c-0.5-0.3-0.8-0.8-1.1-1.5c-0.2-0.6-0.4-1.4-0.4-2.3
							c0-0.9,0.1-1.7,0.4-2.3c0.2-0.6,0.6-1.1,1.1-1.5c0.5-0.3,1-0.5,1.7-0.5s1.2,0.2,1.7,0.5c0.5,0.3,0.8,0.8,1.1,1.5
							c0.2,0.6,0.4,1.4,0.4,2.3c0,0.9-0.1,1.7-0.4,2.3c-0.2,0.6-0.6,1.1-1.1,1.5C24.3,359.3,23.8,359.4,23.1,359.4z M23.1,358.3
							c0.6,0,1-0.3,1.3-0.8c0.3-0.6,0.5-1.4,0.5-2.4c0-0.7-0.1-1.3-0.2-1.8c-0.1-0.5-0.4-0.8-0.6-1.1c-0.3-0.3-0.6-0.4-1-0.4
							c-0.6,0-1,0.3-1.3,0.8c-0.3,0.6-0.5,1.4-0.5,2.4c0,0.7,0.1,1.3,0.2,1.8c0.1,0.5,0.4,0.8,0.6,1.1
							C22.4,358.2,22.8,358.3,23.1,358.3z"/>
						<path class="st0" d="M30.6,359.4c-0.6,0-1.2-0.2-1.7-0.5c-0.5-0.3-0.8-0.8-1.1-1.5c-0.2-0.6-0.4-1.4-0.4-2.3
							c0-0.9,0.1-1.7,0.4-2.3c0.2-0.6,0.6-1.1,1.1-1.5c0.5-0.3,1-0.5,1.7-0.5s1.2,0.2,1.7,0.5c0.5,0.3,0.8,0.8,1.1,1.5
							c0.2,0.6,0.4,1.4,0.4,2.3c0,0.9-0.1,1.7-0.4,2.3c-0.2,0.6-0.6,1.1-1.1,1.5C31.8,359.3,31.2,359.4,30.6,359.4z M30.6,358.3
							c0.6,0,1-0.3,1.3-0.8c0.3-0.6,0.5-1.4,0.5-2.4c0-0.7-0.1-1.3-0.2-1.8c-0.1-0.5-0.4-0.8-0.6-1.1c-0.3-0.3-0.6-0.4-1-0.4
							c-0.6,0-1,0.3-1.3,0.8c-0.3,0.6-0.5,1.4-0.5,2.4c0,0.7,0.1,1.3,0.2,1.8c0.1,0.5,0.4,0.8,0.6,1.1
							C29.9,358.2,30.2,358.3,30.6,358.3z"/>
					</g>
				</g>
				<g>
					<g>
						<path class="st0" d="M18.2,310.8v8.4H17V312h0l-2,1.3v-1.2l2.1-1.4H18.2z"/>
						<path class="st0" d="M23.3,319.3c-0.5,0-1-0.1-1.4-0.3c-0.4-0.2-0.7-0.5-1-0.8c-0.2-0.3-0.4-0.7-0.4-1.2h1.2
							c0,0.4,0.2,0.7,0.5,0.9c0.3,0.2,0.6,0.3,1,0.3c0.3,0,0.6-0.1,0.9-0.2c0.3-0.1,0.4-0.4,0.6-0.6c0.1-0.3,0.2-0.6,0.2-0.9
							c0-0.3-0.1-0.6-0.2-0.9c-0.1-0.3-0.4-0.5-0.6-0.6s-0.6-0.2-0.9-0.2c-0.3,0-0.5,0-0.8,0.1c-0.3,0.1-0.5,0.2-0.6,0.3l-1.2-0.2
							l0.5-4.2h4.6v1.1h-3.6l-0.3,2.4h0c0.2-0.2,0.4-0.3,0.7-0.4c0.3-0.1,0.6-0.2,0.9-0.2c0.5,0,1,0.1,1.4,0.4
							c0.4,0.2,0.7,0.6,0.9,1c0.2,0.4,0.3,0.9,0.3,1.4c0,0.5-0.1,1-0.4,1.5c-0.2,0.4-0.6,0.8-1,1C24.3,319.1,23.8,319.3,23.3,319.3z
							"/>
						<path class="st0" d="M30.6,319.3c-0.6,0-1.2-0.2-1.7-0.5c-0.5-0.3-0.8-0.8-1.1-1.5c-0.2-0.6-0.4-1.4-0.4-2.3
							c0-0.9,0.1-1.7,0.4-2.3c0.2-0.6,0.6-1.1,1.1-1.5c0.5-0.3,1-0.5,1.7-0.5s1.2,0.2,1.7,0.5c0.5,0.3,0.8,0.8,1.1,1.5
							c0.2,0.6,0.4,1.4,0.4,2.3c0,0.9-0.1,1.7-0.4,2.3c-0.2,0.6-0.6,1.1-1.1,1.5C31.8,319.1,31.2,319.3,30.6,319.3z M30.6,318.2
							c0.6,0,1-0.3,1.3-0.8c0.3-0.6,0.5-1.4,0.5-2.4c0-0.7-0.1-1.3-0.2-1.8c-0.1-0.5-0.4-0.8-0.6-1.1c-0.3-0.3-0.6-0.4-1-0.4
							c-0.6,0-1,0.3-1.3,0.8c-0.3,0.6-0.5,1.4-0.5,2.4c0,0.7,0.1,1.3,0.2,1.8c0.1,0.5,0.4,0.8,0.6,1.1
							C29.9,318.1,30.2,318.2,30.6,318.2z"/>
					</g>
				</g>
				<g>
					<g>
						<path class="st0" d="M13.1,279v-0.9l2.8-2.9c0.3-0.3,0.6-0.6,0.8-0.8c0.2-0.2,0.3-0.5,0.4-0.7s0.1-0.5,0.1-0.7
							c0-0.3-0.1-0.5-0.2-0.7c-0.1-0.2-0.3-0.4-0.5-0.5c-0.2-0.1-0.5-0.2-0.8-0.2c-0.3,0-0.6,0.1-0.8,0.2c-0.2,0.1-0.4,0.3-0.5,0.5
							c-0.1,0.2-0.2,0.5-0.2,0.8h-1.2c0-0.5,0.1-1,0.4-1.3c0.2-0.4,0.6-0.7,1-0.9s0.9-0.3,1.4-0.3c0.5,0,1,0.1,1.4,0.3
							s0.7,0.5,0.9,0.9c0.2,0.4,0.3,0.8,0.3,1.2c0,0.3-0.1,0.6-0.2,0.9s-0.3,0.6-0.6,1c-0.3,0.4-0.7,0.8-1.2,1.3l-1.7,1.7v0.1h3.8
							v1.1H13.1z"/>
						<path class="st0" d="M23.1,279.2c-0.6,0-1.2-0.2-1.7-0.5c-0.5-0.3-0.8-0.8-1.1-1.5c-0.2-0.6-0.4-1.4-0.4-2.3
							c0-0.9,0.1-1.7,0.4-2.3c0.2-0.6,0.6-1.1,1.1-1.5c0.5-0.3,1-0.5,1.7-0.5s1.2,0.2,1.7,0.5c0.5,0.3,0.8,0.8,1.1,1.5
							c0.2,0.6,0.4,1.4,0.4,2.3c0,0.9-0.1,1.7-0.4,2.3c-0.2,0.6-0.6,1.1-1.1,1.5C24.3,279,23.8,279.2,23.1,279.2z M23.1,278.1
							c0.6,0,1-0.3,1.3-0.8c0.3-0.6,0.5-1.4,0.5-2.4c0-0.7-0.1-1.3-0.2-1.8c-0.1-0.5-0.4-0.8-0.6-1.1c-0.3-0.3-0.6-0.4-1-0.4
							c-0.6,0-1,0.3-1.3,0.8c-0.3,0.6-0.5,1.4-0.5,2.4c0,0.7,0.1,1.3,0.2,1.8c0.1,0.5,0.4,0.8,0.6,1.1
							C22.4,277.9,22.8,278.1,23.1,278.1z"/>
						<path class="st0" d="M30.6,279.2c-0.6,0-1.2-0.2-1.7-0.5c-0.5-0.3-0.8-0.8-1.1-1.5c-0.2-0.6-0.4-1.4-0.4-2.3
							c0-0.9,0.1-1.7,0.4-2.3c0.2-0.6,0.6-1.1,1.1-1.5c0.5-0.3,1-0.5,1.7-0.5s1.2,0.2,1.7,0.5c0.5,0.3,0.8,0.8,1.1,1.5
							c0.2,0.6,0.4,1.4,0.4,2.3c0,0.9-0.1,1.7-0.4,2.3c-0.2,0.6-0.6,1.1-1.1,1.5C31.8,279,31.2,279.2,30.6,279.2z M30.6,278.1
							c0.6,0,1-0.3,1.3-0.8c0.3-0.6,0.5-1.4,0.5-2.4c0-0.7-0.1-1.3-0.2-1.8c-0.1-0.5-0.4-0.8-0.6-1.1c-0.3-0.3-0.6-0.4-1-0.4
							c-0.6,0-1,0.3-1.3,0.8c-0.3,0.6-0.5,1.4-0.5,2.4c0,0.7,0.1,1.3,0.2,1.8c0.1,0.5,0.4,0.8,0.6,1.1
							C29.9,277.9,30.2,278.1,30.6,278.1z"/>
					</g>
				</g>
				<g>
					<g>
						<path class="st0" d="M13.4,238.9V238l2.8-2.9c0.3-0.3,0.6-0.6,0.8-0.8c0.2-0.2,0.3-0.5,0.4-0.7s0.1-0.5,0.1-0.7
							c0-0.3-0.1-0.5-0.2-0.7c-0.1-0.2-0.3-0.4-0.5-0.5c-0.2-0.1-0.5-0.2-0.8-0.2c-0.3,0-0.6,0.1-0.8,0.2c-0.2,0.1-0.4,0.3-0.5,0.5
							c-0.1,0.2-0.2,0.5-0.2,0.8h-1.2c0-0.5,0.1-1,0.4-1.3c0.2-0.4,0.6-0.7,1-0.9s0.9-0.3,1.4-0.3c0.5,0,1,0.1,1.4,0.3
							s0.7,0.5,0.9,0.9c0.2,0.4,0.3,0.8,0.3,1.2c0,0.3-0.1,0.6-0.2,0.9s-0.3,0.6-0.6,1c-0.3,0.4-0.7,0.8-1.2,1.3l-1.7,1.7v0.1H19
							v1.1H13.4z"/>
						<path class="st0" d="M23.3,239c-0.5,0-1-0.1-1.4-0.3c-0.4-0.2-0.7-0.5-1-0.8c-0.2-0.3-0.4-0.7-0.4-1.2h1.2
							c0,0.4,0.2,0.7,0.5,0.9c0.3,0.2,0.6,0.3,1,0.3c0.3,0,0.6-0.1,0.9-0.2c0.3-0.1,0.4-0.4,0.6-0.6c0.1-0.3,0.2-0.6,0.2-0.9
							c0-0.3-0.1-0.6-0.2-0.9c-0.1-0.3-0.4-0.5-0.6-0.6s-0.6-0.2-0.9-0.2c-0.3,0-0.5,0-0.8,0.1c-0.3,0.1-0.5,0.2-0.6,0.3l-1.2-0.2
							l0.5-4.2h4.6v1.1h-3.6l-0.3,2.4h0c0.2-0.2,0.4-0.3,0.7-0.4c0.3-0.1,0.6-0.2,0.9-0.2c0.5,0,1,0.1,1.4,0.4
							c0.4,0.2,0.7,0.6,0.9,1c0.2,0.4,0.3,0.9,0.3,1.4c0,0.5-0.1,1-0.4,1.5c-0.2,0.4-0.6,0.8-1,1C24.3,238.9,23.8,239,23.3,239z"/>
						<path class="st0" d="M30.6,239c-0.6,0-1.2-0.2-1.7-0.5c-0.5-0.3-0.8-0.8-1.1-1.5c-0.2-0.6-0.4-1.4-0.4-2.3
							c0-0.9,0.1-1.7,0.4-2.3c0.2-0.6,0.6-1.1,1.1-1.5c0.5-0.3,1-0.5,1.7-0.5s1.2,0.2,1.7,0.5c0.5,0.3,0.8,0.8,1.1,1.5
							c0.2,0.6,0.4,1.4,0.4,2.3c0,0.9-0.1,1.7-0.4,2.3c-0.2,0.6-0.6,1.1-1.1,1.5C31.8,238.9,31.2,239,30.6,239z M30.6,237.9
							c0.6,0,1-0.3,1.3-0.8c0.3-0.6,0.5-1.4,0.5-2.4c0-0.7-0.1-1.3-0.2-1.8c-0.1-0.5-0.4-0.8-0.6-1.1c-0.3-0.3-0.6-0.4-1-0.4
							c-0.6,0-1,0.3-1.3,0.8c-0.3,0.6-0.5,1.4-0.5,2.4c0,0.7,0.1,1.3,0.2,1.8c0.1,0.5,0.4,0.8,0.6,1.1
							C29.9,237.8,30.2,237.9,30.6,237.9z"/>
					</g>
				</g>
				<g>
					<g>
						<path class="st0" d="M15.7,198.9c-0.6,0-1.1-0.1-1.5-0.3c-0.4-0.2-0.8-0.5-1-0.8c-0.3-0.3-0.4-0.7-0.4-1.2H14
							c0,0.2,0.1,0.5,0.3,0.6c0.2,0.2,0.4,0.3,0.6,0.4s0.5,0.1,0.8,0.1c0.3,0,0.6-0.1,0.9-0.2c0.3-0.1,0.5-0.3,0.6-0.5
							c0.1-0.2,0.2-0.4,0.2-0.7c0-0.3-0.1-0.5-0.2-0.7s-0.4-0.4-0.6-0.5s-0.6-0.2-1-0.2h-0.7v-1h0.7c0.3,0,0.6-0.1,0.8-0.2
							c0.2-0.1,0.4-0.3,0.6-0.5c0.1-0.2,0.2-0.4,0.2-0.7c0-0.3-0.1-0.5-0.2-0.7c-0.1-0.2-0.3-0.3-0.5-0.5s-0.5-0.2-0.7-0.2
							c-0.3,0-0.5,0.1-0.8,0.2c-0.2,0.1-0.4,0.2-0.6,0.4c-0.1,0.2-0.2,0.4-0.2,0.7h-1.2c0-0.5,0.1-0.9,0.4-1.2
							c0.3-0.3,0.6-0.6,1-0.8c0.4-0.2,0.9-0.3,1.4-0.3c0.5,0,1,0.1,1.4,0.3c0.4,0.2,0.7,0.5,0.9,0.8c0.2,0.3,0.3,0.7,0.3,1.1
							c0,0.5-0.1,0.9-0.4,1.2c-0.3,0.3-0.6,0.5-1.1,0.7v0.1c0.6,0.1,1,0.3,1.3,0.7s0.5,0.8,0.5,1.3c0,0.5-0.1,0.9-0.4,1.2
							s-0.6,0.7-1.1,0.9C16.8,198.8,16.3,198.9,15.7,198.9z"/>
						<path class="st0" d="M23.1,198.9c-0.6,0-1.2-0.2-1.7-0.5c-0.5-0.3-0.8-0.8-1.1-1.5c-0.2-0.6-0.4-1.4-0.4-2.3
							c0-0.9,0.1-1.7,0.4-2.3c0.2-0.6,0.6-1.1,1.1-1.5c0.5-0.3,1-0.5,1.7-0.5s1.2,0.2,1.7,0.5c0.5,0.3,0.8,0.8,1.1,1.5
							c0.2,0.6,0.4,1.4,0.4,2.3c0,0.9-0.1,1.7-0.4,2.3c-0.2,0.6-0.6,1.1-1.1,1.5C24.3,198.7,23.8,198.9,23.1,198.9z M23.1,197.8
							c0.6,0,1-0.3,1.3-0.8c0.3-0.6,0.5-1.4,0.5-2.4c0-0.7-0.1-1.3-0.2-1.8c-0.1-0.5-0.4-0.8-0.6-1.1c-0.3-0.3-0.6-0.4-1-0.4
							c-0.6,0-1,0.3-1.3,0.8c-0.3,0.6-0.5,1.4-0.5,2.4c0,0.7,0.1,1.3,0.2,1.8c0.1,0.5,0.4,0.8,0.6,1.1
							C22.4,197.7,22.8,197.8,23.1,197.8z"/>
						<path class="st0" d="M30.6,198.9c-0.6,0-1.2-0.2-1.7-0.5c-0.5-0.3-0.8-0.8-1.1-1.5c-0.2-0.6-0.4-1.4-0.4-2.3
							c0-0.9,0.1-1.7,0.4-2.3c0.2-0.6,0.6-1.1,1.1-1.5c0.5-0.3,1-0.5,1.7-0.5s1.2,0.2,1.7,0.5c0.5,0.3,0.8,0.8,1.1,1.5
							c0.2,0.6,0.4,1.4,0.4,2.3c0,0.9-0.1,1.7-0.4,2.3c-0.2,0.6-0.6,1.1-1.1,1.5C31.8,198.7,31.2,198.9,30.6,198.9z M30.6,197.8
							c0.6,0,1-0.3,1.3-0.8c0.3-0.6,0.5-1.4,0.5-2.4c0-0.7-0.1-1.3-0.2-1.8c-0.1-0.5-0.4-0.8-0.6-1.1c-0.3-0.3-0.6-0.4-1-0.4
							c-0.6,0-1,0.3-1.3,0.8c-0.3,0.6-0.5,1.4-0.5,2.4c0,0.7,0.1,1.3,0.2,1.8c0.1,0.5,0.4,0.8,0.6,1.1
							C29.9,197.7,30.2,197.8,30.6,197.8z"/>
					</g>
				</g>
				<g>
					<g>
						<path class="st0" d="M16,158.7c-0.6,0-1.1-0.1-1.5-0.3c-0.4-0.2-0.8-0.5-1-0.8c-0.3-0.3-0.4-0.7-0.4-1.2h1.3
							c0,0.2,0.1,0.5,0.3,0.6c0.2,0.2,0.4,0.3,0.6,0.4s0.5,0.1,0.8,0.1c0.3,0,0.6-0.1,0.9-0.2c0.3-0.1,0.5-0.3,0.6-0.5
							c0.1-0.2,0.2-0.4,0.2-0.7c0-0.3-0.1-0.5-0.2-0.7s-0.4-0.4-0.6-0.5s-0.6-0.2-1-0.2h-0.7v-1h0.7c0.3,0,0.6-0.1,0.8-0.2
							c0.2-0.1,0.4-0.3,0.6-0.5c0.1-0.2,0.2-0.4,0.2-0.7c0-0.3-0.1-0.5-0.2-0.7c-0.1-0.2-0.3-0.3-0.5-0.5s-0.5-0.2-0.7-0.2
							c-0.3,0-0.5,0.1-0.8,0.2c-0.2,0.1-0.4,0.2-0.6,0.4c-0.1,0.2-0.2,0.4-0.2,0.7h-1.2c0-0.5,0.1-0.9,0.4-1.2
							c0.3-0.3,0.6-0.6,1-0.8c0.4-0.2,0.9-0.3,1.4-0.3c0.5,0,1,0.1,1.4,0.3c0.4,0.2,0.7,0.5,0.9,0.8c0.2,0.3,0.3,0.7,0.3,1.1
							c0,0.5-0.1,0.9-0.4,1.2c-0.3,0.3-0.6,0.5-1.1,0.7v0.1c0.6,0.1,1,0.3,1.3,0.7s0.5,0.8,0.5,1.3c0,0.5-0.1,0.9-0.4,1.2
							s-0.6,0.7-1.1,0.9C17.1,158.6,16.6,158.7,16,158.7z"/>
						<path class="st0" d="M23.3,158.7c-0.5,0-1-0.1-1.4-0.3c-0.4-0.2-0.7-0.5-1-0.8c-0.2-0.3-0.4-0.7-0.4-1.2h1.2
							c0,0.4,0.2,0.7,0.5,0.9c0.3,0.2,0.6,0.3,1,0.3c0.3,0,0.6-0.1,0.9-0.2c0.3-0.1,0.4-0.4,0.6-0.6c0.1-0.3,0.2-0.6,0.2-0.9
							c0-0.3-0.1-0.6-0.2-0.9c-0.1-0.3-0.4-0.5-0.6-0.6s-0.6-0.2-0.9-0.2c-0.3,0-0.5,0-0.8,0.1c-0.3,0.1-0.5,0.2-0.6,0.3l-1.2-0.2
							l0.5-4.2h4.6v1.1h-3.6l-0.3,2.4h0c0.2-0.2,0.4-0.3,0.7-0.4c0.3-0.1,0.6-0.2,0.9-0.2c0.5,0,1,0.1,1.4,0.4
							c0.4,0.2,0.7,0.6,0.9,1c0.2,0.4,0.3,0.9,0.3,1.4c0,0.5-0.1,1-0.4,1.5c-0.2,0.4-0.6,0.8-1,1C24.3,158.6,23.8,158.7,23.3,158.7z
							"/>
						<path class="st0" d="M30.6,158.8c-0.6,0-1.2-0.2-1.7-0.5c-0.5-0.3-0.8-0.8-1.1-1.5c-0.2-0.6-0.4-1.4-0.4-2.3
							c0-0.9,0.1-1.7,0.4-2.3c0.2-0.6,0.6-1.1,1.1-1.5c0.5-0.3,1-0.5,1.7-0.5s1.2,0.2,1.7,0.5c0.5,0.3,0.8,0.8,1.1,1.5
							c0.2,0.6,0.4,1.4,0.4,2.3c0,0.9-0.1,1.7-0.4,2.3c-0.2,0.6-0.6,1.1-1.1,1.5C31.8,158.6,31.2,158.8,30.6,158.8z M30.6,157.7
							c0.6,0,1-0.3,1.3-0.8c0.3-0.6,0.5-1.4,0.5-2.4c0-0.7-0.1-1.3-0.2-1.8c-0.1-0.5-0.4-0.8-0.6-1.1c-0.3-0.3-0.6-0.4-1-0.4
							c-0.6,0-1,0.3-1.3,0.8c-0.3,0.6-0.5,1.4-0.5,2.4c0,0.7,0.1,1.3,0.2,1.8c0.1,0.5,0.4,0.8,0.6,1.1
							C29.9,157.6,30.2,157.7,30.6,157.7z"/>
					</g>
				</g>
				<g>
					<g>
						<path class="st0" d="M12.5,116.9v-1l3.6-5.7h0.8v1.5h-0.5l-2.6,4.1v0.1h5v1.1H12.5z M16.5,118.5v-2l0-0.5v-6h1.2v8.4H16.5z"/>
						<path class="st0" d="M23.1,118.6c-0.6,0-1.2-0.2-1.7-0.5c-0.5-0.3-0.8-0.8-1.1-1.5c-0.2-0.6-0.4-1.4-0.4-2.3
							c0-0.9,0.1-1.7,0.4-2.3c0.2-0.6,0.6-1.1,1.1-1.5c0.5-0.3,1-0.5,1.7-0.5s1.2,0.2,1.7,0.5c0.5,0.3,0.8,0.8,1.1,1.5
							c0.2,0.6,0.4,1.4,0.4,2.3c0,0.9-0.1,1.7-0.4,2.3c-0.2,0.6-0.6,1.1-1.1,1.5C24.3,118.5,23.8,118.6,23.1,118.6z M23.1,117.5
							c0.6,0,1-0.3,1.3-0.8c0.3-0.6,0.5-1.4,0.5-2.4c0-0.7-0.1-1.3-0.2-1.8c-0.1-0.5-0.4-0.8-0.6-1.1c-0.3-0.3-0.6-0.4-1-0.4
							c-0.6,0-1,0.3-1.3,0.8c-0.3,0.6-0.5,1.4-0.5,2.4c0,0.7,0.1,1.3,0.2,1.8c0.1,0.5,0.4,0.8,0.6,1.1
							C22.4,117.4,22.8,117.5,23.1,117.5z"/>
						<path class="st0" d="M30.6,118.6c-0.6,0-1.2-0.2-1.7-0.5c-0.5-0.3-0.8-0.8-1.1-1.5c-0.2-0.6-0.4-1.4-0.4-2.3
							c0-0.9,0.1-1.7,0.4-2.3c0.2-0.6,0.6-1.1,1.1-1.5c0.5-0.3,1-0.5,1.7-0.5s1.2,0.2,1.7,0.5c0.5,0.3,0.8,0.8,1.1,1.5
							c0.2,0.6,0.4,1.4,0.4,2.3c0,0.9-0.1,1.7-0.4,2.3c-0.2,0.6-0.6,1.1-1.1,1.5C31.8,118.5,31.2,118.6,30.6,118.6z M30.6,117.5
							c0.6,0,1-0.3,1.3-0.8c0.3-0.6,0.5-1.4,0.5-2.4c0-0.7-0.1-1.3-0.2-1.8c-0.1-0.5-0.4-0.8-0.6-1.1c-0.3-0.3-0.6-0.4-1-0.4
							c-0.6,0-1,0.3-1.3,0.8c-0.3,0.6-0.5,1.4-0.5,2.4c0,0.7,0.1,1.3,0.2,1.8c0.1,0.5,0.4,0.8,0.6,1.1
							C29.9,117.4,30.2,117.5,30.6,117.5z"/>
					</g>
				</g>
				<g>
					<g>
						<path class="st0" d="M12.8,76.7v-1l3.6-5.7h0.8v1.5h-0.5l-2.6,4.1v0.1h5v1.1H12.8z M16.8,78.4v-2l0-0.5v-6H18v8.4H16.8z"/>
						<path class="st0" d="M23.3,78.5c-0.5,0-1-0.1-1.4-0.3c-0.4-0.2-0.7-0.5-1-0.8c-0.2-0.3-0.4-0.7-0.4-1.2h1.2
							c0,0.4,0.2,0.7,0.5,0.9c0.3,0.2,0.6,0.3,1,0.3c0.3,0,0.6-0.1,0.9-0.2c0.3-0.1,0.4-0.4,0.6-0.6c0.1-0.3,0.2-0.6,0.2-0.9
							c0-0.3-0.1-0.6-0.2-0.9c-0.1-0.3-0.4-0.5-0.6-0.6s-0.6-0.2-0.9-0.2c-0.3,0-0.5,0-0.8,0.1c-0.3,0.1-0.5,0.2-0.6,0.3l-1.2-0.2
							l0.5-4.2h4.6v1.1h-3.6l-0.3,2.4h0c0.2-0.2,0.4-0.3,0.7-0.4c0.3-0.1,0.6-0.2,0.9-0.2c0.5,0,1,0.1,1.4,0.4
							c0.4,0.2,0.7,0.6,0.9,1c0.2,0.4,0.3,0.9,0.3,1.4c0,0.5-0.1,1-0.4,1.5c-0.2,0.4-0.6,0.8-1,1C24.3,78.4,23.8,78.5,23.3,78.5z"/>
						<path class="st0" d="M30.6,78.5c-0.6,0-1.2-0.2-1.7-0.5c-0.5-0.3-0.8-0.8-1.1-1.5c-0.2-0.6-0.4-1.4-0.4-2.3
							c0-0.9,0.1-1.7,0.4-2.3c0.2-0.6,0.6-1.1,1.1-1.5c0.5-0.3,1-0.5,1.7-0.5s1.2,0.2,1.7,0.5c0.5,0.3,0.8,0.8,1.1,1.5
							c0.2,0.6,0.4,1.4,0.4,2.3c0,0.9-0.1,1.7-0.4,2.3c-0.2,0.6-0.6,1.1-1.1,1.5C31.8,78.3,31.2,78.5,30.6,78.5z M30.6,77.4
							c0.6,0,1-0.3,1.3-0.8c0.3-0.6,0.5-1.4,0.5-2.4c0-0.7-0.1-1.3-0.2-1.8c-0.1-0.5-0.4-0.8-0.6-1.1c-0.3-0.3-0.6-0.4-1-0.4
							c-0.6,0-1,0.3-1.3,0.8c-0.3,0.6-0.5,1.4-0.5,2.4c0,0.7,0.1,1.3,0.2,1.8c0.1,0.5,0.4,0.8,0.6,1.1
							C29.9,77.3,30.2,77.4,30.6,77.4z"/>
					</g>
				</g>
				<g>
					<g>
						<path class="st0" d="M15.8,38.4c-0.5,0-1-0.1-1.4-0.3c-0.4-0.2-0.7-0.5-1-0.8c-0.2-0.3-0.4-0.7-0.4-1.2h1.2
							c0,0.4,0.2,0.7,0.5,0.9c0.3,0.2,0.6,0.3,1,0.3c0.3,0,0.6-0.1,0.9-0.2c0.3-0.1,0.4-0.4,0.6-0.6s0.2-0.6,0.2-0.9
							c0-0.3-0.1-0.6-0.2-0.9c-0.1-0.3-0.4-0.5-0.6-0.6c-0.3-0.2-0.6-0.2-0.9-0.2c-0.3,0-0.5,0-0.8,0.1c-0.3,0.1-0.5,0.2-0.6,0.3
							l-1.2-0.2l0.5-4.2h4.6v1.1h-3.6l-0.3,2.4h0c0.2-0.2,0.4-0.3,0.7-0.4c0.3-0.1,0.6-0.2,0.9-0.2c0.5,0,1,0.1,1.4,0.4
							c0.4,0.2,0.7,0.6,0.9,1c0.2,0.4,0.3,0.9,0.3,1.4c0,0.5-0.1,1-0.4,1.5s-0.6,0.8-1,1C16.9,38.2,16.4,38.4,15.8,38.4z"/>
						<path class="st0" d="M23.1,38.4c-0.6,0-1.2-0.2-1.7-0.5c-0.5-0.3-0.8-0.8-1.1-1.5c-0.2-0.6-0.4-1.4-0.4-2.3
							c0-0.9,0.1-1.7,0.4-2.3c0.2-0.6,0.6-1.1,1.1-1.5c0.5-0.3,1-0.5,1.7-0.5s1.2,0.2,1.7,0.5c0.5,0.3,0.8,0.8,1.1,1.5
							c0.2,0.6,0.4,1.4,0.4,2.3c0,0.9-0.1,1.7-0.4,2.3c-0.2,0.6-0.6,1.1-1.1,1.5C24.3,38.2,23.8,38.4,23.1,38.4z M23.1,37.3
							c0.6,0,1-0.3,1.3-0.8c0.3-0.6,0.5-1.4,0.5-2.4c0-0.7-0.1-1.3-0.2-1.8c-0.1-0.5-0.4-0.8-0.6-1.1c-0.3-0.2-0.6-0.4-1-0.4
							c-0.6,0-1,0.3-1.3,0.8c-0.3,0.6-0.5,1.4-0.5,2.4c0,0.7,0.1,1.3,0.2,1.8c0.1,0.5,0.4,0.8,0.6,1.1
							C22.4,37.2,22.8,37.3,23.1,37.3z"/>
						<path class="st0" d="M30.6,38.4c-0.6,0-1.2-0.2-1.7-0.5c-0.5-0.3-0.8-0.8-1.1-1.5c-0.2-0.6-0.4-1.4-0.4-2.3
							c0-0.9,0.1-1.7,0.4-2.3c0.2-0.6,0.6-1.1,1.1-1.5c0.5-0.3,1-0.5,1.7-0.5s1.2,0.2,1.7,0.5c0.5,0.3,0.8,0.8,1.1,1.5
							c0.2,0.6,0.4,1.4,0.4,2.3c0,0.9-0.1,1.7-0.4,2.3c-0.2,0.6-0.6,1.1-1.1,1.5C31.8,38.2,31.2,38.4,30.6,38.4z M30.6,37.3
							c0.6,0,1-0.3,1.3-0.8c0.3-0.6,0.5-1.4,0.5-2.4c0-0.7-0.1-1.3-0.2-1.8c-0.1-0.5-0.4-0.8-0.6-1.1c-0.3-0.2-0.6-0.4-1-0.4
							c-0.6,0-1,0.3-1.3,0.8c-0.3,0.6-0.5,1.4-0.5,2.4c0,0.7,0.1,1.3,0.2,1.8c0.1,0.5,0.4,0.8,0.6,1.1
							C29.9,37.2,30.2,37.3,30.6,37.3z"/>
					</g>
				</g>
			</g>
			<line class="st1" x1="42.5" y1="439.5" x2="1052.1" y2="439.5"/>
		</g>
	</g>
</g>
<linearGradient id="SVGID_1_" gradientUnits="userSpaceOnUse" x1="539.2029" y1="804.3762" x2="539.2029" y2="1095.928" gradientTransform="matrix(1 0 0 -1 0 1248.1101)">
	<stop  offset="0" style="stop-color:#00C800"/>
	<stop  offset="0.1391" style="stop-color:#00C800"/>
	<stop  offset="0.1474" style="stop-color:#FFE12D"/>
	<stop  offset="0.3085" style="stop-color:#FFE12D"/>
	<stop  offset="0.3089" style="stop-color:#FF7E00"/>
	<stop  offset="0.4245" style="stop-color:#FF7E00"/>
	<stop  offset="0.442" style="stop-color:#FA0A00"/>
	<stop  offset="0.6641" style="stop-color:#FF0000"/>
	<stop  offset="0.6688" style="stop-color:#A715CB"/>
</linearGradient>
<path class="st4" d="M996.8,274.4l-75.6,18.4l-61.8,79.1l-24.5,2L809,415.6l-9.8,13l-14.1-8.5l-27.6-5.8l-11.1,7l-14.1-17.5
	l-12.9-39.5l-8.6-20.5l-14.1-59.7l-9.2-12.5l-15.4,54.7l-13.2-11l-10.2,13.3l-9.7-14.3l-14.2,96.6l-12.9,2l-12.3-11.5l-11.7,15
	l-11.1,19l-12.9-3.5l-10.5-11l-12.9-8l-13.5-11.5l-9.8,9.5l-19.7-5l-10.5,6.5l-12.3-97l-14,35.7l-8.2-32.7l-24.5,57.3l-9.3-2.2
	L408,384.1l-4.7,13.6l-11.7,10.5l-12.9-4.5l-12.9,13l-11.4-21.6l-13.8-26.3l-11.7-11.5l-10.5,23l-9.8,17.6l-17.6,9.2l-18.9-11.2
	l-6.6,5.4l-11.7,7l-11.1,3.5l-12.9-6l-14.1,11l-10.5-11l-9.8,8.5l-12.3-2.5l-12.9-6l-12.3,2.5l-11.7,3.5h-13.5l-14.1,5l-9.2-8.5
	l-14.1,3.5l-12.9,9"/>
<path class="st5" d="M1001.9,310.6L926.3,329l-58.5,15.3l-40.6,24.5l-27.6,1.5l-7.7,21.4l-17.6-6.1l-22.2,6.9l-9.2-19.1l-19.1-47.5
	l-10-45.2l-26.6-36.2l-15.4,54.7l-9.1,6.8l-11,34.2l-22.7,15.3l-29.7,18.6l-11.7,15l-11.1,19l-12.9-3.5l-10.5-11l-12.9-8l-16.4,3.9
	L504,378.8l-23.7-82.7L455,273.8l-27.1,74.6l-19.9,8.6l-4.7,13.6l-11.7,10.5l-12.9-4.5L353.9,411l-14.6-20.7l-5.4-18.4L318.9,344
	l-10.5,23l-12.8-14.3l-8.4,12l-13.8,17.9l-18.4,6.9L230,422l-12.9-6L203,427l-20.3-2.5l-11.5-27.9l-12.9-6l-24,6l-13.4,5.3
	l-23.4-3.5L70.5,411"/>
<g>
	<g>
		
			<image style="overflow:visible;opacity:0.3;" width="85" height="23" xlink:href="5E14C2B8.png"  transform="matrix(1 0 0 1 985.5 316.5)">
		</image>
		<g>
			<path class="st6" d="M1057.7,331.6h-62.1c-3.6,0-6.5-2.9-6.5-6.5v0c0-3.6,2.9-6.5,6.5-6.5h62.1c3.6,0,6.5,2.9,6.5,6.5v0
				C1064.2,328.6,1061.3,331.6,1057.7,331.6z"/>
		</g>
	</g>
	<g>
		<g>
			<path class="st0" d="M1005.3,329.1h-1.3l2.9-8.1h1.4l2.9,8.1h-1.3l-2.3-6.6h-0.1L1005.3,329.1z M1005.6,326h4.2v1h-4.2V326z"/>
			<path class="st0" d="M1013.5,321.1v8.1h-1.2v-8.1H1013.5z"/>
			<path class="st0" d="M1018.1,329.1v-8.1h1.2v3.9h0.1l3.4-3.9h1.5l-3.3,3.6l3.3,4.4h-1.5l-2.6-3.6l-1,1.1v2.5H1018.1z"/>
			<path class="st0" d="M1028,329.3c-0.6,0-1.1-0.1-1.5-0.4c-0.4-0.3-0.8-0.6-1-1.1c-0.2-0.5-0.4-1-0.4-1.6c0-0.6,0.1-1.2,0.4-1.6
				c0.2-0.5,0.6-0.8,1-1.1c0.4-0.3,0.9-0.4,1.5-0.4s1.1,0.1,1.5,0.4c0.4,0.3,0.8,0.6,1,1.1c0.2,0.5,0.4,1,0.4,1.6
				c0,0.6-0.1,1.2-0.4,1.6c-0.2,0.5-0.6,0.8-1,1.1C1029,329.1,1028.5,329.3,1028,329.3z M1028,328.3c0.4,0,0.7-0.1,0.9-0.3
				c0.2-0.2,0.4-0.5,0.5-0.8c0.1-0.3,0.2-0.7,0.2-1.1c0-0.4-0.1-0.7-0.2-1.1c-0.1-0.3-0.3-0.6-0.5-0.8c-0.2-0.2-0.5-0.3-0.9-0.3
				c-0.4,0-0.7,0.1-0.9,0.3c-0.2,0.2-0.4,0.5-0.5,0.8c-0.1,0.3-0.2,0.7-0.2,1.1c0,0.4,0.1,0.7,0.2,1.1c0.1,0.3,0.3,0.6,0.5,0.8
				C1027.3,328.2,1027.6,328.3,1028,328.3z"/>
			<path class="st0" d="M1035.9,326.6v-3.5h1.2v6.1h-1.2v-1h-0.1c-0.1,0.3-0.4,0.6-0.7,0.8c-0.3,0.2-0.7,0.3-1.1,0.3
				c-0.4,0-0.7-0.1-1-0.3c-0.3-0.2-0.5-0.4-0.7-0.8c-0.2-0.3-0.3-0.8-0.3-1.3v-3.9h1.2v3.7c0,0.4,0.1,0.7,0.3,1
				c0.2,0.2,0.5,0.4,0.9,0.4c0.2,0,0.4-0.1,0.7-0.2s0.4-0.3,0.5-0.5C1035.9,327.3,1035.9,327,1035.9,326.6z"/>
			<path class="st0" d="M1041,329.3c-0.5,0-0.9-0.1-1.3-0.4c-0.4-0.3-0.7-0.6-0.9-1.1c-0.2-0.5-0.3-1-0.3-1.7s0.1-1.2,0.3-1.7
				c0.2-0.5,0.5-0.8,0.9-1.1s0.8-0.4,1.3-0.4c0.4,0,0.7,0.1,0.9,0.2c0.2,0.1,0.4,0.3,0.5,0.4c0.1,0.2,0.2,0.3,0.3,0.4h0.1v-3h1.2
				v8.1h-1.2v-0.9h-0.1c-0.1,0.1-0.2,0.3-0.3,0.4c-0.1,0.2-0.3,0.3-0.5,0.4C1041.6,329.2,1041.3,329.3,1041,329.3z M1041.2,328.3
				c0.3,0,0.6-0.1,0.9-0.3c0.2-0.2,0.4-0.4,0.5-0.8c0.1-0.3,0.2-0.7,0.2-1.1c0-0.4-0.1-0.8-0.2-1.1s-0.3-0.6-0.5-0.7
				c-0.2-0.2-0.5-0.3-0.9-0.3c-0.4,0-0.7,0.1-0.9,0.3c-0.2,0.2-0.4,0.4-0.5,0.8c-0.1,0.3-0.2,0.7-0.2,1.1c0,0.4,0.1,0.8,0.2,1.1
				c0.1,0.3,0.3,0.6,0.5,0.8C1040.6,328.2,1040.9,328.3,1041.2,328.3z"/>
			<path class="st0" d="M1046.8,325.5v3.6h-1.2v-8.1h1.2v3h0.1c0.1-0.3,0.4-0.6,0.7-0.8c0.3-0.2,0.7-0.3,1.1-0.3
				c0.4,0,0.8,0.1,1.1,0.3s0.6,0.4,0.7,0.8c0.2,0.3,0.3,0.8,0.3,1.3v3.9h-1.2v-3.7c0-0.4-0.1-0.8-0.3-1s-0.5-0.4-1-0.4
				c-0.3,0-0.5,0.1-0.7,0.2s-0.4,0.3-0.5,0.5S1046.8,325.2,1046.8,325.5z"/>
		</g>
	</g>
</g>
<g>
	<g>
		
			<image style="overflow:visible;opacity:0.3;" width="63" height="23" xlink:href="5E14C2B9.png"  transform="matrix(1 0 0 1 985.5 251.5)">
		</image>
		<g>
			<path class="st6" d="M1036.2,266.1h-40.6c-3.6,0-6.5-2.9-6.5-6.5v0c0-3.6,2.9-6.5,6.5-6.5h40.6c3.6,0,6.5,2.9,6.5,6.5v0
				C1042.7,263.2,1039.8,266.1,1036.2,266.1z"/>
		</g>
	</g>
	<g>
		<g>
			<path class="st0" d="M1007,255.5v8.1h-1.1l-4.1-5.9h-0.1v5.9h-1.2v-8.1h1.1l4.1,5.9h0.1v-5.9H1007z"/>
			<path class="st0" d="M1009.3,256.6c-0.2,0-0.4-0.1-0.5-0.2s-0.2-0.3-0.2-0.5c0-0.2,0.1-0.4,0.2-0.5s0.3-0.2,0.5-0.2
				s0.4,0.1,0.5,0.2c0.1,0.1,0.2,0.3,0.2,0.5c0,0.2-0.1,0.4-0.2,0.5C1009.6,256.5,1009.5,256.6,1009.3,256.6z M1008.7,263.6v-6.1
				h1.2v6.1H1008.7z"/>
			<path class="st0" d="M1011.3,263.6v-0.8l3.3-4.2v-0.1h-3.2v-1h4.6v0.9l-3.2,4.1v0.1h3.3v1H1011.3z"/>
			<path class="st0" d="M1018.9,263.6l-1.8-6.1h1.2l1.2,4.4h0.1l1.2-4.4h1.2l1.2,4.4h0.1l1.2-4.4h1.2l-1.8,6.1h-1.2l-1.2-4.4h-0.1
				l-1.2,4.4H1018.9z"/>
			<path class="st0" d="M1028.5,263.7c-0.4,0-0.7-0.1-1-0.2c-0.3-0.1-0.6-0.4-0.7-0.6c-0.2-0.3-0.3-0.6-0.3-1c0-0.3,0.1-0.6,0.2-0.8
				c0.1-0.2,0.3-0.4,0.5-0.5c0.2-0.1,0.5-0.2,0.7-0.3c0.3-0.1,0.6-0.1,0.8-0.2c0.4,0,0.7-0.1,0.9-0.1c0.2,0,0.4-0.1,0.5-0.1
				s0.2-0.2,0.2-0.3v0c0-0.3-0.1-0.6-0.3-0.8c-0.2-0.2-0.5-0.3-0.9-0.3c-0.4,0-0.7,0.1-0.9,0.3s-0.4,0.4-0.5,0.6l-1.1-0.3
				c0.1-0.4,0.3-0.7,0.6-0.9c0.3-0.2,0.5-0.4,0.9-0.5c0.3-0.1,0.7-0.2,1-0.2c0.2,0,0.5,0,0.8,0.1c0.3,0.1,0.5,0.2,0.8,0.3
				c0.2,0.1,0.4,0.4,0.6,0.6s0.2,0.6,0.2,1.1v4h-1.2v-0.8h0c-0.1,0.2-0.2,0.3-0.3,0.4c-0.2,0.1-0.3,0.3-0.6,0.4
				C1029.1,263.7,1028.8,263.7,1028.5,263.7z M1028.7,262.8c0.3,0,0.6-0.1,0.8-0.2s0.4-0.3,0.5-0.5s0.2-0.4,0.2-0.7v-0.8
				c0,0-0.1,0.1-0.2,0.1c-0.1,0-0.3,0.1-0.4,0.1c-0.2,0-0.3,0-0.4,0.1s-0.3,0-0.4,0c-0.2,0-0.4,0.1-0.6,0.1
				c-0.2,0.1-0.3,0.2-0.4,0.3c-0.1,0.1-0.2,0.3-0.2,0.5c0,0.3,0.1,0.5,0.3,0.7C1028.1,262.7,1028.4,262.8,1028.7,262.8z"/>
		</g>
	</g>
</g>
</svg>
