<?xml version="1.0" encoding="utf-8"?>
<!-- Generator: Adobe Illustrator 28.1.0, SVG Export Plug-In . SVG Version: 6.00 Build 0)  -->
<svg version="1.1" id="Layer_1" xmlns="http://www.w3.org/2000/svg" xmlns:xlink="http://www.w3.org/1999/xlink" x="0px" y="0px"
	 viewBox="0 0 290 43" style="enable-background:new 0 0 290 43;" xml:space="preserve">
<style type="text/css">
	.st0{fill:#25B5B1;stroke:#E7E7E7;stroke-width:2.2398;stroke-miterlimit:10;}
	.st1{fill:#FFFFFF;}
	.st2{fill:none;stroke:#FFFFFF;stroke-width:1.1199;stroke-miterlimit:10;}
</style>
<g>
	<path class="st0" d="M270.4,37.5H19.6c-7.4,0-13.4-6-13.4-13.4v-5.1c0-7.4,6-13.4,13.4-13.4h250.9c7.4,0,13.4,6,13.4,13.4v5.1
		C283.9,31.5,277.8,37.5,270.4,37.5z"/>
	<g>
		<g>
			<g>
				<g>
					<g>
						<g>
							<g>
								<path class="st1" d="M37.1,18.5H35c-0.1-0.5-0.2-0.8-0.5-1.2c-0.2-0.3-0.5-0.6-0.8-0.9c-0.3-0.2-0.7-0.4-1.1-0.5
									s-0.8-0.2-1.3-0.2c-0.8,0-1.5,0.2-2.1,0.6c-0.6,0.4-1.1,1-1.5,1.8c-0.4,0.8-0.5,1.7-0.5,2.8c0,1.1,0.2,2.1,0.5,2.9
									c0.4,0.8,0.9,1.4,1.5,1.8c0.6,0.4,1.3,0.6,2.1,0.6c0.4,0,0.9-0.1,1.2-0.2c0.4-0.1,0.8-0.3,1.1-0.5c0.3-0.2,0.6-0.5,0.8-0.9
									c0.2-0.3,0.4-0.7,0.5-1.2l2.1,0c-0.1,0.7-0.3,1.3-0.7,1.9s-0.7,1.1-1.2,1.5c-0.5,0.4-1.1,0.7-1.7,1
									c-0.6,0.2-1.3,0.3-2.1,0.3c-1.2,0-2.3-0.3-3.2-0.9c-0.9-0.6-1.7-1.4-2.2-2.5c-0.5-1.1-0.8-2.3-0.8-3.8
									c0-1.5,0.3-2.7,0.8-3.8c0.5-1.1,1.3-1.9,2.2-2.4s2-0.9,3.2-0.9c0.7,0,1.4,0.1,2.1,0.3c0.6,0.2,1.2,0.5,1.7,0.9
									c0.5,0.4,0.9,0.9,1.3,1.5C36.8,17.1,37,17.8,37.1,18.5z"/>
								<path class="st1" d="M43.8,28.1c-1,0-1.8-0.2-2.5-0.7c-0.7-0.4-1.3-1.1-1.7-1.9S39,23.8,39,22.7c0-1.1,0.2-2,0.6-2.8
									c0.4-0.8,1-1.4,1.7-1.9s1.6-0.7,2.5-0.7s1.8,0.2,2.5,0.7s1.3,1.1,1.7,1.9c0.4,0.8,0.6,1.7,0.6,2.8c0,1.1-0.2,2-0.6,2.8
									c-0.4,0.8-1,1.4-1.7,1.9C45.7,27.9,44.8,28.1,43.8,28.1z M43.8,26.4c0.6,0,1.2-0.2,1.6-0.5c0.4-0.3,0.7-0.8,0.9-1.3
									c0.2-0.6,0.3-1.2,0.3-1.8c0-0.7-0.1-1.3-0.3-1.8c-0.2-0.6-0.5-1-0.9-1.3c-0.4-0.3-0.9-0.5-1.6-0.5c-0.6,0-1.2,0.2-1.6,0.5
									c-0.4,0.3-0.7,0.8-0.9,1.3c-0.2,0.6-0.3,1.2-0.3,1.8c0,0.7,0.1,1.3,0.3,1.8c0.2,0.6,0.5,1,0.9,1.3S43.2,26.4,43.8,26.4z"/>
								<path class="st1" d="M50.9,27.9V17.5h1.9v1.7H53c0.2-0.6,0.6-1,1.1-1.3c0.5-0.3,1.1-0.5,1.8-0.5c0.7,0,1.3,0.2,1.7,0.5
									c0.5,0.3,0.8,0.8,1,1.3h0.1c0.2-0.6,0.6-1,1.2-1.3c0.5-0.3,1.2-0.5,1.9-0.5c0.9,0,1.7,0.3,2.3,0.9c0.6,0.6,0.9,1.5,0.9,2.7
									v7h-2v-6.8c0-0.7-0.2-1.2-0.6-1.5c-0.4-0.3-0.8-0.5-1.4-0.5c-0.7,0-1.2,0.2-1.5,0.6c-0.4,0.4-0.5,0.9-0.5,1.6v6.6h-2V21
									c0-0.6-0.2-1-0.5-1.4c-0.4-0.3-0.8-0.5-1.4-0.5c-0.4,0-0.7,0.1-1.1,0.3s-0.6,0.5-0.8,0.8c-0.2,0.4-0.3,0.8-0.3,1.2v6.4H50.9
									z"/>
								<path class="st1" d="M67.7,31.8V17.5h2v1.7h0.2c0.1-0.2,0.3-0.5,0.5-0.8c0.2-0.3,0.5-0.5,0.9-0.7c0.4-0.2,0.9-0.3,1.6-0.3
									c0.8,0,1.6,0.2,2.2,0.6c0.7,0.4,1.2,1,1.6,1.8c0.4,0.8,0.6,1.8,0.6,2.9c0,1.1-0.2,2.1-0.6,2.9c-0.4,0.8-0.9,1.4-1.5,1.8
									c-0.7,0.4-1.4,0.6-2.2,0.6c-0.6,0-1.1-0.1-1.5-0.3c-0.4-0.2-0.7-0.5-0.9-0.7c-0.2-0.3-0.4-0.5-0.5-0.8h-0.1v5.5H67.7z
									 M69.7,22.7c0,0.7,0.1,1.4,0.3,1.9c0.2,0.6,0.5,1,0.9,1.3c0.4,0.3,0.9,0.5,1.5,0.5c0.6,0,1.1-0.2,1.5-0.5s0.7-0.8,0.9-1.3
									c0.2-0.6,0.3-1.2,0.3-1.9c0-0.7-0.1-1.3-0.3-1.8s-0.5-1-0.9-1.3c-0.4-0.3-0.9-0.5-1.5-0.5c-0.6,0-1.1,0.2-1.5,0.5
									c-0.4,0.3-0.7,0.7-0.9,1.3C69.8,21.3,69.7,22,69.7,22.7z"/>
								<path class="st1" d="M82.5,28.1c-0.7,0-1.3-0.1-1.8-0.4c-0.5-0.2-1-0.6-1.3-1.1S79,25.6,79,25c0-0.6,0.1-1.1,0.3-1.4
									c0.2-0.4,0.5-0.7,0.9-0.9c0.4-0.2,0.8-0.4,1.3-0.5c0.5-0.1,1-0.2,1.4-0.3c0.6-0.1,1.1-0.1,1.5-0.2c0.4,0,0.7-0.1,0.8-0.2
									c0.2-0.1,0.3-0.3,0.3-0.5v0c0-0.6-0.2-1-0.5-1.4S84.3,19,83.6,19c-0.7,0-1.2,0.1-1.6,0.4s-0.7,0.6-0.8,1L79.3,20
									c0.2-0.6,0.6-1.1,1-1.5c0.4-0.4,0.9-0.7,1.5-0.9c0.6-0.2,1.2-0.3,1.8-0.3c0.4,0,0.9,0,1.3,0.1c0.5,0.1,0.9,0.3,1.3,0.5
									s0.7,0.6,1,1.1c0.3,0.5,0.4,1.1,0.4,1.8v6.9h-2v-1.4h-0.1c-0.1,0.3-0.3,0.5-0.6,0.8s-0.6,0.5-1,0.6
									C83.6,28,83.1,28.1,82.5,28.1z M83,26.5c0.6,0,1-0.1,1.4-0.3c0.4-0.2,0.7-0.5,0.9-0.9s0.3-0.7,0.3-1.2v-1.3
									c-0.1,0.1-0.2,0.1-0.4,0.2c-0.2,0.1-0.4,0.1-0.7,0.2c-0.3,0-0.5,0.1-0.8,0.1s-0.5,0.1-0.6,0.1c-0.4,0-0.7,0.1-1.1,0.2
									c-0.3,0.1-0.6,0.3-0.8,0.5S81,24.6,81,25c0,0.5,0.2,0.9,0.6,1.1C81.9,26.4,82.4,26.5,83,26.5z"/>
								<path class="st1" d="M90.3,27.9V17.5h2v1.6h0.1c0.2-0.6,0.5-1,1-1.3c0.5-0.3,1-0.5,1.6-0.5c0.1,0,0.3,0,0.4,0
									c0.2,0,0.3,0,0.4,0v1.9c-0.1,0-0.2,0-0.4-0.1s-0.4,0-0.6,0c-0.5,0-0.9,0.1-1.3,0.3c-0.4,0.2-0.7,0.5-0.9,0.8
									c-0.2,0.4-0.3,0.8-0.3,1.2v6.3H90.3z"/>
								<path class="st1" d="M102.1,28.1c-1,0-1.9-0.2-2.6-0.7c-0.7-0.4-1.3-1.1-1.7-1.9c-0.4-0.8-0.6-1.7-0.6-2.8
									c0-1.1,0.2-2,0.6-2.8c0.4-0.8,1-1.4,1.7-1.9c0.7-0.5,1.6-0.7,2.5-0.7c0.6,0,1.2,0.1,1.7,0.3s1,0.5,1.5,0.9s0.8,1,1,1.6
									c0.3,0.7,0.4,1.5,0.4,2.4v0.7h-8.3v-1.5h6.3c0-0.5-0.1-1-0.3-1.4c-0.2-0.4-0.5-0.7-0.9-1c-0.4-0.2-0.8-0.4-1.4-0.4
									c-0.6,0-1.1,0.1-1.5,0.4c-0.4,0.3-0.7,0.6-1,1.1c-0.2,0.4-0.3,0.9-0.3,1.4v1.2c0,0.7,0.1,1.3,0.4,1.8c0.2,0.5,0.6,0.9,1,1.1
									c0.4,0.3,1,0.4,1.5,0.4c0.4,0,0.7-0.1,1-0.2s0.6-0.3,0.8-0.5c0.2-0.2,0.4-0.5,0.5-0.8l1.9,0.3c-0.2,0.6-0.4,1.1-0.8,1.5
									c-0.4,0.4-0.9,0.7-1.5,1S102.9,28.1,102.1,28.1z"/>
							</g>
						</g>
					</g>
				</g>
				<g>
					<g>
						<path class="st2" d="M262.2,18c-0.5,0-0.8,0.6-0.5,1l4.1,5.7c0.3,0.4,0.8,0.4,1.1,0L271,19c0.3-0.4,0-1-0.5-1"/>
					</g>
				</g>
			</g>
		</g>
	</g>
</g>
</svg>
