<?xml version="1.0" encoding="utf-8"?>
<!-- Generator: Adobe Illustrator 28.1.0, SVG Export Plug-In . SVG Version: 6.00 Build 0)  -->
<svg version="1.1" id="Layer_1" xmlns="http://www.w3.org/2000/svg" xmlns:xlink="http://www.w3.org/1999/xlink" x="0px" y="0px"
	 viewBox="0 0 408 304" style="enable-background:new 0 0 408 304;" xml:space="preserve">
<style type="text/css">
	.st0{fill:#FFFFFF;}
	.st1{fill:none;stroke:#25B5B1;stroke-width:0.8;stroke-miterlimit:10;}
	.st2{fill:#888888;}
	.st3{fill:#4F4F4F;}
	.st4{fill:none;stroke:#E7E7E7;}
	.st5{fill:#E7E7E7;}
	.st6{fill:#25B5B1;}
	.st7{fill:none;stroke:#4F4F4F;stroke-width:1.4144;stroke-miterlimit:10;}
</style>
<g>
	<g>
		<g>
			<g>
				<g>
					<g>
						<path class="st0" d="M396.4,296.1H11.5c-2.4,0-4.4-2-4.4-4.4V12.3c0-2.4,2-4.4,4.4-4.4h384.9c2.4,0,4.4,2,4.4,4.4v279.3
							C400.8,294.1,398.9,296.1,396.4,296.1z"/>
						<path class="st1" d="M396.4,296.1H11.5c-2.4,0-4.4-2-4.4-4.4V12.3c0-2.4,2-4.4,4.4-4.4h384.9c2.4,0,4.4,2,4.4,4.4v279.3
							C400.8,294.1,398.9,296.1,396.4,296.1z"/>
					</g>
					<g>
						<path class="st2" d="M49.5,64.9h-1.7L51.7,54h1.9l3.9,10.9h-1.7L52.6,56h-0.1L49.5,64.9z M49.8,60.6h5.7V62h-5.7V60.6z"/>
						<path class="st2" d="M59.7,55.5c-0.3,0-0.5-0.1-0.7-0.3s-0.3-0.4-0.3-0.7s0.1-0.5,0.3-0.7s0.4-0.3,0.7-0.3s0.5,0.1,0.7,0.3
							s0.3,0.4,0.3,0.7s-0.1,0.5-0.3,0.7S60,55.5,59.7,55.5z M58.9,64.9v-8.2h1.6v8.2H58.9z"/>
						<path class="st2" d="M62.7,64.9v-8.2h1.5V58h0.1c0.1-0.4,0.4-0.8,0.8-1s0.8-0.4,1.3-0.4c0.1,0,0.2,0,0.4,0c0.1,0,0.2,0,0.3,0
							v1.5c-0.1,0-0.2,0-0.3-0.1c-0.2,0-0.3,0-0.5,0c-0.4,0-0.7,0.1-1,0.2c-0.3,0.2-0.5,0.4-0.7,0.7s-0.3,0.6-0.3,1v5H62.7z"/>
						<path class="st2" d="M82,59.5c0,1.2-0.2,2.2-0.6,3s-1,1.5-1.8,1.9c-0.7,0.4-1.6,0.7-2.5,0.7s-1.8-0.2-2.5-0.7
							c-0.7-0.4-1.3-1.1-1.7-1.9c-0.4-0.8-0.6-1.8-0.6-3s0.2-2.2,0.6-3s1-1.5,1.7-1.9s1.6-0.7,2.5-0.7s1.8,0.2,2.5,0.7
							s1.3,1.1,1.8,1.9C81.8,57.3,82,58.3,82,59.5z M80.4,59.5c0-0.9-0.1-1.6-0.4-2.2c-0.3-0.6-0.7-1.1-1.2-1.4
							c-0.5-0.3-1.1-0.5-1.7-0.5s-1.2,0.2-1.7,0.5s-0.9,0.8-1.2,1.4c-0.3,0.6-0.4,1.4-0.4,2.2s0.1,1.6,0.4,2.2
							c0.3,0.6,0.7,1.1,1.2,1.4c0.5,0.3,1.1,0.5,1.7,0.5s1.2-0.2,1.7-0.5s0.9-0.8,1.2-1.4C80.2,61.1,80.4,60.4,80.4,59.5z
							 M76.5,61.4h1.6l1.1,1.5l0.5,0.7l1.8,2.4H80l-1.2-1.6l-0.4-0.6L76.5,61.4z"/>
						<path class="st2" d="M89.1,61.5v-4.8h1.6v8.2h-1.6v-1.4H89c-0.2,0.4-0.5,0.8-0.9,1.1S87.2,65,86.6,65c-0.5,0-1-0.1-1.4-0.3
							c-0.4-0.2-0.7-0.6-0.9-1c-0.2-0.5-0.3-1-0.3-1.7v-5.2h1.6v5c0,0.6,0.2,1,0.5,1.3s0.7,0.5,1.2,0.5c0.3,0,0.6-0.1,0.9-0.2
							c0.3-0.1,0.5-0.4,0.7-0.7C89,62.4,89.1,62,89.1,61.5z"/>
						<path class="st2" d="M95.2,65.1c-0.5,0-1-0.1-1.4-0.3c-0.4-0.2-0.8-0.5-1-0.8c-0.2-0.4-0.4-0.8-0.4-1.4c0-0.5,0.1-0.8,0.3-1.1
							s0.4-0.5,0.7-0.7c0.3-0.2,0.6-0.3,1-0.4c0.4-0.1,0.8-0.2,1.1-0.2c0.5-0.1,0.9-0.1,1.2-0.1c0.3,0,0.5-0.1,0.7-0.2
							c0.1-0.1,0.2-0.2,0.2-0.4l0,0c0-0.5-0.1-0.8-0.4-1.1S96.5,58,96,58s-1,0.1-1.3,0.4s-0.5,0.5-0.6,0.8l-1.5-0.3
							c0.2-0.5,0.4-0.9,0.8-1.2c0.3-0.3,0.7-0.5,1.2-0.7c0.4-0.1,0.9-0.2,1.4-0.2c0.3,0,0.7,0,1,0.1s0.7,0.2,1,0.4s0.6,0.5,0.8,0.9
							c0.2,0.4,0.3,0.9,0.3,1.5v5.4h-1.6V64h-0.1c-0.1,0.2-0.3,0.4-0.5,0.6s-0.5,0.4-0.8,0.5S95.7,65.1,95.2,65.1z M95.6,63.8
							c0.4,0,0.8-0.1,1.1-0.3c0.3-0.2,0.6-0.4,0.7-0.7c0.2-0.3,0.2-0.6,0.2-0.9v-1.1c-0.1,0.1-0.2,0.1-0.3,0.2s-0.3,0.1-0.6,0.1
							c-0.2,0-0.4,0.1-0.6,0.1s-0.4,0-0.5,0.1c-0.3,0-0.6,0.1-0.8,0.2s-0.5,0.2-0.6,0.4C94,62.1,94,62.3,94,62.6
							c0,0.4,0.1,0.7,0.4,0.9S95.1,63.8,95.6,63.8z"/>
						<path class="st2" d="M103,54v10.9h-1.6V54H103z"/>
						<path class="st2" d="M105.9,55.5c-0.3,0-0.5-0.1-0.7-0.3s-0.3-0.4-0.3-0.7s0.1-0.5,0.3-0.7c0.2-0.2,0.4-0.3,0.7-0.3
							s0.5,0.1,0.7,0.3s0.3,0.4,0.3,0.7s-0.1,0.5-0.3,0.7C106.4,55.4,106.2,55.5,105.9,55.5z M105.1,64.9v-8.2h1.6v8.2H105.1z"/>
						<path class="st2" d="M112.7,56.7V58h-4.5v-1.3H112.7z M109.4,54.8h1.6v7.7c0,0.3,0,0.5,0.1,0.7s0.2,0.3,0.4,0.3
							c0.1,0.1,0.3,0.1,0.5,0.1c0.1,0,0.2,0,0.3,0c0.1,0,0.2,0,0.2,0l0.3,1.3c-0.1,0-0.2,0.1-0.4,0.1c-0.2,0-0.4,0.1-0.6,0.1
							c-0.4,0-0.8-0.1-1.2-0.2c-0.4-0.2-0.7-0.4-0.9-0.7c-0.2-0.3-0.3-0.7-0.3-1.2V54.8z"/>
						<path class="st2" d="M115.4,68c-0.2,0-0.5,0-0.6-0.1s-0.3-0.1-0.4-0.1l0.4-1.3c0.3,0.1,0.5,0.1,0.8,0.1s0.4-0.1,0.6-0.3
							c0.2-0.2,0.3-0.4,0.5-0.8l0.2-0.5l-3-8.3h1.7l2.1,6.3h0.1l2.1-6.3h1.7L118,66c-0.2,0.4-0.4,0.8-0.6,1.1
							c-0.2,0.3-0.5,0.5-0.9,0.7C116.3,67.9,115.9,68,115.4,68z"/>
						<path class="st2" d="M128.7,54v10.9H127V54H128.7z"/>
						<path class="st2" d="M132.5,60.1V65h-1.6v-8.2h1.5v1.3h0.1c0.2-0.4,0.5-0.8,0.9-1c0.4-0.3,0.9-0.4,1.5-0.4s1,0.1,1.5,0.3
							s0.7,0.6,1,1s0.3,1,0.3,1.7v5.2h-1.6v-5c0-0.6-0.2-1.1-0.5-1.4S135,58,134.4,58c-0.4,0-0.7,0.1-1,0.2
							c-0.3,0.2-0.5,0.4-0.7,0.7C132.6,59.3,132.5,59.6,132.5,60.1z"/>
						<path class="st2" d="M143,65.1c-0.7,0-1.2-0.2-1.8-0.5c-0.5-0.3-0.9-0.8-1.2-1.5s-0.4-1.4-0.4-2.3c0-0.9,0.1-1.6,0.4-2.3
							c0.3-0.6,0.7-1.1,1.2-1.4s1.1-0.5,1.8-0.5c0.5,0,0.9,0.1,1.2,0.3s0.6,0.4,0.7,0.6s0.3,0.4,0.4,0.6h0.1V54h1.6v10.9h-1.6v-1.3
							h-0.1c-0.1,0.2-0.2,0.4-0.4,0.6c-0.2,0.2-0.4,0.4-0.7,0.6S143.5,65.1,143,65.1z M143.3,63.7c0.5,0,0.8-0.1,1.2-0.4
							c0.3-0.2,0.6-0.6,0.7-1c0.2-0.4,0.2-0.9,0.2-1.5s-0.1-1.1-0.2-1.5c-0.2-0.4-0.4-0.8-0.7-1s-0.7-0.4-1.2-0.4s-0.9,0.1-1.2,0.4
							c-0.3,0.2-0.6,0.6-0.7,1c-0.2,0.4-0.2,0.9-0.2,1.5c0,0.5,0.1,1,0.2,1.5c0.2,0.4,0.4,0.8,0.7,1
							C142.4,63.6,142.8,63.7,143.3,63.7z"/>
						<path class="st2" d="M152.8,65.1c-0.8,0-1.5-0.2-2.1-0.5s-1-0.8-1.3-1.5c-0.3-0.6-0.5-1.4-0.5-2.2s0.2-1.6,0.5-2.2
							c0.3-0.6,0.8-1.1,1.3-1.5c0.6-0.4,1.2-0.5,2-0.5c0.5,0,0.9,0.1,1.3,0.2c0.4,0.2,0.8,0.4,1.2,0.7c0.3,0.3,0.6,0.8,0.8,1.3
							s0.3,1.2,0.3,1.9v0.6h-6.5v-1.2h4.9c0-0.4-0.1-0.8-0.3-1.1s-0.4-0.6-0.7-0.8S153,58,152.6,58c-0.4,0-0.8,0.1-1.2,0.3
							s-0.6,0.5-0.8,0.9s-0.3,0.7-0.3,1.1v0.9c0,0.5,0.1,1,0.3,1.4s0.5,0.7,0.8,0.9s0.8,0.3,1.2,0.3c0.3,0,0.6,0,0.8-0.1
							s0.5-0.2,0.6-0.4c0.2-0.2,0.3-0.4,0.4-0.6l1.5,0.3c-0.1,0.4-0.3,0.8-0.6,1.2c-0.3,0.3-0.7,0.6-1.2,0.8
							C153.9,65,153.4,65.1,152.8,65.1z"/>
						<path class="st2" d="M159.3,56.7l1.8,3.2l1.8-3.2h1.7l-2.6,4.1l2.6,4.1H163l-1.8-3.1l-1.8,3.1h-1.7l2.5-4.1l-2.5-4.1
							C157.7,56.7,159.3,56.7,159.3,56.7z"/>
						<path class="st2" d="M48.6,101.9V91h3.9c0.8,0,1.6,0.2,2.1,0.5c0.6,0.3,1,0.7,1.3,1.3c0.3,0.5,0.4,1.1,0.4,1.8
							c0,0.7-0.1,1.3-0.4,1.8c-0.3,0.5-0.7,1-1.3,1.3s-1.3,0.5-2.1,0.5h-2.7v-1.4h2.5c0.5,0,1-0.1,1.3-0.3c0.3-0.2,0.6-0.4,0.7-0.8
							s0.2-0.7,0.2-1.1s-0.1-0.8-0.2-1.1c-0.2-0.3-0.4-0.6-0.7-0.8c-0.3-0.2-0.8-0.3-1.3-0.3h-2.1v9.5H48.6z"/>
						<path class="st2" d="M58.1,91h2l3.5,8.5h0.1l3.5-8.5h2v10.9h-1.6V94h-0.1l-3.2,7.9H63L59.8,94h-0.1v7.9h-1.6
							C58.1,101.9,58.1,91,58.1,91z"/>
						<path class="st2" d="M71.3,103.9v-1l3.2-3.3c0.3-0.4,0.6-0.7,0.8-0.9c0.2-0.3,0.4-0.5,0.5-0.8c0.1-0.2,0.2-0.5,0.2-0.8
							s-0.1-0.6-0.2-0.8c-0.1-0.2-0.3-0.4-0.6-0.5c-0.3-0.1-0.5-0.2-0.9-0.2c-0.3,0-0.6,0.1-0.9,0.2s-0.4,0.3-0.6,0.6
							c-0.1,0.3-0.2,0.5-0.2,0.9h-1.4c0-0.6,0.1-1.1,0.4-1.5s0.6-0.8,1.1-1s1-0.4,1.6-0.4s1.1,0.1,1.6,0.4c0.5,0.2,0.8,0.6,1.1,1
							s0.4,0.9,0.4,1.4c0,0.4-0.1,0.7-0.2,1s-0.4,0.7-0.7,1.1c-0.3,0.4-0.8,0.9-1.3,1.5l-1.9,2v0.1h4.3v1.2h-6.3V103.9z"/>
						<path class="st2" d="M80.2,104c-0.3,0-0.5-0.1-0.7-0.3c-0.2-0.2-0.3-0.4-0.3-0.7c0-0.3,0.1-0.5,0.3-0.6
							c0.2-0.2,0.4-0.3,0.7-0.3c0.3,0,0.5,0.1,0.7,0.3c0.2,0.2,0.3,0.4,0.3,0.6s0,0.3-0.1,0.5c-0.1,0.1-0.2,0.3-0.3,0.3
							C80.5,104,80.4,104,80.2,104z"/>
						<path class="st2" d="M86.1,104c-0.6,0-1.1-0.1-1.6-0.3s-0.8-0.5-1.1-0.9c-0.3-0.4-0.4-0.8-0.4-1.3h1.4c0,0.4,0.2,0.7,0.5,1
							s0.7,0.4,1.2,0.4c0.4,0,0.7-0.1,1-0.3c0.3-0.2,0.5-0.4,0.7-0.7c0.2-0.3,0.2-0.6,0.2-1s-0.1-0.7-0.2-1
							c-0.2-0.3-0.4-0.5-0.7-0.7c-0.3-0.2-0.6-0.3-1-0.3c-0.3,0-0.6,0-0.9,0.1s-0.5,0.2-0.7,0.4l-1.3-0.2l0.5-4.8h5.2v1.2h-4
							l-0.3,2.6h0.1c0.2-0.2,0.4-0.3,0.7-0.4c0.3-0.1,0.6-0.2,1-0.2c0.6,0,1.1,0.1,1.5,0.4c0.5,0.3,0.8,0.6,1.1,1.1
							c0.3,0.5,0.4,1,0.4,1.6s-0.1,1.2-0.4,1.6c-0.3,0.5-0.7,0.9-1.2,1.1S86.7,104,86.1,104z"/>
						<path class="st2" d="M54.5,130.9c-0.1-0.5-0.3-0.9-0.7-1.2s-0.9-0.4-1.6-0.4c-0.4,0-0.8,0.1-1.2,0.2c-0.3,0.1-0.6,0.3-0.8,0.6
							c-0.2,0.2-0.3,0.5-0.3,0.8s0.1,0.5,0.2,0.7c0.1,0.2,0.3,0.3,0.5,0.5c0.2,0.1,0.4,0.2,0.6,0.3s0.5,0.2,0.7,0.2l1.1,0.3
							c0.3,0.1,0.7,0.2,1.1,0.3c0.4,0.1,0.7,0.3,1,0.6s0.6,0.5,0.8,0.9s0.3,0.8,0.3,1.3c0,0.6-0.2,1.2-0.5,1.6
							c-0.3,0.5-0.8,0.9-1.4,1.1c-0.6,0.3-1.3,0.4-2.2,0.4c-0.8,0-1.5-0.1-2.1-0.4c-0.6-0.3-1.1-0.6-1.4-1.1c-0.3-0.5-0.5-1-0.6-1.7
							h1.7c0,0.4,0.2,0.7,0.4,1s0.5,0.5,0.9,0.6s0.7,0.2,1.2,0.2s0.9-0.1,1.2-0.2c0.4-0.1,0.7-0.4,0.9-0.6c0.2-0.3,0.3-0.6,0.3-0.9
							c0-0.3-0.1-0.6-0.3-0.8s-0.4-0.4-0.7-0.5s-0.7-0.3-1.1-0.4l-1.3-0.4c-0.9-0.2-1.6-0.6-2.1-1c-0.5-0.5-0.8-1.1-0.8-1.8
							c0-0.6,0.2-1.2,0.5-1.6c0.3-0.5,0.8-0.8,1.4-1.1c0.6-0.3,1.2-0.4,2-0.4c0.7,0,1.4,0.1,2,0.4s1,0.6,1.3,1.1s0.5,1,0.5,1.6h-1.5
							V130.9z"/>
						<path class="st2" d="M61.5,139.1c-0.8,0-1.4-0.2-2-0.5s-1-0.8-1.3-1.5c-0.3-0.6-0.5-1.4-0.5-2.2s0.2-1.6,0.5-2.2
							c0.3-0.6,0.8-1.1,1.3-1.5s1.2-0.5,2-0.5s1.4,0.2,2,0.5s1,0.8,1.3,1.5c0.3,0.6,0.5,1.4,0.5,2.2s-0.2,1.6-0.5,2.2
							c-0.3,0.6-0.8,1.1-1.3,1.5S62.3,139.1,61.5,139.1z M61.5,137.7c0.5,0,0.9-0.1,1.2-0.4c0.3-0.3,0.6-0.6,0.7-1
							c0.2-0.4,0.2-0.9,0.2-1.4s-0.1-1-0.2-1.4c-0.2-0.4-0.4-0.8-0.7-1.1S62,132,61.5,132s-0.9,0.1-1.2,0.4
							c-0.3,0.3-0.6,0.6-0.7,1.1c-0.2,0.4-0.2,0.9-0.2,1.4s0.1,1,0.2,1.4c0.2,0.4,0.4,0.8,0.7,1S61,137.7,61.5,137.7z"/>
						<path class="st2" d="M66.9,140.9v-1l3.2-3.3c0.3-0.4,0.6-0.7,0.8-0.9c0.2-0.3,0.4-0.5,0.5-0.8c0.1-0.2,0.2-0.5,0.2-0.8
							s-0.1-0.6-0.2-0.8s-0.3-0.4-0.6-0.5c-0.3-0.1-0.5-0.2-0.9-0.2c-0.3,0-0.6,0.1-0.9,0.2s-0.4,0.3-0.6,0.6
							c-0.1,0.3-0.2,0.5-0.2,0.9h-1.4c0-0.6,0.1-1.1,0.4-1.5s0.6-0.8,1.1-1s1-0.4,1.6-0.4s1.1,0.1,1.6,0.4c0.5,0.2,0.8,0.6,1.1,1
							c0.3,0.4,0.4,0.9,0.4,1.4c0,0.4-0.1,0.7-0.2,1s-0.4,0.7-0.7,1.1c-0.3,0.4-0.8,0.9-1.3,1.5l-1.9,2v0.1h4.3v1.2h-6.3V140.9z"/>
						<path class="st2" d="M58,170.5c0,1.2-0.2,2.2-0.6,3c-0.4,0.8-1,1.5-1.8,1.9c-0.7,0.4-1.6,0.7-2.5,0.7s-1.8-0.2-2.5-0.7
							c-0.7-0.4-1.3-1.1-1.7-1.9c-0.4-0.8-0.6-1.8-0.6-3s0.2-2.2,0.6-3c0.4-0.8,1-1.5,1.7-1.9s1.6-0.7,2.5-0.7s1.8,0.2,2.5,0.7
							s1.3,1.1,1.8,1.9S58,169.3,58,170.5z M56.4,170.5c0-0.9-0.1-1.6-0.4-2.2c-0.3-0.6-0.7-1.1-1.2-1.4c-0.5-0.3-1.1-0.5-1.7-0.5
							c-0.6,0-1.2,0.2-1.7,0.5s-0.9,0.8-1.2,1.4c-0.3,0.6-0.4,1.4-0.4,2.2s0.1,1.6,0.4,2.2c0.3,0.6,0.7,1.1,1.2,1.4
							c0.5,0.3,1.1,0.5,1.7,0.5c0.6,0,1.2-0.2,1.7-0.5s0.9-0.8,1.2-1.4S56.4,171.4,56.4,170.5z"/>
						<path class="st2" d="M63.1,178c-0.6,0-1.2-0.1-1.7-0.3s-0.9-0.5-1.2-0.9s-0.4-0.8-0.5-1.4h1.4c0,0.3,0.1,0.5,0.3,0.7
							s0.4,0.4,0.7,0.5s0.6,0.2,0.9,0.2c0.4,0,0.7-0.1,1-0.2c0.3-0.1,0.5-0.3,0.7-0.5s0.2-0.5,0.2-0.8s-0.1-0.6-0.2-0.8
							s-0.4-0.4-0.7-0.6c-0.3-0.1-0.7-0.2-1.1-0.2h-0.8v-1.2h0.8c0.4,0,0.7-0.1,0.9-0.2c0.3-0.1,0.5-0.3,0.6-0.5
							c0.2-0.2,0.2-0.5,0.2-0.8s-0.1-0.5-0.2-0.8c-0.1-0.2-0.3-0.4-0.6-0.5c-0.2-0.1-0.5-0.2-0.8-0.2s-0.6,0.1-0.9,0.2
							c-0.3,0.1-0.5,0.3-0.6,0.5s-0.3,0.5-0.3,0.7h-1.4c0-0.5,0.2-1,0.5-1.3c0.3-0.4,0.7-0.7,1.1-0.9c0.5-0.2,1-0.3,1.6-0.3
							s1.1,0.1,1.6,0.4c0.4,0.2,0.8,0.5,1,0.9s0.4,0.8,0.4,1.3s-0.1,1-0.4,1.3c-0.3,0.4-0.7,0.6-1.2,0.7v0.1
							c0.6,0.1,1.1,0.3,1.5,0.7s0.5,0.9,0.5,1.5c0,0.5-0.1,1-0.4,1.4s-0.7,0.7-1.2,1C64.3,177.9,63.7,178,63.1,178z"/>
						<path class="st2" d="M57.6,205.6H56c-0.1-0.4-0.2-0.7-0.4-0.9c-0.2-0.3-0.4-0.5-0.6-0.7c-0.3-0.2-0.5-0.3-0.8-0.4
							c-0.3-0.1-0.6-0.1-1-0.1c-0.6,0-1.2,0.2-1.7,0.5s-0.9,0.8-1.2,1.4c-0.3,0.6-0.4,1.4-0.4,2.2c0,0.9,0.1,1.6,0.4,2.2
							c0.3,0.6,0.7,1.1,1.2,1.4s1.1,0.5,1.7,0.5c0.3,0,0.7,0,1-0.1s0.6-0.2,0.8-0.4s0.5-0.4,0.6-0.7s0.3-0.6,0.4-0.9h1.7
							c-0.1,0.5-0.3,1-0.5,1.5s-0.6,0.8-1,1.2c-0.4,0.3-0.8,0.6-1.4,0.8s-1.1,0.3-1.7,0.3c-0.9,0-1.8-0.2-2.5-0.7
							c-0.7-0.4-1.3-1.1-1.7-1.9c-0.4-0.8-0.6-1.8-0.6-3s0.2-2.2,0.6-3c0.4-0.8,1-1.5,1.7-1.9s1.6-0.7,2.5-0.7
							c0.6,0,1.1,0.1,1.6,0.2c0.5,0.2,1,0.4,1.4,0.7s0.7,0.7,1,1.2C57.3,204.4,57.5,205,57.6,205.6z"/>
						<path class="st2" d="M62.9,213.1c-0.8,0-1.4-0.2-2-0.5s-1-0.8-1.3-1.5c-0.3-0.6-0.5-1.4-0.5-2.2s0.2-1.6,0.5-2.2
							c0.3-0.6,0.8-1.1,1.3-1.5s1.2-0.5,2-0.5s1.4,0.2,2,0.5c0.6,0.4,1,0.8,1.3,1.5c0.3,0.6,0.5,1.4,0.5,2.2s-0.2,1.6-0.5,2.2
							c-0.3,0.6-0.8,1.1-1.3,1.5C64.3,212.9,63.7,213.1,62.9,213.1z M62.9,211.7c0.5,0,0.9-0.1,1.2-0.4c0.3-0.3,0.6-0.6,0.7-1
							c0.2-0.4,0.2-0.9,0.2-1.4s-0.1-1-0.2-1.4c-0.2-0.4-0.4-0.8-0.7-1.1c-0.3-0.3-0.7-0.4-1.2-0.4s-0.9,0.1-1.2,0.4
							c-0.3,0.3-0.6,0.6-0.7,1.1c-0.2,0.4-0.2,0.9-0.2,1.4s0.1,1,0.2,1.4c0.2,0.4,0.4,0.8,0.7,1C62,211.6,62.4,211.7,62.9,211.7z"/>
						<path class="st2" d="M48.6,249.9V239h3.9c0.8,0,1.6,0.2,2.1,0.5c0.6,0.3,1,0.7,1.3,1.3c0.3,0.5,0.4,1.1,0.4,1.8
							s-0.1,1.3-0.4,1.8c-0.3,0.5-0.7,1-1.3,1.3s-1.3,0.5-2.1,0.5h-2.7v-1.4h2.5c0.5,0,1-0.1,1.3-0.3s0.6-0.4,0.7-0.8
							s0.2-0.7,0.2-1.1s-0.1-0.8-0.2-1.1c-0.2-0.3-0.4-0.6-0.7-0.8s-0.8-0.3-1.3-0.3h-2.1v9.5H48.6z"/>
						<path class="st2" d="M58.1,239h2l3.5,8.5h0.1l3.5-8.5h2v10.9h-1.6V242h-0.1l-3.2,7.9H63l-3.2-7.9h-0.1v7.9h-1.6
							C58.1,249.9,58.1,239,58.1,239z"/>
						<path class="st2" d="M74.9,242.5v9.5h-1.4v-8h-0.1l-2.3,1.5V244l2.4-1.5H74.9z"/>
						<path class="st2" d="M80.8,252.1c-0.7,0-1.4-0.2-1.9-0.6c-0.5-0.4-0.9-0.9-1.2-1.7c-0.3-0.7-0.4-1.6-0.4-2.6s0.1-1.9,0.4-2.6
							c0.3-0.7,0.7-1.3,1.2-1.7s1.1-0.6,1.9-0.6s1.3,0.2,1.9,0.6c0.5,0.4,0.9,0.9,1.2,1.7s0.4,1.6,0.4,2.6s-0.1,1.9-0.4,2.6
							c-0.3,0.7-0.7,1.3-1.2,1.7C82.1,251.9,81.5,252.1,80.8,252.1z M80.8,250.8c0.6,0,1.1-0.3,1.5-0.9c0.4-0.6,0.5-1.5,0.5-2.7
							c0-0.8-0.1-1.4-0.2-2c-0.2-0.5-0.4-1-0.7-1.2c-0.3-0.3-0.7-0.4-1.1-0.4c-0.6,0-1.1,0.3-1.5,0.9s-0.5,1.5-0.5,2.7
							c0,0.8,0.1,1.5,0.2,2c0.2,0.5,0.4,1,0.7,1.2C80,250.7,80.3,250.8,80.8,250.8z"/>
						<path class="st2" d="M57.4,276v10.9h-1.5l-5.5-8h-0.1v8h-1.6V276h1.5l5.5,8h0.1v-8H57.4z"/>
						<path class="st2" d="M69.2,281.5c0,1.2-0.2,2.2-0.6,3s-1,1.5-1.8,1.9c-0.7,0.4-1.6,0.7-2.5,0.7s-1.8-0.2-2.5-0.7
							c-0.7-0.4-1.3-1.1-1.8-1.9s-0.6-1.8-0.6-3s0.2-2.2,0.6-3s1-1.5,1.8-1.9s1.6-0.7,2.5-0.7s1.8,0.2,2.5,0.7s1.3,1.1,1.8,1.9
							C69,279.3,69.2,280.3,69.2,281.5z M67.6,281.5c0-0.9-0.1-1.6-0.4-2.2s-0.7-1.1-1.2-1.4s-1.1-0.5-1.7-0.5s-1.2,0.2-1.7,0.5
							s-0.9,0.8-1.2,1.4s-0.4,1.4-0.4,2.2s0.1,1.6,0.4,2.2c0.3,0.6,0.7,1.1,1.2,1.4s1.1,0.5,1.7,0.5c0.6,0,1.2-0.2,1.7-0.5
							s0.9-0.8,1.2-1.4C67.5,283.1,67.6,282.4,67.6,281.5z"/>
						<path class="st2" d="M71,288.9v-1l3.2-3.3c0.3-0.4,0.6-0.7,0.8-0.9s0.4-0.5,0.5-0.8s0.2-0.5,0.2-0.8s-0.1-0.6-0.2-0.8
							c-0.1-0.2-0.3-0.4-0.6-0.5c-0.3-0.1-0.5-0.2-0.9-0.2c-0.3,0-0.6,0.1-0.9,0.2s-0.4,0.3-0.6,0.6s-0.2,0.5-0.2,0.9H71
							c0-0.6,0.1-1.1,0.4-1.5s0.6-0.8,1.1-1s1-0.4,1.6-0.4s1.1,0.1,1.6,0.4c0.5,0.2,0.8,0.6,1.1,1s0.4,0.9,0.4,1.4
							c0,0.4-0.1,0.7-0.2,1s-0.4,0.7-0.7,1.1c-0.3,0.4-0.8,0.9-1.3,1.5l-1.9,2v0.1h4.3v1.2H71V288.9z"/>
					</g>
				</g>
			</g>
		</g>
		<g>
			<path class="st3" d="M28.1,28.5l2.6,8.3h0.1l2.6-8.3H36l-3.8,10.9h-3l-3.8-10.9C25.4,28.5,28.1,28.5,28.1,28.5z"/>
			<path class="st3" d="M39.7,39.6c-0.5,0-1-0.1-1.4-0.3s-0.7-0.5-1-0.8c-0.2-0.4-0.4-0.8-0.4-1.4c0-0.5,0.1-0.8,0.2-1.1
				c0.2-0.3,0.4-0.6,0.7-0.7c0.3-0.2,0.6-0.3,1-0.4c0.4-0.1,0.8-0.2,1.2-0.2c0.5,0,0.9-0.1,1.2-0.1s0.5-0.1,0.6-0.2S42,34.2,42,34
				l0,0c0-0.3-0.1-0.6-0.3-0.8s-0.5-0.3-0.9-0.3s-0.7,0.1-1,0.3c-0.2,0.2-0.4,0.4-0.5,0.7l-2.1-0.2c0.1-0.5,0.3-0.9,0.6-1.3
				c0.3-0.4,0.7-0.6,1.2-0.8c0.5-0.2,1.1-0.3,1.7-0.3c0.5,0,0.9,0.1,1.3,0.2c0.4,0.1,0.8,0.3,1.1,0.5s0.6,0.5,0.8,0.9
				s0.3,0.8,0.3,1.3v5.5H42v-1.1h-0.1c-0.1,0.3-0.3,0.5-0.5,0.7s-0.5,0.3-0.8,0.5C40.4,39.5,40.1,39.6,39.7,39.6z M40.3,38
				c0.3,0,0.6-0.1,0.9-0.2s0.5-0.3,0.6-0.5C42,37,42,36.8,42,36.5v-0.9c-0.1,0-0.2,0.1-0.3,0.1s-0.3,0.1-0.4,0.1
				c-0.2,0-0.3,0.1-0.5,0.1s-0.3,0-0.4,0.1c-0.3,0-0.5,0.1-0.7,0.2c-0.2,0.1-0.4,0.2-0.5,0.3S39,36.8,39,37c0,0.3,0.1,0.5,0.3,0.7
				S40,38,40.3,38z"/>
			<path class="st3" d="M46.1,39.4v-8.2h2.2v1.4h0.1c0.1-0.5,0.4-0.9,0.8-1.2c0.4-0.3,0.8-0.4,1.2-0.4c0.1,0,0.2,0,0.4,0
				s0.2,0,0.3,0.1v2c-0.1,0-0.3-0.1-0.4-0.1c-0.2,0-0.4,0-0.5,0c-0.3,0-0.6,0.1-0.9,0.2c-0.3,0.1-0.5,0.3-0.6,0.6s-0.2,0.6-0.2,0.9
				v4.6L46.1,39.4L46.1,39.4z"/>
			<path class="st3" d="M53.3,30.2c-0.3,0-0.6-0.1-0.9-0.3c-0.2-0.2-0.4-0.5-0.4-0.8s0.1-0.6,0.4-0.8c0.2-0.2,0.5-0.3,0.9-0.3
				c0.3,0,0.6,0.1,0.9,0.3c0.2,0.2,0.4,0.5,0.4,0.8s-0.1,0.6-0.4,0.8C54,30.1,53.7,30.2,53.3,30.2z M52.2,39.4v-8.2h2.3v8.2H52.2z"
				/>
			<path class="st3" d="M58.6,39.6c-0.5,0-1-0.1-1.4-0.3s-0.7-0.5-1-0.8c-0.2-0.4-0.4-0.8-0.4-1.4c0-0.5,0.1-0.8,0.3-1.1
				s0.4-0.6,0.7-0.7c0.3-0.2,0.6-0.3,1-0.4c0.4-0.1,0.8-0.2,1.2-0.2c0.5,0,0.9-0.1,1.2-0.1s0.5-0.1,0.6-0.2S61,34.2,61,34l0,0
				c0-0.3-0.1-0.6-0.3-0.8s-0.5-0.3-0.9-0.3s-0.7,0.1-1,0.3s-0.4,0.4-0.5,0.7l-2.1-0.2c0.1-0.5,0.3-0.9,0.6-1.3
				c0.3-0.4,0.7-0.6,1.2-0.8c0.5-0.2,1.1-0.3,1.7-0.3c0.5,0,0.9,0.1,1.3,0.2c0.4,0.1,0.8,0.3,1.1,0.5s0.6,0.5,0.8,0.9
				s0.3,0.8,0.3,1.3v5.5H61v-1.1h0c-0.1,0.3-0.3,0.5-0.5,0.7s-0.5,0.3-0.8,0.5C59.4,39.5,59,39.6,58.6,39.6z M59.2,38
				c0.3,0,0.6-0.1,0.9-0.2c0.3-0.1,0.5-0.3,0.6-0.5s0.2-0.5,0.2-0.8v-0.9c-0.1,0-0.2,0.1-0.3,0.1s-0.3,0.1-0.4,0.1
				c-0.2,0-0.3,0.1-0.5,0.1s-0.3,0-0.4,0.1c-0.3,0-0.5,0.1-0.7,0.2c-0.2,0.1-0.4,0.2-0.5,0.3s-0.2,0.3-0.2,0.5
				c0,0.3,0.1,0.5,0.3,0.7S58.9,38,59.2,38z"/>
			<path class="st3" d="M65,39.4V28.5h2.3v4.1h0.1c0.1-0.2,0.2-0.4,0.4-0.7c0.2-0.2,0.4-0.4,0.7-0.6s0.7-0.2,1.1-0.2
				c0.6,0,1.1,0.2,1.7,0.5c0.5,0.3,0.9,0.8,1.2,1.4c0.3,0.6,0.5,1.4,0.5,2.3c0,0.9-0.1,1.7-0.4,2.3s-0.7,1.1-1.2,1.4
				c-0.5,0.3-1.1,0.5-1.7,0.5c-0.4,0-0.8-0.1-1.1-0.2c-0.3-0.1-0.6-0.3-0.8-0.6c-0.2-0.2-0.3-0.4-0.4-0.7h-0.1v1.3H65V39.4z
				 M67.2,35.3c0,0.5,0.1,0.9,0.2,1.3c0.1,0.4,0.3,0.6,0.6,0.8c0.3,0.2,0.6,0.3,0.9,0.3c0.4,0,0.7-0.1,0.9-0.3
				c0.3-0.2,0.4-0.5,0.6-0.9c0.1-0.4,0.2-0.8,0.2-1.3s-0.1-0.9-0.2-1.2c-0.1-0.4-0.3-0.6-0.6-0.8c-0.3-0.2-0.6-0.3-0.9-0.3
				c-0.4,0-0.7,0.1-0.9,0.3s-0.4,0.5-0.6,0.8C67.3,34.4,67.2,34.8,67.2,35.3z"/>
			<path class="st3" d="M76.8,28.5v10.9h-2.3V28.5H76.8z"/>
			<path class="st3" d="M82.3,39.6c-0.8,0-1.6-0.2-2.2-0.5s-1.1-0.8-1.4-1.5c-0.3-0.6-0.5-1.4-0.5-2.2s0.2-1.6,0.5-2.2
				s0.8-1.1,1.4-1.5c0.6-0.4,1.3-0.5,2.1-0.5c0.5,0,1,0.1,1.5,0.3c0.5,0.2,0.9,0.4,1.2,0.8c0.4,0.3,0.6,0.8,0.8,1.3
				c0.2,0.5,0.3,1.1,0.3,1.8V36h-6.9v-1.4h4.8c0-0.3-0.1-0.6-0.2-0.9c-0.1-0.3-0.3-0.5-0.6-0.6c-0.2-0.1-0.5-0.2-0.9-0.2
				c-0.3,0-0.6,0.1-0.9,0.2c-0.3,0.2-0.5,0.4-0.6,0.6s-0.2,0.6-0.2,0.9v1.3c0,0.4,0.1,0.8,0.2,1c0.2,0.3,0.4,0.5,0.6,0.7
				c0.3,0.2,0.6,0.2,1,0.2c0.3,0,0.5,0,0.7-0.1s0.4-0.2,0.5-0.3c0.2-0.1,0.3-0.3,0.3-0.5l2.1,0.1c-0.1,0.5-0.3,0.9-0.7,1.3
				c-0.3,0.4-0.8,0.7-1.3,0.9C83.6,39.5,83,39.6,82.3,39.6z"/>
			<path class="st3" d="M94.4,33.6l-2.1,0.1c0-0.2-0.1-0.3-0.2-0.5c-0.1-0.1-0.3-0.3-0.5-0.3c-0.2-0.1-0.4-0.1-0.7-0.1
				c-0.4,0-0.6,0.1-0.9,0.2s-0.4,0.3-0.4,0.6c0,0.2,0.1,0.4,0.2,0.5c0.2,0.1,0.4,0.2,0.8,0.3l1.5,0.3c0.8,0.2,1.4,0.4,1.8,0.8
				c0.4,0.4,0.6,0.8,0.6,1.4c0,0.5-0.2,1-0.5,1.4s-0.7,0.7-1.3,0.9c-0.5,0.2-1.2,0.3-1.9,0.3c-1.1,0-1.9-0.2-2.6-0.7
				c-0.6-0.5-1-1.1-1.1-1.9l2.2-0.1c0.1,0.3,0.2,0.6,0.5,0.8s0.6,0.3,1,0.3s0.7-0.1,1-0.2c0.2-0.2,0.4-0.4,0.4-0.6
				c0-0.2-0.1-0.4-0.3-0.5c-0.2-0.1-0.4-0.2-0.8-0.3L89.8,36c-0.8-0.2-1.4-0.4-1.8-0.8c-0.4-0.4-0.6-0.9-0.6-1.5
				c0-0.5,0.1-1,0.4-1.4c0.3-0.4,0.7-0.7,1.2-0.9c0.5-0.2,1.1-0.3,1.8-0.3c1,0,1.8,0.2,2.4,0.7C93.9,32.2,94.3,32.8,94.4,33.6z"/>
		</g>
		<g>
			<line class="st4" x1="195.3" y1="20.7" x2="195.3" y2="293.4"/>
		</g>
		<g>
			<path class="st5" d="M384.7,291.1L384.7,291.1c3,0,5.5-2.5,5.5-5.5V28.2c0-3-2.5-5.5-5.5-5.5l0,0c-3,0-5.5,2.5-5.5,5.5v257.3
				C379.2,288.6,381.7,291.1,384.7,291.1z"/>
			<g>
				<g>
					<path class="st6" d="M384.7,162.7L384.7,162.7c3,0,5.5-2.5,5.5-5.5v-108c0-3-2.5-5.5-5.5-5.5l0,0c-3,0-5.5,2.5-5.5,5.5v108
						C379.2,160.2,381.7,162.7,384.7,162.7z"/>
				</g>
			</g>
		</g>
	</g>
	<g>
		<rect x="25.6" y="53.1" class="st7" width="13" height="13"/>
		<rect x="25.6" y="89.8" class="st7" width="13" height="13"/>
		<rect x="25.6" y="126.6" class="st7" width="13" height="13"/>
		<rect x="25.6" y="163.3" class="st7" width="13" height="13"/>
		<rect x="25.6" y="200" class="st7" width="13" height="13"/>
		<rect x="25.6" y="236.8" class="st7" width="13" height="13"/>
		<rect x="25.6" y="273.5" class="st7" width="13" height="13"/>
	</g>
	<g>
		<path class="st2" d="M247.4,64.9h-1.7l3.9-10.9h1.9l3.9,10.9h-1.7l-3.1-8.9h-0.1L247.4,64.9z M247.7,60.6h5.7V62h-5.7V60.6z"/>
		<path class="st2" d="M258.4,54v10.9h-1.6V54H258.4z"/>
		<path class="st2" d="M264.7,64.9V54h1.6v5.2h0.1L271,54h2.1l-4.4,4.9l4.4,6h-2l-3.5-4.9l-1.3,1.5v3.4H264.7z"/>
		<path class="st2" d="M278,65.1c-0.8,0-1.4-0.2-2-0.5c-0.6-0.4-1-0.8-1.3-1.5c-0.3-0.6-0.5-1.4-0.5-2.2s0.2-1.6,0.5-2.2
			s0.8-1.1,1.3-1.5c0.6-0.4,1.2-0.5,2-0.5s1.4,0.2,2,0.5c0.6,0.4,1,0.8,1.3,1.5s0.5,1.4,0.5,2.2s-0.2,1.6-0.5,2.2
			c-0.3,0.6-0.8,1.1-1.3,1.5C279.4,64.9,278.7,65.1,278,65.1z M278,63.7c0.5,0,0.9-0.1,1.2-0.4s0.6-0.6,0.7-1
			c0.2-0.4,0.2-0.9,0.2-1.4s-0.1-1-0.2-1.4c-0.2-0.4-0.4-0.8-0.7-1.1c-0.3-0.3-0.7-0.4-1.2-0.4s-0.9,0.1-1.2,0.4
			c-0.3,0.3-0.6,0.6-0.7,1.1c-0.2,0.4-0.2,0.9-0.2,1.4s0.1,1,0.2,1.4c0.2,0.4,0.4,0.8,0.7,1S277.5,63.7,278,63.7z"/>
		<path class="st2" d="M288.7,61.5v-4.8h1.6v8.2h-1.6v-1.4h-0.1c-0.2,0.4-0.5,0.8-0.9,1.1s-0.9,0.4-1.5,0.4c-0.5,0-1-0.1-1.4-0.3
			c-0.4-0.2-0.7-0.6-0.9-1c-0.2-0.5-0.3-1-0.3-1.7v-5.2h1.6v5c0,0.6,0.2,1,0.5,1.3s0.7,0.5,1.2,0.5c0.3,0,0.6-0.1,0.9-0.2
			c0.3-0.1,0.5-0.4,0.7-0.7C288.6,62.4,288.7,62,288.7,61.5z"/>
		<path class="st2" d="M295.5,65.1c-0.7,0-1.2-0.2-1.8-0.5c-0.5-0.3-0.9-0.8-1.2-1.5s-0.4-1.4-0.4-2.3c0-0.9,0.1-1.6,0.4-2.3
			c0.3-0.6,0.7-1.1,1.2-1.4c0.5-0.3,1.1-0.5,1.8-0.5c0.5,0,0.9,0.1,1.2,0.3c0.3,0.2,0.6,0.4,0.7,0.6c0.2,0.2,0.3,0.4,0.4,0.6h0.1V54
			h1.6v10.9H298v-1.3h-0.1c-0.1,0.2-0.2,0.4-0.4,0.6c-0.2,0.2-0.4,0.4-0.7,0.6C296.4,65,296,65.1,295.5,65.1z M295.9,63.7
			c0.5,0,0.8-0.1,1.2-0.4s0.6-0.6,0.7-1s0.2-0.9,0.2-1.5s-0.1-1.1-0.2-1.5c-0.2-0.4-0.4-0.8-0.7-1c-0.3-0.2-0.7-0.4-1.2-0.4
			s-0.9,0.1-1.2,0.4c-0.3,0.2-0.6,0.6-0.7,1s-0.2,0.9-0.2,1.5c0,0.5,0.1,1,0.2,1.5c0.2,0.4,0.4,0.8,0.7,1
			C295,63.6,295.4,63.7,295.9,63.7z"/>
		<path class="st2" d="M303.5,60.1V65h-1.6V54h1.6v4.1h0.1c0.2-0.4,0.5-0.8,0.9-1c0.4-0.3,0.9-0.4,1.5-0.4s1.1,0.1,1.5,0.3
			s0.7,0.6,1,1c0.2,0.5,0.3,1,0.3,1.7v5.2h-1.6v-5c0-0.6-0.2-1.1-0.5-1.4S306,58,305.4,58c-0.4,0-0.7,0.1-1,0.2s-0.5,0.4-0.7,0.7
			C303.5,59.3,303.5,59.6,303.5,60.1z"/>
		<path class="st2" d="M247.4,101.9h-1.7l3.9-10.9h1.9l3.9,10.9h-1.7l-3.1-8.9h-0.1L247.4,101.9z M247.7,97.6h5.7V99h-5.7V97.6z"/>
		<path class="st2" d="M258.4,91v10.9h-1.6V91H258.4z"/>
		<path class="st2" d="M264.7,101.9V91h1.6v5.2h0.1L271,91h2.1l-4.4,4.9l4.4,6h-2l-3.5-4.9l-1.3,1.5v3.4H264.7z"/>
		<path class="st2" d="M276.1,97.1v4.9h-1.6V91h1.6v4.1h0.1c0.2-0.4,0.5-0.8,0.9-1c0.4-0.3,0.9-0.4,1.5-0.4s1.1,0.1,1.5,0.3
			c0.4,0.2,0.7,0.6,1,1c0.2,0.5,0.3,1,0.3,1.7v5.2h-1.6v-5c0-0.6-0.2-1.1-0.5-1.4S278.6,95,278,95c-0.4,0-0.7,0.1-1,0.2
			c-0.3,0.2-0.5,0.4-0.7,0.7C276.2,96.3,276.1,96.6,276.1,97.1z"/>
		<path class="st2" d="M288.7,98.5v-4.8h1.6v8.2h-1.6v-1.4h-0.1c-0.2,0.4-0.5,0.8-0.9,1.1c-0.4,0.3-0.9,0.4-1.5,0.4
			c-0.5,0-1-0.1-1.4-0.3c-0.4-0.2-0.7-0.6-0.9-1s-0.3-1-0.3-1.7v-5.2h1.6v5c0,0.6,0.2,1,0.5,1.3s0.7,0.5,1.2,0.5
			c0.3,0,0.6-0.1,0.9-0.2s0.5-0.4,0.7-0.7C288.6,99.4,288.7,99,288.7,98.5z"/>
		<path class="st2" d="M294.2,101.9l-2.4-8.2h1.6l1.6,6h0.1l1.6-6h1.6l1.6,6h0.1l1.6-6h1.6l-2.4,8.2h-1.6l-1.7-5.9h-0.1l-1.7,5.9
			H294.2z"/>
		<path class="st2" d="M307.2,102.1c-0.5,0-1-0.1-1.4-0.3c-0.4-0.2-0.8-0.5-1-0.8c-0.2-0.4-0.4-0.8-0.4-1.4c0-0.5,0.1-0.8,0.3-1.1
			s0.4-0.5,0.7-0.7c0.3-0.2,0.6-0.3,1-0.4s0.8-0.2,1.1-0.2c0.5-0.1,0.9-0.1,1.2-0.1c0.3,0,0.5-0.1,0.7-0.2c0.1-0.1,0.2-0.2,0.2-0.4
			l0,0c0-0.5-0.1-0.8-0.4-1.1c-0.3-0.3-0.6-0.4-1.2-0.4c-0.5,0-1,0.1-1.3,0.4c-0.3,0.2-0.5,0.5-0.6,0.8l-1.5-0.3
			c0.2-0.5,0.4-0.9,0.8-1.2s0.7-0.5,1.2-0.7c0.4-0.1,0.9-0.2,1.4-0.2c0.3,0,0.7,0,1,0.1c0.4,0.1,0.7,0.2,1,0.4
			c0.3,0.2,0.6,0.5,0.8,0.9c0.2,0.4,0.3,0.9,0.3,1.5v5.4h-1.6V101h-0.1c-0.1,0.2-0.3,0.4-0.5,0.6s-0.5,0.4-0.8,0.5
			C308.1,102,307.7,102.1,307.2,102.1z M307.6,100.8c0.4,0,0.8-0.1,1.1-0.3c0.3-0.2,0.6-0.4,0.7-0.7c0.2-0.3,0.2-0.6,0.2-0.9v-1.1
			c-0.1,0.1-0.2,0.1-0.3,0.2c-0.2,0-0.3,0.1-0.6,0.1s-0.4,0.1-0.6,0.1s-0.4,0-0.5,0.1c-0.3,0-0.6,0.1-0.8,0.2s-0.5,0.2-0.6,0.4
			c-0.2,0.2-0.2,0.4-0.2,0.7c0,0.4,0.1,0.7,0.4,0.9S307.1,100.8,307.6,100.8z"/>
		<path class="st2" d="M314.4,105c-0.2,0-0.5,0-0.6-0.1s-0.3-0.1-0.4-0.1l0.4-1.3c0.3,0.1,0.5,0.1,0.8,0.1s0.4-0.1,0.6-0.3
			c0.2-0.2,0.3-0.4,0.5-0.8l0.2-0.5l-3-8.3h1.7l2.1,6.3h0.1l2.1-6.3h1.7L317,103c-0.2,0.4-0.4,0.8-0.6,1.1c-0.2,0.3-0.5,0.5-0.9,0.7
			C315.2,104.9,314.8,105,314.4,105z"/>
		<path class="st2" d="M321.9,101.9v-8.2h1.5V95h0.1c0.1-0.4,0.4-0.8,0.8-1c0.4-0.3,0.8-0.4,1.3-0.4c0.1,0,0.2,0,0.4,0
			c0.1,0,0.2,0,0.3,0v1.5c-0.1,0-0.2,0-0.3-0.1c-0.2,0-0.3,0-0.5,0c-0.4,0-0.7,0.1-1,0.2c-0.3,0.2-0.5,0.4-0.7,0.7
			c-0.2,0.3-0.3,0.6-0.3,1v5C323.5,101.9,321.9,101.9,321.9,101.9z"/>
		<path class="st2" d="M252.4,130.9c-0.1-0.5-0.3-0.9-0.7-1.2s-0.9-0.4-1.6-0.4c-0.4,0-0.8,0.1-1.2,0.2c-0.3,0.1-0.6,0.3-0.8,0.6
			c-0.2,0.2-0.3,0.5-0.3,0.8s0.1,0.5,0.2,0.7c0.1,0.2,0.3,0.3,0.5,0.5c0.2,0.1,0.4,0.2,0.6,0.3s0.5,0.2,0.7,0.2l1.1,0.3
			c0.3,0.1,0.7,0.2,1.1,0.3c0.4,0.1,0.7,0.3,1,0.6s0.6,0.5,0.8,0.9s0.3,0.8,0.3,1.3c0,0.6-0.2,1.2-0.5,1.6c-0.3,0.5-0.8,0.9-1.4,1.1
			c-0.6,0.3-1.3,0.4-2.2,0.4c-0.8,0-1.5-0.1-2.1-0.4c-0.6-0.3-1.1-0.6-1.4-1.1c-0.3-0.5-0.5-1-0.6-1.7h1.7c0,0.4,0.2,0.7,0.4,1
			s0.5,0.5,0.9,0.6s0.7,0.2,1.2,0.2s0.9-0.1,1.2-0.2c0.4-0.1,0.7-0.4,0.9-0.6c0.2-0.3,0.3-0.6,0.3-0.9c0-0.3-0.1-0.6-0.3-0.8
			s-0.4-0.4-0.7-0.5s-0.7-0.3-1.1-0.4l-1.3-0.4c-0.9-0.2-1.6-0.6-2.1-1c-0.5-0.5-0.8-1.1-0.8-1.8c0-0.6,0.2-1.2,0.5-1.6
			c0.3-0.5,0.8-0.8,1.4-1.1c0.6-0.3,1.2-0.4,2-0.4c0.7,0,1.4,0.1,2,0.4s1,0.6,1.3,1.1s0.5,1,0.5,1.6h-1.5V130.9z"/>
		<path class="st2" d="M261.2,135.5v-4.8h1.6v8.2h-1.6v-1.4h-0.1c-0.2,0.4-0.5,0.8-0.9,1.1s-0.9,0.4-1.5,0.4c-0.5,0-1-0.1-1.4-0.3
			s-0.7-0.6-0.9-1s-0.3-1-0.3-1.7v-5.2h1.6v5c0,0.6,0.2,1,0.5,1.3s0.7,0.5,1.2,0.5c0.3,0,0.6-0.1,0.9-0.2c0.3-0.1,0.5-0.4,0.7-0.7
			C261.1,136.4,261.2,136,261.2,135.5z"/>
		<path class="st2" d="M264.9,138.9v-8.2h1.5v1.3h0.1c0.1-0.4,0.4-0.8,0.8-1s0.8-0.4,1.3-0.4c0.1,0,0.2,0,0.4,0c0.1,0,0.2,0,0.3,0
			v1.5c-0.1,0-0.2,0-0.3-0.1c-0.2,0-0.3,0-0.5,0c-0.4,0-0.7,0.1-1,0.2c-0.3,0.2-0.5,0.4-0.7,0.7s-0.3,0.6-0.3,1v5H264.9z"/>
		<path class="st2" d="M252.4,167.9c-0.1-0.5-0.3-0.9-0.7-1.2s-0.9-0.4-1.6-0.4c-0.4,0-0.8,0.1-1.2,0.2c-0.3,0.1-0.6,0.3-0.8,0.6
			c-0.2,0.2-0.3,0.5-0.3,0.8s0.1,0.5,0.2,0.7c0.1,0.2,0.3,0.3,0.5,0.5c0.2,0.1,0.4,0.2,0.6,0.3s0.5,0.2,0.7,0.2l1.1,0.3
			c0.3,0.1,0.7,0.2,1.1,0.3c0.4,0.1,0.7,0.3,1,0.6s0.6,0.5,0.8,0.9s0.3,0.8,0.3,1.3c0,0.6-0.2,1.2-0.5,1.6c-0.3,0.5-0.8,0.9-1.4,1.1
			c-0.6,0.3-1.3,0.4-2.2,0.4c-0.8,0-1.5-0.1-2.1-0.4c-0.6-0.3-1.1-0.6-1.4-1.1c-0.3-0.5-0.5-1-0.6-1.7h1.7c0,0.4,0.2,0.7,0.4,1
			s0.5,0.5,0.9,0.6s0.7,0.2,1.2,0.2s0.9-0.1,1.2-0.2c0.4-0.1,0.7-0.4,0.9-0.6c0.2-0.3,0.3-0.6,0.3-0.9c0-0.3-0.1-0.6-0.3-0.8
			s-0.4-0.4-0.7-0.5s-0.7-0.3-1.1-0.4l-1.3-0.4c-0.9-0.2-1.6-0.6-2.1-1c-0.5-0.5-0.8-1.1-0.8-1.8c0-0.6,0.2-1.2,0.5-1.6
			c0.3-0.5,0.8-0.8,1.4-1.1c0.6-0.3,1.2-0.4,2-0.4c0.7,0,1.4,0.1,2,0.4s1,0.6,1.3,1.1s0.5,1,0.5,1.6h-1.5V167.9z"/>
		<path class="st2" d="M258.4,176.1c-0.5,0-1-0.1-1.4-0.3s-0.8-0.5-1-0.8c-0.2-0.4-0.4-0.8-0.4-1.4c0-0.5,0.1-0.8,0.3-1.1
			s0.4-0.5,0.7-0.7s0.6-0.3,1-0.4s0.8-0.2,1.1-0.2c0.5-0.1,0.9-0.1,1.2-0.1s0.5-0.1,0.7-0.2c0.1-0.1,0.2-0.2,0.2-0.4l0,0
			c0-0.5-0.1-0.8-0.4-1.1s-0.6-0.4-1.2-0.4c-0.5,0-1,0.1-1.3,0.4c-0.3,0.2-0.5,0.5-0.6,0.8l-1.5-0.3c0.2-0.5,0.4-0.9,0.8-1.2
			s0.7-0.5,1.2-0.7c0.4-0.1,0.9-0.2,1.4-0.2c0.3,0,0.7,0,1,0.1c0.4,0.1,0.7,0.2,1,0.4s0.6,0.5,0.8,0.9c0.2,0.4,0.3,0.9,0.3,1.5v5.4
			h-1.6V175h-0.1c-0.1,0.2-0.3,0.4-0.5,0.6c-0.2,0.2-0.5,0.4-0.8,0.5C259.2,176,258.8,176.1,258.4,176.1z M258.7,174.8
			c0.4,0,0.8-0.1,1.1-0.3c0.3-0.2,0.6-0.4,0.7-0.7c0.2-0.3,0.2-0.6,0.2-0.9v-1.1c-0.1,0.1-0.2,0.1-0.3,0.2c-0.2,0-0.3,0.1-0.6,0.1
			s-0.4,0.1-0.6,0.1s-0.4,0-0.5,0.1c-0.3,0-0.6,0.1-0.8,0.2s-0.5,0.2-0.6,0.4c-0.2,0.2-0.2,0.4-0.2,0.7c0,0.4,0.1,0.7,0.4,0.9
			C257.9,174.7,258.3,174.8,258.7,174.8z"/>
		<path class="st2" d="M266.1,165v10.9h-1.6V165H266.1z"/>
		<path class="st2" d="M270.7,176.1c-0.5,0-1-0.1-1.4-0.3s-0.8-0.5-1-0.8c-0.2-0.4-0.4-0.8-0.4-1.4c0-0.5,0.1-0.8,0.3-1.1
			c0.2-0.3,0.4-0.5,0.7-0.7s0.6-0.3,1-0.4s0.8-0.2,1.1-0.2c0.5-0.1,0.9-0.1,1.2-0.1c0.3,0,0.5-0.1,0.7-0.2c0.1-0.1,0.2-0.2,0.2-0.4
			l0,0c0-0.5-0.1-0.8-0.4-1.1s-0.6-0.4-1.2-0.4c-0.5,0-1,0.1-1.3,0.4s-0.5,0.5-0.6,0.8l-1.5-0.3c0.2-0.5,0.4-0.9,0.8-1.2
			c0.3-0.3,0.7-0.5,1.2-0.7c0.4-0.1,0.9-0.2,1.4-0.2c0.3,0,0.7,0,1,0.1s0.7,0.2,1,0.4s0.6,0.5,0.8,0.9s0.3,0.9,0.3,1.5v5.4H273V175
			h-0.1c-0.1,0.2-0.3,0.4-0.5,0.6s-0.5,0.4-0.8,0.5S271.1,176.1,270.7,176.1z M271,174.8c0.4,0,0.8-0.1,1.1-0.3
			c0.3-0.2,0.6-0.4,0.7-0.7c0.2-0.3,0.2-0.6,0.2-0.9v-1.1c-0.1,0.1-0.2,0.1-0.3,0.2s-0.3,0.1-0.6,0.1c-0.2,0-0.4,0.1-0.6,0.1
			s-0.4,0-0.5,0.1c-0.3,0-0.6,0.1-0.8,0.2s-0.5,0.2-0.6,0.4c-0.2,0.2-0.2,0.4-0.2,0.7c0,0.4,0.1,0.7,0.4,0.9
			C270.2,174.7,270.5,174.8,271,174.8z"/>
		<path class="st2" d="M278.4,165v10.9h-1.6V165H278.4z"/>
		<path class="st2" d="M282.9,176.1c-0.5,0-1-0.1-1.4-0.3s-0.8-0.5-1-0.8c-0.2-0.4-0.4-0.8-0.4-1.4c0-0.5,0.1-0.8,0.3-1.1
			s0.4-0.5,0.7-0.7c0.3-0.2,0.6-0.3,1-0.4c0.4-0.1,0.8-0.2,1.1-0.2c0.5-0.1,0.9-0.1,1.2-0.1c0.3,0,0.5-0.1,0.7-0.2
			c0.1-0.1,0.2-0.2,0.2-0.4l0,0c0-0.5-0.1-0.8-0.4-1.1s-0.7-0.4-1.2-0.4s-1,0.1-1.3,0.4s-0.5,0.5-0.6,0.8l-1.5-0.3
			c0.2-0.5,0.4-0.9,0.8-1.2c0.3-0.3,0.7-0.5,1.2-0.7c0.4-0.1,0.9-0.2,1.4-0.2c0.3,0,0.7,0,1,0.1s0.7,0.2,1,0.4s0.6,0.5,0.8,0.9
			c0.2,0.4,0.3,0.9,0.3,1.5v5.4h-1.6V175h-0.1c-0.1,0.2-0.3,0.4-0.5,0.6c-0.2,0.2-0.5,0.4-0.8,0.5S283.4,176.1,282.9,176.1z
			 M283.3,174.8c0.4,0,0.8-0.1,1.1-0.3c0.3-0.2,0.6-0.4,0.7-0.7c0.2-0.3,0.2-0.6,0.2-0.9v-1.1c-0.1,0.1-0.2,0.1-0.3,0.2
			s-0.3,0.1-0.6,0.1c-0.2,0-0.4,0.1-0.6,0.1s-0.4,0-0.5,0.1c-0.3,0-0.6,0.1-0.8,0.2s-0.5,0.2-0.6,0.4c-0.2,0.2-0.2,0.4-0.2,0.7
			c0,0.4,0.1,0.7,0.4,0.9S282.8,174.8,283.3,174.8z"/>
		<path class="st2" d="M290.7,171.1v4.9h-1.6v-11h1.6v4.1h0.1c0.2-0.4,0.5-0.8,0.9-1c0.4-0.3,0.9-0.4,1.5-0.4s1.1,0.1,1.5,0.3
			s0.7,0.6,1,1c0.2,0.5,0.3,1,0.3,1.7v5.2h-1.6v-5c0-0.6-0.2-1.1-0.5-1.4s-0.7-0.5-1.3-0.5c-0.4,0-0.7,0.1-1,0.2s-0.5,0.4-0.7,0.7
			C290.8,170.3,290.7,170.6,290.7,171.1z"/>
		<path class="st2" d="M246.5,212.9V202h4c0.8,0,1.4,0.1,1.9,0.4c0.5,0.3,0.9,0.6,1.1,1c0.3,0.4,0.4,0.9,0.4,1.5
			c0,0.5-0.1,0.8-0.3,1.1s-0.4,0.6-0.7,0.7c-0.3,0.2-0.6,0.3-0.9,0.4v0.1c0.4,0,0.7,0.1,1.1,0.3c0.3,0.2,0.6,0.5,0.9,0.9
			c0.2,0.4,0.3,0.9,0.3,1.4c0,0.6-0.1,1.1-0.4,1.5s-0.7,0.8-1.2,1c-0.5,0.3-1.2,0.4-2.1,0.4h-4.1V212.9z M248.1,206.7h2.2
			c0.4,0,0.7-0.1,1-0.2s0.5-0.3,0.7-0.6s0.3-0.6,0.3-0.9c0-0.5-0.2-0.8-0.5-1.1s-0.8-0.5-1.5-0.5h-2.2V206.7z M248.1,211.5h2.4
			c0.8,0,1.4-0.2,1.7-0.5s0.5-0.7,0.5-1.1c0-0.3-0.1-0.7-0.3-0.9s-0.4-0.5-0.7-0.7s-0.7-0.3-1.1-0.3h-2.4L248.1,211.5L248.1,211.5z"
			/>
		<path class="st2" d="M257,203.5c-0.3,0-0.5-0.1-0.7-0.3s-0.3-0.4-0.3-0.7s0.1-0.5,0.3-0.7s0.4-0.3,0.7-0.3s0.5,0.1,0.7,0.3
			s0.3,0.4,0.3,0.7s-0.1,0.5-0.3,0.7C257.5,203.4,257.2,203.5,257,203.5z M256.2,212.9v-8.2h1.6v8.2H256.2z"/>
		<path class="st2" d="M263,213.1c-0.7,0-1.2-0.2-1.8-0.5c-0.5-0.3-0.9-0.8-1.2-1.5s-0.4-1.4-0.4-2.3c0-0.9,0.1-1.6,0.4-2.3
			c0.3-0.6,0.7-1.1,1.2-1.4c0.5-0.3,1.1-0.5,1.8-0.5c0.5,0,0.9,0.1,1.2,0.3c0.3,0.2,0.6,0.4,0.7,0.6c0.2,0.2,0.3,0.4,0.4,0.6h0.1
			V202h1.6v10.9h-1.6v-1.3h-0.1c-0.1,0.2-0.2,0.4-0.4,0.6c-0.2,0.2-0.4,0.4-0.7,0.6C263.9,213,263.5,213.1,263,213.1z M263.3,211.7
			c0.5,0,0.8-0.1,1.2-0.4s0.6-0.6,0.7-1s0.2-0.9,0.2-1.5s-0.1-1.1-0.2-1.5c-0.2-0.4-0.4-0.8-0.7-1c-0.3-0.2-0.7-0.4-1.2-0.4
			s-0.9,0.1-1.2,0.4c-0.3,0.2-0.6,0.6-0.7,1s-0.2,0.9-0.2,1.5c0,0.5,0.1,1,0.2,1.5c0.2,0.4,0.4,0.8,0.7,1
			C262.4,211.6,262.8,211.7,263.3,211.7z"/>
		<path class="st2" d="M270.1,203.5c-0.3,0-0.5-0.1-0.7-0.3s-0.3-0.4-0.3-0.7s0.1-0.5,0.3-0.7c0.2-0.2,0.4-0.3,0.7-0.3
			c0.3,0,0.5,0.1,0.7,0.3s0.3,0.4,0.3,0.7s-0.1,0.5-0.3,0.7C270.6,203.4,270.4,203.5,270.1,203.5z M269.3,212.9v-8.2h1.6v8.2H269.3z
			"/>
		<path class="st2" d="M274,216c-0.2,0-0.5,0-0.6-0.1s-0.3-0.1-0.4-0.1l0.4-1.3c0.3,0.1,0.6,0.1,0.8,0.1c0.2,0,0.4-0.1,0.6-0.3
			s0.3-0.4,0.5-0.8l0.2-0.5l-3-8.3h1.7l2.1,6.3h0.1l2.1-6.3h1.7l-3.4,9.3c-0.2,0.4-0.4,0.8-0.6,1.1s-0.5,0.5-0.9,0.7
			C274.8,215.9,274.5,216,274,216z"/>
		<path class="st2" d="M283.9,213.1c-0.5,0-1-0.1-1.4-0.3s-0.8-0.5-1-0.8c-0.2-0.4-0.4-0.8-0.4-1.4c0-0.5,0.1-0.8,0.3-1.1
			c0.2-0.3,0.4-0.5,0.7-0.7c0.3-0.2,0.6-0.3,1-0.4s0.8-0.2,1.1-0.2c0.5-0.1,0.9-0.1,1.2-0.1s0.5-0.1,0.7-0.2
			c0.1-0.1,0.2-0.2,0.2-0.4l0,0c0-0.5-0.1-0.8-0.4-1.1s-0.6-0.4-1.2-0.4c-0.5,0-1,0.1-1.3,0.4c-0.3,0.2-0.5,0.5-0.6,0.8l-1.5-0.3
			c0.2-0.5,0.4-0.9,0.8-1.2s0.7-0.5,1.2-0.7c0.4-0.1,0.9-0.2,1.4-0.2c0.3,0,0.7,0,1,0.1c0.4,0.1,0.7,0.2,1,0.4s0.6,0.5,0.8,0.9
			c0.2,0.4,0.3,0.9,0.3,1.5v5.4h-1.6V212h-0.1c-0.1,0.2-0.3,0.4-0.5,0.6c-0.2,0.2-0.5,0.4-0.8,0.5
			C284.7,213,284.3,213.1,283.9,213.1z M284.2,211.8c0.4,0,0.8-0.1,1.1-0.3c0.3-0.2,0.6-0.4,0.7-0.7c0.2-0.3,0.2-0.6,0.2-0.9v-1.1
			c-0.1,0.1-0.2,0.1-0.3,0.2c-0.2,0-0.3,0.1-0.6,0.1s-0.4,0.1-0.6,0.1s-0.4,0-0.5,0.1c-0.3,0-0.6,0.1-0.8,0.2s-0.5,0.2-0.6,0.4
			c-0.2,0.2-0.2,0.4-0.2,0.7c0,0.4,0.1,0.7,0.4,0.9C283.4,211.7,283.8,211.8,284.2,211.8z"/>
		<path class="st2" d="M291.6,208.1v4.9H290v-11h1.6v4.1h0.1c0.2-0.4,0.5-0.8,0.9-1c0.4-0.3,0.9-0.4,1.5-0.4s1.1,0.1,1.5,0.3
			s0.7,0.6,1,1c0.2,0.5,0.3,1,0.3,1.7v5.2h-1.6v-5c0-0.6-0.2-1.1-0.5-1.4s-0.7-0.5-1.3-0.5c-0.4,0-0.7,0.1-1,0.2
			c-0.3,0.2-0.5,0.4-0.7,0.7C291.7,207.3,291.6,207.6,291.6,208.1z"/>
	</g>
	<g>
		<path class="st3" d="M230,31.7c0-0.4-0.2-0.8-0.5-1s-0.8-0.4-1.3-0.4c-0.4,0-0.7,0.1-1,0.2s-0.5,0.2-0.6,0.4
			c-0.1,0.2-0.2,0.4-0.2,0.6s0,0.4,0.1,0.5s0.2,0.3,0.4,0.4c0.2,0.1,0.3,0.2,0.6,0.3c0.2,0.1,0.4,0.1,0.7,0.2l1,0.2
			c0.5,0.1,0.9,0.2,1.3,0.4c0.4,0.2,0.7,0.4,1,0.7s0.5,0.6,0.7,0.9s0.2,0.8,0.2,1.2c0,0.7-0.2,1.2-0.5,1.7s-0.8,0.9-1.4,1.1
			s-1.4,0.4-2.3,0.4c-0.9,0-1.6-0.1-2.3-0.4c-0.7-0.3-1.2-0.7-1.5-1.2c-0.4-0.5-0.6-1.2-0.6-2h2.2c0,0.4,0.1,0.7,0.3,0.9
			s0.4,0.4,0.8,0.5s0.7,0.2,1.1,0.2c0.4,0,0.7-0.1,1-0.2c0.3-0.1,0.5-0.3,0.7-0.5s0.2-0.4,0.2-0.7c0-0.2-0.1-0.5-0.2-0.6
			c-0.1-0.2-0.4-0.3-0.6-0.4s-0.6-0.2-1-0.3l-1.2-0.3c-0.9-0.2-1.6-0.6-2.2-1c-0.5-0.5-0.8-1.1-0.8-1.9c0-0.7,0.2-1.2,0.5-1.7
			c0.4-0.5,0.8-0.9,1.5-1.2c0.6-0.3,1.3-0.4,2.1-0.4s1.5,0.1,2.1,0.4s1.1,0.7,1.4,1.2c0.3,0.5,0.5,1.1,0.5,1.7L230,31.7L230,31.7z"
			/>
		<path class="st3" d="M238.2,31.2v1.7h-4.9v-1.7H238.2z M234.4,29.3h2.3v7.6c0,0.2,0,0.4,0.1,0.5s0.2,0.2,0.3,0.2s0.2,0.1,0.4,0.1
			c0.1,0,0.2,0,0.3,0s0.2,0,0.2,0l0.4,1.7c-0.1,0-0.3,0.1-0.5,0.1s-0.5,0.1-0.8,0.1c-0.5,0-1-0.1-1.4-0.2s-0.7-0.4-1-0.8
			s-0.3-0.8-0.3-1.3V29.3z"/>
		<path class="st3" d="M242,39.6c-0.5,0-1-0.1-1.4-0.3s-0.7-0.5-1-0.8c-0.2-0.4-0.4-0.8-0.4-1.4c0-0.5,0.1-0.8,0.2-1.1
			c0.2-0.3,0.4-0.6,0.7-0.7c0.3-0.2,0.6-0.3,1-0.4c0.4-0.1,0.8-0.2,1.2-0.2c0.5,0,0.9-0.1,1.2-0.1s0.5-0.1,0.6-0.2s0.2-0.2,0.2-0.4
			l0,0c0-0.3-0.1-0.6-0.3-0.8s-0.5-0.3-0.9-0.3s-0.7,0.1-1,0.3c-0.2,0.2-0.4,0.4-0.5,0.7l-2.1-0.2c0.1-0.5,0.3-0.9,0.6-1.3
			c0.3-0.4,0.7-0.6,1.2-0.8c0.5-0.2,1.1-0.3,1.7-0.3c0.5,0,0.9,0.1,1.3,0.2c0.4,0.1,0.8,0.3,1.1,0.5s0.6,0.5,0.8,0.9
			s0.3,0.8,0.3,1.3v5.5h-2.2v-1.1h-0.1c-0.1,0.3-0.3,0.5-0.5,0.7s-0.5,0.3-0.8,0.5C242.8,39.5,242.4,39.6,242,39.6z M242.7,38
			c0.3,0,0.6-0.1,0.9-0.2s0.5-0.3,0.6-0.5s0.2-0.5,0.2-0.8v-0.9c-0.1,0-0.2,0.1-0.3,0.1s-0.3,0.1-0.4,0.1c-0.2,0-0.3,0.1-0.5,0.1
			s-0.3,0-0.4,0.1c-0.3,0-0.5,0.1-0.7,0.2c-0.2,0.1-0.4,0.2-0.5,0.3s-0.2,0.3-0.2,0.5c0,0.3,0.1,0.5,0.3,0.7S242.3,38,242.7,38z"/>
		<path class="st3" d="M252.8,31.2v1.7h-4.9v-1.7H252.8z M249,29.3h2.3v7.6c0,0.2,0,0.4,0.1,0.5s0.2,0.2,0.3,0.2s0.2,0.1,0.4,0.1
			c0.1,0,0.2,0,0.3,0s0.2,0,0.2,0l0.4,1.7c-0.1,0-0.3,0.1-0.5,0.1s-0.5,0.1-0.8,0.1c-0.5,0-1-0.1-1.4-0.2s-0.7-0.4-1-0.8
			s-0.3-0.8-0.3-1.3V29.3z"/>
		<path class="st3" d="M255.4,30.2c-0.3,0-0.6-0.1-0.9-0.3c-0.2-0.2-0.4-0.5-0.4-0.8s0.1-0.6,0.4-0.8c0.2-0.2,0.5-0.3,0.9-0.3
			c0.3,0,0.6,0.1,0.9,0.3s0.4,0.5,0.4,0.8s-0.1,0.6-0.4,0.8S255.7,30.2,255.4,30.2z M254.2,39.4v-8.2h2.3v8.2H254.2z"/>
		<path class="st3" d="M262,39.6c-0.8,0-1.5-0.2-2.1-0.5s-1.1-0.8-1.4-1.5s-0.5-1.4-0.5-2.2s0.2-1.6,0.5-2.2
			c0.3-0.6,0.8-1.1,1.4-1.5s1.3-0.5,2.1-0.5c0.8,0,1.5,0.2,2.1,0.5c0.6,0.4,1.1,0.8,1.4,1.5c0.3,0.6,0.5,1.4,0.5,2.2
			s-0.2,1.6-0.5,2.2c-0.3,0.6-0.8,1.1-1.4,1.5C263.6,39.4,262.8,39.6,262,39.6z M262,37.8c0.4,0,0.7-0.1,0.9-0.3s0.4-0.5,0.6-0.9
			c0.1-0.4,0.2-0.8,0.2-1.3s-0.1-0.9-0.2-1.3c-0.1-0.4-0.3-0.7-0.6-0.9c-0.3-0.2-0.6-0.3-0.9-0.3c-0.4,0-0.7,0.1-1,0.3
			s-0.5,0.5-0.6,0.9s-0.2,0.8-0.2,1.3s0.1,0.9,0.2,1.3c0.1,0.4,0.3,0.7,0.6,0.9C261.3,37.7,261.6,37.8,262,37.8z"/>
		<path class="st3" d="M269.8,34.7v4.7h-2.3v-8.2h2.2v1.4h0.1c0.2-0.5,0.5-0.9,0.9-1.1c0.4-0.3,0.9-0.4,1.5-0.4s1.1,0.1,1.5,0.4
			c0.4,0.2,0.8,0.6,1,1.1s0.4,1,0.4,1.6v5.2h-2.3v-4.8c0-0.5-0.1-0.9-0.4-1.2s-0.6-0.4-1.1-0.4c-0.3,0-0.6,0.1-0.8,0.2
			s-0.4,0.3-0.5,0.6C269.9,34,269.8,34.3,269.8,34.7z"/>
		<path class="st3" d="M283.7,33.6l-2.1,0.1c0-0.2-0.1-0.3-0.2-0.5c-0.1-0.1-0.3-0.3-0.5-0.3c-0.2-0.1-0.4-0.1-0.7-0.1
			c-0.4,0-0.6,0.1-0.9,0.2c-0.2,0.1-0.4,0.3-0.4,0.6c0,0.2,0.1,0.4,0.2,0.5c0.2,0.1,0.4,0.2,0.8,0.3l1.5,0.3
			c0.8,0.2,1.4,0.4,1.8,0.8c0.4,0.4,0.6,0.8,0.6,1.4c0,0.5-0.2,1-0.5,1.4s-0.7,0.7-1.3,0.9c-0.5,0.2-1.2,0.3-1.9,0.3
			c-1.1,0-1.9-0.2-2.6-0.7c-0.6-0.5-1-1.1-1.1-1.9l2.2-0.1c0.1,0.3,0.2,0.6,0.5,0.8s0.6,0.3,1,0.3s0.7-0.1,1-0.2
			c0.2-0.2,0.4-0.4,0.4-0.6c0-0.2-0.1-0.4-0.3-0.5c-0.2-0.1-0.4-0.2-0.8-0.3L279,36c-0.8-0.2-1.4-0.4-1.8-0.8
			c-0.4-0.4-0.6-0.9-0.6-1.5c0-0.5,0.1-1,0.4-1.4c0.3-0.4,0.7-0.7,1.2-0.9s1.1-0.3,1.8-0.3c1,0,1.8,0.2,2.4,0.7
			C283.2,32.2,283.6,32.8,283.7,33.6z"/>
	</g>
	<g>
		<rect x="223.5" y="53.1" class="st7" width="13" height="13"/>
		<rect x="223.5" y="89.8" class="st7" width="13" height="13"/>
		<rect x="223.5" y="126.6" class="st7" width="13" height="13"/>
		<rect x="223.5" y="163.3" class="st7" width="13" height="13"/>
		<rect x="223.5" y="200" class="st7" width="13" height="13"/>
	</g>
</g>
</svg>
