<?xml version="1.0" encoding="utf-8"?>
<!-- Generator: Adobe Illustrator 28.1.0, SVG Export Plug-In . SVG Version: 6.00 Build 0)  -->
<svg version="1.1" id="Layer_1" xmlns="http://www.w3.org/2000/svg" xmlns:xlink="http://www.w3.org/1999/xlink" x="0px" y="0px"
	 viewBox="0 0 405 303" style="enable-background:new 0 0 405 303;" xml:space="preserve">
<style type="text/css">
	.st0{fill:#FFFFFF;}
	.st1{fill:none;stroke:#25B5B1;stroke-width:0.8;stroke-miterlimit:10;}
	.st2{fill:#888888;}
	.st3{fill:#4F4F4F;}
	.st4{fill:none;stroke:#E7E7E7;}
	.st5{fill:#E7E7E7;}
	.st6{fill:#25B5B1;}
	.st7{fill:#25B5B1;stroke:#25B5B1;stroke-width:1.4144;stroke-miterlimit:10;}
	.st8{fill:none;stroke:#4F4F4F;stroke-width:1.4144;stroke-miterlimit:10;}
</style>
<g>
	<g>
		<g>
			<g>
				<g>
					<g>
						<g>
							<path class="st0" d="M394.9,295.6H10c-2.4,0-4.4-2-4.4-4.4V11.8c0-2.4,2-4.4,4.4-4.4h385c2.4,0,4.4,2,4.4,4.4v279.3
								C399.3,293.6,397.4,295.6,394.9,295.6z"/>
							<path class="st1" d="M394.9,295.6H10c-2.4,0-4.4-2-4.4-4.4V11.8c0-2.4,2-4.4,4.4-4.4h385c2.4,0,4.4,2,4.4,4.4v279.3
								C399.3,293.6,397.4,295.6,394.9,295.6z"/>
						</g>
						<g>
							<path class="st2" d="M48,64.4h-1.7l3.9-10.9h1.9L56,64.4h-1.7l-3.1-8.9h-0.1L48,64.4z M48.3,60.1H54v1.4h-5.7V60.1z"/>
							<path class="st2" d="M58.2,55c-0.3,0-0.5-0.1-0.7-0.3s-0.3-0.4-0.3-0.7s0.1-0.5,0.3-0.7s0.4-0.3,0.7-0.3s0.5,0.1,0.7,0.3
								s0.3,0.4,0.3,0.7s-0.1,0.5-0.3,0.7S58.5,55,58.2,55z M57.4,64.4v-8.2H59v8.2H57.4z"/>
							<path class="st2" d="M61.2,64.4v-8.2h1.5v1.3h0.1c0.1-0.4,0.4-0.8,0.8-1c0.4-0.3,0.8-0.4,1.3-0.4c0.1,0,0.2,0,0.4,0
								c0.1,0,0.2,0,0.3,0v1.5c-0.1,0-0.2,0-0.3-0.1c-0.2,0-0.3,0-0.5,0c-0.4,0-0.7,0.1-1,0.2c-0.3,0.2-0.5,0.4-0.7,0.7
								s-0.3,0.6-0.3,1v5H61.2z"/>
							<path class="st2" d="M80.5,59c0,1.2-0.2,2.2-0.6,3s-1,1.5-1.8,1.9c-0.7,0.4-1.6,0.7-2.5,0.7s-1.8-0.2-2.5-0.7
								c-0.7-0.4-1.3-1.1-1.8-1.9s-0.6-1.8-0.6-3s0.2-2.2,0.6-3s1-1.5,1.8-1.9s1.6-0.7,2.5-0.7s1.8,0.2,2.5,0.7s1.3,1.1,1.8,1.9
								C80.3,56.8,80.5,57.8,80.5,59z M78.9,59c0-0.9-0.1-1.6-0.4-2.2s-0.7-1.1-1.2-1.4c-0.5-0.3-1.1-0.5-1.7-0.5s-1.2,0.2-1.7,0.5
								s-0.9,0.8-1.2,1.4s-0.4,1.4-0.4,2.2s0.1,1.6,0.4,2.2c0.3,0.6,0.7,1.1,1.2,1.4c0.5,0.3,1.1,0.5,1.7,0.5s1.2-0.2,1.7-0.5
								s0.9-0.8,1.2-1.4C78.7,60.6,78.9,59.9,78.9,59z M75,60.9h1.6l1.1,1.5l0.5,0.7l1.8,2.4h-1.7l-1.2-1.6l-0.4-0.6L75,60.9z"/>
							<path class="st2" d="M87.6,61v-4.8h1.6v8.2h-1.6V63h-0.1c-0.2,0.4-0.5,0.8-0.9,1.1c-0.4,0.3-0.9,0.4-1.5,0.4
								c-0.5,0-1-0.1-1.4-0.3c-0.4-0.2-0.7-0.6-0.9-1c-0.2-0.5-0.3-1-0.3-1.7v-5.2H84v5c0,0.6,0.2,1,0.5,1.3s0.7,0.5,1.2,0.5
								c0.3,0,0.6-0.1,0.9-0.2c0.3-0.1,0.5-0.4,0.7-0.7C87.5,61.9,87.6,61.5,87.6,61z"/>
							<path class="st2" d="M93.7,64.6c-0.5,0-1-0.1-1.4-0.3c-0.4-0.2-0.8-0.5-1-0.8c-0.2-0.4-0.4-0.8-0.4-1.4
								c0-0.5,0.1-0.8,0.3-1.1s0.4-0.5,0.7-0.7c0.3-0.2,0.6-0.3,1-0.4s0.8-0.2,1.1-0.2c0.5-0.1,0.9-0.1,1.2-0.1s0.5-0.1,0.7-0.2
								c0.1-0.1,0.2-0.2,0.2-0.4l0,0c0-0.5-0.1-0.8-0.4-1.1s-0.6-0.4-1.2-0.4c-0.5,0-1,0.1-1.3,0.4c-0.3,0.2-0.5,0.5-0.6,0.8
								l-1.5-0.3c0.2-0.5,0.4-0.9,0.8-1.2s0.7-0.5,1.2-0.7c0.4-0.1,0.9-0.2,1.4-0.2c0.3,0,0.7,0,1,0.1c0.4,0.1,0.7,0.2,1,0.4
								s0.6,0.5,0.8,0.9c0.2,0.4,0.3,0.9,0.3,1.5v5.4H96v-1.1h-0.1c-0.1,0.2-0.3,0.4-0.5,0.6s-0.5,0.4-0.8,0.5S94.2,64.6,93.7,64.6z
								 M94.1,63.3c0.4,0,0.8-0.1,1.1-0.3c0.3-0.2,0.6-0.4,0.7-0.7c0.2-0.3,0.2-0.6,0.2-0.9v-1.1c-0.1,0.1-0.2,0.1-0.3,0.2
								c-0.2,0-0.3,0.1-0.6,0.1s-0.4,0.1-0.6,0.1s-0.4,0-0.5,0.1c-0.3,0-0.6,0.1-0.8,0.2s-0.5,0.2-0.6,0.4c-0.2,0.2-0.2,0.4-0.2,0.7
								c0,0.4,0.1,0.7,0.4,0.9S93.6,63.3,94.1,63.3z"/>
							<path class="st2" d="M101.5,53.5v10.9h-1.6V53.5H101.5z"/>
							<path class="st2" d="M104.4,55c-0.3,0-0.5-0.1-0.7-0.3s-0.3-0.4-0.3-0.7s0.1-0.5,0.3-0.7c0.2-0.2,0.4-0.3,0.7-0.3
								c0.3,0,0.5,0.1,0.7,0.3s0.3,0.4,0.3,0.7s-0.1,0.5-0.3,0.7C104.9,54.9,104.7,55,104.4,55z M103.6,64.4v-8.2h1.6v8.2H103.6z"/>
							<path class="st2" d="M111.2,56.2v1.3h-4.5v-1.3H111.2z M107.9,54.3h1.6V62c0,0.3,0,0.5,0.1,0.7s0.2,0.3,0.4,0.3
								c0.1,0.1,0.3,0.1,0.5,0.1c0.1,0,0.2,0,0.3,0s0.2,0,0.2,0l0.3,1.3c-0.1,0-0.2,0.1-0.4,0.1c-0.2,0-0.4,0.1-0.6,0.1
								c-0.4,0-0.8-0.1-1.2-0.2c-0.4-0.2-0.7-0.4-0.9-0.7c-0.2-0.3-0.3-0.7-0.3-1.2V54.3z"/>
							<path class="st2" d="M113.9,67.5c-0.2,0-0.5,0-0.6-0.1s-0.3-0.1-0.4-0.1l0.4-1.3c0.3,0.1,0.6,0.1,0.8,0.1
								c0.2,0,0.4-0.1,0.6-0.3c0.2-0.2,0.3-0.4,0.5-0.8l0.2-0.5l-3-8.3h1.7l2.1,6.3h0.1l2.1-6.3h1.7l-3.4,9.3
								c-0.2,0.4-0.4,0.8-0.6,1.1c-0.2,0.3-0.5,0.5-0.9,0.7C114.8,67.4,114.4,67.5,113.9,67.5z"/>
							<path class="st2" d="M127.2,53.5v10.9h-1.6V53.5H127.2z"/>
							<path class="st2" d="M131,59.6v4.9h-1.6v-8.2h1.5v1.3h0.1c0.2-0.4,0.5-0.8,0.9-1c0.4-0.3,0.9-0.4,1.5-0.4s1,0.1,1.5,0.3
								s0.7,0.6,1,1c0.2,0.5,0.3,1,0.3,1.7v5.2h-1.6v-5c0-0.6-0.2-1.1-0.5-1.4c-0.3-0.3-0.7-0.5-1.3-0.5c-0.4,0-0.7,0.1-1,0.2
								c-0.3,0.2-0.5,0.4-0.7,0.7C131.1,58.8,131,59.1,131,59.6z"/>
							<path class="st2" d="M141.5,64.6c-0.7,0-1.2-0.2-1.8-0.5c-0.5-0.3-0.9-0.8-1.2-1.5s-0.4-1.4-0.4-2.3c0-0.9,0.1-1.6,0.4-2.3
								c0.3-0.6,0.7-1.1,1.2-1.4s1.1-0.5,1.8-0.5c0.5,0,0.9,0.1,1.2,0.3s0.6,0.4,0.7,0.6s0.3,0.4,0.4,0.6h0.1v-4.1h1.6v10.9H144
								v-1.3h-0.1c-0.1,0.2-0.2,0.4-0.4,0.6c-0.2,0.2-0.4,0.4-0.7,0.6C142.4,64.5,142,64.6,141.5,64.6z M141.8,63.2
								c0.5,0,0.8-0.1,1.2-0.4c0.3-0.2,0.6-0.6,0.7-1s0.2-0.9,0.2-1.5s-0.1-1.1-0.2-1.5c-0.2-0.4-0.4-0.8-0.7-1s-0.7-0.4-1.2-0.4
								s-0.9,0.1-1.2,0.4c-0.3,0.2-0.6,0.6-0.7,1c-0.2,0.4-0.2,0.9-0.2,1.5c0,0.5,0.1,1,0.2,1.5c0.2,0.4,0.4,0.8,0.7,1
								C140.9,63.1,141.3,63.2,141.8,63.2z"/>
							<path class="st2" d="M151.3,64.6c-0.8,0-1.5-0.2-2.1-0.5c-0.6-0.3-1-0.8-1.3-1.5s-0.5-1.4-0.5-2.2s0.2-1.6,0.5-2.2
								s0.8-1.1,1.3-1.5c0.6-0.4,1.2-0.5,2-0.5c0.5,0,0.9,0.1,1.3,0.2c0.4,0.2,0.8,0.4,1.2,0.7s0.6,0.8,0.8,1.3s0.3,1.2,0.3,1.9v0.6
								h-6.5v-1.2h4.9c0-0.4-0.1-0.8-0.3-1.1s-0.4-0.6-0.7-0.8s-0.7-0.3-1.1-0.3c-0.4,0-0.8,0.1-1.2,0.3s-0.6,0.5-0.8,0.9
								s-0.3,0.7-0.3,1.1v0.9c0,0.5,0.1,1,0.3,1.4s0.5,0.7,0.8,0.9s0.8,0.3,1.2,0.3c0.3,0,0.6,0,0.8-0.1s0.5-0.2,0.6-0.4
								c0.2-0.2,0.3-0.4,0.4-0.6l1.5,0.3c-0.1,0.4-0.3,0.8-0.6,1.2c-0.3,0.3-0.7,0.6-1.2,0.8C152.4,64.5,151.9,64.6,151.3,64.6z"/>
							<path class="st2" d="M157.8,56.2l1.8,3.2l1.8-3.2h1.7l-2.6,4.1l2.6,4.1h-1.7l-1.8-3.1l-1.8,3.1h-1.7l2.5-4.1l-2.5-4.1
								C156.1,56.2,157.8,56.2,157.8,56.2z"/>
							<path class="st2" d="M47.1,101.4V90.5H51c0.8,0,1.6,0.2,2.1,0.5c0.6,0.3,1,0.7,1.3,1.3c0.3,0.5,0.4,1.1,0.4,1.8
								c0,0.7-0.1,1.3-0.4,1.8c-0.3,0.5-0.7,1-1.3,1.3s-1.3,0.5-2.1,0.5h-2.7v-1.4h2.5c0.5,0,1-0.1,1.3-0.3c0.3-0.2,0.6-0.4,0.7-0.8
								s0.2-0.7,0.2-1.1s-0.1-0.8-0.2-1.1c-0.2-0.3-0.4-0.6-0.7-0.8c-0.3-0.2-0.8-0.3-1.3-0.3h-2.1v9.5H47.1z"/>
							<path class="st2" d="M56.6,90.5h2l3.5,8.5h0.1l3.5-8.5h2v10.9h-1.6v-7.9H66l-3.2,7.9h-1.3l-3.2-7.9h-0.1v7.9h-1.6
								C56.6,101.4,56.6,90.5,56.6,90.5z"/>
							<path class="st2" d="M69.8,103.4v-1l3.2-3.3c0.3-0.4,0.6-0.7,0.8-0.9c0.2-0.3,0.4-0.5,0.5-0.8c0.1-0.2,0.2-0.5,0.2-0.8
								s-0.1-0.6-0.2-0.8c-0.1-0.2-0.3-0.4-0.6-0.5c-0.3-0.1-0.5-0.2-0.9-0.2c-0.3,0-0.6,0.1-0.9,0.2s-0.4,0.3-0.6,0.6
								c-0.1,0.3-0.2,0.5-0.2,0.9h-1.4c0-0.6,0.1-1.1,0.4-1.5s0.6-0.8,1.1-1s1-0.4,1.6-0.4s1.1,0.1,1.6,0.4c0.5,0.2,0.8,0.6,1.1,1
								c0.3,0.4,0.4,0.9,0.4,1.4c0,0.4-0.1,0.7-0.2,1s-0.4,0.7-0.7,1.1c-0.3,0.4-0.8,0.9-1.3,1.5l-1.9,2v0.1H76v1.2h-6.2V103.4z"/>
							<path class="st2" d="M78.7,103.5c-0.3,0-0.5-0.1-0.7-0.3c-0.2-0.2-0.3-0.4-0.3-0.7c0-0.3,0.1-0.5,0.3-0.6
								c0.2-0.2,0.4-0.3,0.7-0.3c0.3,0,0.5,0.1,0.7,0.3c0.2,0.2,0.3,0.4,0.3,0.6s0,0.3-0.1,0.5s-0.2,0.3-0.3,0.3
								C79,103.5,78.9,103.5,78.7,103.5z"/>
							<path class="st2" d="M84.6,103.5c-0.6,0-1.1-0.1-1.6-0.3s-0.8-0.5-1.1-0.9c-0.3-0.4-0.4-0.8-0.4-1.3h1.4c0,0.4,0.2,0.7,0.5,1
								s0.7,0.4,1.2,0.4c0.4,0,0.7-0.1,1-0.3c0.3-0.2,0.5-0.4,0.7-0.7c0.2-0.3,0.2-0.6,0.2-1s-0.1-0.7-0.2-1
								c-0.2-0.3-0.4-0.5-0.7-0.7c-0.3-0.2-0.6-0.3-1-0.3c-0.3,0-0.6,0-0.9,0.1s-0.5,0.2-0.7,0.4l-1.3-0.2l0.5-4.8h5.2v1.2h-4
								l-0.3,2.6h0.1c0.2-0.2,0.4-0.3,0.7-0.4c0.3-0.1,0.6-0.2,1-0.2c0.6,0,1.1,0.1,1.5,0.4c0.5,0.3,0.8,0.6,1.1,1.1
								c0.3,0.5,0.4,1,0.4,1.6s-0.1,1.2-0.4,1.6c-0.3,0.5-0.7,0.9-1.2,1.1C85.8,103.4,85.2,103.5,84.6,103.5z"/>
							<path class="st2" d="M53,130.4c-0.1-0.5-0.3-0.9-0.7-1.2s-0.9-0.4-1.6-0.4c-0.4,0-0.8,0.1-1.2,0.2c-0.3,0.1-0.6,0.3-0.8,0.6
								c-0.2,0.2-0.3,0.5-0.3,0.8s0.1,0.5,0.2,0.7c0.1,0.2,0.3,0.3,0.5,0.5c0.2,0.1,0.4,0.2,0.6,0.3c0.2,0.1,0.5,0.2,0.7,0.2
								l1.1,0.3c0.3,0.1,0.7,0.2,1.1,0.3c0.4,0.1,0.7,0.3,1,0.6s0.6,0.5,0.8,0.9s0.3,0.8,0.3,1.3c0,0.6-0.2,1.2-0.5,1.6
								c-0.3,0.5-0.8,0.9-1.4,1.1s-1.3,0.4-2.2,0.4c-0.8,0-1.5-0.1-2.1-0.4c-0.6-0.3-1.1-0.6-1.4-1.1c-0.3-0.5-0.5-1-0.6-1.7h1.7
								c0,0.4,0.2,0.7,0.4,1s0.5,0.5,0.9,0.6s0.7,0.2,1.2,0.2s0.9-0.1,1.2-0.2s0.7-0.4,0.9-0.6c0.2-0.3,0.3-0.6,0.3-0.9
								c0-0.3-0.1-0.6-0.3-0.8s-0.4-0.4-0.7-0.5s-0.7-0.3-1.1-0.4l-1.3-0.4c-0.9-0.2-1.6-0.6-2.1-1c-0.5-0.5-0.8-1.1-0.8-1.8
								c0-0.6,0.2-1.2,0.5-1.6s0.8-0.8,1.4-1.1c0.6-0.3,1.2-0.4,2-0.4c0.7,0,1.4,0.1,2,0.4c0.6,0.3,1,0.6,1.3,1.1s0.5,1,0.5,1.6H53
								V130.4z"/>
							<path class="st2" d="M60,138.6c-0.8,0-1.4-0.2-2-0.5c-0.6-0.4-1-0.8-1.3-1.5c-0.3-0.6-0.5-1.4-0.5-2.2s0.2-1.6,0.5-2.2
								c0.3-0.6,0.8-1.1,1.3-1.5c0.6-0.4,1.2-0.5,2-0.5s1.4,0.2,2,0.5s1,0.8,1.3,1.5c0.3,0.6,0.5,1.4,0.5,2.2s-0.2,1.6-0.5,2.2
								c-0.3,0.6-0.8,1.1-1.3,1.5S60.8,138.6,60,138.6z M60,137.2c0.5,0,0.9-0.1,1.2-0.4c0.3-0.3,0.6-0.6,0.7-1
								c0.2-0.4,0.2-0.9,0.2-1.4s-0.1-1-0.2-1.4c-0.2-0.4-0.4-0.8-0.7-1.1s-0.7-0.4-1.2-0.4s-0.9,0.1-1.2,0.4
								c-0.3,0.3-0.6,0.6-0.7,1.1c-0.2,0.4-0.2,0.9-0.2,1.4s0.1,1,0.2,1.4c0.2,0.4,0.4,0.8,0.7,1C59.1,137.1,59.5,137.2,60,137.2z"
								/>
							<path class="st2" d="M65.4,140.4v-1l3.2-3.3c0.3-0.4,0.6-0.7,0.8-0.9c0.2-0.3,0.4-0.5,0.5-0.8c0.1-0.2,0.2-0.5,0.2-0.8
								s-0.1-0.6-0.2-0.8s-0.3-0.4-0.6-0.5c-0.3-0.1-0.5-0.2-0.9-0.2c-0.3,0-0.6,0.1-0.9,0.2c-0.3,0.1-0.4,0.3-0.6,0.6
								c-0.1,0.3-0.2,0.5-0.2,0.9h-1.4c0-0.6,0.1-1.1,0.4-1.5s0.6-0.8,1.1-1s1-0.4,1.6-0.4s1.1,0.1,1.6,0.4c0.5,0.2,0.8,0.6,1.1,1
								c0.3,0.4,0.4,0.9,0.4,1.4c0,0.4-0.1,0.7-0.2,1s-0.4,0.7-0.7,1.1c-0.3,0.4-0.8,0.9-1.3,1.5l-1.9,2v0.1h4.3v1.2h-6.3V140.4z"/>
							<path class="st2" d="M56.5,170c0,1.2-0.2,2.2-0.6,3c-0.4,0.8-1,1.5-1.8,1.9c-0.7,0.4-1.6,0.7-2.5,0.7s-1.8-0.2-2.5-0.7
								c-0.7-0.4-1.3-1.1-1.7-1.9c-0.4-0.8-0.6-1.8-0.6-3s0.2-2.2,0.6-3c0.4-0.8,1-1.5,1.7-1.9s1.6-0.7,2.5-0.7s1.8,0.2,2.5,0.7
								s1.3,1.1,1.8,1.9S56.5,168.8,56.5,170z M54.9,170c0-0.9-0.1-1.6-0.4-2.2c-0.3-0.6-0.7-1.1-1.2-1.4c-0.5-0.3-1.1-0.5-1.7-0.5
								c-0.6,0-1.2,0.2-1.7,0.5s-0.9,0.8-1.2,1.4c-0.3,0.6-0.4,1.4-0.4,2.2s0.1,1.6,0.4,2.2c0.3,0.6,0.7,1.1,1.2,1.4
								c0.5,0.3,1.1,0.5,1.7,0.5c0.6,0,1.2-0.2,1.7-0.5s0.9-0.8,1.2-1.4S54.9,170.9,54.9,170z"/>
							<path class="st2" d="M61.6,177.5c-0.6,0-1.2-0.1-1.7-0.3s-0.9-0.5-1.2-0.9s-0.4-0.8-0.5-1.4h1.4c0,0.3,0.1,0.5,0.3,0.7
								s0.4,0.4,0.7,0.5s0.6,0.2,0.9,0.2c0.4,0,0.7-0.1,1-0.2c0.3-0.1,0.5-0.3,0.7-0.5s0.2-0.5,0.2-0.8s-0.1-0.6-0.2-0.8
								s-0.4-0.4-0.7-0.6c-0.3-0.1-0.7-0.2-1.1-0.2h-0.8V172h0.8c0.4,0,0.7-0.1,0.9-0.2c0.3-0.1,0.5-0.3,0.6-0.5
								c0.2-0.2,0.2-0.5,0.2-0.8s-0.1-0.5-0.2-0.8c-0.1-0.2-0.3-0.4-0.6-0.5s-0.5-0.2-0.8-0.2s-0.6,0.1-0.9,0.2
								c-0.3,0.1-0.5,0.3-0.6,0.5c-0.2,0.2-0.3,0.5-0.3,0.7h-1.4c0-0.5,0.2-1,0.5-1.3c0.3-0.4,0.7-0.7,1.1-0.9
								c0.5-0.2,1-0.3,1.6-0.3s1.1,0.1,1.6,0.4c0.4,0.2,0.8,0.5,1,0.9c0.2,0.4,0.4,0.8,0.4,1.3s-0.1,1-0.4,1.3
								c-0.3,0.4-0.7,0.6-1.2,0.7v0.1c0.6,0.1,1.1,0.3,1.5,0.7c0.4,0.4,0.5,0.9,0.5,1.5c0,0.5-0.1,1-0.4,1.4s-0.7,0.7-1.2,1
								C62.8,177.4,62.2,177.5,61.6,177.5z"/>
							<path class="st2" d="M56.1,205.1h-1.7c-0.1-0.4-0.2-0.7-0.4-0.9c-0.2-0.3-0.4-0.5-0.6-0.7c-0.3-0.2-0.5-0.3-0.8-0.4
								c-0.3-0.1-0.6-0.1-1-0.1c-0.6,0-1.2,0.2-1.7,0.5s-0.9,0.8-1.2,1.4c-0.3,0.6-0.4,1.4-0.4,2.2c0,0.9,0.1,1.6,0.4,2.2
								c0.3,0.6,0.7,1.1,1.2,1.4s1.1,0.5,1.7,0.5c0.3,0,0.7,0,1-0.1s0.6-0.2,0.8-0.4c0.3-0.2,0.5-0.4,0.6-0.7s0.3-0.6,0.4-0.9h1.7
								c-0.1,0.5-0.3,1-0.5,1.5s-0.6,0.8-1,1.2c-0.4,0.3-0.8,0.6-1.4,0.8s-1.1,0.3-1.7,0.3c-0.9,0-1.8-0.2-2.5-0.7
								c-0.7-0.4-1.3-1.1-1.7-1.9c-0.4-0.8-0.6-1.8-0.6-3s0.2-2.2,0.6-3c0.4-0.8,1-1.5,1.7-1.9s1.6-0.7,2.5-0.7
								c0.6,0,1.1,0.1,1.6,0.2c0.5,0.2,1,0.4,1.4,0.7s0.7,0.7,1,1.2C55.8,203.9,56,204.5,56.1,205.1z"/>
							<path class="st2" d="M61.4,212.6c-0.8,0-1.4-0.2-2-0.5c-0.6-0.4-1-0.8-1.3-1.5c-0.3-0.6-0.5-1.4-0.5-2.2s0.2-1.6,0.5-2.2
								c0.3-0.6,0.8-1.1,1.3-1.5c0.6-0.4,1.2-0.5,2-0.5s1.4,0.2,2,0.5s1,0.8,1.3,1.5c0.3,0.6,0.5,1.4,0.5,2.2s-0.2,1.6-0.5,2.2
								c-0.3,0.6-0.8,1.1-1.3,1.5S62.2,212.6,61.4,212.6z M61.4,211.2c0.5,0,0.9-0.1,1.2-0.4c0.3-0.3,0.6-0.6,0.7-1
								c0.2-0.4,0.2-0.9,0.2-1.4s-0.1-1-0.2-1.4c-0.2-0.4-0.4-0.8-0.7-1.1s-0.7-0.4-1.2-0.4s-0.9,0.1-1.2,0.4
								c-0.3,0.3-0.6,0.6-0.7,1.1c-0.2,0.4-0.2,0.9-0.2,1.4s0.1,1,0.2,1.4c0.2,0.4,0.4,0.8,0.7,1C60.5,211.1,60.9,211.2,61.4,211.2z
								"/>
							<path class="st2" d="M47.1,249.4v-10.9H51c0.8,0,1.6,0.2,2.1,0.5c0.6,0.3,1,0.7,1.3,1.3c0.3,0.5,0.4,1.1,0.4,1.8
								s-0.1,1.3-0.4,1.8c-0.3,0.5-0.7,1-1.3,1.3s-1.3,0.5-2.1,0.5h-2.7v-1.4h2.5c0.5,0,1-0.1,1.3-0.3s0.6-0.4,0.7-0.8
								s0.2-0.7,0.2-1.1s-0.1-0.8-0.2-1.1c-0.2-0.3-0.4-0.6-0.7-0.8s-0.8-0.3-1.3-0.3h-2.1v9.5H47.1z"/>
							<path class="st2" d="M56.6,238.5h2l3.5,8.5h0.1l3.5-8.5h2v10.9h-1.6v-7.9H66l-3.2,7.9h-1.3l-3.2-7.9h-0.1v7.9h-1.6
								C56.6,249.4,56.6,238.5,56.6,238.5z"/>
							<path class="st2" d="M73.4,242v9.5H72v-8h-0.1l-2.3,1.5v-1.4L72,242H73.4z"/>
							<path class="st2" d="M79.3,251.6c-0.7,0-1.4-0.2-1.9-0.6c-0.5-0.4-0.9-0.9-1.2-1.7c-0.3-0.7-0.4-1.6-0.4-2.6s0.1-1.9,0.4-2.6
								c0.3-0.7,0.7-1.3,1.2-1.7s1.1-0.6,1.9-0.6s1.3,0.2,1.9,0.6c0.5,0.4,0.9,0.9,1.2,1.7s0.4,1.6,0.4,2.6s-0.1,1.9-0.4,2.6
								c-0.3,0.7-0.7,1.3-1.2,1.7C80.6,251.4,80,251.6,79.3,251.6z M79.3,250.3c0.6,0,1.1-0.3,1.5-0.9c0.4-0.6,0.5-1.5,0.5-2.7
								c0-0.8-0.1-1.4-0.2-2c-0.2-0.5-0.4-1-0.7-1.2c-0.3-0.3-0.7-0.4-1.1-0.4c-0.6,0-1.1,0.3-1.5,0.9s-0.5,1.5-0.5,2.7
								c0,0.8,0.1,1.5,0.2,2c0.2,0.5,0.4,1,0.7,1.2C78.5,250.2,78.8,250.3,79.3,250.3z"/>
							<path class="st2" d="M55.9,275.5v10.9h-1.5l-5.5-8h-0.1v8h-1.6v-10.9h1.5l5.6,8h0.1v-8H55.9z"/>
							<path class="st2" d="M67.7,281c0,1.2-0.2,2.2-0.6,3s-1,1.5-1.8,1.9c-0.7,0.4-1.6,0.7-2.5,0.7s-1.8-0.2-2.5-0.7
								c-0.7-0.4-1.3-1.1-1.7-1.9s-0.6-1.8-0.6-3s0.2-2.2,0.6-3c0.4-0.8,1-1.5,1.7-1.9s1.6-0.7,2.5-0.7s1.8,0.2,2.5,0.7
								s1.3,1.1,1.8,1.9S67.7,279.8,67.7,281z M66.1,281c0-0.9-0.1-1.6-0.4-2.2s-0.7-1.1-1.2-1.4s-1.1-0.5-1.7-0.5
								c-0.6,0-1.2,0.2-1.7,0.5s-0.9,0.8-1.2,1.4s-0.4,1.4-0.4,2.2s0.1,1.6,0.4,2.2c0.3,0.6,0.7,1.1,1.2,1.4s1.1,0.5,1.7,0.5
								c0.6,0,1.2-0.2,1.7-0.5s0.9-0.8,1.2-1.4C66,282.6,66.1,281.9,66.1,281z"/>
							<path class="st2" d="M69.5,288.4v-1l3.2-3.3c0.3-0.4,0.6-0.7,0.8-0.9c0.2-0.3,0.4-0.5,0.5-0.8c0.1-0.2,0.2-0.5,0.2-0.8
								s-0.1-0.6-0.2-0.8c-0.1-0.2-0.3-0.4-0.6-0.5c-0.3-0.1-0.5-0.2-0.9-0.2c-0.3,0-0.6,0.1-0.9,0.2s-0.4,0.3-0.6,0.6
								s-0.2,0.5-0.2,0.9h-1.4c0-0.6,0.1-1.1,0.4-1.5s0.6-0.8,1.1-1s1-0.4,1.6-0.4s1.1,0.1,1.6,0.4c0.5,0.2,0.8,0.6,1.1,1
								s0.4,0.9,0.4,1.4c0,0.4-0.1,0.7-0.2,1s-0.4,0.7-0.7,1.1c-0.3,0.4-0.8,0.9-1.3,1.5l-1.9,2v0.1h4.3v1.2h-6.3V288.4z"/>
						</g>
					</g>
				</g>
			</g>
			<g>
				<path class="st3" d="M26.6,28l2.6,8.3h0.1L32,28h2.6l-3.8,10.9h-3L24.1,28H26.6z"/>
				<path class="st3" d="M38.2,39.1c-0.5,0-1-0.1-1.4-0.3s-0.7-0.5-1-0.8c-0.2-0.4-0.4-0.8-0.4-1.4c0-0.5,0.1-0.8,0.2-1.1
					c0.2-0.3,0.4-0.6,0.7-0.7c0.3-0.2,0.6-0.3,1-0.4c0.4-0.1,0.8-0.2,1.2-0.2c0.5,0,0.9-0.1,1.2-0.1s0.5-0.1,0.6-0.2
					c0.1-0.1,0.2-0.2,0.2-0.4l0,0c0-0.3-0.1-0.6-0.3-0.8s-0.5-0.3-0.9-0.3s-0.7,0.1-1,0.3c-0.2,0.2-0.4,0.4-0.5,0.7l-2.1-0.2
					c0.1-0.5,0.3-0.9,0.6-1.3c0.3-0.4,0.7-0.6,1.2-0.8s1.1-0.3,1.7-0.3c0.5,0,0.9,0.1,1.3,0.2c0.4,0.1,0.8,0.3,1.1,0.5
					s0.6,0.5,0.8,0.9s0.3,0.8,0.3,1.3v5.5h-2.2v-1.1h-0.1c-0.1,0.3-0.3,0.5-0.5,0.7s-0.5,0.3-0.8,0.5C38.9,39,38.6,39.1,38.2,39.1z
					 M38.8,37.5c0.3,0,0.6-0.1,0.9-0.2c0.3-0.1,0.5-0.3,0.6-0.5s0.2-0.5,0.2-0.8v-0.9c-0.1,0-0.2,0.1-0.3,0.1s-0.3,0.1-0.4,0.1
					c-0.2,0-0.3,0.1-0.5,0.1s-0.3,0-0.4,0.1c-0.3,0-0.5,0.1-0.7,0.2c-0.2,0.1-0.4,0.2-0.5,0.3s-0.2,0.3-0.2,0.5
					c0,0.3,0.1,0.5,0.3,0.7S38.5,37.5,38.8,37.5z"/>
				<path class="st3" d="M44.6,38.9v-8.2h2.2v1.4h0.1c0.1-0.5,0.4-0.9,0.8-1.2c0.4-0.3,0.8-0.4,1.2-0.4c0.1,0,0.2,0,0.4,0
					c0.1,0,0.2,0,0.3,0.1v2c-0.1,0-0.3-0.1-0.4-0.1c-0.2,0-0.4,0-0.5,0c-0.3,0-0.6,0.1-0.9,0.2c-0.3,0.1-0.5,0.3-0.6,0.6
					C47,33.6,47,33.9,47,34.2v4.6L44.6,38.9L44.6,38.9z"/>
				<path class="st3" d="M51.8,29.7c-0.3,0-0.6-0.1-0.9-0.3c-0.2-0.2-0.4-0.5-0.4-0.8s0.1-0.6,0.4-0.8c0.2-0.2,0.5-0.3,0.9-0.3
					c0.3,0,0.6,0.1,0.9,0.3c0.2,0.2,0.4,0.5,0.4,0.8s-0.1,0.6-0.4,0.8C52.5,29.6,52.2,29.7,51.8,29.7z M50.7,38.9v-8.2H53v8.2H50.7z
					"/>
				<path class="st3" d="M57.1,39.1c-0.5,0-1-0.1-1.4-0.3s-0.7-0.5-1-0.8c-0.2-0.4-0.4-0.8-0.4-1.4c0-0.5,0.1-0.8,0.2-1.1
					c0.2-0.3,0.4-0.6,0.7-0.7c0.3-0.2,0.6-0.3,1-0.4c0.4-0.1,0.8-0.2,1.2-0.2c0.5,0,0.9-0.1,1.2-0.1s0.5-0.1,0.6-0.2
					c0.1-0.1,0.2-0.2,0.2-0.4l0,0c0-0.3-0.1-0.6-0.3-0.8s-0.5-0.3-0.9-0.3s-0.7,0.1-1,0.3c-0.2,0.2-0.4,0.4-0.5,0.7l-2.1-0.2
					c0.1-0.5,0.3-0.9,0.6-1.3c0.3-0.4,0.7-0.6,1.2-0.8s1.1-0.3,1.7-0.3c0.5,0,0.9,0.1,1.3,0.2c0.4,0.1,0.8,0.3,1.1,0.5
					s0.6,0.5,0.8,0.9s0.3,0.8,0.3,1.3v5.5h-2.2v-1.1h-0.1c-0.1,0.3-0.3,0.5-0.5,0.7s-0.5,0.3-0.8,0.5C57.9,39,57.5,39.1,57.1,39.1z
					 M57.7,37.5c0.3,0,0.6-0.1,0.9-0.2c0.3-0.1,0.5-0.3,0.6-0.5s0.2-0.5,0.2-0.8v-0.9c-0.1,0-0.2,0.1-0.3,0.1s-0.3,0.1-0.4,0.1
					c-0.2,0-0.3,0.1-0.5,0.1s-0.3,0-0.4,0.1c-0.3,0-0.5,0.1-0.7,0.2c-0.2,0.1-0.4,0.2-0.5,0.3s-0.2,0.3-0.2,0.5
					c0,0.3,0.1,0.5,0.3,0.7S57.4,37.5,57.7,37.5z"/>
				<path class="st3" d="M63.5,38.9V28h2.3v4.1h0.1c0.1-0.2,0.2-0.4,0.4-0.7c0.2-0.2,0.4-0.4,0.7-0.6c0.3-0.2,0.7-0.2,1.1-0.2
					c0.6,0,1.1,0.2,1.7,0.5c0.5,0.3,0.9,0.8,1.2,1.4c0.3,0.6,0.5,1.4,0.5,2.3c0,0.9-0.1,1.7-0.4,2.3s-0.7,1.1-1.2,1.4
					c-0.5,0.3-1.1,0.5-1.7,0.5c-0.4,0-0.8-0.1-1.1-0.2c-0.3-0.1-0.6-0.3-0.8-0.6c-0.2-0.2-0.3-0.4-0.4-0.7h-0.1v1.3h-2.3V38.9z
					 M65.7,34.8c0,0.5,0.1,0.9,0.2,1.3c0.1,0.4,0.3,0.6,0.6,0.8c0.3,0.2,0.6,0.3,0.9,0.3c0.4,0,0.7-0.1,0.9-0.3
					c0.3-0.2,0.5-0.5,0.6-0.9s0.2-0.8,0.2-1.3s-0.1-0.9-0.2-1.2c-0.1-0.4-0.3-0.6-0.6-0.8c-0.3-0.2-0.6-0.3-0.9-0.3
					c-0.4,0-0.7,0.1-0.9,0.3s-0.4,0.5-0.6,0.8C65.8,33.9,65.7,34.3,65.7,34.8z"/>
				<path class="st3" d="M75.3,28v10.9H73V28H75.3z"/>
				<path class="st3" d="M80.8,39.1c-0.8,0-1.6-0.2-2.2-0.5s-1.1-0.8-1.4-1.5c-0.3-0.6-0.5-1.4-0.5-2.2s0.2-1.6,0.5-2.2
					c0.3-0.6,0.8-1.1,1.4-1.5s1.3-0.5,2.1-0.5c0.5,0,1,0.1,1.5,0.3c0.5,0.2,0.9,0.4,1.2,0.8c0.3,0.3,0.6,0.8,0.8,1.3
					c0.2,0.5,0.3,1.1,0.3,1.8v0.6h-6.9V34h4.8c0-0.3-0.1-0.6-0.2-0.9c-0.1-0.3-0.3-0.5-0.6-0.6c-0.2-0.1-0.5-0.2-0.9-0.2
					c-0.3,0-0.6,0.1-0.9,0.2s-0.5,0.4-0.6,0.6C79.1,33.4,79,33.7,79,34v1.3c0,0.4,0.1,0.8,0.2,1c0.2,0.3,0.4,0.5,0.6,0.7
					c0.3,0.2,0.6,0.2,1,0.2c0.3,0,0.5,0,0.7-0.1s0.4-0.2,0.5-0.3s0.3-0.3,0.3-0.5l2.1,0.1c-0.1,0.5-0.3,0.9-0.7,1.3
					c-0.3,0.4-0.8,0.7-1.3,0.9C82.1,39,81.5,39.1,80.8,39.1z"/>
				<path class="st3" d="M92.9,33.1l-2.1,0.1c0-0.2-0.1-0.3-0.2-0.5c-0.1-0.1-0.3-0.3-0.5-0.3c-0.2-0.1-0.4-0.1-0.7-0.1
					c-0.4,0-0.6,0.1-0.9,0.2c-0.2,0.1-0.4,0.3-0.4,0.6c0,0.2,0.1,0.4,0.2,0.5c0.2,0.1,0.4,0.2,0.8,0.3l1.5,0.3
					c0.8,0.2,1.4,0.4,1.8,0.8c0.4,0.4,0.6,0.8,0.6,1.4c0,0.5-0.2,1-0.5,1.4s-0.7,0.7-1.3,0.9C90.7,38.9,90,39,89.3,39
					c-1.1,0-1.9-0.2-2.6-0.7c-0.6-0.5-1-1.1-1.1-1.9l2.2-0.1c0.1,0.3,0.2,0.6,0.5,0.8s0.6,0.3,1,0.3s0.7-0.1,1-0.2
					c0.2-0.2,0.4-0.4,0.4-0.6c0-0.2-0.1-0.4-0.3-0.5c-0.2-0.1-0.4-0.2-0.8-0.3l-1.4-0.3c-0.8-0.2-1.4-0.4-1.8-0.8
					c-0.4-0.4-0.6-0.9-0.6-1.5c0-0.5,0.1-1,0.4-1.4s0.7-0.7,1.2-0.9c0.5-0.2,1.1-0.3,1.8-0.3c1,0,1.8,0.2,2.4,0.7
					C92.4,31.7,92.8,32.3,92.9,33.1z"/>
			</g>
			<g>
				<line class="st4" x1="193.8" y1="20.2" x2="193.8" y2="292.9"/>
			</g>
			<g>
				<path class="st5" d="M383.2,290.6L383.2,290.6c3,0,5.5-2.5,5.5-5.5V27.7c0-3-2.5-5.5-5.5-5.5l0,0c-3,0-5.5,2.5-5.5,5.5V285
					C377.7,288.1,380.2,290.6,383.2,290.6z"/>
				<g>
					<g>
						<path class="st6" d="M383.2,162.2L383.2,162.2c3,0,5.5-2.5,5.5-5.5v-108c0-3-2.5-5.5-5.5-5.5l0,0c-3,0-5.5,2.5-5.5,5.5v108
							C377.7,159.7,380.2,162.2,383.2,162.2z"/>
					</g>
				</g>
			</g>
		</g>
		<g>
			<rect x="24.1" y="52.6" class="st7" width="13" height="13"/>
			<rect x="24.1" y="89.3" class="st8" width="13" height="13"/>
			<rect x="24.1" y="89.3" class="st7" width="13" height="13"/>
			<polygon class="st0" points="33.8,92.2 29.2,96.9 27.4,95 26.1,96.3 29.2,99.4 35.1,93.5 			"/>
			<rect x="24.1" y="126.1" class="st8" width="13" height="13"/>
			<rect x="24.1" y="162.8" class="st8" width="13" height="13"/>
			<rect x="24.1" y="199.5" class="st8" width="13" height="13"/>
			<rect x="24.1" y="236.3" class="st8" width="13" height="13"/>
			<rect x="24.1" y="273" class="st8" width="13" height="13"/>
		</g>
		<g>
			<path class="st2" d="M245.9,64.4h-1.7l3.9-10.9h1.9l3.9,10.9h-1.7l-3.1-8.9H249L245.9,64.4z M246.2,60.1h5.7v1.4h-5.7V60.1z"/>
			<path class="st2" d="M256.9,53.5v10.9h-1.6V53.5H256.9z"/>
			<path class="st2" d="M263.2,64.4V53.5h1.6v5.2h0.1l4.6-5.2h2.1l-4.4,4.9l4.4,6h-2l-3.5-4.9l-1.3,1.5v3.4H263.2z"/>
			<path class="st2" d="M276.5,64.6c-0.8,0-1.4-0.2-2-0.5c-0.6-0.4-1-0.8-1.3-1.5c-0.3-0.6-0.5-1.4-0.5-2.2s0.2-1.6,0.5-2.2
				s0.8-1.1,1.3-1.5c0.6-0.4,1.2-0.5,2-0.5s1.4,0.2,2,0.5c0.6,0.4,1,0.8,1.3,1.5s0.5,1.4,0.5,2.2s-0.2,1.6-0.5,2.2
				c-0.3,0.6-0.8,1.1-1.3,1.5C277.9,64.4,277.2,64.6,276.5,64.6z M276.5,63.2c0.5,0,0.9-0.1,1.2-0.4s0.6-0.6,0.7-1
				c0.2-0.4,0.2-0.9,0.2-1.4s-0.1-1-0.2-1.4c-0.2-0.4-0.4-0.8-0.7-1.1c-0.3-0.3-0.7-0.4-1.2-0.4s-0.9,0.1-1.2,0.4
				c-0.3,0.3-0.6,0.6-0.7,1.1c-0.2,0.4-0.2,0.9-0.2,1.4s0.1,1,0.2,1.4c0.2,0.4,0.4,0.8,0.7,1S276,63.2,276.5,63.2z"/>
			<path class="st2" d="M287.2,61v-4.8h1.6v8.2h-1.6V63h-0.1c-0.2,0.4-0.5,0.8-0.9,1.1c-0.4,0.3-0.9,0.4-1.5,0.4
				c-0.5,0-1-0.1-1.4-0.3c-0.4-0.2-0.7-0.6-0.9-1c-0.2-0.5-0.3-1-0.3-1.7v-5.2h1.6v5c0,0.6,0.2,1,0.5,1.3s0.7,0.5,1.2,0.5
				c0.3,0,0.6-0.1,0.9-0.2c0.3-0.1,0.5-0.4,0.7-0.7C287.1,61.9,287.2,61.5,287.2,61z"/>
			<path class="st2" d="M294,64.6c-0.7,0-1.2-0.2-1.8-0.5c-0.5-0.3-0.9-0.8-1.2-1.5s-0.4-1.4-0.4-2.3c0-0.9,0.1-1.6,0.4-2.3
				c0.3-0.6,0.7-1.1,1.2-1.4c0.5-0.3,1.1-0.5,1.8-0.5c0.5,0,0.9,0.1,1.2,0.3c0.3,0.2,0.6,0.4,0.7,0.6c0.2,0.2,0.3,0.4,0.4,0.6h0.1
				v-4.1h1.6v10.9h-1.6v-1.3h-0.1c-0.1,0.2-0.2,0.4-0.4,0.6c-0.2,0.2-0.4,0.4-0.7,0.6S294.5,64.6,294,64.6z M294.4,63.2
				c0.5,0,0.8-0.1,1.2-0.4s0.6-0.6,0.7-1s0.2-0.9,0.2-1.5s-0.1-1.1-0.2-1.5c-0.2-0.4-0.4-0.8-0.7-1c-0.3-0.2-0.7-0.4-1.2-0.4
				s-0.9,0.1-1.2,0.4c-0.3,0.2-0.6,0.6-0.7,1s-0.2,0.9-0.2,1.5c0,0.5,0.1,1,0.2,1.5c0.2,0.4,0.4,0.8,0.7,1
				C293.5,63.1,293.9,63.2,294.4,63.2z"/>
			<path class="st2" d="M302,59.6v4.9h-1.6v-11h1.6v4.1h0.1c0.2-0.4,0.5-0.8,0.9-1c0.4-0.3,0.9-0.4,1.5-0.4s1.1,0.1,1.5,0.3
				s0.7,0.6,1,1c0.2,0.5,0.3,1,0.3,1.7v5.2h-1.6v-5c0-0.6-0.2-1.1-0.5-1.4s-0.7-0.5-1.3-0.5c-0.4,0-0.7,0.1-1,0.2s-0.5,0.4-0.7,0.7
				C302,58.8,302,59.1,302,59.6z"/>
			<path class="st2" d="M245.9,101.4h-1.7l3.9-10.9h1.9l3.9,10.9h-1.7l-3.1-8.9H249L245.9,101.4z M246.2,97.1h5.7v1.4h-5.7V97.1z"/>
			<path class="st2" d="M256.9,90.5v10.9h-1.6V90.5H256.9z"/>
			<path class="st2" d="M263.2,101.4V90.5h1.6v5.2h0.1l4.6-5.2h2.1l-4.4,4.9l4.4,6h-2l-3.5-4.9l-1.3,1.5v3.4H263.2z"/>
			<path class="st2" d="M274.6,96.6v4.9H273v-11h1.6v4.1h0.1c0.2-0.4,0.5-0.8,0.9-1c0.4-0.3,0.9-0.4,1.5-0.4s1.1,0.1,1.5,0.3
				c0.4,0.2,0.7,0.6,1,1c0.2,0.5,0.3,1,0.3,1.7v5.2h-1.6v-5c0-0.6-0.2-1.1-0.5-1.4s-0.7-0.5-1.3-0.5c-0.4,0-0.7,0.1-1,0.2
				c-0.3,0.2-0.5,0.4-0.7,0.7C274.7,95.8,274.6,96.1,274.6,96.6z"/>
			<path class="st2" d="M287.2,98v-4.8h1.6v8.2h-1.6V100h-0.1c-0.2,0.4-0.5,0.8-0.9,1.1c-0.4,0.3-0.9,0.4-1.5,0.4
				c-0.5,0-1-0.1-1.4-0.3c-0.4-0.2-0.7-0.6-0.9-1s-0.3-1-0.3-1.7v-5.2h1.6v5c0,0.6,0.2,1,0.5,1.3s0.7,0.5,1.2,0.5
				c0.3,0,0.6-0.1,0.9-0.2s0.5-0.4,0.7-0.7C287.1,98.9,287.2,98.5,287.2,98z"/>
			<path class="st2" d="M292.7,101.4l-2.4-8.2h1.6l1.6,6h0.1l1.6-6h1.6l1.6,6h0.1l1.6-6h1.6l-2.4,8.2h-1.6l-1.7-5.9h0l-1.7,5.9
				H292.7z"/>
			<path class="st2" d="M305.7,101.6c-0.5,0-1-0.1-1.4-0.3c-0.4-0.2-0.8-0.5-1-0.8c-0.2-0.4-0.4-0.8-0.4-1.4c0-0.5,0.1-0.8,0.3-1.1
				s0.4-0.5,0.7-0.7c0.3-0.2,0.6-0.3,1-0.4s0.8-0.2,1.1-0.2c0.5-0.1,0.9-0.1,1.2-0.1c0.3,0,0.5-0.1,0.7-0.2c0.1-0.1,0.2-0.2,0.2-0.4
				l0,0c0-0.5-0.1-0.8-0.4-1.1c-0.3-0.3-0.6-0.4-1.2-0.4c-0.5,0-1,0.1-1.3,0.4c-0.3,0.2-0.5,0.5-0.6,0.8l-1.5-0.3
				c0.2-0.5,0.4-0.9,0.8-1.2s0.7-0.5,1.2-0.7c0.4-0.1,0.9-0.2,1.4-0.2c0.3,0,0.7,0,1,0.1c0.4,0.1,0.7,0.2,1,0.4
				c0.3,0.2,0.6,0.5,0.8,0.9c0.2,0.4,0.3,0.9,0.3,1.5v5.4H308v-1.1h-0.1c-0.1,0.2-0.3,0.4-0.5,0.6s-0.5,0.4-0.8,0.5
				C306.6,101.5,306.2,101.6,305.7,101.6z M306.1,100.3c0.4,0,0.8-0.1,1.1-0.3c0.3-0.2,0.6-0.4,0.7-0.7c0.2-0.3,0.2-0.6,0.2-0.9
				v-1.1c-0.1,0.1-0.2,0.1-0.3,0.2c-0.2,0-0.3,0.1-0.6,0.1s-0.4,0.1-0.6,0.1s-0.4,0-0.5,0.1c-0.3,0-0.6,0.1-0.8,0.2
				s-0.5,0.2-0.6,0.4c-0.2,0.2-0.2,0.4-0.2,0.7c0,0.4,0.1,0.7,0.4,0.9S305.6,100.3,306.1,100.3z"/>
			<path class="st2" d="M312.9,104.5c-0.2,0-0.5,0-0.6-0.1s-0.3-0.1-0.4-0.1l0.4-1.3c0.3,0.1,0.5,0.1,0.8,0.1s0.4-0.1,0.6-0.3
				c0.2-0.2,0.3-0.4,0.5-0.8l0.2-0.5l-3-8.3h1.7l2.1,6.3h0.1l2.1-6.3h1.7l-3.4,9.3c-0.2,0.4-0.4,0.8-0.6,1.1
				c-0.2,0.3-0.5,0.5-0.9,0.7C313.7,104.4,313.3,104.5,312.9,104.5z"/>
			<path class="st2" d="M320.4,101.4v-8.2h1.5v1.3h0.1c0.1-0.4,0.4-0.8,0.8-1c0.4-0.3,0.8-0.4,1.3-0.4c0.1,0,0.2,0,0.4,0
				c0.1,0,0.2,0,0.3,0v1.5c-0.1,0-0.2,0-0.3-0.1c-0.2,0-0.3,0-0.5,0c-0.4,0-0.7,0.1-1,0.2c-0.3,0.2-0.5,0.4-0.7,0.7
				c-0.2,0.3-0.3,0.6-0.3,1v5H320.4z"/>
			<path class="st2" d="M250.9,130.4c-0.1-0.5-0.3-0.9-0.7-1.2s-0.9-0.4-1.6-0.4c-0.4,0-0.8,0.1-1.2,0.2c-0.3,0.1-0.6,0.3-0.8,0.6
				c-0.2,0.2-0.3,0.5-0.3,0.8s0.1,0.5,0.2,0.7c0.1,0.2,0.3,0.3,0.5,0.5c0.2,0.1,0.4,0.2,0.6,0.3s0.5,0.2,0.7,0.2l1.1,0.3
				c0.3,0.1,0.7,0.2,1.1,0.3c0.4,0.1,0.7,0.3,1,0.6s0.6,0.5,0.8,0.9s0.3,0.8,0.3,1.3c0,0.6-0.2,1.2-0.5,1.6
				c-0.3,0.5-0.8,0.9-1.4,1.1c-0.6,0.3-1.3,0.4-2.2,0.4c-0.8,0-1.5-0.1-2.1-0.4c-0.6-0.3-1.1-0.6-1.4-1.1c-0.3-0.5-0.5-1-0.6-1.7
				h1.7c0,0.4,0.2,0.7,0.4,1s0.5,0.5,0.9,0.6s0.7,0.2,1.2,0.2s0.9-0.1,1.2-0.2c0.4-0.1,0.7-0.4,0.9-0.6c0.2-0.3,0.3-0.6,0.3-0.9
				c0-0.3-0.1-0.6-0.3-0.8s-0.4-0.4-0.7-0.5s-0.7-0.3-1.1-0.4l-1.3-0.4c-0.9-0.2-1.6-0.6-2.1-1c-0.5-0.5-0.8-1.1-0.8-1.8
				c0-0.6,0.2-1.2,0.5-1.6c0.3-0.5,0.8-0.8,1.4-1.1c0.6-0.3,1.2-0.4,2-0.4c0.7,0,1.4,0.1,2,0.4c0.6,0.3,1,0.6,1.3,1.1s0.5,1,0.5,1.6
				h-1.5V130.4z"/>
			<path class="st2" d="M259.7,135v-4.8h1.6v8.2h-1.6V137h-0.1c-0.2,0.4-0.5,0.8-0.9,1.1s-0.9,0.4-1.5,0.4c-0.5,0-1-0.1-1.4-0.3
				s-0.7-0.6-0.9-1s-0.3-1-0.3-1.7v-5.2h1.6v5c0,0.6,0.2,1,0.5,1.3s0.7,0.5,1.2,0.5c0.3,0,0.6-0.1,0.9-0.2c0.3-0.1,0.5-0.4,0.7-0.7
				C259.6,135.9,259.7,135.5,259.7,135z"/>
			<path class="st2" d="M263.4,138.4v-8.2h1.5v1.3h0.1c0.1-0.4,0.4-0.8,0.8-1s0.8-0.4,1.3-0.4c0.1,0,0.2,0,0.4,0c0.1,0,0.2,0,0.3,0
				v1.5c-0.1,0-0.2,0-0.3-0.1c-0.2,0-0.3,0-0.5,0c-0.4,0-0.7,0.1-1,0.2c-0.3,0.2-0.5,0.4-0.7,0.7s-0.3,0.6-0.3,1v5H263.4z"/>
			<path class="st2" d="M250.9,167.4c-0.1-0.5-0.3-0.9-0.7-1.2s-0.9-0.4-1.6-0.4c-0.4,0-0.8,0.1-1.2,0.2c-0.3,0.1-0.6,0.3-0.8,0.6
				c-0.2,0.2-0.3,0.5-0.3,0.8s0.1,0.5,0.2,0.7c0.1,0.2,0.3,0.3,0.5,0.5c0.2,0.1,0.4,0.2,0.6,0.3s0.5,0.2,0.7,0.2l1.1,0.3
				c0.3,0.1,0.7,0.2,1.1,0.3c0.4,0.1,0.7,0.3,1,0.6s0.6,0.5,0.8,0.9s0.3,0.8,0.3,1.3c0,0.6-0.2,1.2-0.5,1.6
				c-0.3,0.5-0.8,0.9-1.4,1.1c-0.6,0.3-1.3,0.4-2.2,0.4c-0.8,0-1.5-0.1-2.1-0.4c-0.6-0.3-1.1-0.6-1.4-1.1c-0.3-0.5-0.5-1-0.6-1.7
				h1.7c0,0.4,0.2,0.7,0.4,1s0.5,0.5,0.9,0.6s0.7,0.2,1.2,0.2s0.9-0.1,1.2-0.2c0.4-0.1,0.7-0.4,0.9-0.6c0.2-0.3,0.3-0.6,0.3-0.9
				c0-0.3-0.1-0.6-0.3-0.8s-0.4-0.4-0.7-0.5s-0.7-0.3-1.1-0.4l-1.3-0.4c-0.9-0.2-1.6-0.6-2.1-1c-0.5-0.5-0.8-1.1-0.8-1.8
				c0-0.6,0.2-1.2,0.5-1.6c0.3-0.5,0.8-0.8,1.4-1.1c0.6-0.3,1.2-0.4,2-0.4c0.7,0,1.4,0.1,2,0.4s1,0.6,1.3,1.1s0.5,1,0.5,1.6h-1.5
				V167.4z"/>
			<path class="st2" d="M256.9,175.6c-0.5,0-1-0.1-1.4-0.3s-0.8-0.5-1-0.8c-0.2-0.4-0.4-0.8-0.4-1.4c0-0.5,0.1-0.8,0.3-1.1
				s0.4-0.5,0.7-0.7s0.6-0.3,1-0.4s0.8-0.2,1.1-0.2c0.5-0.1,0.9-0.1,1.2-0.1s0.5-0.1,0.7-0.2c0.1-0.1,0.2-0.2,0.2-0.4l0,0
				c0-0.5-0.1-0.8-0.4-1.1s-0.6-0.4-1.2-0.4c-0.5,0-1,0.1-1.3,0.4c-0.3,0.2-0.5,0.5-0.6,0.8l-1.5-0.3c0.2-0.5,0.4-0.9,0.8-1.2
				s0.7-0.5,1.2-0.7c0.4-0.1,0.9-0.2,1.4-0.2c0.3,0,0.7,0,1,0.1c0.4,0.1,0.7,0.2,1,0.4s0.6,0.5,0.8,0.9c0.2,0.4,0.3,0.9,0.3,1.5v5.4
				h-1.6v-1.1h-0.1c-0.1,0.2-0.3,0.4-0.5,0.6c-0.2,0.2-0.5,0.4-0.8,0.5C257.7,175.5,257.3,175.6,256.9,175.6z M257.2,174.3
				c0.4,0,0.8-0.1,1.1-0.3c0.3-0.2,0.6-0.4,0.7-0.7c0.2-0.3,0.2-0.6,0.2-0.9v-1.1c-0.1,0.1-0.2,0.1-0.3,0.2c-0.2,0-0.3,0.1-0.6,0.1
				s-0.4,0.1-0.6,0.1s-0.4,0-0.5,0.1c-0.3,0-0.6,0.1-0.8,0.2s-0.5,0.2-0.6,0.4c-0.2,0.2-0.2,0.4-0.2,0.7c0,0.4,0.1,0.7,0.4,0.9
				C256.4,174.2,256.8,174.3,257.2,174.3z"/>
			<path class="st2" d="M264.6,164.5v10.9H263v-10.9H264.6z"/>
			<path class="st2" d="M269.2,175.6c-0.5,0-1-0.1-1.4-0.3s-0.8-0.5-1-0.8c-0.2-0.4-0.4-0.8-0.4-1.4c0-0.5,0.1-0.8,0.3-1.1
				c0.2-0.3,0.4-0.5,0.7-0.7s0.6-0.3,1-0.4s0.8-0.2,1.1-0.2c0.5-0.1,0.9-0.1,1.2-0.1c0.3,0,0.5-0.1,0.7-0.2c0.1-0.1,0.2-0.2,0.2-0.4
				l0,0c0-0.5-0.1-0.8-0.4-1.1s-0.6-0.4-1.2-0.4c-0.5,0-1,0.1-1.3,0.4s-0.5,0.5-0.6,0.8l-1.5-0.3c0.2-0.5,0.4-0.9,0.8-1.2
				c0.3-0.3,0.7-0.5,1.2-0.7c0.4-0.1,0.9-0.2,1.4-0.2c0.3,0,0.7,0,1,0.1s0.7,0.2,1,0.4s0.6,0.5,0.8,0.9s0.3,0.9,0.3,1.5v5.4h-1.6
				v-1.1h-0.1c-0.1,0.2-0.3,0.4-0.5,0.6s-0.5,0.4-0.8,0.5S269.6,175.6,269.2,175.6z M269.5,174.3c0.4,0,0.8-0.1,1.1-0.3
				c0.3-0.2,0.6-0.4,0.7-0.7c0.2-0.3,0.2-0.6,0.2-0.9v-1.1c-0.1,0.1-0.2,0.1-0.3,0.2s-0.3,0.1-0.6,0.1c-0.2,0-0.4,0.1-0.6,0.1
				s-0.4,0-0.5,0.1c-0.3,0-0.6,0.1-0.8,0.2s-0.5,0.2-0.6,0.4c-0.2,0.2-0.2,0.4-0.2,0.7c0,0.4,0.1,0.7,0.4,0.9
				C268.7,174.2,269,174.3,269.5,174.3z"/>
			<path class="st2" d="M276.9,164.5v10.9h-1.6v-10.9H276.9z"/>
			<path class="st2" d="M281.4,175.6c-0.5,0-1-0.1-1.4-0.3s-0.8-0.5-1-0.8c-0.2-0.4-0.4-0.8-0.4-1.4c0-0.5,0.1-0.8,0.3-1.1
				s0.4-0.5,0.7-0.7c0.3-0.2,0.6-0.3,1-0.4c0.4-0.1,0.8-0.2,1.1-0.2c0.5-0.1,0.9-0.1,1.2-0.1c0.3,0,0.5-0.1,0.7-0.2
				c0.1-0.1,0.2-0.2,0.2-0.4l0,0c0-0.5-0.1-0.8-0.4-1.1s-0.7-0.4-1.2-0.4s-1,0.1-1.3,0.4s-0.5,0.5-0.6,0.8l-1.5-0.3
				c0.2-0.5,0.4-0.9,0.8-1.2c0.3-0.3,0.7-0.5,1.2-0.7c0.4-0.1,0.9-0.2,1.4-0.2c0.3,0,0.7,0,1,0.1s0.7,0.2,1,0.4s0.6,0.5,0.8,0.9
				c0.2,0.4,0.3,0.9,0.3,1.5v5.4h-1.6v-1.1h-0.1c-0.1,0.2-0.3,0.4-0.5,0.6c-0.2,0.2-0.5,0.4-0.8,0.5S281.9,175.6,281.4,175.6z
				 M281.8,174.3c0.4,0,0.8-0.1,1.1-0.3c0.3-0.2,0.6-0.4,0.7-0.7c0.2-0.3,0.2-0.6,0.2-0.9v-1.1c-0.1,0.1-0.2,0.1-0.3,0.2
				s-0.3,0.1-0.6,0.1c-0.2,0-0.4,0.1-0.6,0.1s-0.4,0-0.5,0.1c-0.3,0-0.6,0.1-0.8,0.2s-0.5,0.2-0.6,0.4c-0.2,0.2-0.2,0.4-0.2,0.7
				c0,0.4,0.1,0.7,0.4,0.9S281.3,174.3,281.8,174.3z"/>
			<path class="st2" d="M289.2,170.6v4.9h-1.6v-10.9h1.6v4.1h0.1c0.2-0.4,0.5-0.8,0.9-1c0.4-0.3,0.9-0.4,1.5-0.4s1.1,0.1,1.5,0.3
				s0.7,0.6,1,1c0.2,0.5,0.3,1,0.3,1.7v5.2h-1.6v-5c0-0.6-0.2-1.1-0.5-1.4s-0.7-0.5-1.3-0.5c-0.4,0-0.7,0.1-1,0.2s-0.5,0.4-0.7,0.7
				C289.3,169.8,289.2,170.1,289.2,170.6z"/>
			<path class="st2" d="M245,212.4v-10.9h4c0.8,0,1.4,0.1,1.9,0.4c0.5,0.3,0.9,0.6,1.1,1c0.3,0.4,0.4,0.9,0.4,1.5
				c0,0.5-0.1,0.8-0.3,1.1s-0.4,0.6-0.7,0.7c-0.3,0.2-0.6,0.3-0.9,0.4v0.1c0.4,0,0.7,0.1,1.1,0.3c0.3,0.2,0.6,0.5,0.9,0.9
				c0.2,0.4,0.3,0.9,0.3,1.4c0,0.6-0.1,1.1-0.4,1.5s-0.7,0.8-1.2,1c-0.5,0.3-1.2,0.4-2.1,0.4H245V212.4z M246.6,206.2h2.2
				c0.4,0,0.7-0.1,1-0.2s0.5-0.3,0.7-0.6s0.3-0.6,0.3-0.9c0-0.5-0.2-0.8-0.5-1.1s-0.8-0.5-1.5-0.5h-2.2V206.2z M246.6,211h2.4
				c0.8,0,1.4-0.2,1.7-0.5s0.5-0.7,0.5-1.1c0-0.3-0.1-0.7-0.3-0.9s-0.4-0.5-0.7-0.7s-0.7-0.3-1.1-0.3h-2.4L246.6,211L246.6,211z"/>
			<path class="st2" d="M255.5,203c-0.3,0-0.5-0.1-0.7-0.3s-0.3-0.4-0.3-0.7s0.1-0.5,0.3-0.7s0.4-0.3,0.7-0.3s0.5,0.1,0.7,0.3
				s0.3,0.4,0.3,0.7s-0.1,0.5-0.3,0.7C256,202.9,255.7,203,255.5,203z M254.7,212.4v-8.2h1.6v8.2H254.7z"/>
			<path class="st2" d="M261.5,212.6c-0.7,0-1.2-0.2-1.8-0.5c-0.5-0.3-0.9-0.8-1.2-1.5s-0.4-1.4-0.4-2.3c0-0.9,0.1-1.6,0.4-2.3
				c0.3-0.6,0.7-1.1,1.2-1.4c0.5-0.3,1.1-0.5,1.8-0.5c0.5,0,0.9,0.1,1.2,0.3c0.3,0.2,0.6,0.4,0.7,0.6c0.2,0.2,0.3,0.4,0.4,0.6h0.1
				v-4.1h1.6v10.9H264v-1.3h-0.1c-0.1,0.2-0.2,0.4-0.4,0.6c-0.2,0.2-0.4,0.4-0.7,0.6C262.4,212.5,262,212.6,261.5,212.6z
				 M261.8,211.2c0.5,0,0.8-0.1,1.2-0.4s0.6-0.6,0.7-1s0.2-0.9,0.2-1.5s-0.1-1.1-0.2-1.5c-0.2-0.4-0.4-0.8-0.7-1
				c-0.3-0.2-0.7-0.4-1.2-0.4s-0.9,0.1-1.2,0.4c-0.3,0.2-0.6,0.6-0.7,1s-0.2,0.9-0.2,1.5c0,0.5,0.1,1,0.2,1.5c0.2,0.4,0.4,0.8,0.7,1
				C260.9,211.1,261.3,211.2,261.8,211.2z"/>
			<path class="st2" d="M268.6,203c-0.3,0-0.5-0.1-0.7-0.3s-0.3-0.4-0.3-0.7s0.1-0.5,0.3-0.7c0.2-0.2,0.4-0.3,0.7-0.3
				c0.3,0,0.5,0.1,0.7,0.3s0.3,0.4,0.3,0.7s-0.1,0.5-0.3,0.7C269.1,202.9,268.9,203,268.6,203z M267.8,212.4v-8.2h1.6v8.2H267.8z"/>
			<path class="st2" d="M272.5,215.5c-0.2,0-0.5,0-0.6-0.1s-0.3-0.1-0.4-0.1l0.4-1.3c0.3,0.1,0.6,0.1,0.8,0.1c0.2,0,0.4-0.1,0.6-0.3
				s0.3-0.4,0.5-0.8l0.2-0.5l-3-8.3h1.7l2.1,6.3h0.1l2.1-6.3h1.7l-3.4,9.3c-0.2,0.4-0.4,0.8-0.6,1.1s-0.5,0.5-0.9,0.7
				C273.3,215.4,273,215.5,272.5,215.5z"/>
			<path class="st2" d="M282.4,212.6c-0.5,0-1-0.1-1.4-0.3s-0.8-0.5-1-0.8c-0.2-0.4-0.4-0.8-0.4-1.4c0-0.5,0.1-0.8,0.3-1.1
				c0.2-0.3,0.4-0.5,0.7-0.7c0.3-0.2,0.6-0.3,1-0.4s0.8-0.2,1.1-0.2c0.5-0.1,0.9-0.1,1.2-0.1s0.5-0.1,0.7-0.2
				c0.1-0.1,0.2-0.2,0.2-0.4l0,0c0-0.5-0.1-0.8-0.4-1.1s-0.6-0.4-1.2-0.4c-0.5,0-1,0.1-1.3,0.4c-0.3,0.2-0.5,0.5-0.6,0.8l-1.5-0.3
				c0.2-0.5,0.4-0.9,0.8-1.2s0.7-0.5,1.2-0.7c0.4-0.1,0.9-0.2,1.4-0.2c0.3,0,0.7,0,1,0.1c0.4,0.1,0.7,0.2,1,0.4s0.6,0.5,0.8,0.9
				c0.2,0.4,0.3,0.9,0.3,1.5v5.4h-1.6v-1.1h-0.1c-0.1,0.2-0.3,0.4-0.5,0.6c-0.2,0.2-0.5,0.4-0.8,0.5
				C283.2,212.5,282.8,212.6,282.4,212.6z M282.7,211.3c0.4,0,0.8-0.1,1.1-0.3c0.3-0.2,0.6-0.4,0.7-0.7c0.2-0.3,0.2-0.6,0.2-0.9
				v-1.1c-0.1,0.1-0.2,0.1-0.3,0.2c-0.2,0-0.3,0.1-0.6,0.1s-0.4,0.1-0.6,0.1s-0.4,0-0.5,0.1c-0.3,0-0.6,0.1-0.8,0.2
				s-0.5,0.2-0.6,0.4c-0.2,0.2-0.2,0.4-0.2,0.7c0,0.4,0.1,0.7,0.4,0.9C281.9,211.2,282.3,211.3,282.7,211.3z"/>
			<path class="st2" d="M290.1,207.6v4.9h-1.6v-10.9h1.6v4.1h0.1c0.2-0.4,0.5-0.8,0.9-1c0.4-0.3,0.9-0.4,1.5-0.4s1.1,0.1,1.5,0.3
				s0.7,0.6,1,1c0.2,0.5,0.3,1,0.3,1.7v5.2h-1.6v-5c0-0.6-0.2-1.1-0.5-1.4s-0.7-0.5-1.3-0.5c-0.4,0-0.7,0.1-1,0.2
				c-0.3,0.2-0.5,0.4-0.7,0.7C290.2,206.8,290.1,207.1,290.1,207.6z"/>
		</g>
		<g>
			<path class="st3" d="M228.5,31.2c0-0.4-0.2-0.8-0.5-1s-0.8-0.4-1.3-0.4c-0.4,0-0.7,0.1-1,0.2s-0.5,0.2-0.6,0.4s-0.2,0.4-0.2,0.6
				s0,0.4,0.1,0.5s0.2,0.3,0.4,0.4c0.2,0.1,0.3,0.2,0.6,0.3c0.2,0.1,0.4,0.1,0.7,0.2l1,0.2c0.5,0.1,0.9,0.2,1.3,0.4
				c0.4,0.2,0.7,0.4,1,0.7s0.5,0.6,0.7,0.9c0.2,0.4,0.2,0.8,0.2,1.2c0,0.7-0.2,1.2-0.5,1.7s-0.8,0.9-1.4,1.1
				c-0.6,0.3-1.4,0.4-2.3,0.4c-0.9,0-1.6-0.1-2.3-0.4c-0.7-0.3-1.2-0.7-1.5-1.2c-0.4-0.5-0.6-1.2-0.6-2h2.2c0,0.4,0.1,0.7,0.3,0.9
				s0.4,0.4,0.8,0.5s0.7,0.2,1.1,0.2c0.4,0,0.7-0.1,1-0.2c0.3-0.1,0.5-0.3,0.7-0.5s0.2-0.4,0.2-0.7c0-0.2-0.1-0.5-0.2-0.6
				c-0.1-0.2-0.4-0.3-0.6-0.4s-0.6-0.2-1-0.3l-1.2-0.3c-0.9-0.2-1.6-0.6-2.2-1c-0.5-0.5-0.8-1.1-0.8-1.9c0-0.7,0.2-1.2,0.5-1.7
				c0.4-0.5,0.8-0.9,1.5-1.2c0.6-0.3,1.3-0.4,2.1-0.4s1.5,0.1,2.1,0.4s1.1,0.7,1.4,1.2c0.3,0.5,0.5,1.1,0.5,1.7L228.5,31.2
				L228.5,31.2z"/>
			<path class="st3" d="M236.7,30.7v1.7h-4.9v-1.7H236.7z M232.9,28.8h2.3v7.6c0,0.2,0,0.4,0.1,0.5s0.2,0.2,0.3,0.2s0.2,0.1,0.4,0.1
				c0.1,0,0.2,0,0.3,0s0.2,0,0.2,0l0.4,1.7c-0.1,0-0.3,0.1-0.5,0.1s-0.5,0.1-0.8,0.1c-0.5,0-1-0.1-1.4-0.2s-0.7-0.4-1-0.8
				s-0.3-0.8-0.3-1.3V28.8z"/>
			<path class="st3" d="M240.5,39.1c-0.5,0-1-0.1-1.4-0.3s-0.7-0.5-1-0.8c-0.2-0.4-0.4-0.8-0.4-1.4c0-0.5,0.1-0.8,0.2-1.1
				c0.2-0.3,0.4-0.6,0.7-0.7c0.3-0.2,0.6-0.3,1-0.4c0.4-0.1,0.8-0.2,1.2-0.2c0.5,0,0.9-0.1,1.2-0.1s0.5-0.1,0.6-0.2
				c0.1-0.1,0.2-0.2,0.2-0.4l0,0c0-0.3-0.1-0.6-0.3-0.8s-0.5-0.3-0.9-0.3s-0.7,0.1-1,0.3c-0.2,0.2-0.4,0.4-0.5,0.7l-2.1-0.2
				c0.1-0.5,0.3-0.9,0.6-1.3c0.3-0.4,0.7-0.6,1.2-0.8s1.1-0.3,1.7-0.3c0.5,0,0.9,0.1,1.3,0.2c0.4,0.1,0.8,0.3,1.1,0.5
				s0.6,0.5,0.8,0.9s0.3,0.8,0.3,1.3v5.5h-2v-1.1h-0.1c-0.1,0.3-0.3,0.5-0.5,0.7s-0.5,0.3-0.8,0.5C241.3,39,240.9,39.1,240.5,39.1z
				 M241.2,37.5c0.3,0,0.6-0.1,0.9-0.2c0.3-0.1,0.5-0.3,0.6-0.5s0.2-0.5,0.2-0.8v-0.9c-0.1,0-0.2,0.1-0.3,0.1s-0.3,0.1-0.4,0.1
				c-0.2,0-0.3,0.1-0.5,0.1s-0.3,0-0.4,0.1c-0.3,0-0.5,0.1-0.7,0.2c-0.2,0.1-0.4,0.2-0.5,0.3s-0.2,0.3-0.2,0.5
				c0,0.3,0.1,0.5,0.3,0.7S240.8,37.5,241.2,37.5z"/>
			<path class="st3" d="M251.3,30.7v1.7h-4.9v-1.7H251.3z M247.5,28.8h2.3v7.6c0,0.2,0,0.4,0.1,0.5s0.2,0.2,0.3,0.2s0.2,0.1,0.4,0.1
				c0.1,0,0.2,0,0.3,0s0.2,0,0.2,0l0.4,1.7c-0.1,0-0.3,0.1-0.5,0.1s-0.5,0.1-0.8,0.1c-0.5,0-1-0.1-1.4-0.2s-0.7-0.4-1-0.8
				s-0.3-0.8-0.3-1.3V28.8z"/>
			<path class="st3" d="M253.9,29.7c-0.3,0-0.6-0.1-0.9-0.3c-0.2-0.2-0.4-0.5-0.4-0.8s0.1-0.6,0.4-0.8c0.2-0.2,0.5-0.3,0.9-0.3
				c0.3,0,0.6,0.1,0.9,0.3c0.2,0.2,0.4,0.5,0.4,0.8s-0.1,0.6-0.4,0.8S254.2,29.7,253.9,29.7z M252.7,38.9v-8.2h2.3v8.2H252.7z"/>
			<path class="st3" d="M260.5,39.1c-0.8,0-1.5-0.2-2.1-0.5c-0.6-0.4-1.1-0.8-1.4-1.5c-0.3-0.6-0.5-1.4-0.5-2.2s0.2-1.6,0.5-2.2
				c0.3-0.6,0.8-1.1,1.4-1.5s1.3-0.5,2.1-0.5s1.5,0.2,2.1,0.5c0.6,0.4,1.1,0.8,1.4,1.5c0.3,0.6,0.5,1.4,0.5,2.2s-0.2,1.6-0.5,2.2
				c-0.3,0.6-0.8,1.1-1.4,1.5C262.1,38.9,261.3,39.1,260.5,39.1z M260.5,37.3c0.4,0,0.7-0.1,0.9-0.3s0.4-0.5,0.6-0.9
				c0.1-0.4,0.2-0.8,0.2-1.3s-0.1-0.9-0.2-1.3c-0.1-0.4-0.3-0.7-0.6-0.9c-0.3-0.2-0.6-0.3-0.9-0.3c-0.4,0-0.7,0.1-1,0.3
				s-0.5,0.5-0.6,0.9s-0.2,0.8-0.2,1.3s0.1,0.9,0.2,1.3c0.1,0.4,0.3,0.7,0.6,0.9C259.8,37.2,260.1,37.3,260.5,37.3z"/>
			<path class="st3" d="M268.3,34.2v4.7H266v-8.2h2.2v1.4h0.1c0.2-0.5,0.5-0.9,0.9-1.1c0.4-0.3,0.9-0.4,1.6-0.4
				c0.6,0,1.1,0.1,1.5,0.4c0.4,0.2,0.8,0.6,1,1.1s0.4,1,0.4,1.6v5.2h-2.3v-4.8c0-0.5-0.1-0.9-0.4-1.2s-0.6-0.4-1.1-0.4
				c-0.3,0-0.6,0.1-0.8,0.2c-0.2,0.1-0.4,0.3-0.5,0.6C268.4,33.5,268.3,33.8,268.3,34.2z"/>
			<path class="st3" d="M282.2,33.1l-2.1,0.1c0-0.2-0.1-0.3-0.2-0.5c-0.1-0.1-0.3-0.3-0.5-0.3c-0.2-0.1-0.4-0.1-0.7-0.1
				c-0.4,0-0.6,0.1-0.9,0.2s-0.4,0.3-0.4,0.6c0,0.2,0.1,0.4,0.2,0.5c0.2,0.1,0.4,0.2,0.8,0.3l1.5,0.3c0.8,0.2,1.4,0.4,1.8,0.8
				c0.4,0.4,0.6,0.8,0.6,1.4c0,0.5-0.2,1-0.5,1.4s-0.7,0.7-1.3,0.9c-0.5,0.2-1.2,0.3-1.9,0.3c-1.1,0-1.9-0.2-2.6-0.7
				c-0.6-0.5-1-1.1-1.1-1.9l2.2-0.1c0.1,0.3,0.2,0.6,0.5,0.8s0.6,0.3,1,0.3s0.7-0.1,1-0.2c0.2-0.2,0.4-0.4,0.4-0.6
				c0-0.2-0.1-0.4-0.3-0.5c-0.2-0.1-0.4-0.2-0.8-0.3l-1.4-0.3c-0.8-0.2-1.4-0.4-1.8-0.8c-0.4-0.4-0.6-0.9-0.6-1.5
				c0-0.5,0.1-1,0.4-1.4s0.7-0.7,1.2-0.9s1.1-0.3,1.8-0.3c1,0,1.8,0.2,2.4,0.7C281.7,31.7,282.1,32.3,282.2,33.1z"/>
		</g>
		<g>
			<rect x="222" y="89.3" class="st8" width="13" height="13"/>
			<rect x="222" y="126.1" class="st8" width="13" height="13"/>
			<rect x="222" y="162.8" class="st8" width="13" height="13"/>
			<rect x="222" y="199.5" class="st8" width="13" height="13"/>
		</g>
	</g>
	<polygon class="st0" points="33.8,55.5 29.2,60.1 27.4,58.3 26.1,59.6 29.2,62.7 35.1,56.8 	"/>
	<g>
		<rect x="222" y="52.6" class="st8" width="13" height="13"/>
	</g>
</g>
</svg>
