<?xml version="1.0" encoding="utf-8"?>
<!-- Generator: Adobe Illustrator 28.1.0, SVG Export Plug-In . SVG Version: 6.00 Build 0)  -->
<svg version="1.1" id="Layer_1" xmlns="http://www.w3.org/2000/svg" xmlns:xlink="http://www.w3.org/1999/xlink" x="0px" y="0px"
	 viewBox="0 0 154 43" style="enable-background:new 0 0 154 43;" xml:space="preserve">
<style type="text/css">
	.st0{fill:#EBEBEB;stroke:#E7E7E7;stroke-width:3.1586;stroke-linecap:round;stroke-linejoin:round;stroke-miterlimit:10;}
	.st1{fill:none;stroke:#25B5B1;stroke-width:1.1199;stroke-miterlimit:10;}
	.st2{fill:#4F4F4F;}
</style>
<g>
	<g>
		<path class="st0" d="M130,36.8H24c-8.4,0-15.3-6.9-15.3-15.3v0c0-8.4,6.9-15.3,15.3-15.3h106c8.4,0,15.3,6.9,15.3,15.3v0
			C145.3,29.9,138.4,36.8,130,36.8z"/>
		<g>
			<g>
				<path class="st1" d="M126.1,18c-0.5,0-0.8,0.6-0.5,1l4.1,5.7c0.3,0.4,0.8,0.4,1.1,0l4.1-5.7c0.3-0.4,0-1-0.5-1"/>
			</g>
		</g>
		<g>
			<path class="st2" d="M26.3,27.7h-4.5V13.9h4.6c1.4,0,2.5,0.3,3.5,0.8c1,0.5,1.7,1.3,2.2,2.4c0.5,1,0.8,2.3,0.8,3.7
				c0,1.4-0.3,2.7-0.8,3.7c-0.5,1-1.3,1.8-2.3,2.4S27.7,27.7,26.3,27.7z M23.9,25.8h2.3c1,0,1.9-0.2,2.6-0.6s1.2-1,1.6-1.7
				c0.3-0.8,0.5-1.7,0.5-2.8c0-1.1-0.2-2-0.5-2.8c-0.3-0.8-0.9-1.3-1.5-1.7c-0.7-0.4-1.5-0.6-2.5-0.6h-2.4V25.8z"/>
			<path class="st2" d="M39.7,27.9c-1,0-1.8-0.2-2.5-0.7c-0.7-0.4-1.3-1.1-1.7-1.9s-0.6-1.7-0.6-2.8c0-1.1,0.2-2,0.6-2.8
				s1-1.4,1.7-1.9s1.6-0.7,2.5-0.7s1.8,0.2,2.5,0.7s1.3,1.1,1.7,1.9s0.6,1.7,0.6,2.8c0,1.1-0.2,2-0.6,2.8s-1,1.4-1.7,1.9
				C41.6,27.6,40.7,27.9,39.7,27.9z M39.7,26.2c0.6,0,1.1-0.2,1.6-0.5c0.4-0.3,0.7-0.8,0.9-1.3c0.2-0.6,0.3-1.2,0.3-1.8
				c0-0.7-0.1-1.3-0.3-1.8c-0.2-0.6-0.5-1-0.9-1.3c-0.4-0.3-0.9-0.5-1.6-0.5c-0.6,0-1.2,0.2-1.6,0.5s-0.7,0.8-0.9,1.3
				c-0.2,0.6-0.3,1.2-0.3,1.8c0,0.7,0.1,1.3,0.3,1.8c0.2,0.6,0.5,1,0.9,1.3S39.1,26.2,39.7,26.2z"/>
			<path class="st2" d="M49,27.7l-3-10.3h2.1l2,7.6h0.1l2-7.6h2.1l2,7.6h0.1l2-7.6h2.1l-3,10.3h-2.1l-2.1-7.5h-0.2l-2.1,7.5H49z"/>
			<path class="st2" d="M64.4,21.5v6.1h-2V17.3h1.9V19h0.1c0.2-0.5,0.6-1,1.1-1.3c0.5-0.3,1.2-0.5,1.9-0.5c0.7,0,1.3,0.1,1.9,0.4
				c0.5,0.3,0.9,0.7,1.2,1.3c0.3,0.6,0.4,1.3,0.4,2.1v6.6h-2v-6.3c0-0.7-0.2-1.3-0.6-1.8s-0.9-0.6-1.6-0.6c-0.5,0-0.9,0.1-1.2,0.3
				c-0.4,0.2-0.6,0.5-0.9,0.9C64.5,20.5,64.4,21,64.4,21.5z"/>
			<path class="st2" d="M75.8,13.9v13.8h-2V13.9H75.8z"/>
			<path class="st2" d="M82.8,27.9c-1,0-1.8-0.2-2.5-0.7c-0.7-0.4-1.3-1.1-1.7-1.9S78,23.6,78,22.5c0-1.1,0.2-2,0.6-2.8
				s1-1.4,1.7-1.9s1.6-0.7,2.5-0.7s1.8,0.2,2.5,0.7s1.3,1.1,1.7,1.9s0.6,1.7,0.6,2.8c0,1.1-0.2,2-0.6,2.8s-1,1.4-1.7,1.9
				C84.6,27.6,83.8,27.9,82.8,27.9z M82.8,26.2c0.6,0,1.1-0.2,1.6-0.5c0.4-0.3,0.7-0.8,0.9-1.3c0.2-0.6,0.3-1.2,0.3-1.8
				c0-0.7-0.1-1.3-0.3-1.8c-0.2-0.6-0.5-1-0.9-1.3c-0.4-0.3-0.9-0.5-1.6-0.5c-0.6,0-1.2,0.2-1.6,0.5s-0.7,0.8-0.9,1.3
				c-0.2,0.6-0.3,1.2-0.3,1.8c0,0.7,0.1,1.3,0.3,1.8c0.2,0.6,0.5,1,0.9,1.3S82.2,26.2,82.8,26.2z"/>
			<path class="st2" d="M92.9,27.9c-0.7,0-1.2-0.1-1.8-0.4c-0.5-0.2-0.9-0.6-1.3-1.1s-0.5-1-0.5-1.7c0-0.6,0.1-1.1,0.3-1.4
				c0.2-0.4,0.5-0.7,0.9-0.9c0.4-0.2,0.8-0.4,1.3-0.5c0.5-0.1,1-0.2,1.4-0.3c0.6-0.1,1.1-0.1,1.5-0.2c0.4,0,0.7-0.1,0.8-0.2
				S96,21,96,20.7v0c0-0.6-0.2-1-0.5-1.4c-0.3-0.3-0.8-0.5-1.5-0.5c-0.7,0-1.2,0.1-1.6,0.4s-0.7,0.6-0.8,1l-1.9-0.4
				c0.2-0.6,0.6-1.1,1-1.5c0.4-0.4,0.9-0.7,1.5-0.8s1.2-0.3,1.8-0.3c0.4,0,0.9,0,1.3,0.1c0.5,0.1,0.9,0.3,1.3,0.5
				c0.4,0.3,0.7,0.6,1,1.1c0.3,0.5,0.4,1.1,0.4,1.8v6.9h-2v-1.4h-0.1c-0.1,0.3-0.3,0.5-0.6,0.8c-0.3,0.3-0.6,0.5-1,0.6
				C93.9,27.8,93.5,27.9,92.9,27.9z M93.3,26.3c0.6,0,1-0.1,1.4-0.3c0.4-0.2,0.7-0.5,0.9-0.9c0.2-0.4,0.3-0.7,0.3-1.1v-1.3
				c-0.1,0.1-0.2,0.1-0.4,0.2s-0.4,0.1-0.7,0.2c-0.3,0-0.5,0.1-0.8,0.1s-0.5,0.1-0.6,0.1c-0.4,0-0.7,0.1-1.1,0.2
				c-0.3,0.1-0.6,0.3-0.8,0.5c-0.2,0.2-0.3,0.5-0.3,0.9c0,0.5,0.2,0.9,0.6,1.1C92.3,26.1,92.8,26.3,93.3,26.3z"/>
			<path class="st2" d="M104.5,27.9c-0.8,0-1.6-0.2-2.2-0.6c-0.7-0.4-1.2-1-1.5-1.8c-0.4-0.8-0.6-1.8-0.6-2.9s0.2-2.1,0.6-2.9
				c0.4-0.8,0.9-1.4,1.5-1.8c0.7-0.4,1.4-0.6,2.2-0.6c0.6,0,1.2,0.1,1.6,0.3c0.4,0.2,0.7,0.5,0.9,0.7s0.4,0.5,0.5,0.7h0.1v-5.1h2
				v13.8h-2V26h-0.2c-0.1,0.2-0.3,0.5-0.5,0.8c-0.2,0.3-0.5,0.5-0.9,0.7C105.7,27.8,105.2,27.9,104.5,27.9z M105,26.1
				c0.6,0,1.1-0.2,1.5-0.5c0.4-0.3,0.7-0.7,0.9-1.3c0.2-0.5,0.3-1.2,0.3-1.9c0-0.7-0.1-1.3-0.3-1.9c-0.2-0.5-0.5-1-0.9-1.3
				s-0.9-0.5-1.5-0.5c-0.6,0-1.1,0.2-1.5,0.5c-0.4,0.3-0.7,0.7-0.9,1.3s-0.3,1.2-0.3,1.8c0,0.7,0.1,1.3,0.3,1.9
				c0.2,0.6,0.5,1,0.9,1.3C103.9,26,104.4,26.1,105,26.1z"/>
		</g>
	</g>
</g>
</svg>
