<?xml version="1.0" encoding="utf-8"?>
<!-- Generator: Adobe Illustrator 28.1.0, SVG Export Plug-In . SVG Version: 6.00 Build 0)  -->
<svg version="1.1" id="Layer_1" xmlns="http://www.w3.org/2000/svg" xmlns:xlink="http://www.w3.org/1999/xlink" x="0px" y="0px"
	 viewBox="0 0 146 91" style="enable-background:new 0 0 146 91;" xml:space="preserve">
<style type="text/css">
	.st0{fill:#FFFFFF;}
	.st1{fill:none;stroke:#25B5B1;stroke-width:0.8;stroke-miterlimit:10;}
	.st2{fill:#888888;}
	.st3{fill:#25B5B1;}
	.st4{fill:none;stroke:#E7E7E7;stroke-miterlimit:10;}
	.st5{fill:none;stroke:#E7E7E7;}
</style>
<g>
	<g>
		<g>
			<g>
				<g>
					<path class="st0" d="M136.4,85.9H9.5c-2.4,0-4.4-2-4.4-4.4v-72c0-2.4,2-4.4,4.4-4.4h127.1c2.4,0,4.4,2,4.4,4.4v72
						C140.8,83.9,138.9,85.9,136.4,85.9z"/>
					<path class="st1" d="M136.4,85.9H9.5c-2.4,0-4.4-2-4.4-4.4v-72c0-2.4,2-4.4,4.4-4.4h127.1c2.4,0,4.4,2,4.4,4.4v72
						C140.8,83.9,138.9,85.9,136.4,85.9z"/>
				</g>
				<g>
					<path class="st2" d="M42.5,29.1V18.2h3.9c0.8,0,1.6,0.2,2.1,0.5c0.6,0.3,1,0.7,1.3,1.3c0.3,0.5,0.4,1.1,0.4,1.8
						c0,0.7-0.1,1.3-0.4,1.8c-0.3,0.5-0.7,1-1.3,1.3c-0.6,0.3-1.3,0.5-2.1,0.5h-2.7v-1.4h2.5c0.5,0,1-0.1,1.3-0.3
						c0.3-0.2,0.6-0.4,0.7-0.8s0.2-0.7,0.2-1.1s-0.1-0.8-0.2-1.1c-0.2-0.3-0.4-0.6-0.7-0.8c-0.3-0.2-0.8-0.3-1.3-0.3h-2.1v9.5H42.5z
						"/>
					<path class="st2" d="M55.6,29.1H52V18.2h3.6c1.1,0,2,0.2,2.8,0.7c0.8,0.4,1.4,1.1,1.8,1.9s0.6,1.8,0.6,2.9
						c0,1.1-0.2,2.1-0.6,2.9c-0.4,0.8-1,1.4-1.8,1.9S56.7,29.1,55.6,29.1z M53.7,27.6h1.8c0.8,0,1.5-0.2,2.1-0.5
						c0.6-0.3,1-0.8,1.2-1.4c0.3-0.6,0.4-1.3,0.4-2.2c0-0.9-0.1-1.6-0.4-2.2c-0.3-0.6-0.7-1-1.2-1.4c-0.5-0.3-1.2-0.5-2-0.5h-1.9
						V27.6z"/>
					<path class="st2" d="M62.9,29.1V18.2h6.8v1.4h-5.1v3.3h4.6v1.4h-4.6v4.8H62.9z"/>
					<path class="st2" d="M42.5,72.1V61.2h3.9c0.8,0,1.6,0.2,2.1,0.5c0.6,0.3,1,0.7,1.3,1.3c0.3,0.5,0.4,1.1,0.4,1.8
						c0,0.7-0.1,1.3-0.4,1.8c-0.3,0.5-0.7,1-1.3,1.3c-0.6,0.3-1.3,0.5-2.1,0.5h-2.7v-1.4h2.5c0.5,0,1-0.1,1.3-0.3
						c0.3-0.2,0.6-0.4,0.7-0.8s0.2-0.7,0.2-1.1s-0.1-0.8-0.2-1.1c-0.2-0.3-0.4-0.6-0.7-0.8c-0.3-0.2-0.8-0.3-1.3-0.3h-2.1v9.5H42.5z
						"/>
					<path class="st2" d="M60.9,61.2v10.9h-1.5l-5.5-8h-0.1v8H52V61.2h1.5l5.6,8h0.1v-8H60.9z"/>
					<path class="st2" d="M70.6,64.6c-0.1-0.3-0.2-0.6-0.4-0.9c-0.2-0.3-0.4-0.5-0.6-0.7c-0.2-0.2-0.5-0.3-0.8-0.4
						c-0.3-0.1-0.6-0.1-1-0.1c-0.6,0-1.2,0.2-1.7,0.5c-0.5,0.3-0.9,0.8-1.2,1.4c-0.3,0.6-0.4,1.4-0.4,2.2c0,0.9,0.1,1.6,0.4,2.2
						c0.3,0.6,0.7,1.1,1.2,1.4c0.5,0.3,1.1,0.5,1.7,0.5c0.6,0,1.1-0.1,1.6-0.4c0.4-0.2,0.8-0.6,1-1c0.2-0.4,0.4-1,0.4-1.6l0.4,0.1
						h-3.1v-1.4h4.3v1.2c0,0.9-0.2,1.7-0.6,2.4s-0.9,1.2-1.6,1.6s-1.5,0.5-2.3,0.5c-1,0-1.9-0.2-2.6-0.7s-1.3-1.1-1.7-1.9
						c-0.4-0.8-0.6-1.8-0.6-3c0-0.9,0.1-1.7,0.4-2.3s0.6-1.3,1-1.8c0.4-0.5,1-0.9,1.6-1.1c0.6-0.3,1.2-0.4,2-0.4
						c0.6,0,1.1,0.1,1.6,0.3c0.5,0.2,1,0.4,1.4,0.7c0.4,0.3,0.7,0.7,1,1.1s0.4,0.9,0.5,1.5H70.6z"/>
				</g>
			</g>
		</g>
	</g>
	<g>
		<g>
			<g>
				<path class="st2" d="M24.9,32.3c-4.6,0-8.4-3.9-8.4-8.7s3.8-8.7,8.4-8.7c4.6,0,8.4,3.9,8.4,8.7S29.5,32.3,24.9,32.3z M24.9,15.8
					c-4.1,0-7.4,3.5-7.4,7.8c0,4.3,3.3,7.8,7.4,7.8c4.1,0,7.4-3.5,7.4-7.8C32.3,19.3,29,15.8,24.9,15.8z"/>
			</g>
			<ellipse class="st3" cx="24.9" cy="23.6" rx="6.2" ry="6.5"/>
		</g>
		<g>
			<g>
				<path class="st2" d="M24.9,75.3c-4.6,0-8.4-3.9-8.4-8.7c0-4.8,3.8-8.7,8.4-8.7c4.6,0,8.4,3.9,8.4,8.7
					C33.2,71.4,29.5,75.3,24.9,75.3z M24.9,58.8c-4.1,0-7.4,3.5-7.4,7.8c0,4.3,3.3,7.8,7.4,7.8c4.1,0,7.4-3.5,7.4-7.8
					C32.3,62.3,29,58.8,24.9,58.8z"/>
			</g>
			<ellipse class="st4" cx="24.9" cy="66.5" rx="6.2" ry="6.5"/>
		</g>
	</g>
	<g>
		<line class="st5" x1="18.5" y1="45.6" x2="127.5" y2="45.6"/>
	</g>
</g>
</svg>
