<?xml version="1.0" encoding="utf-8"?>
<!-- Generator: Adobe Illustrator 28.1.0, SVG Export Plug-In . SVG Version: 6.00 Build 0)  -->
<svg version="1.1" id="Layer_1" xmlns="http://www.w3.org/2000/svg" xmlns:xlink="http://www.w3.org/1999/xlink" x="0px" y="0px"
	 viewBox="0 0 1059 456" style="enable-background:new 0 0 1059 456;" xml:space="preserve">
<style type="text/css">
	.st0{fill:#4F4F4F;}
	.st1{fill:none;stroke:#4F4F4F;stroke-width:0.7701;stroke-miterlimit:10;}
	.st2{fill:none;stroke:#8F3F97;stroke-width:0.5;stroke-miterlimit:10;}
	.st3{fill:none;stroke:#8F3F97;stroke-width:0.5;stroke-miterlimit:10;stroke-dasharray:1.1971,1.1971;}
	.st4{fill:none;stroke:url(#SVGID_1_);stroke-width:4;}
</style>
<g>
	<g>
		<g>
			<g>
				<g>
					<g>
						<rect x="33.8" y="346.4" class="st0" width="18.1" height="0.5"/>
					</g>
					<g>
						<rect x="41.7" y="371.5" class="st0" width="10.3" height="0.5"/>
					</g>
					<g>
						<rect x="41.7" y="380.4" class="st0" width="10.3" height="0.5"/>
					</g>
					<g>
						<rect x="41.7" y="362.5" class="st0" width="10.3" height="0.5"/>
					</g>
					<g>
						<rect x="41.7" y="353.6" class="st0" width="10.3" height="0.5"/>
					</g>
					<g>
						<rect x="33.8" y="387.6" class="st0" width="18.1" height="0.5"/>
					</g>
					<g>
						<rect x="41.7" y="412.7" class="st0" width="10.3" height="0.5"/>
					</g>
					<g>
						<rect x="41.7" y="421.6" class="st0" width="10.3" height="0.5"/>
					</g>
					<g>
						<rect x="41.7" y="403.7" class="st0" width="10.3" height="0.5"/>
					</g>
					<g>
						<rect x="41.7" y="394.8" class="st0" width="10.3" height="0.5"/>
					</g>
					<g>
						<rect x="33.8" y="305.3" class="st0" width="18.1" height="0.5"/>
					</g>
					<g>
						<rect x="41.7" y="330.3" class="st0" width="10.3" height="0.5"/>
					</g>
					<g>
						<rect x="41.7" y="339.3" class="st0" width="10.3" height="0.5"/>
					</g>
					<g>
						<rect x="41.7" y="321.4" class="st0" width="10.3" height="0.5"/>
					</g>
					<g>
						<rect x="41.7" y="312.4" class="st0" width="10.3" height="0.5"/>
					</g>
					<g>
						<rect x="33.8" y="264.1" class="st0" width="18.1" height="0.5"/>
					</g>
					<g>
						<rect x="41.7" y="289.2" class="st0" width="10.3" height="0.5"/>
					</g>
					<g>
						<rect x="41.7" y="298.1" class="st0" width="10.3" height="0.5"/>
					</g>
					<g>
						<rect x="41.7" y="280.2" class="st0" width="10.3" height="0.5"/>
					</g>
					<g>
						<rect x="41.7" y="271.3" class="st0" width="10.3" height="0.5"/>
					</g>
					<g>
						<rect x="33.8" y="222.9" class="st0" width="18.1" height="0.5"/>
					</g>
					<g>
						<rect x="41.7" y="248" class="st0" width="10.3" height="0.5"/>
					</g>
					<g>
						<rect x="41.7" y="256.9" class="st0" width="10.3" height="0.5"/>
					</g>
					<g>
						<rect x="41.7" y="239" class="st0" width="10.3" height="0.5"/>
					</g>
					<g>
						<rect x="41.7" y="230.1" class="st0" width="10.3" height="0.5"/>
					</g>
					<g>
						<rect x="33.8" y="181.8" class="st0" width="18.1" height="0.5"/>
					</g>
					<g>
						<rect x="41.7" y="206.8" class="st0" width="10.3" height="0.5"/>
					</g>
					<g>
						<rect x="41.7" y="215.8" class="st0" width="10.3" height="0.5"/>
					</g>
					<g>
						<rect x="41.7" y="197.9" class="st0" width="10.3" height="0.5"/>
					</g>
					<g>
						<rect x="41.7" y="188.9" class="st0" width="10.3" height="0.5"/>
					</g>
				</g>
				<g>
					<g>
						<rect x="33.8" y="147.1" class="st0" width="18.1" height="0.5"/>
					</g>
					<g>
						<rect x="41.7" y="172.1" class="st0" width="10.3" height="0.5"/>
					</g>
					<g>
						<rect x="41.7" y="163.2" class="st0" width="10.3" height="0.5"/>
					</g>
					<g>
						<rect x="41.7" y="154.2" class="st0" width="10.3" height="0.5"/>
					</g>
					<g>
						<rect x="33.8" y="105.9" class="st0" width="18.1" height="0.5"/>
					</g>
					<g>
						<rect x="41.7" y="131" class="st0" width="10.3" height="0.5"/>
					</g>
					<g>
						<rect x="41.7" y="139.9" class="st0" width="10.3" height="0.5"/>
					</g>
					<g>
						<rect x="41.7" y="122" class="st0" width="10.3" height="0.5"/>
					</g>
					<g>
						<rect x="41.7" y="113.1" class="st0" width="10.3" height="0.5"/>
					</g>
					<g>
						<rect x="33.8" y="64.7" class="st0" width="18.1" height="0.5"/>
					</g>
					<g>
						<rect x="41.7" y="89.8" class="st0" width="10.3" height="0.5"/>
					</g>
					<g>
						<rect x="41.7" y="98.7" class="st0" width="10.3" height="0.5"/>
					</g>
					<g>
						<rect x="41.7" y="80.8" class="st0" width="10.3" height="0.5"/>
					</g>
					<g>
						<rect x="41.7" y="71.9" class="st0" width="10.3" height="0.5"/>
					</g>
					<g>
						<rect x="33.8" y="23.6" class="st0" width="18.1" height="0.5"/>
					</g>
					<g>
						<rect x="41.7" y="48.6" class="st0" width="10.3" height="0.5"/>
					</g>
					<g>
						<rect x="41.7" y="57.6" class="st0" width="10.3" height="0.5"/>
					</g>
					<g>
						<rect x="41.7" y="39.7" class="st0" width="10.3" height="0.5"/>
					</g>
					<g>
						<rect x="41.7" y="30.7" class="st0" width="10.3" height="0.5"/>
					</g>
				</g>
			</g>
			<line class="st1" x1="58.1" y1="10.8" x2="58.1" y2="425"/>
			<g>
				<g>
					<line class="st2" x1="125.3" y1="10.8" x2="125.3" y2="11.4"/>
					<line class="st3" x1="125.3" y1="12.6" x2="125.3" y2="423.8"/>
					<line class="st2" x1="125.3" y1="424.4" x2="125.3" y2="425"/>
				</g>
			</g>
			<g>
				<g>
					<line class="st2" x1="199.9" y1="10.8" x2="199.9" y2="11.4"/>
					<line class="st3" x1="199.9" y1="12.6" x2="199.9" y2="423.8"/>
					<line class="st2" x1="199.9" y1="424.4" x2="199.9" y2="425"/>
				</g>
			</g>
			<g>
				<g>
					<line class="st2" x1="871.2" y1="10.8" x2="871.2" y2="11.4"/>
					<line class="st3" x1="871.2" y1="12.6" x2="871.2" y2="423.8"/>
					<line class="st2" x1="871.2" y1="424.4" x2="871.2" y2="425"/>
				</g>
			</g>
			<g>
				<g>
					<line class="st2" x1="945.8" y1="10.8" x2="945.8" y2="11.4"/>
					<line class="st3" x1="945.8" y1="12.6" x2="945.8" y2="423.8"/>
					<line class="st2" x1="945.8" y1="424.4" x2="945.8" y2="425"/>
				</g>
			</g>
			<g>
				<g>
					<line class="st2" x1="1020.4" y1="10.8" x2="1020.4" y2="11.4"/>
					<line class="st3" x1="1020.4" y1="12.6" x2="1020.4" y2="423.8"/>
					<line class="st2" x1="1020.4" y1="424.4" x2="1020.4" y2="425"/>
				</g>
			</g>
			<g>
				<g>
					<line class="st2" x1="274.5" y1="10.8" x2="274.5" y2="11.4"/>
					<line class="st3" x1="274.5" y1="12.6" x2="274.5" y2="423.8"/>
					<line class="st2" x1="274.5" y1="424.4" x2="274.5" y2="425"/>
				</g>
			</g>
			<g>
				<g>
					<line class="st2" x1="349.1" y1="10.8" x2="349.1" y2="11.4"/>
					<line class="st3" x1="349.1" y1="12.6" x2="349.1" y2="423.8"/>
					<line class="st2" x1="349.1" y1="424.4" x2="349.1" y2="425"/>
				</g>
			</g>
			<g>
				<g>
					<line class="st2" x1="423.7" y1="10.8" x2="423.7" y2="11.4"/>
					<line class="st3" x1="423.7" y1="12.6" x2="423.7" y2="423.8"/>
					<line class="st2" x1="423.7" y1="424.4" x2="423.7" y2="425"/>
				</g>
			</g>
			<g>
				<g>
					<line class="st2" x1="572.9" y1="10.8" x2="572.9" y2="11.4"/>
					<line class="st3" x1="572.9" y1="12.6" x2="572.9" y2="423.8"/>
					<line class="st2" x1="572.9" y1="424.4" x2="572.9" y2="425"/>
				</g>
			</g>
			<g>
				<g>
					<line class="st2" x1="647.5" y1="10.8" x2="647.5" y2="11.4"/>
					<line class="st3" x1="647.5" y1="12.6" x2="647.5" y2="423.8"/>
					<line class="st2" x1="647.5" y1="424.4" x2="647.5" y2="425"/>
				</g>
			</g>
			<g>
				<g>
					<line class="st2" x1="722" y1="10.8" x2="722" y2="11.4"/>
					<line class="st3" x1="722" y1="12.6" x2="722" y2="423.8"/>
					<line class="st2" x1="722" y1="424.4" x2="722" y2="425"/>
				</g>
			</g>
			<g>
				<g>
					<line class="st2" x1="796.6" y1="10.8" x2="796.6" y2="11.4"/>
					<line class="st3" x1="796.6" y1="12.6" x2="796.6" y2="423.8"/>
					<line class="st2" x1="796.6" y1="424.4" x2="796.6" y2="425"/>
				</g>
			</g>
			<g>
				<g>
					<line class="st2" x1="498.3" y1="10.8" x2="498.3" y2="11.4"/>
					<line class="st3" x1="498.3" y1="12.6" x2="498.3" y2="423.8"/>
					<line class="st2" x1="498.3" y1="424.4" x2="498.3" y2="425"/>
				</g>
			</g>
			<g>
				<g>
					<g>
						<g>
							<path class="st0" d="M25.1,429.4c-0.6,0-1.2-0.2-1.7-0.5c-0.5-0.3-0.8-0.8-1.1-1.5c-0.2-0.6-0.4-1.4-0.4-2.3
								c0-0.9,0.1-1.7,0.4-2.3c0.2-0.6,0.6-1.1,1.1-1.5c0.5-0.3,1-0.5,1.7-0.5s1.2,0.2,1.7,0.5c0.5,0.3,0.8,0.8,1.1,1.5
								c0.2,0.6,0.4,1.4,0.4,2.3c0,0.9-0.1,1.7-0.4,2.3c-0.2,0.6-0.6,1.1-1.1,1.5C26.3,429.2,25.8,429.4,25.1,429.4z M25.1,428.3
								c0.6,0,1-0.3,1.3-0.8c0.3-0.6,0.5-1.4,0.5-2.4c0-0.7-0.1-1.3-0.2-1.8c-0.1-0.5-0.4-0.8-0.6-1.1c-0.3-0.3-0.6-0.4-1-0.4
								c-0.6,0-1,0.3-1.3,0.8c-0.3,0.6-0.5,1.4-0.5,2.4c0,0.7,0.1,1.3,0.2,1.8c0.1,0.5,0.4,0.8,0.6,1.1
								C24.4,428.2,24.7,428.3,25.1,428.3z"/>
						</g>
					</g>
				</g>
				<g>
					<g>
						<path class="st0" d="M115.3,438.9v8.4h-1.3v-7.1h0l-2,1.3v-1.2l2.1-1.4H115.3z"/>
						<path class="st0" d="M117.6,447.3v-0.9l2.8-2.9c0.3-0.3,0.6-0.6,0.8-0.8c0.2-0.2,0.3-0.5,0.4-0.7s0.1-0.5,0.1-0.7
							c0-0.3-0.1-0.5-0.2-0.7c-0.1-0.2-0.3-0.4-0.5-0.5c-0.2-0.1-0.5-0.2-0.8-0.2c-0.3,0-0.6,0.1-0.8,0.2c-0.2,0.1-0.4,0.3-0.5,0.5
							c-0.1,0.2-0.2,0.5-0.2,0.8h-1.2c0-0.5,0.1-1,0.4-1.3c0.2-0.4,0.6-0.7,1-0.9s0.9-0.3,1.4-0.3c0.5,0,1,0.1,1.4,0.3
							s0.7,0.5,0.9,0.9c0.2,0.4,0.3,0.8,0.3,1.2c0,0.3-0.1,0.6-0.2,0.9s-0.3,0.6-0.6,1c-0.3,0.4-0.7,0.8-1.2,1.3l-1.7,1.7v0.1h3.8
							v1.1H117.6z"/>
						<path class="st0" d="M125.5,447.3h-1.3l3-8.4h1.5l3,8.4h-1.3l-2.4-6.9h-0.1L125.5,447.3z M125.7,444h4.4v1.1h-4.4V444z"/>
						<path class="st0" d="M132.9,438.9h1.5l2.7,6.5h0.1l2.7-6.5h1.5v8.4h-1.2v-6.1h-0.1l-2.5,6.1h-1l-2.5-6.1h-0.1v6.1h-1.2V438.9z
							"/>
					</g>
				</g>
				<g>
					<g>
						<path class="st0" d="M192,438.9v8.4h-1.3v-7.1h0l-2,1.3v-1.2l2.1-1.4H192z"/>
						<path class="st0" d="M195,447.3h-1.3l3-8.4h1.5l3,8.4h-1.3l-2.4-6.9h-0.1L195,447.3z M195.3,444h4.4v1.1h-4.4V444z"/>
						<path class="st0" d="M202.4,438.9h1.5l2.7,6.5h0.1l2.7-6.5h1.5v8.4h-1.2v-6.1h-0.1l-2.5,6.1h-1l-2.5-6.1h-0.1v6.1h-1.2V438.9z
							"/>
					</g>
				</g>
				<g>
					<g>
						<path class="st0" d="M262.5,447.3v-0.9l2.8-2.9c0.3-0.3,0.6-0.6,0.8-0.8s0.3-0.5,0.4-0.7s0.1-0.5,0.1-0.7
							c0-0.3-0.1-0.5-0.2-0.7c-0.1-0.2-0.3-0.4-0.5-0.5c-0.2-0.1-0.5-0.2-0.8-0.2c-0.3,0-0.6,0.1-0.8,0.2s-0.4,0.3-0.5,0.5
							s-0.2,0.5-0.2,0.8h-1.2c0-0.5,0.1-1,0.4-1.3s0.6-0.7,1-0.9s0.9-0.3,1.4-0.3c0.5,0,1,0.1,1.4,0.3s0.7,0.5,0.9,0.9
							c0.2,0.4,0.3,0.8,0.3,1.2c0,0.3-0.1,0.6-0.2,0.9s-0.3,0.6-0.6,1c-0.3,0.4-0.7,0.8-1.2,1.3l-1.7,1.7v0.1h3.8v1.1H262.5z"/>
						<path class="st0" d="M270.5,447.3h-1.3l3-8.4h1.5l3,8.4h-1.3l-2.4-6.9h-0.1L270.5,447.3z M270.7,444h4.4v1.1h-4.4V444z"/>
						<path class="st0" d="M277.8,438.9h1.5l2.7,6.5h0.1l2.7-6.5h1.5v8.4h-1.2v-6.1h-0.1l-2.5,6.1h-1l-2.5-6.1H279v6.1h-1.2V438.9z"
							/>
					</g>
				</g>
				<g>
					<g>
						<path class="st0" d="M339.9,447.4c-0.6,0-1.1-0.1-1.5-0.3c-0.4-0.2-0.8-0.5-1-0.8c-0.3-0.3-0.4-0.7-0.4-1.2h1.3
							c0,0.2,0.1,0.5,0.3,0.6c0.2,0.2,0.4,0.3,0.6,0.4s0.5,0.1,0.8,0.1c0.3,0,0.6-0.1,0.9-0.2c0.3-0.1,0.5-0.3,0.6-0.5
							c0.1-0.2,0.2-0.4,0.2-0.7c0-0.3-0.1-0.5-0.2-0.7s-0.4-0.4-0.6-0.5c-0.3-0.1-0.6-0.2-1-0.2H339v-1h0.7c0.3,0,0.6-0.1,0.8-0.2
							c0.2-0.1,0.4-0.3,0.6-0.5c0.1-0.2,0.2-0.4,0.2-0.7c0-0.3-0.1-0.5-0.2-0.7c-0.1-0.2-0.3-0.3-0.5-0.5s-0.5-0.2-0.7-0.2
							c-0.3,0-0.5,0.1-0.8,0.2c-0.2,0.1-0.4,0.2-0.6,0.4c-0.1,0.2-0.2,0.4-0.2,0.7h-1.2c0-0.5,0.1-0.9,0.4-1.2
							c0.3-0.3,0.6-0.6,1-0.8s0.9-0.3,1.4-0.3c0.5,0,1,0.1,1.4,0.3s0.7,0.5,0.9,0.8c0.2,0.3,0.3,0.7,0.3,1.1c0,0.5-0.1,0.9-0.4,1.2
							s-0.6,0.5-1.1,0.7v0.1c0.6,0.1,1,0.3,1.3,0.7s0.5,0.8,0.5,1.3c0,0.5-0.1,0.9-0.4,1.2c-0.3,0.4-0.6,0.7-1.1,0.9
							C341,447.3,340.5,447.4,339.9,447.4z"/>
						<path class="st0" d="M345.2,447.3h-1.3l3-8.4h1.5l3,8.4H350l-2.4-6.9h-0.1L345.2,447.3z M345.4,444h4.4v1.1h-4.4V444z"/>
						<path class="st0" d="M352.6,438.9h1.5l2.7,6.5h0.1l2.7-6.5h1.5v8.4h-1.2v-6.1h-0.1l-2.5,6.1h-1l-2.5-6.1h-0.1v6.1h-1.2V438.9z
							"/>
					</g>
				</g>
				<g>
					<g>
						<path class="st0" d="M411.3,445.6v-1l3.6-5.7h0.8v1.5h-0.5l-2.6,4.1v0.1h5v1.1H411.3z M415.3,447.3v-2l0-0.5v-6h1.2v8.4H415.3
							z"/>
						<path class="st0" d="M419.9,447.3h-1.3l3-8.4h1.5l3,8.4h-1.3l-2.4-6.9h-0.1L419.9,447.3z M420.1,444h4.4v1.1h-4.4V444z"/>
						<path class="st0" d="M427.2,438.9h1.5l2.7,6.5h0.1l2.7-6.5h1.5v8.4h-1.2v-6.1h-0.1l-2.5,6.1h-1l-2.5-6.1h-0.1v6.1h-1.2V438.9z
							"/>
					</g>
				</g>
				<g>
					<g>
						<path class="st0" d="M489,447.4c-0.5,0-1-0.1-1.4-0.3c-0.4-0.2-0.7-0.5-1-0.8s-0.4-0.7-0.4-1.2h1.2c0,0.4,0.2,0.7,0.5,0.9
							c0.3,0.2,0.6,0.3,1,0.3c0.3,0,0.6-0.1,0.9-0.2c0.3-0.1,0.4-0.4,0.6-0.6c0.1-0.3,0.2-0.6,0.2-0.9c0-0.3-0.1-0.6-0.2-0.9
							c-0.1-0.3-0.4-0.5-0.6-0.6c-0.3-0.2-0.6-0.2-0.9-0.2c-0.3,0-0.5,0-0.8,0.1c-0.3,0.1-0.5,0.2-0.6,0.3l-1.2-0.2l0.5-4.2h4.6v1.1
							H488l-0.3,2.4h0c0.2-0.2,0.4-0.3,0.7-0.4s0.6-0.2,0.9-0.2c0.5,0,1,0.1,1.4,0.4c0.4,0.2,0.7,0.6,0.9,1c0.2,0.4,0.3,0.9,0.3,1.4
							c0,0.5-0.1,1-0.4,1.5c-0.2,0.4-0.6,0.8-1,1C490.1,447.2,489.6,447.4,489,447.4z"/>
						<path class="st0" d="M494.3,447.3h-1.3l3-8.4h1.5l3,8.4h-1.3l-2.4-6.9h-0.1L494.3,447.3z M494.5,444h4.4v1.1h-4.4V444z"/>
						<path class="st0" d="M501.6,438.9h1.5l2.7,6.5h0.1l2.7-6.5h1.5v8.4H509v-6.1h-0.1l-2.5,6.1h-1l-2.5-6.1h-0.1v6.1h-1.2V438.9z"
							/>
					</g>
				</g>
				<g>
					<g>
						<path class="st0" d="M563.7,447.4c-0.4,0-0.7-0.1-1.1-0.2c-0.4-0.1-0.7-0.4-1-0.7c-0.3-0.3-0.5-0.7-0.7-1.2
							c-0.2-0.5-0.3-1.2-0.3-1.9c0-0.7,0.1-1.4,0.2-2c0.1-0.6,0.4-1,0.6-1.4c0.3-0.4,0.6-0.7,1-0.9c0.4-0.2,0.8-0.3,1.3-0.3
							c0.5,0,0.9,0.1,1.3,0.3s0.7,0.5,0.9,0.8s0.4,0.7,0.5,1.2h-1.3c-0.1-0.3-0.3-0.6-0.5-0.9s-0.6-0.3-1-0.3
							c-0.6,0-1.1,0.3-1.4,0.8c-0.3,0.5-0.5,1.3-0.5,2.2h0.1c0.1-0.2,0.3-0.4,0.5-0.6c0.2-0.2,0.5-0.3,0.7-0.4
							c0.3-0.1,0.5-0.1,0.8-0.1c0.5,0,0.9,0.1,1.3,0.4c0.4,0.2,0.7,0.6,0.9,1s0.4,0.9,0.4,1.4s-0.1,1-0.4,1.5c-0.2,0.4-0.6,0.8-1,1
							C564.8,447.3,564.3,447.4,563.7,447.4z M563.7,446.3c0.3,0,0.6-0.1,0.9-0.2c0.3-0.2,0.5-0.4,0.6-0.6c0.1-0.3,0.2-0.6,0.2-0.9
							c0-0.3-0.1-0.6-0.2-0.9c-0.1-0.3-0.3-0.5-0.6-0.6c-0.3-0.2-0.5-0.2-0.9-0.2c-0.2,0-0.5,0-0.7,0.1c-0.2,0.1-0.4,0.2-0.5,0.4
							c-0.2,0.2-0.3,0.4-0.4,0.6s-0.1,0.4-0.1,0.7c0,0.3,0.1,0.6,0.2,0.9c0.1,0.3,0.3,0.5,0.6,0.6
							C563.1,446.2,563.4,446.3,563.7,446.3z"/>
						<path class="st0" d="M568.9,447.3h-1.3l3-8.4h1.5l3,8.4h-1.3l-2.4-6.9h-0.1L568.9,447.3z M569.2,444h4.4v1.1h-4.4V444z"/>
						<path class="st0" d="M576.3,438.9h1.5l2.7,6.5h0.1l2.7-6.5h1.5v8.4h-1.2v-6.1h-0.1l-2.5,6.1h-1l-2.5-6.1h-0.1v6.1h-1.2V438.9z
							"/>
					</g>
				</g>
				<g>
					<g>
						<path class="st0" d="M636,447.3l3.7-7.3v-0.1h-4.2v-1.1h5.6v1.1l-3.7,7.3H636z"/>
						<path class="st0" d="M643.2,447.3h-1.3l3-8.4h1.5l3,8.4H648l-2.4-6.9h-0.1L643.2,447.3z M643.4,444h4.4v1.1h-4.4V444z"/>
						<path class="st0" d="M650.6,438.9h1.5l2.7,6.5h0.1l2.7-6.5h1.5v8.4h-1.2v-6.1h-0.1l-2.5,6.1h-1l-2.5-6.1h-0.1v6.1h-1.2V438.9z
							"/>
					</g>
				</g>
				<g>
					<g>
						<path class="st0" d="M712.8,447.4c-0.6,0-1.1-0.1-1.6-0.3c-0.4-0.2-0.8-0.5-1.1-0.8c-0.3-0.4-0.4-0.8-0.4-1.2
							c0-0.4,0.1-0.7,0.2-1c0.1-0.3,0.4-0.5,0.6-0.8s0.5-0.3,0.9-0.4v0c-0.4-0.1-0.8-0.3-1-0.7c-0.3-0.3-0.4-0.7-0.4-1.2
							c0-0.4,0.1-0.8,0.3-1.2c0.2-0.3,0.5-0.6,1-0.8c0.4-0.2,0.9-0.3,1.4-0.3c0.5,0,1,0.1,1.4,0.3c0.4,0.2,0.7,0.5,1,0.8
							s0.3,0.7,0.4,1.1c0,0.5-0.1,0.9-0.4,1.2c-0.3,0.3-0.6,0.6-1,0.7v0c0.3,0.1,0.6,0.2,0.9,0.4c0.3,0.2,0.5,0.5,0.6,0.8
							c0.2,0.3,0.2,0.6,0.2,1c0,0.5-0.1,0.9-0.4,1.2c-0.3,0.4-0.6,0.6-1.1,0.8C713.9,447.3,713.4,447.4,712.8,447.4z M712.8,446.3
							c0.3,0,0.6-0.1,0.9-0.2c0.3-0.1,0.5-0.3,0.6-0.5c0.1-0.2,0.2-0.5,0.2-0.7c0-0.3-0.1-0.6-0.2-0.8c-0.1-0.2-0.4-0.4-0.6-0.5
							c-0.3-0.1-0.5-0.2-0.9-0.2c-0.3,0-0.6,0.1-0.9,0.2c-0.3,0.1-0.5,0.3-0.6,0.5c-0.1,0.2-0.2,0.5-0.2,0.8c0,0.3,0.1,0.5,0.2,0.7
							c0.1,0.2,0.3,0.4,0.6,0.5S712.5,446.3,712.8,446.3z M712.8,442.4c0.3,0,0.5-0.1,0.7-0.2c0.2-0.1,0.4-0.3,0.5-0.5
							c0.1-0.2,0.2-0.4,0.2-0.7c0-0.3-0.1-0.5-0.2-0.7c-0.1-0.2-0.3-0.3-0.5-0.5c-0.2-0.1-0.5-0.2-0.8-0.2c-0.3,0-0.5,0.1-0.8,0.2
							c-0.2,0.1-0.4,0.3-0.5,0.5c-0.1,0.2-0.2,0.4-0.2,0.7c0,0.3,0.1,0.5,0.2,0.7c0.1,0.2,0.3,0.4,0.5,0.5
							C712.3,442.4,712.5,442.4,712.8,442.4z"/>
						<path class="st0" d="M718.1,447.3h-1.3l3-8.4h1.5l3,8.4h-1.3l-2.4-6.9h-0.1L718.1,447.3z M718.3,444h4.4v1.1h-4.4V444z"/>
						<path class="st0" d="M725.5,438.9h1.5l2.7,6.5h0.1l2.7-6.5h1.5v8.4h-1.2v-6.1h-0.1l-2.5,6.1h-1l-2.5-6.1h-0.1v6.1h-1.2V438.9z
							"/>
					</g>
				</g>
				<g>
					<g>
						<path class="st0" d="M787.3,438.7c0.4,0,0.7,0.1,1.1,0.2c0.4,0.1,0.7,0.4,1,0.7s0.5,0.7,0.7,1.2s0.3,1.2,0.3,1.9
							c0,0.7-0.1,1.4-0.2,2c-0.1,0.6-0.4,1.1-0.6,1.5c-0.3,0.4-0.6,0.7-1,0.9c-0.4,0.2-0.8,0.3-1.3,0.3c-0.5,0-0.9-0.1-1.3-0.3
							c-0.4-0.2-0.7-0.5-0.9-0.8c-0.2-0.3-0.4-0.8-0.5-1.2h1.3c0.1,0.4,0.2,0.7,0.5,0.9s0.6,0.3,1,0.3c0.6,0,1.1-0.3,1.4-0.8
							s0.5-1.3,0.5-2.3h-0.1c-0.1,0.2-0.3,0.4-0.5,0.6c-0.2,0.2-0.4,0.3-0.7,0.4s-0.5,0.1-0.8,0.1c-0.5,0-0.9-0.1-1.3-0.4
							c-0.4-0.2-0.7-0.6-0.9-1c-0.2-0.4-0.4-0.9-0.4-1.4c0-0.5,0.1-1,0.4-1.4c0.2-0.4,0.6-0.8,1-1S786.7,438.7,787.3,438.7z
							 M787.3,439.8c-0.3,0-0.6,0.1-0.9,0.2s-0.5,0.4-0.6,0.6c-0.1,0.3-0.2,0.6-0.2,0.9s0.1,0.6,0.2,0.9s0.3,0.5,0.6,0.6
							s0.5,0.2,0.9,0.2c0.2,0,0.5,0,0.7-0.1s0.4-0.2,0.5-0.4c0.2-0.2,0.3-0.4,0.4-0.6c0.1-0.2,0.1-0.4,0.1-0.7
							c0-0.3-0.1-0.6-0.2-0.9c-0.1-0.3-0.3-0.5-0.6-0.6C788,439.9,787.7,439.8,787.3,439.8z"/>
						<path class="st0" d="M792.7,447.3h-1.3l3-8.4h1.5l3,8.4h-1.3l-2.4-6.9h-0.1L792.7,447.3z M792.9,444h4.4v1.1h-4.4V444z"/>
						<path class="st0" d="M800.1,438.9h1.5l2.7,6.5h0.1l2.7-6.5h1.5v8.4h-1.2v-6.1h-0.1l-2.5,6.1h-1l-2.5-6.1h-0.1v6.1h-1.2V438.9z
							"/>
					</g>
				</g>
				<g>
					<g>
						<path class="st0" d="M859.5,438.9v8.4h-1.3v-7.1h0l-2,1.3v-1.2l2.1-1.4H859.5z"/>
						<path class="st0" d="M864.7,447.4c-0.6,0-1.2-0.2-1.7-0.5c-0.5-0.3-0.8-0.8-1.1-1.5c-0.2-0.6-0.4-1.4-0.4-2.3
							c0-0.9,0.1-1.7,0.4-2.3c0.2-0.6,0.6-1.1,1.1-1.5c0.5-0.3,1-0.5,1.7-0.5c0.6,0,1.2,0.2,1.7,0.5c0.5,0.3,0.8,0.8,1.1,1.5
							c0.2,0.6,0.4,1.4,0.4,2.3c0,0.9-0.1,1.7-0.4,2.3c-0.2,0.6-0.6,1.1-1.1,1.5C865.9,447.2,865.4,447.4,864.7,447.4z M864.7,446.3
							c0.6,0,1-0.3,1.3-0.8c0.3-0.6,0.5-1.4,0.5-2.4c0-0.7-0.1-1.3-0.2-1.8c-0.1-0.5-0.4-0.8-0.6-1.1c-0.3-0.3-0.6-0.4-1-0.4
							c-0.6,0-1,0.3-1.3,0.8c-0.3,0.6-0.5,1.4-0.5,2.4c0,0.7,0.1,1.3,0.2,1.8c0.1,0.5,0.4,0.8,0.6,1.1
							C864,446.2,864.3,446.3,864.7,446.3z"/>
						<path class="st0" d="M870.1,447.3h-1.3l3-8.4h1.5l3,8.4h-1.3l-2.4-6.9h-0.1L870.1,447.3z M870.3,444h4.4v1.1h-4.4V444z"/>
						<path class="st0" d="M877.5,438.9h1.5l2.7,6.5h0.1l2.7-6.5h1.5v8.4h-1.2v-6.1h-0.1l-2.5,6.1h-1l-2.5-6.1h-0.1v6.1h-1.2V438.9z
							"/>
					</g>
				</g>
				<g>
					<g>
						<path class="st0" d="M935.1,438.9v8.4h-1.3v-7.1h0l-2,1.3v-1.2l2.1-1.4H935.1z"/>
						<path class="st0" d="M940.6,438.9v8.4h-1.3v-7.1h0l-2,1.3v-1.2l2.1-1.4H940.6z"/>
						<path class="st0" d="M943.7,447.3h-1.3l3-8.4h1.5l3,8.4h-1.3l-2.4-6.9h-0.1L943.7,447.3z M943.9,444h4.4v1.1h-4.4V444z"/>
						<path class="st0" d="M951.1,438.9h1.5l2.7,6.5h0.1l2.7-6.5h1.5v8.4h-1.2v-6.1h-0.1l-2.5,6.1h-1l-2.5-6.1h-0.1v6.1h-1.2V438.9z
							"/>
					</g>
				</g>
				<g>
					<g>
						<path class="st0" d="M1009.2,438.9v8.4h-1.3v-7.1h0l-2,1.3v-1.2l2.1-1.4H1009.2z"/>
						<path class="st0" d="M1011.5,447.3v-0.9l2.8-2.9c0.3-0.3,0.6-0.6,0.8-0.8s0.3-0.5,0.4-0.7s0.1-0.5,0.1-0.7
							c0-0.3-0.1-0.5-0.2-0.7c-0.1-0.2-0.3-0.4-0.5-0.5c-0.2-0.1-0.5-0.2-0.8-0.2c-0.3,0-0.6,0.1-0.8,0.2c-0.2,0.1-0.4,0.3-0.5,0.5
							s-0.2,0.5-0.2,0.8h-1.2c0-0.5,0.1-1,0.4-1.3s0.6-0.7,1-0.9s0.9-0.3,1.4-0.3c0.5,0,1,0.1,1.4,0.3s0.7,0.5,0.9,0.9
							c0.2,0.4,0.3,0.8,0.3,1.2c0,0.3-0.1,0.6-0.2,0.9s-0.3,0.6-0.6,1c-0.3,0.4-0.7,0.8-1.2,1.3l-1.7,1.7v0.1h3.8v1.1H1011.5z"/>
						<path class="st0" d="M1018.7,447.3v-8.4h3c0.7,0,1.2,0.1,1.6,0.4c0.4,0.2,0.8,0.6,1,1c0.2,0.4,0.3,0.9,0.3,1.4
							c0,0.5-0.1,1-0.3,1.4c-0.2,0.4-0.5,0.7-1,1s-1,0.4-1.6,0.4h-2.1v-1.1h1.9c0.4,0,0.7-0.1,1-0.2s0.4-0.3,0.6-0.6
							c0.1-0.2,0.2-0.5,0.2-0.8s-0.1-0.6-0.2-0.8c-0.1-0.2-0.3-0.4-0.6-0.6c-0.3-0.1-0.6-0.2-1-0.2h-1.6v7.3H1018.7z"/>
						<path class="st0" d="M1026.1,438.9h1.5l2.7,6.5h0.1l2.7-6.5h1.5v8.4h-1.2v-6.1h-0.1l-2.5,6.1h-1l-2.5-6.1h-0.1v6.1h-1.2V438.9
							z"/>
					</g>
				</g>
				<g>
					<g>
						<g>
							<path class="st0" d="M17.8,389.2c-0.5,0-1-0.1-1.4-0.3c-0.4-0.2-0.7-0.5-1-0.8c-0.2-0.3-0.4-0.7-0.4-1.2h1.2
								c0,0.4,0.2,0.7,0.5,0.9c0.3,0.2,0.6,0.3,1,0.3c0.3,0,0.6-0.1,0.9-0.2c0.3-0.1,0.4-0.4,0.6-0.6c0.1-0.3,0.2-0.6,0.2-0.9
								c0-0.3-0.1-0.6-0.2-0.9c-0.1-0.3-0.4-0.5-0.6-0.6s-0.6-0.2-0.9-0.2c-0.3,0-0.5,0-0.8,0.1c-0.3,0.1-0.5,0.2-0.6,0.3l-1.2-0.2
								l0.5-4.2h4.6v1.1h-3.6l-0.3,2.4h0c0.2-0.2,0.4-0.3,0.7-0.4c0.3-0.1,0.6-0.2,0.9-0.2c0.5,0,1,0.1,1.4,0.4
								c0.4,0.2,0.7,0.6,0.9,1c0.2,0.4,0.3,0.9,0.3,1.4c0,0.5-0.1,1-0.4,1.5c-0.2,0.4-0.6,0.8-1,1C18.9,389.1,18.4,389.2,17.8,389.2
								z"/>
							<path class="st0" d="M25.1,389.2c-0.6,0-1.2-0.2-1.7-0.5c-0.5-0.3-0.8-0.8-1.1-1.5c-0.2-0.6-0.4-1.4-0.4-2.3
								c0-0.9,0.1-1.7,0.4-2.3c0.2-0.6,0.6-1.1,1.1-1.5c0.5-0.3,1-0.5,1.7-0.5s1.2,0.2,1.7,0.5c0.5,0.3,0.8,0.8,1.1,1.5
								c0.2,0.6,0.4,1.4,0.4,2.3c0,0.9-0.1,1.7-0.4,2.3c-0.2,0.6-0.6,1.1-1.1,1.5C26.3,389.1,25.8,389.2,25.1,389.2z M25.1,388.1
								c0.6,0,1-0.3,1.3-0.8c0.3-0.6,0.5-1.4,0.5-2.4c0-0.7-0.1-1.3-0.2-1.8c-0.1-0.5-0.4-0.8-0.6-1.1c-0.3-0.3-0.6-0.4-1-0.4
								c-0.6,0-1,0.3-1.3,0.8c-0.3,0.6-0.5,1.4-0.5,2.4c0,0.7,0.1,1.3,0.2,1.8c0.1,0.5,0.4,0.8,0.6,1.1
								C24.4,388,24.7,388.1,25.1,388.1z"/>
						</g>
					</g>
				</g>
				<g>
					<g>
						<path class="st0" d="M12.5,340.6v8.4h-1.3v-7.1h0l-2,1.3v-1.2l2.1-1.4H12.5z"/>
						<path class="st0" d="M17.7,349.1c-0.6,0-1.2-0.2-1.7-0.5c-0.5-0.3-0.8-0.8-1.1-1.5c-0.2-0.6-0.4-1.4-0.4-2.3
							c0-0.9,0.1-1.7,0.4-2.3c0.2-0.6,0.6-1.1,1.1-1.5c0.5-0.3,1-0.5,1.7-0.5s1.2,0.2,1.7,0.5c0.5,0.3,0.8,0.8,1.1,1.5
							c0.2,0.6,0.4,1.4,0.4,2.3c0,0.9-0.1,1.7-0.4,2.3c-0.2,0.6-0.6,1.1-1.1,1.5C18.9,348.9,18.3,349.1,17.7,349.1z M17.7,348
							c0.6,0,1-0.3,1.3-0.8c0.3-0.6,0.5-1.4,0.5-2.4c0-0.7-0.1-1.3-0.2-1.8c-0.1-0.5-0.4-0.8-0.6-1.1c-0.3-0.3-0.6-0.4-1-0.4
							c-0.6,0-1,0.3-1.3,0.8c-0.3,0.6-0.5,1.4-0.5,2.4c0,0.7,0.1,1.3,0.2,1.8c0.1,0.5,0.4,0.8,0.6,1.1C17,347.9,17.3,348,17.7,348z"
							/>
						<path class="st0" d="M25.1,349.1c-0.6,0-1.2-0.2-1.7-0.5c-0.5-0.3-0.8-0.8-1.1-1.5c-0.2-0.6-0.4-1.4-0.4-2.3
							c0-0.9,0.1-1.7,0.4-2.3c0.2-0.6,0.6-1.1,1.1-1.5c0.5-0.3,1-0.5,1.7-0.5s1.2,0.2,1.7,0.5c0.5,0.3,0.8,0.8,1.1,1.5
							c0.2,0.6,0.4,1.4,0.4,2.3c0,0.9-0.1,1.7-0.4,2.3c-0.2,0.6-0.6,1.1-1.1,1.5C26.3,348.9,25.8,349.1,25.1,349.1z M25.1,348
							c0.6,0,1-0.3,1.3-0.8c0.3-0.6,0.5-1.4,0.5-2.4c0-0.7-0.1-1.3-0.2-1.8c-0.1-0.5-0.4-0.8-0.6-1.1c-0.3-0.3-0.6-0.4-1-0.4
							c-0.6,0-1,0.3-1.3,0.8c-0.3,0.6-0.5,1.4-0.5,2.4c0,0.7,0.1,1.3,0.2,1.8c0.1,0.5,0.4,0.8,0.6,1.1C24.4,347.9,24.7,348,25.1,348
							z"/>
					</g>
				</g>
				<g>
					<g>
						<path class="st0" d="M12.8,300.4v8.4h-1.3v-7.1h0l-2,1.3v-1.2l2.1-1.4H12.8z"/>
						<path class="st0" d="M17.8,309c-0.5,0-1-0.1-1.4-0.3c-0.4-0.2-0.7-0.5-1-0.8c-0.2-0.3-0.4-0.7-0.4-1.2h1.2
							c0,0.4,0.2,0.7,0.5,0.9c0.3,0.2,0.6,0.3,1,0.3c0.3,0,0.6-0.1,0.9-0.2c0.3-0.1,0.4-0.4,0.6-0.6c0.1-0.3,0.2-0.6,0.2-0.9
							c0-0.3-0.1-0.6-0.2-0.9c-0.1-0.3-0.4-0.5-0.6-0.6s-0.6-0.2-0.9-0.2c-0.3,0-0.5,0-0.8,0.1c-0.3,0.1-0.5,0.2-0.6,0.3l-1.2-0.2
							l0.5-4.2h4.6v1.1h-3.6l-0.3,2.4h0c0.2-0.2,0.4-0.3,0.7-0.4c0.3-0.1,0.6-0.2,0.9-0.2c0.5,0,1,0.1,1.4,0.4
							c0.4,0.2,0.7,0.6,0.9,1c0.2,0.4,0.3,0.9,0.3,1.4c0,0.5-0.1,1-0.4,1.5c-0.2,0.4-0.6,0.8-1,1C18.9,308.8,18.4,309,17.8,309z"/>
						<path class="st0" d="M25.1,309c-0.6,0-1.2-0.2-1.7-0.5c-0.5-0.3-0.8-0.8-1.1-1.5c-0.2-0.6-0.4-1.4-0.4-2.3
							c0-0.9,0.1-1.7,0.4-2.3c0.2-0.6,0.6-1.1,1.1-1.5c0.5-0.3,1-0.5,1.7-0.5s1.2,0.2,1.7,0.5c0.5,0.3,0.8,0.8,1.1,1.5
							c0.2,0.6,0.4,1.4,0.4,2.3c0,0.9-0.1,1.7-0.4,2.3c-0.2,0.6-0.6,1.1-1.1,1.5C26.3,308.8,25.8,309,25.1,309z M25.1,307.9
							c0.6,0,1-0.3,1.3-0.8c0.3-0.6,0.5-1.4,0.5-2.4c0-0.7-0.1-1.3-0.2-1.8c-0.1-0.5-0.4-0.8-0.6-1.1c-0.3-0.3-0.6-0.4-1-0.4
							c-0.6,0-1,0.3-1.3,0.8c-0.3,0.6-0.5,1.4-0.5,2.4c0,0.7,0.1,1.3,0.2,1.8c0.1,0.5,0.4,0.8,0.6,1.1
							C24.4,307.8,24.7,307.9,25.1,307.9z"/>
					</g>
				</g>
				<g>
					<g>
						<path class="st0" d="M7.6,268.7v-0.9l2.8-2.9c0.3-0.3,0.6-0.6,0.8-0.8c0.2-0.2,0.3-0.5,0.4-0.7s0.1-0.5,0.1-0.7
							c0-0.3-0.1-0.5-0.2-0.7c-0.1-0.2-0.3-0.4-0.5-0.5c-0.2-0.1-0.5-0.2-0.8-0.2c-0.3,0-0.6,0.1-0.8,0.2c-0.2,0.1-0.4,0.3-0.5,0.5
							c-0.1,0.2-0.2,0.5-0.2,0.8H7.6c0-0.5,0.1-1,0.4-1.3c0.2-0.4,0.6-0.7,1-0.9s0.9-0.3,1.4-0.3c0.5,0,1,0.1,1.4,0.3
							s0.7,0.5,0.9,0.9c0.2,0.4,0.3,0.8,0.3,1.2c0,0.3-0.1,0.6-0.2,0.9s-0.3,0.6-0.6,1c-0.3,0.4-0.7,0.8-1.2,1.3l-1.7,1.7v0.1h3.8
							v1.1H7.6z"/>
						<path class="st0" d="M17.7,268.9c-0.6,0-1.2-0.2-1.7-0.5c-0.5-0.3-0.8-0.8-1.1-1.5c-0.2-0.6-0.4-1.4-0.4-2.3
							c0-0.9,0.1-1.7,0.4-2.3c0.2-0.6,0.6-1.1,1.1-1.5c0.5-0.3,1-0.5,1.7-0.5s1.2,0.2,1.7,0.5c0.5,0.3,0.8,0.8,1.1,1.5
							c0.2,0.6,0.4,1.4,0.4,2.3c0,0.9-0.1,1.7-0.4,2.3c-0.2,0.6-0.6,1.1-1.1,1.5C18.9,268.7,18.3,268.9,17.7,268.9z M17.7,267.8
							c0.6,0,1-0.3,1.3-0.8c0.3-0.6,0.5-1.4,0.5-2.4c0-0.7-0.1-1.3-0.2-1.8c-0.1-0.5-0.4-0.8-0.6-1.1c-0.3-0.3-0.6-0.4-1-0.4
							c-0.6,0-1,0.3-1.3,0.8c-0.3,0.6-0.5,1.4-0.5,2.4c0,0.7,0.1,1.3,0.2,1.8c0.1,0.5,0.4,0.8,0.6,1.1
							C17,267.6,17.3,267.8,17.7,267.8z"/>
						<path class="st0" d="M25.1,268.9c-0.6,0-1.2-0.2-1.7-0.5c-0.5-0.3-0.8-0.8-1.1-1.5c-0.2-0.6-0.4-1.4-0.4-2.3
							c0-0.9,0.1-1.7,0.4-2.3c0.2-0.6,0.6-1.1,1.1-1.5c0.5-0.3,1-0.5,1.7-0.5s1.2,0.2,1.7,0.5c0.5,0.3,0.8,0.8,1.1,1.5
							c0.2,0.6,0.4,1.4,0.4,2.3c0,0.9-0.1,1.7-0.4,2.3c-0.2,0.6-0.6,1.1-1.1,1.5C26.3,268.7,25.8,268.9,25.1,268.9z M25.1,267.8
							c0.6,0,1-0.3,1.3-0.8c0.3-0.6,0.5-1.4,0.5-2.4c0-0.7-0.1-1.3-0.2-1.8c-0.1-0.5-0.4-0.8-0.6-1.1c-0.3-0.3-0.6-0.4-1-0.4
							c-0.6,0-1,0.3-1.3,0.8c-0.3,0.6-0.5,1.4-0.5,2.4c0,0.7,0.1,1.3,0.2,1.8c0.1,0.5,0.4,0.8,0.6,1.1
							C24.4,267.6,24.7,267.8,25.1,267.8z"/>
					</g>
				</g>
				<g>
					<g>
						<path class="st0" d="M7.9,228.6v-0.9l2.8-2.9c0.3-0.3,0.6-0.6,0.8-0.8c0.2-0.2,0.3-0.5,0.4-0.7s0.1-0.5,0.1-0.7
							c0-0.3-0.1-0.5-0.2-0.7c-0.1-0.2-0.3-0.4-0.5-0.5c-0.2-0.1-0.5-0.2-0.8-0.2c-0.3,0-0.6,0.1-0.8,0.2c-0.2,0.1-0.4,0.3-0.5,0.5
							c-0.1,0.2-0.2,0.5-0.2,0.8H7.9c0-0.5,0.1-1,0.4-1.3c0.2-0.4,0.6-0.7,1-0.9s0.9-0.3,1.4-0.3c0.5,0,1,0.1,1.4,0.3
							s0.7,0.5,0.9,0.9c0.2,0.4,0.3,0.8,0.3,1.2c0,0.3-0.1,0.6-0.2,0.9s-0.3,0.6-0.6,1c-0.3,0.4-0.7,0.8-1.2,1.3l-1.7,1.7v0.1h3.8
							v1.1H7.9z"/>
						<path class="st0" d="M17.8,228.7c-0.5,0-1-0.1-1.4-0.3c-0.4-0.2-0.7-0.5-1-0.8c-0.2-0.3-0.4-0.7-0.4-1.2h1.2
							c0,0.4,0.2,0.7,0.5,0.9c0.3,0.2,0.6,0.3,1,0.3c0.3,0,0.6-0.1,0.9-0.2c0.3-0.1,0.4-0.4,0.6-0.6c0.1-0.3,0.2-0.6,0.2-0.9
							c0-0.3-0.1-0.6-0.2-0.9c-0.1-0.3-0.4-0.5-0.6-0.6s-0.6-0.2-0.9-0.2c-0.3,0-0.5,0-0.8,0.1c-0.3,0.1-0.5,0.2-0.6,0.3l-1.2-0.2
							l0.5-4.2h4.6v1.1h-3.6l-0.3,2.4h0c0.2-0.2,0.4-0.3,0.7-0.4c0.3-0.1,0.6-0.2,0.9-0.2c0.5,0,1,0.1,1.4,0.4
							c0.4,0.2,0.7,0.6,0.9,1c0.2,0.4,0.3,0.9,0.3,1.4c0,0.5-0.1,1-0.4,1.5c-0.2,0.4-0.6,0.8-1,1C18.9,228.6,18.4,228.7,17.8,228.7z
							"/>
						<path class="st0" d="M25.1,228.7c-0.6,0-1.2-0.2-1.7-0.5c-0.5-0.3-0.8-0.8-1.1-1.5c-0.2-0.6-0.4-1.4-0.4-2.3
							c0-0.9,0.1-1.7,0.4-2.3c0.2-0.6,0.6-1.1,1.1-1.5c0.5-0.3,1-0.5,1.7-0.5s1.2,0.2,1.7,0.5c0.5,0.3,0.8,0.8,1.1,1.5
							c0.2,0.6,0.4,1.4,0.4,2.3c0,0.9-0.1,1.7-0.4,2.3c-0.2,0.6-0.6,1.1-1.1,1.5C26.3,228.5,25.8,228.7,25.1,228.7z M25.1,227.6
							c0.6,0,1-0.3,1.3-0.8c0.3-0.6,0.5-1.4,0.5-2.4c0-0.7-0.1-1.3-0.2-1.8c-0.1-0.5-0.4-0.8-0.6-1.1c-0.3-0.3-0.6-0.4-1-0.4
							c-0.6,0-1,0.3-1.3,0.8c-0.3,0.6-0.5,1.4-0.5,2.4c0,0.7,0.1,1.3,0.2,1.8c0.1,0.5,0.4,0.8,0.6,1.1
							C24.4,227.5,24.7,227.6,25.1,227.6z"/>
					</g>
				</g>
				<g>
					<g>
						<path class="st0" d="M10.2,188.6c-0.6,0-1.1-0.1-1.5-0.3c-0.4-0.2-0.8-0.5-1-0.8c-0.3-0.3-0.4-0.7-0.4-1.2h1.3
							c0,0.2,0.1,0.5,0.3,0.6c0.2,0.2,0.4,0.3,0.6,0.4s0.5,0.1,0.8,0.1c0.3,0,0.6-0.1,0.9-0.2c0.3-0.1,0.5-0.3,0.6-0.5
							c0.1-0.2,0.2-0.4,0.2-0.7c0-0.3-0.1-0.5-0.2-0.7s-0.4-0.4-0.6-0.5s-0.6-0.2-1-0.2H9.4v-1h0.7c0.3,0,0.6-0.1,0.8-0.2
							c0.2-0.1,0.4-0.3,0.6-0.5c0.1-0.2,0.2-0.4,0.2-0.7c0-0.3-0.1-0.5-0.2-0.7c-0.1-0.2-0.3-0.3-0.5-0.5s-0.5-0.2-0.7-0.2
							c-0.3,0-0.5,0.1-0.8,0.2c-0.2,0.1-0.4,0.2-0.6,0.4c-0.1,0.2-0.2,0.4-0.2,0.7H7.4c0-0.5,0.1-0.9,0.4-1.2c0.3-0.3,0.6-0.6,1-0.8
							c0.4-0.2,0.9-0.3,1.4-0.3c0.5,0,1,0.1,1.4,0.3c0.4,0.2,0.7,0.5,0.9,0.8c0.2,0.3,0.3,0.7,0.3,1.1c0,0.5-0.1,0.9-0.4,1.2
							c-0.3,0.3-0.6,0.5-1.1,0.7v0.1c0.6,0.1,1,0.3,1.3,0.7s0.5,0.8,0.5,1.3c0,0.5-0.1,0.9-0.4,1.2s-0.6,0.7-1.1,0.9
							C11.3,188.5,10.8,188.6,10.2,188.6z"/>
						<path class="st0" d="M17.7,188.6c-0.6,0-1.2-0.2-1.7-0.5c-0.5-0.3-0.8-0.8-1.1-1.5c-0.2-0.6-0.4-1.4-0.4-2.3
							c0-0.9,0.1-1.7,0.4-2.3c0.2-0.6,0.6-1.1,1.1-1.5c0.5-0.3,1-0.5,1.7-0.5s1.2,0.2,1.7,0.5c0.5,0.3,0.8,0.8,1.1,1.5
							c0.2,0.6,0.4,1.4,0.4,2.3c0,0.9-0.1,1.7-0.4,2.3c-0.2,0.6-0.6,1.1-1.1,1.5C18.9,188.4,18.3,188.6,17.7,188.6z M17.7,187.5
							c0.6,0,1-0.3,1.3-0.8c0.3-0.6,0.5-1.4,0.5-2.4c0-0.7-0.1-1.3-0.2-1.8c-0.1-0.5-0.4-0.8-0.6-1.1c-0.3-0.3-0.6-0.4-1-0.4
							c-0.6,0-1,0.3-1.3,0.8c-0.3,0.6-0.5,1.4-0.5,2.4c0,0.7,0.1,1.3,0.2,1.8c0.1,0.5,0.4,0.8,0.6,1.1
							C17,187.4,17.3,187.5,17.7,187.5z"/>
						<path class="st0" d="M25.1,188.6c-0.6,0-1.2-0.2-1.7-0.5c-0.5-0.3-0.8-0.8-1.1-1.5c-0.2-0.6-0.4-1.4-0.4-2.3
							c0-0.9,0.1-1.7,0.4-2.3c0.2-0.6,0.6-1.1,1.1-1.5c0.5-0.3,1-0.5,1.7-0.5s1.2,0.2,1.7,0.5c0.5,0.3,0.8,0.8,1.1,1.5
							c0.2,0.6,0.4,1.4,0.4,2.3c0,0.9-0.1,1.7-0.4,2.3c-0.2,0.6-0.6,1.1-1.1,1.5C26.3,188.4,25.8,188.6,25.1,188.6z M25.1,187.5
							c0.6,0,1-0.3,1.3-0.8c0.3-0.6,0.5-1.4,0.5-2.4c0-0.7-0.1-1.3-0.2-1.8c-0.1-0.5-0.4-0.8-0.6-1.1c-0.3-0.3-0.6-0.4-1-0.4
							c-0.6,0-1,0.3-1.3,0.8c-0.3,0.6-0.5,1.4-0.5,2.4c0,0.7,0.1,1.3,0.2,1.8c0.1,0.5,0.4,0.8,0.6,1.1
							C24.4,187.4,24.7,187.5,25.1,187.5z"/>
					</g>
				</g>
				<g>
					<g>
						<path class="st0" d="M10.5,148.4c-0.6,0-1.1-0.1-1.5-0.3c-0.4-0.2-0.8-0.5-1-0.8c-0.3-0.3-0.4-0.7-0.4-1.2h1.3
							c0,0.2,0.1,0.5,0.3,0.6c0.2,0.2,0.4,0.3,0.6,0.4s0.5,0.1,0.8,0.1c0.3,0,0.6-0.1,0.9-0.2c0.3-0.1,0.5-0.3,0.6-0.5
							c0.1-0.2,0.2-0.4,0.2-0.7c0-0.3-0.1-0.5-0.2-0.7s-0.4-0.4-0.6-0.5s-0.6-0.2-1-0.2H9.7v-1h0.7c0.3,0,0.6-0.1,0.8-0.2
							c0.2-0.1,0.4-0.3,0.6-0.5c0.1-0.2,0.2-0.4,0.2-0.7c0-0.3-0.1-0.5-0.2-0.7c-0.1-0.2-0.3-0.3-0.5-0.5s-0.5-0.2-0.7-0.2
							c-0.3,0-0.5,0.1-0.8,0.2c-0.2,0.1-0.4,0.2-0.6,0.4C9,141.6,9,141.8,9,142.1H7.7c0-0.5,0.1-0.9,0.4-1.2c0.3-0.3,0.6-0.6,1-0.8
							c0.4-0.2,0.9-0.3,1.4-0.3c0.5,0,1,0.1,1.4,0.3c0.4,0.2,0.7,0.5,0.9,0.8c0.2,0.3,0.3,0.7,0.3,1.1c0,0.5-0.1,0.9-0.4,1.2
							c-0.3,0.3-0.6,0.5-1.1,0.7v0.1c0.6,0.1,1,0.3,1.3,0.7s0.5,0.8,0.5,1.3c0,0.5-0.1,0.9-0.4,1.2s-0.6,0.7-1.1,0.9
							C11.6,148.3,11.1,148.4,10.5,148.4z"/>
						<path class="st0" d="M17.8,148.4c-0.5,0-1-0.1-1.4-0.3c-0.4-0.2-0.7-0.5-1-0.8c-0.2-0.3-0.4-0.7-0.4-1.2h1.2
							c0,0.4,0.2,0.7,0.5,0.9c0.3,0.2,0.6,0.3,1,0.3c0.3,0,0.6-0.1,0.9-0.2c0.3-0.1,0.4-0.4,0.6-0.6c0.1-0.3,0.2-0.6,0.2-0.9
							c0-0.3-0.1-0.6-0.2-0.9c-0.1-0.3-0.4-0.5-0.6-0.6s-0.6-0.2-0.9-0.2c-0.3,0-0.5,0-0.8,0.1c-0.3,0.1-0.5,0.2-0.6,0.3l-1.2-0.2
							l0.5-4.2h4.6v1.1h-3.6l-0.3,2.4h0c0.2-0.2,0.4-0.3,0.7-0.4c0.3-0.1,0.6-0.2,0.9-0.2c0.5,0,1,0.1,1.4,0.4
							c0.4,0.2,0.7,0.6,0.9,1c0.2,0.4,0.3,0.9,0.3,1.4c0,0.5-0.1,1-0.4,1.5c-0.2,0.4-0.6,0.8-1,1C18.9,148.3,18.4,148.4,17.8,148.4z
							"/>
						<path class="st0" d="M25.1,148.5c-0.6,0-1.2-0.2-1.7-0.5c-0.5-0.3-0.8-0.8-1.1-1.5c-0.2-0.6-0.4-1.4-0.4-2.3
							c0-0.9,0.1-1.7,0.4-2.3c0.2-0.6,0.6-1.1,1.1-1.5c0.5-0.3,1-0.5,1.7-0.5s1.2,0.2,1.7,0.5c0.5,0.3,0.8,0.8,1.1,1.5
							c0.2,0.6,0.4,1.4,0.4,2.3c0,0.9-0.1,1.7-0.4,2.3c-0.2,0.6-0.6,1.1-1.1,1.5C26.3,148.3,25.8,148.5,25.1,148.5z M25.1,147.4
							c0.6,0,1-0.3,1.3-0.8c0.3-0.6,0.5-1.4,0.5-2.4c0-0.7-0.1-1.3-0.2-1.8c-0.1-0.5-0.4-0.8-0.6-1.1c-0.3-0.3-0.6-0.4-1-0.4
							c-0.6,0-1,0.3-1.3,0.8c-0.3,0.6-0.5,1.4-0.5,2.4c0,0.7,0.1,1.3,0.2,1.8c0.1,0.5,0.4,0.8,0.6,1.1
							C24.4,147.2,24.7,147.4,25.1,147.4z"/>
					</g>
				</g>
				<g>
					<g>
						<path class="st0" d="M7,106.5v-1l3.6-5.7h0.8v1.5h-0.5l-2.6,4.1v0.1h5v1.1H7z M11,108.2v-2l0-0.5v-6h1.2v8.4H11z"/>
						<path class="st0" d="M17.7,108.3c-0.6,0-1.2-0.2-1.7-0.5c-0.5-0.3-0.8-0.8-1.1-1.5c-0.2-0.6-0.4-1.4-0.4-2.3
							c0-0.9,0.1-1.7,0.4-2.3c0.2-0.6,0.6-1.1,1.1-1.5c0.5-0.3,1-0.5,1.7-0.5s1.2,0.2,1.7,0.5c0.5,0.3,0.8,0.8,1.1,1.5
							c0.2,0.6,0.4,1.4,0.4,2.3c0,0.9-0.1,1.7-0.4,2.3c-0.2,0.6-0.6,1.1-1.1,1.5C18.9,108.2,18.3,108.3,17.7,108.3z M17.7,107.2
							c0.6,0,1-0.3,1.3-0.8c0.3-0.6,0.5-1.4,0.5-2.4c0-0.7-0.1-1.3-0.2-1.8c-0.1-0.5-0.4-0.8-0.6-1.1c-0.3-0.3-0.6-0.4-1-0.4
							c-0.6,0-1,0.3-1.3,0.8c-0.3,0.6-0.5,1.4-0.5,2.4c0,0.7,0.1,1.3,0.2,1.8c0.1,0.5,0.4,0.8,0.6,1.1
							C17,107.1,17.3,107.2,17.7,107.2z"/>
						<path class="st0" d="M25.1,108.3c-0.6,0-1.2-0.2-1.7-0.5c-0.5-0.3-0.8-0.8-1.1-1.5c-0.2-0.6-0.4-1.4-0.4-2.3
							c0-0.9,0.1-1.7,0.4-2.3c0.2-0.6,0.6-1.1,1.1-1.5c0.5-0.3,1-0.5,1.7-0.5s1.2,0.2,1.7,0.5c0.5,0.3,0.8,0.8,1.1,1.5
							c0.2,0.6,0.4,1.4,0.4,2.3c0,0.9-0.1,1.7-0.4,2.3c-0.2,0.6-0.6,1.1-1.1,1.5C26.3,108.2,25.8,108.3,25.1,108.3z M25.1,107.2
							c0.6,0,1-0.3,1.3-0.8c0.3-0.6,0.5-1.4,0.5-2.4c0-0.7-0.1-1.3-0.2-1.8c-0.1-0.5-0.4-0.8-0.6-1.1c-0.3-0.3-0.6-0.4-1-0.4
							c-0.6,0-1,0.3-1.3,0.8c-0.3,0.6-0.5,1.4-0.5,2.4c0,0.7,0.1,1.3,0.2,1.8c0.1,0.5,0.4,0.8,0.6,1.1
							C24.4,107.1,24.7,107.2,25.1,107.2z"/>
					</g>
				</g>
				<g>
					<g>
						<path class="st0" d="M7.3,66.4v-1l3.6-5.7h0.8v1.5h-0.5l-2.6,4.1v0.1h5v1.1H7.3z M11.3,68.1v-2l0-0.5v-6h1.2v8.4H11.3z"/>
						<path class="st0" d="M17.8,68.2c-0.5,0-1-0.1-1.4-0.3c-0.4-0.2-0.7-0.5-1-0.8c-0.2-0.3-0.4-0.7-0.4-1.2h1.2
							c0,0.4,0.2,0.7,0.5,0.9c0.3,0.2,0.6,0.3,1,0.3c0.3,0,0.6-0.1,0.9-0.2c0.3-0.1,0.4-0.4,0.6-0.6c0.1-0.3,0.2-0.6,0.2-0.9
							c0-0.3-0.1-0.6-0.2-0.9c-0.1-0.3-0.4-0.5-0.6-0.6s-0.6-0.2-0.9-0.2c-0.3,0-0.5,0-0.8,0.1c-0.3,0.1-0.5,0.2-0.6,0.3l-1.2-0.2
							l0.5-4.2h4.6v1.1h-3.6l-0.3,2.4h0c0.2-0.2,0.4-0.3,0.7-0.4c0.3-0.1,0.6-0.2,0.9-0.2c0.5,0,1,0.1,1.4,0.4
							c0.4,0.2,0.7,0.6,0.9,1c0.2,0.4,0.3,0.9,0.3,1.4c0,0.5-0.1,1-0.4,1.5c-0.2,0.4-0.6,0.8-1,1C18.9,68.1,18.4,68.2,17.8,68.2z"/>
						<path class="st0" d="M25.1,68.2c-0.6,0-1.2-0.2-1.7-0.5c-0.5-0.3-0.8-0.8-1.1-1.5c-0.2-0.6-0.4-1.4-0.4-2.3
							c0-0.9,0.1-1.7,0.4-2.3c0.2-0.6,0.6-1.1,1.1-1.5c0.5-0.3,1-0.5,1.7-0.5s1.2,0.2,1.7,0.5c0.5,0.3,0.8,0.8,1.1,1.5
							c0.2,0.6,0.4,1.4,0.4,2.3c0,0.9-0.1,1.7-0.4,2.3c-0.2,0.6-0.6,1.1-1.1,1.5C26.3,68,25.8,68.2,25.1,68.2z M25.1,67.1
							c0.6,0,1-0.3,1.3-0.8c0.3-0.6,0.5-1.4,0.5-2.4c0-0.7-0.1-1.3-0.2-1.8c-0.1-0.5-0.4-0.8-0.6-1.1c-0.3-0.3-0.6-0.4-1-0.4
							c-0.6,0-1,0.3-1.3,0.8c-0.3,0.6-0.5,1.4-0.5,2.4c0,0.7,0.1,1.3,0.2,1.8c0.1,0.5,0.4,0.8,0.6,1.1C24.4,67,24.7,67.1,25.1,67.1z
							"/>
					</g>
				</g>
				<g>
					<g>
						<path class="st0" d="M10.3,28c-0.5,0-1-0.1-1.4-0.3c-0.4-0.2-0.7-0.5-1-0.8c-0.2-0.3-0.4-0.7-0.4-1.2h1.2
							c0,0.4,0.2,0.7,0.5,0.9c0.3,0.2,0.6,0.3,1,0.3c0.3,0,0.6-0.1,0.9-0.2c0.3-0.1,0.4-0.4,0.6-0.6c0.1-0.3,0.2-0.6,0.2-0.9
							c0-0.3-0.1-0.6-0.2-0.9c-0.1-0.3-0.4-0.5-0.6-0.6c-0.3-0.2-0.6-0.2-0.9-0.2c-0.3,0-0.5,0-0.8,0.1c-0.3,0.1-0.5,0.2-0.6,0.3
							l-1.2-0.2l0.5-4.2h4.6v1.1H9.3L9,23h0c0.2-0.2,0.4-0.3,0.7-0.4c0.3-0.1,0.6-0.2,0.9-0.2c0.5,0,1,0.1,1.4,0.4
							c0.4,0.2,0.7,0.6,0.9,1c0.2,0.4,0.3,0.9,0.3,1.4c0,0.5-0.1,1-0.4,1.5s-0.6,0.8-1,1C11.4,27.9,10.9,28,10.3,28z"/>
						<path class="st0" d="M17.7,28.1c-0.6,0-1.2-0.2-1.7-0.5c-0.5-0.3-0.8-0.8-1.1-1.5c-0.2-0.6-0.4-1.4-0.4-2.3
							c0-0.9,0.1-1.7,0.4-2.3c0.2-0.6,0.6-1.1,1.1-1.5c0.5-0.3,1-0.5,1.7-0.5s1.2,0.2,1.7,0.5c0.5,0.3,0.8,0.8,1.1,1.5
							s0.4,1.4,0.4,2.3c0,0.9-0.1,1.7-0.4,2.3c-0.2,0.6-0.6,1.1-1.1,1.5C18.9,27.9,18.3,28.1,17.7,28.1z M17.7,27
							c0.6,0,1-0.3,1.3-0.8c0.3-0.6,0.5-1.4,0.5-2.4c0-0.7-0.1-1.3-0.2-1.8c-0.1-0.5-0.4-0.8-0.6-1.1c-0.3-0.2-0.6-0.4-1-0.4
							c-0.6,0-1,0.3-1.3,0.8c-0.3,0.6-0.5,1.4-0.5,2.4c0,0.7,0.1,1.3,0.2,1.8c0.1,0.5,0.4,0.8,0.6,1.1C17,26.8,17.3,27,17.7,27z"/>
						<path class="st0" d="M25.1,28.1c-0.6,0-1.2-0.2-1.7-0.5c-0.5-0.3-0.8-0.8-1.1-1.5c-0.2-0.6-0.4-1.4-0.4-2.3
							c0-0.9,0.1-1.7,0.4-2.3c0.2-0.6,0.6-1.1,1.1-1.5c0.5-0.3,1-0.5,1.7-0.5s1.2,0.2,1.7,0.5c0.5,0.3,0.8,0.8,1.1,1.5
							s0.4,1.4,0.4,2.3c0,0.9-0.1,1.7-0.4,2.3c-0.2,0.6-0.6,1.1-1.1,1.5C26.3,27.9,25.8,28.1,25.1,28.1z M25.1,27
							c0.6,0,1-0.3,1.3-0.8c0.3-0.6,0.5-1.4,0.5-2.4c0-0.7-0.1-1.3-0.2-1.8c-0.1-0.5-0.4-0.8-0.6-1.1c-0.3-0.2-0.6-0.4-1-0.4
							c-0.6,0-1,0.3-1.3,0.8c-0.3,0.6-0.5,1.4-0.5,2.4c0,0.7,0.1,1.3,0.2,1.8c0.1,0.5,0.4,0.8,0.6,1.1C24.4,26.8,24.7,27,25.1,27z"
							/>
					</g>
				</g>
			</g>
			<line class="st1" x1="37" y1="429.2" x2="1046.6" y2="429.2"/>
		</g>
	</g>
</g>
<linearGradient id="SVGID_1_" gradientUnits="userSpaceOnUse" x1="533.7283" y1="904.6859" x2="533.7283" y2="1196.2377" gradientTransform="matrix(1 0 0 -1 0 1338.1101)">
	<stop  offset="0" style="stop-color:#00C800"/>
	<stop  offset="0.1391" style="stop-color:#00C800"/>
	<stop  offset="0.1474" style="stop-color:#FFE12D"/>
	<stop  offset="0.3085" style="stop-color:#FFE12D"/>
	<stop  offset="0.3089" style="stop-color:#FF7E00"/>
	<stop  offset="0.4245" style="stop-color:#FF7E00"/>
	<stop  offset="0.442" style="stop-color:#FA0A00"/>
	<stop  offset="0.6641" style="stop-color:#FF0000"/>
	<stop  offset="0.6688" style="stop-color:#A715CB"/>
</linearGradient>
<path class="st4" d="M991.3,264l-75.6,18.4l-61.8,79.1l-24.5,2l-25.9,41.6l-9.8,13l-14.1-8.5l-27.6-5.8l-11.1,7l-14.1-17.5
	l-12.9-39.5l-8.6-20.5l-14.1-59.7l-9.2-12.5l-15.4,54.7l-13.2-11L643,318.2l-9.7-14.3l-14.2,96.6l-12.9,2l-12.3-11.5l-11.7,15
	l-11.1,19l-12.9-3.5l-10.5-11l-12.9-8l-13.5-11.5l-9.8,9.5l-19.7-5l-10.5,6.5l-12.3-97l-14,35.7L447,308l-24.5,57.3l-9.3-2.2
	l-10.6,10.8l-4.7,13.6l-11.7,10.5l-12.9-4.5l-12.9,13l-11.4-21.6l-13.8-26.3L323.4,347l-10.5,23l-12.3-9.5l-18.9,21l-15.1,4.1
	l-6.6,5.4l-11.7,7l-11.1,3.5l-12.9-6l-14.1,11l-10.5-11l-9.8,8.5l-12.3-2.5l-12.9-6l-12.3,2.5l-11.7,3.5h-13.5l-14.1,5l-9.2-8.5
	l-14.1,3.5l-12.9,9"/>
</svg>
