<?xml version="1.0" encoding="utf-8"?>
<!-- Generator: Adobe Illustrator 28.1.0, SVG Export Plug-In . SVG Version: 6.00 Build 0)  -->
<svg version="1.1" id="Layer_1" xmlns="http://www.w3.org/2000/svg" xmlns:xlink="http://www.w3.org/1999/xlink" x="0px" y="0px"
	 viewBox="0 0 1388 596" style="enable-background:new 0 0 1388 596;" xml:space="preserve">
<style type="text/css">
	.st0{opacity:0.2;}
	.st1{fill:#E5E5E5;}
</style>
<g class="st0">
	<g>
		<g>
			<path class="st1" d="M23.3,6.9h1343.3c8.6,0,15.5,6.9,15.5,15.5v551.8c0,8.6-6.9,15.5-15.5,15.5H23.3c-8.6,0-15.5-6.9-15.5-15.5
				V22.4C7.8,13.8,14.7,6.9,23.3,6.9z"/>
		</g>
	</g>
</g>
<g>
	<g>
		<path d="M29.6,47.1V25.3h4.6v9h9.4v-9h4.6v21.8h-4.6v-9h-9.4v9H29.6z"/>
		<path d="M54.2,28.7c-0.7,0-1.3-0.2-1.7-0.7c-0.5-0.4-0.7-1-0.7-1.6c0-0.6,0.2-1.2,0.7-1.6c0.5-0.5,1.1-0.7,1.7-0.7
			c0.7,0,1.3,0.2,1.7,0.7c0.5,0.4,0.7,1,0.7,1.6c0,0.6-0.2,1.2-0.7,1.6C55.4,28.4,54.9,28.7,54.2,28.7z M51.9,47.1V30.8h4.5v16.4
			H51.9z"/>
		<path d="M73.7,35.4l-4.2,0.3c-0.1-0.4-0.2-0.7-0.5-1s-0.5-0.5-0.9-0.7c-0.4-0.2-0.8-0.3-1.4-0.3c-0.7,0-1.3,0.1-1.8,0.4
			c-0.5,0.3-0.7,0.7-0.7,1.2c0,0.4,0.2,0.7,0.5,1c0.3,0.3,0.8,0.5,1.6,0.6l3,0.6c1.6,0.3,2.8,0.9,3.6,1.6c0.8,0.7,1.2,1.7,1.2,2.9
			c0,1.1-0.3,2-0.9,2.8c-0.6,0.8-1.5,1.4-2.6,1.9c-1.1,0.5-2.3,0.7-3.8,0.7c-2.2,0-3.9-0.5-5.2-1.4c-1.3-0.9-2-2.1-2.3-3.7l4.5-0.2
			c0.1,0.7,0.5,1.2,1,1.5c0.5,0.3,1.2,0.5,2,0.5c0.8,0,1.4-0.2,1.9-0.5c0.5-0.3,0.7-0.7,0.7-1.2c0-0.4-0.2-0.8-0.5-1
			c-0.3-0.3-0.9-0.5-1.6-0.6l-2.8-0.6c-1.6-0.3-2.8-0.9-3.6-1.7c-0.8-0.8-1.2-1.8-1.2-3c0-1.1,0.3-2,0.9-2.7
			c0.6-0.8,1.4-1.3,2.4-1.8c1-0.4,2.3-0.6,3.7-0.6c2.1,0,3.7,0.4,4.9,1.3C72.8,32.7,73.5,33.9,73.7,35.4z"/>
		<path d="M85.6,30.8v3.4h-9.9v-3.4H85.6z M78,26.9h4.5v15.3c0,0.4,0.1,0.7,0.2,1c0.1,0.2,0.3,0.4,0.5,0.5c0.2,0.1,0.5,0.1,0.8,0.1
			c0.2,0,0.4,0,0.6-0.1s0.4-0.1,0.5-0.1l0.7,3.4c-0.2,0.1-0.5,0.2-1,0.3c-0.4,0.1-0.9,0.2-1.5,0.2c-1.1,0-2.1-0.1-2.9-0.4
			c-0.8-0.3-1.5-0.9-1.9-1.6S78,43.8,78,42.7V26.9z"/>
		<path d="M96,47.5c-1.7,0-3.1-0.4-4.3-1.1c-1.2-0.7-2.1-1.7-2.8-3c-0.7-1.3-1-2.7-1-4.4c0-1.7,0.3-3.2,1-4.4c0.7-1.3,1.6-2.3,2.8-3
			c1.2-0.7,2.6-1.1,4.3-1.1s3.1,0.4,4.3,1.1c1.2,0.7,2.1,1.7,2.8,3c0.7,1.3,1,2.7,1,4.4c0,1.7-0.3,3.1-1,4.4c-0.7,1.3-1.6,2.3-2.8,3
			C99.1,47.1,97.6,47.5,96,47.5z M96,43.9c0.8,0,1.4-0.2,1.9-0.6s0.9-1,1.1-1.8c0.3-0.7,0.4-1.6,0.4-2.5s-0.1-1.8-0.4-2.5
			c-0.3-0.7-0.6-1.3-1.1-1.8S96.8,34,96,34c-0.8,0-1.4,0.2-1.9,0.6s-0.9,1-1.2,1.8c-0.3,0.7-0.4,1.6-0.4,2.5s0.1,1.8,0.4,2.5
			c0.3,0.7,0.6,1.3,1.2,1.8S95.2,43.9,96,43.9z"/>
		<path d="M107,47.1V30.8h4.4v2.9h0.2c0.3-1,0.8-1.8,1.5-2.3s1.5-0.8,2.4-0.8c0.2,0,0.5,0,0.7,0s0.5,0.1,0.7,0.1v4
			c-0.2-0.1-0.5-0.1-0.9-0.2s-0.7-0.1-1-0.1c-0.7,0-1.3,0.1-1.8,0.4s-0.9,0.7-1.2,1.2c-0.3,0.5-0.5,1.1-0.5,1.8v9.3H107z"/>
		<path d="M121.5,28.7c-0.7,0-1.3-0.2-1.7-0.7c-0.5-0.4-0.7-1-0.7-1.6c0-0.6,0.2-1.2,0.7-1.6c0.5-0.5,1.1-0.7,1.7-0.7
			c0.7,0,1.3,0.2,1.7,0.7c0.5,0.4,0.7,1,0.7,1.6c0,0.6-0.2,1.2-0.7,1.6C122.8,28.4,122.2,28.7,121.5,28.7z M119.3,47.1V30.8h4.5
			v16.4H119.3z"/>
		<path d="M134.8,47.5c-1.7,0-3.1-0.4-4.3-1.1c-1.2-0.7-2.1-1.7-2.8-3c-0.6-1.3-1-2.7-1-4.4c0-1.7,0.3-3.1,1-4.4s1.6-2.3,2.8-3
			c1.2-0.7,2.6-1.1,4.3-1.1c1.4,0,2.7,0.3,3.8,0.8s1.9,1.2,2.5,2.2s1,2,1,3.3h-4.3c-0.1-0.8-0.4-1.5-1-2c-0.5-0.5-1.2-0.8-2-0.8
			c-0.7,0-1.3,0.2-1.8,0.6s-0.9,0.9-1.2,1.7c-0.3,0.7-0.4,1.6-0.4,2.6c0,1,0.1,1.9,0.4,2.7s0.7,1.3,1.2,1.7c0.5,0.4,1.1,0.6,1.8,0.6
			c0.5,0,1-0.1,1.4-0.3c0.4-0.2,0.8-0.5,1-0.9c0.3-0.4,0.5-0.9,0.5-1.5h4.3c-0.1,1.3-0.4,2.3-1,3.3c-0.6,0.9-1.4,1.7-2.5,2.2
			C137.5,47.2,136.3,47.5,134.8,47.5z"/>
		<path d="M149.7,47.4c-1,0-2-0.2-2.8-0.5s-1.5-0.9-1.9-1.6s-0.7-1.6-0.7-2.7c0-0.9,0.2-1.7,0.5-2.3c0.3-0.6,0.8-1.1,1.4-1.5
			c0.6-0.4,1.2-0.7,2-0.9c0.7-0.2,1.5-0.3,2.3-0.4c1-0.1,1.7-0.2,2.3-0.3c0.6-0.1,1-0.2,1.3-0.4c0.3-0.2,0.4-0.4,0.4-0.8V36
			c0-0.7-0.2-1.2-0.6-1.6c-0.4-0.4-1-0.6-1.8-0.6c-0.8,0-1.5,0.2-1.9,0.5c-0.5,0.4-0.8,0.8-1,1.3l-4.2-0.3c0.2-1,0.6-1.9,1.3-2.6
			s1.4-1.3,2.4-1.7c1-0.4,2.1-0.6,3.4-0.6c0.9,0,1.8,0.1,2.6,0.3c0.8,0.2,1.6,0.5,2.2,1c0.6,0.4,1.2,1,1.5,1.7
			c0.4,0.7,0.6,1.5,0.6,2.5v11h-4.3v-2.3h-0.1c-0.3,0.5-0.6,1-1.1,1.3s-1,0.7-1.6,0.9C151.2,47.3,150.5,47.4,149.7,47.4z M151,44.3
			c0.7,0,1.3-0.1,1.8-0.4s0.9-0.6,1.2-1.1c0.3-0.5,0.4-1,0.4-1.5v-1.7c-0.1,0.1-0.3,0.2-0.6,0.3s-0.5,0.1-0.8,0.2
			c-0.3,0.1-0.6,0.1-0.9,0.2c-0.3,0-0.6,0.1-0.8,0.1c-0.5,0.1-1,0.2-1.4,0.4c-0.4,0.2-0.7,0.4-0.9,0.7c-0.2,0.3-0.3,0.6-0.3,1.1
			c0,0.6,0.2,1.1,0.7,1.4C149.7,44.2,150.3,44.3,151,44.3z"/>
		<path d="M167,25.3v21.8h-4.5V25.3H167z"/>
		<path d="M185.4,47.1h-7.7V25.3h7.8c2.2,0,4.1,0.4,5.7,1.3c1.6,0.9,2.8,2.1,3.7,3.7c0.9,1.6,1.3,3.6,1.3,5.8c0,2.3-0.4,4.2-1.3,5.9
			c-0.9,1.6-2.1,2.9-3.7,3.8S187.6,47.1,185.4,47.1z M182.3,43.2h2.9c1.4,0,2.5-0.2,3.4-0.7s1.6-1.2,2.1-2.3s0.7-2.4,0.7-4
			c0-1.6-0.2-2.9-0.7-4s-1.2-1.8-2.1-2.3c-0.9-0.5-2.1-0.7-3.4-0.7h-2.9V43.2z"/>
		<path d="M204,47.4c-1,0-2-0.2-2.8-0.5s-1.5-0.9-1.9-1.6s-0.7-1.6-0.7-2.7c0-0.9,0.2-1.7,0.5-2.3c0.3-0.6,0.8-1.1,1.4-1.5
			c0.6-0.4,1.2-0.7,2-0.9c0.7-0.2,1.5-0.3,2.3-0.4c1-0.1,1.7-0.2,2.3-0.3c0.6-0.1,1-0.2,1.3-0.4c0.3-0.2,0.4-0.4,0.4-0.8V36
			c0-0.7-0.2-1.2-0.6-1.6c-0.4-0.4-1-0.6-1.8-0.6c-0.8,0-1.5,0.2-1.9,0.5c-0.5,0.4-0.8,0.8-1,1.3l-4.2-0.3c0.2-1,0.6-1.9,1.3-2.6
			s1.4-1.3,2.4-1.7c1-0.4,2.1-0.6,3.4-0.6c0.9,0,1.8,0.1,2.6,0.3c0.8,0.2,1.6,0.5,2.2,1c0.6,0.4,1.2,1,1.5,1.7
			c0.4,0.7,0.6,1.5,0.6,2.5v11H209v-2.3h-0.1c-0.3,0.5-0.6,1-1.1,1.3s-1,0.7-1.6,0.9C205.6,47.3,204.9,47.4,204,47.4z M205.3,44.3
			c0.7,0,1.3-0.1,1.8-0.4s0.9-0.6,1.2-1.1c0.3-0.5,0.4-1,0.4-1.5v-1.7c-0.1,0.1-0.3,0.2-0.6,0.3s-0.5,0.1-0.8,0.2
			c-0.3,0.1-0.6,0.1-0.9,0.2c-0.3,0-0.6,0.1-0.8,0.1c-0.5,0.1-1,0.2-1.4,0.4c-0.4,0.2-0.7,0.4-0.9,0.7c-0.2,0.3-0.3,0.6-0.3,1.1
			c0,0.6,0.2,1.1,0.7,1.4C204.1,44.2,204.7,44.3,205.3,44.3z"/>
		<path d="M225.5,30.8v3.4h-9.9v-3.4H225.5z M217.9,26.9h4.5v15.3c0,0.4,0.1,0.7,0.2,1c0.1,0.2,0.3,0.4,0.5,0.5
			c0.2,0.1,0.5,0.1,0.8,0.1c0.2,0,0.4,0,0.6-0.1s0.4-0.1,0.5-0.1l0.7,3.4c-0.2,0.1-0.5,0.2-1,0.3c-0.4,0.1-0.9,0.2-1.5,0.2
			c-1.1,0-2.1-0.1-2.9-0.4c-0.8-0.3-1.5-0.9-1.9-1.6s-0.7-1.6-0.7-2.7V26.9z"/>
		<path d="M233.1,47.4c-1,0-2-0.2-2.8-0.5s-1.5-0.9-1.9-1.6s-0.7-1.6-0.7-2.7c0-0.9,0.2-1.7,0.5-2.3c0.3-0.6,0.8-1.1,1.4-1.5
			c0.6-0.4,1.2-0.7,2-0.9c0.7-0.2,1.5-0.3,2.3-0.4c1-0.1,1.7-0.2,2.3-0.3c0.6-0.1,1-0.2,1.3-0.4c0.3-0.2,0.4-0.4,0.4-0.8V36
			c0-0.7-0.2-1.2-0.6-1.6c-0.4-0.4-1-0.6-1.8-0.6c-0.8,0-1.5,0.2-1.9,0.5c-0.5,0.4-0.8,0.8-1,1.3l-4.2-0.3c0.2-1,0.6-1.9,1.3-2.6
			s1.4-1.3,2.4-1.7c1-0.4,2.1-0.6,3.4-0.6c0.9,0,1.8,0.1,2.6,0.3c0.8,0.2,1.6,0.5,2.2,1c0.6,0.4,1.2,1,1.5,1.7
			c0.4,0.7,0.6,1.5,0.6,2.5v11H238v-2.3h-0.1c-0.3,0.5-0.6,1-1.1,1.3s-1,0.7-1.6,0.9C234.6,47.3,233.9,47.4,233.1,47.4z M234.4,44.3
			c0.7,0,1.3-0.1,1.8-0.4s0.9-0.6,1.2-1.1c0.3-0.5,0.4-1,0.4-1.5v-1.7c-0.1,0.1-0.3,0.2-0.6,0.3s-0.5,0.1-0.8,0.2
			c-0.3,0.1-0.6,0.1-0.9,0.2c-0.3,0-0.6,0.1-0.8,0.1c-0.5,0.1-1,0.2-1.4,0.4c-0.4,0.2-0.7,0.4-0.9,0.7c-0.2,0.3-0.3,0.6-0.3,1.1
			c0,0.6,0.2,1.1,0.7,1.4C233.1,44.2,233.7,44.3,234.4,44.3z"/>
	</g>
</g>
</svg>
