<?xml version="1.0" encoding="utf-8"?>
<!-- Generator: Adobe Illustrator 28.1.0, SVG Export Plug-In . SVG Version: 6.00 Build 0)  -->
<svg version="1.1" id="Layer_1" xmlns="http://www.w3.org/2000/svg" xmlns:xlink="http://www.w3.org/1999/xlink" x="0px" y="0px"
	 viewBox="0 0 1385 140" style="enable-background:new 0 0 1385 140;" xml:space="preserve">
<style type="text/css">
	.st0{opacity:0.2;}
	.st1{fill:#E5E5E5;}
	.st2{fill:#E7E7E7;}
	.st3{fill:none;stroke:#888888;stroke-width:0.6165;stroke-miterlimit:10;}
	.st4{fill:#25B5B1;}
	.st5{fill:#888888;}
	.st6{fill:#00C800;}
	.st7{fill:#FFE12D;}
	.st8{fill:#4F4F4F;}
</style>
<g class="st0">
	<g>
		<g>
			<path class="st1" d="M19.3,6.5h1343.3c8.6,0,15.5,6.9,15.5,15.5v94.8c0,8.6-6.9,15.5-15.5,15.5H19.3c-8.6,0-15.5-6.9-15.5-15.5
				V22C3.8,13.4,10.7,6.5,19.3,6.5z"/>
		</g>
	</g>
</g>
<g>
	<g>
		<path d="M25.6,46.7V24.9h4.6v18h9.4v3.8H25.6z"/>
		<path d="M47.2,47c-1,0-2-0.2-2.8-0.5s-1.5-0.9-1.9-1.6s-0.7-1.6-0.7-2.7c0-0.9,0.2-1.7,0.5-2.3c0.3-0.6,0.8-1.1,1.4-1.5
			c0.6-0.4,1.2-0.7,2-0.9c0.7-0.2,1.5-0.3,2.3-0.4c1-0.1,1.7-0.2,2.3-0.3c0.6-0.1,1-0.2,1.3-0.4c0.3-0.2,0.4-0.4,0.4-0.8v-0.1
			c0-0.7-0.2-1.2-0.6-1.6c-0.4-0.4-1-0.6-1.8-0.6c-0.8,0-1.5,0.2-1.9,0.5c-0.5,0.4-0.8,0.8-1,1.3L42.4,35c0.2-1,0.6-1.9,1.3-2.6
			s1.4-1.3,2.4-1.7c1-0.4,2.1-0.6,3.4-0.6c0.9,0,1.8,0.1,2.6,0.3c0.8,0.2,1.6,0.5,2.2,1c0.6,0.4,1.2,1,1.5,1.7
			c0.4,0.7,0.6,1.5,0.6,2.5v11h-4.3v-2.3H52c-0.3,0.5-0.6,1-1.1,1.3s-1,0.7-1.6,0.9C48.7,46.9,48,47,47.2,47z M48.5,43.9
			c0.7,0,1.3-0.1,1.8-0.4s0.9-0.6,1.2-1.1c0.3-0.5,0.4-1,0.4-1.5v-1.7c-0.1,0.1-0.3,0.2-0.6,0.3s-0.5,0.1-0.8,0.2
			c-0.3,0.1-0.6,0.1-0.9,0.2c-0.3,0-0.6,0.1-0.8,0.1c-0.5,0.1-1,0.2-1.4,0.4c-0.4,0.2-0.7,0.4-0.9,0.7c-0.2,0.3-0.3,0.6-0.3,1.1
			c0,0.6,0.2,1.1,0.7,1.4C47.3,43.7,47.8,43.9,48.5,43.9z"/>
		<path d="M68.7,30.3v3.4h-9.9v-3.4H68.7z M61.1,26.4h4.5v15.3c0,0.4,0.1,0.7,0.2,1c0.1,0.2,0.3,0.4,0.5,0.5
			c0.2,0.1,0.5,0.1,0.8,0.1c0.2,0,0.4,0,0.6-0.1s0.4-0.1,0.5-0.1l0.7,3.4c-0.2,0.1-0.5,0.2-1,0.3c-0.4,0.1-0.9,0.2-1.5,0.2
			c-1.1,0-2.1-0.1-2.9-0.4c-0.8-0.3-1.5-0.9-1.9-1.6s-0.7-1.6-0.7-2.7V26.4z"/>
		<path d="M79.1,47c-1.7,0-3.1-0.3-4.3-1c-1.2-0.7-2.1-1.7-2.8-2.9c-0.7-1.3-1-2.8-1-4.5c0-1.7,0.3-3.2,1-4.4c0.7-1.3,1.6-2.3,2.8-3
			c1.2-0.7,2.6-1.1,4.2-1.1c1.1,0,2.1,0.2,3,0.5c0.9,0.3,1.8,0.9,2.5,1.6c0.7,0.7,1.2,1.6,1.6,2.6c0.4,1,0.6,2.3,0.6,3.6v1.2H72.8
			v-2.8h9.5c0-0.7-0.1-1.2-0.4-1.7c-0.3-0.5-0.7-0.9-1.2-1.2c-0.5-0.3-1.1-0.4-1.7-0.4c-0.7,0-1.3,0.2-1.8,0.5
			c-0.5,0.3-0.9,0.7-1.2,1.3c-0.3,0.5-0.5,1.1-0.5,1.8v2.7c0,0.8,0.2,1.5,0.5,2.1s0.7,1,1.3,1.4c0.6,0.3,1.2,0.5,2,0.5
			c0.5,0,1-0.1,1.4-0.2c0.4-0.1,0.8-0.4,1.1-0.6c0.3-0.3,0.5-0.6,0.7-1l4.2,0.3c-0.2,1-0.6,1.9-1.3,2.6c-0.7,0.7-1.5,1.3-2.5,1.7
			C81.6,46.8,80.4,47,79.1,47z"/>
		<path d="M103.2,35L99,35.3c-0.1-0.4-0.2-0.7-0.5-1s-0.5-0.5-0.9-0.7c-0.4-0.2-0.8-0.3-1.4-0.3c-0.7,0-1.3,0.1-1.8,0.4
			c-0.5,0.3-0.7,0.7-0.7,1.2c0,0.4,0.2,0.7,0.5,1c0.3,0.3,0.8,0.5,1.6,0.6l3,0.6c1.6,0.3,2.8,0.9,3.6,1.6c0.8,0.7,1.2,1.7,1.2,2.9
			c0,1.1-0.3,2-0.9,2.8c-0.6,0.8-1.5,1.4-2.6,1.9c-1.1,0.5-2.3,0.7-3.8,0.7c-2.2,0-3.9-0.5-5.2-1.4c-1.3-0.9-2-2.1-2.3-3.7l4.5-0.2
			c0.1,0.7,0.5,1.2,1,1.5c0.5,0.3,1.2,0.5,2,0.5c0.8,0,1.4-0.2,1.9-0.5c0.5-0.3,0.7-0.7,0.7-1.2c0-0.4-0.2-0.8-0.5-1
			c-0.3-0.3-0.9-0.5-1.6-0.6L94,39.9c-1.6-0.3-2.8-0.9-3.6-1.7c-0.8-0.8-1.2-1.8-1.2-3c0-1.1,0.3-2,0.9-2.7c0.6-0.8,1.4-1.3,2.4-1.8
			c1-0.4,2.3-0.6,3.7-0.6c2.1,0,3.7,0.4,4.9,1.3C102.3,32.3,103,33.5,103.2,35z"/>
		<path d="M115.1,30.3v3.4h-9.9v-3.4H115.1z M107.5,26.4h4.5v15.3c0,0.4,0.1,0.7,0.2,1c0.1,0.2,0.3,0.4,0.5,0.5
			c0.2,0.1,0.5,0.1,0.8,0.1c0.2,0,0.4,0,0.6-0.1s0.4-0.1,0.5-0.1l0.7,3.4c-0.2,0.1-0.5,0.2-1,0.3c-0.4,0.1-0.9,0.2-1.5,0.2
			c-1.1,0-2.1-0.1-2.9-0.4c-0.8-0.3-1.5-0.9-1.9-1.6s-0.7-1.6-0.7-2.7V26.4z"/>
		<path d="M138.6,24.9h4.6V39c0,1.6-0.4,3-1.1,4.2c-0.8,1.2-1.8,2.1-3.2,2.8c-1.4,0.7-2.9,1-4.7,1c-1.8,0-3.4-0.3-4.8-1
			s-2.4-1.6-3.2-2.8c-0.8-1.2-1.1-2.6-1.1-4.2V24.9h4.6v13.8c0,0.8,0.2,1.6,0.5,2.2c0.4,0.6,0.9,1.2,1.5,1.5
			c0.7,0.4,1.4,0.6,2.3,0.6c0.9,0,1.7-0.2,2.3-0.6c0.7-0.4,1.2-0.9,1.5-1.5c0.4-0.6,0.5-1.4,0.5-2.2V24.9z"/>
		<path d="M146.9,52.8V30.3h4.5v2.7h0.2c0.2-0.4,0.5-0.9,0.9-1.3c0.4-0.5,0.9-0.8,1.5-1.2s1.4-0.5,2.3-0.5c1.2,0,2.3,0.3,3.3,0.9
			c1,0.6,1.8,1.6,2.4,2.8s0.9,2.8,0.9,4.7c0,1.8-0.3,3.4-0.9,4.6c-0.6,1.3-1.4,2.2-2.4,2.8c-1,0.6-2.1,1-3.4,1
			c-0.9,0-1.6-0.1-2.2-0.4s-1.1-0.7-1.5-1.1s-0.7-0.9-0.9-1.3h-0.1v8.8H146.9z M151.3,38.5c0,1,0.1,1.8,0.4,2.5
			c0.3,0.7,0.7,1.3,1.2,1.7c0.5,0.4,1.1,0.6,1.9,0.6c0.7,0,1.4-0.2,1.9-0.6c0.5-0.4,0.9-1,1.2-1.7c0.3-0.7,0.4-1.6,0.4-2.5
			c0-0.9-0.1-1.8-0.4-2.5c-0.3-0.7-0.6-1.3-1.2-1.7s-1.1-0.6-1.9-0.6c-0.7,0-1.4,0.2-1.9,0.6c-0.5,0.4-0.9,0.9-1.2,1.7
			C151.5,36.7,151.3,37.5,151.3,38.5z"/>
		<path d="M171.9,47c-1.2,0-2.4-0.3-3.4-1c-1-0.6-1.8-1.6-2.4-2.8c-0.6-1.3-0.9-2.8-0.9-4.6c0-1.9,0.3-3.4,0.9-4.7s1.4-2.2,2.4-2.8
			c1-0.6,2.1-0.9,3.3-0.9c0.9,0,1.7,0.2,2.3,0.5s1.1,0.7,1.5,1.2c0.4,0.5,0.7,0.9,0.9,1.3h0.1v-8.2h4.5v21.8h-4.5v-2.6h-0.2
			c-0.2,0.5-0.5,0.9-0.9,1.3c-0.4,0.4-0.9,0.8-1.5,1.1S172.8,47,171.9,47z M173.3,43.3c0.7,0,1.4-0.2,1.9-0.6c0.5-0.4,0.9-1,1.2-1.7
			c0.3-0.7,0.4-1.6,0.4-2.5s-0.1-1.8-0.4-2.5c-0.3-0.7-0.7-1.3-1.2-1.7c-0.5-0.4-1.1-0.6-1.9-0.6c-0.7,0-1.4,0.2-1.9,0.6
			c-0.5,0.4-0.9,1-1.2,1.7c-0.3,0.7-0.4,1.5-0.4,2.5c0,1,0.1,1.8,0.4,2.5s0.7,1.3,1.2,1.7C172,43.1,172.6,43.3,173.3,43.3z"/>
		<path d="M189.6,47c-1,0-2-0.2-2.8-0.5c-0.8-0.4-1.5-0.9-1.9-1.6c-0.5-0.7-0.7-1.6-0.7-2.7c0-0.9,0.2-1.7,0.5-2.3
			c0.3-0.6,0.8-1.1,1.4-1.5c0.6-0.4,1.2-0.7,2-0.9s1.5-0.3,2.3-0.4c1-0.1,1.7-0.2,2.3-0.3s1-0.2,1.3-0.4c0.3-0.2,0.4-0.4,0.4-0.8
			v-0.1c0-0.7-0.2-1.2-0.6-1.6s-1-0.6-1.8-0.6c-0.8,0-1.5,0.2-2,0.5c-0.5,0.4-0.8,0.8-1,1.3l-4.2-0.3c0.2-1,0.6-1.9,1.3-2.6
			s1.4-1.3,2.4-1.7c1-0.4,2.1-0.6,3.4-0.6c0.9,0,1.8,0.1,2.6,0.3c0.8,0.2,1.6,0.5,2.2,1c0.6,0.4,1.2,1,1.5,1.7
			c0.4,0.7,0.6,1.5,0.6,2.5v11h-4.3v-2.3h-0.1c-0.3,0.5-0.6,1-1.1,1.3s-1,0.7-1.6,0.9C191.1,46.9,190.4,47,189.6,47z M190.9,43.9
			c0.7,0,1.3-0.1,1.8-0.4c0.5-0.3,0.9-0.6,1.2-1.1c0.3-0.5,0.4-1,0.4-1.5v-1.7c-0.1,0.1-0.3,0.2-0.6,0.3s-0.5,0.1-0.8,0.2
			c-0.3,0.1-0.6,0.1-0.9,0.2c-0.3,0-0.6,0.1-0.8,0.1c-0.5,0.1-1,0.2-1.4,0.4c-0.4,0.2-0.7,0.4-0.9,0.7c-0.2,0.3-0.3,0.6-0.3,1.1
			c0,0.6,0.2,1.1,0.7,1.4C189.6,43.7,190.2,43.9,190.9,43.9z"/>
		<path d="M211,30.3v3.4h-9.9v-3.4H211z M203.4,26.4h4.5v15.3c0,0.4,0.1,0.7,0.2,1c0.1,0.2,0.3,0.4,0.5,0.5c0.2,0.1,0.5,0.1,0.8,0.1
			c0.2,0,0.4,0,0.6-0.1s0.4-0.1,0.5-0.1l0.7,3.4c-0.2,0.1-0.5,0.2-1,0.3c-0.4,0.1-0.9,0.2-1.5,0.2c-1.1,0-2.1-0.1-2.9-0.4
			c-0.8-0.3-1.5-0.9-1.9-1.6c-0.5-0.7-0.7-1.6-0.7-2.7V26.4z"/>
		<path d="M221.5,47c-1.7,0-3.1-0.3-4.3-1c-1.2-0.7-2.1-1.7-2.8-2.9s-1-2.8-1-4.5c0-1.7,0.3-3.2,1-4.4s1.6-2.3,2.8-3
			c1.2-0.7,2.6-1.1,4.2-1.1c1.1,0,2.1,0.2,3,0.5c0.9,0.3,1.8,0.9,2.5,1.6c0.7,0.7,1.2,1.6,1.6,2.6c0.4,1,0.6,2.3,0.6,3.6v1.2h-13.8
			v-2.8h9.5c0-0.7-0.1-1.2-0.4-1.7c-0.3-0.5-0.7-0.9-1.2-1.2c-0.5-0.3-1.1-0.4-1.7-0.4c-0.7,0-1.3,0.2-1.8,0.5s-0.9,0.7-1.2,1.3
			c-0.3,0.5-0.5,1.1-0.5,1.8v2.7c0,0.8,0.2,1.5,0.5,2.1s0.7,1,1.3,1.4c0.6,0.3,1.2,0.5,2,0.5c0.5,0,1-0.1,1.4-0.2
			c0.4-0.1,0.8-0.4,1.1-0.6c0.3-0.3,0.5-0.6,0.7-1l4.2,0.3c-0.2,1-0.6,1.9-1.3,2.6c-0.7,0.7-1.5,1.3-2.5,1.7S222.8,47,221.5,47z"/>
	</g>
</g>
<g>
	<g>
		<g>
			<path class="st2" d="M1053.1,121.4H927c-4.3,0-7.7-3.5-7.7-7.8V69.1c0-4.3,3.5-7.8,7.7-7.8h126.1c4.3,0,7.7,3.5,7.7,7.8v44.5
				C1060.9,117.9,1057.4,121.4,1053.1,121.4z"/>
			<line class="st3" x1="928.8" y1="91.7" x2="1051.3" y2="91.7"/>
		</g>
		<g>
			<g>
				<g>
					<path class="st4" d="M947.8,113.2v-1.8l4.3-3.9c0.4-0.4,0.7-0.7,0.9-0.9s0.4-0.6,0.6-0.8c0.1-0.3,0.2-0.6,0.2-0.9
						c0-0.4-0.1-0.7-0.2-0.9s-0.4-0.5-0.7-0.6c-0.3-0.1-0.6-0.2-0.9-0.2c-0.4,0-0.7,0.1-1,0.2s-0.5,0.4-0.6,0.6
						c-0.1,0.3-0.2,0.6-0.2,1h-2.4c0-0.8,0.2-1.5,0.5-2c0.4-0.6,0.9-1,1.5-1.3c0.6-0.3,1.4-0.5,2.2-0.5c0.9,0,1.6,0.2,2.2,0.5
						c0.6,0.3,1.1,0.7,1.5,1.3s0.5,1.1,0.5,1.8c0,0.5-0.1,0.9-0.3,1.3c-0.2,0.4-0.5,0.9-0.9,1.5c-0.5,0.5-1.1,1.2-1.9,1.9l-1.7,1.7
						v0.1h5v2.1H947.8z"/>
					<path class="st4" d="M962.4,101.1c0.6,0,1.2,0.1,1.8,0.3c0.6,0.2,1.1,0.5,1.5,1c0.4,0.5,0.8,1,1.1,1.8c0.3,0.7,0.4,1.7,0.4,2.7
						c0,1-0.1,1.9-0.3,2.7c-0.2,0.8-0.6,1.5-1,2s-0.9,1-1.5,1.3s-1.3,0.4-2,0.4c-0.8,0-1.5-0.2-2.1-0.5c-0.6-0.3-1.1-0.7-1.5-1.3
						c-0.4-0.5-0.6-1.1-0.7-1.8h2.5c0.1,0.4,0.3,0.8,0.6,1s0.7,0.4,1.2,0.4c0.8,0,1.4-0.3,1.8-1c0.4-0.7,0.6-1.6,0.6-2.8h-0.1
						c-0.2,0.4-0.4,0.7-0.7,0.9c-0.3,0.3-0.7,0.4-1,0.6c-0.4,0.1-0.8,0.2-1.2,0.2c-0.7,0-1.3-0.2-1.9-0.5c-0.6-0.3-1-0.8-1.3-1.4
						s-0.5-1.2-0.5-2c0-0.8,0.2-1.5,0.6-2.1c0.4-0.6,0.9-1.1,1.6-1.5C960.8,101.2,961.5,101.1,962.4,101.1z M962.5,103
						c-0.4,0-0.7,0.1-1,0.3s-0.5,0.4-0.7,0.8c-0.2,0.3-0.3,0.7-0.3,1.1c0,0.4,0.1,0.7,0.3,1.1c0.2,0.3,0.4,0.6,0.7,0.7
						s0.6,0.3,1,0.3c0.3,0,0.6-0.1,0.8-0.2s0.5-0.3,0.7-0.5c0.2-0.2,0.3-0.4,0.4-0.7c0.1-0.3,0.2-0.5,0.2-0.8c0-0.4-0.1-0.7-0.3-1
						c-0.2-0.3-0.4-0.6-0.7-0.8S962.8,103,962.5,103z"/>
					<path class="st4" d="M970.4,113.3c-0.4,0-0.7-0.1-1-0.4s-0.4-0.6-0.4-1c0-0.4,0.1-0.7,0.4-1s0.6-0.4,1-0.4c0.4,0,0.7,0.1,1,0.4
						s0.4,0.6,0.4,1c0,0.3-0.1,0.5-0.2,0.7c-0.1,0.2-0.3,0.4-0.5,0.5S970.7,113.3,970.4,113.3z"/>
					<path class="st4" d="M978.2,101.1c0.6,0,1.2,0.1,1.8,0.3c0.6,0.2,1.1,0.5,1.5,1c0.4,0.5,0.8,1,1.1,1.8c0.3,0.7,0.4,1.7,0.4,2.7
						c0,1-0.1,1.9-0.3,2.7c-0.2,0.8-0.6,1.5-1,2s-0.9,1-1.5,1.3s-1.3,0.4-2,0.4c-0.8,0-1.5-0.2-2.1-0.5c-0.6-0.3-1.1-0.7-1.5-1.3
						c-0.4-0.5-0.6-1.1-0.7-1.8h2.5c0.1,0.4,0.3,0.8,0.6,1s0.7,0.4,1.2,0.4c0.8,0,1.4-0.3,1.8-1c0.4-0.7,0.6-1.6,0.6-2.8h-0.1
						c-0.2,0.4-0.4,0.7-0.7,0.9c-0.3,0.3-0.7,0.4-1,0.6c-0.4,0.1-0.8,0.2-1.2,0.2c-0.7,0-1.3-0.2-1.9-0.5c-0.6-0.3-1-0.8-1.3-1.4
						s-0.5-1.2-0.5-2c0-0.8,0.2-1.5,0.6-2.1c0.4-0.6,0.9-1.1,1.6-1.5C976.5,101.2,977.3,101.1,978.2,101.1z M978.2,103
						c-0.4,0-0.7,0.1-1,0.3s-0.5,0.4-0.7,0.8c-0.2,0.3-0.3,0.7-0.3,1.1c0,0.4,0.1,0.7,0.3,1.1c0.2,0.3,0.4,0.6,0.7,0.7
						s0.6,0.3,1,0.3c0.3,0,0.6-0.1,0.8-0.2s0.5-0.3,0.7-0.5c0.2-0.2,0.3-0.4,0.4-0.7c0.1-0.3,0.2-0.5,0.2-0.8c0-0.4-0.1-0.7-0.3-1
						c-0.2-0.3-0.4-0.6-0.7-0.8S978.6,103,978.2,103z"/>
					<path class="st4" d="M989.9,101.2v12h-2.5v-9.6h-0.1l-2.7,1.7v-2.2l3-1.9H989.9z"/>
					<path class="st4" d="M1000.5,113.2v-10.5h1.2v10.5H1000.5z M1001.6,110.3l0-1.5h0.2l3.4-3.5h1.5l-3.7,3.7h-0.1L1001.6,110.3z
						 M1005.5,113.2l-3.1-3.9l0.9-0.8l3.7,4.7H1005.5z"/>
					<path class="st4" d="M1008.3,113.2v-7.8h1.2v1.2h0.1c0.2-0.4,0.4-0.7,0.8-1c0.4-0.2,0.8-0.3,1.3-0.3c0.5,0,0.9,0.1,1.3,0.3
						c0.3,0.2,0.6,0.6,0.8,1h0.1c0.2-0.4,0.5-0.7,0.9-1c0.4-0.2,0.9-0.4,1.4-0.4c0.7,0,1.3,0.2,1.7,0.7s0.7,1.1,0.7,2v5.3h-1.2v-5.3
						c0-0.6-0.2-1-0.5-1.2c-0.3-0.2-0.7-0.4-1.1-0.4c-0.6,0-1,0.2-1.3,0.5c-0.3,0.3-0.5,0.8-0.5,1.3v5.1h-1.2v-5.4
						c0-0.4-0.1-0.8-0.4-1.1c-0.3-0.3-0.7-0.4-1.1-0.4c-0.3,0-0.6,0.1-0.9,0.2c-0.3,0.2-0.5,0.4-0.7,0.7s-0.2,0.6-0.2,1v4.9H1008.3z
						"/>
					<path class="st4" d="M1024.5,102.2l-3.4,12.5h-1.1l3.4-12.5H1024.5z"/>
					<path class="st4" d="M1027.2,108.5v4.7h-1.2v-10.5h1.2v3.8h0.1c0.2-0.4,0.5-0.7,0.8-1c0.4-0.2,0.9-0.4,1.5-0.4
						c0.5,0,1,0.1,1.4,0.3c0.4,0.2,0.7,0.5,0.9,1c0.2,0.4,0.3,1,0.3,1.7v5h-1.2v-4.9c0-0.6-0.2-1.1-0.5-1.4
						c-0.3-0.3-0.8-0.5-1.3-0.5c-0.4,0-0.7,0.1-1.1,0.2c-0.3,0.2-0.6,0.4-0.7,0.7C1027.3,107.6,1027.2,108,1027.2,108.5z"/>
				</g>
			</g>
		</g>
		<g>
			<g>
				<path class="st5" d="M943.5,81.1L940,68.4h2l2.5,9.8h0.1l2.6-9.8h2l2.6,9.8h0.1l2.5-9.8h2l-3.5,12.7h-1.9l-2.7-9.5h-0.1
					l-2.7,9.5H943.5z"/>
				<path class="st5" d="M958.9,70.1c-0.3,0-0.6-0.1-0.8-0.3c-0.2-0.2-0.3-0.5-0.3-0.8c0-0.3,0.1-0.6,0.3-0.8
					c0.2-0.2,0.5-0.3,0.8-0.3s0.6,0.1,0.8,0.3c0.2,0.2,0.3,0.5,0.3,0.8c0,0.3-0.1,0.6-0.3,0.8C959.5,70,959.2,70.1,958.9,70.1z
					 M958,81.1v-9.5h1.9v9.5H958z"/>
				<path class="st5" d="M964.2,75.4v5.7h-1.9v-9.5h1.8v1.6h0.1c0.2-0.5,0.6-0.9,1-1.2c0.5-0.3,1.1-0.5,1.8-0.5
					c0.6,0,1.2,0.1,1.7,0.4c0.5,0.3,0.9,0.7,1.1,1.2c0.3,0.5,0.4,1.2,0.4,2v6.1h-1.9v-5.8c0-0.7-0.2-1.2-0.5-1.6
					c-0.4-0.4-0.9-0.6-1.5-0.6c-0.4,0-0.8,0.1-1.1,0.3s-0.6,0.5-0.8,0.8C964.3,74.5,964.2,74.9,964.2,75.4z"/>
				<path class="st5" d="M976.3,81.3c-0.8,0-1.5-0.2-2.1-0.6s-1.1-1-1.4-1.7s-0.5-1.6-0.5-2.6s0.2-1.9,0.5-2.6
					c0.3-0.7,0.8-1.3,1.4-1.7s1.3-0.6,2.1-0.6c0.6,0,1.1,0.1,1.4,0.3c0.4,0.2,0.6,0.4,0.8,0.7c0.2,0.3,0.4,0.5,0.5,0.7h0.1v-4.7h1.9
					v12.7h-1.8v-1.5h-0.2c-0.1,0.2-0.3,0.4-0.5,0.7c-0.2,0.3-0.5,0.5-0.9,0.7S976.9,81.3,976.3,81.3z M976.7,79.7
					c0.5,0,1-0.1,1.4-0.4s0.7-0.7,0.8-1.2c0.2-0.5,0.3-1.1,0.3-1.8c0-0.7-0.1-1.2-0.3-1.7s-0.5-0.9-0.8-1.2
					c-0.4-0.3-0.8-0.4-1.4-0.4c-0.6,0-1,0.1-1.4,0.4c-0.4,0.3-0.7,0.7-0.8,1.2c-0.2,0.5-0.3,1.1-0.3,1.7c0,0.6,0.1,1.2,0.3,1.7
					c0.2,0.5,0.5,0.9,0.8,1.2C975.7,79.5,976.2,79.7,976.7,79.7z"/>
				<path class="st5" d="M995.4,71.7c-0.1-0.6-0.3-1-0.8-1.4c-0.5-0.3-1.1-0.5-1.8-0.5c-0.5,0-1,0.1-1.4,0.2
					c-0.4,0.2-0.7,0.4-0.9,0.7s-0.3,0.6-0.3,1c0,0.3,0.1,0.6,0.2,0.8c0.1,0.2,0.3,0.4,0.6,0.5c0.2,0.1,0.5,0.3,0.8,0.4
					s0.5,0.2,0.8,0.2l1.2,0.3c0.4,0.1,0.8,0.2,1.2,0.4c0.4,0.2,0.8,0.4,1.2,0.7c0.4,0.3,0.7,0.6,0.9,1c0.2,0.4,0.3,0.9,0.3,1.5
					c0,0.7-0.2,1.4-0.6,1.9c-0.4,0.6-0.9,1-1.6,1.3s-1.5,0.5-2.5,0.5c-1,0-1.8-0.2-2.5-0.5c-0.7-0.3-1.2-0.7-1.6-1.3
					c-0.4-0.6-0.6-1.2-0.7-2h1.9c0,0.5,0.2,0.8,0.4,1.1c0.3,0.3,0.6,0.5,1,0.7c0.4,0.1,0.9,0.2,1.4,0.2c0.5,0,1-0.1,1.4-0.3
					c0.4-0.2,0.8-0.4,1-0.7c0.2-0.3,0.4-0.7,0.4-1.1c0-0.4-0.1-0.7-0.3-0.9s-0.5-0.4-0.9-0.6c-0.4-0.2-0.8-0.3-1.2-0.4l-1.5-0.4
					c-1-0.3-1.8-0.7-2.4-1.2c-0.6-0.5-0.9-1.2-0.9-2.1c0-0.7,0.2-1.4,0.6-1.9c0.4-0.5,0.9-1,1.6-1.3c0.7-0.3,1.4-0.5,2.3-0.5
					c0.9,0,1.6,0.2,2.3,0.5c0.7,0.3,1.2,0.7,1.6,1.2s0.6,1.1,0.6,1.8H995.4z"/>
				<path class="st5" d="M999.5,84.7V71.6h1.8v1.5h0.2c0.1-0.2,0.3-0.4,0.5-0.7c0.2-0.3,0.5-0.5,0.8-0.7c0.4-0.2,0.8-0.3,1.4-0.3
					c0.8,0,1.5,0.2,2.1,0.6s1.1,0.9,1.4,1.7c0.3,0.7,0.5,1.6,0.5,2.6s-0.2,1.9-0.5,2.6c-0.3,0.7-0.8,1.3-1.4,1.7s-1.3,0.6-2.1,0.6
					c-0.6,0-1.1-0.1-1.4-0.3s-0.7-0.4-0.9-0.7c-0.2-0.3-0.4-0.5-0.5-0.7h-0.1v5.1H999.5z M1001.4,76.3c0,0.7,0.1,1.3,0.3,1.8
					c0.2,0.5,0.5,0.9,0.8,1.2s0.8,0.4,1.4,0.4c0.6,0,1-0.1,1.4-0.4c0.4-0.3,0.7-0.7,0.8-1.2c0.2-0.5,0.3-1.1,0.3-1.7
					c0-0.6-0.1-1.2-0.3-1.7s-0.5-0.9-0.8-1.2c-0.4-0.3-0.8-0.4-1.4-0.4c-0.5,0-1,0.1-1.4,0.4c-0.4,0.3-0.7,0.7-0.8,1.2
					S1001.4,75.7,1001.4,76.3z"/>
				<path class="st5" d="M1014.4,81.3c-0.9,0-1.7-0.2-2.4-0.6c-0.7-0.4-1.2-1-1.6-1.7c-0.4-0.7-0.5-1.6-0.5-2.6c0-1,0.2-1.8,0.5-2.6
					c0.4-0.7,0.9-1.3,1.5-1.7c0.7-0.4,1.4-0.6,2.3-0.6c0.5,0,1.1,0.1,1.6,0.3c0.5,0.2,1,0.5,1.4,0.8c0.4,0.4,0.7,0.9,0.9,1.5
					c0.2,0.6,0.3,1.3,0.3,2.2v0.7h-7.6v-1.4h5.8c0-0.5-0.1-0.9-0.3-1.3c-0.2-0.4-0.5-0.7-0.8-0.9c-0.4-0.2-0.8-0.3-1.3-0.3
					c-0.5,0-1,0.1-1.4,0.4c-0.4,0.3-0.7,0.6-0.9,1s-0.3,0.8-0.3,1.3v1.1c0,0.6,0.1,1.2,0.3,1.6c0.2,0.4,0.5,0.8,0.9,1
					c0.4,0.2,0.9,0.4,1.4,0.4c0.4,0,0.7-0.1,1-0.2c0.3-0.1,0.5-0.3,0.8-0.5s0.4-0.5,0.5-0.8l1.8,0.3c-0.1,0.5-0.4,1-0.8,1.4
					c-0.4,0.4-0.8,0.7-1.4,0.9C1015.7,81.2,1015.1,81.3,1014.4,81.3z"/>
				<path class="st5" d="M1024.7,81.3c-0.9,0-1.7-0.2-2.4-0.6c-0.7-0.4-1.2-1-1.6-1.7c-0.4-0.7-0.5-1.6-0.5-2.6c0-1,0.2-1.8,0.5-2.6
					c0.4-0.7,0.9-1.3,1.5-1.7c0.7-0.4,1.4-0.6,2.3-0.6c0.5,0,1.1,0.1,1.6,0.3c0.5,0.2,1,0.5,1.4,0.8c0.4,0.4,0.7,0.9,0.9,1.5
					c0.2,0.6,0.3,1.3,0.3,2.2v0.7h-7.6v-1.4h5.8c0-0.5-0.1-0.9-0.3-1.3c-0.2-0.4-0.5-0.7-0.8-0.9c-0.4-0.2-0.8-0.3-1.3-0.3
					c-0.5,0-1,0.1-1.4,0.4c-0.4,0.3-0.7,0.6-0.9,1s-0.3,0.8-0.3,1.3v1.1c0,0.6,0.1,1.2,0.3,1.6c0.2,0.4,0.5,0.8,0.9,1
					c0.4,0.2,0.9,0.4,1.4,0.4c0.4,0,0.7-0.1,1-0.2c0.3-0.1,0.5-0.3,0.8-0.5s0.4-0.5,0.5-0.8l1.8,0.3c-0.1,0.5-0.4,1-0.8,1.4
					c-0.4,0.4-0.8,0.7-1.4,0.9C1026,81.2,1025.4,81.3,1024.7,81.3z"/>
				<path class="st5" d="M1034.4,81.3c-0.8,0-1.5-0.2-2.1-0.6s-1.1-1-1.4-1.7s-0.5-1.6-0.5-2.6s0.2-1.9,0.5-2.6
					c0.3-0.7,0.8-1.3,1.4-1.7s1.3-0.6,2.1-0.6c0.6,0,1.1,0.1,1.4,0.3c0.4,0.2,0.6,0.4,0.8,0.7c0.2,0.3,0.4,0.5,0.5,0.7h0.1v-4.7h1.9
					v12.7h-1.8v-1.5h-0.2c-0.1,0.2-0.3,0.4-0.5,0.7c-0.2,0.3-0.5,0.5-0.9,0.7S1035,81.3,1034.4,81.3z M1034.8,79.7
					c0.5,0,1-0.1,1.4-0.4s0.7-0.7,0.8-1.2c0.2-0.5,0.3-1.1,0.3-1.8c0-0.7-0.1-1.2-0.3-1.7s-0.5-0.9-0.8-1.2
					c-0.4-0.3-0.8-0.4-1.4-0.4c-0.6,0-1,0.1-1.4,0.4c-0.4,0.3-0.7,0.7-0.8,1.2c-0.2,0.5-0.3,1.1-0.3,1.7c0,0.6,0.1,1.2,0.3,1.7
					c0.2,0.5,0.5,0.9,0.8,1.2C1033.8,79.5,1034.3,79.7,1034.8,79.7z"/>
			</g>
		</g>
	</g>
	<g>
		<g>
			<path class="st2" d="M1202.4,121.4h-126.1c-4.3,0-7.7-3.5-7.7-7.8V69.1c0-4.3,3.5-7.8,7.7-7.8h126.1c4.3,0,7.7,3.5,7.7,7.8v44.5
				C1210.1,117.9,1206.7,121.4,1202.4,121.4z"/>
			<line class="st3" x1="1078.1" y1="91.7" x2="1200.6" y2="91.7"/>
		</g>
		<g>
			<g>
				<g>
					<path class="st4" d="M1097,113.2v-1.8l4.3-3.9c0.4-0.4,0.7-0.7,0.9-0.9s0.4-0.6,0.6-0.8c0.1-0.3,0.2-0.6,0.2-0.9
						c0-0.4-0.1-0.7-0.2-0.9s-0.4-0.5-0.7-0.6c-0.3-0.1-0.6-0.2-0.9-0.2c-0.4,0-0.7,0.1-1,0.2s-0.5,0.4-0.6,0.6
						c-0.1,0.3-0.2,0.6-0.2,1h-2.4c0-0.8,0.2-1.5,0.5-2c0.4-0.6,0.9-1,1.5-1.3c0.6-0.3,1.4-0.5,2.2-0.5c0.9,0,1.6,0.2,2.2,0.5
						c0.6,0.3,1.1,0.7,1.5,1.3s0.5,1.1,0.5,1.8c0,0.5-0.1,0.9-0.3,1.3c-0.2,0.4-0.5,0.9-0.9,1.5c-0.5,0.5-1.1,1.2-1.9,1.9l-1.7,1.7
						v0.1h5v2.1H1097z"/>
					<path class="st4" d="M1111.7,101.1c0.6,0,1.2,0.1,1.8,0.3c0.6,0.2,1.1,0.5,1.5,1c0.4,0.5,0.8,1,1.1,1.8
						c0.3,0.7,0.4,1.7,0.4,2.7c0,1-0.1,1.9-0.3,2.7c-0.2,0.8-0.6,1.5-1,2s-0.9,1-1.5,1.3s-1.3,0.4-2,0.4c-0.8,0-1.5-0.2-2.1-0.5
						c-0.6-0.3-1.1-0.7-1.5-1.3c-0.4-0.5-0.6-1.1-0.7-1.8h2.5c0.1,0.4,0.3,0.8,0.6,1s0.7,0.4,1.2,0.4c0.8,0,1.4-0.3,1.8-1
						c0.4-0.7,0.6-1.6,0.6-2.8h-0.1c-0.2,0.4-0.4,0.7-0.7,0.9c-0.3,0.3-0.7,0.4-1,0.6c-0.4,0.1-0.8,0.2-1.2,0.2
						c-0.7,0-1.3-0.2-1.9-0.5c-0.6-0.3-1-0.8-1.3-1.4s-0.5-1.2-0.5-2c0-0.8,0.2-1.5,0.6-2.1c0.4-0.6,0.9-1.1,1.6-1.5
						C1110,101.2,1110.8,101.1,1111.7,101.1z M1111.7,103c-0.4,0-0.7,0.1-1,0.3s-0.5,0.4-0.7,0.8c-0.2,0.3-0.3,0.7-0.3,1.1
						c0,0.4,0.1,0.7,0.3,1.1c0.2,0.3,0.4,0.6,0.7,0.7s0.6,0.3,1,0.3c0.3,0,0.6-0.1,0.8-0.2s0.5-0.3,0.7-0.5c0.2-0.2,0.3-0.4,0.4-0.7
						c0.1-0.3,0.2-0.5,0.2-0.8c0-0.4-0.1-0.7-0.3-1c-0.2-0.3-0.4-0.6-0.7-0.8S1112.1,103,1111.7,103z"/>
					<path class="st4" d="M1119.7,113.3c-0.4,0-0.7-0.1-1-0.4s-0.4-0.6-0.4-1c0-0.4,0.1-0.7,0.4-1s0.6-0.4,1-0.4
						c0.4,0,0.7,0.1,1,0.4s0.4,0.6,0.4,1c0,0.3-0.1,0.5-0.2,0.7c-0.1,0.2-0.3,0.4-0.5,0.5S1120,113.3,1119.7,113.3z"/>
					<path class="st4" d="M1127.4,101.1c0.6,0,1.2,0.1,1.8,0.3c0.6,0.2,1.1,0.5,1.5,1c0.4,0.5,0.8,1,1.1,1.8
						c0.3,0.7,0.4,1.7,0.4,2.7c0,1-0.1,1.9-0.3,2.7c-0.2,0.8-0.6,1.5-1,2s-0.9,1-1.5,1.3s-1.3,0.4-2,0.4c-0.8,0-1.5-0.2-2.1-0.5
						c-0.6-0.3-1.1-0.7-1.5-1.3c-0.4-0.5-0.6-1.1-0.7-1.8h2.5c0.1,0.4,0.3,0.8,0.6,1s0.7,0.4,1.2,0.4c0.8,0,1.4-0.3,1.8-1
						c0.4-0.7,0.6-1.6,0.6-2.8h-0.1c-0.2,0.4-0.4,0.7-0.7,0.9c-0.3,0.3-0.7,0.4-1,0.6c-0.4,0.1-0.8,0.2-1.2,0.2
						c-0.7,0-1.3-0.2-1.9-0.5c-0.6-0.3-1-0.8-1.3-1.4s-0.5-1.2-0.5-2c0-0.8,0.2-1.5,0.6-2.1c0.4-0.6,0.9-1.1,1.6-1.5
						C1125.8,101.2,1126.5,101.1,1127.4,101.1z M1127.5,103c-0.4,0-0.7,0.1-1,0.3s-0.5,0.4-0.7,0.8c-0.2,0.3-0.3,0.7-0.3,1.1
						c0,0.4,0.1,0.7,0.3,1.1c0.2,0.3,0.4,0.6,0.7,0.7s0.6,0.3,1,0.3c0.3,0,0.6-0.1,0.8-0.2s0.5-0.3,0.7-0.5c0.2-0.2,0.3-0.4,0.4-0.7
						c0.1-0.3,0.2-0.5,0.2-0.8c0-0.4-0.1-0.7-0.3-1c-0.2-0.3-0.4-0.6-0.7-0.8S1127.8,103,1127.5,103z"/>
					<path class="st4" d="M1139.2,101.2v12h-2.5v-9.6h-0.1l-2.7,1.7v-2.2l3-1.9H1139.2z"/>
					<path class="st4" d="M1149.8,113.2v-10.5h1.2v10.5H1149.8z M1150.9,110.3l0-1.5h0.2l3.4-3.5h1.5l-3.7,3.7h-0.1L1150.9,110.3z
						 M1154.8,113.2l-3.1-3.9l0.9-0.8l3.7,4.7H1154.8z"/>
					<path class="st4" d="M1157.6,113.2v-7.8h1.2v1.2h0.1c0.2-0.4,0.4-0.7,0.8-1c0.4-0.2,0.8-0.3,1.3-0.3c0.5,0,0.9,0.1,1.3,0.3
						c0.3,0.2,0.6,0.6,0.8,1h0.1c0.2-0.4,0.5-0.7,0.9-1c0.4-0.2,0.9-0.4,1.4-0.4c0.7,0,1.3,0.2,1.7,0.7s0.7,1.1,0.7,2v5.3h-1.2v-5.3
						c0-0.6-0.2-1-0.5-1.2c-0.3-0.2-0.7-0.4-1.1-0.4c-0.6,0-1,0.2-1.3,0.5c-0.3,0.3-0.5,0.8-0.5,1.3v5.1h-1.2v-5.4
						c0-0.4-0.1-0.8-0.4-1.1c-0.3-0.3-0.7-0.4-1.1-0.4c-0.3,0-0.6,0.1-0.9,0.2c-0.3,0.2-0.5,0.4-0.7,0.7s-0.2,0.6-0.2,1v4.9H1157.6z
						"/>
					<path class="st4" d="M1173.8,102.2l-3.4,12.5h-1.1l3.4-12.5H1173.8z"/>
					<path class="st4" d="M1176.4,108.5v4.7h-1.2v-10.5h1.2v3.8h0.1c0.2-0.4,0.5-0.7,0.8-1c0.4-0.2,0.9-0.4,1.5-0.4
						c0.5,0,1,0.1,1.4,0.3c0.4,0.2,0.7,0.5,0.9,1c0.2,0.4,0.3,1,0.3,1.7v5h-1.2v-4.9c0-0.6-0.2-1.1-0.5-1.4
						c-0.3-0.3-0.8-0.5-1.3-0.5c-0.4,0-0.7,0.1-1.1,0.2c-0.3,0.2-0.6,0.4-0.7,0.7C1176.5,107.6,1176.4,108,1176.4,108.5z"/>
				</g>
			</g>
		</g>
		<g>
			<g>
				<path class="st5" d="M1081.7,81.1l-3.5-12.7h2l2.5,9.8h0.1l2.6-9.8h2l2.6,9.8h0.1l2.5-9.8h2l-3.5,12.7h-1.9l-2.7-9.5h-0.1
					l-2.7,9.5H1081.7z"/>
				<path class="st5" d="M1097.1,70.1c-0.3,0-0.6-0.1-0.8-0.3c-0.2-0.2-0.3-0.5-0.3-0.8c0-0.3,0.1-0.6,0.3-0.8
					c0.2-0.2,0.5-0.3,0.8-0.3s0.6,0.1,0.8,0.3c0.2,0.2,0.3,0.5,0.3,0.8c0,0.3-0.1,0.6-0.3,0.8C1097.7,70,1097.4,70.1,1097.1,70.1z
					 M1096.1,81.1v-9.5h1.9v9.5H1096.1z"/>
				<path class="st5" d="M1102.3,75.4v5.7h-1.9v-9.5h1.8v1.6h0.1c0.2-0.5,0.6-0.9,1-1.2c0.5-0.3,1.1-0.5,1.8-0.5
					c0.6,0,1.2,0.1,1.7,0.4c0.5,0.3,0.9,0.7,1.1,1.2c0.3,0.5,0.4,1.2,0.4,2v6.1h-1.9v-5.8c0-0.7-0.2-1.2-0.5-1.6
					c-0.4-0.4-0.9-0.6-1.5-0.6c-0.4,0-0.8,0.1-1.1,0.3s-0.6,0.5-0.8,0.8C1102.4,74.5,1102.3,74.9,1102.3,75.4z"/>
				<path class="st5" d="M1114.5,81.3c-0.8,0-1.5-0.2-2.1-0.6s-1.1-1-1.4-1.7s-0.5-1.6-0.5-2.6s0.2-1.9,0.5-2.6
					c0.3-0.7,0.8-1.3,1.4-1.7s1.3-0.6,2.1-0.6c0.6,0,1.1,0.1,1.4,0.3c0.4,0.2,0.6,0.4,0.8,0.7c0.2,0.3,0.4,0.5,0.5,0.7h0.1v-4.7h1.9
					v12.7h-1.8v-1.5h-0.2c-0.1,0.2-0.3,0.4-0.5,0.7c-0.2,0.3-0.5,0.5-0.9,0.7S1115.1,81.3,1114.5,81.3z M1114.9,79.7
					c0.5,0,1-0.1,1.4-0.4s0.7-0.7,0.8-1.2c0.2-0.5,0.3-1.1,0.3-1.8c0-0.7-0.1-1.2-0.3-1.7s-0.5-0.9-0.8-1.2
					c-0.4-0.3-0.8-0.4-1.4-0.4c-0.6,0-1,0.1-1.4,0.4c-0.4,0.3-0.7,0.7-0.8,1.2c-0.2,0.5-0.3,1.1-0.3,1.7c0,0.6,0.1,1.2,0.3,1.7
					c0.2,0.5,0.5,0.9,0.8,1.2C1113.9,79.5,1114.3,79.7,1114.9,79.7z"/>
				<path class="st5" d="M1130.7,81.1h-4.1V68.4h4.2c1.2,0,2.3,0.3,3.2,0.8c0.9,0.5,1.6,1.2,2.1,2.2c0.5,0.9,0.7,2.1,0.7,3.4
					c0,1.3-0.2,2.5-0.7,3.4c-0.5,1-1.2,1.7-2.1,2.2C1133.1,80.8,1132,81.1,1130.7,81.1z M1128.5,79.4h2.1c1,0,1.8-0.2,2.4-0.5
					c0.6-0.4,1.1-0.9,1.4-1.6s0.5-1.5,0.5-2.6c0-1-0.2-1.8-0.5-2.5s-0.8-1.2-1.4-1.6c-0.6-0.4-1.4-0.5-2.3-0.5h-2.2V79.4z"/>
				<path class="st5" d="M1140,70.1c-0.3,0-0.6-0.1-0.8-0.3c-0.2-0.2-0.3-0.5-0.3-0.8c0-0.3,0.1-0.6,0.3-0.8
					c0.2-0.2,0.5-0.3,0.8-0.3s0.6,0.1,0.8,0.3c0.2,0.2,0.3,0.5,0.3,0.8c0,0.3-0.1,0.6-0.3,0.8C1140.6,70,1140.3,70.1,1140,70.1z
					 M1139.1,81.1v-9.5h1.9v9.5H1139.1z"/>
				<path class="st5" d="M1143.4,81.1v-9.5h1.8v1.5h0.1c0.2-0.5,0.5-0.9,0.9-1.2c0.4-0.3,0.9-0.4,1.5-0.4c0.1,0,0.3,0,0.4,0
					c0.2,0,0.3,0,0.4,0v1.8c-0.1,0-0.2,0-0.4-0.1c-0.2,0-0.4,0-0.6,0c-0.4,0-0.8,0.1-1.2,0.3c-0.3,0.2-0.6,0.4-0.8,0.8
					c-0.2,0.3-0.3,0.7-0.3,1.1v5.8H1143.4z"/>
				<path class="st5" d="M1154.2,81.3c-0.9,0-1.7-0.2-2.4-0.6c-0.7-0.4-1.2-1-1.6-1.7c-0.4-0.7-0.5-1.6-0.5-2.6c0-1,0.2-1.8,0.5-2.6
					c0.4-0.7,0.9-1.3,1.5-1.7c0.7-0.4,1.4-0.6,2.3-0.6c0.5,0,1.1,0.1,1.6,0.3c0.5,0.2,1,0.5,1.4,0.8c0.4,0.4,0.7,0.9,0.9,1.5
					c0.2,0.6,0.3,1.3,0.3,2.2v0.7h-7.6v-1.4h5.8c0-0.5-0.1-0.9-0.3-1.3c-0.2-0.4-0.5-0.7-0.8-0.9c-0.4-0.2-0.8-0.3-1.3-0.3
					c-0.5,0-1,0.1-1.4,0.4c-0.4,0.3-0.7,0.6-0.9,1s-0.3,0.8-0.3,1.3v1.1c0,0.6,0.1,1.2,0.3,1.6c0.2,0.4,0.5,0.8,0.9,1
					c0.4,0.2,0.9,0.4,1.4,0.4c0.4,0,0.7-0.1,1-0.2c0.3-0.1,0.5-0.3,0.8-0.5s0.4-0.5,0.5-0.8l1.8,0.3c-0.1,0.5-0.4,1-0.8,1.4
					c-0.4,0.4-0.8,0.7-1.4,0.9C1155.6,81.2,1154.9,81.3,1154.2,81.3z"/>
				<path class="st5" d="M1164.4,81.3c-0.9,0-1.7-0.2-2.4-0.6c-0.7-0.4-1.2-1-1.5-1.7c-0.4-0.7-0.5-1.6-0.5-2.5c0-1,0.2-1.8,0.5-2.6
					c0.4-0.7,0.9-1.3,1.5-1.7c0.7-0.4,1.4-0.6,2.3-0.6c0.7,0,1.4,0.1,1.9,0.4s1,0.6,1.4,1.1c0.3,0.5,0.6,1,0.6,1.7h-1.8
					c-0.1-0.4-0.3-0.8-0.7-1.2c-0.4-0.3-0.8-0.5-1.4-0.5c-0.5,0-1,0.1-1.4,0.4s-0.7,0.7-0.9,1.2c-0.2,0.5-0.3,1.1-0.3,1.8
					c0,0.7,0.1,1.3,0.3,1.8s0.5,0.9,0.9,1.2c0.4,0.3,0.8,0.4,1.4,0.4c0.4,0,0.7-0.1,1-0.2c0.3-0.1,0.5-0.3,0.7-0.6
					c0.2-0.2,0.3-0.5,0.4-0.9h1.8c-0.1,0.6-0.3,1.2-0.6,1.6s-0.8,0.9-1.3,1.1C1165.8,81.1,1165.2,81.3,1164.4,81.3z"/>
				<path class="st5" d="M1174.8,71.6V73h-5.2v-1.5H1174.8z M1171,69.3h1.9v9c0,0.4,0.1,0.6,0.2,0.8c0.1,0.2,0.2,0.3,0.4,0.4
					s0.4,0.1,0.6,0.1c0.1,0,0.3,0,0.4,0c0.1,0,0.2,0,0.3,0l0.3,1.5c-0.1,0-0.3,0.1-0.5,0.1c-0.2,0-0.4,0.1-0.7,0.1
					c-0.5,0-0.9-0.1-1.4-0.3c-0.4-0.2-0.8-0.5-1-0.8s-0.4-0.9-0.4-1.4V69.3z"/>
				<path class="st5" d="M1177.7,70.1c-0.3,0-0.6-0.1-0.8-0.3c-0.2-0.2-0.3-0.5-0.3-0.8c0-0.3,0.1-0.6,0.3-0.8
					c0.2-0.2,0.5-0.3,0.8-0.3s0.6,0.1,0.8,0.3c0.2,0.2,0.3,0.5,0.3,0.8c0,0.3-0.1,0.6-0.3,0.8C1178.3,70,1178.1,70.1,1177.7,70.1z
					 M1176.8,81.1v-9.5h1.9v9.5H1176.8z"/>
				<path class="st5" d="M1185.2,81.3c-0.9,0-1.7-0.2-2.3-0.6c-0.7-0.4-1.2-1-1.6-1.7c-0.4-0.7-0.6-1.6-0.6-2.6c0-1,0.2-1.9,0.6-2.6
					s0.9-1.3,1.6-1.7c0.7-0.4,1.4-0.6,2.3-0.6c0.9,0,1.7,0.2,2.3,0.6c0.7,0.4,1.2,1,1.6,1.7s0.6,1.6,0.6,2.6c0,1-0.2,1.8-0.6,2.6
					c-0.4,0.7-0.9,1.3-1.6,1.7C1186.8,81.1,1186.1,81.3,1185.2,81.3z M1185.2,79.7c0.6,0,1.1-0.2,1.4-0.5c0.4-0.3,0.7-0.7,0.8-1.2
					c0.2-0.5,0.3-1.1,0.3-1.7c0-0.6-0.1-1.2-0.3-1.7c-0.2-0.5-0.5-0.9-0.8-1.2c-0.4-0.3-0.9-0.5-1.4-0.5c-0.6,0-1.1,0.2-1.4,0.5
					c-0.4,0.3-0.7,0.7-0.8,1.2c-0.2,0.5-0.3,1.1-0.3,1.7c0,0.6,0.1,1.2,0.3,1.7c0.2,0.5,0.5,0.9,0.8,1.2
					C1184.1,79.6,1184.6,79.7,1185.2,79.7z"/>
				<path class="st5" d="M1193.5,75.4v5.7h-1.9v-9.5h1.8v1.6h0.1c0.2-0.5,0.6-0.9,1-1.2c0.5-0.3,1.1-0.5,1.8-0.5
					c0.6,0,1.2,0.1,1.7,0.4c0.5,0.3,0.9,0.7,1.1,1.2c0.3,0.5,0.4,1.2,0.4,2v6.1h-1.9v-5.8c0-0.7-0.2-1.2-0.5-1.6
					c-0.4-0.4-0.9-0.6-1.5-0.6c-0.4,0-0.8,0.1-1.1,0.3s-0.6,0.5-0.8,0.8C1193.6,74.5,1193.5,74.9,1193.5,75.4z"/>
			</g>
		</g>
	</g>
	<g>
		<g>
			<path class="st2" d="M1351.7,121.4h-126.1c-4.3,0-7.7-3.5-7.7-7.8V69.1c0-4.3,3.5-7.8,7.7-7.8h126.1c4.3,0,7.7,3.5,7.7,7.8v44.5
				C1359.4,117.9,1355.9,121.4,1351.7,121.4z"/>
			<line class="st3" x1="1227.4" y1="91.7" x2="1349.8" y2="91.7"/>
		</g>
		<g>
			<g>
				<g>
					<path class="st4" d="M1268.8,113.2v-1.8l4.3-3.9c0.4-0.4,0.7-0.7,0.9-0.9s0.4-0.6,0.6-0.8c0.1-0.3,0.2-0.6,0.2-0.9
						c0-0.4-0.1-0.7-0.2-0.9s-0.4-0.5-0.7-0.6c-0.3-0.1-0.6-0.2-0.9-0.2c-0.4,0-0.7,0.1-1,0.2s-0.5,0.4-0.6,0.6
						c-0.1,0.3-0.2,0.6-0.2,1h-2.4c0-0.8,0.2-1.5,0.5-2c0.4-0.6,0.9-1,1.5-1.3c0.6-0.3,1.4-0.5,2.2-0.5c0.9,0,1.6,0.2,2.2,0.5
						c0.6,0.3,1.1,0.7,1.5,1.3s0.5,1.1,0.5,1.8c0,0.5-0.1,0.9-0.3,1.3c-0.2,0.4-0.5,0.9-0.9,1.5c-0.5,0.5-1.1,1.2-1.9,1.9l-1.7,1.7
						v0.1h5v2.1H1268.8z"/>
					<path class="st4" d="M1279,111.1v-2l5-7.9h1.7v2.8h-1l-3.1,5v0.1h7.1v2H1279z M1284.8,113.2v-2.7l0-0.9v-8.4h2.4v12H1284.8z"/>
					<path class="st4" d="M1293.2,106.9c-0.5,0-1-0.1-1.4-0.4c-0.4-0.3-0.8-0.6-1-1s-0.4-0.9-0.4-1.4c0-0.5,0.1-1,0.4-1.4
						c0.3-0.4,0.6-0.8,1-1c0.4-0.3,0.9-0.4,1.4-0.4s1,0.1,1.4,0.4c0.4,0.3,0.8,0.6,1,1c0.3,0.4,0.4,0.9,0.4,1.4c0,0.5-0.1,1-0.4,1.4
						c-0.3,0.4-0.6,0.8-1,1C1294.2,106.7,1293.7,106.9,1293.2,106.9z M1293.2,105.2c0.2,0,0.4-0.1,0.6-0.2c0.2-0.1,0.3-0.3,0.4-0.4
						c0.1-0.2,0.2-0.4,0.2-0.6c0-0.2-0.1-0.4-0.2-0.6c-0.1-0.2-0.3-0.3-0.4-0.4c-0.2-0.1-0.4-0.2-0.6-0.2c-0.2,0-0.4,0.1-0.6,0.2
						s-0.3,0.3-0.4,0.4c-0.1,0.2-0.2,0.4-0.2,0.6c0,0.2,0.1,0.4,0.2,0.6c0.1,0.2,0.3,0.3,0.4,0.4S1292.9,105.2,1293.2,105.2z"/>
					<path class="st4" d="M1308.5,105.4h-2.6c0-0.3-0.1-0.6-0.3-0.9c-0.1-0.3-0.3-0.5-0.6-0.7s-0.5-0.3-0.8-0.4s-0.6-0.1-1-0.1
						c-0.6,0-1.2,0.2-1.6,0.5s-0.8,0.7-1.1,1.3c-0.3,0.6-0.4,1.3-0.4,2.1c0,0.9,0.1,1.6,0.4,2.1s0.6,1,1.1,1.3s1,0.4,1.6,0.4
						c0.3,0,0.7,0,0.9-0.1c0.3-0.1,0.5-0.2,0.8-0.4c0.2-0.2,0.4-0.4,0.6-0.6c0.2-0.2,0.3-0.5,0.3-0.9l2.6,0
						c-0.1,0.5-0.2,1.1-0.5,1.6s-0.6,1-1.1,1.4c-0.4,0.4-1,0.7-1.6,0.9c-0.6,0.2-1.3,0.3-2.1,0.3c-1.1,0-2-0.2-2.9-0.7
						c-0.8-0.5-1.5-1.2-2-2.1s-0.7-2-0.7-3.3c0-1.3,0.2-2.4,0.7-3.3s1.2-1.6,2-2.1c0.8-0.5,1.8-0.7,2.8-0.7c0.7,0,1.3,0.1,1.9,0.3
						c0.6,0.2,1.1,0.5,1.6,0.8c0.5,0.4,0.8,0.8,1.1,1.4C1308.3,104.1,1308.4,104.7,1308.5,105.4z"/>
				</g>
			</g>
		</g>
		<g>
			<g>
				<path class="st5" d="M1235.1,70v-1.6h9.8V70h-4v11.1h-1.9V70H1235.1z"/>
				<path class="st5" d="M1251,81.3c-0.9,0-1.7-0.2-2.4-0.6c-0.7-0.4-1.2-1-1.6-1.7c-0.4-0.7-0.5-1.6-0.5-2.6c0-1,0.2-1.8,0.5-2.6
					c0.4-0.7,0.9-1.3,1.5-1.7c0.7-0.4,1.4-0.6,2.3-0.6c0.5,0,1.1,0.1,1.6,0.3c0.5,0.2,1,0.5,1.4,0.8c0.4,0.4,0.7,0.9,0.9,1.5
					c0.2,0.6,0.3,1.3,0.3,2.2v0.7h-7.6v-1.4h5.8c0-0.5-0.1-0.9-0.3-1.3c-0.2-0.4-0.5-0.7-0.8-0.9c-0.4-0.2-0.8-0.3-1.3-0.3
					c-0.5,0-1,0.1-1.4,0.4c-0.4,0.3-0.7,0.6-0.9,1s-0.3,0.8-0.3,1.3v1.1c0,0.6,0.1,1.2,0.3,1.6c0.2,0.4,0.5,0.8,0.9,1
					c0.4,0.2,0.9,0.4,1.4,0.4c0.4,0,0.7-0.1,1-0.2c0.3-0.1,0.5-0.3,0.8-0.5s0.4-0.5,0.5-0.8l1.8,0.3c-0.1,0.5-0.4,1-0.8,1.4
					c-0.4,0.4-0.8,0.7-1.4,0.9C1252.3,81.2,1251.7,81.3,1251,81.3z"/>
				<path class="st5" d="M1257.2,81.1v-9.5h1.8v1.6h0.1c0.2-0.5,0.5-0.9,1-1.2c0.5-0.3,1-0.4,1.6-0.4c0.6,0,1.2,0.1,1.6,0.4
					c0.4,0.3,0.8,0.7,1,1.2h0.1c0.2-0.5,0.6-0.9,1.1-1.2c0.5-0.3,1.1-0.5,1.8-0.5c0.9,0,1.6,0.3,2.1,0.8c0.5,0.5,0.8,1.4,0.8,2.4
					v6.4h-1.9v-6.2c0-0.6-0.2-1.1-0.5-1.4s-0.8-0.4-1.3-0.4c-0.6,0-1.1,0.2-1.4,0.6s-0.5,0.8-0.5,1.4v6.1h-1.8v-6.3
					c0-0.5-0.2-0.9-0.5-1.2c-0.3-0.3-0.7-0.5-1.3-0.5c-0.4,0-0.7,0.1-1,0.3c-0.3,0.2-0.5,0.4-0.7,0.8s-0.3,0.7-0.3,1.1v5.9H1257.2z"
					/>
				<path class="st5" d="M1272.6,84.7V71.6h1.8v1.5h0.2c0.1-0.2,0.3-0.4,0.5-0.7c0.2-0.3,0.5-0.5,0.8-0.7c0.4-0.2,0.8-0.3,1.4-0.3
					c0.8,0,1.5,0.2,2.1,0.6s1.1,0.9,1.4,1.7c0.3,0.7,0.5,1.6,0.5,2.6s-0.2,1.9-0.5,2.6c-0.3,0.7-0.8,1.3-1.4,1.7s-1.3,0.6-2.1,0.6
					c-0.6,0-1.1-0.1-1.4-0.3s-0.7-0.4-0.9-0.7c-0.2-0.3-0.4-0.5-0.5-0.7h-0.1v5.1H1272.6z M1274.4,76.3c0,0.7,0.1,1.3,0.3,1.8
					c0.2,0.5,0.5,0.9,0.8,1.2s0.8,0.4,1.4,0.4c0.6,0,1-0.1,1.4-0.4c0.4-0.3,0.7-0.7,0.8-1.2c0.2-0.5,0.3-1.1,0.3-1.7
					c0-0.6-0.1-1.2-0.3-1.7s-0.5-0.9-0.8-1.2c-0.4-0.3-0.8-0.4-1.4-0.4c-0.5,0-1,0.1-1.4,0.4c-0.4,0.3-0.7,0.7-0.8,1.2
					S1274.4,75.7,1274.4,76.3z"/>
				<path class="st5" d="M1287.5,81.3c-0.9,0-1.7-0.2-2.4-0.6c-0.7-0.4-1.2-1-1.6-1.7c-0.4-0.7-0.5-1.6-0.5-2.6c0-1,0.2-1.8,0.5-2.6
					c0.4-0.7,0.9-1.3,1.5-1.7c0.7-0.4,1.4-0.6,2.3-0.6c0.5,0,1.1,0.1,1.6,0.3c0.5,0.2,1,0.5,1.4,0.8c0.4,0.4,0.7,0.9,0.9,1.5
					c0.2,0.6,0.3,1.3,0.3,2.2v0.7h-7.6v-1.4h5.8c0-0.5-0.1-0.9-0.3-1.3c-0.2-0.4-0.5-0.7-0.8-0.9c-0.4-0.2-0.8-0.3-1.3-0.3
					c-0.5,0-1,0.1-1.4,0.4c-0.4,0.3-0.7,0.6-0.9,1s-0.3,0.8-0.3,1.3v1.1c0,0.6,0.1,1.2,0.3,1.6c0.2,0.4,0.5,0.8,0.9,1
					c0.4,0.2,0.9,0.4,1.4,0.4c0.4,0,0.7-0.1,1-0.2c0.3-0.1,0.5-0.3,0.8-0.5s0.4-0.5,0.5-0.8l1.8,0.3c-0.1,0.5-0.4,1-0.8,1.4
					c-0.4,0.4-0.8,0.7-1.4,0.9C1288.8,81.2,1288.2,81.3,1287.5,81.3z"/>
				<path class="st5" d="M1293.6,81.1v-9.5h1.8v1.5h0.1c0.2-0.5,0.5-0.9,0.9-1.2c0.4-0.3,0.9-0.4,1.5-0.4c0.1,0,0.3,0,0.4,0
					c0.2,0,0.3,0,0.4,0v1.8c-0.1,0-0.2,0-0.4-0.1c-0.2,0-0.4,0-0.6,0c-0.4,0-0.8,0.1-1.2,0.3c-0.3,0.2-0.6,0.4-0.8,0.8
					c-0.2,0.3-0.3,0.7-0.3,1.1v5.8H1293.6z"/>
				<path class="st5" d="M1303.1,81.3c-0.6,0-1.1-0.1-1.6-0.3c-0.5-0.2-0.9-0.6-1.2-1s-0.4-1-0.4-1.6c0-0.5,0.1-1,0.3-1.3
					c0.2-0.3,0.5-0.6,0.8-0.8s0.7-0.4,1.2-0.5c0.4-0.1,0.9-0.2,1.3-0.2c0.6-0.1,1-0.1,1.4-0.2s0.6-0.1,0.8-0.2s0.2-0.3,0.2-0.5v0
					c0-0.5-0.2-1-0.5-1.3c-0.3-0.3-0.8-0.4-1.4-0.4c-0.6,0-1.1,0.1-1.5,0.4c-0.4,0.3-0.6,0.6-0.7,0.9l-1.7-0.4
					c0.2-0.6,0.5-1,0.9-1.4c0.4-0.4,0.9-0.6,1.4-0.8c0.5-0.2,1.1-0.2,1.6-0.2c0.4,0,0.8,0,1.2,0.1c0.4,0.1,0.8,0.3,1.2,0.5
					s0.7,0.6,0.9,1c0.2,0.4,0.4,1,0.4,1.7v6.3h-1.8v-1.3h-0.1c-0.1,0.2-0.3,0.5-0.5,0.7c-0.2,0.2-0.5,0.4-0.9,0.6
					C1304.1,81.2,1303.6,81.3,1303.1,81.3z M1303.5,79.8c0.5,0,1-0.1,1.3-0.3c0.4-0.2,0.6-0.5,0.8-0.8c0.2-0.3,0.3-0.7,0.3-1.1v-1.2
					c-0.1,0.1-0.2,0.1-0.4,0.2c-0.2,0.1-0.4,0.1-0.6,0.1c-0.2,0-0.5,0.1-0.7,0.1c-0.2,0-0.4,0.1-0.6,0.1c-0.4,0-0.7,0.1-1,0.2
					c-0.3,0.1-0.5,0.3-0.7,0.5s-0.3,0.5-0.3,0.8c0,0.5,0.2,0.8,0.5,1C1302.6,79.7,1303,79.8,1303.5,79.8z"/>
				<path class="st5" d="M1314.7,71.6V73h-5.2v-1.5H1314.7z M1310.9,69.3h1.9v9c0,0.4,0.1,0.6,0.2,0.8c0.1,0.2,0.2,0.3,0.4,0.4
					s0.4,0.1,0.6,0.1c0.1,0,0.3,0,0.4,0c0.1,0,0.2,0,0.3,0l0.3,1.5c-0.1,0-0.3,0.1-0.5,0.1c-0.2,0-0.4,0.1-0.7,0.1
					c-0.5,0-0.9-0.1-1.4-0.3c-0.4-0.2-0.8-0.5-1-0.8s-0.4-0.9-0.4-1.4V69.3z"/>
				<path class="st5" d="M1322.8,77.1v-5.6h1.9v9.5h-1.8v-1.6h-0.1c-0.2,0.5-0.6,0.9-1.1,1.3c-0.5,0.3-1.1,0.5-1.8,0.5
					c-0.6,0-1.2-0.1-1.6-0.4s-0.8-0.7-1.1-1.2c-0.3-0.5-0.4-1.2-0.4-2v-6.1h1.9v5.8c0,0.6,0.2,1.2,0.5,1.6c0.4,0.4,0.8,0.6,1.4,0.6
					c0.3,0,0.7-0.1,1-0.3c0.3-0.2,0.6-0.4,0.9-0.8S1322.8,77.7,1322.8,77.1z"/>
				<path class="st5" d="M1327.2,81.1v-9.5h1.8v1.5h0.1c0.2-0.5,0.5-0.9,0.9-1.2c0.4-0.3,0.9-0.4,1.5-0.4c0.1,0,0.3,0,0.4,0
					c0.2,0,0.3,0,0.4,0v1.8c-0.1,0-0.2,0-0.4-0.1c-0.2,0-0.4,0-0.6,0c-0.4,0-0.8,0.1-1.2,0.3c-0.3,0.2-0.6,0.4-0.8,0.8
					c-0.2,0.3-0.3,0.7-0.3,1.1v5.8H1327.2z"/>
				<path class="st5" d="M1338,81.3c-0.9,0-1.7-0.2-2.4-0.6c-0.7-0.4-1.2-1-1.6-1.7c-0.4-0.7-0.5-1.6-0.5-2.6c0-1,0.2-1.8,0.5-2.6
					c0.4-0.7,0.9-1.3,1.5-1.7c0.7-0.4,1.4-0.6,2.3-0.6c0.5,0,1.1,0.1,1.6,0.3c0.5,0.2,1,0.5,1.4,0.8c0.4,0.4,0.7,0.9,0.9,1.5
					c0.2,0.6,0.3,1.3,0.3,2.2v0.7h-7.6v-1.4h5.8c0-0.5-0.1-0.9-0.3-1.3c-0.2-0.4-0.5-0.7-0.8-0.9c-0.4-0.2-0.8-0.3-1.3-0.3
					c-0.5,0-1,0.1-1.4,0.4c-0.4,0.3-0.7,0.6-0.9,1s-0.3,0.8-0.3,1.3v1.1c0,0.6,0.1,1.2,0.3,1.6c0.2,0.4,0.5,0.8,0.9,1
					c0.4,0.2,0.9,0.4,1.4,0.4c0.4,0,0.7-0.1,1-0.2c0.3-0.1,0.5-0.3,0.8-0.5s0.4-0.5,0.5-0.8l1.8,0.3c-0.1,0.5-0.4,1-0.8,1.4
					c-0.4,0.4-0.8,0.7-1.4,0.9C1339.3,81.2,1338.7,81.3,1338,81.3z"/>
			</g>
		</g>
	</g>
	<g>
		<g>
			<g>
				<path class="st2" d="M157.6,121.4H31.5c-4.3,0-7.7-3.5-7.7-7.8V69.1c0-4.3,3.5-7.8,7.7-7.8h126.1c4.3,0,7.7,3.5,7.7,7.8v44.5
					C165.3,117.9,161.9,121.4,157.6,121.4z"/>
				<line class="st3" x1="33.3" y1="91.7" x2="155.8" y2="91.7"/>
			</g>
			<g>
				<g>
					<path class="st4" d="M44.4,113.2v-1.8l4.3-3.9c0.4-0.4,0.7-0.7,0.9-0.9s0.4-0.6,0.6-0.8c0.1-0.3,0.2-0.6,0.2-0.9
						c0-0.4-0.1-0.7-0.2-0.9s-0.4-0.5-0.7-0.6c-0.3-0.1-0.6-0.2-0.9-0.2c-0.4,0-0.7,0.1-1,0.2s-0.5,0.4-0.6,0.6
						c-0.1,0.3-0.2,0.6-0.2,1h-2.4c0-0.8,0.2-1.5,0.5-2c0.4-0.6,0.9-1,1.5-1.3c0.6-0.3,1.4-0.5,2.2-0.5c0.9,0,1.6,0.2,2.2,0.5
						c0.6,0.3,1.1,0.7,1.5,1.3s0.5,1.1,0.5,1.8c0,0.5-0.1,0.9-0.3,1.3c-0.2,0.4-0.5,0.9-0.9,1.5c-0.5,0.5-1.1,1.2-1.9,1.9l-1.7,1.7
						v0.1h5v2.1H44.4z"/>
					<path class="st4" d="M59.1,101.1c0.6,0,1.2,0.1,1.8,0.3c0.6,0.2,1.1,0.5,1.5,1c0.4,0.5,0.8,1,1.1,1.8c0.3,0.7,0.4,1.7,0.4,2.7
						c0,1-0.1,1.9-0.3,2.7c-0.2,0.8-0.6,1.5-1,2s-0.9,1-1.5,1.3s-1.3,0.4-2,0.4c-0.8,0-1.5-0.2-2.1-0.5c-0.6-0.3-1.1-0.7-1.5-1.3
						c-0.4-0.5-0.6-1.1-0.7-1.8h2.5c0.1,0.4,0.3,0.8,0.6,1s0.7,0.4,1.2,0.4c0.8,0,1.4-0.3,1.8-1c0.4-0.7,0.6-1.6,0.6-2.8h-0.1
						c-0.2,0.4-0.4,0.7-0.7,0.9c-0.3,0.3-0.7,0.4-1,0.6c-0.4,0.1-0.8,0.2-1.2,0.2c-0.7,0-1.3-0.2-1.9-0.5c-0.6-0.3-1-0.8-1.3-1.4
						s-0.5-1.2-0.5-2c0-0.8,0.2-1.5,0.6-2.1c0.4-0.6,0.9-1.1,1.6-1.5C57.4,101.2,58.2,101.1,59.1,101.1z M59.1,103
						c-0.4,0-0.7,0.1-1,0.3s-0.5,0.4-0.7,0.8c-0.2,0.3-0.3,0.7-0.3,1.1c0,0.4,0.1,0.7,0.3,1.1c0.2,0.3,0.4,0.6,0.7,0.7
						s0.6,0.3,1,0.3c0.3,0,0.6-0.1,0.8-0.2s0.5-0.3,0.7-0.5c0.2-0.2,0.3-0.4,0.4-0.7c0.1-0.3,0.2-0.5,0.2-0.8c0-0.4-0.1-0.7-0.3-1
						c-0.2-0.3-0.4-0.6-0.7-0.8S59.5,103,59.1,103z"/>
					<path class="st4" d="M67.1,113.3c-0.4,0-0.7-0.1-1-0.4s-0.4-0.6-0.4-1c0-0.4,0.1-0.7,0.4-1s0.6-0.4,1-0.4c0.4,0,0.7,0.1,1,0.4
						s0.4,0.6,0.4,1c0,0.3-0.1,0.5-0.2,0.7c-0.1,0.2-0.3,0.4-0.5,0.5S67.3,113.3,67.1,113.3z"/>
					<path class="st4" d="M74.8,101.1c0.6,0,1.2,0.1,1.8,0.3c0.6,0.2,1.1,0.5,1.5,1c0.4,0.5,0.8,1,1.1,1.8c0.3,0.7,0.4,1.7,0.4,2.7
						c0,1-0.1,1.9-0.3,2.7c-0.2,0.8-0.6,1.5-1,2s-0.9,1-1.5,1.3s-1.3,0.4-2,0.4c-0.8,0-1.5-0.2-2.1-0.5c-0.6-0.3-1.1-0.7-1.5-1.3
						c-0.4-0.5-0.6-1.1-0.7-1.8h2.5c0.1,0.4,0.3,0.8,0.6,1s0.7,0.4,1.2,0.4c0.8,0,1.4-0.3,1.8-1c0.4-0.7,0.6-1.6,0.6-2.8H77
						c-0.2,0.4-0.4,0.7-0.7,0.9c-0.3,0.3-0.7,0.4-1,0.6c-0.4,0.1-0.8,0.2-1.2,0.2c-0.7,0-1.3-0.2-1.9-0.5c-0.6-0.3-1-0.8-1.3-1.4
						s-0.5-1.2-0.5-2c0-0.8,0.2-1.5,0.6-2.1c0.4-0.6,0.9-1.1,1.6-1.5C73.1,101.2,73.9,101.1,74.8,101.1z M74.8,103
						c-0.4,0-0.7,0.1-1,0.3s-0.5,0.4-0.7,0.8c-0.2,0.3-0.3,0.7-0.3,1.1c0,0.4,0.1,0.7,0.3,1.1c0.2,0.3,0.4,0.6,0.7,0.7
						s0.6,0.3,1,0.3c0.3,0,0.6-0.1,0.8-0.2s0.5-0.3,0.7-0.5c0.2-0.2,0.3-0.4,0.4-0.7c0.1-0.3,0.2-0.5,0.2-0.8c0-0.4-0.1-0.7-0.3-1
						c-0.2-0.3-0.4-0.6-0.7-0.8S75.2,103,74.8,103z"/>
					<path class="st4" d="M86.5,101.2v12H84v-9.6h-0.1l-2.7,1.7v-2.2l3-1.9H86.5z"/>
					<path class="st4" d="M97.1,116.1v-10.8h1.2v4.6c0,0.4,0.1,0.8,0.3,1.1s0.4,0.6,0.8,0.8c0.3,0.2,0.7,0.3,1.1,0.3
						c0.4,0,0.8-0.1,1.1-0.3s0.6-0.4,0.8-0.8c0.2-0.3,0.3-0.7,0.3-1.1v-4.6h1.2v7.8h-1.2V112h-0.1c-0.2,0.4-0.5,0.7-0.9,0.9
						s-0.8,0.3-1.2,0.3c-0.4,0-0.8-0.1-1.2-0.3c-0.4-0.2-0.7-0.5-0.9-0.9h-0.1v4.1H97.1z"/>
					<path class="st4" d="M109.2,116.3c-0.6,0-1.1-0.1-1.5-0.2c-0.4-0.1-0.8-0.3-1-0.6c-0.3-0.2-0.5-0.5-0.7-0.8l1-0.7
						c0.1,0.1,0.2,0.3,0.4,0.5s0.4,0.3,0.7,0.5c0.3,0.1,0.7,0.2,1.1,0.2c0.6,0,1.2-0.2,1.6-0.5s0.6-0.8,0.6-1.4v-1.6h-0.1
						c-0.1,0.1-0.2,0.3-0.4,0.5c-0.2,0.2-0.4,0.4-0.7,0.6c-0.3,0.2-0.7,0.2-1.2,0.2c-0.6,0-1.2-0.1-1.7-0.4
						c-0.5-0.3-0.9-0.7-1.2-1.3c-0.3-0.6-0.4-1.3-0.4-2.1c0-0.8,0.1-1.5,0.4-2.1c0.3-0.6,0.7-1.1,1.2-1.4s1.1-0.5,1.7-0.5
						c0.5,0,0.9,0.1,1.2,0.3c0.3,0.2,0.5,0.4,0.7,0.6c0.2,0.2,0.3,0.4,0.4,0.5h0.1v-1.2h1.2v8.1c0,0.7-0.2,1.2-0.5,1.6
						c-0.3,0.4-0.7,0.7-1.2,0.9C110.4,116.2,109.9,116.3,109.2,116.3z M109.2,112c0.5,0,0.9-0.1,1.2-0.3c0.3-0.2,0.6-0.5,0.8-1
						s0.3-0.9,0.3-1.5c0-0.6-0.1-1.1-0.3-1.5c-0.2-0.4-0.4-0.8-0.8-1s-0.7-0.4-1.2-0.4c-0.5,0-0.9,0.1-1.3,0.4s-0.6,0.6-0.8,1
						c-0.2,0.4-0.3,0.9-0.3,1.5c0,0.5,0.1,1,0.3,1.4c0.2,0.4,0.4,0.7,0.8,1S108.7,112,109.2,112z"/>
					<path class="st4" d="M118.5,102.2l-3.4,12.5h-1.1l3.4-12.5H118.5z"/>
					<path class="st4" d="M123.7,102.2l-3.4,12.5h-1.1l3.4-12.5H123.7z"/>
					<path class="st4" d="M125.1,113.2v-7.8h1.2v1.2h0.1c0.2-0.4,0.4-0.7,0.8-1c0.4-0.2,0.8-0.3,1.3-0.3c0.5,0,0.9,0.1,1.3,0.3
						c0.3,0.2,0.6,0.6,0.8,1h0.1c0.2-0.4,0.5-0.7,0.9-1c0.4-0.2,0.9-0.4,1.4-0.4c0.7,0,1.3,0.2,1.7,0.7s0.7,1.1,0.7,2v5.3h-1.2v-5.3
						c0-0.6-0.2-1-0.5-1.2c-0.3-0.2-0.7-0.4-1.1-0.4c-0.6,0-1,0.2-1.3,0.5c-0.3,0.3-0.5,0.8-0.5,1.3v5.1h-1.2v-5.4
						c0-0.4-0.1-0.8-0.4-1.1c-0.3-0.3-0.7-0.4-1.1-0.4c-0.3,0-0.6,0.1-0.9,0.2c-0.3,0.2-0.5,0.4-0.7,0.7s-0.2,0.6-0.2,1v4.9H125.1z"
						/>
					<path class="st4" d="M141.1,113.3c-0.7,0-1.3-0.1-1.8-0.3c-0.5-0.2-0.9-0.6-1.3-1c-0.3-0.4-0.5-0.9-0.5-1.4h1.3
						c0,0.3,0.1,0.6,0.3,0.9c0.2,0.2,0.5,0.4,0.8,0.6c0.3,0.1,0.7,0.2,1.1,0.2c0.4,0,0.8-0.1,1.2-0.2c0.3-0.2,0.6-0.4,0.8-0.7
						s0.3-0.6,0.3-1c0-0.4-0.1-0.7-0.3-1c-0.2-0.3-0.5-0.5-0.8-0.7c-0.4-0.2-0.8-0.3-1.3-0.3h-0.8v-1.1h0.8c0.4,0,0.8-0.1,1.1-0.2
						s0.6-0.4,0.7-0.6c0.2-0.3,0.3-0.6,0.3-1c0-0.4-0.1-0.7-0.2-0.9s-0.4-0.5-0.7-0.6c-0.3-0.1-0.6-0.2-1-0.2c-0.4,0-0.7,0.1-1,0.2
						c-0.3,0.1-0.6,0.3-0.8,0.6c-0.2,0.2-0.3,0.5-0.3,0.9h-1.2c0-0.5,0.2-1,0.5-1.4c0.3-0.4,0.7-0.7,1.2-1c0.5-0.2,1.1-0.3,1.7-0.3
						c0.6,0,1.2,0.1,1.7,0.4c0.5,0.3,0.8,0.6,1.1,1c0.2,0.4,0.4,0.9,0.4,1.4c0,0.6-0.2,1.1-0.5,1.5c-0.3,0.4-0.7,0.7-1.3,0.9v0.1
						c0.7,0.1,1.2,0.4,1.5,0.8s0.6,1,0.6,1.7c0,0.6-0.2,1.1-0.5,1.5s-0.7,0.8-1.3,1.1S141.8,113.3,141.1,113.3z"/>
				</g>
			</g>
			<g>
				<g>
					<path class="st5" d="M36.4,81.1V68.4h4.5c1,0,1.8,0.2,2.5,0.5c0.6,0.4,1.1,0.9,1.5,1.5c0.3,0.6,0.5,1.3,0.5,2.1
						c0,0.8-0.2,1.5-0.5,2.1c-0.3,0.6-0.8,1.1-1.5,1.5s-1.5,0.5-2.5,0.5h-3.1V75h2.9c0.6,0,1.1-0.1,1.5-0.3c0.4-0.2,0.7-0.5,0.9-0.9
						c0.2-0.4,0.3-0.8,0.3-1.3c0-0.5-0.1-0.9-0.3-1.3c-0.2-0.4-0.5-0.7-0.9-0.9S41.3,70,40.7,70h-2.4v11.1H36.4z"/>
					<path class="st5" d="M47.5,68.4h2.3l4,9.9h0.1l4-9.9h2.3v12.7h-1.8v-9.2h-0.1l-3.7,9.2h-1.5l-3.7-9.2h-0.1v9.2h-1.8V68.4z"/>
					<path class="st5" d="M62.9,83.1v-1.2l3.8-3.9c0.4-0.4,0.7-0.8,1-1.1c0.3-0.3,0.5-0.6,0.6-0.9c0.1-0.3,0.2-0.6,0.2-0.9
						c0-0.4-0.1-0.7-0.3-1c-0.2-0.3-0.4-0.5-0.7-0.6c-0.3-0.1-0.6-0.2-1-0.2c-0.4,0-0.8,0.1-1.1,0.2c-0.3,0.2-0.5,0.4-0.7,0.7
						c-0.2,0.3-0.2,0.6-0.2,1.1h-1.6c0-0.7,0.2-1.3,0.5-1.8c0.3-0.5,0.7-0.9,1.3-1.2c0.5-0.3,1.2-0.4,1.9-0.4c0.7,0,1.3,0.1,1.9,0.4
						c0.5,0.3,1,0.7,1.3,1.1c0.3,0.5,0.5,1,0.5,1.6c0,0.4-0.1,0.8-0.2,1.2c-0.2,0.4-0.4,0.8-0.8,1.3c-0.4,0.5-0.9,1.1-1.6,1.8
						l-2.2,2.3v0.1h5v1.5H62.9z"/>
					<path class="st5" d="M73.5,83.2c-0.3,0-0.6-0.1-0.8-0.3c-0.2-0.2-0.3-0.5-0.3-0.8c0-0.3,0.1-0.6,0.3-0.8
						c0.2-0.2,0.5-0.3,0.8-0.3c0.3,0,0.6,0.1,0.8,0.3c0.2,0.2,0.3,0.5,0.3,0.8c0,0.2,0,0.4-0.2,0.6c-0.1,0.2-0.2,0.3-0.4,0.4
						C73.8,83.2,73.7,83.2,73.5,83.2z"/>
					<path class="st5" d="M80.4,83.3c-0.7,0-1.3-0.1-1.8-0.4c-0.5-0.3-1-0.6-1.3-1.1c-0.3-0.5-0.5-1-0.5-1.6h1.6
						c0,0.5,0.3,0.9,0.6,1.2s0.9,0.5,1.4,0.5c0.4,0,0.8-0.1,1.1-0.3c0.3-0.2,0.6-0.5,0.8-0.8c0.2-0.4,0.3-0.8,0.3-1.2
						c0-0.5-0.1-0.9-0.3-1.2c-0.2-0.4-0.5-0.6-0.8-0.8c-0.3-0.2-0.7-0.3-1.2-0.3c-0.3,0-0.7,0.1-1,0.2s-0.6,0.3-0.8,0.5l-1.5-0.2
						l0.6-5.6h6.2v1.5H79l-0.4,3.1h0.1c0.2-0.2,0.5-0.4,0.9-0.5c0.4-0.1,0.8-0.2,1.2-0.2c0.7,0,1.3,0.2,1.8,0.5
						c0.5,0.3,1,0.8,1.3,1.3s0.5,1.2,0.5,1.9c0,0.7-0.2,1.4-0.5,1.9s-0.8,1-1.4,1.3S81.2,83.3,80.4,83.3z"/>
				</g>
			</g>
		</g>
		<g>
			<path class="st6" d="M157.6,73.3c-1.1-3.5-4.3-6.1-8.1-6.1c-3.8,0-7.1,2.5-8.1,6c-0.2,0.8-0.4,1.7-0.4,2.5c0,0.8,0.1,1.7,0.4,2.4
				c1.1,3.5,4.3,6.1,8.1,6.1c3.8,0,7.1-2.5,8.1-6c0.2-0.8,0.4-1.7,0.4-2.5C158,74.9,157.9,74.1,157.6,73.3z M149.5,80.1
				c-1.4,0-2.6-0.7-3.5-1.8c-0.6-0.7-0.8-1.7-0.8-2.6c0-0.8,0.2-1.7,0.7-2.3c0.7-1.2,2.2-2,3.7-2s3,0.8,3.7,2.2
				c0.4,0.6,0.6,1.4,0.6,2.3c0,1.1-0.4,1.9-1,2.6C152.1,79.4,150.9,80.1,149.5,80.1z"/>
			<path class="st6" d="M147.7,75.9c0-1,0.8-1.8,1.8-1.8s1.8,0.8,1.8,1.8c0,1-0.8,1.8-1.8,1.8S147.7,76.9,147.7,75.9z"/>
		</g>
	</g>
	<g>
		<g>
			<g>
				<path class="st2" d="M306.9,121.4H180.7c-4.3,0-7.7-3.5-7.7-7.8V69.1c0-4.3,3.5-7.8,7.7-7.8h126.1c4.3,0,7.7,3.5,7.7,7.8v44.5
					C314.6,117.9,311.1,121.4,306.9,121.4z"/>
				<line class="st3" x1="182.6" y1="91.7" x2="305" y2="91.7"/>
			</g>
			<g>
				<g>
					<g>
						<path class="st4" d="M193.6,113.2v-1.8l4.3-3.9c0.4-0.4,0.7-0.7,0.9-0.9c0.2-0.3,0.4-0.6,0.6-0.8s0.2-0.6,0.2-0.9
							c0-0.4-0.1-0.7-0.2-0.9c-0.2-0.3-0.4-0.5-0.7-0.6c-0.3-0.1-0.6-0.2-0.9-0.2c-0.4,0-0.7,0.1-1,0.2c-0.3,0.1-0.5,0.4-0.6,0.6
							s-0.2,0.6-0.2,1h-2.4c0-0.8,0.2-1.5,0.5-2c0.4-0.6,0.9-1,1.5-1.3c0.6-0.3,1.4-0.5,2.2-0.5c0.9,0,1.6,0.2,2.2,0.5
							c0.6,0.3,1.1,0.7,1.5,1.3c0.4,0.5,0.5,1.1,0.5,1.8c0,0.5-0.1,0.9-0.3,1.3c-0.2,0.4-0.5,0.9-0.9,1.5c-0.5,0.5-1.1,1.2-1.9,1.9
							l-1.7,1.7v0.1h5v2.1H193.6z"/>
						<path class="st4" d="M208.3,101.1c0.6,0,1.2,0.1,1.8,0.3c0.6,0.2,1.1,0.5,1.5,1c0.4,0.5,0.8,1,1.1,1.8
							c0.3,0.7,0.4,1.7,0.4,2.7c0,1-0.1,1.9-0.3,2.7c-0.2,0.8-0.6,1.5-1,2s-0.9,1-1.5,1.3s-1.3,0.4-2,0.4c-0.8,0-1.5-0.2-2.1-0.5
							c-0.6-0.3-1.1-0.7-1.5-1.3c-0.4-0.5-0.6-1.1-0.7-1.8h2.5c0.1,0.4,0.3,0.8,0.6,1c0.3,0.2,0.7,0.4,1.2,0.4c0.8,0,1.4-0.3,1.8-1
							s0.6-1.6,0.6-2.8h-0.1c-0.2,0.4-0.4,0.7-0.7,0.9c-0.3,0.3-0.7,0.4-1,0.6s-0.8,0.2-1.2,0.2c-0.7,0-1.3-0.2-1.9-0.5
							c-0.6-0.3-1-0.8-1.3-1.4c-0.3-0.6-0.5-1.2-0.5-2c0-0.8,0.2-1.5,0.6-2.1c0.4-0.6,0.9-1.1,1.6-1.5S207.4,101.1,208.3,101.1z
							 M208.3,103c-0.4,0-0.7,0.1-1,0.3c-0.3,0.2-0.5,0.4-0.7,0.8c-0.2,0.3-0.3,0.7-0.3,1.1c0,0.4,0.1,0.7,0.3,1.1
							c0.2,0.3,0.4,0.6,0.7,0.7c0.3,0.2,0.6,0.3,1,0.3c0.3,0,0.6-0.1,0.8-0.2c0.2-0.1,0.5-0.3,0.7-0.5c0.2-0.2,0.3-0.4,0.4-0.7
							c0.1-0.3,0.2-0.5,0.2-0.8c0-0.4-0.1-0.7-0.3-1c-0.2-0.3-0.4-0.6-0.7-0.8C209.1,103.1,208.7,103,208.3,103z"/>
						<path class="st4" d="M216.3,113.3c-0.4,0-0.7-0.1-1-0.4c-0.3-0.3-0.4-0.6-0.4-1c0-0.4,0.1-0.7,0.4-1c0.3-0.3,0.6-0.4,1-0.4
							c0.4,0,0.7,0.1,1,0.4c0.3,0.3,0.4,0.6,0.4,1c0,0.3-0.1,0.5-0.2,0.7c-0.1,0.2-0.3,0.4-0.5,0.5
							C216.8,113.3,216.6,113.3,216.3,113.3z"/>
						<path class="st4" d="M224.1,101.1c0.6,0,1.2,0.1,1.8,0.3c0.6,0.2,1.1,0.5,1.5,1c0.4,0.5,0.8,1,1.1,1.8
							c0.3,0.7,0.4,1.7,0.4,2.7c0,1-0.1,1.9-0.3,2.7s-0.6,1.5-1,2s-0.9,1-1.5,1.3s-1.3,0.4-2,0.4c-0.8,0-1.5-0.2-2.1-0.5
							c-0.6-0.3-1.1-0.7-1.5-1.3s-0.6-1.1-0.7-1.8h2.5c0.1,0.4,0.3,0.8,0.6,1c0.3,0.2,0.7,0.4,1.2,0.4c0.8,0,1.4-0.3,1.8-1
							c0.4-0.7,0.6-1.6,0.6-2.8h-0.1c-0.2,0.4-0.4,0.7-0.7,0.9s-0.7,0.4-1,0.6c-0.4,0.1-0.8,0.2-1.2,0.2c-0.7,0-1.3-0.2-1.9-0.5
							c-0.6-0.3-1-0.8-1.3-1.4c-0.3-0.6-0.5-1.2-0.5-2c0-0.8,0.2-1.5,0.6-2.1s0.9-1.1,1.6-1.5C222.4,101.2,223.2,101.1,224.1,101.1z
							 M224.1,103c-0.4,0-0.7,0.1-1,0.3c-0.3,0.2-0.5,0.4-0.7,0.8c-0.2,0.3-0.3,0.7-0.3,1.1c0,0.4,0.1,0.7,0.3,1.1
							c0.2,0.3,0.4,0.6,0.7,0.7c0.3,0.2,0.6,0.3,1,0.3c0.3,0,0.6-0.1,0.8-0.2c0.2-0.1,0.5-0.3,0.7-0.5c0.2-0.2,0.3-0.4,0.4-0.7
							c0.1-0.3,0.2-0.5,0.2-0.8c0-0.4-0.1-0.7-0.3-1c-0.2-0.3-0.4-0.6-0.7-0.8C224.8,103.1,224.5,103,224.1,103z"/>
						<path class="st4" d="M235.8,101.2v12h-2.5v-9.6h-0.1l-2.7,1.7v-2.2l3-1.9H235.8z"/>
						<path class="st4" d="M246.4,116.1v-10.8h1.2v4.6c0,0.4,0.1,0.8,0.3,1.1c0.2,0.3,0.4,0.6,0.8,0.8c0.3,0.2,0.7,0.3,1.1,0.3
							s0.8-0.1,1.1-0.3c0.3-0.2,0.6-0.4,0.8-0.8c0.2-0.3,0.3-0.7,0.3-1.1v-4.6h1.2v7.8h-1.2V112h-0.1c-0.2,0.4-0.5,0.7-0.9,0.9
							c-0.4,0.2-0.8,0.3-1.2,0.3s-0.8-0.1-1.2-0.3s-0.7-0.5-0.9-0.9h-0.1v4.1H246.4z"/>
						<path class="st4" d="M258.5,116.3c-0.6,0-1.1-0.1-1.5-0.2c-0.4-0.1-0.8-0.3-1-0.6s-0.5-0.5-0.7-0.8l1-0.7
							c0.1,0.1,0.2,0.3,0.4,0.5c0.2,0.2,0.4,0.3,0.7,0.5c0.3,0.1,0.7,0.2,1.1,0.2c0.6,0,1.2-0.2,1.6-0.5s0.6-0.8,0.6-1.4v-1.6h-0.1
							c-0.1,0.1-0.2,0.3-0.4,0.5c-0.2,0.2-0.4,0.4-0.7,0.6s-0.7,0.2-1.2,0.2c-0.6,0-1.2-0.1-1.7-0.4c-0.5-0.3-0.9-0.7-1.2-1.3
							c-0.3-0.6-0.4-1.3-0.4-2.1c0-0.8,0.1-1.5,0.4-2.1s0.7-1.1,1.2-1.4s1.1-0.5,1.7-0.5c0.5,0,0.9,0.1,1.2,0.3
							c0.3,0.2,0.5,0.4,0.7,0.6s0.3,0.4,0.4,0.5h0.1v-1.2h1.2v8.1c0,0.7-0.2,1.2-0.5,1.6c-0.3,0.4-0.7,0.7-1.2,0.9
							C259.7,116.2,259.1,116.3,258.5,116.3z M258.5,112c0.5,0,0.9-0.1,1.2-0.3c0.3-0.2,0.6-0.5,0.8-1s0.3-0.9,0.3-1.5
							c0-0.6-0.1-1.1-0.3-1.5c-0.2-0.4-0.4-0.8-0.8-1s-0.7-0.4-1.2-0.4c-0.5,0-0.9,0.1-1.3,0.4c-0.3,0.3-0.6,0.6-0.8,1
							c-0.2,0.4-0.3,0.9-0.3,1.5c0,0.5,0.1,1,0.3,1.4c0.2,0.4,0.4,0.7,0.8,1C257.5,111.9,258,112,258.5,112z"/>
						<path class="st4" d="M267.8,102.2l-3.4,12.5h-1.1l3.4-12.5H267.8z"/>
						<path class="st4" d="M272.9,102.2l-3.4,12.5h-1.1l3.4-12.5H272.9z"/>
						<path class="st4" d="M274.4,113.2v-7.8h1.2v1.2h0.1c0.2-0.4,0.4-0.7,0.8-1c0.4-0.2,0.8-0.3,1.3-0.3c0.5,0,0.9,0.1,1.3,0.3
							c0.3,0.2,0.6,0.6,0.8,1h0.1c0.2-0.4,0.5-0.7,0.9-1c0.4-0.2,0.9-0.4,1.4-0.4c0.7,0,1.3,0.2,1.7,0.7c0.4,0.4,0.7,1.1,0.7,2v5.3
							h-1.2v-5.3c0-0.6-0.2-1-0.5-1.2s-0.7-0.4-1.1-0.4c-0.6,0-1,0.2-1.3,0.5c-0.3,0.3-0.5,0.8-0.5,1.3v5.1h-1.2v-5.4
							c0-0.4-0.1-0.8-0.4-1.1c-0.3-0.3-0.7-0.4-1.1-0.4c-0.3,0-0.6,0.1-0.9,0.2c-0.3,0.2-0.5,0.4-0.7,0.7c-0.2,0.3-0.2,0.6-0.2,1
							v4.9H274.4z"/>
						<path class="st4" d="M290.4,113.3c-0.7,0-1.3-0.1-1.8-0.3c-0.5-0.2-0.9-0.6-1.3-1c-0.3-0.4-0.5-0.9-0.5-1.4h1.3
							c0,0.3,0.1,0.6,0.3,0.9c0.2,0.2,0.5,0.4,0.8,0.6s0.7,0.2,1.1,0.2c0.4,0,0.8-0.1,1.2-0.2c0.3-0.2,0.6-0.4,0.8-0.7
							s0.3-0.6,0.3-1c0-0.4-0.1-0.7-0.3-1c-0.2-0.3-0.5-0.5-0.8-0.7c-0.4-0.2-0.8-0.3-1.3-0.3h-0.8v-1.1h0.8c0.4,0,0.8-0.1,1.1-0.2
							s0.6-0.4,0.7-0.6c0.2-0.3,0.3-0.6,0.3-1c0-0.4-0.1-0.7-0.2-0.9s-0.4-0.5-0.7-0.6c-0.3-0.1-0.6-0.2-1-0.2c-0.4,0-0.7,0.1-1,0.2
							c-0.3,0.1-0.6,0.3-0.8,0.6c-0.2,0.2-0.3,0.5-0.3,0.9H287c0-0.5,0.2-1,0.5-1.4c0.3-0.4,0.7-0.7,1.2-1s1.1-0.3,1.7-0.3
							c0.6,0,1.2,0.1,1.7,0.4c0.5,0.3,0.8,0.6,1.1,1c0.2,0.4,0.4,0.9,0.4,1.4c0,0.6-0.2,1.1-0.5,1.5c-0.3,0.4-0.7,0.7-1.3,0.9v0.1
							c0.7,0.1,1.2,0.4,1.5,0.8s0.6,1,0.6,1.7c0,0.6-0.2,1.1-0.5,1.5s-0.7,0.8-1.3,1.1S291.1,113.3,290.4,113.3z"/>
					</g>
				</g>
			</g>
			<g>
				<g>
					<path class="st5" d="M185.6,81.1V68.4h4.5c1,0,1.8,0.2,2.5,0.5c0.6,0.4,1.1,0.9,1.5,1.5c0.3,0.6,0.5,1.3,0.5,2.1
						c0,0.8-0.2,1.5-0.5,2.1c-0.3,0.6-0.8,1.1-1.5,1.5s-1.5,0.5-2.5,0.5H187V75h2.9c0.6,0,1.1-0.1,1.5-0.3c0.4-0.2,0.7-0.5,0.9-0.9
						c0.2-0.4,0.3-0.8,0.3-1.3c0-0.5-0.1-0.9-0.3-1.3c-0.2-0.4-0.5-0.7-0.9-0.9s-0.9-0.3-1.5-0.3h-2.4v11.1H185.6z"/>
					<path class="st5" d="M196.7,68.4h2.3l4,9.9h0.1l4-9.9h2.3v12.7h-1.8v-9.2h-0.1l-3.7,9.2h-1.5l-3.7-9.2h-0.1v9.2h-1.8V68.4z"/>
					<path class="st5" d="M216.3,71.9v11.2h-1.7v-9.5h-0.1l-2.7,1.8v-1.6l2.8-1.8H216.3z"/>
					<path class="st5" d="M223.3,83.3c-0.9,0-1.6-0.2-2.2-0.7c-0.6-0.5-1.1-1.1-1.4-2c-0.3-0.9-0.5-1.9-0.5-3.1
						c0-1.2,0.2-2.3,0.5-3.1c0.3-0.9,0.8-1.5,1.4-2c0.6-0.5,1.4-0.7,2.2-0.7s1.6,0.2,2.2,0.7c0.6,0.5,1.1,1.1,1.4,2
						c0.3,0.9,0.5,1.9,0.5,3.1c0,1.2-0.2,2.3-0.5,3.1c-0.3,0.9-0.8,1.5-1.4,2C224.9,83.1,224.1,83.3,223.3,83.3z M223.3,81.9
						c0.8,0,1.4-0.4,1.8-1.1s0.6-1.8,0.6-3.2c0-0.9-0.1-1.7-0.3-2.4s-0.5-1.1-0.8-1.5c-0.4-0.3-0.8-0.5-1.3-0.5
						c-0.8,0-1.3,0.4-1.8,1.1c-0.4,0.7-0.6,1.8-0.7,3.2c0,0.9,0.1,1.7,0.3,2.4c0.2,0.6,0.5,1.1,0.8,1.5S222.8,81.9,223.3,81.9z"/>
				</g>
			</g>
		</g>
		<g>
			<path class="st6" d="M304.9,73.3c-1.1-3.5-4.3-6.1-8.1-6.1s-7.1,2.5-8.1,6c-0.2,0.8-0.4,1.7-0.4,2.5c0,0.8,0.1,1.7,0.4,2.4
				c1.1,3.5,4.3,6.1,8.1,6.1s7.1-2.5,8.1-6c0.2-0.8,0.4-1.7,0.4-2.5C305.2,74.9,305.1,74.1,304.9,73.3z M296.7,80.1
				c-1.4,0-2.6-0.7-3.5-1.8c-0.6-0.7-0.8-1.7-0.8-2.6c0-0.8,0.2-1.7,0.7-2.3c0.7-1.2,2.2-2,3.7-2c1.6,0,3,0.8,3.7,2.2
				c0.4,0.6,0.6,1.4,0.6,2.3c0,1.1-0.4,1.9-1,2.6C299.4,79.4,298.2,80.1,296.7,80.1z"/>
			<path class="st6" d="M294.9,75.9c0-1,0.8-1.8,1.8-1.8c1,0,1.8,0.8,1.8,1.8c0,1-0.8,1.8-1.8,1.8C295.8,77.7,294.9,76.9,294.9,75.9
				z"/>
		</g>
	</g>
	<g>
		<g>
			<g>
				<path class="st2" d="M456.1,121.4H330c-4.3,0-7.7-3.5-7.7-7.8V69.1c0-4.3,3.5-7.8,7.7-7.8h126.1c4.3,0,7.7,3.5,7.7,7.8v44.5
					C463.8,117.9,460.4,121.4,456.1,121.4z"/>
				<line class="st3" x1="331.8" y1="91.7" x2="454.3" y2="91.7"/>
			</g>
			<g>
				<g>
					<g>
						<path class="st4" d="M354.5,113.2v-1.8l4.3-3.9c0.4-0.4,0.7-0.7,0.9-0.9s0.4-0.6,0.6-0.8c0.1-0.3,0.2-0.6,0.2-0.9
							c0-0.4-0.1-0.7-0.2-0.9s-0.4-0.5-0.7-0.6c-0.3-0.1-0.6-0.2-0.9-0.2c-0.4,0-0.7,0.1-1,0.2s-0.5,0.4-0.6,0.6
							c-0.1,0.3-0.2,0.6-0.2,1h-2.4c0-0.8,0.2-1.5,0.5-2c0.4-0.6,0.9-1,1.5-1.3c0.6-0.3,1.4-0.5,2.2-0.5c0.9,0,1.6,0.2,2.2,0.5
							c0.6,0.3,1.1,0.7,1.5,1.3s0.5,1.1,0.5,1.8c0,0.5-0.1,0.9-0.3,1.3c-0.2,0.4-0.5,0.9-0.9,1.5c-0.5,0.5-1.1,1.2-1.9,1.9L358,111
							v0.1h5v2.1H354.5z"/>
						<path class="st4" d="M369.2,101.1c0.6,0,1.2,0.1,1.8,0.3c0.6,0.2,1.1,0.5,1.5,1c0.4,0.5,0.8,1,1.1,1.8
							c0.3,0.7,0.4,1.7,0.4,2.7c0,1-0.1,1.9-0.3,2.7c-0.2,0.8-0.6,1.5-1,2s-0.9,1-1.5,1.3s-1.3,0.4-2,0.4c-0.8,0-1.5-0.2-2.1-0.5
							c-0.6-0.3-1.1-0.7-1.5-1.3c-0.4-0.5-0.6-1.1-0.7-1.8h2.5c0.1,0.4,0.3,0.8,0.6,1s0.7,0.4,1.2,0.4c0.8,0,1.4-0.3,1.8-1
							c0.4-0.7,0.6-1.6,0.6-2.8h-0.1c-0.2,0.4-0.4,0.7-0.7,0.9c-0.3,0.3-0.7,0.4-1,0.6c-0.4,0.1-0.8,0.2-1.2,0.2
							c-0.7,0-1.3-0.2-1.9-0.5c-0.6-0.3-1-0.8-1.3-1.4s-0.5-1.2-0.5-2c0-0.8,0.2-1.5,0.6-2.1c0.4-0.6,0.9-1.1,1.6-1.5
							C367.5,101.2,368.3,101.1,369.2,101.1z M369.2,103c-0.4,0-0.7,0.1-1,0.3s-0.5,0.4-0.7,0.8c-0.2,0.3-0.3,0.7-0.3,1.1
							c0,0.4,0.1,0.7,0.3,1.1c0.2,0.3,0.4,0.6,0.7,0.7s0.6,0.3,1,0.3c0.3,0,0.6-0.1,0.8-0.2s0.5-0.3,0.7-0.5
							c0.2-0.2,0.3-0.4,0.4-0.7c0.1-0.3,0.2-0.5,0.2-0.8c0-0.4-0.1-0.7-0.3-1c-0.2-0.3-0.4-0.6-0.7-0.8S369.6,103,369.2,103z"/>
						<path class="st4" d="M377.2,113.3c-0.4,0-0.7-0.1-1-0.4s-0.4-0.6-0.4-1c0-0.4,0.1-0.7,0.4-1s0.6-0.4,1-0.4
							c0.4,0,0.7,0.1,1,0.4s0.4,0.6,0.4,1c0,0.3-0.1,0.5-0.2,0.7c-0.1,0.2-0.3,0.4-0.5,0.5S377.4,113.3,377.2,113.3z"/>
						<path class="st4" d="M384.9,101.1c0.6,0,1.2,0.1,1.8,0.3c0.6,0.2,1.1,0.5,1.5,1c0.4,0.5,0.8,1,1.1,1.8
							c0.3,0.7,0.4,1.7,0.4,2.7c0,1-0.1,1.9-0.3,2.7c-0.2,0.8-0.6,1.5-1,2s-0.9,1-1.5,1.3s-1.3,0.4-2,0.4c-0.8,0-1.5-0.2-2.1-0.5
							c-0.6-0.3-1.1-0.7-1.5-1.3c-0.4-0.5-0.6-1.1-0.7-1.8h2.5c0.1,0.4,0.3,0.8,0.6,1s0.7,0.4,1.2,0.4c0.8,0,1.4-0.3,1.8-1
							c0.4-0.7,0.6-1.6,0.6-2.8h-0.1c-0.2,0.4-0.4,0.7-0.7,0.9c-0.3,0.3-0.7,0.4-1,0.6c-0.4,0.1-0.8,0.2-1.2,0.2
							c-0.7,0-1.3-0.2-1.9-0.5c-0.6-0.3-1-0.8-1.3-1.4s-0.5-1.2-0.5-2c0-0.8,0.2-1.5,0.6-2.1c0.4-0.6,0.9-1.1,1.6-1.5
							C383.2,101.2,384,101.1,384.9,101.1z M384.9,103c-0.4,0-0.7,0.1-1,0.3s-0.5,0.4-0.7,0.8c-0.2,0.3-0.3,0.7-0.3,1.1
							c0,0.4,0.1,0.7,0.3,1.1c0.2,0.3,0.4,0.6,0.7,0.7s0.6,0.3,1,0.3c0.3,0,0.6-0.1,0.8-0.2s0.5-0.3,0.7-0.5
							c0.2-0.2,0.3-0.4,0.4-0.7c0.1-0.3,0.2-0.5,0.2-0.8c0-0.4-0.1-0.7-0.3-1c-0.2-0.3-0.4-0.6-0.7-0.8S385.3,103,384.9,103z"/>
						<path class="st4" d="M396.6,101.2v12h-2.5v-9.6H394l-2.7,1.7v-2.2l3-1.9H396.6z"/>
						<path class="st4" d="M407.2,116.1v-10.8h1.2v1.2h0.1c0.1-0.1,0.2-0.3,0.4-0.5s0.4-0.4,0.7-0.6c0.3-0.2,0.7-0.3,1.2-0.3
							c0.7,0,1.2,0.2,1.7,0.5c0.5,0.3,0.9,0.8,1.2,1.4c0.3,0.6,0.4,1.3,0.4,2.1c0,0.8-0.1,1.6-0.4,2.2c-0.3,0.6-0.7,1.1-1.2,1.4
							c-0.5,0.3-1.1,0.5-1.7,0.5c-0.5,0-0.9-0.1-1.2-0.3c-0.3-0.2-0.5-0.4-0.7-0.6s-0.3-0.4-0.4-0.5h-0.1v4.1H407.2z M408.4,109.3
							c0,0.6,0.1,1.1,0.3,1.6s0.4,0.8,0.8,1.1c0.3,0.3,0.7,0.4,1.2,0.4c0.5,0,0.9-0.1,1.3-0.4c0.3-0.3,0.6-0.6,0.8-1.1
							s0.3-1,0.3-1.5c0-0.6-0.1-1-0.3-1.5c-0.2-0.4-0.4-0.8-0.8-1.1c-0.3-0.3-0.8-0.4-1.3-0.4c-0.5,0-0.9,0.1-1.2,0.4
							s-0.6,0.6-0.8,1C408.5,108.2,408.4,108.7,408.4,109.3z"/>
						<path class="st4" d="M416,116.1v-10.8h1.2v1.2h0.1c0.1-0.1,0.2-0.3,0.4-0.5s0.4-0.4,0.7-0.6c0.3-0.2,0.7-0.3,1.2-0.3
							c0.7,0,1.2,0.2,1.7,0.5c0.5,0.3,0.9,0.8,1.2,1.4c0.3,0.6,0.4,1.3,0.4,2.1c0,0.8-0.1,1.6-0.4,2.2c-0.3,0.6-0.7,1.1-1.2,1.4
							c-0.5,0.3-1.1,0.5-1.7,0.5c-0.5,0-0.9-0.1-1.2-0.3c-0.3-0.2-0.5-0.4-0.7-0.6s-0.3-0.4-0.4-0.5h-0.1v4.1H416z M417.2,109.3
							c0,0.6,0.1,1.1,0.3,1.6s0.4,0.8,0.8,1.1c0.3,0.3,0.7,0.4,1.2,0.4c0.5,0,0.9-0.1,1.3-0.4c0.3-0.3,0.6-0.6,0.8-1.1
							s0.3-1,0.3-1.5c0-0.6-0.1-1-0.3-1.5c-0.2-0.4-0.4-0.8-0.8-1.1c-0.3-0.3-0.8-0.4-1.3-0.4c-0.5,0-0.9,0.1-1.2,0.4
							s-0.6,0.6-0.8,1C417.3,108.2,417.2,108.7,417.2,109.3z"/>
						<path class="st4" d="M424.9,113.2v-10.5h1.2v3.9h0.1c0.1-0.1,0.2-0.3,0.4-0.5c0.2-0.2,0.4-0.4,0.7-0.6
							c0.3-0.2,0.7-0.3,1.2-0.3c0.7,0,1.2,0.2,1.7,0.5c0.5,0.3,0.9,0.8,1.2,1.4c0.3,0.6,0.4,1.3,0.4,2.1c0,0.8-0.1,1.6-0.4,2.2
							s-0.7,1.1-1.2,1.4s-1.1,0.5-1.7,0.5c-0.5,0-0.9-0.1-1.2-0.3s-0.5-0.4-0.7-0.6c-0.2-0.2-0.3-0.4-0.4-0.5h-0.1v1.2H424.9z
							 M426.1,109.3c0,0.6,0.1,1.1,0.3,1.6c0.2,0.5,0.4,0.8,0.8,1.1c0.3,0.3,0.7,0.4,1.2,0.4c0.5,0,0.9-0.1,1.3-0.4
							c0.3-0.3,0.6-0.6,0.8-1.1c0.2-0.5,0.3-1,0.3-1.5c0-0.6-0.1-1-0.3-1.5c-0.2-0.4-0.4-0.8-0.8-1.1c-0.3-0.3-0.8-0.4-1.3-0.4
							c-0.5,0-0.9,0.1-1.2,0.4c-0.3,0.2-0.6,0.6-0.8,1C426.2,108.2,426.1,108.7,426.1,109.3z"/>
					</g>
				</g>
			</g>
			<g>
				<g>
					<g>
						<path class="st5" d="M345.4,72.5h-1.9c-0.1-0.4-0.2-0.8-0.4-1.1c-0.2-0.3-0.5-0.6-0.7-0.8c-0.3-0.2-0.6-0.4-1-0.5
							c-0.4-0.1-0.7-0.2-1.2-0.2c-0.7,0-1.4,0.2-2,0.6s-1,0.9-1.4,1.6c-0.3,0.7-0.5,1.6-0.5,2.6c0,1,0.2,1.9,0.5,2.6
							c0.3,0.7,0.8,1.2,1.4,1.6c0.6,0.4,1.2,0.5,2,0.5c0.4,0,0.8-0.1,1.1-0.2c0.4-0.1,0.7-0.3,1-0.5c0.3-0.2,0.5-0.5,0.7-0.8
							c0.2-0.3,0.3-0.7,0.4-1.1l1.9,0c-0.1,0.6-0.3,1.2-0.6,1.7c-0.3,0.5-0.7,1-1.1,1.4s-1,0.7-1.6,0.9c-0.6,0.2-1.2,0.3-1.9,0.3
							c-1.1,0-2.1-0.3-2.9-0.8c-0.9-0.5-1.5-1.3-2-2.2s-0.7-2.1-0.7-3.5c0-1.4,0.2-2.5,0.7-3.5c0.5-1,1.2-1.7,2-2.2
							c0.9-0.5,1.8-0.8,2.9-0.8c0.7,0,1.3,0.1,1.9,0.3c0.6,0.2,1.1,0.5,1.6,0.8s0.9,0.8,1.2,1.4C345,71.2,345.3,71.8,345.4,72.5z"/>
						<path class="st5" d="M358.7,74.7c0,1.4-0.2,2.5-0.7,3.5c-0.5,1-1.2,1.7-2,2.2c-0.9,0.5-1.8,0.8-2.9,0.8
							c-1.1,0-2.1-0.3-2.9-0.8c-0.9-0.5-1.5-1.3-2-2.2s-0.7-2.1-0.7-3.5c0-1.4,0.2-2.5,0.7-3.5c0.5-1,1.2-1.7,2-2.2
							c0.9-0.5,1.8-0.8,2.9-0.8c1.1,0,2.1,0.3,2.9,0.8c0.9,0.5,1.5,1.3,2,2.2C358.4,72.2,358.7,73.4,358.7,74.7z M356.8,74.7
							c0-1-0.2-1.9-0.5-2.6c-0.3-0.7-0.8-1.2-1.4-1.6c-0.6-0.4-1.2-0.5-2-0.5c-0.7,0-1.4,0.2-2,0.5c-0.6,0.4-1,0.9-1.4,1.6
							c-0.3,0.7-0.5,1.6-0.5,2.6s0.2,1.9,0.5,2.6c0.3,0.7,0.8,1.2,1.4,1.6c0.6,0.4,1.2,0.5,2,0.5c0.7,0,1.4-0.2,2-0.5
							c0.6-0.4,1-0.9,1.4-1.6C356.6,76.6,356.8,75.8,356.8,74.7z"/>
					</g>
				</g>
			</g>
		</g>
		<g>
			<path class="st6" d="M453.7,73.3c-1.1-3.5-4.3-6.1-8.1-6.1c-3.8,0-7.1,2.5-8.1,6c-0.2,0.8-0.4,1.7-0.4,2.5c0,0.8,0.1,1.7,0.4,2.4
				c1.1,3.5,4.3,6.1,8.1,6.1c3.8,0,7.1-2.5,8.1-6c0.2-0.8,0.4-1.7,0.4-2.5C454.1,74.9,453.9,74.1,453.7,73.3z M445.6,80.1
				c-1.4,0-2.6-0.7-3.5-1.8c-0.6-0.7-0.8-1.7-0.8-2.6c0-0.8,0.2-1.7,0.7-2.3c0.7-1.2,2.2-2,3.7-2s3,0.8,3.7,2.2
				c0.4,0.6,0.6,1.4,0.6,2.3c0,1.1-0.4,1.9-1,2.6C448.2,79.4,447,80.1,445.6,80.1z"/>
			<path class="st6" d="M443.8,75.9c0-1,0.8-1.8,1.8-1.8c1,0,1.8,0.8,1.8,1.8c0,1-0.8,1.8-1.8,1.8C444.6,77.7,443.8,76.9,443.8,75.9
				z"/>
		</g>
	</g>
	<g>
		<g>
			<g>
				<path class="st2" d="M605.4,121.4H479.2c-4.3,0-7.7-3.5-7.7-7.8V69.1c0-4.3,3.5-7.8,7.7-7.8h126.1c4.3,0,7.7,3.5,7.7,7.8v44.5
					C613.1,117.9,609.6,121.4,605.4,121.4z"/>
				<line class="st3" x1="481.1" y1="91.7" x2="603.5" y2="91.7"/>
			</g>
			<g>
				<g>
					<g>
						<path class="st4" d="M503.7,113.2v-1.8l4.3-3.9c0.4-0.4,0.7-0.7,0.9-0.9s0.4-0.6,0.6-0.8c0.1-0.3,0.2-0.6,0.2-0.9
							c0-0.4-0.1-0.7-0.2-0.9s-0.4-0.5-0.7-0.6c-0.3-0.1-0.6-0.2-0.9-0.2c-0.4,0-0.7,0.1-1,0.2s-0.5,0.4-0.6,0.6
							c-0.1,0.3-0.2,0.6-0.2,1h-2.4c0-0.8,0.2-1.5,0.5-2c0.4-0.6,0.9-1,1.5-1.3c0.6-0.3,1.4-0.5,2.2-0.5c0.9,0,1.6,0.2,2.2,0.5
							c0.6,0.3,1.1,0.7,1.5,1.3s0.5,1.1,0.5,1.8c0,0.5-0.1,0.9-0.3,1.3c-0.2,0.4-0.5,0.9-0.9,1.5c-0.5,0.5-1.1,1.2-1.9,1.9l-1.7,1.7
							v0.1h5v2.1H503.7z"/>
						<path class="st4" d="M518.4,101.1c0.6,0,1.2,0.1,1.8,0.3c0.6,0.2,1.1,0.5,1.5,1c0.4,0.5,0.8,1,1.1,1.8
							c0.3,0.7,0.4,1.7,0.4,2.7c0,1-0.1,1.9-0.3,2.7c-0.2,0.8-0.6,1.5-1,2s-0.9,1-1.5,1.3s-1.3,0.4-2,0.4c-0.8,0-1.5-0.2-2.1-0.5
							c-0.6-0.3-1.1-0.7-1.5-1.3c-0.4-0.5-0.6-1.1-0.7-1.8h2.5c0.1,0.4,0.3,0.8,0.6,1s0.7,0.4,1.2,0.4c0.8,0,1.4-0.3,1.8-1
							c0.4-0.7,0.6-1.6,0.6-2.8h-0.1c-0.2,0.4-0.4,0.7-0.7,0.9c-0.3,0.3-0.7,0.4-1,0.6c-0.4,0.1-0.8,0.2-1.2,0.2
							c-0.7,0-1.3-0.2-1.9-0.5c-0.6-0.3-1-0.8-1.3-1.4s-0.5-1.2-0.5-2c0-0.8,0.2-1.5,0.6-2.1c0.4-0.6,0.9-1.1,1.6-1.5
							C516.7,101.2,517.5,101.1,518.4,101.1z M518.4,103c-0.4,0-0.7,0.1-1,0.3s-0.5,0.4-0.7,0.8c-0.2,0.3-0.3,0.7-0.3,1.1
							c0,0.4,0.1,0.7,0.3,1.1c0.2,0.3,0.4,0.6,0.7,0.7s0.6,0.3,1,0.3c0.3,0,0.6-0.1,0.8-0.2s0.5-0.3,0.7-0.5
							c0.2-0.2,0.3-0.4,0.4-0.7c0.1-0.3,0.2-0.5,0.2-0.8c0-0.4-0.1-0.7-0.3-1c-0.2-0.3-0.4-0.6-0.7-0.8S518.8,103,518.4,103z"/>
						<path class="st4" d="M526.4,113.3c-0.4,0-0.7-0.1-1-0.4s-0.4-0.6-0.4-1c0-0.4,0.1-0.7,0.4-1s0.6-0.4,1-0.4
							c0.4,0,0.7,0.1,1,0.4s0.4,0.6,0.4,1c0,0.3-0.1,0.5-0.2,0.7c-0.1,0.2-0.3,0.4-0.5,0.5S526.7,113.3,526.4,113.3z"/>
						<path class="st4" d="M534.2,101.1c0.6,0,1.2,0.1,1.8,0.3c0.6,0.2,1.1,0.5,1.5,1c0.4,0.5,0.8,1,1.1,1.8
							c0.3,0.7,0.4,1.7,0.4,2.7c0,1-0.1,1.9-0.3,2.7c-0.2,0.8-0.6,1.5-1,2s-0.9,1-1.5,1.3s-1.3,0.4-2,0.4c-0.8,0-1.5-0.2-2.1-0.5
							c-0.6-0.3-1.1-0.7-1.5-1.3c-0.4-0.5-0.6-1.1-0.7-1.8h2.5c0.1,0.4,0.3,0.8,0.6,1s0.7,0.4,1.2,0.4c0.8,0,1.4-0.3,1.8-1
							c0.4-0.7,0.6-1.6,0.6-2.8h-0.1c-0.2,0.4-0.4,0.7-0.7,0.9c-0.3,0.3-0.7,0.4-1,0.6c-0.4,0.1-0.8,0.2-1.2,0.2
							c-0.7,0-1.3-0.2-1.9-0.5c-0.6-0.3-1-0.8-1.3-1.4s-0.5-1.2-0.5-2c0-0.8,0.2-1.5,0.6-2.1c0.4-0.6,0.9-1.1,1.6-1.5
							C532.5,101.2,533.3,101.1,534.2,101.1z M534.2,103c-0.4,0-0.7,0.1-1,0.3s-0.5,0.4-0.7,0.8c-0.2,0.3-0.3,0.7-0.3,1.1
							c0,0.4,0.1,0.7,0.3,1.1c0.2,0.3,0.4,0.6,0.7,0.7s0.6,0.3,1,0.3c0.3,0,0.6-0.1,0.8-0.2s0.5-0.3,0.7-0.5
							c0.2-0.2,0.3-0.4,0.4-0.7c0.1-0.3,0.2-0.5,0.2-0.8c0-0.4-0.1-0.7-0.3-1c-0.2-0.3-0.4-0.6-0.7-0.8S534.6,103,534.2,103z"/>
						<path class="st4" d="M545.9,101.2v12h-2.5v-9.6h-0.1l-2.7,1.7v-2.2l3-1.9H545.9z"/>
						<path class="st4" d="M556.5,116.1v-10.8h1.2v1.2h0.1c0.1-0.1,0.2-0.3,0.4-0.5s0.4-0.4,0.7-0.6c0.3-0.2,0.7-0.3,1.2-0.3
							c0.7,0,1.2,0.2,1.7,0.5c0.5,0.3,0.9,0.8,1.2,1.4c0.3,0.6,0.4,1.3,0.4,2.1c0,0.8-0.1,1.6-0.4,2.2c-0.3,0.6-0.7,1.1-1.2,1.4
							c-0.5,0.3-1.1,0.5-1.7,0.5c-0.5,0-0.9-0.1-1.2-0.3c-0.3-0.2-0.5-0.4-0.7-0.6s-0.3-0.4-0.4-0.5h-0.1v4.1H556.5z M557.7,109.3
							c0,0.6,0.1,1.1,0.3,1.6s0.4,0.8,0.8,1.1c0.3,0.3,0.7,0.4,1.2,0.4c0.5,0,0.9-0.1,1.3-0.4c0.3-0.3,0.6-0.6,0.8-1.1
							s0.3-1,0.3-1.5c0-0.6-0.1-1-0.3-1.5c-0.2-0.4-0.4-0.8-0.8-1.1c-0.3-0.3-0.8-0.4-1.3-0.4c-0.5,0-0.9,0.1-1.2,0.4
							s-0.6,0.6-0.8,1C557.8,108.2,557.7,108.7,557.7,109.3z"/>
						<path class="st4" d="M565.3,116.1v-10.8h1.2v1.2h0.1c0.1-0.1,0.2-0.3,0.4-0.5s0.4-0.4,0.7-0.6c0.3-0.2,0.7-0.3,1.2-0.3
							c0.7,0,1.2,0.2,1.7,0.5c0.5,0.3,0.9,0.8,1.2,1.4c0.3,0.6,0.4,1.3,0.4,2.1c0,0.8-0.1,1.6-0.4,2.2c-0.3,0.6-0.7,1.1-1.2,1.4
							c-0.5,0.3-1.1,0.5-1.7,0.5c-0.5,0-0.9-0.1-1.2-0.3c-0.3-0.2-0.5-0.4-0.7-0.6s-0.3-0.4-0.4-0.5h-0.1v4.1H565.3z M566.4,109.3
							c0,0.6,0.1,1.1,0.3,1.6s0.4,0.8,0.8,1.1c0.3,0.3,0.7,0.4,1.2,0.4c0.5,0,0.9-0.1,1.3-0.4c0.3-0.3,0.6-0.6,0.8-1.1
							s0.3-1,0.3-1.5c0-0.6-0.1-1-0.3-1.5c-0.2-0.4-0.4-0.8-0.8-1.1c-0.3-0.3-0.8-0.4-1.3-0.4c-0.5,0-0.9,0.1-1.2,0.4
							s-0.6,0.6-0.8,1C566.5,108.2,566.4,108.7,566.4,109.3z"/>
						<path class="st4" d="M574.2,113.2v-10.5h1.2v3.9h0.1c0.1-0.1,0.2-0.3,0.4-0.5c0.2-0.2,0.4-0.4,0.7-0.6
							c0.3-0.2,0.7-0.3,1.2-0.3c0.7,0,1.2,0.2,1.7,0.5c0.5,0.3,0.9,0.8,1.2,1.4c0.3,0.6,0.4,1.3,0.4,2.1c0,0.8-0.1,1.6-0.4,2.2
							s-0.7,1.1-1.2,1.4s-1.1,0.5-1.7,0.5c-0.5,0-0.9-0.1-1.2-0.3s-0.5-0.4-0.7-0.6c-0.2-0.2-0.3-0.4-0.4-0.5h-0.1v1.2H574.2z
							 M575.4,109.3c0,0.6,0.1,1.1,0.3,1.6c0.2,0.5,0.4,0.8,0.8,1.1c0.3,0.3,0.7,0.4,1.2,0.4c0.5,0,0.9-0.1,1.3-0.4
							c0.3-0.3,0.6-0.6,0.8-1.1c0.2-0.5,0.3-1,0.3-1.5c0-0.6-0.1-1-0.3-1.5c-0.2-0.4-0.4-0.8-0.8-1.1c-0.3-0.3-0.8-0.4-1.3-0.4
							c-0.5,0-0.9,0.1-1.2,0.4c-0.3,0.2-0.6,0.6-0.8,1C575.5,108.2,575.4,108.7,575.4,109.3z"/>
					</g>
				</g>
			</g>
			<g>
				<g>
					<g>
						<path class="st5" d="M495.1,74.7c0,1.4-0.2,2.5-0.7,3.5c-0.5,1-1.2,1.7-2,2.2c-0.9,0.5-1.8,0.8-2.9,0.8
							c-1.1,0-2.1-0.3-2.9-0.8c-0.9-0.5-1.5-1.3-2-2.2s-0.7-2.1-0.7-3.5c0-1.4,0.2-2.5,0.7-3.5c0.5-1,1.2-1.7,2-2.2
							c0.9-0.5,1.8-0.8,2.9-0.8c1.1,0,2.1,0.3,2.9,0.8c0.9,0.5,1.5,1.3,2,2.2C494.9,72.2,495.1,73.4,495.1,74.7z M493.2,74.7
							c0-1-0.2-1.9-0.5-2.6c-0.3-0.7-0.8-1.2-1.4-1.6c-0.6-0.4-1.2-0.5-2-0.5c-0.7,0-1.4,0.2-2,0.5c-0.6,0.4-1,0.9-1.4,1.6
							c-0.3,0.7-0.5,1.6-0.5,2.6s0.2,1.9,0.5,2.6c0.3,0.7,0.8,1.2,1.4,1.6c0.6,0.4,1.2,0.5,2,0.5c0.7,0,1.4-0.2,2-0.5
							c0.6-0.4,1-0.9,1.4-1.6C493,76.6,493.2,75.8,493.2,74.7z"/>
						<path class="st5" d="M501.7,81.3c-0.9,0-1.6-0.1-2.3-0.4s-1.2-0.7-1.6-1.2s-0.6-1.1-0.6-1.8h1.9c0,0.4,0.2,0.7,0.4,1
							s0.5,0.5,0.9,0.6s0.8,0.2,1.2,0.2c0.5,0,0.9-0.1,1.3-0.3s0.7-0.4,0.9-0.7c0.2-0.3,0.3-0.7,0.3-1.1c0-0.4-0.1-0.8-0.3-1.1
							c-0.2-0.3-0.5-0.6-0.9-0.8c-0.4-0.2-0.9-0.3-1.5-0.3h-1.1v-1.6h1.1c0.5,0,0.9-0.1,1.2-0.3c0.4-0.2,0.6-0.4,0.8-0.7
							c0.2-0.3,0.3-0.7,0.3-1.1c0-0.4-0.1-0.7-0.3-1s-0.4-0.5-0.7-0.7c-0.3-0.2-0.7-0.2-1.1-0.2c-0.4,0-0.8,0.1-1.2,0.2
							s-0.6,0.4-0.9,0.6c-0.2,0.3-0.3,0.6-0.4,1h-1.9c0-0.7,0.2-1.3,0.6-1.8c0.4-0.5,0.9-0.9,1.5-1.2c0.6-0.3,1.3-0.4,2.1-0.4
							c0.8,0,1.5,0.2,2.1,0.5c0.6,0.3,1.1,0.7,1.4,1.3c0.3,0.5,0.5,1.1,0.5,1.7c0,0.7-0.2,1.3-0.6,1.8c-0.4,0.5-0.9,0.8-1.6,1v0.1
							c0.8,0.1,1.5,0.5,2,1c0.5,0.5,0.7,1.2,0.7,2c0,0.7-0.2,1.3-0.6,1.9s-0.9,1-1.6,1.3S502.6,81.3,501.7,81.3z"/>
					</g>
				</g>
			</g>
		</g>
		<g>
			<path class="st6" d="M602,73.3c-1.1-3.5-4.3-6.1-8.1-6.1c-3.8,0-7.1,2.5-8.1,6c-0.2,0.8-0.4,1.7-0.4,2.5c0,0.8,0.1,1.7,0.4,2.4
				c1.1,3.5,4.3,6.1,8.1,6.1c3.8,0,7.1-2.5,8.1-6c0.2-0.8,0.4-1.7,0.4-2.5C602.3,74.9,602.2,74.1,602,73.3z M593.8,80.1
				c-1.4,0-2.6-0.7-3.5-1.8c-0.6-0.7-0.8-1.7-0.8-2.6c0-0.8,0.2-1.7,0.7-2.3c0.7-1.2,2.2-2,3.7-2s3,0.8,3.7,2.2
				c0.4,0.6,0.6,1.4,0.6,2.3c0,1.1-0.4,1.9-1,2.6C596.5,79.4,595.3,80.1,593.8,80.1z"/>
			<path class="st6" d="M592,75.9c0-1,0.8-1.8,1.8-1.8c1,0,1.8,0.8,1.8,1.8c0,1-0.8,1.8-1.8,1.8C592.9,77.7,592,76.9,592,75.9z"/>
		</g>
	</g>
	<g>
		<g>
			<g>
				<path class="st2" d="M903.9,121.4H777.8c-4.3,0-7.7-3.5-7.7-7.8V69.1c0-4.3,3.5-7.8,7.7-7.8h126.1c4.3,0,7.7,3.5,7.7,7.8v44.5
					C911.6,117.9,908.2,121.4,903.9,121.4z"/>
				<line class="st3" x1="779.6" y1="91.7" x2="902" y2="91.7"/>
			</g>
			<g>
				<g>
					<g>
						<path class="st4" d="M828.1,113.3c-0.9,0-1.6-0.2-2.3-0.5c-0.7-0.3-1.2-0.7-1.6-1.2s-0.6-1.1-0.6-1.8h2.5
							c0,0.3,0.1,0.5,0.3,0.8c0.2,0.2,0.4,0.4,0.7,0.5s0.6,0.2,1,0.2c0.4,0,0.7-0.1,1-0.2c0.3-0.1,0.5-0.3,0.7-0.6
							c0.2-0.2,0.2-0.5,0.2-0.8c0-0.3-0.1-0.6-0.3-0.8c-0.2-0.2-0.4-0.4-0.8-0.6c-0.3-0.1-0.7-0.2-1.2-0.2h-1.1v-1.9h1.1
							c0.4,0,0.7-0.1,1-0.2c0.3-0.1,0.5-0.3,0.7-0.6c0.2-0.2,0.2-0.5,0.2-0.8c0-0.3-0.1-0.6-0.2-0.8c-0.1-0.2-0.3-0.4-0.6-0.5
							c-0.3-0.1-0.6-0.2-0.9-0.2c-0.3,0-0.7,0.1-0.9,0.2c-0.3,0.1-0.5,0.3-0.7,0.5c-0.2,0.2-0.3,0.5-0.3,0.8h-2.4
							c0-0.7,0.2-1.3,0.6-1.8s0.9-0.9,1.5-1.2c0.6-0.3,1.4-0.4,2.2-0.4c0.8,0,1.5,0.1,2.2,0.4c0.6,0.3,1.1,0.7,1.4,1.2
							c0.3,0.5,0.5,1.1,0.5,1.7c0,0.7-0.2,1.2-0.6,1.7c-0.4,0.4-1,0.7-1.6,0.9v0.1c0.9,0.1,1.5,0.4,2,0.9s0.7,1.1,0.7,1.9
							c0,0.7-0.2,1.3-0.6,1.8s-0.9,0.9-1.6,1.2C829.8,113.2,829,113.3,828.1,113.3z"/>
						<path class="st4" d="M839.2,113.4c-1,0-1.9-0.3-2.6-0.7c-0.7-0.5-1.3-1.2-1.7-2.1c-0.4-0.9-0.6-2-0.6-3.4
							c0-1.3,0.2-2.4,0.6-3.3c0.4-0.9,0.9-1.6,1.7-2.1c0.7-0.5,1.6-0.7,2.6-0.7s1.9,0.2,2.6,0.7c0.7,0.5,1.3,1.2,1.7,2.1
							s0.6,2,0.6,3.3c0,1.3-0.2,2.4-0.6,3.4c-0.4,0.9-0.9,1.6-1.7,2.1C841,113.2,840.2,113.4,839.2,113.4z M839.2,111.3
							c0.7,0,1.2-0.3,1.6-1c0.4-0.7,0.6-1.7,0.6-3.1c0-0.9-0.1-1.7-0.3-2.3c-0.2-0.6-0.4-1.1-0.8-1.4c-0.3-0.3-0.7-0.5-1.2-0.5
							c-0.7,0-1.2,0.3-1.6,1s-0.6,1.7-0.6,3.1c0,0.9,0.1,1.7,0.3,2.3c0.2,0.6,0.4,1.1,0.8,1.4C838.3,111.2,838.7,111.3,839.2,111.3z
							"/>
						<path class="st4" d="M846.2,104.1v-0.6c0-0.5,0.1-0.9,0.3-1.3c0.2-0.4,0.5-0.7,0.9-1c0.4-0.2,0.9-0.4,1.4-0.4
							c0.6,0,1.1,0.1,1.4,0.4c0.4,0.2,0.7,0.6,0.9,1c0.2,0.4,0.3,0.8,0.3,1.3v0.6c0,0.5-0.1,0.9-0.3,1.3c-0.2,0.4-0.5,0.7-0.9,1
							s-0.9,0.4-1.4,0.4s-1-0.1-1.4-0.4c-0.4-0.2-0.7-0.6-0.9-1S846.2,104.6,846.2,104.1z M847,113.2l8.2-12h1.5l-8.2,12H847z
							 M847.9,103.5v0.6c0,0.3,0.1,0.5,0.2,0.8c0.1,0.2,0.4,0.4,0.7,0.4c0.4,0,0.6-0.1,0.7-0.4c0.1-0.2,0.2-0.5,0.2-0.8v-0.6
							c0-0.3-0.1-0.5-0.2-0.8s-0.4-0.4-0.7-0.4c-0.3,0-0.6,0.1-0.7,0.4C848,102.9,847.9,103.2,847.9,103.5z M852.3,110.9v-0.6
							c0-0.5,0.1-0.9,0.3-1.3c0.2-0.4,0.5-0.7,0.9-1s0.9-0.4,1.4-0.4c0.6,0,1.1,0.1,1.4,0.4c0.4,0.2,0.7,0.6,0.9,1
							c0.2,0.4,0.3,0.8,0.3,1.3v0.6c0,0.5-0.1,0.9-0.3,1.3c-0.2,0.4-0.5,0.7-0.9,1s-0.9,0.4-1.4,0.4c-0.6,0-1.1-0.1-1.4-0.4
							c-0.4-0.2-0.7-0.6-0.9-1S852.3,111.4,852.3,110.9z M854,110.3v0.6c0,0.3,0.1,0.5,0.2,0.8c0.1,0.2,0.4,0.4,0.7,0.4
							c0.4,0,0.6-0.1,0.7-0.4s0.2-0.5,0.2-0.8v-0.6c0-0.3-0.1-0.5-0.2-0.8c-0.1-0.2-0.4-0.4-0.7-0.4c-0.4,0-0.6,0.1-0.7,0.4
							C854.1,109.8,854,110,854,110.3z"/>
					</g>
				</g>
			</g>
			<g>
				<g>
					<path class="st5" d="M789.5,71.7c-0.1-0.6-0.3-1-0.8-1.4c-0.5-0.3-1.1-0.5-1.8-0.5c-0.5,0-1,0.1-1.4,0.2
						c-0.4,0.2-0.7,0.4-0.9,0.7s-0.3,0.6-0.3,1c0,0.3,0.1,0.6,0.2,0.8c0.1,0.2,0.3,0.4,0.6,0.5c0.2,0.1,0.5,0.3,0.8,0.4
						c0.3,0.1,0.5,0.2,0.8,0.2l1.2,0.3c0.4,0.1,0.8,0.2,1.2,0.4c0.4,0.2,0.8,0.4,1.2,0.7c0.4,0.3,0.7,0.6,0.9,1
						c0.2,0.4,0.3,0.9,0.3,1.5c0,0.7-0.2,1.4-0.6,1.9c-0.4,0.6-0.9,1-1.6,1.3s-1.5,0.5-2.5,0.5c-1,0-1.8-0.2-2.5-0.5
						c-0.7-0.3-1.2-0.7-1.6-1.3c-0.4-0.6-0.6-1.2-0.7-2h1.9c0,0.5,0.2,0.8,0.4,1.1c0.3,0.3,0.6,0.5,1,0.7c0.4,0.1,0.9,0.2,1.4,0.2
						c0.5,0,1-0.1,1.4-0.3c0.4-0.2,0.8-0.4,1-0.7c0.2-0.3,0.4-0.7,0.4-1.1c0-0.4-0.1-0.7-0.3-0.9s-0.5-0.4-0.9-0.6
						c-0.4-0.2-0.8-0.3-1.2-0.4l-1.5-0.4c-1-0.3-1.8-0.7-2.4-1.2c-0.6-0.5-0.9-1.2-0.9-2.1c0-0.7,0.2-1.4,0.6-1.9
						c0.4-0.5,0.9-1,1.6-1.3c0.7-0.3,1.4-0.5,2.3-0.5c0.9,0,1.6,0.2,2.3,0.5c0.7,0.3,1.2,0.7,1.6,1.2s0.6,1.1,0.6,1.8H789.5z"/>
					<path class="st5" d="M804.9,74.7c0,1.4-0.2,2.5-0.7,3.5c-0.5,1-1.2,1.7-2,2.2c-0.9,0.5-1.8,0.8-2.9,0.8c-1.1,0-2.1-0.3-2.9-0.8
						c-0.9-0.5-1.5-1.3-2-2.2s-0.7-2.1-0.7-3.5c0-1.4,0.2-2.5,0.7-3.5c0.5-1,1.2-1.7,2-2.2c0.9-0.5,1.8-0.8,2.9-0.8
						c1.1,0,2.1,0.3,2.9,0.8c0.9,0.5,1.5,1.3,2,2.2C804.6,72.2,804.9,73.4,804.9,74.7z M803,74.7c0-1-0.2-1.9-0.5-2.6
						c-0.3-0.7-0.8-1.2-1.4-1.6c-0.6-0.4-1.2-0.5-2-0.5c-0.7,0-1.4,0.2-2,0.5c-0.6,0.4-1,0.9-1.4,1.6c-0.3,0.7-0.5,1.6-0.5,2.6
						s0.2,1.9,0.5,2.6c0.3,0.7,0.8,1.2,1.4,1.6c0.6,0.4,1.2,0.5,2,0.5c0.7,0,1.4-0.2,2-0.5c0.6-0.4,1-0.9,1.4-1.6
						C802.8,76.6,803,75.8,803,74.7z"/>
					<path class="st5" d="M807.1,81.1v-1.4l4.3-4.5c0.5-0.5,0.8-0.9,1.1-1.3c0.3-0.4,0.5-0.7,0.7-1c0.1-0.3,0.2-0.7,0.2-1.1
						c0-0.4-0.1-0.8-0.3-1.1c-0.2-0.3-0.5-0.5-0.8-0.7c-0.3-0.2-0.7-0.3-1.2-0.3c-0.5,0-0.9,0.1-1.2,0.3c-0.3,0.2-0.6,0.4-0.8,0.8
						c-0.2,0.3-0.3,0.7-0.3,1.2h-1.8c0-0.8,0.2-1.4,0.5-2c0.4-0.6,0.8-1,1.5-1.3c0.6-0.3,1.3-0.5,2.1-0.5c0.8,0,1.5,0.2,2.1,0.5
						c0.6,0.3,1.1,0.7,1.4,1.3s0.5,1.2,0.5,1.8c0,0.5-0.1,0.9-0.3,1.4s-0.5,1-0.9,1.5c-0.4,0.6-1,1.2-1.8,2l-2.5,2.6v0.1h5.7v1.6
						H807.1z"/>
				</g>
			</g>
		</g>
		<g>
			<path class="st6" d="M900.1,73.3c-1.1-3.5-4.3-6.1-8.1-6.1c-3.8,0-7.1,2.5-8.1,6c-0.2,0.8-0.4,1.7-0.4,2.5c0,0.8,0.1,1.7,0.4,2.4
				c1.1,3.5,4.3,6.1,8.1,6.1c3.8,0,7.1-2.5,8.1-6c0.2-0.8,0.4-1.7,0.4-2.5C900.4,74.9,900.3,74.1,900.1,73.3z M891.9,80.1
				c-1.4,0-2.6-0.7-3.5-1.8c-0.6-0.7-0.8-1.7-0.8-2.6c0-0.8,0.2-1.7,0.7-2.3c0.7-1.2,2.2-2,3.7-2c1.6,0,3,0.8,3.7,2.2
				c0.4,0.6,0.6,1.4,0.6,2.3c0,1.1-0.4,1.9-1,2.6C894.5,79.4,893.3,80.1,891.9,80.1z"/>
			<path class="st6" d="M890.1,75.9c0-1,0.8-1.8,1.8-1.8s1.8,0.8,1.8,1.8c0,1-0.8,1.8-1.8,1.8S890.1,76.9,890.1,75.9z"/>
		</g>
	</g>
	<g>
		<g>
			<g>
				<path class="st2" d="M754.6,121.4H628.5c-4.3,0-7.7-3.5-7.7-7.8V69.1c0-4.3,3.5-7.8,7.7-7.8h126.1c4.3,0,7.7,3.5,7.7,7.8v44.5
					C762.4,117.9,758.9,121.4,754.6,121.4z"/>
				<line class="st3" x1="630.3" y1="91.7" x2="752.8" y2="91.7"/>
			</g>
			<g>
				<g>
					<g>
						<path class="st4" d="M653,113.2v-1.8l4.3-3.9c0.4-0.4,0.7-0.7,0.9-0.9s0.4-0.6,0.6-0.8c0.1-0.3,0.2-0.6,0.2-0.9
							c0-0.4-0.1-0.7-0.2-0.9s-0.4-0.5-0.7-0.6c-0.3-0.1-0.6-0.2-0.9-0.2c-0.4,0-0.7,0.1-1,0.2s-0.5,0.4-0.6,0.6
							c-0.1,0.3-0.2,0.6-0.2,1h-2.4c0-0.8,0.2-1.5,0.5-2c0.4-0.6,0.9-1,1.5-1.3c0.6-0.3,1.4-0.5,2.2-0.5c0.9,0,1.6,0.2,2.2,0.5
							c0.6,0.3,1.1,0.7,1.5,1.3s0.5,1.1,0.5,1.8c0,0.5-0.1,0.9-0.3,1.3c-0.2,0.4-0.5,0.9-0.9,1.5c-0.5,0.5-1.1,1.2-1.9,1.9l-1.7,1.7
							v0.1h5v2.1H653z"/>
						<path class="st4" d="M667.7,101.1c0.6,0,1.2,0.1,1.8,0.3c0.6,0.2,1.1,0.5,1.5,1c0.4,0.5,0.8,1,1.1,1.8
							c0.3,0.7,0.4,1.7,0.4,2.7c0,1-0.1,1.9-0.3,2.7c-0.2,0.8-0.6,1.5-1,2s-0.9,1-1.5,1.3s-1.3,0.4-2,0.4c-0.8,0-1.5-0.2-2.1-0.5
							c-0.6-0.3-1.1-0.7-1.5-1.3c-0.4-0.5-0.6-1.1-0.7-1.8h2.5c0.1,0.4,0.3,0.8,0.6,1s0.7,0.4,1.2,0.4c0.8,0,1.4-0.3,1.8-1
							c0.4-0.7,0.6-1.6,0.6-2.8h-0.1c-0.2,0.4-0.4,0.7-0.7,0.9c-0.3,0.3-0.7,0.4-1,0.6c-0.4,0.1-0.8,0.2-1.2,0.2
							c-0.7,0-1.3-0.2-1.9-0.5c-0.6-0.3-1-0.8-1.3-1.4s-0.5-1.2-0.5-2c0-0.8,0.2-1.5,0.6-2.1c0.4-0.6,0.9-1.1,1.6-1.5
							C666,101.2,666.8,101.1,667.7,101.1z M667.7,103c-0.4,0-0.7,0.1-1,0.3s-0.5,0.4-0.7,0.8c-0.2,0.3-0.3,0.7-0.3,1.1
							c0,0.4,0.1,0.7,0.3,1.1c0.2,0.3,0.4,0.6,0.7,0.7s0.6,0.3,1,0.3c0.3,0,0.6-0.1,0.8-0.2s0.5-0.3,0.7-0.5
							c0.2-0.2,0.3-0.4,0.4-0.7c0.1-0.3,0.2-0.5,0.2-0.8c0-0.4-0.1-0.7-0.3-1c-0.2-0.3-0.4-0.6-0.7-0.8S668.1,103,667.7,103z"/>
						<path class="st4" d="M675.7,113.3c-0.4,0-0.7-0.1-1-0.4s-0.4-0.6-0.4-1c0-0.4,0.1-0.7,0.4-1s0.6-0.4,1-0.4
							c0.4,0,0.7,0.1,1,0.4s0.4,0.6,0.4,1c0,0.3-0.1,0.5-0.2,0.7c-0.1,0.2-0.3,0.4-0.5,0.5S675.9,113.3,675.7,113.3z"/>
						<path class="st4" d="M683.4,101.1c0.6,0,1.2,0.1,1.8,0.3c0.6,0.2,1.1,0.5,1.5,1c0.4,0.5,0.8,1,1.1,1.8
							c0.3,0.7,0.4,1.7,0.4,2.7c0,1-0.1,1.9-0.3,2.7c-0.2,0.8-0.6,1.5-1,2s-0.9,1-1.5,1.3s-1.3,0.4-2,0.4c-0.8,0-1.5-0.2-2.1-0.5
							c-0.6-0.3-1.1-0.7-1.5-1.3c-0.4-0.5-0.6-1.1-0.7-1.8h2.5c0.1,0.4,0.3,0.8,0.6,1s0.7,0.4,1.2,0.4c0.8,0,1.4-0.3,1.8-1
							c0.4-0.7,0.6-1.6,0.6-2.8h-0.1c-0.2,0.4-0.4,0.7-0.7,0.9c-0.3,0.3-0.7,0.4-1,0.6c-0.4,0.1-0.8,0.2-1.2,0.2
							c-0.7,0-1.3-0.2-1.9-0.5c-0.6-0.3-1-0.8-1.3-1.4s-0.5-1.2-0.5-2c0-0.8,0.2-1.5,0.6-2.1c0.4-0.6,0.9-1.1,1.6-1.5
							C681.7,101.2,682.5,101.1,683.4,101.1z M683.4,103c-0.4,0-0.7,0.1-1,0.3s-0.5,0.4-0.7,0.8c-0.2,0.3-0.3,0.7-0.3,1.1
							c0,0.4,0.1,0.7,0.3,1.1c0.2,0.3,0.4,0.6,0.7,0.7s0.6,0.3,1,0.3c0.3,0,0.6-0.1,0.8-0.2s0.5-0.3,0.7-0.5
							c0.2-0.2,0.3-0.4,0.4-0.7c0.1-0.3,0.2-0.5,0.2-0.8c0-0.4-0.1-0.7-0.3-1c-0.2-0.3-0.4-0.6-0.7-0.8S683.8,103,683.4,103z"/>
						<path class="st4" d="M695.1,101.2v12h-2.5v-9.6h-0.1l-2.7,1.7v-2.2l3-1.9H695.1z"/>
						<path class="st4" d="M705.7,116.1v-10.8h1.2v1.2h0.1c0.1-0.1,0.2-0.3,0.4-0.5s0.4-0.4,0.7-0.6c0.3-0.2,0.7-0.3,1.2-0.3
							c0.7,0,1.2,0.2,1.7,0.5c0.5,0.3,0.9,0.8,1.2,1.4c0.3,0.6,0.4,1.3,0.4,2.1c0,0.8-0.1,1.6-0.4,2.2c-0.3,0.6-0.7,1.1-1.2,1.4
							c-0.5,0.3-1.1,0.5-1.7,0.5c-0.5,0-0.9-0.1-1.2-0.3c-0.3-0.2-0.5-0.4-0.7-0.6s-0.3-0.4-0.4-0.5h-0.1v4.1H705.7z M706.9,109.3
							c0,0.6,0.1,1.1,0.3,1.6s0.4,0.8,0.8,1.1c0.3,0.3,0.7,0.4,1.2,0.4c0.5,0,0.9-0.1,1.3-0.4c0.3-0.3,0.6-0.6,0.8-1.1
							s0.3-1,0.3-1.5c0-0.6-0.1-1-0.3-1.5c-0.2-0.4-0.4-0.8-0.8-1.1c-0.3-0.3-0.8-0.4-1.3-0.4c-0.5,0-0.9,0.1-1.2,0.4
							s-0.6,0.6-0.8,1C707,108.2,706.9,108.7,706.9,109.3z"/>
						<path class="st4" d="M714.5,116.1v-10.8h1.2v1.2h0.1c0.1-0.1,0.2-0.3,0.4-0.5s0.4-0.4,0.7-0.6c0.3-0.2,0.7-0.3,1.2-0.3
							c0.7,0,1.2,0.2,1.7,0.5c0.5,0.3,0.9,0.8,1.2,1.4c0.3,0.6,0.4,1.3,0.4,2.1c0,0.8-0.1,1.6-0.4,2.2c-0.3,0.6-0.7,1.1-1.2,1.4
							c-0.5,0.3-1.1,0.5-1.7,0.5c-0.5,0-0.9-0.1-1.2-0.3c-0.3-0.2-0.5-0.4-0.7-0.6s-0.3-0.4-0.4-0.5h-0.1v4.1H714.5z M715.7,109.3
							c0,0.6,0.1,1.1,0.3,1.6s0.4,0.8,0.8,1.1c0.3,0.3,0.7,0.4,1.2,0.4c0.5,0,0.9-0.1,1.3-0.4c0.3-0.3,0.6-0.6,0.8-1.1
							s0.3-1,0.3-1.5c0-0.6-0.1-1-0.3-1.5c-0.2-0.4-0.4-0.8-0.8-1.1c-0.3-0.3-0.8-0.4-1.3-0.4c-0.5,0-0.9,0.1-1.2,0.4
							s-0.6,0.6-0.8,1C715.8,108.2,715.7,108.7,715.7,109.3z"/>
						<path class="st4" d="M723.4,113.2v-10.5h1.2v3.9h0.1c0.1-0.1,0.2-0.3,0.4-0.5c0.2-0.2,0.4-0.4,0.7-0.6
							c0.3-0.2,0.7-0.3,1.2-0.3c0.7,0,1.2,0.2,1.7,0.5c0.5,0.3,0.9,0.8,1.2,1.4c0.3,0.6,0.4,1.3,0.4,2.1c0,0.8-0.1,1.6-0.4,2.2
							s-0.7,1.1-1.2,1.4s-1.1,0.5-1.7,0.5c-0.5,0-0.9-0.1-1.2-0.3s-0.5-0.4-0.7-0.6c-0.2-0.2-0.3-0.4-0.4-0.5h-0.1v1.2H723.4z
							 M724.6,109.3c0,0.6,0.1,1.1,0.3,1.6c0.2,0.5,0.4,0.8,0.8,1.1c0.3,0.3,0.7,0.4,1.2,0.4c0.5,0,0.9-0.1,1.3-0.4
							c0.3-0.3,0.6-0.6,0.8-1.1c0.2-0.5,0.3-1,0.3-1.5c0-0.6-0.1-1-0.3-1.5c-0.2-0.4-0.4-0.8-0.8-1.1c-0.3-0.3-0.8-0.4-1.3-0.4
							c-0.5,0-0.9,0.1-1.2,0.4c-0.3,0.2-0.6,0.6-0.8,1C724.7,108.2,724.6,108.7,724.6,109.3z"/>
					</g>
				</g>
			</g>
			<g>
				<g>
					<path class="st5" d="M643.6,68.4v12.7h-1.8l-6.5-9.3h-0.1v9.3h-1.9V68.4h1.8l6.5,9.3h0.1v-9.3H643.6z"/>
					<path class="st5" d="M657.4,74.7c0,1.4-0.2,2.5-0.7,3.5c-0.5,1-1.2,1.7-2,2.2c-0.9,0.5-1.8,0.8-2.9,0.8c-1.1,0-2.1-0.3-2.9-0.8
						c-0.9-0.5-1.5-1.3-2-2.2s-0.7-2.1-0.7-3.5c0-1.4,0.2-2.5,0.7-3.5c0.5-1,1.2-1.7,2-2.2c0.9-0.5,1.8-0.8,2.9-0.8
						c1.1,0,2.1,0.3,2.9,0.8c0.9,0.5,1.5,1.3,2,2.2C657.2,72.2,657.4,73.4,657.4,74.7z M655.5,74.7c0-1-0.2-1.9-0.5-2.6
						c-0.3-0.7-0.8-1.2-1.4-1.6c-0.6-0.4-1.2-0.5-2-0.5c-0.7,0-1.4,0.2-2,0.5c-0.6,0.4-1,0.9-1.4,1.6c-0.3,0.7-0.5,1.6-0.5,2.6
						s0.2,1.9,0.5,2.6c0.3,0.7,0.8,1.2,1.4,1.6c0.6,0.4,1.2,0.5,2,0.5c0.7,0,1.4-0.2,2-0.5c0.6-0.4,1-0.9,1.4-1.6
						C655.3,76.6,655.5,75.8,655.5,74.7z"/>
					<path class="st5" d="M659.6,81.1v-1.4l4.3-4.5c0.5-0.5,0.8-0.9,1.1-1.3c0.3-0.4,0.5-0.7,0.7-1c0.1-0.3,0.2-0.7,0.2-1.1
						c0-0.4-0.1-0.8-0.3-1.1c-0.2-0.3-0.5-0.5-0.8-0.7c-0.3-0.2-0.7-0.3-1.2-0.3c-0.5,0-0.9,0.1-1.2,0.3s-0.6,0.4-0.8,0.8
						c-0.2,0.3-0.3,0.7-0.3,1.2h-1.8c0-0.8,0.2-1.4,0.5-2c0.4-0.6,0.8-1,1.5-1.3c0.6-0.3,1.3-0.5,2.1-0.5c0.8,0,1.5,0.2,2.1,0.5
						c0.6,0.3,1.1,0.7,1.4,1.3c0.3,0.5,0.5,1.2,0.5,1.8c0,0.5-0.1,0.9-0.3,1.4s-0.5,1-0.9,1.5c-0.4,0.6-1,1.2-1.8,2l-2.5,2.6v0.1
						h5.7v1.6H659.6z"/>
				</g>
			</g>
		</g>
		<g>
			<path class="st7" d="M753.1,73.3c-1.1-3.5-4.3-6.1-8.1-6.1c-3.8,0-7.1,2.5-8.1,6c-0.2,0.8-0.4,1.7-0.4,2.5c0,0.8,0.1,1.7,0.4,2.4
				c1.1,3.5,4.3,6.1,8.1,6.1c3.8,0,7.1-2.5,8.1-6c0.2-0.8,0.4-1.7,0.4-2.5C753.4,74.9,753.3,74.1,753.1,73.3z M744.9,80.1
				c-1.4,0-2.6-0.7-3.5-1.8c-0.6-0.7-0.8-1.7-0.8-2.6c0-0.8,0.2-1.7,0.7-2.3c0.7-1.2,2.2-2,3.7-2s3,0.8,3.7,2.2
				c0.4,0.6,0.6,1.4,0.6,2.3c0,1.1-0.4,1.9-1,2.6C747.6,79.4,746.4,80.1,744.9,80.1z"/>
			<path class="st7" d="M743.1,75.9c0-1,0.8-1.8,1.8-1.8c1,0,1.8,0.8,1.8,1.8c0,1-0.8,1.8-1.8,1.8C744,77.7,743.1,76.9,743.1,75.9z"
				/>
		</g>
	</g>
</g>
<g>
	<g>
		<g>
			<path class="st8" d="M1355.4,38l-12,8.6c-0.8,0.6-2.1,0-2.1-1.1V28.2c0-1.1,1.3-1.8,2.1-1.1l12,8.6
				C1356.2,36.4,1356.2,37.5,1355.4,38z"/>
		</g>
	</g>
	<g>
		<g>
			<path class="st8" d="M1299.8,38l12,8.6c0.8,0.6,2.1,0,2.1-1.1V28.2c0-1.1-1.3-1.8-2.1-1.1l-12,8.6C1299,36.4,1299,37.5,1299.8,38
				z"/>
		</g>
	</g>
</g>
</svg>
