<?xml version="1.0" encoding="utf-8"?>
<!-- Generator: Adobe Illustrator 28.1.0, SVG Export Plug-In . SVG Version: 6.00 Build 0)  -->
<svg version="1.1" id="Layer_1" xmlns="http://www.w3.org/2000/svg" xmlns:xlink="http://www.w3.org/1999/xlink" x="0px" y="0px"
	 viewBox="0 0 286 43" style="enable-background:new 0 0 286 43;" xml:space="preserve">
<style type="text/css">
	.st0{fill:#FFE12D;stroke:#FFFFFF;stroke-width:1.2529;stroke-miterlimit:10;}
	.st1{fill:#4F4F4F;}
</style>
<g>
	<g>
		<g>
			<g>
				<path class="st0" d="M271.2,39H14.8C11.1,39,8,36,8,32.3V10.7C8,7,11.1,4,14.8,4h256.5c3.7,0,6.7,3,6.7,6.7v21.6
					C277.8,36,274.9,39,271.2,39z"/>
			</g>
		</g>
		<g>
			<path class="st1" d="M168.3,15.7h2.5l4.3,10.5h0.2l4.3-10.5h2.5v13.4H180v-9.7h-0.1l-4,9.7h-1.6l-4-9.7h-0.1v9.7h-1.9V15.7z"/>
			<path class="st1" d="M189,29.3c-0.9,0-1.8-0.2-2.5-0.6c-0.7-0.4-1.3-1-1.6-1.8s-0.6-1.7-0.6-2.7c0-1,0.2-2,0.6-2.7
				c0.4-0.8,0.9-1.4,1.6-1.8c0.7-0.4,1.5-0.6,2.5-0.6s1.8,0.2,2.5,0.6c0.7,0.4,1.3,1,1.6,1.8c0.4,0.8,0.6,1.7,0.6,2.7
				c0,1-0.2,2-0.6,2.7s-0.9,1.4-1.6,1.8C190.7,29.1,189.9,29.3,189,29.3z M189,27.7c0.6,0,1.1-0.2,1.5-0.5c0.4-0.3,0.7-0.8,0.9-1.3
				c0.2-0.5,0.3-1.1,0.3-1.8c0-0.6-0.1-1.2-0.3-1.8c-0.2-0.5-0.5-1-0.9-1.3c-0.4-0.3-0.9-0.5-1.5-0.5c-0.6,0-1.1,0.2-1.5,0.5
				c-0.4,0.3-0.7,0.8-0.9,1.3c-0.2,0.5-0.3,1.1-0.3,1.8c0,0.6,0.1,1.2,0.3,1.8c0.2,0.5,0.5,1,0.9,1.3
				C187.8,27.5,188.3,27.7,189,27.7z"/>
			<path class="st1" d="M199.6,29.3c-0.8,0-1.5-0.2-2.2-0.6c-0.6-0.4-1.1-1-1.5-1.8s-0.5-1.7-0.5-2.8c0-1.1,0.2-2,0.5-2.8
				c0.4-0.8,0.9-1.4,1.5-1.8c0.6-0.4,1.4-0.6,2.2-0.6c0.6,0,1.1,0.1,1.5,0.3c0.4,0.2,0.7,0.4,0.9,0.7c0.2,0.3,0.4,0.5,0.5,0.7h0.1
				v-5h2v13.4h-1.9v-1.6h-0.2c-0.1,0.2-0.3,0.5-0.5,0.7c-0.2,0.3-0.5,0.5-0.9,0.7C200.7,29.2,200.2,29.3,199.6,29.3z M200.1,27.6
				c0.6,0,1-0.1,1.4-0.4s0.7-0.7,0.9-1.3c0.2-0.5,0.3-1.2,0.3-1.9c0-0.7-0.1-1.3-0.3-1.8c-0.2-0.5-0.5-0.9-0.9-1.2
				c-0.4-0.3-0.9-0.4-1.4-0.4c-0.6,0-1.1,0.2-1.5,0.5c-0.4,0.3-0.7,0.7-0.9,1.3c-0.2,0.5-0.3,1.1-0.3,1.8c0,0.7,0.1,1.3,0.3,1.8
				s0.5,1,0.9,1.3C199,27.5,199.5,27.6,200.1,27.6z"/>
			<path class="st1" d="M211.8,29.3c-1,0-1.8-0.2-2.6-0.6s-1.3-1-1.7-1.8s-0.6-1.7-0.6-2.7c0-1,0.2-1.9,0.6-2.7
				c0.4-0.8,0.9-1.4,1.6-1.8s1.5-0.7,2.5-0.7c0.6,0,1.1,0.1,1.7,0.3c0.5,0.2,1,0.5,1.4,0.9c0.4,0.4,0.8,0.9,1,1.6
				c0.2,0.6,0.4,1.4,0.4,2.3v0.7h-8v-1.5h6.1c0-0.5-0.1-1-0.3-1.4c-0.2-0.4-0.5-0.7-0.9-0.9c-0.4-0.2-0.8-0.3-1.3-0.3
				c-0.6,0-1,0.1-1.4,0.4c-0.4,0.3-0.7,0.6-0.9,1.1c-0.2,0.4-0.3,0.9-0.3,1.4v1.1c0,0.7,0.1,1.2,0.4,1.7c0.2,0.5,0.6,0.8,1,1.1
				c0.4,0.2,0.9,0.4,1.5,0.4c0.4,0,0.7-0.1,1-0.2c0.3-0.1,0.6-0.3,0.8-0.5c0.2-0.2,0.4-0.5,0.5-0.8l1.9,0.3c-0.1,0.5-0.4,1-0.8,1.4
				s-0.9,0.7-1.4,1C213.1,29.2,212.5,29.3,211.8,29.3z"/>
			<path class="st1" d="M218.3,29.1V19h1.9v1.6h0.1c0.2-0.5,0.5-1,1-1.3s1-0.5,1.6-0.5c0.1,0,0.3,0,0.4,0c0.2,0,0.3,0,0.4,0v1.9
				c-0.1,0-0.2,0-0.4-0.1c-0.2,0-0.4,0-0.6,0c-0.5,0-0.9,0.1-1.2,0.3s-0.6,0.5-0.9,0.8c-0.2,0.3-0.3,0.7-0.3,1.2v6.2H218.3z"/>
			<path class="st1" d="M228.3,29.3c-0.6,0-1.2-0.1-1.7-0.4c-0.5-0.2-0.9-0.6-1.2-1c-0.3-0.5-0.5-1-0.5-1.7c0-0.6,0.1-1,0.3-1.4
				c0.2-0.4,0.5-0.7,0.9-0.9s0.8-0.4,1.2-0.5c0.5-0.1,0.9-0.2,1.4-0.2c0.6-0.1,1.1-0.1,1.5-0.2c0.4,0,0.7-0.1,0.8-0.2
				c0.2-0.1,0.3-0.3,0.3-0.5v0c0-0.6-0.2-1-0.5-1.3c-0.3-0.3-0.8-0.5-1.4-0.5c-0.7,0-1.2,0.1-1.6,0.4c-0.4,0.3-0.6,0.6-0.8,1
				l-1.8-0.4c0.2-0.6,0.5-1.1,1-1.5c0.4-0.4,0.9-0.7,1.5-0.8c0.6-0.2,1.1-0.3,1.7-0.3c0.4,0,0.8,0,1.3,0.1s0.9,0.3,1.3,0.5
				c0.4,0.2,0.7,0.6,1,1.1c0.3,0.5,0.4,1.1,0.4,1.8v6.7h-1.9v-1.4h-0.1c-0.1,0.3-0.3,0.5-0.6,0.7c-0.3,0.2-0.6,0.4-1,0.6
				C229.3,29.3,228.9,29.3,228.3,29.3z M228.7,27.8c0.5,0,1-0.1,1.4-0.3c0.4-0.2,0.7-0.5,0.9-0.8c0.2-0.3,0.3-0.7,0.3-1.1v-1.3
				c-0.1,0.1-0.2,0.1-0.4,0.2s-0.4,0.1-0.7,0.2s-0.5,0.1-0.7,0.1c-0.2,0-0.4,0.1-0.6,0.1c-0.4,0-0.7,0.1-1,0.2
				c-0.3,0.1-0.6,0.3-0.7,0.5c-0.2,0.2-0.3,0.5-0.3,0.8c0,0.5,0.2,0.9,0.5,1.1C227.7,27.6,228.2,27.8,228.7,27.8z"/>
			<path class="st1" d="M240.6,19v1.6h-5.5V19H240.6z M236.6,16.6h2v9.5c0,0.4,0.1,0.7,0.2,0.9c0.1,0.2,0.3,0.3,0.4,0.4
				c0.2,0.1,0.4,0.1,0.6,0.1c0.2,0,0.3,0,0.4,0c0.1,0,0.2,0,0.3-0.1l0.4,1.6c-0.1,0-0.3,0.1-0.5,0.1s-0.5,0.1-0.8,0.1
				c-0.5,0-1-0.1-1.4-0.3c-0.4-0.2-0.8-0.5-1.1-0.9c-0.3-0.4-0.4-0.9-0.4-1.5V16.6z"/>
			<path class="st1" d="M247.1,29.3c-1,0-1.8-0.2-2.6-0.6s-1.3-1-1.7-1.8s-0.6-1.7-0.6-2.7c0-1,0.2-1.9,0.6-2.7
				c0.4-0.8,0.9-1.4,1.6-1.8s1.5-0.7,2.5-0.7c0.6,0,1.1,0.1,1.7,0.3c0.5,0.2,1,0.5,1.4,0.9c0.4,0.4,0.8,0.9,1,1.6
				c0.2,0.6,0.4,1.4,0.4,2.3v0.7h-8v-1.5h6.1c0-0.5-0.1-1-0.3-1.4c-0.2-0.4-0.5-0.7-0.9-0.9c-0.4-0.2-0.8-0.3-1.3-0.3
				c-0.6,0-1,0.1-1.4,0.4c-0.4,0.3-0.7,0.6-0.9,1.1c-0.2,0.4-0.3,0.9-0.3,1.4v1.1c0,0.7,0.1,1.2,0.4,1.7c0.2,0.5,0.6,0.8,1,1.1
				c0.4,0.2,0.9,0.4,1.5,0.4c0.4,0,0.7-0.1,1-0.2c0.3-0.1,0.6-0.3,0.8-0.5c0.2-0.2,0.4-0.5,0.5-0.8l1.9,0.3c-0.1,0.5-0.4,1-0.8,1.4
				s-0.9,0.7-1.4,1C248.5,29.2,247.8,29.3,247.1,29.3z"/>
		</g>
		<g>
			<path class="st1" d="M25.3,29.1h-2.2L28,15.7h2.3l4.8,13.4H33l-3.8-11h-0.1L25.3,29.1z M25.7,23.8h7v1.7h-7V23.8z"/>
			<path class="st1" d="M48.8,22.4c0,1.4-0.3,2.7-0.8,3.7s-1.2,1.8-2.2,2.4s-1.9,0.8-3.1,0.8c-1.2,0-2.2-0.3-3.1-0.8
				c-0.9-0.6-1.6-1.3-2.2-2.4c-0.5-1-0.8-2.3-0.8-3.7c0-1.4,0.3-2.7,0.8-3.7c0.5-1,1.2-1.8,2.2-2.4c0.9-0.6,2-0.8,3.1-0.8
				c1.2,0,2.2,0.3,3.1,0.8s1.6,1.3,2.2,2.4C48.5,19.7,48.8,21,48.8,22.4z M46.8,22.4c0-1.1-0.2-2-0.5-2.8c-0.4-0.8-0.8-1.3-1.4-1.7
				s-1.3-0.6-2.1-0.6c-0.8,0-1.5,0.2-2.1,0.6s-1.1,1-1.4,1.7c-0.4,0.8-0.5,1.7-0.5,2.8c0,1.1,0.2,2,0.5,2.8c0.4,0.8,0.8,1.3,1.4,1.7
				c0.6,0.4,1.3,0.6,2.1,0.6c0.8,0,1.5-0.2,2.1-0.6c0.6-0.4,1.1-1,1.4-1.7C46.6,24.4,46.8,23.5,46.8,22.4z M42.1,24.8h2l1.4,1.8
				l0.7,0.8l2.2,2.9h-2.1l-1.5-1.9l-0.5-0.7L42.1,24.8z"/>
			<path class="st1" d="M53.4,15.7v13.4h-2V15.7H53.4z"/>
		</g>
		<g>
			<g>
				<path class="st1" d="M77.7,15.5c0.7,0,1.4,0.1,2,0.3c0.6,0.2,1.2,0.6,1.7,1.1c0.5,0.5,0.9,1.2,1.2,2c0.3,0.8,0.4,1.9,0.5,3.1
					c0,1.1-0.1,2.2-0.4,3.1c-0.3,0.9-0.6,1.7-1.1,2.3c-0.5,0.6-1.1,1.1-1.7,1.4c-0.7,0.3-1.4,0.5-2.3,0.5c-0.9,0-1.7-0.2-2.4-0.5
					c-0.7-0.3-1.2-0.8-1.7-1.4c-0.4-0.6-0.7-1.3-0.8-2h2.8c0.1,0.5,0.3,0.9,0.7,1.1c0.4,0.3,0.8,0.4,1.3,0.4c0.9,0,1.5-0.4,2-1.1
					s0.7-1.8,0.7-3.1h-0.1c-0.2,0.4-0.5,0.7-0.8,1s-0.7,0.5-1.2,0.7c-0.4,0.2-0.9,0.2-1.4,0.2c-0.8,0-1.5-0.2-2.1-0.6
					c-0.6-0.4-1.1-0.9-1.5-1.5c-0.4-0.7-0.5-1.4-0.5-2.2c0-0.9,0.2-1.7,0.6-2.4c0.4-0.7,1-1.3,1.8-1.7S76.7,15.5,77.7,15.5z
					 M77.7,17.7c-0.4,0-0.8,0.1-1.2,0.3c-0.3,0.2-0.6,0.5-0.8,0.8s-0.3,0.8-0.3,1.2c0,0.4,0.1,0.8,0.3,1.2c0.2,0.4,0.5,0.6,0.8,0.8
					s0.7,0.3,1.2,0.3c0.3,0,0.6-0.1,0.9-0.2s0.5-0.3,0.7-0.5c0.2-0.2,0.4-0.5,0.5-0.8s0.2-0.6,0.2-0.9c0-0.4-0.1-0.8-0.3-1.2
					c-0.2-0.4-0.5-0.6-0.8-0.9S78.1,17.7,77.7,17.7z"/>
				<path class="st1" d="M90.3,29.4c-1.1,0-2.1-0.3-2.9-0.8c-0.8-0.6-1.4-1.4-1.9-2.4c-0.4-1-0.7-2.3-0.6-3.8c0-1.5,0.2-2.7,0.7-3.7
					c0.4-1,1.1-1.8,1.9-2.4c0.8-0.5,1.8-0.8,2.9-0.8c1.1,0,2.1,0.3,2.9,0.8c0.8,0.5,1.4,1.3,1.9,2.4c0.4,1,0.7,2.3,0.7,3.7
					c0,1.5-0.2,2.7-0.7,3.8S94,28,93.2,28.6S91.4,29.4,90.3,29.4z M90.3,27.1c0.8,0,1.4-0.4,1.8-1.2c0.5-0.8,0.7-1.9,0.7-3.5
					c0-1-0.1-1.9-0.3-2.5s-0.5-1.2-0.9-1.5c-0.4-0.3-0.8-0.5-1.3-0.5c-0.8,0-1.4,0.4-1.8,1.1c-0.5,0.8-0.7,1.9-0.7,3.4
					c0,1,0.1,1.9,0.3,2.6c0.2,0.7,0.5,1.2,0.9,1.5C89.3,26.9,89.8,27.1,90.3,27.1z"/>
			</g>
		</g>
	</g>
	<g>
		<path class="st1" d="M158,23.4c-0.2-0.3-0.6-0.5-1-0.6c-0.1,0-0.1,0-0.2,0c0,0,0,0,0,0c0-0.2,0.2-0.7,0.2-0.9
			c0.1-0.2,0.1-0.3,0.1-0.4c0.1-0.6,0.2-1.2,0.3-1.8c0.2-1.6,0-3.1-0.5-4.3c-0.5-1.3-1.6-2.4-2.9-3.1c-0.1,0-0.2,0-0.2,0
			c0.3-0.2,0.7-0.5,1-0.9c0.1-0.1,0.1-0.3-0.1-0.4c-0.1-0.1-0.3-0.1-0.4,0.1c-0.9,1.2-1.8,1-1.9,1c-0.1,0-0.3,0.1-0.3,0.2
			c0,0.1,0,0.3,0.2,0.3c0,0,0.1,0,0.3,0c0.2,0,0.5,0,0.9-0.2c0,0-0.1,0.1-0.1,0.1c-0.1,0.2,0,0.4,0.2,0.5c1.2,0.6,2.1,1.5,2.6,2.7
			c0.4,1.1,0.6,2.4,0.4,3.9c-0.1,0.5-0.2,1.1-0.3,1.7c0,0.1-0.1,0.2-0.1,0.3c-0.1,0.2-0.2,0.5-0.2,0.7c-0.1-1.4-1.5-2.5-2.3-3.1
			l-0.1-0.1c-0.4-0.3-0.8-0.6-1.2-0.8c-0.2-0.1-0.4-0.3-0.6-0.4c-0.7-0.5-1-0.9-0.9-1.4c0-0.1-0.1-0.3-0.2-0.3
			c-0.1,0-0.3,0.1-0.3,0.2c0,0.7,0.3,1.3,1.2,1.9c0.2,0.1,0.4,0.3,0.6,0.4c0.4,0.2,0.8,0.5,1.1,0.8l0.1,0.1c0.8,0.7,2.1,1.6,2.1,2.9
			c0,0.1,0.1,0.3,0.3,0.3c0.1,0,0.1,0,0.2-0.1c0,0.3,0,0.5,0.3,0.6c0.2,0.1,0.3,0.1,0.5,0.1c0,0,0.1,0,0.1,0c0.2,0,0.3,0.1,0.4,0.3
			c0.1,0.2,0.1,0.3,0.1,0.5l-0.6,2.2c-0.1,0.5-0.6,0.8-1.1,0.8l0,0l0.8-2.6c0.1-0.2,0-0.4-0.2-0.5c-0.2-0.1-0.4,0-0.5,0.2l-1,3
			c-1.4,3.9-3.7,5.9-6.6,5.9c-3,0-5.2-2-6.6-5.9l-1-3c-0.1-0.2-0.3-0.3-0.5-0.2c-0.2,0.1-0.3,0.3-0.2,0.5l0.8,2.6l0,0
			c-0.5,0.1-1-0.3-1.1-0.8l-0.6-2.2c0-0.2,0-0.4,0.1-0.5c0.1-0.2,0.3-0.2,0.4-0.3c0.1,0,0.1,0,0.2,0c0.2,0,0.6,0,0.7-0.5
			c0,0.1,0.1,0.2,0.2,0.2c0,0,0,0,0,0c0.7,0,1.2-0.7,1.5-1.2c0.2-0.5,0.2-1,0.3-1.5c0-0.3,0-0.5,0.1-0.7c0.2-1.1,0.9-2.1,1.8-2.7
			c0.5-0.3,1.1-0.5,1.8-0.6c0.5,0,1,0,1.5,0c0.2,0,0.5,0,0.7,0c0.3,0,0.8,0,1.2-0.1c0.3-0.1,0.9-0.2,1.1-0.7c0.1-0.1,0-0.3-0.1-0.3
			c-0.1-0.1-0.3,0-0.3,0.1c-0.1,0.2-0.6,0.3-0.8,0.4c-0.4,0.1-0.8,0.1-1.1,0.1c-0.2,0-0.5,0-0.7,0c-0.5,0-1,0-1.6,0
			c-0.8,0.1-1.4,0.3-2,0.6c-1.1,0.7-1.8,1.8-2.1,3c0,0.3-0.1,0.5-0.1,0.8c0,0.5-0.1,0.9-0.2,1.3c-0.2,0.4-0.5,0.9-1,0.9
			c-0.1,0-0.2,0.1-0.2,0.1c0-0.3-0.1-0.7-0.2-1c-0.1-0.2-0.1-0.3-0.2-0.5c-0.5-2.3-0.5-4.2,0.2-5.7c1.2-2.8,4.5-3.4,7-3.4
			c0.1,0,1.5,0,3.2-0.2c2.3-0.2,3.8-0.6,4.5-1.2c0.2-0.1,0.2-0.4,0.1-0.5c-0.1-0.2-0.4-0.2-0.5-0.1c-1.3,1-5.6,1.2-7.2,1.2
			c-1.7,0-3.2,0.3-4.4,0.8c-1.5,0.7-2.6,1.7-3.3,3.1c-0.7,1.7-0.8,3.7-0.2,6.2c0,0.2,0.1,0.4,0.2,0.6c0.1,0.2,0.2,0.5,0.2,0.7
			c0,0,0,0,0,0c-0.1,0-0.1,0-0.2,0c-0.4,0.1-0.7,0.3-1,0.6c-0.2,0.3-0.3,0.7-0.2,1.1l0.6,2.2c0.2,0.9,1.1,1.4,2,1.3l0.2,0
			c0.7,1.7,1.5,3.1,2.5,4.1c1.3,1.3,2.9,2,4.7,2c1.8,0,3.4-0.7,4.7-2c1-1,1.8-2.4,2.5-4.1l0.2,0c0.9,0.1,1.7-0.4,2-1.3l0.6-2.2
			C158.3,24.1,158.2,23.7,158,23.4z"/>
		<path class="st1" d="M144.8,22.7v1c0,0.2,0.2,0.4,0.4,0.4c0.2,0,0.4-0.2,0.4-0.4v-1c0-0.2-0.2-0.4-0.4-0.4
			C145,22.3,144.8,22.5,144.8,22.7z"/>
		<path class="st1" d="M146,21.7c0.1,0.1,0.2,0.1,0.4,0c0.1-0.1,0.1-0.2,0-0.4c-0.3-0.3-0.8-0.6-1.4-0.6c-0.7,0-1.3,0.3-1.5,0.8
			c-0.1,0.1,0,0.3,0.1,0.3c0,0,0.1,0,0.1,0c0.1,0,0.2-0.1,0.2-0.1c0.1-0.2,0.5-0.5,1.1-0.5C145.4,21.3,145.8,21.4,146,21.7z"/>
		<path class="st1" d="M151.3,22.3c-0.2,0-0.4,0.2-0.4,0.4v1c0,0.2,0.2,0.4,0.4,0.4l0,0c0.2,0,0.4-0.2,0.4-0.4v-1
			C151.7,22.5,151.5,22.3,151.3,22.3L151.3,22.3z"/>
		<path class="st1" d="M152.6,21.8c0,0.1,0.1,0.1,0.2,0.1c0,0,0.1,0,0.1,0c0.1-0.1,0.2-0.2,0.1-0.3c-0.2-0.5-0.8-0.8-1.5-0.8
			c-0.6,0-1.1,0.2-1.4,0.6c-0.1,0.1-0.1,0.3,0,0.4c0.1,0.1,0.3,0.1,0.4,0c0.2-0.2,0.6-0.4,1-0.4C152.1,21.3,152.5,21.5,152.6,21.8z"
			/>
		<path class="st1" d="M147.9,26.3c0.1,0,0.2,0,0.2-0.1c0.3-0.4,0.4-2,0.4-2.3c0-0.1-0.1-0.3-0.2-0.3c-0.1,0-0.3,0.1-0.3,0.2
			c0,0.8-0.2,1.8-0.3,2c-0.1,0.1-0.1,0.3,0.1,0.4C147.8,26.3,147.8,26.3,147.9,26.3z"/>
		<path class="st1" d="M145.9,29.7h4.7c0.1,0,0.3-0.1,0.3-0.3c0-0.1-0.1-0.3-0.3-0.3h-4.7c-0.1,0-0.3,0.1-0.3,0.3
			C145.6,29.6,145.8,29.7,145.9,29.7z"/>
	</g>
</g>
</svg>
