<?xml version="1.0" encoding="utf-8"?>
<!-- Generator: Adobe Illustrator 28.1.0, SVG Export Plug-In . SVG Version: 6.00 Build 0)  -->
<svg version="1.1" id="Layer_1" xmlns="http://www.w3.org/2000/svg" xmlns:xlink="http://www.w3.org/1999/xlink" x="0px" y="0px"
	 viewBox="0 0 154 43" style="enable-background:new 0 0 154 43;" xml:space="preserve">
<style type="text/css">
	.st0{fill:#EBEBEB;stroke:#E7E7E7;stroke-width:3.1586;stroke-linecap:round;stroke-linejoin:round;stroke-miterlimit:10;}
	.st1{fill:#C5C8D2;}
</style>
<g>
	<path class="st0" d="M130,36.8H24c-8.4,0-15.3-6.9-15.3-15.3v0c0-8.4,6.9-15.3,15.3-15.3h106c8.4,0,15.3,6.9,15.3,15.3v0
		C145.3,29.9,138.4,36.8,130,36.8z"/>
	<g>
		<g>
			<path class="st1" d="M49.4,13.9h2.5l4.4,10.7h0.2l4.4-10.7h2.5v13.8h-2v-10h-0.1l-4.1,10h-1.6l-4.1-10h-0.1v10h-2V13.9z"/>
			<path class="st1" d="M70.6,27.9c-1,0-1.8-0.2-2.5-0.7c-0.7-0.4-1.3-1.1-1.7-1.9s-0.6-1.7-0.6-2.8c0-1.1,0.2-2,0.6-2.8
				s1-1.4,1.7-1.9s1.6-0.7,2.5-0.7s1.8,0.2,2.5,0.7s1.3,1.1,1.7,1.9s0.6,1.7,0.6,2.8c0,1.1-0.2,2-0.6,2.8s-1,1.4-1.7,1.9
				C72.4,27.6,71.6,27.9,70.6,27.9z M70.6,26.2c0.6,0,1.1-0.2,1.6-0.5c0.4-0.3,0.7-0.8,0.9-1.3c0.2-0.6,0.3-1.2,0.3-1.8
				c0-0.7-0.1-1.3-0.3-1.8c-0.2-0.6-0.5-1-0.9-1.3c-0.4-0.3-0.9-0.5-1.6-0.5c-0.6,0-1.2,0.2-1.6,0.5s-0.7,0.8-0.9,1.3
				c-0.2,0.6-0.3,1.2-0.3,1.8c0,0.7,0.1,1.3,0.3,1.8c0.2,0.6,0.5,1,0.9,1.3S70,26.2,70.6,26.2z"/>
			<path class="st1" d="M79.7,21.5v6.1h-2V17.3h1.9V19h0.1c0.2-0.5,0.6-1,1.1-1.3c0.5-0.3,1.2-0.5,1.9-0.5c0.7,0,1.3,0.1,1.9,0.4
				c0.5,0.3,0.9,0.7,1.2,1.3c0.3,0.6,0.4,1.3,0.4,2.1v6.6h-2v-6.3c0-0.7-0.2-1.3-0.6-1.8s-0.9-0.6-1.6-0.6c-0.5,0-0.9,0.1-1.2,0.3
				c-0.4,0.2-0.6,0.5-0.9,0.9C79.8,20.5,79.7,21,79.7,21.5z"/>
			<path class="st1" d="M93.8,17.3v1.6h-5.6v-1.6H93.8z M89.7,14.8h2v9.8c0,0.4,0.1,0.7,0.2,0.9c0.1,0.2,0.3,0.3,0.5,0.4
				c0.2,0.1,0.4,0.1,0.6,0.1c0.2,0,0.3,0,0.4,0c0.1,0,0.2,0,0.3-0.1l0.4,1.7c-0.1,0-0.3,0.1-0.5,0.1c-0.2,0-0.5,0.1-0.8,0.1
				c-0.5,0-1-0.1-1.5-0.3c-0.5-0.2-0.8-0.5-1.1-0.9c-0.3-0.4-0.4-0.9-0.4-1.6V14.8z"/>
			<path class="st1" d="M98.1,21.5v6.1h-2V13.9h2V19h0.1c0.2-0.6,0.6-1,1.1-1.3s1.1-0.5,2-0.5c0.7,0,1.3,0.1,1.9,0.4
				c0.5,0.3,0.9,0.7,1.2,1.3c0.3,0.6,0.4,1.3,0.4,2.2v6.6h-2v-6.3c0-0.8-0.2-1.3-0.6-1.8c-0.4-0.4-0.9-0.6-1.6-0.6
				c-0.5,0-0.9,0.1-1.3,0.3c-0.4,0.2-0.7,0.5-0.9,0.9S98.1,21,98.1,21.5z"/>
		</g>
	</g>
</g>
</svg>
