<?xml version="1.0" encoding="utf-8"?>
<!-- Generator: Adobe Illustrator 28.1.0, SVG Export Plug-In . SVG Version: 6.00 Build 0)  -->
<svg version="1.1" id="Layer_1" xmlns="http://www.w3.org/2000/svg" xmlns:xlink="http://www.w3.org/1999/xlink" x="0px" y="0px"
	 viewBox="0 0 1400 112" style="enable-background:new 0 0 1400 112;" xml:space="preserve">
<style type="text/css">
	.st0{opacity:0.2;}
	.st1{fill:#E7E7E7;}
	.st2{fill:#4F4F4F;}
	.st3{fill:#888888;}
	.st4{fill:#FFE12D;stroke:#FFFFFF;stroke-width:1.2529;stroke-miterlimit:10;}
</style>
<g class="st0">
	<g>
		<g>
			<path class="st1" d="M25.3,10.8h1347.4c8.6,0,15.5,6.9,15.5,15.5v64.2c0,8.6-6.9,15.5-15.5,15.5H25.3c-8.6,0-15.5-6.9-15.5-15.5
				V26.3C9.8,17.7,16.7,10.8,25.3,10.8z"/>
		</g>
	</g>
</g>
<g>
	<path d="M57.8,30.3v28.4h-5.2L40.3,40.8h-0.2v17.9h-6V30.3h5.3l12.2,17.8h0.2V30.3H57.8z"/>
	<path d="M65.6,34.6c-0.9,0-1.6-0.3-2.3-0.9c-0.6-0.6-0.9-1.3-0.9-2.1c0-0.8,0.3-1.5,0.9-2.1c0.6-0.6,1.4-0.9,2.2-0.9
		c0.9,0,1.6,0.3,2.3,0.9c0.6,0.6,0.9,1.3,0.9,2.1s-0.3,1.5-0.9,2.1C67.2,34.3,66.5,34.6,65.6,34.6z M62.7,58.6V37.3h5.9v21.3H62.7z"
		/>
	<path d="M73.2,58.6v-3.5l10.4-12.9v-0.2H73.5v-4.7h17.2v3.8l-9.8,12.6v0.2H91v4.7H73.2z"/>
	<path d="M99.8,58.6L94,37.3h6l3.3,14.3h0.2l3.4-14.3h5.9l3.5,14.2h0.2l3.2-14.2h6l-5.8,21.3h-6.2l-3.7-13.4h-0.3L106,58.6H99.8z"/>
	<path d="M134.8,59c-1.4,0-2.6-0.2-3.6-0.7c-1.1-0.5-1.9-1.2-2.5-2.1c-0.6-0.9-0.9-2.1-0.9-3.5c0-1.2,0.2-2.2,0.7-3
		c0.4-0.8,1-1.4,1.8-1.9c0.7-0.5,1.6-0.9,2.6-1.1c1-0.2,2-0.4,3-0.5c1.2-0.1,2.2-0.3,3-0.4c0.8-0.1,1.3-0.3,1.6-0.5s0.5-0.6,0.5-1
		v-0.1c0-0.9-0.3-1.6-0.8-2c-0.5-0.5-1.3-0.7-2.3-0.7c-1.1,0-1.9,0.2-2.5,0.7s-1,1.1-1.2,1.8l-5.5-0.4c0.3-1.3,0.8-2.4,1.6-3.4
		s1.9-1.7,3.2-2.2c1.3-0.5,2.8-0.8,4.5-0.8c1.2,0,2.3,0.1,3.4,0.4c1.1,0.3,2,0.7,2.9,1.3s1.5,1.3,2,2.2c0.5,0.9,0.7,2,0.7,3.3v14.3
		h-5.6v-2.9H141c-0.3,0.7-0.8,1.2-1.4,1.8c-0.6,0.5-1.3,0.9-2.1,1.2C136.8,58.9,135.8,59,134.8,59z M136.5,54.9
		c0.9,0,1.6-0.2,2.3-0.5c0.7-0.3,1.2-0.8,1.6-1.4c0.4-0.6,0.6-1.3,0.6-2v-2.3c-0.2,0.1-0.4,0.2-0.8,0.3c-0.3,0.1-0.7,0.2-1.1,0.3
		c-0.4,0.1-0.8,0.1-1.2,0.2c-0.4,0.1-0.8,0.1-1.1,0.2c-0.7,0.1-1.3,0.3-1.8,0.5c-0.5,0.2-0.9,0.5-1.2,0.9c-0.3,0.4-0.4,0.8-0.4,1.4
		c0,0.8,0.3,1.4,0.9,1.8C134.8,54.7,135.6,54.9,136.5,54.9z"/>
	<path d="M175.9,38.4c-0.1-1.1-0.6-2-1.4-2.6s-2-0.9-3.4-0.9c-1,0-1.8,0.1-2.5,0.4c-0.7,0.3-1.2,0.6-1.5,1.1c-0.4,0.5-0.5,1-0.5,1.6
		c0,0.5,0.1,1,0.3,1.3c0.2,0.4,0.6,0.7,1,1s0.9,0.5,1.4,0.7c0.5,0.2,1.1,0.4,1.7,0.5l2.5,0.6c1.2,0.3,2.4,0.6,3.4,1.1
		c1,0.5,1.9,1,2.7,1.7c0.8,0.7,1.3,1.5,1.8,2.4c0.4,0.9,0.6,2,0.6,3.1c0,1.7-0.5,3.2-1.3,4.5s-2.1,2.3-3.8,2.9c-1.6,0.7-3.6,1-5.9,1
		c-2.3,0-4.3-0.4-6-1.1c-1.7-0.7-3-1.7-4-3.1c-0.9-1.4-1.4-3.1-1.5-5.1h5.8c0.1,1,0.3,1.7,0.8,2.4c0.5,0.6,1.1,1.1,2,1.4
		s1.7,0.5,2.8,0.5c1,0,1.9-0.1,2.7-0.4c0.8-0.3,1.3-0.7,1.8-1.2c0.4-0.5,0.6-1.1,0.6-1.8c0-0.6-0.2-1.2-0.6-1.6s-0.9-0.8-1.6-1.1
		s-1.6-0.6-2.6-0.8l-3.1-0.8c-2.4-0.6-4.3-1.5-5.7-2.7c-1.4-1.2-2.1-2.9-2.1-5c0-1.7,0.5-3.2,1.4-4.5c0.9-1.3,2.2-2.3,3.8-3
		c1.6-0.7,3.5-1.1,5.5-1.1c2.1,0,3.9,0.4,5.5,1.1c1.6,0.7,2.8,1.7,3.7,3c0.9,1.3,1.3,2.8,1.4,4.5H175.9z"/>
	<path d="M197.2,37.3v4.4h-12.8v-4.4H197.2z M187.3,32.2h5.9v19.8c0,0.5,0.1,1,0.2,1.3c0.2,0.3,0.4,0.5,0.7,0.6
		c0.3,0.1,0.6,0.2,1,0.2c0.3,0,0.6,0,0.8-0.1s0.5-0.1,0.6-0.1l0.9,4.4c-0.3,0.1-0.7,0.2-1.2,0.3c-0.5,0.1-1.2,0.2-2,0.2
		c-1.4,0.1-2.7-0.1-3.7-0.6c-1.1-0.4-1.9-1.1-2.5-2c-0.6-0.9-0.9-2.1-0.9-3.5V32.2z"/>
	<path d="M207.1,59c-1.4,0-2.6-0.2-3.6-0.7c-1.1-0.5-1.9-1.2-2.5-2.1c-0.6-0.9-0.9-2.1-0.9-3.5c0-1.2,0.2-2.2,0.7-3
		c0.4-0.8,1-1.4,1.8-1.9c0.7-0.5,1.6-0.9,2.6-1.1c1-0.2,2-0.4,3-0.5c1.2-0.1,2.2-0.3,3-0.4c0.8-0.1,1.3-0.3,1.6-0.5s0.5-0.6,0.5-1
		v-0.1c0-0.9-0.3-1.6-0.8-2c-0.5-0.5-1.3-0.7-2.3-0.7c-1.1,0-1.9,0.2-2.5,0.7s-1,1.1-1.2,1.8l-5.5-0.4c0.3-1.3,0.8-2.4,1.6-3.4
		s1.9-1.7,3.2-2.2c1.3-0.5,2.8-0.8,4.5-0.8c1.2,0,2.3,0.1,3.4,0.4c1.1,0.3,2,0.7,2.9,1.3s1.5,1.3,2,2.2c0.5,0.9,0.7,2,0.7,3.3v14.3
		h-5.6v-2.9h-0.2c-0.3,0.7-0.8,1.2-1.4,1.8c-0.6,0.5-1.3,0.9-2.1,1.2C209.1,58.9,208.2,59,207.1,59z M208.8,54.9
		c0.9,0,1.6-0.2,2.3-0.5c0.7-0.3,1.2-0.8,1.6-1.4c0.4-0.6,0.6-1.3,0.6-2v-2.3c-0.2,0.1-0.4,0.2-0.8,0.3c-0.3,0.1-0.7,0.2-1.1,0.3
		c-0.4,0.1-0.8,0.1-1.2,0.2c-0.4,0.1-0.8,0.1-1.1,0.2c-0.7,0.1-1.3,0.3-1.8,0.5c-0.5,0.2-0.9,0.5-1.2,0.9c-0.3,0.4-0.4,0.8-0.4,1.4
		c0,0.8,0.3,1.4,0.9,1.8C207.2,54.7,207.9,54.9,208.8,54.9z"/>
	<path d="M235,37.3v4.4h-12.8v-4.4H235z M225.1,32.2h5.9v19.8c0,0.5,0.1,1,0.2,1.3c0.2,0.3,0.4,0.5,0.7,0.6c0.3,0.1,0.6,0.2,1,0.2
		c0.3,0,0.6,0,0.8-0.1s0.5-0.1,0.6-0.1l0.9,4.4c-0.3,0.1-0.7,0.2-1.2,0.3c-0.5,0.1-1.2,0.2-2,0.2c-1.4,0.1-2.7-0.1-3.7-0.6
		c-1.1-0.4-1.9-1.1-2.5-2c-0.6-0.9-0.9-2.1-0.9-3.5V32.2z"/>
	<path d="M241.8,34.6c-0.9,0-1.6-0.3-2.3-0.9c-0.6-0.6-0.9-1.3-0.9-2.1c0-0.8,0.3-1.5,0.9-2.1c0.6-0.6,1.4-0.9,2.2-0.9
		c0.9,0,1.6,0.3,2.3,0.9c0.6,0.6,0.9,1.3,0.9,2.1s-0.3,1.5-0.9,2.1C243.5,34.3,242.7,34.6,241.8,34.6z M238.9,58.6V37.3h5.9v21.3
		H238.9z"/>
	<path d="M259.1,59c-2.2,0-4-0.5-5.6-1.4c-1.6-0.9-2.8-2.2-3.6-3.9c-0.8-1.6-1.3-3.6-1.3-5.7c0-2.2,0.4-4.1,1.3-5.8
		c0.8-1.6,2.1-2.9,3.6-3.9c1.6-0.9,3.4-1.4,5.6-1.4s4,0.5,5.6,1.4c1.6,0.9,2.8,2.2,3.6,3.9c0.8,1.6,1.3,3.6,1.3,5.8
		c0,2.2-0.4,4.1-1.3,5.7c-0.8,1.6-2.1,2.9-3.6,3.9C263.1,58.6,261.2,59,259.1,59z M259.1,54.5c1,0,1.8-0.3,2.5-0.8s1.2-1.3,1.5-2.3
		c0.3-1,0.5-2.1,0.5-3.3s-0.2-2.3-0.5-3.3c-0.3-1-0.8-1.7-1.5-2.3c-0.7-0.6-1.5-0.8-2.5-0.8c-1,0-1.8,0.3-2.5,0.8
		c-0.7,0.6-1.2,1.3-1.5,2.3c-0.3,1-0.5,2.1-0.5,3.3s0.2,2.3,0.5,3.3c0.3,1,0.8,1.7,1.5,2.3C257.3,54.2,258.1,54.5,259.1,54.5z"/>
	<path d="M279.3,46.3v12.3h-5.9V37.3h5.6v3.8h0.2c0.5-1.2,1.3-2.2,2.4-2.9s2.5-1.1,4-1.1c1.5,0,2.8,0.3,3.9,1c1.1,0.6,2,1.6,2.6,2.8
		c0.6,1.2,0.9,2.6,0.9,4.3v13.5h-5.9V46.1c0-1.3-0.3-2.3-1-3.1c-0.7-0.7-1.6-1.1-2.8-1.1c-0.8,0-1.5,0.2-2.1,0.5
		c-0.6,0.3-1.1,0.8-1.4,1.5C279.5,44.6,279.3,45.4,279.3,46.3z"/>
</g>
<g>
	<path class="st2" d="M33.2,74.7h2.7L40.5,86h0.2l4.6-11.3H48v14.5h-2.1V78.7h-0.1l-4.3,10.5h-1.7l-4.3-10.5h-0.1v10.5h-2.1V74.7z"
		/>
	<path class="st2" d="M54.2,89.5c-0.7,0-1.3-0.1-1.9-0.4c-0.6-0.3-1-0.6-1.3-1.1c-0.3-0.5-0.5-1.1-0.5-1.8c0-0.6,0.1-1.1,0.4-1.5
		c0.2-0.4,0.6-0.7,1-0.9s0.9-0.4,1.3-0.5c0.5-0.1,1-0.2,1.5-0.3c0.7-0.1,1.2-0.1,1.6-0.2c0.4,0,0.7-0.1,0.9-0.2
		c0.2-0.1,0.3-0.3,0.3-0.6v0c0-0.6-0.2-1.1-0.5-1.4c-0.3-0.3-0.9-0.5-1.6-0.5c-0.7,0-1.3,0.2-1.7,0.5c-0.4,0.3-0.7,0.7-0.8,1l-2-0.5
		c0.2-0.7,0.6-1.2,1-1.6c0.5-0.4,1-0.7,1.6-0.9s1.2-0.3,1.9-0.3c0.4,0,0.9,0.1,1.4,0.2c0.5,0.1,0.9,0.3,1.4,0.6
		c0.4,0.3,0.8,0.7,1.1,1.2c0.3,0.5,0.4,1.1,0.4,1.9v7.2h-2.1v-1.5h-0.1c-0.1,0.3-0.3,0.5-0.6,0.8c-0.3,0.3-0.6,0.5-1.1,0.7
		C55.3,89.4,54.8,89.5,54.2,89.5z M54.7,87.7c0.6,0,1.1-0.1,1.5-0.3s0.7-0.5,1-0.9c0.2-0.4,0.3-0.8,0.3-1.2v-1.4
		c-0.1,0.1-0.2,0.1-0.4,0.2s-0.5,0.1-0.7,0.2c-0.3,0-0.5,0.1-0.8,0.1c-0.3,0-0.5,0.1-0.7,0.1c-0.4,0.1-0.8,0.1-1.1,0.3
		c-0.3,0.1-0.6,0.3-0.8,0.5c-0.2,0.2-0.3,0.5-0.3,0.9c0,0.5,0.2,0.9,0.6,1.2S54,87.7,54.7,87.7z"/>
	<path class="st2" d="M64.5,82.7v6.5h-2.1V78.3h2v1.8h0.1c0.3-0.6,0.6-1,1.2-1.4c0.5-0.4,1.2-0.5,2-0.5c0.7,0,1.4,0.2,2,0.5
		c0.6,0.3,1,0.8,1.3,1.4c0.3,0.6,0.5,1.4,0.5,2.3v6.9h-2.1v-6.7c0-0.8-0.2-1.4-0.6-1.9c-0.4-0.4-1-0.7-1.7-0.7
		c-0.5,0-0.9,0.1-1.3,0.3c-0.4,0.2-0.7,0.5-0.9,0.9S64.5,82.2,64.5,82.7z"/>
	<path class="st2" d="M77.5,89.5c-0.7,0-1.3-0.1-1.9-0.4c-0.6-0.3-1-0.6-1.3-1.1c-0.3-0.5-0.5-1.1-0.5-1.8c0-0.6,0.1-1.1,0.4-1.5
		c0.2-0.4,0.6-0.7,1-0.9s0.9-0.4,1.3-0.5c0.5-0.1,1-0.2,1.5-0.3c0.7-0.1,1.2-0.1,1.6-0.2c0.4,0,0.7-0.1,0.9-0.2
		c0.2-0.1,0.3-0.3,0.3-0.6v0c0-0.6-0.2-1.1-0.5-1.4c-0.3-0.3-0.9-0.5-1.6-0.5c-0.7,0-1.3,0.2-1.7,0.5c-0.4,0.3-0.7,0.7-0.8,1l-2-0.5
		c0.2-0.7,0.6-1.2,1-1.6c0.5-0.4,1-0.7,1.6-0.9s1.2-0.3,1.9-0.3c0.4,0,0.9,0.1,1.4,0.2c0.5,0.1,0.9,0.3,1.4,0.6
		c0.4,0.3,0.8,0.7,1.1,1.2c0.3,0.5,0.4,1.1,0.4,1.9v7.2h-2.1v-1.5h-0.1c-0.1,0.3-0.3,0.5-0.6,0.8c-0.3,0.3-0.6,0.5-1.1,0.7
		C78.6,89.4,78.1,89.5,77.5,89.5z M78,87.7c0.6,0,1.1-0.1,1.5-0.3s0.7-0.5,1-0.9c0.2-0.4,0.3-0.8,0.3-1.2v-1.4
		c-0.1,0.1-0.2,0.1-0.4,0.2s-0.5,0.1-0.7,0.2c-0.3,0-0.5,0.1-0.8,0.1c-0.3,0-0.5,0.1-0.7,0.1c-0.4,0.1-0.8,0.1-1.1,0.3
		c-0.3,0.1-0.6,0.3-0.8,0.5c-0.2,0.2-0.3,0.5-0.3,0.9c0,0.5,0.2,0.9,0.6,1.2S77.4,87.7,78,87.7z"/>
	<path class="st2" d="M90.3,93.5c-0.9,0-1.6-0.1-2.2-0.3c-0.6-0.2-1.1-0.5-1.5-0.9s-0.7-0.8-0.9-1.2l1.8-0.8
		c0.1,0.2,0.3,0.4,0.5,0.7c0.2,0.2,0.5,0.4,0.9,0.6s0.9,0.2,1.4,0.2c0.8,0,1.5-0.2,2-0.6c0.5-0.4,0.8-1,0.8-1.9v-2.1H93
		c-0.1,0.2-0.3,0.5-0.6,0.8c-0.2,0.3-0.6,0.5-1,0.7c-0.4,0.2-1,0.3-1.6,0.3c-0.9,0-1.6-0.2-2.3-0.6s-1.2-1-1.6-1.8
		c-0.4-0.8-0.6-1.8-0.6-2.9s0.2-2.2,0.6-3c0.4-0.8,0.9-1.5,1.6-1.9c0.7-0.4,1.5-0.7,2.4-0.7c0.7,0,1.2,0.1,1.6,0.3
		c0.4,0.2,0.7,0.5,1,0.8c0.2,0.3,0.4,0.6,0.5,0.8h0.2v-1.8h2.1v11.2c0,0.9-0.2,1.7-0.7,2.3c-0.4,0.6-1,1-1.8,1.3
		C92.1,93.4,91.2,93.5,90.3,93.5z M90.3,87.3c0.6,0,1.1-0.1,1.6-0.4c0.4-0.3,0.7-0.7,1-1.2c0.2-0.5,0.3-1.2,0.3-1.9
		c0-0.7-0.1-1.4-0.3-1.9s-0.5-1-1-1.3S90.9,80,90.3,80c-0.6,0-1.2,0.2-1.6,0.5c-0.4,0.3-0.7,0.8-1,1.3c-0.2,0.6-0.3,1.2-0.3,1.9
		c0,0.7,0.1,1.3,0.3,1.9c0.2,0.5,0.5,1,1,1.3C89.1,87.1,89.7,87.3,90.3,87.3z"/>
	<path class="st2" d="M102.8,89.4c-1.1,0-2-0.2-2.8-0.7c-0.8-0.5-1.4-1.1-1.8-2s-0.6-1.8-0.6-3c0-1.1,0.2-2.1,0.6-3
		c0.4-0.9,1-1.5,1.8-2c0.8-0.5,1.6-0.7,2.7-0.7c0.6,0,1.2,0.1,1.8,0.3s1.1,0.5,1.6,1c0.5,0.4,0.8,1,1.1,1.7c0.3,0.7,0.4,1.5,0.4,2.5
		v0.8h-8.7v-1.6h6.6c0-0.6-0.1-1.1-0.3-1.5c-0.2-0.4-0.5-0.8-1-1c-0.4-0.3-0.9-0.4-1.4-0.4c-0.6,0-1.1,0.1-1.6,0.4
		c-0.4,0.3-0.8,0.7-1,1.1s-0.4,1-0.4,1.5v1.2c0,0.7,0.1,1.3,0.4,1.9c0.3,0.5,0.6,0.9,1.1,1.2c0.5,0.3,1,0.4,1.6,0.4
		c0.4,0,0.8-0.1,1.1-0.2s0.6-0.3,0.9-0.5c0.2-0.2,0.4-0.5,0.6-0.9l2,0.4c-0.2,0.6-0.4,1.1-0.9,1.6c-0.4,0.4-0.9,0.8-1.6,1
		C104.3,89.3,103.6,89.4,102.8,89.4z"/>
	<path class="st2" d="M115.3,89.2V74.7h2.1v5.4h0.1c0.1-0.2,0.3-0.5,0.5-0.8c0.2-0.3,0.6-0.6,1-0.8c0.4-0.2,1-0.3,1.6-0.3
		c0.9,0,1.7,0.2,2.4,0.7c0.7,0.4,1.2,1.1,1.6,1.9c0.4,0.8,0.6,1.8,0.6,3c0,1.2-0.2,2.2-0.6,3c-0.4,0.8-0.9,1.5-1.6,1.9
		s-1.5,0.7-2.4,0.7c-0.7,0-1.2-0.1-1.6-0.3c-0.4-0.2-0.7-0.5-1-0.8c-0.2-0.3-0.4-0.6-0.5-0.8h-0.2v1.7H115.3z M117.4,83.8
		c0,0.8,0.1,1.4,0.3,2s0.5,1,1,1.4s0.9,0.5,1.5,0.5c0.6,0,1.2-0.2,1.6-0.5c0.4-0.3,0.7-0.8,1-1.4s0.3-1.2,0.3-2
		c0-0.7-0.1-1.4-0.3-1.9c-0.2-0.6-0.5-1-1-1.4c-0.4-0.3-1-0.5-1.6-0.5c-0.6,0-1.1,0.2-1.6,0.5c-0.4,0.3-0.7,0.8-1,1.3
		C117.5,82.3,117.4,83,117.4,83.8z"/>
	<path class="st2" d="M129,93.3c-0.3,0-0.6,0-0.9-0.1c-0.3,0-0.5-0.1-0.6-0.2l0.5-1.7c0.4,0.1,0.7,0.1,1,0.1c0.3,0,0.6-0.1,0.8-0.3
		c0.2-0.2,0.4-0.6,0.6-1l0.3-0.7l-4-11.1h2.3l2.8,8.5h0.1l2.8-8.5h2.3l-4.5,12.4c-0.2,0.6-0.5,1-0.8,1.4c-0.3,0.4-0.7,0.7-1.2,0.9
		C130.1,93.2,129.6,93.3,129,93.3z"/>
	<path class="st2" d="M144.4,89.2V74.7h9.1v1.9h-6.9V81h6.4v1.9h-6.4v4.5h7v1.9H144.4z"/>
	<path class="st2" d="M157.7,89.2h-2.3l5.2-14.5h2.5l5.2,14.5h-2.3L162,77.3h-0.1L157.7,89.2z M158.1,83.5h7.6v1.8h-7.6V83.5z"/>
</g>
<g>
	<path class="st3" d="M1084.8,89.4V77h1.9v10.8h5.6v1.6H1084.8z"/>
	<path class="st3" d="M1097,89.6c-0.6,0-1.1-0.1-1.6-0.3c-0.5-0.2-0.9-0.5-1.1-1c-0.3-0.4-0.4-0.9-0.4-1.5c0-0.5,0.1-1,0.3-1.3
		c0.2-0.3,0.5-0.6,0.8-0.8s0.7-0.3,1.1-0.4c0.4-0.1,0.9-0.2,1.3-0.2c0.6-0.1,1-0.1,1.4-0.2c0.3,0,0.6-0.1,0.8-0.2
		c0.2-0.1,0.2-0.3,0.2-0.5v0c0-0.5-0.1-0.9-0.4-1.2c-0.3-0.3-0.7-0.4-1.3-0.4c-0.6,0-1.1,0.1-1.4,0.4c-0.3,0.3-0.6,0.6-0.7,0.9
		l-1.7-0.4c0.2-0.6,0.5-1,0.9-1.4c0.4-0.3,0.8-0.6,1.3-0.8c0.5-0.2,1-0.2,1.6-0.2c0.4,0,0.8,0,1.2,0.1c0.4,0.1,0.8,0.2,1.2,0.5
		c0.4,0.2,0.7,0.6,0.9,1c0.2,0.4,0.3,1,0.3,1.7v6.2h-1.8v-1.3h-0.1c-0.1,0.2-0.3,0.5-0.5,0.7c-0.2,0.2-0.5,0.4-0.9,0.6
		S1097.5,89.6,1097,89.6z M1097.4,88.2c0.5,0,0.9-0.1,1.3-0.3c0.4-0.2,0.6-0.5,0.8-0.8c0.2-0.3,0.3-0.7,0.3-1v-1.2
		c-0.1,0.1-0.2,0.1-0.4,0.2c-0.2,0.1-0.4,0.1-0.6,0.1c-0.2,0-0.5,0.1-0.7,0.1c-0.2,0-0.4,0.1-0.6,0.1c-0.4,0-0.7,0.1-1,0.2
		s-0.5,0.3-0.7,0.4s-0.3,0.5-0.3,0.8c0,0.4,0.2,0.8,0.5,1C1096.4,88,1096.9,88.2,1097.4,88.2z"/>
	<path class="st3" d="M1110.9,82.4l-1.6,0.3c-0.1-0.2-0.2-0.4-0.3-0.6c-0.1-0.2-0.3-0.3-0.6-0.5c-0.2-0.1-0.6-0.2-0.9-0.2
		c-0.5,0-0.9,0.1-1.3,0.3c-0.3,0.2-0.5,0.5-0.5,0.9c0,0.3,0.1,0.6,0.3,0.7s0.6,0.3,1.1,0.5l1.5,0.3c0.9,0.2,1.5,0.5,1.9,0.9
		c0.4,0.4,0.6,0.9,0.6,1.6c0,0.6-0.2,1-0.5,1.5s-0.8,0.8-1.3,1s-1.2,0.4-2,0.4c-1,0-1.9-0.2-2.5-0.7c-0.7-0.4-1.1-1.1-1.2-1.9
		l1.7-0.3c0.1,0.5,0.3,0.8,0.7,1s0.8,0.3,1.3,0.3c0.6,0,1.1-0.1,1.4-0.4c0.4-0.2,0.5-0.6,0.5-0.9c0-0.3-0.1-0.5-0.3-0.7
		c-0.2-0.2-0.5-0.3-1-0.4l-1.6-0.3c-0.9-0.2-1.5-0.5-1.9-0.9c-0.4-0.4-0.6-1-0.6-1.6c0-0.5,0.2-1,0.5-1.4c0.3-0.4,0.7-0.7,1.3-1
		c0.5-0.2,1.2-0.3,1.9-0.3c1,0,1.8,0.2,2.4,0.6C1110.3,81.1,1110.7,81.7,1110.9,82.4z"/>
	<path class="st3" d="M1117.4,80.1v1.4h-5.1v-1.4H1117.4z M1113.7,77.9h1.8v8.8c0,0.4,0.1,0.6,0.2,0.8c0.1,0.2,0.2,0.3,0.4,0.4
		s0.3,0.1,0.5,0.1c0.1,0,0.3,0,0.4,0s0.2,0,0.3,0l0.3,1.5c-0.1,0-0.3,0.1-0.4,0.1c-0.2,0-0.4,0.1-0.7,0.1c-0.5,0-0.9-0.1-1.3-0.3
		s-0.7-0.5-1-0.8c-0.3-0.4-0.4-0.8-0.4-1.4V77.9z"/>
	<path class="st3" d="M1132,77h1.9v8.1c0,0.9-0.2,1.6-0.6,2.3c-0.4,0.7-1,1.2-1.7,1.6s-1.6,0.6-2.6,0.6c-1,0-1.8-0.2-2.6-0.6
		s-1.3-0.9-1.7-1.6c-0.4-0.7-0.6-1.4-0.6-2.3V77h1.9v8c0,0.6,0.1,1.1,0.4,1.5c0.2,0.4,0.6,0.8,1.1,1c0.5,0.2,1,0.4,1.6,0.4
		c0.6,0,1.2-0.1,1.6-0.4c0.5-0.2,0.8-0.6,1.1-1c0.2-0.4,0.4-0.9,0.4-1.5V77z"/>
	<path class="st3" d="M1136.4,92.9V80.1h1.8v1.5h0.2c0.1-0.2,0.3-0.4,0.5-0.7c0.2-0.3,0.5-0.5,0.8-0.7c0.3-0.2,0.8-0.3,1.4-0.3
		c0.7,0,1.4,0.2,2,0.6c0.6,0.4,1,0.9,1.4,1.6s0.5,1.6,0.5,2.6c0,1-0.2,1.9-0.5,2.6s-0.8,1.3-1.4,1.6c-0.6,0.4-1.2,0.6-2,0.6
		c-0.6,0-1-0.1-1.4-0.3c-0.4-0.2-0.6-0.4-0.8-0.7s-0.4-0.5-0.5-0.7h-0.1v4.9H1136.4z M1138.2,84.8c0,0.7,0.1,1.2,0.3,1.7
		c0.2,0.5,0.5,0.9,0.8,1.1c0.4,0.3,0.8,0.4,1.3,0.4c0.5,0,1-0.1,1.4-0.4c0.4-0.3,0.6-0.7,0.8-1.2c0.2-0.5,0.3-1.1,0.3-1.7
		c0-0.6-0.1-1.2-0.3-1.6c-0.2-0.5-0.5-0.9-0.8-1.2s-0.8-0.4-1.4-0.4c-0.5,0-1,0.1-1.3,0.4s-0.6,0.6-0.8,1.1
		C1138.3,83.6,1138.2,84.1,1138.2,84.8z"/>
	<path class="st3" d="M1150.4,89.6c-0.7,0-1.4-0.2-2-0.6s-1-0.9-1.4-1.6s-0.5-1.6-0.5-2.6c0-1,0.2-1.9,0.5-2.6s0.8-1.3,1.4-1.6
		c0.6-0.4,1.3-0.6,2-0.6c0.6,0,1,0.1,1.4,0.3c0.4,0.2,0.6,0.4,0.8,0.7c0.2,0.3,0.3,0.5,0.5,0.7h0.1V77h1.8v12.4h-1.8V88h-0.2
		c-0.1,0.2-0.3,0.4-0.5,0.7s-0.5,0.5-0.8,0.7C1151.4,89.5,1150.9,89.6,1150.4,89.6z M1150.8,88c0.5,0,1-0.1,1.3-0.4
		c0.4-0.3,0.6-0.7,0.8-1.1c0.2-0.5,0.3-1.1,0.3-1.7c0-0.6-0.1-1.2-0.3-1.7c-0.2-0.5-0.5-0.9-0.8-1.1s-0.8-0.4-1.3-0.4
		c-0.5,0-1,0.1-1.4,0.4c-0.4,0.3-0.6,0.7-0.8,1.2c-0.2,0.5-0.3,1-0.3,1.6c0,0.6,0.1,1.2,0.3,1.7c0.2,0.5,0.5,0.9,0.8,1.2
		C1149.8,87.9,1150.2,88,1150.8,88z"/>
	<path class="st3" d="M1160.2,89.6c-0.6,0-1.1-0.1-1.6-0.3c-0.5-0.2-0.9-0.5-1.1-1s-0.4-0.9-0.4-1.5c0-0.5,0.1-1,0.3-1.3
		c0.2-0.3,0.5-0.6,0.8-0.8c0.3-0.2,0.7-0.3,1.1-0.4s0.9-0.2,1.3-0.2c0.6-0.1,1-0.1,1.4-0.2c0.3,0,0.6-0.1,0.8-0.2
		c0.2-0.1,0.2-0.3,0.2-0.5v0c0-0.5-0.1-0.9-0.4-1.2c-0.3-0.3-0.7-0.4-1.3-0.4c-0.6,0-1.1,0.1-1.4,0.4c-0.3,0.3-0.6,0.6-0.7,0.9
		l-1.7-0.4c0.2-0.6,0.5-1,0.9-1.4c0.4-0.3,0.8-0.6,1.3-0.8c0.5-0.2,1-0.2,1.6-0.2c0.4,0,0.8,0,1.2,0.1c0.4,0.1,0.8,0.2,1.2,0.5
		c0.4,0.2,0.7,0.6,0.9,1c0.2,0.4,0.4,1,0.4,1.7v6.2h-1.8v-1.3h-0.1c-0.1,0.2-0.3,0.5-0.5,0.7c-0.2,0.2-0.5,0.4-0.9,0.6
		S1160.8,89.6,1160.2,89.6z M1160.6,88.2c0.5,0,0.9-0.1,1.3-0.3c0.4-0.2,0.6-0.5,0.8-0.8c0.2-0.3,0.3-0.7,0.3-1v-1.2
		c-0.1,0.1-0.2,0.1-0.4,0.2c-0.2,0.1-0.4,0.1-0.6,0.1c-0.2,0-0.5,0.1-0.7,0.1s-0.4,0.1-0.6,0.1c-0.3,0-0.7,0.1-1,0.2
		c-0.3,0.1-0.5,0.3-0.7,0.4c-0.2,0.2-0.3,0.5-0.3,0.8c0,0.4,0.2,0.8,0.5,1C1159.7,88,1160.1,88.2,1160.6,88.2z"/>
	<path class="st3" d="M1171.6,80.1v1.4h-5.1v-1.4H1171.6z M1167.9,77.9h1.8v8.8c0,0.4,0.1,0.6,0.2,0.8c0.1,0.2,0.2,0.3,0.4,0.4
		s0.3,0.1,0.5,0.1c0.1,0,0.3,0,0.4,0c0.1,0,0.2,0,0.3,0l0.3,1.5c-0.1,0-0.3,0.1-0.4,0.1c-0.2,0-0.4,0.1-0.7,0.1
		c-0.5,0-0.9-0.1-1.3-0.3c-0.4-0.2-0.7-0.5-1-0.8c-0.3-0.4-0.4-0.8-0.4-1.4V77.9z"/>
	<path class="st3" d="M1177.5,89.6c-0.9,0-1.7-0.2-2.4-0.6c-0.7-0.4-1.2-0.9-1.5-1.7c-0.4-0.7-0.5-1.6-0.5-2.5
		c0-0.9,0.2-1.8,0.5-2.5c0.4-0.7,0.9-1.3,1.5-1.7c0.6-0.4,1.4-0.6,2.3-0.6c0.5,0,1,0.1,1.5,0.3s0.9,0.4,1.3,0.8s0.7,0.9,0.9,1.4
		c0.2,0.6,0.3,1.3,0.3,2.1v0.6h-7.4v-1.4h5.6c0-0.5-0.1-0.9-0.3-1.3s-0.5-0.7-0.8-0.9c-0.3-0.2-0.8-0.3-1.2-0.3
		c-0.5,0-0.9,0.1-1.3,0.4c-0.4,0.2-0.7,0.6-0.9,1c-0.2,0.4-0.3,0.8-0.3,1.3v1.1c0,0.6,0.1,1.1,0.3,1.6c0.2,0.4,0.5,0.8,0.9,1
		s0.9,0.3,1.4,0.3c0.3,0,0.7,0,0.9-0.1c0.3-0.1,0.5-0.2,0.7-0.4s0.4-0.4,0.5-0.7l1.7,0.3c-0.1,0.5-0.4,0.9-0.7,1.3
		c-0.4,0.4-0.8,0.7-1.3,0.9C1178.8,89.5,1178.2,89.6,1177.5,89.6z"/>
	<path class="st3" d="M1187,89.6c-0.7,0-1.4-0.2-2-0.6s-1-0.9-1.4-1.6s-0.5-1.6-0.5-2.6c0-1,0.2-1.9,0.5-2.6s0.8-1.3,1.4-1.6
		c0.6-0.4,1.3-0.6,2-0.6c0.6,0,1,0.1,1.4,0.3c0.4,0.2,0.6,0.4,0.8,0.7c0.2,0.3,0.3,0.5,0.5,0.7h0.1V77h1.8v12.4h-1.8V88h-0.2
		c-0.1,0.2-0.3,0.4-0.5,0.7s-0.5,0.5-0.8,0.7C1188,89.5,1187.6,89.6,1187,89.6z M1187.4,88c0.5,0,1-0.1,1.3-0.4
		c0.4-0.3,0.6-0.7,0.8-1.1c0.2-0.5,0.3-1.1,0.3-1.7c0-0.6-0.1-1.2-0.3-1.7c-0.2-0.5-0.5-0.9-0.8-1.1s-0.8-0.4-1.3-0.4
		c-0.5,0-1,0.1-1.4,0.4c-0.4,0.3-0.6,0.7-0.8,1.2c-0.2,0.5-0.3,1-0.3,1.6c0,0.6,0.1,1.2,0.3,1.7c0.2,0.5,0.5,0.9,0.8,1.2
		C1186.4,87.9,1186.9,88,1187.4,88z"/>
	<path class="st3" d="M1202.8,89.6c-0.9,0-1.6-0.1-2.3-0.4s-1.2-0.7-1.6-1.2c-0.4-0.5-0.6-1.1-0.6-1.8c0-0.5,0.1-1,0.3-1.4
		c0.2-0.4,0.5-0.8,0.9-1.1s0.8-0.5,1.3-0.6v-0.1c-0.6-0.1-1.1-0.5-1.5-1c-0.4-0.5-0.6-1.1-0.5-1.8c0-0.6,0.2-1.2,0.5-1.7
		c0.3-0.5,0.8-0.9,1.4-1.2c0.6-0.3,1.3-0.4,2-0.4c0.8,0,1.4,0.1,2,0.4s1.1,0.7,1.4,1.2s0.5,1.1,0.5,1.7c0,0.7-0.2,1.3-0.6,1.8
		c-0.4,0.5-0.9,0.8-1.5,1V83c0.5,0.1,0.9,0.3,1.3,0.6s0.7,0.7,0.9,1.1c0.2,0.4,0.3,0.9,0.3,1.4c0,0.7-0.2,1.3-0.6,1.8
		c-0.4,0.5-0.9,0.9-1.6,1.2C1204.4,89.4,1203.7,89.6,1202.8,89.6z M1202.8,88c0.5,0,1-0.1,1.3-0.3c0.4-0.2,0.7-0.4,0.9-0.7
		c0.2-0.3,0.3-0.7,0.3-1.1c0-0.4-0.1-0.8-0.3-1.1c-0.2-0.3-0.5-0.6-0.9-0.8c-0.4-0.2-0.8-0.3-1.3-0.3c-0.5,0-0.9,0.1-1.3,0.3
		c-0.4,0.2-0.7,0.4-0.9,0.8c-0.2,0.3-0.3,0.7-0.3,1.1c0,0.4,0.1,0.8,0.3,1.1c0.2,0.3,0.5,0.5,0.9,0.7C1201.9,88,1202.3,88,1202.8,88
		z M1202.8,82.3c0.4,0,0.8-0.1,1.1-0.2c0.3-0.2,0.6-0.4,0.8-0.7c0.2-0.3,0.3-0.6,0.3-1c0-0.4-0.1-0.7-0.3-1
		c-0.2-0.3-0.4-0.5-0.7-0.7c-0.3-0.2-0.7-0.2-1.1-0.2c-0.4,0-0.8,0.1-1.1,0.2c-0.3,0.2-0.6,0.4-0.7,0.7c-0.2,0.3-0.3,0.6-0.3,1
		c0,0.4,0.1,0.7,0.3,1c0.2,0.3,0.4,0.5,0.8,0.7C1202,82.2,1202.4,82.3,1202.8,82.3z"/>
	<path class="st3" d="M1210.6,82.8c-0.3,0-0.6-0.1-0.9-0.4s-0.4-0.5-0.4-0.9s0.1-0.6,0.4-0.8c0.2-0.2,0.5-0.4,0.9-0.4
		c0.3,0,0.6,0.1,0.9,0.4c0.2,0.2,0.4,0.5,0.4,0.8c0,0.2-0.1,0.4-0.2,0.6s-0.3,0.3-0.4,0.4C1211,82.7,1210.8,82.8,1210.6,82.8z
		 M1210.6,89.5c-0.3,0-0.6-0.1-0.9-0.4c-0.2-0.2-0.4-0.5-0.4-0.9c0-0.3,0.1-0.6,0.4-0.8s0.5-0.4,0.9-0.4c0.3,0,0.6,0.1,0.9,0.4
		s0.4,0.5,0.4,0.8c0,0.2-0.1,0.4-0.2,0.6s-0.3,0.3-0.4,0.4C1211,89.5,1210.8,89.5,1210.6,89.5z"/>
	<path class="st3" d="M1218.5,89.6c-1,0-1.8-0.3-2.4-0.8s-1.2-1.2-1.6-2.2c-0.4-1-0.5-2.1-0.5-3.4c0-1.3,0.2-2.5,0.5-3.4
		c0.4-0.9,0.9-1.7,1.6-2.2c0.7-0.5,1.5-0.7,2.4-0.7c0.9,0,1.8,0.3,2.4,0.8c0.7,0.5,1.2,1.2,1.6,2.2s0.5,2.1,0.5,3.4
		c0,1.3-0.2,2.5-0.5,3.5s-0.9,1.7-1.6,2.2C1220.3,89.3,1219.5,89.6,1218.5,89.6z M1218.5,88c0.8,0,1.5-0.4,2-1.2
		c0.5-0.8,0.7-2,0.7-3.5c0-1-0.1-1.9-0.3-2.6c-0.2-0.7-0.5-1.2-0.9-1.6c-0.4-0.4-0.9-0.6-1.4-0.6c-0.8,0-1.5,0.4-2,1.2
		c-0.5,0.8-0.7,2-0.7,3.5c0,1,0.1,1.9,0.3,2.6c0.2,0.7,0.5,1.2,0.9,1.6S1217.9,88,1218.5,88z"/>
	<path class="st3" d="M1229.5,89.6c-1,0-1.8-0.3-2.4-0.8c-0.7-0.5-1.2-1.2-1.6-2.2c-0.4-1-0.5-2.1-0.5-3.4c0-1.3,0.2-2.5,0.5-3.4
		s0.9-1.7,1.6-2.2c0.7-0.5,1.5-0.7,2.4-0.7c0.9,0,1.8,0.3,2.4,0.8c0.7,0.5,1.2,1.2,1.6,2.2s0.5,2.1,0.5,3.4c0,1.3-0.2,2.5-0.5,3.5
		c-0.4,1-0.9,1.7-1.6,2.2C1231.2,89.3,1230.4,89.6,1229.5,89.6z M1229.5,88c0.8,0,1.5-0.4,2-1.2c0.5-0.8,0.7-2,0.7-3.5
		c0-1-0.1-1.9-0.3-2.6s-0.5-1.2-0.9-1.6c-0.4-0.4-0.9-0.6-1.4-0.6c-0.8,0-1.5,0.4-2,1.2c-0.5,0.8-0.7,2-0.7,3.5c0,1,0.1,1.9,0.3,2.6
		c0.2,0.7,0.5,1.2,0.9,1.6S1228.9,88,1229.5,88z"/>
	<path class="st3" d="M1245,89.6c-1,0-1.8-0.3-2.4-0.8s-1.2-1.2-1.6-2.2c-0.4-1-0.5-2.1-0.5-3.4c0-1.3,0.2-2.5,0.5-3.4
		c0.4-0.9,0.9-1.7,1.6-2.2c0.7-0.5,1.5-0.7,2.4-0.7c0.9,0,1.8,0.3,2.4,0.8c0.7,0.5,1.2,1.2,1.6,2.2s0.5,2.1,0.5,3.4
		c0,1.3-0.2,2.5-0.5,3.5s-0.9,1.7-1.6,2.2C1246.7,89.3,1245.9,89.6,1245,89.6z M1245,88c0.8,0,1.5-0.4,2-1.2c0.5-0.8,0.7-2,0.7-3.5
		c0-1-0.1-1.9-0.3-2.6c-0.2-0.7-0.5-1.2-0.9-1.6c-0.4-0.4-0.9-0.6-1.4-0.6c-0.8,0-1.5,0.4-2,1.2c-0.5,0.8-0.7,2-0.7,3.5
		c0,1,0.1,1.9,0.3,2.6c0.2,0.7,0.5,1.2,0.9,1.6S1244.4,88,1245,88z"/>
	<path class="st3" d="M1256.3,77v12.4h-1.9V78.9h-0.1l-3,1.9V79l3.1-2H1256.3z"/>
	<path class="st3" d="M1265.2,83.4V85h-5.5v-1.6H1265.2z"/>
	<path class="st3" d="M1271.9,89.6c-1,0-1.8-0.3-2.4-0.8s-1.2-1.2-1.6-2.2c-0.4-1-0.5-2.1-0.5-3.4c0-1.3,0.2-2.5,0.5-3.4
		c0.4-0.9,0.9-1.7,1.6-2.2c0.7-0.5,1.5-0.7,2.4-0.7c0.9,0,1.8,0.3,2.4,0.8c0.7,0.5,1.2,1.2,1.6,2.2s0.5,2.1,0.5,3.4
		c0,1.3-0.2,2.5-0.5,3.5s-0.9,1.7-1.6,2.2C1273.6,89.3,1272.8,89.6,1271.9,89.6z M1271.9,88c0.8,0,1.5-0.4,2-1.2
		c0.5-0.8,0.7-2,0.7-3.5c0-1-0.1-1.9-0.3-2.6c-0.2-0.7-0.5-1.2-0.9-1.6c-0.4-0.4-0.9-0.6-1.4-0.6c-0.8,0-1.5,0.4-2,1.2
		c-0.5,0.8-0.7,2-0.7,3.5c0,1,0.1,1.9,0.3,2.6c0.2,0.7,0.5,1.2,0.9,1.6S1271.3,88,1271.9,88z"/>
	<path class="st3" d="M1278.3,87v-1.5l5.3-8.4h1.2v2.2h-0.8l-3.8,6v0.1h7.3V87H1278.3z M1284.1,89.4v-2.9l0-0.7V77h1.8v12.4H1284.1z
		"/>
	<path class="st3" d="M1295.1,83.4V85h-5.5v-1.6H1295.1z"/>
	<path class="st3" d="M1297.5,89.4V88l4.2-4.3c0.4-0.5,0.8-0.9,1.1-1.2c0.3-0.4,0.5-0.7,0.7-1c0.1-0.3,0.2-0.7,0.2-1
		c0-0.4-0.1-0.8-0.3-1.1c-0.2-0.3-0.5-0.5-0.8-0.7c-0.3-0.2-0.7-0.2-1.1-0.2c-0.4,0-0.8,0.1-1.2,0.3s-0.6,0.4-0.8,0.8
		c-0.2,0.3-0.3,0.7-0.3,1.2h-1.8c0-0.8,0.2-1.4,0.5-2c0.3-0.6,0.8-1,1.4-1.3c0.6-0.3,1.3-0.5,2.1-0.5c0.8,0,1.5,0.2,2.1,0.5
		c0.6,0.3,1.1,0.7,1.4,1.3c0.3,0.5,0.5,1.1,0.5,1.8c0,0.5-0.1,0.9-0.3,1.3c-0.2,0.4-0.5,0.9-0.9,1.5c-0.4,0.5-1,1.2-1.8,2l-2.5,2.6
		v0.1h5.6v1.6H1297.5z"/>
	<path class="st3" d="M1312.3,89.6c-1,0-1.8-0.3-2.4-0.8c-0.7-0.5-1.2-1.2-1.6-2.2c-0.4-1-0.5-2.1-0.5-3.4c0-1.3,0.2-2.5,0.5-3.4
		s0.9-1.7,1.6-2.2c0.7-0.5,1.5-0.7,2.4-0.7c0.9,0,1.8,0.3,2.4,0.8c0.7,0.5,1.2,1.2,1.6,2.2s0.5,2.1,0.5,3.4c0,1.3-0.2,2.5-0.5,3.5
		c-0.4,1-0.9,1.7-1.6,2.2C1314,89.3,1313.2,89.6,1312.3,89.6z M1312.3,88c0.8,0,1.5-0.4,2-1.2c0.5-0.8,0.7-2,0.7-3.5
		c0-1-0.1-1.9-0.3-2.6s-0.5-1.2-0.9-1.6c-0.4-0.4-0.9-0.6-1.4-0.6c-0.8,0-1.5,0.4-2,1.2c-0.5,0.8-0.7,2-0.7,3.5c0,1,0.1,1.9,0.3,2.6
		c0.2,0.7,0.5,1.2,0.9,1.6S1311.7,88,1312.3,88z"/>
	<path class="st3" d="M1318.9,89.4V88l4.2-4.3c0.4-0.5,0.8-0.9,1.1-1.2c0.3-0.4,0.5-0.7,0.7-1c0.1-0.3,0.2-0.7,0.2-1
		c0-0.4-0.1-0.8-0.3-1.1c-0.2-0.3-0.5-0.5-0.8-0.7c-0.3-0.2-0.7-0.2-1.1-0.2c-0.4,0-0.8,0.1-1.2,0.3s-0.6,0.4-0.8,0.8
		c-0.2,0.3-0.3,0.7-0.3,1.2h-1.8c0-0.8,0.2-1.4,0.5-2c0.3-0.6,0.8-1,1.4-1.3c0.6-0.3,1.3-0.5,2.1-0.5c0.8,0,1.5,0.2,2.1,0.5
		c0.6,0.3,1.1,0.7,1.4,1.3c0.3,0.5,0.5,1.1,0.5,1.8c0,0.5-0.1,0.9-0.3,1.3c-0.2,0.4-0.5,0.9-0.9,1.5c-0.4,0.5-1,1.2-1.8,2l-2.5,2.6
		v0.1h5.6v1.6H1318.9z"/>
	<path class="st3" d="M1329.1,87v-1.5l5.3-8.4h1.2v2.2h-0.8l-3.8,6v0.1h7.3V87H1329.1z M1335,89.4v-2.9l0-0.7V77h1.8v12.4H1335z"/>
	<path class="st3" d="M1340.6,89.4V77h4.4c1,0,1.8,0.2,2.4,0.5s1.1,0.8,1.4,1.4c0.3,0.6,0.5,1.3,0.5,2c0,0.8-0.2,1.4-0.5,2
		c-0.3,0.6-0.8,1.1-1.4,1.4c-0.6,0.4-1.4,0.5-2.4,0.5h-3v-1.6h2.9c0.6,0,1.1-0.1,1.5-0.3s0.7-0.5,0.8-0.9c0.2-0.4,0.3-0.8,0.3-1.2
		c0-0.5-0.1-0.9-0.3-1.2c-0.2-0.4-0.5-0.6-0.8-0.9c-0.4-0.2-0.9-0.3-1.5-0.3h-2.3v10.8H1340.6z"/>
	<path class="st3" d="M1351.5,77h2.3l3.9,9.6h0.1l3.9-9.6h2.3v12.4h-1.8v-8.9h-0.1l-3.6,8.9h-1.5l-3.6-8.9h-0.1v9h-1.8V77z"/>
</g>
<g>
	<g>
		<g>
			<g>
				<path class="st4" d="M1359.1,58.4h-256.5c-3.7,0-6.7-3-6.7-6.7V30.1c0-3.7,3-6.7,6.7-6.7h256.5c3.7,0,6.7,3,6.7,6.7v21.6
					C1365.7,55.4,1362.8,58.4,1359.1,58.4z"/>
			</g>
		</g>
		<g>
			<path class="st2" d="M1256.2,35.1h2.5l4.3,10.5h0.2l4.3-10.5h2.5v13.4h-1.9v-9.7h-0.1l-4,9.7h-1.6l-4-9.7h-0.1v9.7h-1.9V35.1z"/>
			<path class="st2" d="M1276.9,48.7c-0.9,0-1.8-0.2-2.5-0.6c-0.7-0.4-1.3-1-1.6-1.8s-0.6-1.7-0.6-2.7c0-1,0.2-2,0.6-2.7
				c0.4-0.8,0.9-1.4,1.6-1.8c0.7-0.4,1.5-0.6,2.5-0.6s1.8,0.2,2.5,0.6c0.7,0.4,1.3,1,1.6,1.8c0.4,0.8,0.6,1.7,0.6,2.7
				c0,1-0.2,2-0.6,2.7s-0.9,1.4-1.6,1.8C1278.6,48.5,1277.8,48.7,1276.9,48.7z M1276.9,47.1c0.6,0,1.1-0.2,1.5-0.5
				c0.4-0.3,0.7-0.8,0.9-1.3c0.2-0.5,0.3-1.1,0.3-1.8c0-0.6-0.1-1.2-0.3-1.8c-0.2-0.5-0.5-1-0.9-1.3c-0.4-0.3-0.9-0.5-1.5-0.5
				c-0.6,0-1.1,0.2-1.5,0.5c-0.4,0.3-0.7,0.8-0.9,1.3c-0.2,0.5-0.3,1.1-0.3,1.8c0,0.6,0.1,1.2,0.3,1.8c0.2,0.5,0.5,1,0.9,1.3
				C1275.7,46.9,1276.2,47.1,1276.9,47.1z"/>
			<path class="st2" d="M1287.5,48.7c-0.8,0-1.5-0.2-2.2-0.6c-0.6-0.4-1.1-1-1.5-1.8s-0.5-1.7-0.5-2.8c0-1.1,0.2-2,0.5-2.8
				c0.4-0.8,0.9-1.4,1.5-1.8c0.6-0.4,1.4-0.6,2.2-0.6c0.6,0,1.1,0.1,1.5,0.3c0.4,0.2,0.7,0.4,0.9,0.7c0.2,0.3,0.4,0.5,0.5,0.7h0.1
				v-5h2v13.4h-1.9v-1.6h-0.2c-0.1,0.2-0.3,0.5-0.5,0.7c-0.2,0.3-0.5,0.5-0.9,0.7C1288.6,48.6,1288.1,48.7,1287.5,48.7z M1288,47
				c0.6,0,1-0.1,1.4-0.4s0.7-0.7,0.9-1.3c0.2-0.5,0.3-1.2,0.3-1.9c0-0.7-0.1-1.3-0.3-1.8c-0.2-0.5-0.5-0.9-0.9-1.2
				c-0.4-0.3-0.9-0.4-1.4-0.4c-0.6,0-1.1,0.2-1.5,0.5c-0.4,0.3-0.7,0.7-0.9,1.3c-0.2,0.5-0.3,1.1-0.3,1.8c0,0.7,0.1,1.3,0.3,1.8
				s0.5,1,0.9,1.3C1286.9,46.9,1287.4,47,1288,47z"/>
			<path class="st2" d="M1299.7,48.7c-1,0-1.8-0.2-2.6-0.6s-1.3-1-1.7-1.8s-0.6-1.7-0.6-2.7c0-1,0.2-1.9,0.6-2.7
				c0.4-0.8,0.9-1.4,1.6-1.8s1.5-0.7,2.5-0.7c0.6,0,1.1,0.1,1.7,0.3c0.5,0.2,1,0.5,1.4,0.9c0.4,0.4,0.8,0.9,1,1.6
				c0.2,0.6,0.4,1.4,0.4,2.3v0.7h-8v-1.5h6.1c0-0.5-0.1-1-0.3-1.4c-0.2-0.4-0.5-0.7-0.9-0.9c-0.4-0.2-0.8-0.3-1.3-0.3
				c-0.6,0-1,0.1-1.4,0.4c-0.4,0.3-0.7,0.6-0.9,1.1c-0.2,0.4-0.3,0.9-0.3,1.4v1.1c0,0.7,0.1,1.2,0.4,1.7c0.2,0.5,0.6,0.8,1,1.1
				c0.4,0.2,0.9,0.4,1.5,0.4c0.4,0,0.7-0.1,1-0.2c0.3-0.1,0.6-0.3,0.8-0.5c0.2-0.2,0.4-0.5,0.5-0.8l1.9,0.3c-0.1,0.5-0.4,1-0.8,1.4
				s-0.9,0.7-1.4,1C1301,48.6,1300.4,48.7,1299.7,48.7z"/>
			<path class="st2" d="M1306.2,48.5V38.4h1.9V40h0.1c0.2-0.5,0.5-1,1-1.3s1-0.5,1.6-0.5c0.1,0,0.3,0,0.4,0c0.2,0,0.3,0,0.4,0v1.9
				c-0.1,0-0.2,0-0.4-0.1c-0.2,0-0.4,0-0.6,0c-0.5,0-0.9,0.1-1.2,0.3s-0.6,0.5-0.9,0.8c-0.2,0.3-0.3,0.7-0.3,1.2v6.2H1306.2z"/>
			<path class="st2" d="M1316.2,48.7c-0.6,0-1.2-0.1-1.7-0.4c-0.5-0.2-0.9-0.6-1.2-1c-0.3-0.5-0.5-1-0.5-1.7c0-0.6,0.1-1,0.3-1.4
				c0.2-0.4,0.5-0.7,0.9-0.9s0.8-0.4,1.2-0.5c0.5-0.1,0.9-0.2,1.4-0.2c0.6-0.1,1.1-0.1,1.5-0.2c0.4,0,0.7-0.1,0.8-0.2
				c0.2-0.1,0.3-0.3,0.3-0.5v0c0-0.6-0.2-1-0.5-1.3c-0.3-0.3-0.8-0.5-1.4-0.5c-0.7,0-1.2,0.1-1.6,0.4c-0.4,0.3-0.6,0.6-0.8,1
				l-1.8-0.4c0.2-0.6,0.5-1.1,1-1.5c0.4-0.4,0.9-0.7,1.5-0.8c0.6-0.2,1.1-0.3,1.7-0.3c0.4,0,0.8,0,1.3,0.1s0.9,0.3,1.3,0.5
				c0.4,0.2,0.7,0.6,1,1.1c0.3,0.5,0.4,1.1,0.4,1.8v6.7h-1.9v-1.4h-0.1c-0.1,0.3-0.3,0.5-0.6,0.7c-0.3,0.2-0.6,0.4-1,0.6
				C1317.2,48.7,1316.8,48.7,1316.2,48.7z M1316.6,47.2c0.5,0,1-0.1,1.4-0.3c0.4-0.2,0.7-0.5,0.9-0.8c0.2-0.3,0.3-0.7,0.3-1.1v-1.3
				c-0.1,0.1-0.2,0.1-0.4,0.2s-0.4,0.1-0.7,0.2s-0.5,0.1-0.7,0.1c-0.2,0-0.4,0.1-0.6,0.1c-0.4,0-0.7,0.1-1,0.2
				c-0.3,0.1-0.6,0.3-0.7,0.5c-0.2,0.2-0.3,0.5-0.3,0.8c0,0.5,0.2,0.9,0.5,1.1C1315.6,47,1316.1,47.2,1316.6,47.2z"/>
			<path class="st2" d="M1328.5,38.4V40h-5.5v-1.6H1328.5z M1324.5,36h2v9.5c0,0.4,0.1,0.7,0.2,0.9c0.1,0.2,0.3,0.3,0.4,0.4
				c0.2,0.1,0.4,0.1,0.6,0.1c0.2,0,0.3,0,0.4,0c0.1,0,0.2,0,0.3-0.1l0.4,1.6c-0.1,0-0.3,0.1-0.5,0.1s-0.5,0.1-0.8,0.1
				c-0.5,0-1-0.1-1.4-0.3c-0.4-0.2-0.8-0.5-1.1-0.9c-0.3-0.4-0.4-0.9-0.4-1.5V36z"/>
			<path class="st2" d="M1335,48.7c-1,0-1.8-0.2-2.6-0.6s-1.3-1-1.7-1.8s-0.6-1.7-0.6-2.7c0-1,0.2-1.9,0.6-2.7
				c0.4-0.8,0.9-1.4,1.6-1.8s1.5-0.7,2.5-0.7c0.6,0,1.1,0.1,1.7,0.3c0.5,0.2,1,0.5,1.4,0.9c0.4,0.4,0.8,0.9,1,1.6
				c0.2,0.6,0.4,1.4,0.4,2.3v0.7h-8v-1.5h6.1c0-0.5-0.1-1-0.3-1.4c-0.2-0.4-0.5-0.7-0.9-0.9c-0.4-0.2-0.8-0.3-1.3-0.3
				c-0.6,0-1,0.1-1.4,0.4c-0.4,0.3-0.7,0.6-0.9,1.1c-0.2,0.4-0.3,0.9-0.3,1.4v1.1c0,0.7,0.1,1.2,0.4,1.7c0.2,0.5,0.6,0.8,1,1.1
				c0.4,0.2,0.9,0.4,1.5,0.4c0.4,0,0.7-0.1,1-0.2c0.3-0.1,0.6-0.3,0.8-0.5c0.2-0.2,0.4-0.5,0.5-0.8l1.9,0.3c-0.1,0.5-0.4,1-0.8,1.4
				s-0.9,0.7-1.4,1C1336.4,48.6,1335.7,48.7,1335,48.7z"/>
		</g>
		<g>
			<path class="st2" d="M1113.2,48.5h-2.2l4.8-13.4h2.3l4.8,13.4h-2.2l-3.8-11h-0.1L1113.2,48.5z M1113.6,43.2h7V45h-7V43.2z"/>
			<path class="st2" d="M1136.7,41.8c0,1.4-0.3,2.7-0.8,3.7s-1.2,1.8-2.2,2.4s-1.9,0.8-3.1,0.8c-1.2,0-2.2-0.3-3.1-0.8
				c-0.9-0.6-1.6-1.3-2.2-2.4c-0.5-1-0.8-2.3-0.8-3.7c0-1.4,0.3-2.7,0.8-3.7c0.5-1,1.2-1.8,2.2-2.4c0.9-0.6,2-0.8,3.1-0.8
				c1.2,0,2.2,0.3,3.1,0.8s1.6,1.3,2.2,2.4C1136.4,39.1,1136.7,40.4,1136.7,41.8z M1134.7,41.8c0-1.1-0.2-2-0.5-2.8
				c-0.4-0.8-0.8-1.3-1.4-1.7s-1.3-0.6-2.1-0.6c-0.8,0-1.5,0.2-2.1,0.6s-1.1,1-1.4,1.7c-0.4,0.8-0.5,1.7-0.5,2.8
				c0,1.1,0.2,2,0.5,2.8c0.4,0.8,0.8,1.3,1.4,1.7c0.6,0.4,1.3,0.6,2.1,0.6c0.8,0,1.5-0.2,2.1-0.6c0.6-0.4,1.1-1,1.4-1.7
				C1134.5,43.8,1134.7,42.9,1134.7,41.8z M1130,44.2h2l1.4,1.8l0.7,0.8l2.2,2.9h-2.1l-1.5-1.9l-0.5-0.7L1130,44.2z"/>
			<path class="st2" d="M1141.3,35.1v13.4h-2V35.1H1141.3z"/>
		</g>
		<g>
			<g>
				<path class="st2" d="M1165.6,34.9c0.7,0,1.4,0.1,2,0.3c0.6,0.2,1.2,0.6,1.7,1.1c0.5,0.5,0.9,1.2,1.2,2c0.3,0.8,0.4,1.9,0.5,3.1
					c0,1.1-0.1,2.2-0.4,3.1c-0.3,0.9-0.6,1.7-1.1,2.3c-0.5,0.6-1.1,1.1-1.7,1.4c-0.7,0.3-1.4,0.5-2.3,0.5c-0.9,0-1.7-0.2-2.4-0.5
					c-0.7-0.3-1.2-0.8-1.7-1.4c-0.4-0.6-0.7-1.3-0.8-2h2.8c0.1,0.5,0.3,0.9,0.7,1.1c0.4,0.3,0.8,0.4,1.3,0.4c0.9,0,1.5-0.4,2-1.1
					s0.7-1.8,0.7-3.1h-0.1c-0.2,0.4-0.5,0.7-0.8,1s-0.7,0.5-1.2,0.7c-0.4,0.2-0.9,0.2-1.4,0.2c-0.8,0-1.5-0.2-2.1-0.6
					c-0.6-0.4-1.1-0.9-1.5-1.5c-0.4-0.7-0.5-1.4-0.5-2.2c0-0.9,0.2-1.7,0.6-2.4c0.4-0.7,1-1.3,1.8-1.7S1164.6,34.9,1165.6,34.9z
					 M1165.6,37.1c-0.4,0-0.8,0.1-1.2,0.3c-0.3,0.2-0.6,0.5-0.8,0.8s-0.3,0.8-0.3,1.2c0,0.4,0.1,0.8,0.3,1.2
					c0.2,0.4,0.5,0.6,0.8,0.8s0.7,0.3,1.2,0.3c0.3,0,0.6-0.1,0.9-0.2s0.5-0.3,0.7-0.5c0.2-0.2,0.4-0.5,0.5-0.8s0.2-0.6,0.2-0.9
					c0-0.4-0.1-0.8-0.3-1.2c-0.2-0.4-0.5-0.6-0.8-0.9S1166,37.1,1165.6,37.1z"/>
				<path class="st2" d="M1178.2,48.8c-1.1,0-2.1-0.3-2.9-0.8c-0.8-0.6-1.4-1.4-1.9-2.4c-0.4-1-0.7-2.3-0.6-3.8
					c0-1.5,0.2-2.7,0.7-3.7c0.4-1,1.1-1.8,1.9-2.4c0.8-0.5,1.8-0.8,2.9-0.8c1.1,0,2.1,0.3,2.9,0.8c0.8,0.5,1.4,1.3,1.9,2.4
					c0.4,1,0.7,2.3,0.7,3.7c0,1.5-0.2,2.7-0.7,3.8s-1.1,1.8-1.9,2.4S1179.3,48.8,1178.2,48.8z M1178.2,46.5c0.8,0,1.4-0.4,1.8-1.2
					c0.5-0.8,0.7-1.9,0.7-3.5c0-1-0.1-1.9-0.3-2.5s-0.5-1.2-0.9-1.5c-0.4-0.3-0.8-0.5-1.3-0.5c-0.8,0-1.4,0.4-1.8,1.1
					c-0.5,0.8-0.7,1.9-0.7,3.4c0,1,0.1,1.9,0.3,2.6c0.2,0.7,0.5,1.2,0.9,1.5C1177.2,46.3,1177.7,46.5,1178.2,46.5z"/>
			</g>
		</g>
	</g>
	<g>
		<path class="st2" d="M1245.9,42.8c-0.2-0.3-0.6-0.5-1-0.6c-0.1,0-0.1,0-0.2,0c0,0,0,0,0,0c0-0.2,0.2-0.7,0.2-0.9
			c0.1-0.2,0.1-0.3,0.1-0.4c0.1-0.6,0.2-1.2,0.3-1.8c0.2-1.6,0-3.1-0.5-4.3c-0.5-1.3-1.6-2.4-2.9-3.1c-0.1,0-0.2,0-0.2,0
			c0.3-0.2,0.7-0.5,1-0.9c0.1-0.1,0.1-0.3-0.1-0.4c-0.1-0.1-0.3-0.1-0.4,0.1c-0.9,1.2-1.8,1-1.9,1c-0.1,0-0.3,0.1-0.3,0.2
			c0,0.1,0,0.3,0.2,0.3c0,0,0.1,0,0.3,0c0.2,0,0.5,0,0.9-0.2c0,0-0.1,0.1-0.1,0.1c-0.1,0.2,0,0.4,0.2,0.5c1.2,0.6,2.1,1.5,2.6,2.7
			c0.4,1.1,0.6,2.4,0.4,3.9c-0.1,0.5-0.2,1.1-0.3,1.7c0,0.1-0.1,0.2-0.1,0.3c-0.1,0.2-0.2,0.5-0.2,0.7c-0.1-1.4-1.5-2.5-2.3-3.1
			l-0.1-0.1c-0.4-0.3-0.8-0.6-1.2-0.8c-0.2-0.1-0.4-0.3-0.6-0.4c-0.7-0.5-1-0.9-0.9-1.4c0-0.1-0.1-0.3-0.2-0.3
			c-0.1,0-0.3,0.1-0.3,0.2c0,0.7,0.3,1.3,1.2,1.9c0.2,0.1,0.4,0.3,0.6,0.4c0.4,0.2,0.8,0.5,1.1,0.8l0.1,0.1c0.8,0.7,2.1,1.6,2.1,2.9
			c0,0.1,0.1,0.3,0.3,0.3c0.1,0,0.1,0,0.2-0.1c0,0.3,0,0.5,0.3,0.6c0.2,0.1,0.3,0.1,0.5,0.1c0,0,0.1,0,0.1,0c0.2,0,0.3,0.1,0.4,0.3
			c0.1,0.2,0.1,0.3,0.1,0.5l-0.6,2.2c-0.1,0.5-0.6,0.8-1.1,0.8l0,0l0.8-2.6c0.1-0.2,0-0.4-0.2-0.5c-0.2-0.1-0.4,0-0.5,0.2l-1,3
			c-1.4,3.9-3.7,5.9-6.6,5.9c-3,0-5.2-2-6.6-5.9l-1-3c-0.1-0.2-0.3-0.3-0.5-0.2c-0.2,0.1-0.3,0.3-0.2,0.5l0.8,2.6l0,0
			c-0.5,0.1-1-0.3-1.1-0.8l-0.6-2.2c0-0.2,0-0.4,0.1-0.5c0.1-0.2,0.3-0.2,0.4-0.3c0.1,0,0.1,0,0.2,0c0.2,0,0.6,0,0.7-0.5
			c0,0.1,0.1,0.2,0.2,0.2c0,0,0,0,0,0c0.7,0,1.2-0.7,1.5-1.2c0.2-0.5,0.2-1,0.3-1.5c0-0.3,0-0.5,0.1-0.7c0.2-1.1,0.9-2.1,1.8-2.7
			c0.5-0.3,1.1-0.5,1.8-0.6c0.5,0,1,0,1.5,0c0.2,0,0.5,0,0.7,0c0.3,0,0.8,0,1.2-0.1c0.3-0.1,0.9-0.2,1.1-0.7c0.1-0.1,0-0.3-0.1-0.3
			c-0.1-0.1-0.3,0-0.3,0.1c-0.1,0.2-0.6,0.3-0.8,0.4c-0.4,0.1-0.8,0.1-1.1,0.1c-0.2,0-0.5,0-0.7,0c-0.5,0-1,0-1.6,0
			c-0.8,0.1-1.4,0.3-2,0.6c-1.1,0.7-1.8,1.8-2.1,3c0,0.3-0.1,0.5-0.1,0.8c0,0.5-0.1,0.9-0.2,1.3c-0.2,0.4-0.5,0.9-1,0.9
			c-0.1,0-0.2,0.1-0.2,0.1c0-0.3-0.1-0.7-0.2-1c-0.1-0.2-0.1-0.3-0.2-0.5c-0.5-2.3-0.5-4.2,0.2-5.7c1.2-2.8,4.5-3.4,7-3.4
			c0.1,0,1.5,0,3.2-0.2c2.3-0.2,3.8-0.6,4.5-1.2c0.2-0.1,0.2-0.4,0.1-0.5c-0.1-0.2-0.4-0.2-0.5-0.1c-1.3,1-5.6,1.2-7.2,1.2
			c-1.7,0-3.2,0.3-4.4,0.8c-1.5,0.7-2.6,1.7-3.3,3.1c-0.7,1.7-0.8,3.7-0.2,6.2c0,0.2,0.1,0.4,0.2,0.6c0.1,0.2,0.2,0.5,0.2,0.7
			c0,0,0,0,0,0c-0.1,0-0.1,0-0.2,0c-0.4,0.1-0.7,0.3-1,0.6c-0.2,0.3-0.3,0.7-0.2,1.1l0.6,2.2c0.2,0.9,1.1,1.4,2,1.3l0.2,0
			c0.7,1.7,1.5,3.1,2.5,4.1c1.3,1.3,2.9,2,4.7,2s3.4-0.7,4.7-2c1-1,1.8-2.4,2.5-4.1l0.2,0c0.9,0.1,1.7-0.4,2-1.3l0.6-2.2
			C1246.2,43.5,1246.1,43.1,1245.9,42.8z"/>
		<path class="st2" d="M1232.7,42.1v1c0,0.2,0.2,0.4,0.4,0.4c0.2,0,0.4-0.2,0.4-0.4v-1c0-0.2-0.2-0.4-0.4-0.4
			C1232.9,41.7,1232.7,41.9,1232.7,42.1z"/>
		<path class="st2" d="M1233.9,41.1c0.1,0.1,0.2,0.1,0.4,0c0.1-0.1,0.1-0.2,0-0.4c-0.3-0.3-0.8-0.6-1.4-0.6c-0.7,0-1.3,0.3-1.5,0.8
			c-0.1,0.1,0,0.3,0.1,0.3c0,0,0.1,0,0.1,0c0.1,0,0.2-0.1,0.2-0.1c0.1-0.2,0.5-0.5,1.1-0.5C1233.3,40.7,1233.7,40.8,1233.9,41.1z"/>
		<path class="st2" d="M1239.2,41.7c-0.2,0-0.4,0.2-0.4,0.4v1c0,0.2,0.2,0.4,0.4,0.4l0,0c0.2,0,0.4-0.2,0.4-0.4v-1
			C1239.6,41.9,1239.4,41.7,1239.2,41.7L1239.2,41.7z"/>
		<path class="st2" d="M1240.5,41.2c0,0.1,0.1,0.1,0.2,0.1c0,0,0.1,0,0.1,0c0.1-0.1,0.2-0.2,0.1-0.3c-0.2-0.5-0.8-0.8-1.5-0.8
			c-0.6,0-1.1,0.2-1.4,0.6c-0.1,0.1-0.1,0.3,0,0.4c0.1,0.1,0.3,0.1,0.4,0c0.2-0.2,0.6-0.4,1-0.4C1240,40.7,1240.4,40.9,1240.5,41.2z
			"/>
		<path class="st2" d="M1235.8,45.7c0.1,0,0.2,0,0.2-0.1c0.3-0.4,0.4-2,0.4-2.3c0-0.1-0.1-0.3-0.2-0.3c-0.1,0-0.3,0.1-0.3,0.2
			c0,0.8-0.2,1.8-0.3,2c-0.1,0.1-0.1,0.3,0.1,0.4C1235.7,45.7,1235.7,45.7,1235.8,45.7z"/>
		<path class="st2" d="M1233.8,49.1h4.7c0.1,0,0.3-0.1,0.3-0.3c0-0.1-0.1-0.3-0.3-0.3h-4.7c-0.1,0-0.3,0.1-0.3,0.3
			C1233.5,49,1233.7,49.1,1233.8,49.1z"/>
	</g>
</g>
<g>
	<g>
		<path class="st2" d="M316.5,56.4l-8.6-12c-0.6-0.8,0-2.1,1.1-2.1h17.3c1.1,0,1.8,1.3,1.1,2.1l-8.6,12
			C318.1,57.1,317,57.1,316.5,56.4z"/>
	</g>
</g>
</svg>
