<?xml version="1.0" encoding="utf-8"?>
<!-- Generator: Adobe Illustrator 28.1.0, SVG Export Plug-In . SVG Version: 6.00 Build 0)  -->
<svg version="1.1" id="Layer_1" xmlns="http://www.w3.org/2000/svg" xmlns:xlink="http://www.w3.org/1999/xlink" x="0px" y="0px"
	 viewBox="0 0 152 81" style="enable-background:new 0 0 152 81;" xml:space="preserve">
<style type="text/css">
	.st0{fill:#E7E7E7;}
	.st1{fill:none;stroke:#888888;stroke-width:0.6165;stroke-miterlimit:10;}
	.st2{fill:#25B5B1;}
	.st3{fill:#888888;}
	.st4{fill:#00C800;}
</style>
<g>
	<g>
		<g>
			<g>
				<path class="st0" d="M139.1,70.6H12.9c-4.3,0-7.7-3.5-7.7-7.8V18.3c0-4.3,3.5-7.8,7.7-7.8h126.1c4.3,0,7.7,3.5,7.7,7.8v44.5
					C146.8,67.1,143.3,70.6,139.1,70.6z"/>
				<line class="st1" x1="14.8" y1="40.9" x2="137.2" y2="40.9"/>
			</g>
			<g>
				<g>
					<path class="st2" d="M25.8,62.4v-1.8l4.3-3.9c0.4-0.4,0.7-0.7,0.9-0.9s0.4-0.6,0.6-0.8c0.1-0.3,0.2-0.6,0.2-0.9
						c0-0.4-0.1-0.7-0.2-0.9s-0.4-0.5-0.7-0.6c-0.3-0.1-0.6-0.2-0.9-0.2c-0.4,0-0.7,0.1-1,0.2s-0.5,0.4-0.6,0.6
						c-0.1,0.3-0.2,0.6-0.2,1h-2.4c0-0.8,0.2-1.5,0.5-2c0.4-0.6,0.9-1,1.5-1.3c0.6-0.3,1.4-0.5,2.2-0.5c0.9,0,1.6,0.2,2.2,0.5
						c0.6,0.3,1.1,0.7,1.5,1.3s0.5,1.1,0.5,1.8c0,0.5-0.1,0.9-0.3,1.3c-0.2,0.4-0.5,0.9-0.9,1.5c-0.5,0.5-1.1,1.2-1.9,1.9l-1.7,1.7
						v0.1h5v2.1H25.8z"/>
					<path class="st2" d="M40.5,50.2c0.6,0,1.2,0.1,1.8,0.3c0.6,0.2,1.1,0.5,1.5,1c0.4,0.5,0.8,1,1.1,1.8c0.3,0.7,0.4,1.7,0.4,2.7
						c0,1-0.1,1.9-0.3,2.7c-0.2,0.8-0.6,1.5-1,2s-0.9,1-1.5,1.3s-1.3,0.4-2,0.4c-0.8,0-1.5-0.2-2.1-0.5c-0.6-0.3-1.1-0.7-1.5-1.3
						c-0.4-0.5-0.6-1.1-0.7-1.8h2.5c0.1,0.4,0.3,0.8,0.6,1s0.7,0.4,1.2,0.4c0.8,0,1.4-0.3,1.8-1c0.4-0.7,0.6-1.6,0.6-2.8h-0.1
						c-0.2,0.4-0.4,0.7-0.7,0.9c-0.3,0.3-0.7,0.4-1,0.6c-0.4,0.1-0.8,0.2-1.2,0.2c-0.7,0-1.3-0.2-1.9-0.5c-0.6-0.3-1-0.8-1.3-1.4
						s-0.5-1.2-0.5-2c0-0.8,0.2-1.5,0.6-2.1c0.4-0.6,0.9-1.1,1.6-1.5C38.9,50.4,39.6,50.2,40.5,50.2z M40.5,52.2
						c-0.4,0-0.7,0.1-1,0.3s-0.5,0.4-0.7,0.8c-0.2,0.3-0.3,0.7-0.3,1.1c0,0.4,0.1,0.7,0.3,1.1c0.2,0.3,0.4,0.6,0.7,0.7
						s0.6,0.3,1,0.3c0.3,0,0.6-0.1,0.8-0.2s0.5-0.3,0.7-0.5c0.2-0.2,0.3-0.4,0.4-0.7c0.1-0.3,0.2-0.5,0.2-0.8c0-0.4-0.1-0.7-0.3-1
						c-0.2-0.3-0.4-0.6-0.7-0.8S40.9,52.2,40.5,52.2z"/>
					<path class="st2" d="M48.5,62.5c-0.4,0-0.7-0.1-1-0.4s-0.4-0.6-0.4-1c0-0.4,0.1-0.7,0.4-1s0.6-0.4,1-0.4c0.4,0,0.7,0.1,1,0.4
						s0.4,0.6,0.4,1c0,0.3-0.1,0.5-0.2,0.7c-0.1,0.2-0.3,0.4-0.5,0.5S48.8,62.5,48.5,62.5z"/>
					<path class="st2" d="M56.3,50.2c0.6,0,1.2,0.1,1.8,0.3c0.6,0.2,1.1,0.5,1.5,1c0.4,0.5,0.8,1,1.1,1.8c0.3,0.7,0.4,1.7,0.4,2.7
						c0,1-0.1,1.9-0.3,2.7c-0.2,0.8-0.6,1.5-1,2s-0.9,1-1.5,1.3s-1.3,0.4-2,0.4c-0.8,0-1.5-0.2-2.1-0.5c-0.6-0.3-1.1-0.7-1.5-1.3
						c-0.4-0.5-0.6-1.1-0.7-1.8h2.5c0.1,0.4,0.3,0.8,0.6,1s0.7,0.4,1.2,0.4c0.8,0,1.4-0.3,1.8-1c0.4-0.7,0.6-1.6,0.6-2.8h-0.1
						c-0.2,0.4-0.4,0.7-0.7,0.9c-0.3,0.3-0.7,0.4-1,0.6c-0.4,0.1-0.8,0.2-1.2,0.2c-0.7,0-1.3-0.2-1.9-0.5c-0.6-0.3-1-0.8-1.3-1.4
						s-0.5-1.2-0.5-2c0-0.8,0.2-1.5,0.6-2.1c0.4-0.6,0.9-1.1,1.6-1.5C54.6,50.4,55.4,50.2,56.3,50.2z M56.3,52.2
						c-0.4,0-0.7,0.1-1,0.3s-0.5,0.4-0.7,0.8c-0.2,0.3-0.3,0.7-0.3,1.1c0,0.4,0.1,0.7,0.3,1.1c0.2,0.3,0.4,0.6,0.7,0.7
						s0.6,0.3,1,0.3c0.3,0,0.6-0.1,0.8-0.2s0.5-0.3,0.7-0.5c0.2-0.2,0.3-0.4,0.4-0.7c0.1-0.3,0.2-0.5,0.2-0.8c0-0.4-0.1-0.7-0.3-1
						c-0.2-0.3-0.4-0.6-0.7-0.8S56.7,52.2,56.3,52.2z"/>
					<path class="st2" d="M68,50.4v12h-2.5v-9.6h-0.1l-2.7,1.7v-2.2l3-1.9H68z"/>
					<path class="st2" d="M78.6,65.3V54.5h1.2v4.6c0,0.4,0.1,0.8,0.3,1.1s0.4,0.6,0.8,0.8c0.3,0.2,0.7,0.3,1.1,0.3
						c0.4,0,0.8-0.1,1.1-0.3s0.6-0.4,0.8-0.8c0.2-0.3,0.3-0.7,0.3-1.1v-4.6h1.2v7.8h-1.2v-1.2h-0.1c-0.2,0.4-0.5,0.7-0.9,0.9
						s-0.8,0.3-1.2,0.3c-0.4,0-0.8-0.1-1.2-0.3c-0.4-0.2-0.7-0.5-0.9-0.9h-0.1v4.1H78.6z"/>
					<path class="st2" d="M90.7,65.5c-0.6,0-1.1-0.1-1.5-0.2c-0.4-0.1-0.8-0.3-1-0.6c-0.3-0.2-0.5-0.5-0.7-0.8l1-0.7
						c0.1,0.1,0.2,0.3,0.4,0.5s0.4,0.3,0.7,0.5c0.3,0.1,0.7,0.2,1.1,0.2c0.6,0,1.2-0.2,1.6-0.5s0.6-0.8,0.6-1.4v-1.6h-0.1
						c-0.1,0.1-0.2,0.3-0.4,0.5c-0.2,0.2-0.4,0.4-0.7,0.6c-0.3,0.2-0.7,0.2-1.2,0.2c-0.6,0-1.2-0.1-1.7-0.4
						c-0.5-0.3-0.9-0.7-1.2-1.3c-0.3-0.6-0.4-1.3-0.4-2.1c0-0.8,0.1-1.5,0.4-2.1c0.3-0.6,0.7-1.1,1.2-1.4s1.1-0.5,1.7-0.5
						c0.5,0,0.9,0.1,1.2,0.3c0.3,0.2,0.5,0.4,0.7,0.6c0.2,0.2,0.3,0.4,0.4,0.5h0.1v-1.2h1.2v8.1c0,0.7-0.2,1.2-0.5,1.6
						c-0.3,0.4-0.7,0.7-1.2,0.9C91.9,65.4,91.3,65.5,90.7,65.5z M90.7,61.2c0.5,0,0.9-0.1,1.2-0.3c0.3-0.2,0.6-0.5,0.8-1
						s0.3-0.9,0.3-1.5c0-0.6-0.1-1.1-0.3-1.5c-0.2-0.4-0.4-0.8-0.8-1s-0.7-0.4-1.2-0.4c-0.5,0-0.9,0.1-1.3,0.4s-0.6,0.6-0.8,1
						c-0.2,0.4-0.3,0.9-0.3,1.5c0,0.5,0.1,1,0.3,1.4c0.2,0.4,0.4,0.7,0.8,1S90.2,61.2,90.7,61.2z"/>
					<path class="st2" d="M100,51.4l-3.4,12.5h-1.1l3.4-12.5H100z"/>
					<path class="st2" d="M105.1,51.4l-3.4,12.5h-1.1l3.4-12.5H105.1z"/>
					<path class="st2" d="M106.6,62.4v-7.8h1.2v1.2h0.1c0.2-0.4,0.4-0.7,0.8-1c0.4-0.2,0.8-0.3,1.3-0.3c0.5,0,0.9,0.1,1.3,0.3
						c0.3,0.2,0.6,0.6,0.8,1h0.1c0.2-0.4,0.5-0.7,0.9-1c0.4-0.2,0.9-0.4,1.4-0.4c0.7,0,1.3,0.2,1.7,0.7s0.7,1.1,0.7,2v5.3h-1.2v-5.3
						c0-0.6-0.2-1-0.5-1.2c-0.3-0.2-0.7-0.4-1.1-0.4c-0.6,0-1,0.2-1.3,0.5c-0.3,0.3-0.5,0.8-0.5,1.3v5.1h-1.2V57
						c0-0.4-0.1-0.8-0.4-1.1c-0.3-0.3-0.7-0.4-1.1-0.4c-0.3,0-0.6,0.1-0.9,0.2c-0.3,0.2-0.5,0.4-0.7,0.7s-0.2,0.6-0.2,1v4.9H106.6z"
						/>
					<path class="st2" d="M122.6,62.5c-0.7,0-1.3-0.1-1.8-0.3c-0.5-0.2-0.9-0.6-1.3-1c-0.3-0.4-0.5-0.9-0.5-1.4h1.3
						c0,0.3,0.1,0.6,0.3,0.9c0.2,0.2,0.5,0.4,0.8,0.6s0.7,0.2,1.1,0.2c0.4,0,0.8-0.1,1.2-0.2s0.6-0.4,0.8-0.7c0.2-0.3,0.3-0.6,0.3-1
						c0-0.4-0.1-0.7-0.3-1c-0.2-0.3-0.5-0.5-0.8-0.7c-0.4-0.2-0.8-0.3-1.3-0.3h-0.8v-1.1h0.8c0.4,0,0.8-0.1,1.1-0.2
						c0.3-0.1,0.6-0.4,0.7-0.6c0.2-0.3,0.3-0.6,0.3-1c0-0.4-0.1-0.7-0.2-0.9c-0.2-0.3-0.4-0.5-0.7-0.6s-0.6-0.2-1-0.2
						c-0.4,0-0.7,0.1-1,0.2c-0.3,0.1-0.6,0.3-0.8,0.6c-0.2,0.2-0.3,0.5-0.3,0.9h-1.2c0-0.5,0.2-1,0.5-1.4c0.3-0.4,0.7-0.7,1.2-1
						s1.1-0.3,1.7-0.3c0.6,0,1.2,0.1,1.7,0.4c0.5,0.3,0.8,0.6,1.1,1c0.2,0.4,0.4,0.9,0.4,1.4c0,0.6-0.2,1.1-0.5,1.5
						s-0.7,0.7-1.3,0.9V57c0.7,0.1,1.2,0.4,1.5,0.8s0.6,1,0.6,1.7c0,0.6-0.2,1.1-0.5,1.5s-0.7,0.8-1.3,1.1S123.3,62.5,122.6,62.5z"
						/>
				</g>
			</g>
			<g>
				<g>
					<path class="st3" d="M17.8,30.3V17.6h4.5c1,0,1.8,0.2,2.5,0.5c0.6,0.4,1.1,0.9,1.5,1.5c0.3,0.6,0.5,1.3,0.5,2.1
						c0,0.8-0.2,1.5-0.5,2.1c-0.3,0.6-0.8,1.1-1.5,1.5s-1.5,0.5-2.5,0.5h-3.1v-1.6h2.9c0.6,0,1.1-0.1,1.5-0.3
						c0.4-0.2,0.7-0.5,0.9-0.9c0.2-0.4,0.3-0.8,0.3-1.3c0-0.5-0.1-0.9-0.3-1.3c-0.2-0.4-0.5-0.7-0.9-0.9s-0.9-0.3-1.5-0.3h-2.4v11.1
						H17.8z"/>
					<path class="st3" d="M29,17.6h2.3l4,9.9h0.1l4-9.9h2.3v12.7h-1.8v-9.2H40l-3.7,9.2h-1.5L31,21.1h-0.1v9.2H29V17.6z"/>
					<path class="st3" d="M44.4,32.3v-1.2l3.8-3.9c0.4-0.4,0.7-0.8,1-1.1c0.3-0.3,0.5-0.6,0.6-0.9c0.1-0.3,0.2-0.6,0.2-0.9
						c0-0.4-0.1-0.7-0.3-1c-0.2-0.3-0.4-0.5-0.7-0.6c-0.3-0.1-0.6-0.2-1-0.2c-0.4,0-0.8,0.1-1.1,0.2c-0.3,0.2-0.5,0.4-0.7,0.7
						C46.1,23.6,46,24,46,24.4h-1.6c0-0.7,0.2-1.3,0.5-1.8c0.3-0.5,0.7-0.9,1.3-1.2c0.5-0.3,1.2-0.4,1.9-0.4c0.7,0,1.3,0.1,1.9,0.4
						c0.5,0.3,1,0.7,1.3,1.1c0.3,0.5,0.5,1,0.5,1.6c0,0.4-0.1,0.8-0.2,1.2c-0.2,0.4-0.4,0.8-0.8,1.3c-0.4,0.5-0.9,1.1-1.6,1.8
						l-2.2,2.3v0.1h5v1.5H44.4z"/>
					<path class="st3" d="M54.9,32.4c-0.3,0-0.6-0.1-0.8-0.3c-0.2-0.2-0.3-0.5-0.3-0.8c0-0.3,0.1-0.6,0.3-0.8
						c0.2-0.2,0.5-0.3,0.8-0.3c0.3,0,0.6,0.1,0.8,0.3c0.2,0.2,0.3,0.5,0.3,0.8c0,0.2,0,0.4-0.2,0.6c-0.1,0.2-0.2,0.3-0.4,0.4
						C55.3,32.4,55.1,32.4,54.9,32.4z"/>
					<path class="st3" d="M61.9,32.5c-0.7,0-1.3-0.1-1.8-0.4c-0.5-0.3-1-0.6-1.3-1.1c-0.3-0.5-0.5-1-0.5-1.6h1.6
						c0,0.5,0.3,0.9,0.6,1.2s0.9,0.5,1.4,0.5c0.4,0,0.8-0.1,1.1-0.3c0.3-0.2,0.6-0.5,0.8-0.8c0.2-0.4,0.3-0.8,0.3-1.2
						c0-0.5-0.1-0.9-0.3-1.2c-0.2-0.4-0.5-0.6-0.8-0.8c-0.3-0.2-0.7-0.3-1.2-0.3c-0.3,0-0.7,0.1-1,0.2S60.2,26.8,60,27l-1.5-0.2
						l0.6-5.6h6.2v1.5h-4.8l-0.4,3.1h0.1c0.2-0.2,0.5-0.4,0.9-0.5c0.4-0.1,0.8-0.2,1.2-0.2c0.7,0,1.3,0.2,1.8,0.5
						c0.5,0.3,1,0.8,1.3,1.3s0.5,1.2,0.5,1.9c0,0.7-0.2,1.4-0.5,1.9s-0.8,1-1.4,1.3S62.6,32.5,61.9,32.5z"/>
				</g>
			</g>
		</g>
		<g>
			<path class="st4" d="M139.1,22.5c-1.1-3.5-4.3-6.1-8.1-6.1c-3.8,0-7.1,2.5-8.1,6c-0.2,0.8-0.4,1.7-0.4,2.5c0,0.8,0.1,1.7,0.4,2.4
				c1.1,3.5,4.3,6.1,8.1,6.1c3.8,0,7.1-2.5,8.1-6c0.2-0.8,0.4-1.7,0.4-2.5C139.5,24.1,139.3,23.3,139.1,22.5z M130.9,29.3
				c-1.4,0-2.6-0.7-3.5-1.8c-0.6-0.7-0.8-1.7-0.8-2.6c0-0.8,0.2-1.7,0.7-2.3c0.7-1.2,2.2-2,3.7-2c1.6,0,3,0.8,3.7,2.2
				c0.4,0.6,0.6,1.4,0.6,2.3c0,1.1-0.4,1.9-1,2.6C133.6,28.6,132.4,29.3,130.9,29.3z"/>
			<path class="st4" d="M129.2,25.1c0-1,0.8-1.8,1.8-1.8c1,0,1.8,0.8,1.8,1.8c0,1-0.8,1.8-1.8,1.8C130,26.9,129.2,26.1,129.2,25.1z"
				/>
		</g>
	</g>
</g>
</svg>
