<?xml version="1.0" encoding="utf-8"?>
<!-- Generator: Adobe Illustrator 28.1.0, SVG Export Plug-In . SVG Version: 6.00 Build 0)  -->
<svg version="1.1" id="Layer_1" xmlns="http://www.w3.org/2000/svg" xmlns:xlink="http://www.w3.org/1999/xlink" x="0px" y="0px"
	 viewBox="0 0 152 81" style="enable-background:new 0 0 152 81;" xml:space="preserve">
<style type="text/css">
	.st0{fill:#E7E7E7;}
	.st1{fill:none;stroke:#888888;stroke-width:0.6165;stroke-miterlimit:10;}
	.st2{fill:#25B5B1;}
	.st3{fill:#888888;}
	.st4{fill:#00C800;}
</style>
<g>
	<g>
		<g>
			<path class="st0" d="M139.1,70.6H12.9c-4.3,0-7.7-3.5-7.7-7.8V18.3c0-4.3,3.5-7.8,7.7-7.8h126.1c4.3,0,7.7,3.5,7.7,7.8v44.5
				C146.8,67.1,143.3,70.6,139.1,70.6z"/>
			<line class="st1" x1="14.8" y1="40.9" x2="137.2" y2="40.9"/>
		</g>
		<g>
			<g>
				<g>
					<path class="st2" d="M63.2,62.5c-0.9,0-1.6-0.2-2.3-0.5c-0.7-0.3-1.2-0.7-1.6-1.2c-0.4-0.5-0.6-1.1-0.6-1.8h2.5
						c0,0.3,0.1,0.5,0.3,0.8c0.2,0.2,0.4,0.4,0.7,0.5c0.3,0.1,0.6,0.2,1,0.2c0.4,0,0.7-0.1,1-0.2s0.5-0.3,0.7-0.6
						c0.2-0.2,0.3-0.5,0.3-0.8c0-0.3-0.1-0.6-0.3-0.8c-0.2-0.2-0.4-0.4-0.8-0.6s-0.7-0.2-1.2-0.2h-1.1v-1.9H63c0.4,0,0.7-0.1,1-0.2
						s0.5-0.3,0.7-0.6c0.2-0.2,0.2-0.5,0.2-0.8c0-0.3-0.1-0.6-0.2-0.8c-0.1-0.2-0.3-0.4-0.6-0.5c-0.3-0.1-0.6-0.2-0.9-0.2
						c-0.3,0-0.7,0.1-0.9,0.2c-0.3,0.1-0.5,0.3-0.7,0.5c-0.2,0.2-0.3,0.5-0.3,0.8H59c0-0.7,0.2-1.3,0.6-1.8c0.4-0.5,0.9-0.9,1.5-1.2
						c0.6-0.3,1.4-0.4,2.2-0.4c0.8,0,1.5,0.1,2.2,0.4c0.6,0.3,1.1,0.7,1.4,1.2c0.3,0.5,0.5,1.1,0.5,1.7c0,0.7-0.2,1.2-0.6,1.7
						c-0.4,0.4-1,0.7-1.6,0.9v0.1c0.9,0.1,1.5,0.4,2,0.9s0.7,1.1,0.7,1.9c0,0.7-0.2,1.3-0.6,1.8c-0.4,0.5-0.9,0.9-1.6,1.2
						C64.9,62.4,64.1,62.5,63.2,62.5z"/>
					<path class="st2" d="M74.4,62.6c-1,0-1.9-0.3-2.6-0.7c-0.7-0.5-1.3-1.2-1.7-2.1c-0.4-0.9-0.6-2-0.6-3.4c0-1.3,0.2-2.4,0.6-3.3
						c0.4-0.9,0.9-1.6,1.7-2.1c0.7-0.5,1.6-0.7,2.6-0.7c1,0,1.9,0.2,2.6,0.7c0.7,0.5,1.3,1.2,1.7,2.1c0.4,0.9,0.6,2,0.6,3.3
						c0,1.3-0.2,2.4-0.6,3.4c-0.4,0.9-0.9,1.6-1.7,2.1C76.2,62.4,75.4,62.6,74.4,62.6z M74.4,60.5c0.7,0,1.2-0.3,1.6-1
						c0.4-0.7,0.6-1.7,0.6-3.1c0-0.9-0.1-1.7-0.3-2.3c-0.2-0.6-0.4-1.1-0.8-1.4c-0.3-0.3-0.7-0.5-1.2-0.5c-0.7,0-1.2,0.3-1.6,1
						c-0.4,0.7-0.6,1.7-0.6,3.1c0,0.9,0.1,1.7,0.3,2.3c0.2,0.6,0.4,1.1,0.8,1.4C73.5,60.4,73.9,60.5,74.4,60.5z"/>
					<path class="st2" d="M81.4,53.3v-0.6c0-0.5,0.1-0.9,0.3-1.3c0.2-0.4,0.5-0.7,0.9-1C83,50.1,83.5,50,84,50
						c0.6,0,1.1,0.1,1.4,0.4c0.4,0.2,0.7,0.6,0.9,1s0.3,0.8,0.3,1.3v0.6c0,0.5-0.1,0.9-0.3,1.3s-0.5,0.7-0.9,1
						c-0.4,0.2-0.9,0.4-1.4,0.4s-1-0.1-1.4-0.4c-0.4-0.2-0.7-0.6-0.9-1C81.5,54.2,81.4,53.8,81.4,53.3z M82.2,62.4l8.2-12h1.5
						l-8.2,12H82.2z M83.1,52.7v0.6c0,0.3,0.1,0.5,0.2,0.8c0.1,0.2,0.4,0.4,0.7,0.4c0.4,0,0.6-0.1,0.7-0.4c0.1-0.2,0.2-0.5,0.2-0.8
						v-0.6c0-0.3-0.1-0.5-0.2-0.8c-0.1-0.2-0.4-0.4-0.7-0.4c-0.3,0-0.6,0.1-0.7,0.4C83.2,52.1,83.1,52.4,83.1,52.7z M87.5,60.1v-0.6
						c0-0.5,0.1-0.9,0.3-1.3c0.2-0.4,0.5-0.7,0.9-1c0.4-0.2,0.9-0.4,1.4-0.4c0.6,0,1.1,0.1,1.4,0.4c0.4,0.2,0.7,0.6,0.9,1
						s0.3,0.8,0.3,1.3v0.6c0,0.5-0.1,0.9-0.3,1.3s-0.5,0.7-0.9,1c-0.4,0.2-0.9,0.4-1.4,0.4c-0.6,0-1.1-0.1-1.4-0.4
						c-0.4-0.2-0.7-0.6-0.9-1C87.6,61,87.5,60.6,87.5,60.1z M89.2,59.5v0.6c0,0.3,0.1,0.5,0.2,0.8c0.1,0.2,0.4,0.4,0.7,0.4
						s0.6-0.1,0.7-0.4c0.1-0.2,0.2-0.5,0.2-0.8v-0.6c0-0.3-0.1-0.5-0.2-0.8c-0.1-0.2-0.4-0.4-0.7-0.4c-0.4,0-0.6,0.1-0.7,0.4
						C89.3,58.9,89.2,59.2,89.2,59.5z"/>
				</g>
			</g>
		</g>
		<g>
			<g>
				<path class="st3" d="M24.7,20.9c-0.1-0.6-0.3-1-0.8-1.4c-0.5-0.3-1.1-0.5-1.8-0.5c-0.5,0-1,0.1-1.4,0.2
					c-0.4,0.2-0.7,0.4-0.9,0.7s-0.3,0.6-0.3,1c0,0.3,0.1,0.6,0.2,0.8c0.1,0.2,0.3,0.4,0.6,0.5c0.2,0.1,0.5,0.3,0.8,0.4
					s0.5,0.2,0.8,0.2l1.2,0.3c0.4,0.1,0.8,0.2,1.2,0.4c0.4,0.2,0.8,0.4,1.2,0.7c0.4,0.3,0.7,0.6,0.9,1c0.2,0.4,0.3,0.9,0.3,1.5
					c0,0.7-0.2,1.4-0.6,1.9c-0.4,0.6-0.9,1-1.6,1.3S23,30.5,22,30.5c-1,0-1.8-0.2-2.5-0.5c-0.7-0.3-1.2-0.7-1.6-1.3
					c-0.4-0.6-0.6-1.2-0.7-2h1.9c0,0.5,0.2,0.8,0.4,1.1c0.3,0.3,0.6,0.5,1,0.7c0.4,0.1,0.9,0.2,1.4,0.2c0.5,0,1-0.1,1.4-0.3
					c0.4-0.2,0.8-0.4,1-0.7c0.2-0.3,0.4-0.7,0.4-1.1c0-0.4-0.1-0.7-0.3-0.9s-0.5-0.4-0.9-0.6c-0.4-0.2-0.8-0.3-1.2-0.4l-1.5-0.4
					c-1-0.3-1.8-0.7-2.4-1.2c-0.6-0.5-0.9-1.2-0.9-2.1c0-0.7,0.2-1.4,0.6-1.9c0.4-0.5,0.9-1,1.6-1.3c0.7-0.3,1.4-0.5,2.3-0.5
					c0.9,0,1.6,0.2,2.3,0.5c0.7,0.3,1.2,0.7,1.6,1.2s0.6,1.1,0.6,1.8H24.7z"/>
				<path class="st3" d="M40,23.9c0,1.4-0.2,2.5-0.7,3.5c-0.5,1-1.2,1.7-2,2.2c-0.9,0.5-1.8,0.8-2.9,0.8c-1.1,0-2.1-0.3-2.9-0.8
					c-0.9-0.5-1.5-1.3-2-2.2s-0.7-2.1-0.7-3.5c0-1.4,0.2-2.5,0.7-3.5c0.5-1,1.2-1.7,2-2.2c0.9-0.5,1.8-0.8,2.9-0.8
					c1.1,0,2.1,0.3,2.9,0.8c0.9,0.5,1.5,1.3,2,2.2C39.8,21.4,40,22.6,40,23.9z M38.1,23.9c0-1-0.2-1.9-0.5-2.6
					c-0.3-0.7-0.8-1.2-1.4-1.6c-0.6-0.4-1.2-0.5-2-0.5c-0.7,0-1.4,0.2-2,0.5c-0.6,0.4-1,0.9-1.4,1.6c-0.3,0.7-0.5,1.6-0.5,2.6
					s0.2,1.9,0.5,2.6c0.3,0.7,0.8,1.2,1.4,1.6c0.6,0.4,1.2,0.5,2,0.5c0.7,0,1.4-0.2,2-0.5c0.6-0.4,1-0.9,1.4-1.6
					C38,25.8,38.1,25,38.1,23.9z"/>
				<path class="st3" d="M42.3,30.3v-1.4l4.3-4.5c0.5-0.5,0.8-0.9,1.1-1.3c0.3-0.4,0.5-0.7,0.7-1c0.1-0.3,0.2-0.7,0.2-1.1
					c0-0.4-0.1-0.8-0.3-1.1c-0.2-0.3-0.5-0.5-0.8-0.7c-0.3-0.2-0.7-0.3-1.2-0.3c-0.5,0-0.9,0.1-1.2,0.3s-0.6,0.4-0.8,0.8
					c-0.2,0.3-0.3,0.7-0.3,1.2h-1.8c0-0.8,0.2-1.4,0.5-2c0.4-0.6,0.8-1,1.5-1.3c0.6-0.3,1.3-0.5,2.1-0.5c0.8,0,1.5,0.2,2.1,0.5
					c0.6,0.3,1.1,0.7,1.4,1.3c0.3,0.5,0.5,1.2,0.5,1.8c0,0.5-0.1,0.9-0.3,1.4s-0.5,1-0.9,1.5c-0.4,0.6-1,1.2-1.8,2l-2.5,2.6v0.1h5.7
					v1.6H42.3z"/>
			</g>
		</g>
	</g>
	<g>
		<path class="st4" d="M135.2,22.5c-1.1-3.5-4.3-6.1-8.1-6.1s-7.1,2.5-8.1,6c-0.2,0.8-0.4,1.7-0.4,2.5c0,0.8,0.1,1.7,0.4,2.4
			c1.1,3.5,4.3,6.1,8.1,6.1s7.1-2.5,8.1-6c0.2-0.8,0.4-1.7,0.4-2.5C135.6,24.1,135.5,23.3,135.2,22.5z M127.1,29.3
			c-1.4,0-2.6-0.7-3.5-1.8c-0.6-0.7-0.8-1.7-0.8-2.6c0-0.8,0.2-1.7,0.7-2.3c0.7-1.2,2.2-2,3.7-2c1.6,0,3,0.8,3.7,2.2
			c0.4,0.6,0.6,1.4,0.6,2.3c0,1.1-0.4,1.9-1,2.6C129.7,28.6,128.5,29.3,127.1,29.3z"/>
		<path class="st4" d="M125.3,25.1c0-1,0.8-1.8,1.8-1.8c1,0,1.8,0.8,1.8,1.8c0,1-0.8,1.8-1.8,1.8C126.1,26.9,125.3,26.1,125.3,25.1z
			"/>
	</g>
</g>
</svg>
