<?xml version="1.0" encoding="utf-8"?>
<!-- Generator: Adobe Illustrator 28.1.0, SVG Export Plug-In . SVG Version: 6.00 Build 0)  -->
<svg version="1.1" id="Layer_1" xmlns="http://www.w3.org/2000/svg" xmlns:xlink="http://www.w3.org/1999/xlink" x="0px" y="0px"
	 viewBox="0 0 167 29" style="enable-background:new 0 0 167 29;" xml:space="preserve">
<style type="text/css">
	.st0{fill:#4F4F4F;}
	.st1{fill:#25B5B1;}
</style>
<g>
	<g>
		<g>
			<g>
				<g>
					<path class="st0" d="M10,20.3V10.1h1.5v4.4h5.1v-4.4h1.5v10.2h-1.5v-4.4h-5.1v4.4H10z"/>
					<path class="st0" d="M23.4,20.5c-0.7,0-1.3-0.2-1.9-0.5c-0.5-0.3-0.9-0.8-1.2-1.4c-0.3-0.6-0.4-1.3-0.4-2.1
						c0-0.8,0.1-1.5,0.4-2.1s0.7-1.1,1.2-1.4c0.5-0.3,1.2-0.5,1.9-0.5s1.3,0.2,1.9,0.5c0.5,0.3,0.9,0.8,1.2,1.4s0.4,1.3,0.4,2.1
						c0,0.8-0.1,1.5-0.4,2.1c-0.3,0.6-0.7,1-1.2,1.4C24.8,20.3,24.2,20.5,23.4,20.5z M23.4,19.2c0.5,0,0.8-0.1,1.2-0.4
						c0.3-0.2,0.5-0.6,0.7-1s0.2-0.9,0.2-1.3c0-0.5-0.1-0.9-0.2-1.3c-0.1-0.4-0.4-0.7-0.7-1s-0.7-0.4-1.2-0.4
						c-0.5,0-0.9,0.1-1.2,0.4s-0.5,0.6-0.7,1c-0.1,0.4-0.2,0.9-0.2,1.3c0,0.5,0.1,0.9,0.2,1.3s0.4,0.7,0.7,1
						C22.6,19.1,23,19.2,23.4,19.2z"/>
					<path class="st0" d="M28.7,20.3v-7.6h1.4v1.2h0.1c0.2-0.4,0.4-0.8,0.8-1s0.8-0.4,1.3-0.4c0.5,0,0.9,0.1,1.3,0.4
						c0.3,0.2,0.6,0.6,0.8,1h0.1c0.2-0.4,0.5-0.7,0.9-1c0.4-0.2,0.9-0.4,1.4-0.4c0.7,0,1.3,0.2,1.7,0.7c0.4,0.4,0.7,1.1,0.7,2v5.1
						h-1.5v-5c0-0.5-0.1-0.9-0.4-1.1c-0.3-0.2-0.6-0.3-1-0.3c-0.5,0-0.9,0.1-1.1,0.4c-0.3,0.3-0.4,0.7-0.4,1.1v4.9h-1.5v-5.1
						c0-0.4-0.1-0.7-0.4-1c-0.3-0.3-0.6-0.4-1-0.4c-0.3,0-0.5,0.1-0.8,0.2s-0.4,0.4-0.6,0.6c-0.1,0.3-0.2,0.6-0.2,0.9v4.7H28.7z"/>
					<path class="st0" d="M44.3,20.5c-0.8,0-1.4-0.2-1.9-0.5s-1-0.8-1.3-1.4c-0.3-0.6-0.4-1.3-0.4-2.1c0-0.8,0.1-1.5,0.4-2.1
						c0.3-0.6,0.7-1.1,1.2-1.4c0.5-0.3,1.1-0.5,1.9-0.5c0.4,0,0.8,0.1,1.3,0.2s0.8,0.4,1.1,0.7c0.3,0.3,0.6,0.7,0.8,1.2
						c0.2,0.5,0.3,1.1,0.3,1.8v0.5h-6.1v-1.1h4.6c0-0.4-0.1-0.7-0.2-1s-0.4-0.5-0.7-0.7c-0.3-0.2-0.6-0.3-1-0.3
						c-0.4,0-0.8,0.1-1.1,0.3c-0.3,0.2-0.5,0.5-0.7,0.8c-0.2,0.3-0.3,0.7-0.3,1.1v0.9c0,0.5,0.1,0.9,0.3,1.3
						c0.2,0.4,0.4,0.6,0.8,0.8c0.3,0.2,0.7,0.3,1.1,0.3c0.3,0,0.5,0,0.8-0.1c0.2-0.1,0.4-0.2,0.6-0.4s0.3-0.4,0.4-0.6l1.4,0.3
						c-0.1,0.4-0.3,0.8-0.6,1.1s-0.7,0.6-1.1,0.7C45.4,20.4,44.9,20.5,44.3,20.5z"/>
					<path class="st0" d="M56.8,9.6l-3.3,12.2h-1.3l3.3-12.2H56.8z"/>
					<path class="st1" d="M67.5,12.8c-0.1-0.5-0.3-0.8-0.7-1.1c-0.4-0.3-0.9-0.4-1.5-0.4c-0.4,0-0.8,0.1-1.1,0.2
						c-0.3,0.1-0.5,0.3-0.7,0.5c-0.2,0.2-0.3,0.5-0.3,0.8c0,0.2,0.1,0.5,0.2,0.6s0.3,0.3,0.5,0.4s0.4,0.2,0.6,0.3
						c0.2,0.1,0.4,0.1,0.6,0.2l1,0.3c0.3,0.1,0.7,0.2,1,0.3c0.3,0.1,0.7,0.3,0.9,0.5s0.5,0.5,0.7,0.8s0.3,0.7,0.3,1.2
						c0,0.6-0.1,1.1-0.4,1.5c-0.3,0.4-0.7,0.8-1.3,1.1c-0.6,0.3-1.2,0.4-2,0.4c-0.8,0-1.4-0.1-2-0.4s-1-0.6-1.3-1
						c-0.3-0.4-0.5-1-0.5-1.6h1.5c0,0.4,0.1,0.7,0.4,0.9c0.2,0.2,0.5,0.4,0.8,0.5c0.3,0.1,0.7,0.2,1.1,0.2c0.4,0,0.8-0.1,1.2-0.2
						c0.3-0.1,0.6-0.3,0.8-0.6c0.2-0.2,0.3-0.5,0.3-0.9c0-0.3-0.1-0.5-0.3-0.7c-0.2-0.2-0.4-0.4-0.7-0.5s-0.6-0.2-1-0.3l-1.2-0.3
						c-0.8-0.2-1.5-0.5-1.9-1s-0.7-1-0.7-1.7c0-0.6,0.2-1.1,0.5-1.5s0.7-0.8,1.3-1c0.5-0.2,1.2-0.4,1.8-0.4c0.7,0,1.3,0.1,1.8,0.4
						c0.5,0.2,0.9,0.6,1.3,1c0.3,0.4,0.5,0.9,0.5,1.5H67.5z"/>
					<path class="st1" d="M74.4,12.7v1.2h-4.2v-1.2H74.4z M71.3,10.8h1.5v7.2c0,0.3,0,0.5,0.1,0.6c0.1,0.1,0.2,0.2,0.3,0.3
						c0.1,0.1,0.3,0.1,0.4,0.1c0.1,0,0.2,0,0.3,0s0.2,0,0.2,0l0.3,1.2c-0.1,0-0.2,0.1-0.4,0.1c-0.2,0-0.4,0.1-0.6,0.1
						c-0.4,0-0.8-0.1-1.1-0.2s-0.6-0.4-0.8-0.7c-0.2-0.3-0.3-0.7-0.3-1.1V10.8z"/>
					<path class="st1" d="M78.2,20.5c-0.5,0-0.9-0.1-1.3-0.3c-0.4-0.2-0.7-0.4-0.9-0.8c-0.2-0.3-0.3-0.8-0.3-1.3
						c0-0.4,0.1-0.8,0.2-1.1c0.2-0.3,0.4-0.5,0.7-0.7c0.3-0.2,0.6-0.3,0.9-0.4c0.3-0.1,0.7-0.1,1.1-0.2c0.5-0.1,0.8-0.1,1.1-0.1
						s0.5-0.1,0.6-0.2c0.1-0.1,0.2-0.2,0.2-0.4v0c0-0.4-0.1-0.8-0.4-1c-0.2-0.2-0.6-0.4-1.1-0.4c-0.5,0-0.9,0.1-1.2,0.3
						c-0.3,0.2-0.5,0.5-0.6,0.7l-1.4-0.3c0.2-0.5,0.4-0.8,0.7-1.1s0.7-0.5,1.1-0.6c0.4-0.1,0.9-0.2,1.3-0.2c0.3,0,0.6,0,1,0.1
						s0.7,0.2,1,0.4s0.5,0.5,0.7,0.8s0.3,0.8,0.3,1.4v5.1h-1.5v-1h-0.1c-0.1,0.2-0.2,0.4-0.4,0.6c-0.2,0.2-0.4,0.3-0.7,0.5
						S78.7,20.5,78.2,20.5z M78.6,19.3c0.4,0,0.8-0.1,1.1-0.2c0.3-0.2,0.5-0.4,0.7-0.6c0.2-0.3,0.2-0.5,0.2-0.8v-1
						c-0.1,0.1-0.2,0.1-0.3,0.1c-0.2,0-0.3,0.1-0.5,0.1c-0.2,0-0.4,0.1-0.6,0.1c-0.2,0-0.3,0-0.5,0.1c-0.3,0-0.6,0.1-0.8,0.2
						c-0.2,0.1-0.4,0.2-0.6,0.4c-0.1,0.2-0.2,0.4-0.2,0.6c0,0.4,0.1,0.6,0.4,0.8C77.8,19.2,78.2,19.3,78.6,19.3z"/>
					<path class="st1" d="M87.6,12.7v1.2h-4.2v-1.2H87.6z M84.5,10.8H86v7.2c0,0.3,0,0.5,0.1,0.6c0.1,0.1,0.2,0.2,0.3,0.3
						c0.1,0.1,0.3,0.1,0.4,0.1c0.1,0,0.2,0,0.3,0s0.2,0,0.2,0l0.3,1.2c-0.1,0-0.2,0.1-0.4,0.1c-0.2,0-0.4,0.1-0.6,0.1
						c-0.4,0-0.8-0.1-1.1-0.2s-0.6-0.4-0.8-0.7c-0.2-0.3-0.3-0.7-0.3-1.1V10.8z"/>
					<path class="st1" d="M90,11.5c-0.3,0-0.5-0.1-0.7-0.3c-0.2-0.2-0.3-0.4-0.3-0.6c0-0.2,0.1-0.5,0.3-0.6c0.2-0.2,0.4-0.3,0.7-0.3
						c0.3,0,0.5,0.1,0.7,0.3c0.2,0.2,0.3,0.4,0.3,0.6c0,0.2-0.1,0.5-0.3,0.6S90.2,11.5,90,11.5z M89.2,20.3v-7.6h1.5v7.6H89.2z"/>
					<path class="st1" d="M95.9,20.5c-0.7,0-1.3-0.2-1.9-0.5c-0.5-0.3-0.9-0.8-1.2-1.4c-0.3-0.6-0.4-1.3-0.4-2.1
						c0-0.8,0.1-1.5,0.4-2.1s0.7-1.1,1.2-1.4c0.5-0.3,1.2-0.5,1.9-0.5s1.3,0.2,1.9,0.5c0.5,0.3,0.9,0.8,1.2,1.4s0.4,1.3,0.4,2.1
						c0,0.8-0.1,1.5-0.4,2.1c-0.3,0.6-0.7,1-1.2,1.4C97.2,20.3,96.6,20.5,95.9,20.5z M95.9,19.2c0.5,0,0.8-0.1,1.2-0.4
						c0.3-0.2,0.5-0.6,0.7-1S98,17,98,16.5c0-0.5-0.1-0.9-0.2-1.3c-0.1-0.4-0.4-0.7-0.7-1s-0.7-0.4-1.2-0.4c-0.5,0-0.9,0.1-1.2,0.4
						s-0.5,0.6-0.7,1c-0.1,0.4-0.2,0.9-0.2,1.3c0,0.5,0.1,0.9,0.2,1.3s0.4,0.7,0.7,1C95.1,19.1,95.4,19.2,95.9,19.2z"/>
					<path class="st1" d="M102.6,15.8v4.5h-1.5v-7.6h1.4v1.2h0.1c0.2-0.4,0.5-0.7,0.8-1c0.4-0.2,0.9-0.4,1.4-0.4
						c0.5,0,1,0.1,1.4,0.3c0.4,0.2,0.7,0.5,0.9,1c0.2,0.4,0.3,1,0.3,1.6v4.9H106v-4.7c0-0.6-0.1-1-0.4-1.3c-0.3-0.3-0.7-0.5-1.2-0.5
						c-0.3,0-0.7,0.1-0.9,0.2c-0.3,0.1-0.5,0.4-0.6,0.7S102.6,15.4,102.6,15.8z"/>
					<path class="st1" d="M116.6,20.3h-3.3V10.1h3.4c1,0,1.9,0.2,2.6,0.6s1.3,1,1.6,1.7s0.6,1.7,0.6,2.7c0,1.1-0.2,2-0.6,2.7
						c-0.4,0.8-0.9,1.3-1.7,1.8C118.5,20.1,117.6,20.3,116.6,20.3z M114.8,19h1.7c0.8,0,1.4-0.1,1.9-0.4s0.9-0.7,1.2-1.3
						c0.3-0.6,0.4-1.2,0.4-2c0-0.8-0.1-1.5-0.4-2s-0.6-1-1.1-1.3c-0.5-0.3-1.1-0.4-1.9-0.4h-1.8V19z"/>
					<path class="st1" d="M126.6,20.5c-0.8,0-1.4-0.2-1.9-0.5s-1-0.8-1.3-1.4c-0.3-0.6-0.4-1.3-0.4-2.1c0-0.8,0.1-1.5,0.4-2.1
						c0.3-0.6,0.7-1.1,1.2-1.4c0.5-0.3,1.1-0.5,1.9-0.5c0.4,0,0.8,0.1,1.3,0.2s0.8,0.4,1.1,0.7c0.3,0.3,0.6,0.7,0.8,1.2
						c0.2,0.5,0.3,1.1,0.3,1.8v0.5h-6.1v-1.1h4.6c0-0.4-0.1-0.7-0.2-1s-0.4-0.5-0.7-0.7c-0.3-0.2-0.6-0.3-1-0.3
						c-0.4,0-0.8,0.1-1.1,0.3c-0.3,0.2-0.5,0.5-0.7,0.8c-0.2,0.3-0.3,0.7-0.3,1.1v0.9c0,0.5,0.1,0.9,0.3,1.3
						c0.2,0.4,0.4,0.6,0.8,0.8c0.3,0.2,0.7,0.3,1.1,0.3c0.3,0,0.5,0,0.8-0.1c0.2-0.1,0.4-0.2,0.6-0.4s0.3-0.4,0.4-0.6l1.4,0.3
						c-0.1,0.4-0.3,0.8-0.6,1.1s-0.7,0.6-1.1,0.7C127.6,20.4,127.1,20.5,126.6,20.5z"/>
					<path class="st1" d="M135.1,12.7v1.2h-4.2v-1.2H135.1z M132,10.8h1.5v7.2c0,0.3,0,0.5,0.1,0.6c0.1,0.1,0.2,0.2,0.3,0.3
						c0.1,0.1,0.3,0.1,0.4,0.1c0.1,0,0.2,0,0.3,0s0.2,0,0.2,0l0.3,1.2c-0.1,0-0.2,0.1-0.4,0.1c-0.2,0-0.4,0.1-0.6,0.1
						c-0.4,0-0.8-0.1-1.1-0.2s-0.6-0.4-0.8-0.7c-0.2-0.3-0.3-0.7-0.3-1.1V10.8z"/>
					<path class="st1" d="M138.9,20.5c-0.5,0-0.9-0.1-1.3-0.3c-0.4-0.2-0.7-0.4-0.9-0.8c-0.2-0.3-0.3-0.8-0.3-1.3
						c0-0.4,0.1-0.8,0.2-1.1s0.4-0.5,0.7-0.7c0.3-0.2,0.6-0.3,0.9-0.4c0.3-0.1,0.7-0.1,1.1-0.2c0.5-0.1,0.8-0.1,1.1-0.1
						s0.5-0.1,0.6-0.2c0.1-0.1,0.2-0.2,0.2-0.4v0c0-0.4-0.1-0.8-0.4-1c-0.2-0.2-0.6-0.4-1.1-0.4c-0.5,0-0.9,0.1-1.2,0.3
						c-0.3,0.2-0.5,0.5-0.6,0.7l-1.4-0.3c0.2-0.5,0.4-0.8,0.7-1.1c0.3-0.3,0.7-0.5,1.1-0.6c0.4-0.1,0.9-0.2,1.3-0.2
						c0.3,0,0.6,0,1,0.1c0.3,0.1,0.7,0.2,1,0.4s0.5,0.5,0.7,0.8s0.3,0.8,0.3,1.4v5.1h-1.5v-1h-0.1c-0.1,0.2-0.2,0.4-0.4,0.6
						c-0.2,0.2-0.4,0.3-0.7,0.5C139.7,20.4,139.4,20.5,138.9,20.5z M139.3,19.3c0.4,0,0.8-0.1,1.1-0.2c0.3-0.2,0.5-0.4,0.7-0.6
						c0.2-0.3,0.2-0.5,0.2-0.8v-1c-0.1,0.1-0.2,0.1-0.3,0.1c-0.2,0-0.3,0.1-0.5,0.1c-0.2,0-0.4,0.1-0.6,0.1s-0.3,0-0.5,0.1
						c-0.3,0-0.6,0.1-0.8,0.2c-0.2,0.1-0.4,0.2-0.6,0.4c-0.1,0.2-0.2,0.4-0.2,0.6c0,0.4,0.1,0.6,0.4,0.8
						C138.5,19.2,138.8,19.3,139.3,19.3z"/>
					<path class="st1" d="M145.4,11.5c-0.3,0-0.5-0.1-0.7-0.3s-0.3-0.4-0.3-0.6c0-0.2,0.1-0.5,0.3-0.6c0.2-0.2,0.4-0.3,0.7-0.3
						c0.3,0,0.5,0.1,0.7,0.3c0.2,0.2,0.3,0.4,0.3,0.6c0,0.2-0.1,0.5-0.3,0.6C145.9,11.4,145.7,11.5,145.4,11.5z M144.7,20.3v-7.6
						h1.5v7.6H144.7z"/>
					<path class="st1" d="M149.7,10.1v10.2h-1.5V10.1H149.7z"/>
					<path class="st1" d="M157.4,14.5l-1.3,0.2c-0.1-0.2-0.1-0.3-0.3-0.5s-0.3-0.3-0.5-0.4c-0.2-0.1-0.5-0.1-0.8-0.1
						c-0.4,0-0.8,0.1-1.1,0.3c-0.3,0.2-0.4,0.4-0.4,0.7c0,0.3,0.1,0.5,0.3,0.6c0.2,0.2,0.5,0.3,0.9,0.4l1.2,0.3
						c0.7,0.2,1.2,0.4,1.6,0.8s0.5,0.8,0.5,1.3c0,0.5-0.1,0.9-0.4,1.2s-0.6,0.6-1.1,0.8c-0.5,0.2-1,0.3-1.6,0.3
						c-0.9,0-1.6-0.2-2.1-0.5c-0.5-0.4-0.9-0.9-1-1.6l1.4-0.2c0.1,0.4,0.3,0.7,0.6,0.8c0.3,0.2,0.6,0.3,1.1,0.3
						c0.5,0,0.9-0.1,1.2-0.3c0.3-0.2,0.4-0.5,0.4-0.7c0-0.2-0.1-0.4-0.3-0.6c-0.2-0.2-0.4-0.3-0.8-0.4l-1.3-0.3
						c-0.7-0.2-1.2-0.4-1.6-0.8c-0.3-0.4-0.5-0.8-0.5-1.3c0-0.5,0.1-0.8,0.4-1.2c0.3-0.3,0.6-0.6,1-0.8c0.4-0.2,1-0.3,1.5-0.3
						c0.8,0,1.5,0.2,1.9,0.5C156.9,13.5,157.2,13.9,157.4,14.5z"/>
				</g>
			</g>
		</g>
	</g>
</g>
</svg>
