<?xml version="1.0" encoding="utf-8"?>
<!-- Generator: Adobe Illustrator 28.1.0, SVG Export Plug-In . SVG Version: 6.00 Build 0)  -->
<svg version="1.1" id="Layer_1" xmlns="http://www.w3.org/2000/svg" xmlns:xlink="http://www.w3.org/1999/xlink" x="0px" y="0px"
	 viewBox="0 0 257 264" style="enable-background:new 0 0 257 264;" xml:space="preserve">
<style type="text/css">
	.st0{fill:#FFFFFF;}
	.st1{fill:none;stroke:#25B5B1;stroke-width:0.8;stroke-miterlimit:10;}
	.st2{fill:#888888;}
	.st3{fill:none;stroke:#E7E7E7;stroke-miterlimit:10;}
	.st4{fill:#25B5B1;}
	.st5{fill:none;stroke:#E7E7E7;}
	.st6{clip-path:url(#SVGID_00000135661230527323376640000000780413544400466837_);}
	.st7{fill:#E7E7E7;}
</style>
<g>
	<g>
		<g>
			<g>
				<g>
					<g>
						<g>
							<path class="st0" d="M244.6,257.8H10.8c-2.4,0-4.4-2-4.4-4.4V10.8c0-2.4,2-4.4,4.4-4.4h233.8c2.4,0,4.4,2,4.4,4.4v242.6
								C249,255.8,247.1,257.8,244.6,257.8z"/>
							<path class="st1" d="M244.6,257.8H10.8c-2.4,0-4.4-2-4.4-4.4V10.8c0-2.4,2-4.4,4.4-4.4h233.8c2.4,0,4.4,2,4.4,4.4v242.6
								C249,255.8,247.1,257.8,244.6,257.8z"/>
						</g>
						<g>
							<path class="st2" d="M52.6,18.5v10.9h-1.5l-5.5-8h-0.1v8h-1.6V18.5h1.5l5.6,8l0,0v-8H52.6z"/>
							<path class="st2" d="M55.7,20c-0.3,0-0.5-0.1-0.7-0.3c-0.2-0.2-0.3-0.4-0.3-0.7c0-0.3,0.1-0.5,0.3-0.7s0.4-0.3,0.7-0.3
								s0.5,0.1,0.7,0.3c0.2,0.2,0.3,0.4,0.3,0.7c0,0.3-0.1,0.5-0.3,0.7C56.2,19.9,56,20,55.7,20z M54.9,29.4v-8.2h1.6v8.2
								C56.5,29.4,54.9,29.4,54.9,29.4z"/>
							<path class="st2" d="M58.5,29.4v-1.1l4.4-5.6v-0.1h-4.3v-1.4h6.3v1.2L60.6,28l0,0H65v1.4H58.5z"/>
							<path class="st2" d="M68.7,29.4l-2.4-8.2h1.6l1.6,6h0.1l1.6-6h1.6l1.6,6h0.1l1.6-6h1.6l-2.4,8.2h-1.6L72,23.5h0l-1.7,5.9
								C70.3,29.4,68.7,29.4,68.7,29.4z"/>
							<path class="st2" d="M81.7,29.6c-0.5,0-1-0.1-1.4-0.3c-0.4-0.2-0.8-0.5-1-0.8c-0.2-0.4-0.4-0.8-0.4-1.4
								c0-0.5,0.1-0.8,0.3-1.1c0.2-0.3,0.4-0.5,0.7-0.7s0.6-0.3,1-0.4s0.8-0.2,1.1-0.2c0.5-0.1,0.9-0.1,1.2-0.1
								c0.3,0,0.5-0.1,0.7-0.2c0.1-0.1,0.2-0.2,0.2-0.4l0,0c0-0.5-0.1-0.8-0.4-1.1s-0.6-0.4-1.2-0.4c-0.5,0-1,0.1-1.3,0.4
								c-0.3,0.2-0.5,0.5-0.6,0.8l-1.5-0.3c0.2-0.5,0.4-0.9,0.8-1.2s0.7-0.5,1.2-0.7c0.4-0.1,0.9-0.2,1.4-0.2c0.3,0,0.7,0,1,0.1
								c0.4,0.1,0.7,0.2,1,0.4c0.3,0.2,0.6,0.5,0.8,0.9s0.3,0.9,0.3,1.5v5.4H84v-1.1h-0.1c-0.1,0.2-0.3,0.4-0.5,0.6
								s-0.5,0.4-0.8,0.5S82.1,29.6,81.7,29.6z M82,28.3c0.4,0,0.8-0.1,1.1-0.3c0.3-0.2,0.6-0.4,0.7-0.7C84,27,84,26.7,84,26.4v-1.1
								c-0.1,0.1-0.2,0.1-0.3,0.2c-0.2,0-0.3,0.1-0.6,0.1s-0.4,0.1-0.6,0.1s-0.4,0-0.5,0.1c-0.3,0-0.6,0.1-0.8,0.2s-0.5,0.2-0.6,0.4
								c-0.2,0.2-0.2,0.4-0.2,0.7c0,0.4,0.1,0.7,0.4,0.9C81.2,28.2,81.6,28.3,82,28.3z"/>
							<path class="st2" d="M44.8,72.4H43l3.9-10.9h1.9l3.9,10.9H51l-3.1-8.9h-0.1L44.8,72.4z M45.1,68.1h5.7v1.4h-5.7V68.1z"/>
							<path class="st2" d="M55.8,61.5v10.9h-1.6V61.5H55.8z"/>
							<path class="st2" d="M62,72.4V61.5h1.6v5.2h0.1l4.6-5.2h2.1L66,66.4l4.4,6h-2L65,67.5L63.7,69v3.4H62z"/>
							<path class="st2" d="M75.3,72.6c-0.8,0-1.4-0.2-2-0.5c-0.6-0.4-1-0.8-1.3-1.5c-0.3-0.6-0.5-1.4-0.5-2.2
								c0-0.8,0.2-1.6,0.5-2.2s0.8-1.1,1.3-1.5c0.6-0.4,1.2-0.5,2-0.5s1.4,0.2,2,0.5c0.6,0.4,1,0.8,1.3,1.5c0.3,0.6,0.5,1.4,0.5,2.2
								c0,0.8-0.2,1.6-0.5,2.2s-0.8,1.1-1.3,1.5C76.8,72.4,76.1,72.6,75.3,72.6z M75.3,71.2c0.5,0,0.9-0.1,1.2-0.4
								c0.3-0.3,0.6-0.6,0.7-1c0.2-0.4,0.2-0.9,0.2-1.4s-0.1-1-0.2-1.4c-0.2-0.4-0.4-0.8-0.7-1.1c-0.3-0.3-0.7-0.4-1.2-0.4
								s-0.9,0.1-1.2,0.4c-0.3,0.3-0.6,0.6-0.7,1.1c-0.2,0.4-0.2,0.9-0.2,1.4s0.1,1,0.2,1.4c0.2,0.4,0.4,0.8,0.7,1
								S74.8,71.2,75.3,71.2z"/>
							<path class="st2" d="M86.1,69v-4.8h1.6v8.2h-1.6V71H86c-0.2,0.4-0.5,0.8-0.9,1.1c-0.4,0.3-0.9,0.4-1.5,0.4
								c-0.5,0-1-0.1-1.4-0.3c-0.4-0.2-0.7-0.6-0.9-1c-0.2-0.5-0.3-1-0.3-1.7v-5.2h1.6v5c0,0.6,0.2,1,0.5,1.3s0.7,0.5,1.2,0.5
								c0.3,0,0.6-0.1,0.9-0.2s0.5-0.4,0.7-0.7C86,69.9,86.1,69.5,86.1,69z"/>
							<path class="st2" d="M92.9,72.6c-0.7,0-1.2-0.2-1.8-0.5c-0.5-0.3-0.9-0.8-1.2-1.5s-0.4-1.4-0.4-2.3s0.1-1.6,0.4-2.3
								c0.3-0.6,0.7-1.1,1.2-1.4s1.1-0.5,1.8-0.5c0.5,0,0.9,0.1,1.2,0.3c0.3,0.2,0.6,0.4,0.7,0.6c0.2,0.2,0.3,0.4,0.4,0.6h0.1v-4.1
								H97v10.9h-1.6v-1.3h-0.1c-0.1,0.2-0.2,0.4-0.4,0.6c-0.2,0.2-0.4,0.4-0.7,0.6C93.8,72.5,93.4,72.6,92.9,72.6z M93.2,71.2
								c0.5,0,0.8-0.1,1.2-0.4c0.3-0.2,0.6-0.6,0.7-1s0.2-0.9,0.2-1.5s-0.1-1.1-0.2-1.5c-0.2-0.4-0.4-0.8-0.7-1
								c-0.3-0.2-0.7-0.4-1.2-0.4s-0.9,0.1-1.2,0.4s-0.6,0.6-0.7,1c-0.2,0.4-0.2,0.9-0.2,1.5c0,0.5,0.1,1,0.2,1.5
								c0.2,0.4,0.4,0.8,0.7,1C92.4,71.1,92.8,71.2,93.2,71.2z"/>
							<path class="st2" d="M100.8,67.6v4.9h-1.6v-11h1.6v4.1h0.1c0.2-0.4,0.5-0.8,0.9-1c0.4-0.3,0.9-0.4,1.5-0.4s1.1,0.1,1.5,0.3
								c0.4,0.2,0.7,0.6,1,1c0.2,0.5,0.3,1,0.3,1.7v5.2h-1.6v-5c0-0.6-0.2-1.1-0.5-1.4s-0.7-0.5-1.3-0.5c-0.4,0-0.7,0.1-1,0.2
								c-0.3,0.2-0.5,0.4-0.7,0.7C100.9,66.8,100.8,67.1,100.8,67.6z"/>
							<path class="st2" d="M44.8,115.4H43l3.9-10.9h1.9l3.9,10.9H51l-3.1-8.9h-0.1L44.8,115.4z M45.1,111.1h5.7v1.4h-5.7V111.1z"/>
							<path class="st2" d="M55.8,104.5v10.9h-1.6v-10.9H55.8z"/>
							<path class="st2" d="M62,115.4v-10.9h1.6v5.2h0.1l4.6-5.2h2.1l-4.4,4.9l4.4,6h-2l-3.5-4.9l-1.3,1.5v3.4H62z"/>
							<path class="st2" d="M73.5,110.6v4.9h-1.6v-10.9h1.6v4.1h0.1c0.2-0.4,0.5-0.8,0.9-1c0.4-0.3,0.9-0.4,1.5-0.4s1.1,0.1,1.5,0.3
								c0.4,0.2,0.7,0.6,1,1c0.2,0.5,0.3,1,0.3,1.7v5.2h-1.6v-5c0-0.6-0.2-1.1-0.5-1.4s-0.7-0.5-1.3-0.5c-0.4,0-0.7,0.1-1,0.2
								c-0.3,0.2-0.5,0.4-0.7,0.7C73.6,109.8,73.5,110.1,73.5,110.6z"/>
							<path class="st2" d="M86.1,112v-4.8h1.6v8.2h-1.6V114H86c-0.2,0.4-0.5,0.8-0.9,1.1c-0.4,0.3-0.9,0.4-1.5,0.4
								c-0.5,0-1-0.1-1.4-0.3c-0.4-0.2-0.7-0.6-0.9-1c-0.2-0.5-0.3-1-0.3-1.7v-5.2h1.6v5c0,0.6,0.2,1,0.5,1.3s0.7,0.5,1.2,0.5
								c0.3,0,0.6-0.1,0.9-0.2s0.5-0.4,0.7-0.7C86,112.9,86.1,112.5,86.1,112z"/>
							<path class="st2" d="M91.6,115.4l-2.4-8.2h1.6l1.6,6h0.1l1.6-6h1.6l1.6,6h0.1l1.6-6h1.6l-2.4,8.2h-1.6l-1.7-5.9h-0.1
								l-1.7,5.9H91.6z"/>
							<path class="st2" d="M104.6,115.6c-0.5,0-1-0.1-1.4-0.3c-0.4-0.2-0.8-0.5-1-0.8c-0.2-0.4-0.4-0.8-0.4-1.4
								c0-0.5,0.1-0.8,0.3-1.1c0.2-0.3,0.4-0.5,0.7-0.7s0.6-0.3,1-0.4s0.8-0.2,1.1-0.2c0.5-0.1,0.9-0.1,1.2-0.1
								c0.3,0,0.5-0.1,0.7-0.2c0.1-0.1,0.2-0.2,0.2-0.4l0,0c0-0.5-0.1-0.8-0.4-1.1s-0.6-0.4-1.2-0.4c-0.5,0-1,0.1-1.3,0.4
								c-0.3,0.2-0.5,0.5-0.6,0.8l-1.5-0.3c0.2-0.5,0.4-0.9,0.8-1.2s0.7-0.5,1.2-0.7c0.4-0.1,0.9-0.2,1.4-0.2c0.3,0,0.7,0,1,0.1
								c0.4,0.1,0.7,0.2,1,0.4c0.3,0.2,0.6,0.5,0.8,0.9s0.3,0.9,0.3,1.5v5.4h-1.6v-1.1h0.1c-0.1,0.2-0.3,0.4-0.5,0.6
								s-0.5,0.4-0.8,0.5S105,115.6,104.6,115.6z M104.9,114.3c0.4,0,0.8-0.1,1.1-0.3c0.3-0.2,0.6-0.4,0.7-0.7
								c0.2-0.3,0.2-0.6,0.2-0.9v-1.1c-0.1,0.1-0.2,0.1-0.3,0.2c-0.2,0-0.3,0.1-0.6,0.1s-0.4,0.1-0.6,0.1s-0.4,0-0.5,0.1
								c-0.3,0-0.6,0.1-0.8,0.2s-0.5,0.2-0.6,0.4c-0.2,0.2-0.2,0.4-0.2,0.7c0,0.4,0.1,0.7,0.4,0.9
								C104.1,114.2,104.5,114.3,104.9,114.3z"/>
							<path class="st2" d="M111.7,118.5c-0.2,0-0.5,0-0.6-0.1s-0.3-0.1-0.4-0.1l0.4-1.3c0.3,0.1,0.6,0.1,0.8,0.1
								c0.2,0,0.4-0.1,0.6-0.3c0.2-0.2,0.3-0.4,0.5-0.8l0.2-0.5l-3-8.3h1.7l2.1,6.3h0.1l2.1-6.3h1.7l-3.4,9.3
								c-0.2,0.4-0.4,0.8-0.6,1.1c-0.2,0.3-0.5,0.5-0.9,0.7C112.6,118.4,112.2,118.5,111.7,118.5z"/>
							<path class="st2" d="M119.2,115.4v-8.2h1.5v1.3h0.1c0.1-0.4,0.4-0.8,0.8-1c0.4-0.3,0.8-0.4,1.3-0.4c0.1,0,0.2,0,0.4,0
								c0.1,0,0.2,0,0.3,0v1.5c-0.1,0-0.2,0-0.3-0.1c-0.2,0-0.3,0-0.5,0c-0.4,0-0.7,0.1-1,0.2c-0.3,0.2-0.5,0.4-0.7,0.7
								c-0.2,0.3-0.3,0.6-0.3,1v5H119.2z"/>
							<path class="st2" d="M49.8,150.4c-0.1-0.5-0.3-0.9-0.7-1.2s-0.9-0.4-1.6-0.4c-0.4,0-0.8,0.1-1.2,0.2
								c-0.3,0.1-0.6,0.3-0.8,0.6c-0.2,0.2-0.3,0.5-0.3,0.8s0.1,0.5,0.2,0.7c0.1,0.2,0.3,0.3,0.5,0.5c0.2,0.1,0.4,0.2,0.6,0.3
								c0.2,0.1,0.5,0.2,0.7,0.2l1.1,0.3c0.3,0.1,0.7,0.2,1.1,0.3c0.4,0.1,0.7,0.3,1,0.6s0.6,0.5,0.8,0.9s0.3,0.8,0.3,1.3
								c0,0.6-0.2,1.2-0.5,1.6c-0.3,0.5-0.8,0.9-1.4,1.1s-1.3,0.4-2.2,0.4c-0.8,0-1.5-0.1-2.1-0.4c-0.6-0.3-1.1-0.6-1.4-1.1
								c-0.3-0.5-0.5-1-0.6-1.7H45c0,0.4,0.2,0.7,0.4,1s0.5,0.5,0.9,0.6s0.7,0.2,1.2,0.2s0.9-0.1,1.2-0.2s0.7-0.4,0.9-0.6
								c0.2-0.3,0.3-0.6,0.3-0.9c0-0.3-0.1-0.6-0.3-0.8s-0.4-0.4-0.7-0.5s-0.7-0.3-1.1-0.4l-1.3-0.4c-0.9-0.2-1.6-0.6-2.1-1
								c-0.5-0.5-0.8-1.1-0.8-1.8c0-0.6,0.2-1.2,0.5-1.6s0.8-0.8,1.4-1.1c0.6-0.3,1.2-0.4,2-0.4c0.7,0,1.4,0.1,2,0.4s1,0.6,1.3,1.1
								s0.5,1,0.5,1.6h-1.5V150.4z"/>
							<path class="st2" d="M58.5,155v-4.8h1.6v8.2h-1.6V157h-0.1c-0.2,0.4-0.5,0.8-0.9,1.1s-0.9,0.4-1.5,0.4c-0.5,0-1-0.1-1.4-0.3
								s-0.7-0.6-0.9-1c-0.2-0.5-0.3-1-0.3-1.7v-5.2H55v5c0,0.6,0.2,1,0.5,1.3s0.7,0.5,1.2,0.5c0.3,0,0.6-0.1,0.9-0.2
								c0.3-0.1,0.5-0.4,0.7-0.7C58.5,155.9,58.5,155.5,58.5,155z"/>
							<path class="st2" d="M62.3,158.4v-8.2h1.5v1.3h0.1c0.1-0.4,0.4-0.8,0.8-1c0.4-0.3,0.8-0.4,1.3-0.4c0.1,0,0.2,0,0.4,0
								c0.1,0,0.2,0,0.3,0v1.5c-0.1,0-0.2,0-0.3-0.1c-0.2,0-0.3,0-0.5,0c-0.4,0-0.7,0.1-1,0.2c-0.3,0.2-0.5,0.4-0.7,0.7
								s-0.3,0.6-0.3,1v5H62.3z"/>
							<path class="st2" d="M49.8,193.4c-0.1-0.5-0.3-0.9-0.7-1.2s-0.9-0.4-1.6-0.4c-0.4,0-0.8,0.1-1.2,0.2
								c-0.3,0.1-0.6,0.3-0.8,0.6c-0.2,0.2-0.3,0.5-0.3,0.8s0.1,0.5,0.2,0.7c0.1,0.2,0.3,0.3,0.5,0.5c0.2,0.1,0.4,0.2,0.6,0.3
								c0.2,0.1,0.5,0.2,0.7,0.2l1.1,0.3c0.3,0.1,0.7,0.2,1.1,0.3c0.4,0.1,0.7,0.3,1,0.6s0.6,0.5,0.8,0.9s0.3,0.8,0.3,1.3
								c0,0.6-0.2,1.2-0.5,1.6c-0.3,0.5-0.8,0.9-1.4,1.1s-1.3,0.4-2.2,0.4c-0.8,0-1.5-0.1-2.1-0.4c-0.6-0.3-1.1-0.6-1.4-1.1
								c-0.3-0.5-0.5-1-0.6-1.7H45c0,0.4,0.2,0.7,0.4,1s0.5,0.5,0.9,0.6s0.7,0.2,1.2,0.2s0.9-0.1,1.2-0.2s0.7-0.4,0.9-0.6
								c0.2-0.3,0.3-0.6,0.3-0.9c0-0.3-0.1-0.6-0.3-0.8s-0.4-0.4-0.7-0.5s-0.7-0.3-1.1-0.4l-1.3-0.4c-0.9-0.2-1.6-0.6-2.1-1
								c-0.5-0.5-0.8-1.1-0.8-1.8c0-0.6,0.2-1.2,0.5-1.6s0.8-0.8,1.4-1.1c0.6-0.3,1.2-0.4,2-0.4c0.7,0,1.4,0.1,2,0.4s1,0.6,1.3,1.1
								s0.5,1,0.5,1.6h-1.5V193.4z"/>
							<path class="st2" d="M55.7,201.6c-0.5,0-1-0.1-1.4-0.3s-0.8-0.5-1-0.8c-0.2-0.4-0.4-0.8-0.4-1.4c0-0.5,0.1-0.8,0.3-1.1
								s0.4-0.5,0.7-0.7s0.6-0.3,1-0.4c0.4-0.1,0.8-0.2,1.1-0.2c0.5-0.1,0.9-0.1,1.2-0.1s0.5-0.1,0.7-0.2c0.1-0.1,0.2-0.2,0.2-0.4
								l0,0c0-0.5-0.1-0.8-0.4-1.1s-0.6-0.4-1.2-0.4c-0.5,0-1,0.1-1.3,0.4c-0.3,0.2-0.5,0.5-0.6,0.8l-1.5-0.3
								c0.2-0.5,0.4-0.9,0.8-1.2s0.7-0.5,1.2-0.7c0.4-0.1,0.9-0.2,1.4-0.2c0.3,0,0.7,0,1,0.1c0.4,0.1,0.7,0.2,1,0.4s0.6,0.5,0.8,0.9
								s0.3,0.9,0.3,1.5v5.4H58v-1.1h-0.1c-0.1,0.2-0.3,0.4-0.5,0.6c-0.2,0.2-0.5,0.4-0.8,0.5S56.2,201.6,55.7,201.6z M56.1,200.3
								c0.4,0,0.8-0.1,1.1-0.3s0.6-0.4,0.7-0.7c0.2-0.3,0.2-0.6,0.2-0.9v-1.1c-0.1,0.1-0.2,0.1-0.3,0.2c-0.2,0-0.3,0.1-0.6,0.1
								s-0.4,0.1-0.6,0.1c-0.2,0-0.4,0-0.5,0.1c-0.3,0-0.6,0.1-0.8,0.2s-0.5,0.2-0.6,0.4c-0.2,0.2-0.2,0.4-0.2,0.7
								c0,0.4,0.1,0.7,0.4,0.9C55.3,200.2,55.6,200.3,56.1,200.3z"/>
							<path class="st2" d="M63.5,190.5v10.9h-1.6v-10.9H63.5z"/>
							<path class="st2" d="M68,201.6c-0.5,0-1-0.1-1.4-0.3s-0.8-0.5-1-0.8c-0.2-0.4-0.4-0.8-0.4-1.4c0-0.5,0.1-0.8,0.3-1.1
								s0.4-0.5,0.7-0.7c0.3-0.2,0.6-0.3,1-0.4s0.8-0.2,1.1-0.2c0.5-0.1,0.9-0.1,1.2-0.1s0.5-0.1,0.7-0.2c0.1-0.1,0.2-0.2,0.2-0.4
								l0,0c0-0.5-0.1-0.8-0.4-1.1s-0.6-0.4-1.2-0.4c-0.5,0-1,0.1-1.3,0.4c-0.3,0.2-0.5,0.5-0.6,0.8l-1.5-0.3
								c0.2-0.5,0.4-0.9,0.8-1.2s0.7-0.5,1.2-0.7c0.4-0.1,0.9-0.2,1.4-0.2c0.3,0,0.7,0,1,0.1c0.4,0.1,0.7,0.2,1,0.4s0.6,0.5,0.8,0.9
								c0.2,0.4,0.3,0.9,0.3,1.5v5.4h-1.6v-1.1h-0.1c-0.1,0.2-0.3,0.4-0.5,0.6s-0.5,0.4-0.8,0.5S68.5,201.6,68,201.6z M68.4,200.3
								c0.4,0,0.8-0.1,1.1-0.3c0.3-0.2,0.6-0.4,0.7-0.7c0.2-0.3,0.2-0.6,0.2-0.9v-1.1c-0.1,0.1-0.2,0.1-0.3,0.2
								c-0.2,0-0.3,0.1-0.6,0.1s-0.4,0.1-0.6,0.1s-0.4,0-0.5,0.1c-0.3,0-0.6,0.1-0.8,0.2s-0.5,0.2-0.6,0.4c-0.2,0.2-0.2,0.4-0.2,0.7
								c0,0.4,0.1,0.7,0.4,0.9S67.9,200.3,68.4,200.3z"/>
							<path class="st2" d="M75.8,190.5v10.9h-1.6v-10.9H75.8z"/>
							<path class="st2" d="M80.3,201.6c-0.5,0-1-0.1-1.4-0.3s-0.8-0.5-1-0.8c-0.2-0.4-0.4-0.8-0.4-1.4c0-0.5,0.1-0.8,0.3-1.1
								s0.4-0.5,0.7-0.7c0.3-0.2,0.6-0.3,1-0.4s0.8-0.2,1.1-0.2c0.5-0.1,0.9-0.1,1.2-0.1s0.5-0.1,0.7-0.2c0.1-0.1,0.2-0.2,0.2-0.4
								l0,0c0-0.5-0.1-0.8-0.4-1.1s-0.6-0.4-1.2-0.4c-0.5,0-1,0.1-1.3,0.4c-0.3,0.2-0.5,0.5-0.6,0.8l-1.5-0.3
								c0.2-0.5,0.4-0.9,0.8-1.2s0.7-0.5,1.2-0.7c0.4-0.1,0.9-0.2,1.4-0.2c0.3,0,0.7,0,1,0.1c0.4,0.1,0.7,0.2,1,0.4s0.6,0.5,0.8,0.9
								c0.2,0.4,0.3,0.9,0.3,1.5v5.4h-1.6v-1.1h-0.1c-0.1,0.2-0.3,0.4-0.5,0.6s-0.5,0.4-0.8,0.5S80.7,201.6,80.3,201.6z M80.6,200.3
								c0.4,0,0.8-0.1,1.1-0.3c0.3-0.2,0.6-0.4,0.7-0.7c0.2-0.3,0.2-0.6,0.2-0.9v-1.1c-0.1,0.1-0.2,0.1-0.3,0.2
								c-0.2,0-0.3,0.1-0.6,0.1s-0.4,0.1-0.6,0.1s-0.4,0-0.5,0.1c-0.3,0-0.6,0.1-0.8,0.2s-0.5,0.2-0.6,0.4c-0.2,0.2-0.2,0.4-0.2,0.7
								c0,0.4,0.1,0.7,0.4,0.9C79.8,200.2,80.2,200.3,80.6,200.3z"/>
							<path class="st2" d="M88,196.6v4.9h-1.6v-10.9H88v4.1h0.1c0.2-0.4,0.5-0.8,0.9-1c0.4-0.3,0.9-0.4,1.5-0.4s1.1,0.1,1.5,0.3
								s0.7,0.6,1,1c0.2,0.5,0.3,1,0.3,1.7v5.2h-1.6v-5c0-0.6-0.2-1.1-0.5-1.4c-0.3-0.3-0.7-0.5-1.3-0.5c-0.4,0-0.7,0.1-1,0.2
								c-0.3,0.2-0.5,0.4-0.7,0.7C88.1,195.8,88,196.1,88,196.6z"/>
							<path class="st2" d="M43.8,244.4v-10.9h4c0.8,0,1.4,0.1,1.9,0.4s0.9,0.6,1.1,1c0.3,0.4,0.4,0.9,0.4,1.5
								c0,0.5-0.1,0.8-0.3,1.1s-0.4,0.6-0.7,0.7c-0.3,0.2-0.6,0.3-0.9,0.4v0.1c0.4,0,0.7,0.1,1.1,0.3c0.3,0.2,0.6,0.5,0.9,0.9
								c0.2,0.4,0.3,0.9,0.3,1.4c0,0.6-0.1,1.1-0.4,1.5s-0.7,0.8-1.2,1c-0.5,0.3-1.2,0.4-2.1,0.4h-4.1V244.4z M45.5,238.2h2.2
								c0.4,0,0.7-0.1,1-0.2c0.3-0.1,0.5-0.3,0.7-0.6s0.3-0.6,0.3-0.9c0-0.5-0.2-0.8-0.5-1.1s-0.8-0.5-1.5-0.5h-2.2V238.2z
								 M45.5,243h2.4c0.8,0,1.4-0.2,1.7-0.5s0.5-0.7,0.5-1.1c0-0.3-0.1-0.7-0.3-0.9s-0.4-0.5-0.7-0.7s-0.7-0.3-1.1-0.3h-2.4v3.5
								H45.5z"/>
							<path class="st2" d="M54.3,235c-0.3,0-0.5-0.1-0.7-0.3s-0.3-0.4-0.3-0.7s0.1-0.5,0.3-0.7s0.4-0.3,0.7-0.3s0.5,0.1,0.7,0.3
								s0.3,0.4,0.3,0.7s-0.1,0.5-0.3,0.7S54.6,235,54.3,235z M53.5,244.4v-8.2h1.6v8.2H53.5z"/>
							<path class="st2" d="M60.3,244.6c-0.7,0-1.2-0.2-1.8-0.5c-0.5-0.3-0.9-0.8-1.2-1.5s-0.4-1.4-0.4-2.3c0-0.9,0.1-1.6,0.4-2.3
								c0.3-0.6,0.7-1.1,1.2-1.4s1.1-0.5,1.8-0.5c0.5,0,0.9,0.1,1.2,0.3s0.6,0.4,0.7,0.6c0.2,0.2,0.3,0.4,0.4,0.6h0.1v-4.1h1.6v10.9
								h-1.6v-1.3h-0.1c-0.1,0.2-0.2,0.4-0.4,0.6c-0.2,0.2-0.4,0.4-0.7,0.6C61.2,244.5,60.8,244.6,60.3,244.6z M60.7,243.2
								c0.5,0,0.8-0.1,1.2-0.4c0.3-0.2,0.6-0.6,0.7-1s0.2-0.9,0.2-1.5s-0.1-1.1-0.2-1.5c-0.2-0.4-0.4-0.8-0.7-1s-0.7-0.4-1.2-0.4
								s-0.9,0.1-1.2,0.4s-0.6,0.6-0.7,1c-0.2,0.4-0.2,0.9-0.2,1.5c0,0.5,0.1,1,0.2,1.5c0.2,0.4,0.4,0.8,0.7,1
								C59.8,243.1,60.2,243.2,60.7,243.2z"/>
							<path class="st2" d="M67.4,235c-0.3,0-0.5-0.1-0.7-0.3s-0.3-0.4-0.3-0.7s0.1-0.5,0.3-0.7c0.2-0.2,0.4-0.3,0.7-0.3
								c0.3,0,0.5,0.1,0.7,0.3s0.3,0.4,0.3,0.7s-0.1,0.5-0.3,0.7C68,234.9,67.7,235,67.4,235z M66.6,244.4v-8.2h1.6v8.2H66.6z"/>
							<path class="st2" d="M71.4,247.5c-0.2,0-0.5,0-0.7-0.1s-0.3-0.1-0.4-0.1l0.4-1.3c0.3,0.1,0.5,0.1,0.8,0.1s0.4-0.1,0.6-0.3
								s0.3-0.4,0.5-0.8l0.2-0.5l-3-8.3h1.7l2.1,6.3h0.1l2.1-6.3h1.7l-3.4,9.3c-0.2,0.4-0.4,0.8-0.6,1.1s-0.5,0.5-0.9,0.7
								C72.2,247.4,71.8,247.5,71.4,247.5z"/>
							<path class="st2" d="M81.3,244.6c-0.5,0-1-0.1-1.4-0.3s-0.8-0.5-1-0.8c-0.2-0.4-0.4-0.8-0.4-1.4c0-0.5,0.1-0.8,0.3-1.1
								c0.2-0.3,0.4-0.5,0.7-0.7s0.6-0.3,1-0.4c0.4-0.1,0.8-0.2,1.1-0.2c0.5-0.1,0.9-0.1,1.2-0.1c0.3,0,0.5-0.1,0.7-0.2
								c0.1-0.1,0.2-0.2,0.2-0.4l0,0c0-0.5-0.1-0.8-0.4-1.1s-0.6-0.4-1.2-0.4c-0.5,0-1,0.1-1.3,0.4c-0.3,0.2-0.5,0.5-0.6,0.8
								l-1.5-0.3c0.2-0.5,0.4-0.9,0.8-1.2s0.7-0.5,1.2-0.7c0.4-0.1,0.9-0.2,1.4-0.2c0.3,0,0.7,0,1,0.1c0.4,0.1,0.7,0.2,1,0.4
								s0.6,0.5,0.8,0.9s0.3,0.9,0.3,1.5v5.4h-1.6v-1.1h-0.1c-0.1,0.2-0.3,0.4-0.5,0.6c-0.2,0.2-0.5,0.4-0.8,0.5
								S81.7,244.6,81.3,244.6z M81.6,243.3c0.4,0,0.8-0.1,1.1-0.3c0.3-0.2,0.6-0.4,0.7-0.7c0.2-0.3,0.2-0.6,0.2-0.9v-1.1
								c-0.1,0.1-0.2,0.1-0.3,0.2c-0.2,0-0.3,0.1-0.6,0.1s-0.4,0.1-0.6,0.1s-0.4,0-0.5,0.1c-0.3,0-0.6,0.1-0.8,0.2s-0.5,0.2-0.6,0.4
								c-0.2,0.2-0.2,0.4-0.2,0.7c0,0.4,0.1,0.7,0.4,0.9C80.8,243.2,81.1,243.3,81.6,243.3z"/>
							<path class="st2" d="M89,239.6v4.9h-1.6v-10.9H89v4.1h0.1c0.2-0.4,0.5-0.8,0.9-1c0.4-0.3,0.9-0.4,1.5-0.4s1.1,0.1,1.5,0.3
								s0.7,0.6,1,1c0.2,0.5,0.3,1,0.3,1.7v5.2h-1.6v-5c0-0.6-0.2-1.1-0.5-1.4c-0.3-0.3-0.7-0.5-1.3-0.5c-0.4,0-0.7,0.1-1,0.2
								c-0.3,0.2-0.5,0.4-0.7,0.7C89.1,238.8,89,239.1,89,239.6z"/>
						</g>
					</g>
				</g>
			</g>
		</g>
		<g>
			<g>
				<g>
					<path class="st2" d="M26.2,32.6c-4.6,0-8.4-3.9-8.4-8.7s3.8-8.7,8.4-8.7s8.4,3.9,8.4,8.7S30.8,32.6,26.2,32.6z M26.2,16.1
						c-4.1,0-7.4,3.5-7.4,7.8s3.3,7.8,7.4,7.8s7.4-3.5,7.4-7.8C33.7,19.6,30.3,16.1,26.2,16.1z"/>
				</g>
				<ellipse class="st3" cx="26.2" cy="23.9" rx="6.2" ry="6.5"/>
			</g>
			<g>
				<g>
					<path class="st2" d="M26.2,75.6c-4.6,0-8.4-3.9-8.4-8.7s3.8-8.7,8.4-8.7s8.4,3.9,8.4,8.7S30.8,75.6,26.2,75.6z M26.2,59.1
						c-4.1,0-7.4,3.5-7.4,7.8s3.3,7.8,7.4,7.8s7.4-3.5,7.4-7.8C33.7,62.6,30.3,59.1,26.2,59.1z"/>
				</g>
				<ellipse class="st4" cx="26.2" cy="66.9" rx="6.2" ry="6.5"/>
			</g>
			<g>
				<g>
					<path class="st2" d="M26.2,118.6c-4.6,0-8.4-3.9-8.4-8.7c0-4.8,3.8-8.7,8.4-8.7s8.4,3.9,8.4,8.7S30.8,118.6,26.2,118.6z
						 M26.2,102.1c-4.1,0-7.4,3.5-7.4,7.8s3.3,7.8,7.4,7.8s7.4-3.5,7.4-7.8C33.7,105.6,30.3,102.1,26.2,102.1z"/>
				</g>
				<ellipse class="st3" cx="26.2" cy="109.9" rx="6.2" ry="6.5"/>
			</g>
			<g>
				<g>
					<path class="st2" d="M26.2,161.6c-4.6,0-8.4-3.9-8.4-8.7s3.8-8.7,8.4-8.7s8.4,3.9,8.4,8.7C34.6,157.7,30.8,161.6,26.2,161.6z
						 M26.2,145.1c-4.1,0-7.4,3.5-7.4,7.8s3.3,7.8,7.4,7.8s7.4-3.5,7.4-7.8C33.7,148.6,30.3,145.1,26.2,145.1z"/>
				</g>
				<ellipse class="st3" cx="26.2" cy="152.9" rx="6.2" ry="6.5"/>
			</g>
			<g>
				<g>
					<path class="st2" d="M26.2,204.6c-4.6,0-8.4-3.9-8.4-8.7s3.8-8.7,8.4-8.7s8.4,3.9,8.4,8.7C34.6,200.7,30.8,204.6,26.2,204.6z
						 M26.2,188.1c-4.1,0-7.4,3.5-7.4,7.8s3.3,7.8,7.4,7.8s7.4-3.5,7.4-7.8C33.7,191.6,30.3,188.1,26.2,188.1z"/>
				</g>
				<ellipse class="st3" cx="26.2" cy="195.9" rx="6.2" ry="6.5"/>
			</g>
			<g>
				<g>
					<path class="st2" d="M26.2,247.6c-4.6,0-8.4-3.9-8.4-8.7s3.8-8.7,8.4-8.7s8.4,3.9,8.4,8.7C34.6,243.7,30.8,247.6,26.2,247.6z
						 M26.2,231.1c-4.1,0-7.4,3.5-7.4,7.8s3.3,7.8,7.4,7.8s7.4-3.5,7.4-7.8C33.7,234.6,30.3,231.1,26.2,231.1z"/>
				</g>
				<ellipse class="st3" cx="26.2" cy="238.8" rx="6.2" ry="6.5"/>
			</g>
		</g>
		<g>
			<line class="st5" x1="24.7" y1="45" x2="210.8" y2="45"/>
			<line class="st5" x1="24.7" y1="88.4" x2="210.8" y2="88.4"/>
			<line class="st5" x1="24.7" y1="130.9" x2="210.8" y2="130.9"/>
			<line class="st5" x1="24.7" y1="172.3" x2="210.8" y2="172.3"/>
			<line class="st5" x1="24.7" y1="217.3" x2="210.8" y2="217.3"/>
		</g>
	</g>
	<g>
		<g>
			<defs>
				<path id="SVGID_1_" d="M244.6,256.8H10.8c-2.4,0-4.4-2-4.4-4.4V10.8c0-2.4,2-4.4,4.4-4.4h233.8c2.4,0,4.4,2,4.4,4.4v241.6
					C249,254.8,247.1,256.8,244.6,256.8z"/>
			</defs>
			<clipPath id="SVGID_00000038403689446020974270000001044434518762514605_">
				<use xlink:href="#SVGID_1_"  style="overflow:visible;"/>
			</clipPath>
			<g style="clip-path:url(#SVGID_00000038403689446020974270000001044434518762514605_);">
				<g>
					<path class="st7" d="M233,289.6L233,289.6c3,0,5.5-2.5,5.5-5.5V26.7c0-3-2.5-5.5-5.5-5.5l0,0c-3,0-5.5,2.5-5.5,5.5V284
						C227.5,287.1,229.9,289.6,233,289.6z"/>
					<g>
						<g>
							<path class="st4" d="M233,161.2L233,161.2c3,0,5.5-2.5,5.5-5.5v-108c0-3-2.5-5.5-5.5-5.5l0,0c-3,0-5.5,2.5-5.5,5.5v108
								C227.5,158.7,229.9,161.2,233,161.2z"/>
						</g>
					</g>
				</g>
			</g>
		</g>
	</g>
</g>
</svg>
