<?xml version="1.0" encoding="utf-8"?>
<!-- Generator: Adobe Illustrator 28.1.0, SVG Export Plug-In . SVG Version: 6.00 Build 0)  -->
<svg version="1.1" id="Layer_1" xmlns="http://www.w3.org/2000/svg" xmlns:xlink="http://www.w3.org/1999/xlink" x="0px" y="0px"
	 viewBox="0 0 152 81" style="enable-background:new 0 0 152 81;" xml:space="preserve">
<style type="text/css">
	.st0{fill:#E7E7E7;}
	.st1{fill:none;stroke:#888888;stroke-width:0.6165;stroke-miterlimit:10;}
	.st2{fill:#25B5B1;}
	.st3{fill:#888888;}
</style>
<g>
	<g>
		<path class="st0" d="M139.1,70.6H12.9c-4.3,0-7.7-3.5-7.7-7.8V18.3c0-4.3,3.5-7.8,7.7-7.8h126.1c4.3,0,7.7,3.5,7.7,7.8v44.5
			C146.8,67.1,143.3,70.6,139.1,70.6z"/>
		<line class="st1" x1="14.8" y1="40.9" x2="137.2" y2="40.9"/>
	</g>
	<g>
		<g>
			<g>
				<path class="st2" d="M56.3,62.4v-1.8l4.3-3.9c0.4-0.4,0.7-0.7,0.9-0.9s0.4-0.6,0.6-0.8c0.1-0.3,0.2-0.6,0.2-0.9
					c0-0.4-0.1-0.7-0.2-0.9s-0.4-0.5-0.7-0.6c-0.3-0.1-0.6-0.2-0.9-0.2c-0.4,0-0.7,0.1-1,0.2s-0.5,0.4-0.6,0.6
					c-0.1,0.3-0.2,0.6-0.2,1h-2.4c0-0.8,0.2-1.5,0.5-2c0.4-0.6,0.9-1,1.5-1.3c0.6-0.3,1.4-0.5,2.2-0.5c0.9,0,1.6,0.2,2.2,0.5
					c0.6,0.3,1.1,0.7,1.5,1.3s0.5,1.1,0.5,1.8c0,0.5-0.1,0.9-0.3,1.3c-0.2,0.4-0.5,0.9-0.9,1.5c-0.5,0.5-1.1,1.2-1.9,1.9l-1.7,1.7
					v0.1h5v2.1H56.3z"/>
				<path class="st2" d="M66.4,60.3v-2l5-7.9h1.7v2.8h-1l-3.1,5v0.1h7.1v2H66.4z M72.2,62.4v-2.7l0-0.9v-8.4h2.4v12H72.2z"/>
				<path class="st2" d="M80.6,56.1c-0.5,0-1-0.1-1.4-0.4c-0.4-0.3-0.8-0.6-1-1s-0.4-0.9-0.4-1.4c0-0.5,0.1-1,0.4-1.4
					c0.3-0.4,0.6-0.8,1-1c0.4-0.3,0.9-0.4,1.4-0.4s1,0.1,1.4,0.4c0.4,0.3,0.8,0.6,1,1c0.3,0.4,0.4,0.9,0.4,1.4c0,0.5-0.1,1-0.4,1.4
					c-0.3,0.4-0.6,0.8-1,1C81.6,55.9,81.1,56.1,80.6,56.1z M80.6,54.4c0.2,0,0.4-0.1,0.6-0.2c0.2-0.1,0.3-0.3,0.4-0.4
					c0.1-0.2,0.2-0.4,0.2-0.6c0-0.2-0.1-0.4-0.2-0.6c-0.1-0.2-0.3-0.3-0.4-0.4C81,52,80.8,52,80.6,52c-0.2,0-0.4,0.1-0.6,0.2
					s-0.3,0.3-0.4,0.4c-0.1,0.2-0.2,0.4-0.2,0.6c0,0.2,0.1,0.4,0.2,0.6c0.1,0.2,0.3,0.3,0.4,0.4S80.3,54.4,80.6,54.4z"/>
				<path class="st2" d="M95.9,54.6h-2.6c0-0.3-0.1-0.6-0.3-0.9c-0.1-0.3-0.3-0.5-0.6-0.7s-0.5-0.3-0.8-0.4s-0.6-0.1-1-0.1
					c-0.6,0-1.2,0.2-1.6,0.5s-0.8,0.7-1.1,1.3c-0.3,0.6-0.4,1.3-0.4,2.1c0,0.9,0.1,1.6,0.4,2.1s0.6,1,1.1,1.3s1,0.4,1.6,0.4
					c0.3,0,0.7,0,0.9-0.1c0.3-0.1,0.5-0.2,0.8-0.4c0.2-0.2,0.4-0.4,0.6-0.6c0.2-0.2,0.3-0.5,0.3-0.9l2.6,0c-0.1,0.5-0.2,1.1-0.5,1.6
					s-0.6,1-1.1,1.4c-0.4,0.4-1,0.7-1.6,0.9c-0.6,0.2-1.3,0.3-2.1,0.3c-1.1,0-2-0.2-2.9-0.7c-0.8-0.5-1.5-1.2-2-2.1s-0.7-2-0.7-3.3
					c0-1.3,0.2-2.4,0.7-3.3s1.2-1.6,2-2.1c0.8-0.5,1.8-0.7,2.8-0.7c0.7,0,1.3,0.1,1.9,0.3c0.6,0.2,1.1,0.5,1.6,0.8
					c0.5,0.4,0.8,0.8,1.1,1.4C95.7,53.3,95.9,53.9,95.9,54.6z"/>
			</g>
		</g>
	</g>
	<g>
		<g>
			<path class="st3" d="M22.5,19.2v-1.6h9.8v1.6h-4v11.1h-1.9V19.2H22.5z"/>
			<path class="st3" d="M38.4,30.5c-0.9,0-1.7-0.2-2.4-0.6c-0.7-0.4-1.2-1-1.6-1.7c-0.4-0.7-0.5-1.6-0.5-2.6c0-1,0.2-1.8,0.5-2.6
				c0.4-0.7,0.9-1.3,1.5-1.7c0.7-0.4,1.4-0.6,2.3-0.6c0.5,0,1.1,0.1,1.6,0.3c0.5,0.2,1,0.5,1.4,0.8c0.4,0.4,0.7,0.9,0.9,1.5
				c0.2,0.6,0.3,1.3,0.3,2.2v0.7h-7.6v-1.4h5.8c0-0.5-0.1-0.9-0.3-1.3c-0.2-0.4-0.5-0.7-0.8-0.9c-0.4-0.2-0.8-0.3-1.3-0.3
				c-0.5,0-1,0.1-1.4,0.4c-0.4,0.3-0.7,0.6-0.9,1s-0.3,0.8-0.3,1.3v1.1c0,0.6,0.1,1.2,0.3,1.6c0.2,0.4,0.5,0.8,0.9,1
				c0.4,0.2,0.9,0.4,1.4,0.4c0.4,0,0.7-0.1,1-0.2c0.3-0.1,0.5-0.3,0.8-0.5s0.4-0.5,0.5-0.8l1.8,0.3c-0.1,0.5-0.4,1-0.8,1.4
				c-0.4,0.4-0.8,0.7-1.4,0.9C39.7,30.4,39.1,30.5,38.4,30.5z"/>
			<path class="st3" d="M44.6,30.3v-9.5h1.8v1.6h0.1c0.2-0.5,0.5-0.9,1-1.2c0.5-0.3,1-0.4,1.6-0.4c0.6,0,1.2,0.1,1.6,0.4
				c0.4,0.3,0.8,0.7,1,1.2h0.1c0.2-0.5,0.6-0.9,1.1-1.2c0.5-0.3,1.1-0.5,1.8-0.5c0.9,0,1.6,0.3,2.1,0.8c0.5,0.5,0.8,1.4,0.8,2.4v6.4
				h-1.9v-6.2c0-0.6-0.2-1.1-0.5-1.4s-0.8-0.4-1.3-0.4c-0.6,0-1.1,0.2-1.4,0.6S52,23.6,52,24.2v6.1h-1.8v-6.3c0-0.5-0.2-0.9-0.5-1.2
				c-0.3-0.3-0.7-0.5-1.3-0.5c-0.4,0-0.7,0.1-1,0.3c-0.3,0.2-0.5,0.4-0.7,0.8s-0.3,0.7-0.3,1.1v5.9H44.6z"/>
			<path class="st3" d="M60,33.8V20.7h1.8v1.5H62c0.1-0.2,0.3-0.4,0.5-0.7c0.2-0.3,0.5-0.5,0.8-0.7c0.4-0.2,0.8-0.3,1.4-0.3
				c0.8,0,1.5,0.2,2.1,0.6s1.1,0.9,1.4,1.7c0.3,0.7,0.5,1.6,0.5,2.6s-0.2,1.9-0.5,2.6c-0.3,0.7-0.8,1.3-1.4,1.7s-1.3,0.6-2.1,0.6
				c-0.6,0-1.1-0.1-1.4-0.3s-0.7-0.4-0.9-0.7c-0.2-0.3-0.4-0.5-0.5-0.7h-0.1v5.1H60z M61.8,25.5c0,0.7,0.1,1.3,0.3,1.8
				c0.2,0.5,0.5,0.9,0.8,1.2s0.8,0.4,1.4,0.4c0.6,0,1-0.1,1.4-0.4c0.4-0.3,0.7-0.7,0.8-1.2c0.2-0.5,0.3-1.1,0.3-1.7
				c0-0.6-0.1-1.2-0.3-1.7s-0.5-0.9-0.8-1.2c-0.4-0.3-0.8-0.4-1.4-0.4c-0.5,0-1,0.1-1.4,0.4c-0.4,0.3-0.7,0.7-0.8,1.2
				S61.8,24.8,61.8,25.5z"/>
			<path class="st3" d="M74.9,30.5c-0.9,0-1.7-0.2-2.4-0.6c-0.7-0.4-1.2-1-1.6-1.7c-0.4-0.7-0.5-1.6-0.5-2.6c0-1,0.2-1.8,0.5-2.6
				c0.4-0.7,0.9-1.3,1.5-1.7c0.7-0.4,1.4-0.6,2.3-0.6c0.5,0,1.1,0.1,1.6,0.3c0.5,0.2,1,0.5,1.4,0.8c0.4,0.4,0.7,0.9,0.9,1.5
				c0.2,0.6,0.3,1.3,0.3,2.2v0.7h-7.6v-1.4h5.8c0-0.5-0.1-0.9-0.3-1.3c-0.2-0.4-0.5-0.7-0.8-0.9c-0.4-0.2-0.8-0.3-1.3-0.3
				c-0.5,0-1,0.1-1.4,0.4c-0.4,0.3-0.7,0.6-0.9,1s-0.3,0.8-0.3,1.3v1.1c0,0.6,0.1,1.2,0.3,1.6c0.2,0.4,0.5,0.8,0.9,1
				c0.4,0.2,0.9,0.4,1.4,0.4c0.4,0,0.7-0.1,1-0.2c0.3-0.1,0.5-0.3,0.8-0.5s0.4-0.5,0.5-0.8l1.8,0.3c-0.1,0.5-0.4,1-0.8,1.4
				c-0.4,0.4-0.8,0.7-1.4,0.9C76.2,30.4,75.6,30.5,74.9,30.5z"/>
			<path class="st3" d="M81,30.3v-9.5h1.8v1.5h0.1c0.2-0.5,0.5-0.9,0.9-1.2c0.4-0.3,0.9-0.4,1.5-0.4c0.1,0,0.3,0,0.4,0
				c0.2,0,0.3,0,0.4,0v1.8c-0.1,0-0.2,0-0.4-0.1c-0.2,0-0.4,0-0.6,0c-0.4,0-0.8,0.1-1.2,0.3c-0.3,0.2-0.6,0.4-0.8,0.8
				c-0.2,0.3-0.3,0.7-0.3,1.1v5.8H81z"/>
			<path class="st3" d="M90.5,30.5c-0.6,0-1.1-0.1-1.6-0.3c-0.5-0.2-0.9-0.6-1.2-1s-0.4-1-0.4-1.6c0-0.5,0.1-1,0.3-1.3
				c0.2-0.3,0.5-0.6,0.8-0.8s0.7-0.4,1.2-0.5c0.4-0.1,0.9-0.2,1.3-0.2c0.6-0.1,1-0.1,1.4-0.2s0.6-0.1,0.8-0.2s0.2-0.3,0.2-0.5v0
				c0-0.5-0.2-1-0.5-1.3c-0.3-0.3-0.8-0.4-1.4-0.4c-0.6,0-1.1,0.1-1.5,0.4c-0.4,0.3-0.6,0.6-0.7,0.9l-1.7-0.4c0.2-0.6,0.5-1,0.9-1.4
				c0.4-0.4,0.9-0.6,1.4-0.8c0.5-0.2,1.1-0.2,1.6-0.2c0.4,0,0.8,0,1.2,0.1c0.4,0.1,0.8,0.3,1.2,0.5s0.7,0.6,0.9,1
				c0.2,0.4,0.4,1,0.4,1.7v6.3h-1.8V29h-0.1c-0.1,0.2-0.3,0.5-0.5,0.7c-0.2,0.2-0.5,0.4-0.9,0.6C91.5,30.4,91.1,30.5,90.5,30.5z
				 M90.9,29c0.5,0,1-0.1,1.3-0.3c0.4-0.2,0.6-0.5,0.8-0.8c0.2-0.3,0.3-0.7,0.3-1.1v-1.2c-0.1,0.1-0.2,0.1-0.4,0.2
				c-0.2,0.1-0.4,0.1-0.6,0.1c-0.2,0-0.5,0.1-0.7,0.1c-0.2,0-0.4,0.1-0.6,0.1c-0.4,0-0.7,0.1-1,0.2c-0.3,0.1-0.5,0.3-0.7,0.5
				s-0.3,0.5-0.3,0.8c0,0.5,0.2,0.8,0.5,1C90,28.9,90.4,29,90.9,29z"/>
			<path class="st3" d="M102.1,20.7v1.5h-5.2v-1.5H102.1z M98.3,18.5h1.9v9c0,0.4,0.1,0.6,0.2,0.8c0.1,0.2,0.2,0.3,0.4,0.4
				s0.4,0.1,0.6,0.1c0.1,0,0.3,0,0.4,0c0.1,0,0.2,0,0.3,0l0.3,1.5c-0.1,0-0.3,0.1-0.5,0.1c-0.2,0-0.4,0.1-0.7,0.1
				c-0.5,0-0.9-0.1-1.4-0.3c-0.4-0.2-0.8-0.5-1-0.8s-0.4-0.9-0.4-1.4V18.5z"/>
			<path class="st3" d="M110.2,26.3v-5.6h1.9v9.5h-1.8v-1.6h-0.1c-0.2,0.5-0.6,0.9-1.1,1.3c-0.5,0.3-1.1,0.5-1.8,0.5
				c-0.6,0-1.2-0.1-1.6-0.4s-0.8-0.7-1.1-1.2c-0.3-0.5-0.4-1.2-0.4-2v-6.1h1.9v5.8c0,0.6,0.2,1.2,0.5,1.6c0.4,0.4,0.8,0.6,1.4,0.6
				c0.3,0,0.7-0.1,1-0.3c0.3-0.2,0.6-0.4,0.9-0.8S110.2,26.9,110.2,26.3z"/>
			<path class="st3" d="M114.6,30.3v-9.5h1.8v1.5h0.1c0.2-0.5,0.5-0.9,0.9-1.2c0.4-0.3,0.9-0.4,1.5-0.4c0.1,0,0.3,0,0.4,0
				c0.2,0,0.3,0,0.4,0v1.8c-0.1,0-0.2,0-0.4-0.1c-0.2,0-0.4,0-0.6,0c-0.4,0-0.8,0.1-1.2,0.3c-0.3,0.2-0.6,0.4-0.8,0.8
				c-0.2,0.3-0.3,0.7-0.3,1.1v5.8H114.6z"/>
			<path class="st3" d="M125.4,30.5c-0.9,0-1.7-0.2-2.4-0.6s-1.2-1-1.6-1.7c-0.4-0.7-0.5-1.6-0.5-2.6c0-1,0.2-1.8,0.5-2.6
				c0.4-0.7,0.9-1.3,1.5-1.7c0.7-0.4,1.4-0.6,2.3-0.6c0.5,0,1.1,0.1,1.6,0.3c0.5,0.2,1,0.5,1.4,0.8s0.7,0.9,0.9,1.5
				c0.2,0.6,0.3,1.3,0.3,2.2v0.7h-7.6v-1.4h5.8c0-0.5-0.1-0.9-0.3-1.3s-0.5-0.7-0.8-0.9c-0.4-0.2-0.8-0.3-1.3-0.3
				c-0.5,0-1,0.1-1.4,0.4c-0.4,0.3-0.7,0.6-0.9,1s-0.3,0.8-0.3,1.3v1.1c0,0.6,0.1,1.2,0.3,1.6c0.2,0.4,0.5,0.8,0.9,1
				c0.4,0.2,0.9,0.4,1.4,0.4c0.3,0,0.7-0.1,1-0.2c0.3-0.1,0.5-0.3,0.8-0.5s0.4-0.5,0.5-0.8l1.8,0.3c-0.1,0.5-0.4,1-0.8,1.4
				c-0.4,0.4-0.8,0.7-1.4,0.9C126.7,30.4,126.1,30.5,125.4,30.5z"/>
		</g>
	</g>
</g>
</svg>
