<?xml version="1.0" encoding="utf-8"?>
<!-- Generator: Adobe Illustrator 28.1.0, SVG Export Plug-In . SVG Version: 6.00 Build 0)  -->
<svg version="1.1" id="Layer_1" xmlns="http://www.w3.org/2000/svg" xmlns:xlink="http://www.w3.org/1999/xlink" x="0px" y="0px"
	 viewBox="0 0 286 43" style="enable-background:new 0 0 286 43;" xml:space="preserve">
<style type="text/css">
	.st0{fill:#FA0A00;stroke:#FFFFFF;stroke-width:1.2529;stroke-miterlimit:10;}
	.st1{fill:#FFFFFF;}
</style>
<g>
	<g>
		<g>
			<g>
				<path class="st0" d="M271.2,39H14.8C11.1,39,8,36,8,32.3V10.7C8,7,11.1,4,14.8,4h256.5c3.7,0,6.7,3,6.7,6.7v21.6
					C277.8,36,274.9,39,271.2,39z"/>
				<g>
					<path class="st1" d="M147.7,22.7c-0.3-0.3-0.6-0.6-1-0.6h-0.1l0,0c0-0.3,0.1-0.7,0.3-0.8c0-0.1,0.1-0.3,0.1-0.4
						c0.1-0.6,0.3-1.1,0.3-1.8c0.1-1.7,0-3.1-0.4-4.2c-0.6-1.3-1.6-2.4-3-3.1c-0.1,0-0.1,0-0.3,0c0.3-0.1,0.7-0.4,1-0.8
						c0.1-0.1,0-0.3,0-0.3c-0.1-0.1-0.3,0-0.3,0c-0.8,1.1-1.8,1-1.8,1c-0.1,0-0.3,0-0.3,0.1c0,0.1,0,0.3,0.1,0.3c0,0,0.1,0,0.3,0
						c0.3,0,0.6,0,0.8-0.1c0,0,0,0-0.1,0.1c-0.1,0.1,0,0.4,0.1,0.6c1.1,0.6,2.1,1.6,2.5,2.7c0.4,1.1,0.6,2.4,0.4,4
						c0,0.6-0.1,1.1-0.3,1.7c0,0,0,0.1-0.1,0.3c-0.1,0.3-0.1,0.4-0.1,0.7c-0.1-1.4-1.4-2.4-2.3-3.1l-0.1-0.1
						c-0.4-0.3-0.8-0.6-1.1-0.8c-0.1-0.1-0.4-0.3-0.6-0.4c-0.7-0.4-1-1-1-1.4c0-0.1-0.1-0.3-0.3-0.3c-0.1,0-0.3,0.1-0.3,0.3
						c0,0.7,0.3,1.3,1.1,1.8c0.1,0.1,0.4,0.3,0.6,0.4c0.4,0.3,0.7,0.6,1.1,0.8l0.1,0.1c0.8,0.7,2.1,1.7,2.1,3c0,0.1,0.1,0.3,0.3,0.3
						h0.1c0,0.3,0,0.6,0.3,0.7c0.1,0.1,0.3,0.1,0.6,0.1h0.1c0.1,0,0.3,0.1,0.4,0.3c0.1,0.1,0.1,0.3,0.1,0.6l-0.6,2.3
						c-0.1,0.6-0.6,0.8-1.1,0.7l0,0l0.8-2.5c0-0.1,0-0.4-0.3-0.4c-0.1,0-0.4,0-0.4,0.3l-0.4,1.3c-0.3,0.4-0.8,1-1.7,1.1
						c-0.7,0.1-1.6-0.1-2.3-0.7c-0.8-0.6-1.6-1.3-2.1-1.7s-1.6-0.4-2.1,0s-1.3,1-2.1,1.7c-0.8,0.6-1.6,0.8-2.3,0.7
						c-0.8-0.1-1.4-0.7-1.7-1.1l-0.4-1.3c0-0.1-0.3-0.3-0.4-0.3c-0.1,0-0.3,0.3-0.3,0.4l0.8,2.5l0,0c-0.6,0.1-1-0.3-1.1-0.7
						l-0.6-2.3c0-0.1,0-0.3,0.1-0.6c0.1-0.3,0.3-0.3,0.4-0.3h0.1c0.1,0,0.6,0,0.7-0.6c0,0.1,0.1,0.1,0.3,0.1l0,0
						c0.7,0,1.3-0.7,1.4-1.3c0.1-0.4,0.3-1,0.3-1.6c0-0.3,0-0.6,0.1-0.7c0.1-1.1,0.8-2.1,1.8-2.7c0.6-0.3,1.1-0.4,1.7-0.6
						c0.6,0,1,0,1.6,0c0.3,0,0.4,0,0.7,0s0.8,0,1.3-0.1c0.3-0.1,0.8-0.1,1.1-0.7c0-0.1,0-0.3-0.1-0.3c-0.1,0-0.3,0-0.3,0.1
						c-0.1,0.3-0.6,0.3-0.7,0.4c-0.4,0.1-0.8,0.1-1.1,0.1c-0.3,0-0.4,0-0.7,0c-0.6,0-1,0-1.6,0c-0.7,0.1-1.4,0.3-2,0.6
						c-1.1,0.7-1.8,1.8-2.1,3c0,0.3,0,0.6-0.1,0.7c0,0.4-0.1,1-0.3,1.3c-0.1,0.4-0.6,0.8-1,0.8c-0.1,0-0.1,0-0.1,0.1
						c0-0.3-0.1-0.7-0.3-1c0-0.1-0.1-0.3-0.1-0.4c-0.6-2.3-0.4-4.2,0.1-5.7c1.3-2.8,4.5-3.4,6.9-3.4c0,0,1.6,0,3.1-0.1
						c2.3-0.3,3.8-0.6,4.5-1.1c0.1-0.1,0.1-0.4,0-0.6c-0.1-0.1-0.4-0.1-0.6,0c-1.3,1-5.7,1.1-7.2,1.1c-1.7,0-3.1,0.3-4.4,0.8
						c-1.6,0.7-2.7,1.7-3.3,3.1c-0.7,1.7-0.8,3.7-0.3,6.2c0,0.1,0.1,0.4,0.1,0.6c0.1,0.3,0.1,0.4,0.1,0.7l0,0c0,0-0.1,0-0.3,0
						c-0.4,0-0.7,0.3-1,0.6c-0.3,0.3-0.3,0.7-0.1,1.1l0.6,2.3c0.3,0.8,1.1,1.4,2,1.3h0.1c0.7,1.7,1.6,3.1,2.5,4.1c1.3,1.3,3,2,4.8,2
						s3.4-0.7,4.8-2c1-1,1.8-2.4,2.5-4.1h0.1c0.8,0.1,1.7-0.4,2-1.3l0.6-2.3C148,23.4,147.9,23,147.7,22.7z M138,32.6
						c-3,0-5.2-2-6.6-5.9l-0.1-0.6c0.3,0.3,0.7,0.4,1.1,0.6c0.1,0,0.4,0,0.6,0c0.7,0,1.4-0.3,2.1-0.8c0.8-0.6,1.6-1.3,2.1-1.7
						c0.4-0.3,1.1-0.3,1.6,0c0.6,0.4,1.3,1,2.1,1.7c1,0.7,1.8,1,2.7,0.8c0.4-0.1,0.8-0.3,1.1-0.6l-0.1,0.6
						C143.1,30.6,140.8,32.6,138,32.6z"/>
					<path class="st1" d="M134.4,22v1c0,0.3,0.1,0.4,0.4,0.4s0.4-0.1,0.4-0.4v-1c0-0.3-0.1-0.4-0.4-0.4S134.4,21.7,134.4,22z"/>
					<path class="st1" d="M140.9,21.6c-0.3,0-0.4,0.1-0.4,0.4v1c0,0.3,0.1,0.4,0.4,0.4l0,0c0.3,0,0.4-0.1,0.4-0.4v-1
						C141.4,21.7,141.2,21.6,140.9,21.6L140.9,21.6z"/>
					<path class="st1" d="M136.1,20.6c0-0.1-0.1-0.3-0.3-0.3h-2.3c-0.1,0-0.3,0.1-0.3,0.3c0,0.1,0.1,0.3,0.3,0.3h2.3
						C136,20.9,136.1,20.7,136.1,20.6z"/>
					<path class="st1" d="M142.5,20.6c0-0.1-0.1-0.3-0.3-0.3h-2.3c-0.1,0-0.3,0.1-0.3,0.3c0,0.1,0.1,0.3,0.3,0.3h2.3
						C142.4,20.9,142.5,20.7,142.5,20.6z"/>
					<path class="st1" d="M138,27.1c0.1,0,0.3-0.1,0.3-0.3v-2c0-0.1-0.1-0.3-0.3-0.3s-0.3,0.1-0.3,0.3v2
						C137.7,26.9,137.8,27.1,138,27.1z"/>
					<path class="st1" d="M133.9,27.4c-0.6,0-1,0.6-1,1.1c0,0.4,0.3,0.8,0.7,1c0,0,0,0,0.1,0c0.1,0,0.1,0,0.3-0.1
						c0-0.1,0-0.3-0.1-0.3c-0.1-0.1-0.3-0.3-0.3-0.6c0-0.3,0.3-0.6,0.6-0.6c0.3,0,0.6,0.3,0.6,0.6c0,0.1,0,0.1,0,0.3
						c0,0.1,0,0.3,0.1,0.3c0.1,0,0.3,0,0.3-0.1c0-0.1,0.1-0.3,0.1-0.4C135,27.8,134.6,27.4,133.9,27.4z"/>
					<path class="st1" d="M139.5,27.1c-0.8,0.4-2.3,0.4-3.1,0c-0.1,0-0.3,0-0.3,0.1c0,0.1,0,0.3,0.1,0.3c0.6,0.3,1.1,0.3,1.8,0.3
						c0.7,0,1.3-0.1,1.8-0.3c0.1,0,0.1-0.1,0.1-0.3C139.8,27.1,139.7,26.9,139.5,27.1z"/>
					<path class="st1" d="M139.5,28.2c-0.8,0.4-2.3,0.4-3.1,0c-0.1,0-0.3,0-0.3,0.1c0,0.1,0,0.3,0.1,0.3c0.6,0.3,1.1,0.3,1.8,0.3
						c0.7,0,1.3-0.1,1.8-0.3c0.1,0,0.1-0.1,0.1-0.3C139.8,28.2,139.7,28.2,139.5,28.2z"/>
					<path class="st1" d="M139.5,29.5c-0.8,0.4-2.3,0.4-3.1,0c-0.1,0-0.3,0-0.3,0.1c0,0.1,0,0.3,0.1,0.3c0.6,0.3,1.1,0.3,1.8,0.3
						c0.7,0,1.3-0.1,1.8-0.3c0.1,0,0.1-0.1,0.1-0.3C139.8,29.5,139.7,29.3,139.5,29.5z"/>
				</g>
			</g>
		</g>
		<g>
			<path class="st1" d="M176.9,15.7h2v8.8c0,0.9-0.2,1.8-0.7,2.5s-1.1,1.3-1.9,1.7c-0.8,0.4-1.7,0.6-2.8,0.6c-1.1,0-2-0.2-2.8-0.6
				c-0.8-0.4-1.4-1-1.9-1.7s-0.7-1.6-0.7-2.5v-8.8h2v8.7c0,0.6,0.1,1.1,0.4,1.6c0.3,0.5,0.7,0.8,1.1,1.1c0.5,0.3,1.1,0.4,1.8,0.4
				c0.7,0,1.3-0.1,1.8-0.4c0.5-0.3,0.9-0.6,1.1-1.1c0.3-0.5,0.4-1,0.4-1.6V15.7z"/>
			<path class="st1" d="M183.7,23.1v6h-2V19h1.9v1.6h0.1c0.2-0.5,0.6-1,1.1-1.3c0.5-0.3,1.1-0.5,1.9-0.5c0.7,0,1.3,0.1,1.8,0.4
				s0.9,0.7,1.2,1.3c0.3,0.6,0.4,1.3,0.4,2.1v6.4h-2v-6.2c0-0.7-0.2-1.3-0.6-1.7c-0.4-0.4-0.9-0.6-1.6-0.6c-0.5,0-0.9,0.1-1.2,0.3
				c-0.4,0.2-0.6,0.5-0.8,0.9C183.8,22.1,183.7,22.6,183.7,23.1z"/>
			<path class="st1" d="M194.8,23.1v6h-2V15.7h1.9v5h0.1c0.2-0.5,0.6-1,1.1-1.3c0.5-0.3,1.1-0.5,1.9-0.5c0.7,0,1.3,0.1,1.8,0.4
				s0.9,0.7,1.2,1.3c0.3,0.6,0.4,1.3,0.4,2.1v6.4h-2v-6.2c0-0.7-0.2-1.3-0.6-1.7s-0.9-0.6-1.6-0.6c-0.5,0-0.9,0.1-1.2,0.3
				c-0.4,0.2-0.7,0.5-0.9,0.9C194.9,22.1,194.8,22.6,194.8,23.1z"/>
			<path class="st1" d="M208.3,29.3c-1,0-1.8-0.2-2.6-0.6s-1.3-1-1.7-1.8c-0.4-0.8-0.6-1.7-0.6-2.7c0-1,0.2-1.9,0.6-2.7
				c0.4-0.8,0.9-1.4,1.6-1.8s1.5-0.7,2.5-0.7c0.6,0,1.1,0.1,1.7,0.3c0.5,0.2,1,0.5,1.4,0.9c0.4,0.4,0.8,0.9,1,1.6
				c0.2,0.6,0.4,1.4,0.4,2.3v0.7h-8v-1.5h6.1c0-0.5-0.1-1-0.3-1.4c-0.2-0.4-0.5-0.7-0.9-0.9c-0.4-0.2-0.8-0.3-1.3-0.3
				c-0.6,0-1,0.1-1.4,0.4c-0.4,0.3-0.7,0.6-0.9,1.1c-0.2,0.4-0.3,0.9-0.3,1.4v1.1c0,0.7,0.1,1.2,0.4,1.7c0.2,0.5,0.6,0.8,1,1.1
				c0.4,0.2,0.9,0.4,1.5,0.4c0.4,0,0.7-0.1,1-0.2c0.3-0.1,0.6-0.3,0.8-0.5c0.2-0.2,0.4-0.5,0.5-0.8l1.9,0.3c-0.1,0.5-0.4,1-0.8,1.4
				s-0.9,0.7-1.4,1C209.7,29.2,209,29.3,208.3,29.3z"/>
			<path class="st1" d="M217.7,29.3c-0.6,0-1.2-0.1-1.7-0.4c-0.5-0.2-0.9-0.6-1.2-1s-0.4-1-0.4-1.7c0-0.6,0.1-1,0.3-1.4
				c0.2-0.4,0.5-0.7,0.9-0.9c0.4-0.2,0.8-0.4,1.2-0.5c0.5-0.1,0.9-0.2,1.4-0.2c0.6-0.1,1.1-0.1,1.5-0.2c0.4,0,0.6-0.1,0.8-0.2
				c0.2-0.1,0.3-0.3,0.3-0.5v0c0-0.6-0.2-1-0.5-1.3c-0.3-0.3-0.8-0.5-1.4-0.5c-0.7,0-1.2,0.1-1.6,0.4s-0.6,0.6-0.8,1l-1.8-0.4
				c0.2-0.6,0.5-1.1,1-1.5c0.4-0.4,0.9-0.7,1.5-0.8c0.6-0.2,1.1-0.3,1.7-0.3c0.4,0,0.8,0,1.3,0.1s0.9,0.3,1.3,0.5
				c0.4,0.2,0.7,0.6,1,1.1c0.3,0.5,0.4,1.1,0.4,1.8v6.7h-1.9v-1.4h-0.1c-0.1,0.3-0.3,0.5-0.6,0.7c-0.3,0.2-0.6,0.4-1,0.6
				S218.3,29.3,217.7,29.3z M218.1,27.8c0.5,0,1-0.1,1.4-0.3c0.4-0.2,0.7-0.5,0.9-0.8c0.2-0.3,0.3-0.7,0.3-1.1v-1.3
				c-0.1,0.1-0.2,0.1-0.4,0.2c-0.2,0.1-0.4,0.1-0.7,0.2c-0.3,0-0.5,0.1-0.7,0.1c-0.2,0-0.4,0.1-0.6,0.1c-0.4,0-0.7,0.1-1,0.2
				c-0.3,0.1-0.6,0.3-0.7,0.5c-0.2,0.2-0.3,0.5-0.3,0.8c0,0.5,0.2,0.9,0.5,1.1C217.1,27.6,217.6,27.8,218.1,27.8z"/>
			<path class="st1" d="M227.3,15.7v13.4h-2V15.7H227.3z"/>
			<path class="st1" d="M234.6,19v1.6h-5.5V19H234.6z M230.6,16.6h2v9.5c0,0.4,0.1,0.7,0.2,0.9c0.1,0.2,0.3,0.3,0.4,0.4
				c0.2,0.1,0.4,0.1,0.6,0.1c0.2,0,0.3,0,0.4,0s0.2,0,0.3-0.1l0.4,1.6c-0.1,0-0.3,0.1-0.5,0.1s-0.5,0.1-0.8,0.1
				c-0.5,0-1-0.1-1.4-0.3c-0.4-0.2-0.8-0.5-1.1-0.9c-0.3-0.4-0.4-0.9-0.4-1.5V16.6z"/>
			<path class="st1" d="M238.7,23.1v6h-2V15.7h1.9v5h0.1c0.2-0.5,0.6-1,1.1-1.3c0.5-0.3,1.1-0.5,1.9-0.5c0.7,0,1.3,0.1,1.8,0.4
				s0.9,0.7,1.2,1.3c0.3,0.6,0.4,1.3,0.4,2.1v6.4h-2v-6.2c0-0.7-0.2-1.3-0.6-1.7s-0.9-0.6-1.6-0.6c-0.5,0-0.9,0.1-1.2,0.3
				s-0.7,0.5-0.9,0.9C238.8,22.1,238.7,22.6,238.7,23.1z"/>
			<path class="st1" d="M249.1,32.9c-0.3,0-0.6,0-0.8-0.1c-0.2,0-0.4-0.1-0.5-0.1l0.5-1.6c0.4,0.1,0.7,0.1,1,0.1
				c0.3,0,0.5-0.1,0.7-0.3c0.2-0.2,0.4-0.5,0.6-1l0.2-0.7L247.1,19h2.1l2.6,7.8h0.1l2.6-7.8h2.1l-4.2,11.4c-0.2,0.5-0.4,1-0.7,1.3
				s-0.7,0.6-1.1,0.8S249.7,32.9,249.1,32.9z"/>
		</g>
		<g>
			<path class="st1" d="M25.3,29.1h-2.2L28,15.7h2.3l4.8,13.4H33l-3.8-11h-0.1L25.3,29.1z M25.7,23.8h7v1.7h-7V23.8z"/>
			<path class="st1" d="M48.8,22.4c0,1.4-0.3,2.7-0.8,3.7c-0.5,1-1.2,1.8-2.2,2.4c-0.9,0.6-1.9,0.8-3.1,0.8c-1.2,0-2.2-0.3-3.1-0.8
				c-0.9-0.6-1.6-1.3-2.2-2.4c-0.5-1-0.8-2.3-0.8-3.7c0-1.4,0.3-2.7,0.8-3.7c0.5-1,1.2-1.8,2.2-2.4c0.9-0.6,2-0.8,3.1-0.8
				c1.2,0,2.2,0.3,3.1,0.8c0.9,0.6,1.6,1.3,2.2,2.4C48.5,19.7,48.8,21,48.8,22.4z M46.8,22.4c0-1.1-0.2-2-0.5-2.8
				c-0.4-0.8-0.8-1.3-1.4-1.7s-1.3-0.6-2.1-0.6c-0.8,0-1.5,0.2-2.1,0.6s-1.1,1-1.4,1.7c-0.4,0.8-0.5,1.7-0.5,2.8
				c0,1.1,0.2,2,0.5,2.8c0.4,0.8,0.8,1.3,1.4,1.7s1.3,0.6,2.1,0.6c0.8,0,1.5-0.2,2.1-0.6s1.1-1,1.4-1.7
				C46.6,24.4,46.8,23.5,46.8,22.4z M42.1,24.8h2l1.4,1.8l0.7,0.8l2.2,2.9h-2.1l-1.5-1.9l-0.5-0.7L42.1,24.8z"/>
			<path class="st1" d="M53.4,15.7v13.4h-2V15.7H53.4z"/>
		</g>
		<g>
			<path class="st1" d="M78.7,15.7v13.4h-2.8V18.4h-0.1l-3.1,1.9v-2.5l3.3-2.1H78.7z"/>
			<path class="st1" d="M86.8,29.3c-0.9,0-1.8-0.2-2.5-0.5c-0.7-0.3-1.3-0.8-1.7-1.4c-0.4-0.6-0.6-1.3-0.7-2.1h2.8
				c0,0.5,0.2,0.9,0.7,1.3c0.4,0.3,0.9,0.5,1.5,0.5c0.4,0,0.8-0.1,1.2-0.3c0.3-0.2,0.6-0.5,0.8-0.8c0.2-0.4,0.3-0.8,0.3-1.2
				c0-0.5-0.1-0.9-0.3-1.2c-0.2-0.4-0.5-0.6-0.8-0.8c-0.4-0.2-0.8-0.3-1.2-0.3c-0.4,0-0.8,0.1-1.1,0.2c-0.4,0.2-0.7,0.4-0.9,0.7
				l-2.5-0.5l0.6-7.1h8.2V18h-5.9l-0.3,3.4h0.1c0.2-0.3,0.6-0.6,1.1-0.8s1-0.3,1.6-0.3c0.8,0,1.5,0.2,2.2,0.6
				c0.6,0.4,1.1,0.9,1.5,1.6c0.4,0.7,0.5,1.4,0.5,2.3c0,0.9-0.2,1.7-0.6,2.4c-0.4,0.7-1,1.3-1.8,1.7S87.8,29.3,86.8,29.3z"/>
			<path class="st1" d="M98.8,29.3c-1,0-1.9-0.2-2.6-0.5c-0.8-0.3-1.4-0.8-1.8-1.4c-0.4-0.6-0.7-1.3-0.7-2.1h2.9
				c0,0.3,0.1,0.6,0.3,0.9s0.5,0.4,0.8,0.6s0.7,0.2,1.1,0.2c0.4,0,0.8-0.1,1.1-0.2c0.3-0.2,0.6-0.4,0.8-0.6c0.2-0.3,0.3-0.6,0.3-0.9
				c0-0.4-0.1-0.7-0.3-1c-0.2-0.3-0.5-0.5-0.9-0.7c-0.4-0.2-0.8-0.2-1.3-0.2h-1.3v-2.1h1.3c0.4,0,0.8-0.1,1.1-0.2
				c0.3-0.1,0.6-0.4,0.8-0.6c0.2-0.3,0.3-0.6,0.3-0.9c0-0.3-0.1-0.6-0.2-0.9c-0.2-0.3-0.4-0.5-0.7-0.6s-0.6-0.2-1-0.2
				c-0.4,0-0.7,0.1-1.1,0.2s-0.6,0.3-0.8,0.6s-0.3,0.6-0.3,0.9h-2.7c0-0.8,0.2-1.5,0.7-2c0.4-0.6,1-1.1,1.7-1.4
				c0.7-0.3,1.6-0.5,2.5-0.5c0.9,0,1.7,0.2,2.4,0.5c0.7,0.3,1.2,0.8,1.6,1.4c0.4,0.6,0.6,1.2,0.6,1.9c0,0.8-0.2,1.4-0.7,1.9
				c-0.5,0.5-1.1,0.8-1.8,1v0.1c1,0.1,1.7,0.5,2.3,1s0.8,1.3,0.8,2.1c0,0.8-0.2,1.4-0.7,2c-0.4,0.6-1.1,1.1-1.8,1.4
				C100.7,29.1,99.8,29.3,98.8,29.3z"/>
		</g>
	</g>
</g>
</svg>
