<?xml version="1.0" encoding="utf-8"?>
<!-- Generator: Adobe Illustrator 28.1.0, SVG Export Plug-In . SVG Version: 6.00 Build 0)  -->
<svg version="1.1" id="Layer_1" xmlns="http://www.w3.org/2000/svg" xmlns:xlink="http://www.w3.org/1999/xlink" x="0px" y="0px"
	 viewBox="0 0 154 43" style="enable-background:new 0 0 154 43;" xml:space="preserve">
<style type="text/css">
	.st0{fill:#EBEBEB;stroke:#E7E7E7;stroke-width:3.1586;stroke-linecap:round;stroke-linejoin:round;stroke-miterlimit:10;}
	.st1{fill:#C5C8D2;}
</style>
<g>
	<path class="st0" d="M130,36.8H24c-8.4,0-15.3-6.9-15.3-15.3v0c0-8.4,6.9-15.3,15.3-15.3h106c8.4,0,15.3,6.9,15.3,15.3v0
		C145.3,29.9,138.4,36.8,130,36.8z"/>
	<g>
		<g>
			<path class="st1" d="M55.5,27.7l-3.8-13.8h2.2l2.7,10.7h0.1l2.8-10.7h2.2l2.8,10.7h0.1l2.7-10.7h2.2l-3.8,13.8h-2.1l-2.9-10.3
				h-0.1l-2.9,10.3H55.5z"/>
			<path class="st1" d="M75.7,27.9c-1,0-1.9-0.2-2.6-0.7c-0.7-0.4-1.3-1.1-1.7-1.9c-0.4-0.8-0.6-1.7-0.6-2.8c0-1.1,0.2-2,0.6-2.8
				c0.4-0.8,1-1.4,1.7-1.9c0.7-0.5,1.6-0.7,2.5-0.7c0.6,0,1.1,0.1,1.7,0.3c0.5,0.2,1,0.5,1.5,0.9c0.4,0.4,0.8,0.9,1,1.6
				s0.4,1.5,0.4,2.4v0.7h-8.2v-1.5h6.2c0-0.5-0.1-1-0.3-1.4c-0.2-0.4-0.5-0.7-0.9-1s-0.8-0.4-1.4-0.4c-0.6,0-1.1,0.1-1.5,0.4
				c-0.4,0.3-0.7,0.6-1,1.1s-0.3,0.9-0.3,1.4V23c0,0.7,0.1,1.3,0.4,1.8c0.2,0.5,0.6,0.9,1,1.1s1,0.4,1.5,0.4c0.4,0,0.7-0.1,1-0.2
				c0.3-0.1,0.6-0.3,0.8-0.5s0.4-0.5,0.5-0.8l1.9,0.3c-0.2,0.6-0.4,1.1-0.8,1.5s-0.9,0.7-1.5,1C77.1,27.7,76.4,27.9,75.7,27.9z"/>
			<path class="st1" d="M86.8,27.9c-1,0-1.9-0.2-2.6-0.7c-0.7-0.4-1.3-1.1-1.7-1.9c-0.4-0.8-0.6-1.7-0.6-2.8c0-1.1,0.2-2,0.6-2.8
				c0.4-0.8,1-1.4,1.7-1.9c0.7-0.5,1.6-0.7,2.5-0.7c0.6,0,1.1,0.1,1.7,0.3c0.5,0.2,1,0.5,1.5,0.9c0.4,0.4,0.8,0.9,1,1.6
				s0.4,1.5,0.4,2.4v0.7H83v-1.5h6.2c0-0.5-0.1-1-0.3-1.4c-0.2-0.4-0.5-0.7-0.9-1s-0.8-0.4-1.4-0.4c-0.6,0-1.1,0.1-1.5,0.4
				c-0.4,0.3-0.7,0.6-1,1.1s-0.3,0.9-0.3,1.4V23c0,0.7,0.1,1.3,0.4,1.8c0.2,0.5,0.6,0.9,1,1.1s1,0.4,1.5,0.4c0.4,0,0.7-0.1,1-0.2
				c0.3-0.1,0.6-0.3,0.8-0.5s0.4-0.5,0.5-0.8l1.9,0.3c-0.2,0.6-0.4,1.1-0.8,1.5s-0.9,0.7-1.5,1C88.2,27.7,87.6,27.9,86.8,27.9z"/>
			<path class="st1" d="M93.5,27.7V13.9h2v13.8H93.5z M95.3,24.1l0-2.5h0.3l4.1-4.4h2.4l-4.7,5h-0.3L95.3,24.1z M100,27.7l-3.7-4.9
				l1.4-1.4l4.8,6.3H100z"/>
		</g>
	</g>
</g>
</svg>
