<?xml version="1.0" encoding="utf-8"?>
<!-- Generator: Adobe Illustrator 28.1.0, SVG Export Plug-In . SVG Version: 6.00 Build 0)  -->
<svg version="1.1" id="Layer_1" xmlns="http://www.w3.org/2000/svg" xmlns:xlink="http://www.w3.org/1999/xlink" x="0px" y="0px"
	 viewBox="0 0 152 81" style="enable-background:new 0 0 152 81;" xml:space="preserve">
<style type="text/css">
	.st0{fill:#E7E7E7;}
	.st1{fill:none;stroke:#888888;stroke-width:0.6165;stroke-miterlimit:10;}
	.st2{fill:#25B5B1;}
	.st3{fill:#888888;}
</style>
<g>
	<g>
		<path class="st0" d="M139.1,70.6H12.9c-4.3,0-7.7-3.5-7.7-7.8V18.3c0-4.3,3.5-7.8,7.7-7.8h126.1c4.3,0,7.7,3.5,7.7,7.8v44.5
			C146.8,67.1,143.3,70.6,139.1,70.6z"/>
		<line class="st1" x1="14.8" y1="40.9" x2="137.2" y2="40.9"/>
	</g>
	<g>
		<g>
			<g>
				<path class="st2" d="M33.7,62.4v-1.8l4.3-3.9c0.4-0.4,0.7-0.7,0.9-0.9s0.4-0.6,0.6-0.8c0.1-0.3,0.2-0.6,0.2-0.9
					c0-0.4-0.1-0.7-0.2-0.9s-0.4-0.5-0.7-0.6c-0.3-0.1-0.6-0.2-0.9-0.2c-0.4,0-0.7,0.1-1,0.2s-0.5,0.4-0.6,0.6
					c-0.1,0.3-0.2,0.6-0.2,1h-2.4c0-0.8,0.2-1.5,0.5-2c0.4-0.6,0.9-1,1.5-1.3c0.6-0.3,1.4-0.5,2.2-0.5c0.9,0,1.6,0.2,2.2,0.5
					c0.6,0.3,1.1,0.7,1.5,1.3s0.5,1.1,0.5,1.8c0,0.5-0.1,0.9-0.3,1.3c-0.2,0.4-0.5,0.9-0.9,1.5c-0.5,0.5-1.1,1.2-1.9,1.9l-1.7,1.7
					v0.1h5v2.1H33.7z"/>
				<path class="st2" d="M48.4,50.2c0.6,0,1.2,0.1,1.8,0.3c0.6,0.2,1.1,0.5,1.5,1c0.4,0.5,0.8,1,1.1,1.8c0.3,0.7,0.4,1.7,0.4,2.7
					c0,1-0.1,1.9-0.3,2.7c-0.2,0.8-0.6,1.5-1,2s-0.9,1-1.5,1.3s-1.3,0.4-2,0.4c-0.8,0-1.5-0.2-2.1-0.5c-0.6-0.3-1.1-0.7-1.5-1.3
					c-0.4-0.5-0.6-1.1-0.7-1.8h2.5c0.1,0.4,0.3,0.8,0.6,1s0.7,0.4,1.2,0.4c0.8,0,1.4-0.3,1.8-1c0.4-0.7,0.6-1.6,0.6-2.8h-0.1
					c-0.2,0.4-0.4,0.7-0.7,0.9c-0.3,0.3-0.7,0.4-1,0.6c-0.4,0.1-0.8,0.2-1.2,0.2c-0.7,0-1.3-0.2-1.9-0.5c-0.6-0.3-1-0.8-1.3-1.4
					s-0.5-1.2-0.5-2c0-0.8,0.2-1.5,0.6-2.1c0.4-0.6,0.9-1.1,1.6-1.5C46.7,50.4,47.5,50.2,48.4,50.2z M48.4,52.2
					c-0.4,0-0.7,0.1-1,0.3s-0.5,0.4-0.7,0.8c-0.2,0.3-0.3,0.7-0.3,1.1c0,0.4,0.1,0.7,0.3,1.1c0.2,0.3,0.4,0.6,0.7,0.7s0.6,0.3,1,0.3
					c0.3,0,0.6-0.1,0.8-0.2s0.5-0.3,0.7-0.5c0.2-0.2,0.3-0.4,0.4-0.7c0.1-0.3,0.2-0.5,0.2-0.8c0-0.4-0.1-0.7-0.3-1
					c-0.2-0.3-0.4-0.6-0.7-0.8S48.8,52.2,48.4,52.2z"/>
				<path class="st2" d="M56.4,62.5c-0.4,0-0.7-0.1-1-0.4s-0.4-0.6-0.4-1c0-0.4,0.1-0.7,0.4-1s0.6-0.4,1-0.4c0.4,0,0.7,0.1,1,0.4
					s0.4,0.6,0.4,1c0,0.3-0.1,0.5-0.2,0.7c-0.1,0.2-0.3,0.4-0.5,0.5S56.6,62.5,56.4,62.5z"/>
				<path class="st2" d="M64.1,50.2c0.6,0,1.2,0.1,1.8,0.3c0.6,0.2,1.1,0.5,1.5,1c0.4,0.5,0.8,1,1.1,1.8c0.3,0.7,0.4,1.7,0.4,2.7
					c0,1-0.1,1.9-0.3,2.7c-0.2,0.8-0.6,1.5-1,2s-0.9,1-1.5,1.3s-1.3,0.4-2,0.4c-0.8,0-1.5-0.2-2.1-0.5c-0.6-0.3-1.1-0.7-1.5-1.3
					c-0.4-0.5-0.6-1.1-0.7-1.8h2.5c0.1,0.4,0.3,0.8,0.6,1s0.7,0.4,1.2,0.4c0.8,0,1.4-0.3,1.8-1c0.4-0.7,0.6-1.6,0.6-2.8h-0.1
					c-0.2,0.4-0.4,0.7-0.7,0.9c-0.3,0.3-0.7,0.4-1,0.6c-0.4,0.1-0.8,0.2-1.2,0.2c-0.7,0-1.3-0.2-1.9-0.5c-0.6-0.3-1-0.8-1.3-1.4
					s-0.5-1.2-0.5-2c0-0.8,0.2-1.5,0.6-2.1c0.4-0.6,0.9-1.1,1.6-1.5C62.4,50.4,63.2,50.2,64.1,50.2z M64.1,52.2
					c-0.4,0-0.7,0.1-1,0.3s-0.5,0.4-0.7,0.8c-0.2,0.3-0.3,0.7-0.3,1.1c0,0.4,0.1,0.7,0.3,1.1c0.2,0.3,0.4,0.6,0.7,0.7s0.6,0.3,1,0.3
					c0.3,0,0.6-0.1,0.8-0.2s0.5-0.3,0.7-0.5c0.2-0.2,0.3-0.4,0.4-0.7c0.1-0.3,0.2-0.5,0.2-0.8c0-0.4-0.1-0.7-0.3-1
					c-0.2-0.3-0.4-0.6-0.7-0.8S64.5,52.2,64.1,52.2z"/>
				<path class="st2" d="M75.8,50.4v12h-2.5v-9.6h-0.1l-2.7,1.7v-2.2l3-1.9H75.8z"/>
				<path class="st2" d="M86.4,62.4V51.9h1.2v10.5H86.4z M87.6,59.5l0-1.5h0.2l3.4-3.5h1.5L89,58.2h-0.1L87.6,59.5z M91.4,62.4
					l-3.1-3.9l0.9-0.8l3.7,4.7H91.4z"/>
				<path class="st2" d="M94.3,62.4v-7.8h1.2v1.2h0.1c0.2-0.4,0.4-0.7,0.8-1c0.4-0.2,0.8-0.3,1.3-0.3c0.5,0,0.9,0.1,1.3,0.3
					c0.3,0.2,0.6,0.6,0.8,1h0.1c0.2-0.4,0.5-0.7,0.9-1c0.4-0.2,0.9-0.4,1.4-0.4c0.7,0,1.3,0.2,1.7,0.7s0.7,1.1,0.7,2v5.3h-1.2v-5.3
					c0-0.6-0.2-1-0.5-1.2c-0.3-0.2-0.7-0.4-1.1-0.4c-0.6,0-1,0.2-1.3,0.5c-0.3,0.3-0.5,0.8-0.5,1.3v5.1h-1.2V57
					c0-0.4-0.1-0.8-0.4-1.1c-0.3-0.3-0.7-0.4-1.1-0.4c-0.3,0-0.6,0.1-0.9,0.2c-0.3,0.2-0.5,0.4-0.7,0.7s-0.2,0.6-0.2,1v4.9H94.3z"/>
				<path class="st2" d="M110.5,51.4l-3.4,12.5H106l3.4-12.5H110.5z"/>
				<path class="st2" d="M113.1,57.6v4.7h-1.2V51.9h1.2v3.8h0.1c0.2-0.4,0.5-0.7,0.8-1c0.4-0.2,0.9-0.4,1.5-0.4c0.5,0,1,0.1,1.4,0.3
					c0.4,0.2,0.7,0.5,0.9,1c0.2,0.4,0.3,1,0.3,1.7v5H117v-4.9c0-0.6-0.2-1.1-0.5-1.4c-0.3-0.3-0.8-0.5-1.3-0.5
					c-0.4,0-0.7,0.1-1.1,0.2c-0.3,0.2-0.6,0.4-0.7,0.7C113.2,56.8,113.1,57.2,113.1,57.6z"/>
			</g>
		</g>
	</g>
	<g>
		<g>
			<path class="st3" d="M29.4,30.3l-3.5-12.7h2l2.5,9.8h0.1l2.6-9.8h2l2.6,9.8h0.1l2.5-9.8h2l-3.5,12.7h-1.9l-2.7-9.5H34l-2.7,9.5
				H29.4z"/>
			<path class="st3" d="M44.8,19.3c-0.3,0-0.6-0.1-0.8-0.3c-0.2-0.2-0.3-0.5-0.3-0.8c0-0.3,0.1-0.6,0.3-0.8c0.2-0.2,0.5-0.3,0.8-0.3
				s0.6,0.1,0.8,0.3c0.2,0.2,0.3,0.5,0.3,0.8c0,0.3-0.1,0.6-0.3,0.8C45.4,19.2,45.1,19.3,44.8,19.3z M43.9,30.3v-9.5h1.9v9.5H43.9z"
				/>
			<path class="st3" d="M50.1,24.6v5.7h-1.9v-9.5H50v1.6h0.1c0.2-0.5,0.6-0.9,1-1.2c0.5-0.3,1.1-0.5,1.8-0.5c0.6,0,1.2,0.1,1.7,0.4
				c0.5,0.3,0.9,0.7,1.1,1.2c0.3,0.5,0.4,1.2,0.4,2v6.1h-1.9v-5.8c0-0.7-0.2-1.2-0.5-1.6c-0.4-0.4-0.9-0.6-1.5-0.6
				c-0.4,0-0.8,0.1-1.1,0.3s-0.6,0.5-0.8,0.8C50.2,23.7,50.1,24.1,50.1,24.6z"/>
			<path class="st3" d="M62.2,30.5c-0.8,0-1.5-0.2-2.1-0.6s-1.1-1-1.4-1.7s-0.5-1.6-0.5-2.6s0.2-1.9,0.5-2.6
				c0.3-0.7,0.8-1.3,1.4-1.7s1.3-0.6,2.1-0.6c0.6,0,1.1,0.1,1.4,0.3c0.4,0.2,0.6,0.4,0.8,0.7c0.2,0.3,0.4,0.5,0.5,0.7h0.1v-4.7H67
				v12.7h-1.8v-1.5H65c-0.1,0.2-0.3,0.4-0.5,0.7c-0.2,0.3-0.5,0.5-0.9,0.7S62.8,30.5,62.2,30.5z M62.6,28.9c0.5,0,1-0.1,1.4-0.4
				s0.7-0.7,0.8-1.2c0.2-0.5,0.3-1.1,0.3-1.8c0-0.7-0.1-1.2-0.3-1.7s-0.5-0.9-0.8-1.2c-0.4-0.3-0.8-0.4-1.4-0.4
				c-0.6,0-1,0.1-1.4,0.4c-0.4,0.3-0.7,0.7-0.8,1.2c-0.2,0.5-0.3,1.1-0.3,1.7c0,0.6,0.1,1.2,0.3,1.7c0.2,0.5,0.5,0.9,0.8,1.2
				C61.6,28.7,62.1,28.9,62.6,28.9z"/>
			<path class="st3" d="M81.3,20.9c-0.1-0.6-0.3-1-0.8-1.4c-0.5-0.3-1.1-0.5-1.8-0.5c-0.5,0-1,0.1-1.4,0.2c-0.4,0.2-0.7,0.4-0.9,0.7
				s-0.3,0.6-0.3,1c0,0.3,0.1,0.6,0.2,0.8c0.1,0.2,0.3,0.4,0.6,0.5c0.2,0.1,0.5,0.3,0.8,0.4s0.5,0.2,0.8,0.2l1.2,0.3
				c0.4,0.1,0.8,0.2,1.2,0.4c0.4,0.2,0.8,0.4,1.2,0.7c0.4,0.3,0.7,0.6,0.9,1c0.2,0.4,0.3,0.9,0.3,1.5c0,0.7-0.2,1.4-0.6,1.9
				c-0.4,0.6-0.9,1-1.6,1.3s-1.5,0.5-2.5,0.5c-1,0-1.8-0.2-2.5-0.5c-0.7-0.3-1.2-0.7-1.6-1.3c-0.4-0.6-0.6-1.2-0.7-2h1.9
				c0,0.5,0.2,0.8,0.4,1.1c0.3,0.3,0.6,0.5,1,0.7c0.4,0.1,0.9,0.2,1.4,0.2c0.5,0,1-0.1,1.4-0.3c0.4-0.2,0.8-0.4,1-0.7
				c0.2-0.3,0.4-0.7,0.4-1.1c0-0.4-0.1-0.7-0.3-0.9s-0.5-0.4-0.9-0.6c-0.4-0.2-0.8-0.3-1.2-0.4l-1.5-0.4c-1-0.3-1.8-0.7-2.4-1.2
				c-0.6-0.5-0.9-1.2-0.9-2.1c0-0.7,0.2-1.4,0.6-1.9c0.4-0.5,0.9-1,1.6-1.3c0.7-0.3,1.4-0.5,2.3-0.5c0.9,0,1.6,0.2,2.3,0.5
				c0.7,0.3,1.2,0.7,1.6,1.2s0.6,1.1,0.6,1.8H81.3z"/>
			<path class="st3" d="M85.5,33.8V20.7h1.8v1.5h0.2c0.1-0.2,0.3-0.4,0.5-0.7c0.2-0.3,0.5-0.5,0.8-0.7c0.4-0.2,0.8-0.3,1.4-0.3
				c0.8,0,1.5,0.2,2.1,0.6s1.1,0.9,1.4,1.7c0.3,0.7,0.5,1.6,0.5,2.6s-0.2,1.9-0.5,2.6c-0.3,0.7-0.8,1.3-1.4,1.7s-1.3,0.6-2.1,0.6
				c-0.6,0-1.1-0.1-1.4-0.3s-0.7-0.4-0.9-0.7c-0.2-0.3-0.4-0.5-0.5-0.7h-0.1v5.1H85.5z M87.3,25.5c0,0.7,0.1,1.3,0.3,1.8
				c0.2,0.5,0.5,0.9,0.8,1.2s0.8,0.4,1.4,0.4c0.6,0,1-0.1,1.4-0.4c0.4-0.3,0.7-0.7,0.8-1.2c0.2-0.5,0.3-1.1,0.3-1.7
				c0-0.6-0.1-1.2-0.3-1.7s-0.5-0.9-0.8-1.2c-0.4-0.3-0.8-0.4-1.4-0.4c-0.5,0-1,0.1-1.4,0.4c-0.4,0.3-0.7,0.7-0.8,1.2
				S87.3,24.8,87.3,25.5z"/>
			<path class="st3" d="M100.4,30.5c-0.9,0-1.7-0.2-2.4-0.6c-0.7-0.4-1.2-1-1.6-1.7c-0.4-0.7-0.5-1.6-0.5-2.6c0-1,0.2-1.8,0.5-2.6
				c0.4-0.7,0.9-1.3,1.5-1.7c0.7-0.4,1.4-0.6,2.3-0.6c0.5,0,1.1,0.1,1.6,0.3c0.5,0.2,1,0.5,1.4,0.8c0.4,0.4,0.7,0.9,0.9,1.5
				c0.2,0.6,0.3,1.3,0.3,2.2v0.7h-7.6v-1.4h5.8c0-0.5-0.1-0.9-0.3-1.3c-0.2-0.4-0.5-0.7-0.8-0.9c-0.4-0.2-0.8-0.3-1.3-0.3
				c-0.5,0-1,0.1-1.4,0.4c-0.4,0.3-0.7,0.6-0.9,1s-0.3,0.8-0.3,1.3v1.1c0,0.6,0.1,1.2,0.3,1.6c0.2,0.4,0.5,0.8,0.9,1
				c0.4,0.2,0.9,0.4,1.4,0.4c0.4,0,0.7-0.1,1-0.2c0.3-0.1,0.5-0.3,0.8-0.5s0.4-0.5,0.5-0.8l1.8,0.3c-0.1,0.5-0.4,1-0.8,1.4
				c-0.4,0.4-0.8,0.7-1.4,0.9C101.7,30.4,101,30.5,100.4,30.5z"/>
			<path class="st3" d="M110.6,30.5c-0.9,0-1.7-0.2-2.4-0.6c-0.7-0.4-1.2-1-1.6-1.7c-0.4-0.7-0.5-1.6-0.5-2.6c0-1,0.2-1.8,0.5-2.6
				c0.4-0.7,0.9-1.3,1.5-1.7c0.7-0.4,1.4-0.6,2.3-0.6c0.5,0,1.1,0.1,1.6,0.3c0.5,0.2,1,0.5,1.4,0.8c0.4,0.4,0.7,0.9,0.9,1.5
				c0.2,0.6,0.3,1.3,0.3,2.2v0.7h-7.6v-1.4h5.8c0-0.5-0.1-0.9-0.3-1.3c-0.2-0.4-0.5-0.7-0.8-0.9c-0.4-0.2-0.8-0.3-1.3-0.3
				c-0.5,0-1,0.1-1.4,0.4c-0.4,0.3-0.7,0.6-0.9,1s-0.3,0.8-0.3,1.3v1.1c0,0.6,0.1,1.2,0.3,1.6c0.2,0.4,0.5,0.8,0.9,1
				c0.4,0.2,0.9,0.4,1.4,0.4c0.4,0,0.7-0.1,1-0.2c0.3-0.1,0.5-0.3,0.8-0.5s0.4-0.5,0.5-0.8l1.8,0.3c-0.1,0.5-0.4,1-0.8,1.4
				c-0.4,0.4-0.8,0.7-1.4,0.9C111.9,30.4,111.3,30.5,110.6,30.5z"/>
			<path class="st3" d="M120.3,30.5c-0.8,0-1.5-0.2-2.1-0.6s-1.1-1-1.4-1.7s-0.5-1.6-0.5-2.6s0.2-1.9,0.5-2.6
				c0.3-0.7,0.8-1.3,1.4-1.7s1.3-0.6,2.1-0.6c0.6,0,1.1,0.1,1.4,0.3c0.4,0.2,0.6,0.4,0.8,0.7c0.2,0.3,0.4,0.5,0.5,0.7h0.1v-4.7h1.9
				v12.7h-1.8v-1.5h-0.2c-0.1,0.2-0.3,0.4-0.5,0.7c-0.2,0.3-0.5,0.5-0.9,0.7C121.4,30.4,120.9,30.5,120.3,30.5z M120.7,28.9
				c0.5,0,1-0.1,1.4-0.4c0.4-0.3,0.7-0.7,0.8-1.2c0.2-0.5,0.3-1.1,0.3-1.8c0-0.7-0.1-1.2-0.3-1.7c-0.2-0.5-0.5-0.9-0.8-1.2
				c-0.4-0.3-0.8-0.4-1.4-0.4c-0.6,0-1,0.1-1.4,0.4c-0.4,0.3-0.7,0.7-0.8,1.2c-0.2,0.5-0.3,1.1-0.3,1.7c0,0.6,0.1,1.2,0.3,1.7
				c0.2,0.5,0.5,0.9,0.8,1.2C119.7,28.7,120.2,28.9,120.7,28.9z"/>
		</g>
	</g>
</g>
</svg>
