<?xml version="1.0" encoding="utf-8"?>
<!-- Generator: Adobe Illustrator 28.1.0, SVG Export Plug-In . SVG Version: 6.00 Build 0)  -->
<svg version="1.1" id="Layer_1" xmlns="http://www.w3.org/2000/svg" xmlns:xlink="http://www.w3.org/1999/xlink" x="0px" y="0px"
	 viewBox="0 0 152 81" style="enable-background:new 0 0 152 81;" xml:space="preserve">
<style type="text/css">
	.st0{fill:#E7E7E7;}
	.st1{fill:none;stroke:#888888;stroke-width:0.6165;stroke-miterlimit:10;}
	.st2{fill:#25B5B1;}
	.st3{fill:#888888;}
</style>
<g>
	<g>
		<path class="st0" d="M139.1,70.6H12.9c-4.3,0-7.7-3.5-7.7-7.8V18.3c0-4.3,3.5-7.8,7.7-7.8h126.1c4.3,0,7.7,3.5,7.7,7.8v44.5
			C146.8,67.1,143.3,70.6,139.1,70.6z"/>
		<line class="st1" x1="14.8" y1="40.9" x2="137.2" y2="40.9"/>
	</g>
	<g>
		<g>
			<g>
				<path class="st2" d="M33.7,62.4v-1.8l4.3-3.9c0.4-0.4,0.7-0.7,0.9-0.9s0.4-0.6,0.6-0.8c0.1-0.3,0.2-0.6,0.2-0.9
					c0-0.4-0.1-0.7-0.2-0.9s-0.4-0.5-0.7-0.6c-0.3-0.1-0.6-0.2-0.9-0.2c-0.4,0-0.7,0.1-1,0.2s-0.5,0.4-0.6,0.6
					c-0.1,0.3-0.2,0.6-0.2,1h-2.4c0-0.8,0.2-1.5,0.5-2c0.4-0.6,0.9-1,1.5-1.3c0.6-0.3,1.4-0.5,2.2-0.5c0.9,0,1.6,0.2,2.2,0.5
					c0.6,0.3,1.1,0.7,1.5,1.3s0.5,1.1,0.5,1.8c0,0.5-0.1,0.9-0.3,1.3c-0.2,0.4-0.5,0.9-0.9,1.5c-0.5,0.5-1.1,1.2-1.9,1.9l-1.7,1.7
					v0.1h5v2.1H33.7z"/>
				<path class="st2" d="M48.4,50.2c0.6,0,1.2,0.1,1.8,0.3c0.6,0.2,1.1,0.5,1.5,1c0.4,0.5,0.8,1,1.1,1.8c0.3,0.7,0.4,1.7,0.4,2.7
					c0,1-0.1,1.9-0.3,2.7c-0.2,0.8-0.6,1.5-1,2s-0.9,1-1.5,1.3s-1.3,0.4-2,0.4c-0.8,0-1.5-0.2-2.1-0.5c-0.6-0.3-1.1-0.7-1.5-1.3
					c-0.4-0.5-0.6-1.1-0.7-1.8h2.5c0.1,0.4,0.3,0.8,0.6,1s0.7,0.4,1.2,0.4c0.8,0,1.4-0.3,1.8-1c0.4-0.7,0.6-1.6,0.6-2.8h-0.1
					c-0.2,0.4-0.4,0.7-0.7,0.9c-0.3,0.3-0.7,0.4-1,0.6c-0.4,0.1-0.8,0.2-1.2,0.2c-0.7,0-1.3-0.2-1.9-0.5c-0.6-0.3-1-0.8-1.3-1.4
					s-0.5-1.2-0.5-2c0-0.8,0.2-1.5,0.6-2.1c0.4-0.6,0.9-1.1,1.6-1.5C46.7,50.4,47.5,50.2,48.4,50.2z M48.4,52.2
					c-0.4,0-0.7,0.1-1,0.3s-0.5,0.4-0.7,0.8c-0.2,0.3-0.3,0.7-0.3,1.1c0,0.4,0.1,0.7,0.3,1.1c0.2,0.3,0.4,0.6,0.7,0.7s0.6,0.3,1,0.3
					c0.3,0,0.6-0.1,0.8-0.2s0.5-0.3,0.7-0.5c0.2-0.2,0.3-0.4,0.4-0.7c0.1-0.3,0.2-0.5,0.2-0.8c0-0.4-0.1-0.7-0.3-1
					c-0.2-0.3-0.4-0.6-0.7-0.8S48.8,52.2,48.4,52.2z"/>
				<path class="st2" d="M56.4,62.5c-0.4,0-0.7-0.1-1-0.4s-0.4-0.6-0.4-1c0-0.4,0.1-0.7,0.4-1s0.6-0.4,1-0.4c0.4,0,0.7,0.1,1,0.4
					s0.4,0.6,0.4,1c0,0.3-0.1,0.5-0.2,0.7c-0.1,0.2-0.3,0.4-0.5,0.5S56.6,62.5,56.4,62.5z"/>
				<path class="st2" d="M64.1,50.2c0.6,0,1.2,0.1,1.8,0.3c0.6,0.2,1.1,0.5,1.5,1c0.4,0.5,0.8,1,1.1,1.8c0.3,0.7,0.4,1.7,0.4,2.7
					c0,1-0.1,1.9-0.3,2.7c-0.2,0.8-0.6,1.5-1,2s-0.9,1-1.5,1.3s-1.3,0.4-2,0.4c-0.8,0-1.5-0.2-2.1-0.5c-0.6-0.3-1.1-0.7-1.5-1.3
					c-0.4-0.5-0.6-1.1-0.7-1.8h2.5c0.1,0.4,0.3,0.8,0.6,1s0.7,0.4,1.2,0.4c0.8,0,1.4-0.3,1.8-1c0.4-0.7,0.6-1.6,0.6-2.8h-0.1
					c-0.2,0.4-0.4,0.7-0.7,0.9c-0.3,0.3-0.7,0.4-1,0.6c-0.4,0.1-0.8,0.2-1.2,0.2c-0.7,0-1.3-0.2-1.9-0.5c-0.6-0.3-1-0.8-1.3-1.4
					s-0.5-1.2-0.5-2c0-0.8,0.2-1.5,0.6-2.1c0.4-0.6,0.9-1.1,1.6-1.5C62.4,50.4,63.2,50.2,64.1,50.2z M64.1,52.2
					c-0.4,0-0.7,0.1-1,0.3s-0.5,0.4-0.7,0.8c-0.2,0.3-0.3,0.7-0.3,1.1c0,0.4,0.1,0.7,0.3,1.1c0.2,0.3,0.4,0.6,0.7,0.7s0.6,0.3,1,0.3
					c0.3,0,0.6-0.1,0.8-0.2s0.5-0.3,0.7-0.5c0.2-0.2,0.3-0.4,0.4-0.7c0.1-0.3,0.2-0.5,0.2-0.8c0-0.4-0.1-0.7-0.3-1
					c-0.2-0.3-0.4-0.6-0.7-0.8S64.5,52.2,64.1,52.2z"/>
				<path class="st2" d="M75.8,50.4v12h-2.5v-9.6h-0.1l-2.7,1.7v-2.2l3-1.9H75.8z"/>
				<path class="st2" d="M86.4,62.4V51.9h1.2v10.5H86.4z M87.6,59.5l0-1.5h0.2l3.4-3.5h1.5l-3.7,3.7h-0.1L87.6,59.5z M91.4,62.4
					l-3.1-3.9l0.9-0.8l3.7,4.7H91.4z"/>
				<path class="st2" d="M94.3,62.4v-7.8h1.2v1.2h0.1c0.2-0.4,0.4-0.7,0.8-1c0.4-0.2,0.8-0.3,1.3-0.3c0.5,0,0.9,0.1,1.3,0.3
					c0.3,0.2,0.6,0.6,0.8,1h0.1c0.2-0.4,0.5-0.7,0.9-1c0.4-0.2,0.9-0.4,1.4-0.4c0.7,0,1.3,0.2,1.7,0.7s0.7,1.1,0.7,2v5.3h-1.2v-5.3
					c0-0.6-0.2-1-0.5-1.2c-0.3-0.2-0.7-0.4-1.1-0.4c-0.6,0-1,0.2-1.3,0.5c-0.3,0.3-0.5,0.8-0.5,1.3v5.1h-1.2V57
					c0-0.4-0.1-0.8-0.4-1.1c-0.3-0.3-0.7-0.4-1.1-0.4c-0.3,0-0.6,0.1-0.9,0.2c-0.3,0.2-0.5,0.4-0.7,0.7s-0.2,0.6-0.2,1v4.9H94.3z"/>
				<path class="st2" d="M110.5,51.4l-3.4,12.5H106l3.4-12.5H110.5z"/>
				<path class="st2" d="M113.1,57.6v4.7h-1.2V51.9h1.2v3.8h0.1c0.2-0.4,0.5-0.7,0.8-1c0.4-0.2,0.9-0.4,1.5-0.4c0.5,0,1,0.1,1.4,0.3
					c0.4,0.2,0.7,0.5,0.9,1c0.2,0.4,0.3,1,0.3,1.7v5H117v-4.9c0-0.6-0.2-1.1-0.5-1.4c-0.3-0.3-0.8-0.5-1.3-0.5
					c-0.4,0-0.7,0.1-1.1,0.2c-0.3,0.2-0.6,0.4-0.7,0.7C113.2,56.8,113.1,57.2,113.1,57.6z"/>
			</g>
		</g>
	</g>
	<g>
		<g>
			<path class="st3" d="M18.4,30.3l-3.5-12.7h2l2.5,9.8h0.1l2.6-9.8h2l2.6,9.8h0.1l2.5-9.8h2l-3.5,12.7h-1.9l-2.7-9.5H23l-2.7,9.5
				H18.4z"/>
			<path class="st3" d="M33.7,19.3c-0.3,0-0.6-0.1-0.8-0.3c-0.2-0.2-0.3-0.5-0.3-0.8c0-0.3,0.1-0.6,0.3-0.8c0.2-0.2,0.5-0.3,0.8-0.3
				s0.6,0.1,0.8,0.3c0.2,0.2,0.3,0.5,0.3,0.8c0,0.3-0.1,0.6-0.3,0.8C34.3,19.2,34.1,19.3,33.7,19.3z M32.8,30.3v-9.5h1.9v9.5H32.8z"
				/>
			<path class="st3" d="M39,24.6v5.7h-1.9v-9.5h1.8v1.6H39c0.2-0.5,0.6-0.9,1-1.2c0.5-0.3,1.1-0.5,1.8-0.5c0.6,0,1.2,0.1,1.7,0.4
				c0.5,0.3,0.9,0.7,1.1,1.2c0.3,0.5,0.4,1.2,0.4,2v6.1h-1.9v-5.8c0-0.7-0.2-1.2-0.5-1.6c-0.4-0.4-0.9-0.6-1.5-0.6
				c-0.4,0-0.8,0.1-1.1,0.3s-0.6,0.5-0.8,0.8C39.1,23.7,39,24.1,39,24.6z"/>
			<path class="st3" d="M51.1,30.5c-0.8,0-1.5-0.2-2.1-0.6s-1.1-1-1.4-1.7s-0.5-1.6-0.5-2.6s0.2-1.9,0.5-2.6
				c0.3-0.7,0.8-1.3,1.4-1.7s1.3-0.6,2.1-0.6c0.6,0,1.1,0.1,1.4,0.3c0.4,0.2,0.6,0.4,0.8,0.7c0.2,0.3,0.4,0.5,0.5,0.7H54v-4.7h1.9
				v12.7h-1.8v-1.5h-0.2c-0.1,0.2-0.3,0.4-0.5,0.7c-0.2,0.3-0.5,0.5-0.9,0.7S51.7,30.5,51.1,30.5z M51.6,28.9c0.5,0,1-0.1,1.4-0.4
				s0.7-0.7,0.8-1.2c0.2-0.5,0.3-1.1,0.3-1.8c0-0.7-0.1-1.2-0.3-1.7s-0.5-0.9-0.8-1.2c-0.4-0.3-0.8-0.4-1.4-0.4
				c-0.6,0-1,0.1-1.4,0.4c-0.4,0.3-0.7,0.7-0.8,1.2c-0.2,0.5-0.3,1.1-0.3,1.7c0,0.6,0.1,1.2,0.3,1.7c0.2,0.5,0.5,0.9,0.8,1.2
				C50.5,28.7,51,28.9,51.6,28.9z"/>
			<path class="st3" d="M67.4,30.3h-4.1V17.6h4.2c1.2,0,2.3,0.3,3.2,0.8c0.9,0.5,1.6,1.2,2.1,2.2c0.5,0.9,0.7,2.1,0.7,3.4
				c0,1.3-0.2,2.5-0.7,3.4c-0.5,1-1.2,1.7-2.1,2.2C69.8,30,68.7,30.3,67.4,30.3z M65.2,28.6h2.1c1,0,1.8-0.2,2.4-0.5
				c0.6-0.4,1.1-0.9,1.4-1.6s0.5-1.5,0.5-2.6c0-1-0.2-1.8-0.5-2.5s-0.8-1.2-1.4-1.6c-0.6-0.4-1.4-0.5-2.3-0.5h-2.2V28.6z"/>
			<path class="st3" d="M76.7,19.3c-0.3,0-0.6-0.1-0.8-0.3c-0.2-0.2-0.3-0.5-0.3-0.8c0-0.3,0.1-0.6,0.3-0.8c0.2-0.2,0.5-0.3,0.8-0.3
				s0.6,0.1,0.8,0.3c0.2,0.2,0.3,0.5,0.3,0.8c0,0.3-0.1,0.6-0.3,0.8C77.3,19.2,77,19.3,76.7,19.3z M75.7,30.3v-9.5h1.9v9.5H75.7z"/>
			<path class="st3" d="M80.1,30.3v-9.5h1.8v1.5H82c0.2-0.5,0.5-0.9,0.9-1.2c0.4-0.3,0.9-0.4,1.5-0.4c0.1,0,0.3,0,0.4,0
				c0.2,0,0.3,0,0.4,0v1.8c-0.1,0-0.2,0-0.4-0.1c-0.2,0-0.4,0-0.6,0c-0.4,0-0.8,0.1-1.2,0.3c-0.3,0.2-0.6,0.4-0.8,0.8
				c-0.2,0.3-0.3,0.7-0.3,1.1v5.8H80.1z"/>
			<path class="st3" d="M90.9,30.5c-0.9,0-1.7-0.2-2.4-0.6c-0.7-0.4-1.2-1-1.6-1.7c-0.4-0.7-0.5-1.6-0.5-2.6c0-1,0.2-1.8,0.5-2.6
				c0.4-0.7,0.9-1.3,1.5-1.7c0.7-0.4,1.4-0.6,2.3-0.6c0.5,0,1.1,0.1,1.6,0.3c0.5,0.2,1,0.5,1.4,0.8c0.4,0.4,0.7,0.9,0.9,1.5
				c0.2,0.6,0.3,1.3,0.3,2.2v0.7h-7.6v-1.4h5.8c0-0.5-0.1-0.9-0.3-1.3c-0.2-0.4-0.5-0.7-0.8-0.9c-0.4-0.2-0.8-0.3-1.3-0.3
				c-0.5,0-1,0.1-1.4,0.4c-0.4,0.3-0.7,0.6-0.9,1s-0.3,0.8-0.3,1.3v1.1c0,0.6,0.1,1.2,0.3,1.6c0.2,0.4,0.5,0.8,0.9,1
				c0.4,0.2,0.9,0.4,1.4,0.4c0.4,0,0.7-0.1,1-0.2c0.3-0.1,0.5-0.3,0.8-0.5s0.4-0.5,0.5-0.8l1.8,0.3c-0.1,0.5-0.4,1-0.8,1.4
				c-0.4,0.4-0.8,0.7-1.4,0.9C92.2,30.4,91.6,30.5,90.9,30.5z"/>
			<path class="st3" d="M101.1,30.5c-0.9,0-1.7-0.2-2.4-0.6c-0.7-0.4-1.2-1-1.5-1.7c-0.4-0.7-0.5-1.6-0.5-2.5c0-1,0.2-1.8,0.5-2.6
				c0.4-0.7,0.9-1.3,1.5-1.7c0.7-0.4,1.4-0.6,2.3-0.6c0.7,0,1.4,0.1,1.9,0.4s1,0.6,1.4,1.1c0.3,0.5,0.6,1,0.6,1.7h-1.8
				c-0.1-0.4-0.3-0.8-0.7-1.2c-0.4-0.3-0.8-0.5-1.4-0.5c-0.5,0-1,0.1-1.4,0.4s-0.7,0.7-0.9,1.2c-0.2,0.5-0.3,1.1-0.3,1.8
				c0,0.7,0.1,1.3,0.3,1.8s0.5,0.9,0.9,1.2c0.4,0.3,0.8,0.4,1.4,0.4c0.4,0,0.7-0.1,1-0.2c0.3-0.1,0.5-0.3,0.7-0.6
				c0.2-0.2,0.3-0.5,0.4-0.9h1.8c-0.1,0.6-0.3,1.2-0.6,1.6s-0.8,0.9-1.3,1.1C102.5,30.3,101.8,30.5,101.1,30.5z"/>
			<path class="st3" d="M111.4,20.7v1.5h-5.2v-1.5H111.4z M107.6,18.5h1.9v9c0,0.4,0.1,0.6,0.2,0.8c0.1,0.2,0.2,0.3,0.4,0.4
				s0.4,0.1,0.6,0.1c0.1,0,0.3,0,0.4,0c0.1,0,0.2,0,0.3,0l0.3,1.5c-0.1,0-0.3,0.1-0.5,0.1c-0.2,0-0.4,0.1-0.7,0.1
				c-0.5,0-0.9-0.1-1.4-0.3c-0.4-0.2-0.8-0.5-1-0.8s-0.4-0.9-0.4-1.4V18.5z"/>
			<path class="st3" d="M114.4,19.3c-0.3,0-0.6-0.1-0.8-0.3c-0.2-0.2-0.3-0.5-0.3-0.8c0-0.3,0.1-0.6,0.3-0.8
				c0.2-0.2,0.5-0.3,0.8-0.3s0.6,0.1,0.8,0.3c0.2,0.2,0.3,0.5,0.3,0.8c0,0.3-0.1,0.6-0.3,0.8C115,19.2,114.7,19.3,114.4,19.3z
				 M113.5,30.3v-9.5h1.9v9.5H113.5z"/>
			<path class="st3" d="M121.8,30.5c-0.9,0-1.7-0.2-2.3-0.6c-0.7-0.4-1.2-1-1.6-1.7c-0.4-0.7-0.6-1.6-0.6-2.6c0-1,0.2-1.9,0.6-2.6
				s0.9-1.3,1.6-1.7c0.7-0.4,1.4-0.6,2.3-0.6c0.9,0,1.7,0.2,2.3,0.6c0.7,0.4,1.2,1,1.6,1.7c0.4,0.7,0.6,1.6,0.6,2.6
				c0,1-0.2,1.8-0.6,2.6c-0.4,0.7-0.9,1.3-1.6,1.7C123.5,30.3,122.7,30.5,121.8,30.5z M121.8,28.9c0.6,0,1.1-0.2,1.4-0.5
				c0.4-0.3,0.7-0.7,0.8-1.2c0.2-0.5,0.3-1.1,0.3-1.7c0-0.6-0.1-1.2-0.3-1.7c-0.2-0.5-0.5-0.9-0.8-1.2s-0.9-0.5-1.4-0.5
				c-0.6,0-1.1,0.2-1.4,0.5c-0.4,0.3-0.7,0.7-0.8,1.2c-0.2,0.5-0.3,1.1-0.3,1.7c0,0.6,0.1,1.2,0.3,1.7c0.2,0.5,0.5,0.9,0.8,1.2
				C120.8,28.8,121.3,28.9,121.8,28.9z"/>
			<path class="st3" d="M130.2,24.6v5.7h-1.9v-9.5h1.8v1.6h0.1c0.2-0.5,0.6-0.9,1-1.2c0.5-0.3,1.1-0.5,1.8-0.5
				c0.6,0,1.2,0.1,1.7,0.4c0.5,0.3,0.9,0.7,1.1,1.2c0.3,0.5,0.4,1.2,0.4,2v6.1h-1.9v-5.8c0-0.7-0.2-1.2-0.5-1.6
				c-0.4-0.4-0.9-0.6-1.5-0.6c-0.4,0-0.8,0.1-1.1,0.3c-0.3,0.2-0.6,0.5-0.8,0.8C130.3,23.7,130.2,24.1,130.2,24.6z"/>
		</g>
	</g>
</g>
</svg>
